<?xml version='1.0' encoding='UTF-8' standalone='no'?>
<svg xmlns="http://www.w3.org/2000/svg" id="svg3" width="2.0999999mm" gorn="0" viewBox="0 0 8.2672734 4.4488189" height="1.13mm" version="1.1" >
    <desc >
        <referenceFile >USB-LESD5D5.0CT1G.svg</referenceFile>
    </desc>
    <g transform="translate(-4035.9,-3032.5)" >
        <g >
            <g >
                <g >
                    <g >
                        <defs id="defs3" />
                        <g transform="translate(-9.9671869,-15.275595)" >
                            <g >
                                <g >
                                    <g >
                                        <g id="copper1" gorn="0.1.0.0.0.0.1.0.0.0.0" >
                                            <path id="connector0pin" d="m 4054.1347,3051.1024 h -3.2301 v -2.2047 h 3.2301 z" gorn="0.1.0.0.0.0.1.0.0.0.0.0" style="stroke-width:0.999994" fill="#ffc000" stroke="none" />
                                            <path id="connector1pin" d="m 4045.867,3048.8971 h 3.2283 v 2.2059 h -3.2283 z" gorn="0.1.0.0.0.0.1.0.0.0.0.1" style="stroke-width:1" fill="#ffc000" stroke="none" />
                                        </g>
                                    </g>
                                </g>
                            </g>
                        </g>
                        <g transform="translate(-9.9671869,-15.275595)" >
                            <g >
                                <g >
                                    <g >
                                        <g id="silkscreen" gorn="0.1.0.0.0.0.2.0.0.0.0" >
                                            <path id="gge49" d="m 4047.4414,3047.7754 a 0.255905,0.255905 0 0 0 -0.2559,0.2559 0.255905,0.255905 0 0 0 0.2559,0.2558 h 5.1172 a 0.255905,0.255905 0 0 0 0.2559,-0.2558 0.255905,0.255905 0 0 0 -0.2559,-0.2559 z" gorn="0.1.0.0.0.0.2.0.0.0.0.0" fill="black" stroke="none" />
                                            <path id="gge52" d="m 4047.4414,3051.7129 a 0.255905,0.255905 0 0 0 -0.2559,0.2559 0.255905,0.255905 0 0 0 0.2559,0.2558 h 5.1172 a 0.255905,0.255905 0 0 0 0.2559,-0.2558 0.255905,0.255905 0 0 0 -0.2559,-0.2559 z" gorn="0.1.0.0.0.0.2.0.0.0.0.1" fill="black" stroke="none" />
                                            <g transform="translate(8.2339662e-4,0.00484217)" >
                                                <g >
                                                    <g >
                                                        <g >
                                                            <g id="g6" gorn="0.1.0.0.0.0.2.0.0.0.0.2.0.0.0.0" >
                                                                <path id="gge55" d="m 4050,3048.9023 a 0.19685,0.19685 0 0 0 -0.1973,0.1973 V 3051 a 0.19685,0.19685 0 0 0 0.1973,0.1973 0.19685,0.19685 0 0 0 0.1973,-0.1973 v -1.9004 A 0.19685,0.19685 0 0 0 4050,3048.9023 Z" gorn="0.1.0.0.0.0.2.0.0.0.0.2.0.0.0.0.0" fill="#000000" stroke="none" />
                                                                <path id="gge58" d="m 4050,3050 0.9,-1.1 v 2.2 z" gorn="0.1.0.0.0.0.2.0.0.0.0.2.0.0.0.0.1" fill="#000000" stroke="none" />
                                                                <path id="gge61" d="m 4050,3050 -0.9,1.1 v -2.2 z" gorn="0.1.0.0.0.0.2.0.0.0.0.2.0.0.0.0.2" fill="#000000" stroke="none" />
                                                            </g>
                                                        </g>
                                                    </g>
                                                </g>
                                            </g>
                                        </g>
                                    </g>
                                </g>
                            </g>
                        </g>
                    </g>
                </g>
            </g>
        </g>
    </g>
</svg>
