<?xml version='1.0' encoding='UTF-8' standalone='no'?>
<svg xmlns="http://www.w3.org/2000/svg" id="svg995" height="6.9000001mm" gorn="0" xml:space="preserve" viewBox="0 0 1006.6 690.00001"  xmlns:xml="http://www.w3.org/XML/1998/namespace" width="10.066mm" version="1.0" style="clip-rule:evenodd;fill-rule:evenodd;image-rendering:optimizeQuality;shape-rendering:geometricPrecision;text-rendering:geometricPrecision">
    <desc >
        <referenceFile >SOIC16.svg</referenceFile>
    </desc>
    <defs id="defs999" />
    <g id="copper1" gorn="0.2" >
        <rect x="28.760059" id="connector15pin" height="195" y="0.010273438" gorn="0.2.0"  width="60.080002" style="fill:#f7bd13"/>
        <rect x="155.82011" id="connector14pin" height="195" y="0.010273438" gorn="0.2.1"  width="60.080002" style="fill:#f7bd13"/>
        <rect x="282.74005" id="connector13pin" height="195" y="0.010273438" gorn="0.2.2"  width="60.080002" style="fill:#f7bd13"/>
        <rect x="409.80011" id="connector12pin" height="195" y="0.010273438" gorn="0.2.3"  width="60.080002" style="fill:#f7bd13"/>
        <rect x="536.84991" id="connector11pin" height="195" y="0.010273438" gorn="0.2.4"  width="60.080002" style="fill:#f7bd13"/>
        <rect x="663.76007" id="connector10pin" height="195" y="0.010273438" gorn="0.2.5"  width="60.080002" style="fill:#f7bd13"/>
        <rect x="790.72003" id="connector9pin" height="195" y="0.010273438" gorn="0.2.6"  width="60.080002" style="fill:#f7bd13"/>
        <rect x="917.74982" id="connector8pin" height="195" y="0.010273438" gorn="0.2.7"  width="60.080002" style="fill:#f7bd13"/>
        <rect x="28.760059" id="connector0pin" height="195" y="494.99954" gorn="0.2.8"  width="60.080002" style="fill:#f7bd13"/>
        <rect x="155.82011" id="connector1pin" height="195" y="494.99954" gorn="0.2.9"  width="60.080002" style="fill:#f7bd13"/>
        <rect x="282.74005" id="connector2pin" height="195" y="494.99954" gorn="0.2.10"  width="60.080002" style="fill:#f7bd13"/>
        <rect x="409.80011" id="connector3pin" height="195" y="494.99954" gorn="0.2.11"  width="60.080002" style="fill:#f7bd13"/>
        <rect x="536.84991" id="connector4pin" height="195" y="494.99954" gorn="0.2.12"  width="60.080002" style="fill:#f7bd13"/>
        <rect x="663.76007" id="connector5pin" height="195" y="494.99954" gorn="0.2.13"  width="60.080002" style="fill:#f7bd13"/>
        <rect x="790.72003" id="connector6pin" height="195" y="494.99954" gorn="0.2.14"  width="60.080002" style="fill:#f7bd13"/>
        <rect x="917.74982" id="connector7pin" height="195" y="494.99954" gorn="0.2.15"  width="60.080002" style="fill:#f7bd13"/>
    </g>
    <g transform="matrix(-1,0,0,1,1006.6,0)" >
        <g >
            <g id="silkscreen" gorn="0.3.0.0" >
                <path id="path986" d="M 10,485 H 996.6 V 205.01 H 10 Z M 0,495 H 1006.6 V 195.01 H 0 Z" gorn="0.3.0.0.0"  style="fill:#000000"/>
                <path id="path990" d="m 78.76,457.18 c 11.06,0 21.08,-4.48 28.31,-11.69 7.21,-7.23 11.69,-17.25 11.69,-28.31 0,-11.06 -4.48,-21.08 -11.69,-28.31 -7.23,-7.21 -17.25,-11.69 -28.31,-11.69 -11.06,0 -21.08,4.48 -28.31,11.69 -7.21,7.23 -11.69,17.25 -11.69,28.31 0,11.06 4.48,21.08 11.69,28.31 7.23,7.21 17.25,11.69 28.31,11.69 z m 0,10 c 27.61,0 50,-22.38 50,-50 0,-27.62 -22.39,-50 -50,-50 -27.61,0 -50,22.38 -50,50 0,27.62 22.39,50 50,50 z" gorn="0.3.0.0.1"  style="fill:#000000"/>
            </g>
        </g>
    </g>
    <metadata id="metadata1068" >
        <rdf:RDF xmlns:rdf="http://www.w3.org/1999/02/22-rdf-syntax-ns#">
            <cc:Work xmlns:rdf="http://www.w3.org/1999/02/22-rdf-syntax-ns#" rdf:about="" xmlns:cc="http://creativecommons.org/ns#">
                <dc:title xmlns:dc="http://purl.org/dc/elements/1.1/"/>
                <dc:format xmlns:dc="http://purl.org/dc/elements/1.1/">image/svg+xml</dc:format>
                <dc:type xmlns:rdf="http://www.w3.org/1999/02/22-rdf-syntax-ns#" xmlns:dc="http://purl.org/dc/elements/1.1/" rdf:resource="http://purl.org/dc/dcmitype/StillImage"/>
            </cc:Work>
        </rdf:RDF>
    </metadata>
</svg>
