<?xml version='1.0' encoding='UTF-8' standalone='no'?>
<!-- Creator: CorelDRAW 2018 -->
<svg xmlns="http://www.w3.org/2000/svg" version="1.0" gorn="0" text-rendering="geometricPrecision" fill-rule="evenodd"  height="9.4931mm" image-rendering="optimizeQuality" shape-rendering="geometricPrecision" clip-rule="evenodd" xml:space="preserve" xmlns:xml="http://www.w3.org/XML/1998/namespace" width="1.7998mm" viewBox="0 0 2.72 14.34" id="svg10272">
    <desc >
        <referenceFile >pad-playtronic.svg</referenceFile>
    </desc>
    <defs  id="defs10276"/>
    <g gorn="0.2"  id="Layer_x0020_1"/>
    <g gorn="0.3"  id="copper1">
        <rect gorn="0.3.0" y="0.060000002"  height="0.74000001" stroke="none" stroke-opacity="1" style="stroke-linecap:square;stroke-linejoin:round;stroke-dashoffset:12.548;paint-order:markers stroke fill" x="0.69" fill="#aa8800" width="1.3200001" stroke-width="0.537411" id="connector0pad" fill-opacity="1"/>
        <rect gorn="0.3.1" y="13.58"  height="0.74000001" stroke="none" stroke-opacity="1" style="stroke-linecap:square;stroke-linejoin:round;stroke-dashoffset:12.548;paint-order:markers stroke fill" x="0.69" fill="#aa8800" width="1.3200001" stroke-width="0.537411" id="connector1pad" fill-opacity="1"/>
        <path gorn="0.3.2"  stroke="none" stroke-opacity="1" d="m 1.74,14.34 c -0.17,0 -0.36,0 -0.54,0 H 0.61 c -0.21,0 -0.38,-0.17 -0.38,-0.38 v 0 c 0,-0.21 0.17,-0.38 0.38,-0.38 v 0 H 1.59 V 13.45 L 0.81,13.19 C 0.79,13.18 0.77,13.16 0.77,13.14 V 12.33 C 0.77,12.21 0.8,12.09 0.87,12 0.91,11.95 0.96,11.92 1.01,11.9 L 0.8,11.83 C 0.78,11.82 0.76,11.8 0.76,11.78 v -0.39 c 0,-0.04 0.04,-0.07 0.07,-0.05 l 0.75,0.25 V 11.26 L 0.79,10.7 C 0.78,10.69 0.77,10.67 0.77,10.65 v -0.54 c 0,-0.03 0.02,-0.05 0.05,-0.05 L 1.83,9.92 1.54,9.63 0.83,9.73 C 0.8,9.73 0.77,9.71 0.77,9.68 V 9.25 C 0.77,9.22 0.79,9.2 0.82,9.2 L 1.08,9.19 0.78,8.89 C 0.77,8.88 0.76,8.87 0.76,8.85 V 6.71 C 0.76,6.54 0.81,6.34 0.96,6.25 1.01,6.22 1.06,6.21 1.11,6.2 0.83,6.03 0.73,5.74 0.72,5.42 V 5.21 c 0,-0.24 0.09,-0.5 0.34,-0.54 L 0.79,4.58 C 0.77,4.57 0.75,4.55 0.75,4.53 V 4.07 C 0.75,4.05 0.77,4.03 0.78,4.02 L 1.28,3.81 0.78,3.64 C 0.76,3.63 0.74,3.61 0.74,3.59 V 3.2 c 0,-0.04 0.04,-0.07 0.07,-0.05 v 0 L 1.56,3.4 V 3.2 L 0.78,2.95 C 0.76,2.94 0.74,2.92 0.74,2.9 V 2.51 c 0,-0.01 0,-0.01 0,-0.02 V 1.83 C 0.72,1.74 0.71,1.65 0.71,1.56 v 0 -0.21 C 0.71,1.2 0.74,1.02 0.86,0.92 L 0.88,0.91 V 0.8 H 0.58 C 0.37,0.8 0.2,0.63 0.2,0.42 v 0 C 0.2,0.21 0.37,0.04 0.58,0.04 v 0 h 1.51 c 0.04,0 0.08,0.01 0.11,0.02 h 0.02 l 0.02,0.01 c 0.13,0.05 0.22,0.18 0.23,0.32 v 0 0.02 0 C 2.47,0.62 2.3,0.79 2.09,0.79 H 1.25 v 0.14 0 0.41 C 1.25,1.37 1.23,1.39 1.2,1.39 1.09,1.39 1.06,1.43 1.06,1.54 1.05,1.74 1.15,1.84 1.33,1.91 1.39,1.94 1.5,1.96 1.56,1.92 1.61,1.89 1.62,1.83 1.62,1.78 1.62,1.63 1.58,1.56 1.46,1.48 1.45,1.47 1.43,1.45 1.43,1.43 V 0.98 C 1.43,0.94 1.47,0.91 1.51,0.93 1.78,1.08 1.96,1.36 1.96,1.67 V 1.95 C 1.95,2.2 1.88,2.46 1.59,2.47 1.42,2.48 1.26,2.43 1.12,2.35 v 0.2 L 1.9,2.81 c 0.02,0.01 0.04,0.03 0.04,0.05 v 0.07 0 0.84 0 V 4 c 0,0.02 -0.01,0.04 -0.03,0.05 L 1.38,4.27 1.91,4.44 c 0.02,0.01 0.04,0.03 0.04,0.05 v 0.39 c 0,0.04 -0.04,0.07 -0.07,0.05 L 1.68,4.86 c 0.18,0.16 0.29,0.43 0.3,0.66 V 5.8 C 1.97,6.05 1.9,6.33 1.61,6.35 H 1.54 C 1.6,6.42 1.65,6.51 1.67,6.6 l 0.2,-0.13 c 0.04,-0.02 0.08,0 0.08,0.05 v 0.42 c 0,0.02 -0.01,0.04 -0.02,0.05 L 1.55,7.26 1.92,7.38 C 1.94,7.39 1.96,7.41 1.96,7.43 V 7.85 C 1.96,7.89 1.93,7.92 1.89,7.9 L 1.11,7.64 v 0.3 L 1.93,8.23 C 1.95,8.24 1.97,8.26 1.97,8.28 V 8.67 C 1.97,8.71 1.93,8.74 1.9,8.72 L 1.12,8.44 v 0.21 l 0.84,0.83 c 0.01,0.01 0.01,0.03 0.01,0.04 v 0.85 c 0,0.03 -0.02,0.05 -0.05,0.05 l -0.67,0.09 0.69,0.48 c 0.01,0.01 0.02,0.03 0.02,0.05 v 1.11 c 0,0.04 -0.04,0.07 -0.07,0.05 L 1.62,12.11 c 0.09,0.12 0.14,0.27 0.14,0.42 v 0.46 l 0.16,0.05 c 0.02,0.01 0.04,0.03 0.04,0.05 v 0.41 0.01 0.06 h 0.16 c 0.21,0 0.38,0.17 0.38,0.38 v 0 c 0,0.21 -0.17,0.38 -0.38,0.38 H 1.74 Z m -0.19,-8 c 0,0 0,-0.01 -0.01,-0.01 V 6.34 Z M 1.27,5.2 C 1.22,5.19 1.17,5.19 1.14,5.21 1.09,5.24 1.08,5.31 1.08,5.37 1.07,5.57 1.17,5.67 1.35,5.74 1.41,5.77 1.52,5.79 1.58,5.75 1.63,5.72 1.64,5.66 1.64,5.61 v 0 C 1.65,5.43 1.58,5.3 1.41,5.23 1.37,5.22 1.33,5.2 1.28,5.19 Z M 1.17,6.69 C 1.15,6.69 1.13,6.68 1.11,6.7 1.09,6.72 1.08,6.77 1.08,6.8 V 7.08 L 1.43,7.2 V 6.88 C 1.43,6.85 1.42,6.81 1.39,6.78 1.37,6.76 1.33,6.74 1.3,6.73 1.25,6.71 1.2,6.71 1.15,6.7 v 0 z m 0,5.71 C 1.1,12.39 1.08,12.42 1.08,12.49 v 0.27 l 0.33,0.11 V 12.61 C 1.41,12.52 1.36,12.45 1.28,12.42 1.25,12.41 1.2,12.39 1.17,12.39 Z" fill="#aa8800" id="connector3pad"/>
    </g>
    <g  transform="matrix(0.39985923,0,0,0.39985923,0,-0.00336118)">
        <g >
            <path gorn="0.4.0.0"  stroke="none" stroke-opacity="1" d="M 6.171875 0.93945312 C 6.1736701 0.95433048 6.1766642 0.96939234 6.1777344 0.984375 L 6.1777344 1.0332031 C 6.1777344 1.5583879 5.7517473 1.984375 5.2265625 1.984375 L 3.1269531 1.984375 L 3.1269531 2.3339844 L 3.1269531 3.359375 C 3.1269531 3.4344014 3.0769795 3.484375 3.0019531 3.484375 C 2.7268563 3.484375 2.6503906 3.5842782 2.6503906 3.859375 C 2.6253818 4.359551 2.8760135 4.6100946 3.3261719 4.7851562 C 3.4762247 4.8601827 3.7522909 4.9105821 3.9023438 4.8105469 C 4.0273878 4.7355205 4.0507813 4.5859815 4.0507812 4.4609375 C 4.0507812 4.0858055 3.9504962 3.9090548 3.6503906 3.7089844 C 3.6253818 3.6839756 3.5761719 3.634002 3.5761719 3.5839844 L 3.5761719 2.4589844 C 3.5761719 2.3589492 3.6753554 2.2839668 3.7753906 2.3339844 C 4.4506283 2.7091164 4.9023438 3.410274 4.9023438 4.1855469 L 4.9023438 4.8847656 C 4.8773349 5.5099857 4.7018177 6.1605381 3.9765625 6.1855469 C 3.5514129 6.2105557 3.1509045 6.084836 2.8007812 5.8847656 L 2.8007812 6.3847656 L 4.7519531 7.0351562 C 4.8019707 7.0601651 4.8515625 7.1101386 4.8515625 7.1601562 L 4.8515625 7.3359375 L 4.8515625 9.4375 L 4.8515625 10.011719 C 4.8515625 10.061736 4.8273614 10.11171 4.7773438 10.136719 L 3.4511719 10.6875 L 4.7773438 11.113281 C 4.8273614 11.13829 4.8769531 11.188264 4.8769531 11.238281 L 4.8769531 12.212891 C 4.8769531 12.312926 4.7761983 12.387908 4.7011719 12.337891 L 4.2011719 12.162109 C 4.6513303 12.56225 4.9261631 13.237298 4.9511719 13.8125 L 4.9511719 14.513672 C 4.9261631 15.138892 4.752599 15.838654 4.0273438 15.888672 L 3.8515625 15.888672 C 4.0016153 16.063733 4.1257636 16.288593 4.1757812 16.513672 L 4.6757812 16.189453 C 4.7758165 16.139436 4.8769531 16.189409 4.8769531 16.314453 L 4.8769531 17.365234 C 4.8769531 17.415252 4.8511807 17.465226 4.8261719 17.490234 L 3.8769531 18.164062 L 4.8007812 18.464844 C 4.8507989 18.489853 4.9023438 18.539826 4.9023438 18.589844 L 4.9023438 19.640625 C 4.9023438 19.74066 4.8265977 19.815643 4.7265625 19.765625 L 2.7753906 19.115234 L 2.7753906 19.865234 L 4.8261719 20.589844 C 4.8761895 20.614853 4.9257813 20.664826 4.9257812 20.714844 L 4.9257812 21.691406 C 4.9257812 21.791441 4.8269795 21.866424 4.7519531 21.816406 L 2.8007812 21.115234 L 2.8007812 21.640625 L 4.9023438 23.716797 C 4.9273526 23.741806 4.9257812 23.791397 4.9257812 23.816406 L 4.9257812 25.943359 C 4.9257812 26.018386 4.8758077 26.068359 4.8007812 26.068359 L 3.1269531 26.292969 L 4.8515625 27.492188 C 4.8765713 27.517196 4.9023438 27.56717 4.9023438 27.617188 L 4.9023438 30.394531 C 4.9023438 30.494566 4.8015889 30.569549 4.7265625 30.519531 L 4.0507812 30.294922 C 4.2758605 30.595027 4.4023437 30.968618 4.4023438 31.34375 L 4.4023438 32.494141 L 4.8007812 32.619141 C 4.8507989 32.644149 4.9023437 32.694123 4.9023438 32.744141 L 4.9023438 33.769531 L 4.9023438 33.794922 L 4.9023438 33.945312 L 5.3027344 33.945312 C 5.8279192 33.945312 6.2519531 34.3713 6.2519531 34.896484 C 6.2519531 34.908549 6.2504448 34.919685 6.25 34.931641 C 6.576332 34.781476 6.8027344 34.45432 6.8027344 34.070312 L 6.8027344 1.8339844 C 6.8027344 1.4200655 6.5397446 1.0704016 6.171875 0.93945312 z M 0.50390625 0.99414062 C 0.20342489 1.1534228 0 1.468924 0 1.8339844 L 0 34.070312 C 0 34.463626 0.23700116 34.798528 0.57617188 34.943359 C 0.57598226 34.93554 0.57617188 34.927787 0.57617188 34.919922 C 0.57617188 34.394737 1.0002058 33.970703 1.5253906 33.970703 L 3.9765625 33.970703 L 3.9765625 33.644531 L 2.0253906 32.994141 C 1.975373 32.969132 1.9257813 32.919158 1.9257812 32.869141 L 1.9257812 30.84375 C 1.9257812 30.543644 2.0007196 30.24461 2.1757812 30.019531 C 2.2758165 29.894487 2.4003466 29.819549 2.5253906 29.769531 L 2 29.59375 C 1.9499824 29.568741 1.9003906 29.518768 1.9003906 29.46875 L 1.9003906 28.494141 C 1.9003906 28.394105 2.0011455 28.319123 2.0761719 28.369141 L 3.9511719 28.994141 L 3.9511719 28.167969 L 1.9765625 26.767578 C 1.9515537 26.742569 1.9257812 26.692596 1.9257812 26.642578 L 1.9257812 25.292969 C 1.9257812 25.217942 1.9757548 25.167969 2.0507812 25.167969 L 4.5761719 24.816406 L 3.8515625 24.091797 L 2.0761719 24.341797 C 2.0011455 24.341797 1.9257813 24.291823 1.9257812 24.216797 L 1.9257812 23.140625 C 1.9257812 23.065599 1.9757548 23.015625 2.0507812 23.015625 L 2.7011719 22.992188 L 1.9511719 22.242188 C 1.9261631 22.217179 1.9003906 22.190643 1.9003906 22.140625 L 1.9003906 16.789062 C 1.9003906 16.363913 2.0252586 15.863751 2.4003906 15.638672 C 2.5254346 15.563645 2.6503466 15.538681 2.7753906 15.513672 C 2.0751442 15.088522 1.8257901 14.362782 1.8007812 13.5625 L 1.8007812 13.037109 C 1.8007812 12.436898 2.0251706 11.787535 2.6503906 11.6875 L 1.9765625 11.462891 C 1.9265449 11.437882 1.875 11.387908 1.875 11.337891 L 1.875 10.1875 C 1.875 10.137482 1.9261631 10.087509 1.9511719 10.0625 L 3.2011719 9.5371094 L 1.9511719 9.1113281 C 1.9011543 9.0863193 1.8515625 9.0363457 1.8515625 8.9863281 L 1.8515625 8.0117188 C 1.8515625 7.9116835 1.9503642 7.8367011 2.0253906 7.8867188 L 3.9023438 8.5117188 L 3.9023438 8.0117188 L 1.9511719 7.3867188 C 1.9011543 7.3617099 1.8515625 7.3117364 1.8515625 7.2617188 L 1.8515625 6.2851562 L 1.8515625 6.2363281 L 1.8515625 4.5859375 C 1.8015449 4.3608583 1.7753906 4.1352355 1.7753906 3.9101562 L 1.7753906 3.3847656 C 1.7753906 3.0096336 1.850285 2.5586818 2.1503906 2.3085938 L 2.2011719 2.2851562 L 2.2011719 2.0097656 L 1.4511719 2.0097656 C 0.92598705 2.0097656 0.5 1.5837786 0.5 1.0585938 C 0.5 1.0369291 0.50248213 1.015442 0.50390625 0.99414062 z M 3.2011719 12.988281 L 3.1757812 13.013672 C 3.0507372 12.988663 2.9265889 12.987092 2.8515625 13.037109 C 2.7265185 13.112136 2.7011719 13.287447 2.7011719 13.4375 C 2.6761631 13.937676 2.9267947 14.18822 3.3769531 14.363281 C 3.5270059 14.438308 3.8011191 14.488707 3.9511719 14.388672 C 4.0762159 14.313645 4.1015625 14.164107 4.1015625 14.039062 C 4.1265713 13.588904 3.9505402 13.262952 3.5253906 13.087891 C 3.4253554 13.062882 3.3262159 13.01329 3.2011719 12.988281 z M 3.8515625 15.839844 L 3.8515625 15.863281 L 3.8769531 15.863281 C 3.8769531 15.863281 3.8765713 15.839844 3.8515625 15.839844 z M 2.8515625 16.732422 C 2.8265537 16.732422 2.8003994 16.738663 2.7753906 16.763672 C 2.725373 16.813689 2.7011719 16.938645 2.7011719 17.013672 L 2.7011719 17.714844 L 3.5761719 18.015625 L 3.5761719 17.214844 C 3.5761719 17.139817 3.5515889 17.03987 3.4765625 16.964844 C 3.4265449 16.914826 3.3269795 16.864853 3.2519531 16.839844 C 3.1269091 16.789826 3.0019971 16.788681 2.8769531 16.763672 L 2.9257812 16.740234 C 2.9007724 16.740234 2.8765713 16.732422 2.8515625 16.732422 z M 2.9257812 30.994141 L 2.9257812 31.019531 C 2.7507196 30.994522 2.7011719 31.069079 2.7011719 31.244141 L 2.7011719 31.919922 L 3.5253906 32.195312 L 3.5253906 31.544922 C 3.5253906 31.319843 3.4012423 31.145339 3.2011719 31.070312 C 3.1261455 31.045304 3.0008077 30.994141 2.9257812 30.994141 z " fill="#000000" stroke-width="2.50088" id="silkscreen" fill-opacity="1"/>
        </g>
    </g>
</svg>
