<?xml version='1.0' encoding='UTF-8' standalone='no'?>
<svg xmlns="http://www.w3.org/2000/svg" version="1.1" id="svg5" viewBox="0 0 41.468503 39.142813" gorn="0" width="10.533mm"  height="9.9420004mm">
    <desc >
        <referenceFile >TO-220-5H-L10.5-W15.5-P1.70-TL_2024-08-23.svg</referenceFile>
    </desc>
    <g transform="translate(-3969.3,-2971.6)" >
        <g >
            <g >
                <g >
                    <g >
                        <defs id="defs5" />
                        <g id="copper1" gorn="0.1.0.0.0.0.1" >
                            <g id="copper0" gorn="0.1.0.0.0.0.1.0" >
                                <g id="g6" gorn="0.1.0.0.0.0.1.0.0" >
                                    <path d="M 3971.4113 3000.741 L 3971.4113 3010.7409 L 3981.4112 3010.7409 L 3981.4112 3000.741 L 3971.4113 3000.741 z M 3976.4123 3002.741 A 3 3 0 0 1 3979.4112 3005.742 A 3 3 0 0 1 3976.4123 3008.7409 A 3 3 0 0 1 3973.4113 3005.742 A 3 3 0 0 1 3976.4123 3002.741 z " fill="#ffff00" id="nonconn0" gorn="0.1.0.0.0.0.1.0.0.0" stroke="none" />
                                    <circle cy="3005.7417" cx="3976.4116" r="3" fill="none" id="connector0pin" gorn="0.1.0.0.0.0.1.0.0.1" stroke-width="1.5" layerid="11" stroke="#ffc000"  c_etype="pad_hole"/>
                                    <circle cy="2990.3867" cx="3983.1067" r="3" fill="none" id="connector1pin" gorn="0.1.0.0.0.0.1.0.0.2" stroke-width="1.5" layerid="11" stroke="#ffc000"  c_etype="pad_hole"/>
                                    <circle cy="3005.7368" cx="3989.7966" r="3" fill="none" id="connector2pin" gorn="0.1.0.0.0.0.1.0.0.3" stroke-width="1.5" layerid="11" stroke="#ffc000"  c_etype="pad_hole"/>
                                    <circle cy="2990.3867" cx="3996.4866" r="3" fill="none" id="connector3pin" gorn="0.1.0.0.0.0.1.0.0.4" stroke-width="1.5" layerid="11" stroke="#ffc000"  c_etype="pad_hole"/>
                                    <circle cy="3005.7368" cx="4003.1865" r="3" fill="none" id="connector4pin" gorn="0.1.0.0.0.0.1.0.0.5" stroke-width="1.5" layerid="11" stroke="#ffc000"  c_etype="pad_hole"/>
                                </g>
                            </g>
                        </g>
                        <g id="silkscreen" gorn="0.1.0.0.0.0.2" >
                            <path d="m 3969.82,2971.6 a 0.5,0.5 0 0 0 -0.5025,0.5005 0.5,0.5 0 0 0 0.1139,0.2726 0.5,0.5 0 0 0 -0.1139,0.2971 v 4.3458 a 0.5,0.5 0 0 0 -0.018,0.045 0.5,0.5 0 0 0 0.018,0.045 v 13.2816 a 0.5,0.5 0 0 0 0.5005,0.5005 0.5,0.5 0 0 0 0.4618,-0.3519 l 8.8687,0.037 a 0.5,0.5 0 0 0 0.5025,-0.4985 0.5,0.5 0 0 0 -0.4984,-0.5025 l -8.8341,-0.037 v -11.9734 h 39.1775 v 12.3253 h -8.95 a 0.5,0.5 0 0 0 -0.4985,0.5005 0.5,0.5 0 0 0 0.4985,0.5005 h 9.7231 a 0.5,0.5 0 0 0 0.5005,-0.5005 0.5,0.5 0 0 0 -0.2746,-0.4455 v -12.6896 a 0.5,0.5 0 0 0 0.079,-0.1912 0.5,0.5 0 0 0 -0.079,-0.2666 v -4.2217 a 0.5,0.5 0 0 0 0,-0.069 0.5,0.5 0 0 0 0.2197,-0.3845 0.5,0.5 0 0 0 -0.4984,-0.5005 z m 0.4924,0.999 39.1836,0.02 v 3.941 h -39.1775 v -3.8901 a 0.5,0.5 0 0 0 -0.01,-0.071 z m 16.9479,17.013 a 0.5,0.5 0 0 0 -0.5005,0.4984 0.5,0.5 0 0 0 0.5005,0.5005 h 5.2614 a 0.5,0.5 0 0 0 0.5005,-0.5005 0.5,0.5 0 0 0 -0.5005,-0.4984 z" fill="#000000" id="gge153" gorn="0.1.0.0.0.0.2.0" stroke="none" />
                        </g>
                    </g>
                </g>
            </g>
        </g>
    </g>
</svg>
