<?xml version='1.0' encoding='UTF-8' standalone='no'?>
<svg xmlns="http://www.w3.org/2000/svg" viewBox="0 0 35.378462 28.369156" width="8.9860001mm" height="7.2059999mm"  version="1.1" gorn="0" id="svg14">
    <desc >
        <referenceFile >SOP14_PCB.svg</referenceFile>
    </desc>
    <g  transform="translate(-372.6,-275.8)">
        <g >
            <g >
                <g >
                    <defs  id="defs14"/>
                    <g  gorn="0.1.0.0.0.1" id="copper1">
                        <path stroke="none" fill="#FFC000"  gorn="0.1.0.0.0.1.0" d="m 373.66406,297.77997 v 6.38844 h 2.78935 v -6.38844 z" id="connector0pin"/>
                        <path stroke="none" fill="#FFC000"  gorn="0.1.0.0.0.1.1" d="m 378.7443,297.77997 v 6.38844 h 2.78934 v -6.38844 z" id="connector1pin"/>
                        <path stroke="none" fill="#FFC000"  gorn="0.1.0.0.0.1.2" d="m 383.82453,297.77997 v 6.38844 h 2.78935 v -6.38844 z" id="connector2pin"/>
                        <path stroke="none" fill="#FFC000"  gorn="0.1.0.0.0.1.3" d="m 388.89459,297.77997 v 6.38844 h 2.78935 v -6.38844 z" id="connector3pin"/>
                        <path stroke="none" fill="#FFC000"  gorn="0.1.0.0.0.1.4" d="m 393.96465,297.77997 v 6.38844 h 2.78935 v -6.38844 z" id="connector4pin"/>
                        <path stroke="none" fill="#FFC000"  gorn="0.1.0.0.0.1.5" d="m 399.04488,297.77997 v 6.38844 h 2.78935 v -6.38844 z" id="connector5pin"/>
                        <path stroke="none" fill="#FFC000"  gorn="0.1.0.0.0.1.6" d="m 404.12512,297.77997 v 6.38844 h 2.78934 v -6.38844 z" id="connector6pin"/>
                        <path stroke="none" fill="#FFC000"  gorn="0.1.0.0.0.1.7" d="m 404.12512,275.79886 v 6.39047 h 2.78934 v -6.39047 z" id="connector7pin"/>
                        <path stroke="none" fill="#FFC000"  gorn="0.1.0.0.0.1.8" d="m 399.04488,275.79886 v 6.39047 h 2.78935 v -6.39047 z" id="connector8pin"/>
                        <path stroke="none" fill="#FFC000"  gorn="0.1.0.0.0.1.9" d="m 393.96465,275.79886 v 6.39047 h 2.78935 v -6.39047 z" id="connector9pin"/>
                        <path stroke="none" fill="#FFC000"  gorn="0.1.0.0.0.1.10" d="m 388.89459,275.79886 v 6.39047 h 2.78935 v -6.39047 z" id="connector10pin"/>
                        <path stroke="none" fill="#FFC000"  gorn="0.1.0.0.0.1.11" d="m 383.82453,275.79886 v 6.39047 h 2.78935 v -6.39047 z" id="connector11pin"/>
                        <path stroke="none" fill="#FFC000"  gorn="0.1.0.0.0.1.12" d="m 378.7443,275.79886 v 6.39047 h 2.78934 v -6.39047 z" id="connector12pin"/>
                        <path stroke="none" fill="#FFC000"  gorn="0.1.0.0.0.1.13" d="m 373.66406,275.79886 v 6.39047 h 2.78935 v -6.39047 z" id="connector13pin"/>
                    </g>
                    <g  gorn="0.1.0.0.0.2" id="silkscreen">
                        <path stroke="none" fill="black"  gorn="0.1.0.0.0.2.0" d="m 372.8828,280.88519 c -0.0355,0.002 -0.0685,0.0113 -0.0997,0.0244 0.0356,-0.015 0.0749,-0.0243 0.11597,-0.0244 -0.005,10e-6 -0.0112,-2.6e-4 -0.0163,0 z m 0.0163,0 c 0.16503,-7.7e-4 0.29964,0.13202 0.30111,0.29705 v 0.30111 h 0.14852 c 0.16583,-3.6e-4 0.29985,-0.13529 0.29908,-0.30111 -10e-4,-0.16424 -0.13484,-0.2967 -0.29908,-0.29705 z m -0.11597,0.0244 c -0.0356,0.015 -0.0686,0.0362 -0.0956,0.0631 0.027,-0.0268 0.06,-0.048 0.0956,-0.0631 z m -0.10376,0.0732 c -0.0225,0.0246 -0.0416,0.0523 -0.0549,0.0834 0.0135,-0.0314 0.0321,-0.0586 0.0549,-0.0834 z m -0.0549,0.0834 c -0.0153,0.0355 -0.024,0.0749 -0.0244,0.11597 3.7e-4,-0.0411 0.009,-0.0804 0.0244,-0.11597 z" id="path21"/>
                        <path stroke="none" fill="black"  gorn="0.1.0.0.0.2.1" d="m 407.21354,280.88519 c -0.15635,0.009 -0.28139,0.13871 -0.2828,0.29705 -7.7e-4,0.16503 0.13201,0.29963 0.29704,0.30111 h 0.15056 v -0.30111 c 0.001,-0.16503 0.13607,-0.29782 0.30111,-0.29705 h -0.45167 c -0.005,5e-5 -0.009,-2.9e-4 -0.0142,0 z m 0.46591,0 c 0.0411,9e-5 0.0803,0.009 0.11597,0.0244 -0.0356,-0.015 -0.0749,-0.0243 -0.11597,-0.0244 z m 0.11597,0.0244 c 0.0356,0.015 0.0686,0.0362 0.0956,0.0631 -0.027,-0.0268 -0.06,-0.048 -0.0956,-0.0631 z m 0.10376,0.0732 c 0.0229,0.0248 0.0414,0.052 0.0549,0.0834 -0.0134,-0.0311 -0.0324,-0.0588 -0.0549,-0.0834 z m 0.0549,0.0834 c 0.0153,0.0355 0.024,0.0749 0.0244,0.11597 -3.6e-4,-0.0411 -0.009,-0.0804 -0.0244,-0.11597 z" id="path20"/>
                        <path stroke="none" fill="black"  gorn="0.1.0.0.0.2.2" d="m 407.67945,280.88519 c -0.16504,-7.7e-4 -0.29964,0.13202 -0.30111,0.29705 v 17.30168 h 0.30111 c 0.16582,3.5e-4 0.29984,0.13529 0.29907,0.30111 v -17.60279 c -10e-4,-0.16424 -0.13483,-0.2967 -0.29907,-0.29705 z m 0.29907,17.89984 c -8e-5,0.0413 -0.009,0.0802 -0.0244,0.11597 0.0152,-0.0358 0.0243,-0.0747 0.0244,-0.11597 z m -0.0244,0.11597 c -0.0152,0.0357 -0.036,0.0686 -0.0631,0.0956 0.027,-0.027 0.0479,-0.0599 0.0631,-0.0956 z m -0.0631,0.0956 c -0.0271,0.0271 -0.0599,0.0479 -0.0956,0.0631 0.0357,-0.0152 0.0686,-0.036 0.0956,-0.0631 z m -0.0956,0.0631 c -0.0358,0.0152 -0.0747,0.0243 -0.11597,0.0244 0.0412,-9e-5 0.0802,-0.009 0.11597,-0.0244 z" id="path19"/>
                        <path stroke="none" fill="black"  gorn="0.1.0.0.0.2.3" d="m 373.20019,298.48392 v 0.30111 c -3.5e-4,0.16582 -0.13529,0.29985 -0.30111,0.29908 h 0.44963 c 0.16503,-3.6e-4 0.29872,-0.13405 0.29908,-0.29908 7.7e-4,-0.16582 -0.13325,-0.30076 -0.29908,-0.30111 z m -0.30111,0.60019 c -0.0413,-9e-5 -0.0802,-0.009 -0.11597,-0.0244 0.0358,0.0152 0.0747,0.0243 0.11597,0.0244 z m -0.11597,-0.0244 c -0.0358,-0.0152 -0.0686,-0.036 -0.0956,-0.0631 0.027,0.0271 0.0599,0.0479 0.0956,0.0631 z m -0.0956,-0.0631 c -0.0271,-0.027 -0.0479,-0.0599 -0.0631,-0.0956 0.0152,0.0357 0.036,0.0686 0.0631,0.0956 z m -0.0631,-0.0956 c -0.0152,-0.0358 -0.0243,-0.0747 -0.0244,-0.11597 9e-5,0.0413 0.009,0.0802 0.0244,0.11597 z" id="path18"/>
                        <path stroke="none" fill="black"  gorn="0.1.0.0.0.2.4" d="m 407.2115,298.48392 c -0.15782,0.009 -0.28151,0.14123 -0.28076,0.30111 3.4e-4,0.16424 0.13281,0.29761 0.29704,0.29908 h 0.45167 c 0.16503,-3.6e-4 0.29872,-0.13405 0.29907,-0.29908 7.7e-4,-0.16582 -0.13325,-0.30076 -0.29907,-0.30111 h -0.45167 c -0.005,4e-5 -0.0112,-3.1e-4 -0.0163,0 z" id="path17"/>
                        <path stroke="none" fill="black"  gorn="0.1.0.0.0.2.5" d="m 372.89908,280.88519 c -0.16424,3.5e-4 -0.29761,0.13281 -0.29908,0.29705 v 17.60279 c 3.6e-4,0.16503 0.13405,0.29872 0.29908,0.29908 0.16582,7.7e-4 0.30076,-0.13326 0.30111,-0.29908 v -17.60279 c -0.001,-0.16503 -0.13608,-0.29782 -0.30111,-0.29705 z" id="path16"/>
                        <path stroke="none" fill="black"  gorn="0.1.0.0.0.2.6" d="m 380.56317,286.35857 v 1.22072 h 2.592 l -2.22172,6.03036 h 1.50149 l 2.49027,-7.25108 z m 7.14121,0 -2.34988,4.47191 v 1.26955 h 2.52892 v 1.50962 h 1.28176 v -1.50962 h 0.8484 v -1.22073 h -0.8484 v -4.52073 z m 2.86056,0 v 1.22072 h 2.58996 l -2.21967,6.03036 h 1.49945 l 2.49027,-7.25108 z m 7.13918,0 -2.34989,4.47191 v 1.26955 h 2.53097 v 1.50962 h 1.27972 v -1.50962 h 0.8484 v -1.22073 h -0.8484 v -4.52073 z m -9.8207,1.83108 v 2.68965 h -1.46893 z m 10.00178,0 v 2.68965 h -1.47097 z" id="path1"/>
                        <path stroke="none" fill="#000000"  gorn="0.1.0.0.0.2.7" style="stroke-width:0.758104" d="m 376.46154,295.58824 a 1.4028104,1.4028104 0 0 1 -1.4028,1.40281 1.4028104,1.4028104 0 0 1 -1.40281,-1.40281 1.4028104,1.4028104 0 0 1 1.40281,-1.40281 1.4028104,1.4028104 0 0 1 1.4028,1.40281 z" id="path2"/>
                    </g>
                </g>
            </g>
        </g>
    </g>
</svg>
