<?xml version='1.0' encoding='UTF-8' standalone='no'?>
<svg xmlns="http://www.w3.org/2000/svg" id="svg3" version="1.1" height="3.9630001mm"  width="7.23mm" viewBox="0 0 28.464566 15.602363" gorn="0">
    <desc >
        <referenceFile >P6SMB6.svg</referenceFile>
    </desc>
    <g transform="translate(-4025.8,-3026.5)" >
        <g >
            <g >
                <g >
                    <defs id="defs3" />
                    <g id="copper1"  gorn="0.1.0.0.0.1">
                        <path id="connector0pin" fill="#ffc000" stroke="none" d="m 4054.2646,3039.0256 v -9.4488 h -8.6614 v 9.4488 z" style="stroke-width:1"  gorn="0.1.0.0.0.1.0"/>
                        <path id="connector1pin" fill="#ffc000" stroke="none" d="m 4025.8,3039.0256 v -9.4488 h 8.6614 v 9.4488 z" style="stroke-width:0.999997"  gorn="0.1.0.0.0.1.1"/>
                    </g>
                    <g transform="translate(-9.9677,-15.699199)" >
                        <g >
                            <g >
                                <g id="silkscreen"  gorn="0.1.0.0.0.2.0.0.0">
                                    <path id="gge40" fill="black" stroke="none" d="m 4039.7676,3057.1426 a 0.30000001,0.30000001 0 0 0 -0.3008,0.2988 0.30000001,0.30000001 0 0 0 0.2988,0.3008 l 20.7344,0.059 a 0.30000001,0.30000001 0 0 0 0.3008,-0.3008 0.30000001,0.30000001 0 0 0 -0.3008,-0.3008 z"  gorn="0.1.0.0.0.2.0.0.0.0"/>
                                    <path id="gge43" fill="black" stroke="none" d="m 4060.4824,3042.1992 -20.6836,0.07 a 0.30000001,0.30000001 0 0 0 -0.2988,0.3008 0.30000001,0.30000001 0 0 0 0.3008,0.2988 l 20.6836,-0.068 a 0.30000001,0.30000001 0 0 0 0.2988,-0.3028 0.30000001,0.30000001 0 0 0 -0.3008,-0.2988 z"  gorn="0.1.0.0.0.2.0.0.0.1"/>
                                    <path id="gge46" fill="black" stroke="none" d="m 4044.7598,3049.5293 a 0.5,0.5 0 0 0 -0.5,0.5 0.5,0.5 0 0 0 0.5,0.5 h 10.6093 a 0.5,0.5 0 0 0 0.5,-0.5 0.5,0.5 0 0 0 -0.5,-0.5 z"  gorn="0.1.0.0.0.2.0.0.0.2"/>
                                    <path id="gge49" fill="black" stroke="none" d="M 4053.5,3045.5078 A 0.50005,0.50005 0 0 0 4053,3046 v 0.293 l -3.3535,3.3535 a 0.50005,0.50005 0 0 0 0,0.707 L 4053,3053.707 V 3054 a 0.5,0.5 0 0 0 0.5,0.5 0.5,0.5 0 0 0 0.5,-0.5 v -0.5 -7 -0.5 a 0.50005,0.50005 0 0 0 -0.5,-0.4922 z m -0.5,2.1992 v 4.586 l -2.293,-2.293 z"  gorn="0.1.0.0.0.2.0.0.0.3"/>
                                    <path id="gge52" fill="black" stroke="none" d="m 4046.5,3045.5 a 0.5,0.5 0 0 0 -0.3535,0.1465 A 0.5,0.5 0 0 0 4046,3046 v 0.5 7 0.5 a 0.50005,0.50005 0 0 0 1,0 v -0.293 l 3.3535,-3.3535 a 0.50005,0.50005 0 0 0 0,-0.707 L 4047,3046.293 V 3046 a 0.5,0.5 0 0 0 -0.037,-0.1914 0.5,0.5 0 0 0 -0.1094,-0.1621 0.5,0.5 0 0 0 -0.3535,-0.1465 z m 0.5,2.207 2.293,2.293 -2.293,2.293 z"  gorn="0.1.0.0.0.2.0.0.0.4"/>
                                    <path id="gge55" fill="black" stroke="none" d="m 4044.7578,3042.2734 a 0.30000001,0.30000001 0 0 0 -0.3008,0.3008 v 14.8516 a 0.30000001,0.30000001 0 0 0 0.3008,0.3008 0.30000001,0.30000001 0 0 0 0.3008,-0.3008 v -14.8516 a 0.30000001,0.30000001 0 0 0 -0.3008,-0.3008 z"  gorn="0.1.0.0.0.2.0.0.0.5"/>
                                    <path id="gge58" fill="black" stroke="none" d="m 4055.3711,3042.2734 a 0.30000001,0.30000001 0 0 0 -0.2988,0.3008 v 14.8516 a 0.30000001,0.30000001 0 0 0 0.2988,0.3008 0.30000001,0.30000001 0 0 0 0.3008,-0.3008 v -14.8516 a 0.30000001,0.30000001 0 0 0 -0.3008,-0.3008 z"  gorn="0.1.0.0.0.2.0.0.0.6"/>
                                    <path id="path4" fill="black" stroke="none" d="m 4059,3057.5 v -2.7146 h 1.8 v 2.7146 z"  gorn="0.1.0.0.0.2.0.0.0.7"/>
                                    <path id="path5" fill="black" stroke="none" d="m 4059,3057.5 v -2.7146 h 1.8 v 2.7146 z"  gorn="0.1.0.0.0.2.0.0.0.8"/>
                                    <path id="path6" fill="black" stroke="none" d="m 4059,3042.5 v 2.7146 h 1.8 V 3042.5 Z"  gorn="0.1.0.0.0.2.0.0.0.9"/>
                                    <path id="path7" fill="black" stroke="none" d="m 4059,3042.5 v 2.7146 h 1.8 V 3042.5 Z"  gorn="0.1.0.0.0.2.0.0.0.10"/>
                                    <path id="path8" fill="black" stroke="none" d="m 4039.5,3042.5 v 2.7146 h 1.8 V 3042.5 Z"  gorn="0.1.0.0.0.2.0.0.0.11"/>
                                    <path id="path9" fill="black" stroke="none" d="m 4039.5,3042.5 v 2.7146 h 1.8 V 3042.5 Z"  gorn="0.1.0.0.0.2.0.0.0.12"/>
                                    <path id="path10" fill="black" stroke="none" d="m 4039.5,3057.5 v -2.7146 h 1.8 v 2.7146 z"  gorn="0.1.0.0.0.2.0.0.0.13"/>
                                    <path id="path11" fill="black" stroke="none" d="m 4039.5,3057.5 v -2.7146 h 1.8 v 2.7146 z"  gorn="0.1.0.0.0.2.0.0.0.14"/>
                                </g>
                            </g>
                        </g>
                    </g>
                </g>
            </g>
        </g>
    </g>
</svg>
