<?xml version='1.0' encoding='UTF-8' standalone='no'?>
<svg xmlns="http://www.w3.org/2000/svg" width="6.5999999mm" version="1.1" viewBox="0 0 25.984252 12.023622"  height="3.0539999mm" id="svg2" gorn="0">
    <desc >
        <referenceFile >shottcky-PCB.svg</referenceFile>
    </desc>
    <g  transform="translate(-3977.4,-2984.5)">
        <g >
            <g >
                <defs  id="defs2"/>
                <g  id="silkscreen" gorn="0.1.0.0.1">
                    <path aria-label="+" stroke-width="0.2"  style="line-height:7.87402px;font-family:OCRA;-inkscape-font-specification:OCRA;paint-order:stroke markers fill" d="m 4003.3844,2995.6239 q 0,0.037 -0.01,0.063 -0.01,0.025 -0.015,0.042 -0.01,0.017 -0.023,0.025 -0.013,0.01 -0.029,0.01 h -0.6305 v 0.6998 q 0,0.015 -0.01,0.027 -0.01,0.01 -0.025,0.017 -0.015,0.01 -0.042,0.013 -0.027,0 -0.067,0 -0.038,0 -0.067,-0 -0.027,-0.01 -0.044,-0.013 -0.015,-0.01 -0.023,-0.017 -0.01,-0.012 -0.01,-0.027 v -0.6998 h -0.6306 q -0.017,0 -0.031,-0.01 -0.012,-0.01 -0.021,-0.025 -0.01,-0.017 -0.015,-0.042 -0.01,-0.027 -0.01,-0.063 0,-0.035 0.01,-0.06 0.01,-0.027 0.015,-0.044 0.01,-0.017 0.021,-0.025 0.013,-0.01 0.029,-0.01 h 0.6325 v -0.6997 q 0,-0.015 0.01,-0.027 0.01,-0.014 0.023,-0.021 0.017,-0.01 0.044,-0.013 0.029,-0.01 0.067,-0.01 0.04,0 0.067,0.01 0.027,0 0.042,0.013 0.017,0.01 0.025,0.021 0.01,0.012 0.01,0.027 v 0.6997 h 0.6324 q 0.015,0 0.027,0.01 0.014,0.01 0.023,0.025 0.012,0.017 0.015,0.044 0.01,0.025 0.01,0.06 z" font-size="4.37446" id="text18" gorn="0.1.0.0.1.0"/>
                    <path stroke-width="1"  stroke="none" stroke-opacity="1" fill="#000000" style="baseline-shift:baseline;display:inline;overflow:visible;opacity:1;vector-effect:none;stroke-linecap:round;stroke-linejoin:round;shape-rendering:crispEdges;enable-background:accumulate;stop-color:#000000;stop-opacity:1" fill-opacity="1" d="m 3991.7473,2988.8077 -2.6025,1.3002 v 0.2503 l 0.3072,0.1526 2.1915,-1.0947 v -0.405 a 0.2500358,0.2500358 0 0 1 0.1038,-0.2034 z" id="path14" gorn="0.1.0.0.1.1"/>
                    <path stroke-width="1"  stroke="none" stroke-opacity="1" fill="#000000" style="baseline-shift:baseline;display:inline;overflow:visible;opacity:1;vector-effect:none;stroke-linecap:round;stroke-linejoin:round;shape-rendering:crispEdges;enable-background:accumulate;stop-color:#000000;stop-opacity:1" fill-opacity="1" d="m 3988.6442,2990.5128 v 1.4997 a 0.2500358,0.2500358 0 0 0 0.2503,0.2503 0.2500358,0.2500358 0 0 0 0.2503,-0.2503 v -1.0968 l -0.348,-0.1729 a 0.2500358,0.2500358 0 0 1 -0.014,-0.01 0.2500358,0.2500358 0 0 1 -0.024,-0.014 0.2500358,0.2500358 0 0 1 -0.016,-0.012 0.2500358,0.2500358 0 0 1 -0.01,-0.01 0.2500358,0.2500358 0 0 1 -0.022,-0.022 0.2500358,0.2500358 0 0 1 -0.02,-0.026 0.2500358,0.2500358 0 0 1 -0.016,-0.029 0.2500358,0.2500358 0 0 1 -0.01,-0.018 0.2500358,0.2500358 0 0 1 0,-0.012 0.2500358,0.2500358 0 0 1 -0.01,-0.03 0.2500358,0.2500358 0 0 1 0,-0.01 0.2500358,0.2500358 0 0 1 0,-0.016 0.2500358,0.2500358 0 0 1 0,-0.018 z" id="path13" gorn="0.1.0.0.1.2"/>
                    <path stroke-width="1"  stroke="none" stroke-opacity="1" fill="#000000" style="baseline-shift:baseline;display:inline;overflow:visible;opacity:1;vector-effect:none;stroke-linecap:round;stroke-linejoin:round;shape-rendering:crispEdges;enable-background:accumulate;stop-color:#000000;stop-opacity:1" fill-opacity="1" d="m 3989.1448,2990.3582 v 0.1546 a 0.2500358,0.2500358 0 0 1 -0.2503,0.2483 0.2500358,0.2500358 0 0 1 -0.098,-0.018 l 2.9505,1.4732 a 0.2500358,0.2500358 0 0 1 -0.1038,-0.2035 v -0.4049 z" id="path12" gorn="0.1.0.0.1.3"/>
                    <path stroke-width="1"  stroke="none" stroke-opacity="1" fill="#000000" style="baseline-shift:baseline;display:inline;overflow:visible;opacity:1;vector-effect:none;stroke-linecap:round;stroke-linejoin:round;shape-rendering:crispEdges;enable-background:accumulate;stop-color:#000000;stop-opacity:1" fill-opacity="1" d="m 3991.6435,2990.5128 v 1.4997 a 0.2500358,0.2500358 0 0 0 0.2504,0.2503 0.2500358,0.2500358 0 0 0 0.2502,-0.2503 v -1.4997 a 0.2500358,0.2500358 0 0 1 -0.2502,0.2483 0.2500358,0.2500358 0 0 1 -0.2504,-0.2483 z" id="path11" gorn="0.1.0.0.1.4"/>
                    <path stroke-width="1"  stroke="none" stroke-opacity="1" fill="#000000" style="baseline-shift:baseline;display:inline;overflow:visible;opacity:1;vector-effect:none;stroke-linecap:round;stroke-linejoin:round;shape-rendering:crispEdges;enable-background:accumulate;stop-color:#000000;stop-opacity:1" fill-opacity="1" d="m 3988.8945,2988.7609 a 0.2500358,0.2500358 0 0 0 -0.2503,0.2502 v 1.5017 a 0.2500358,0.2500358 0 0 0 0.2503,0.2483 0.2500358,0.2500358 0 0 0 0.2503,-0.2483 v -1.5017 a 0.2500358,0.2500358 0 0 0 -0.2503,-0.2502 z" id="path10" gorn="0.1.0.0.1.5"/>
                    <path stroke-width="0.999998"  stroke="none" stroke-opacity="1" fill="#000000" style="baseline-shift:baseline;display:inline;overflow:visible;vector-effect:none;stroke-linecap:round;stroke-linejoin:round;shape-rendering:crispEdges;enable-background:accumulate;stop-color:#000000" fill-opacity="1" d="m 3987.8275,2989.0096 a 0.16459609,0.2500358 0 0 0 0.1645,0.2508 l 0.9886,-1e-4 a 0.16459609,0.2500358 0 0 0 0.1642,-0.2492 0.16459609,0.2500358 0 0 0 -0.1639,-0.2495 h -0.9886 a 0.16459609,0.2500358 0 0 0 -0.1644,0.2505 z" id="path10-9" gorn="0.1.0.0.1.6"/>
                    <path stroke-width="0.999998"  stroke="none" stroke-opacity="1" fill="#000000" style="baseline-shift:baseline;display:inline;overflow:visible;vector-effect:none;stroke-linecap:round;stroke-linejoin:round;shape-rendering:crispEdges;enable-background:accumulate;stop-color:#000000" fill-opacity="1" d="m 3987.7414,2990.5104 a 0.16459609,0.2500358 0 0 0 0.1645,0.2508 l 0.9886,-10e-5 a 0.16459609,0.2500358 0 0 0 0.1642,-0.2492 0.16459609,0.2500358 0 0 0 -0.1639,-0.2495 h -0.9886 a 0.16459609,0.2500358 0 0 0 -0.1644,0.2505 z" id="path10-9-62" gorn="0.1.0.0.1.7"/>
                    <path stroke-width="0.999998"  stroke="none" stroke-opacity="1" fill="#000000" style="baseline-shift:baseline;display:inline;overflow:visible;vector-effect:none;stroke-linecap:round;stroke-linejoin:round;shape-rendering:crispEdges;enable-background:accumulate;stop-color:#000000" fill-opacity="1" d="m 3991.7294,2990.5103 a 0.16459609,0.2500358 0 0 0 0.1645,0.2508 l 0.9886,-1e-4 a 0.16459609,0.2500358 0 0 0 0.1642,-0.2492 0.16459609,0.2500358 0 0 0 -0.1639,-0.2495 h -0.9886 a 0.16459609,0.2500358 0 0 0 -0.1644,0.2505 z" id="path10-9-62-1" gorn="0.1.0.0.1.8"/>
                    <path stroke-width="0.999998"  stroke="none" stroke-opacity="1" fill="#000000" style="baseline-shift:baseline;display:inline;overflow:visible;vector-effect:none;stroke-linecap:round;stroke-linejoin:round;shape-rendering:crispEdges;enable-background:accumulate;stop-color:#000000" fill-opacity="1" d="m 3988.73,2992.012 a 0.16459609,0.2500358 0 0 0 0.1645,0.2508 l 0.9886,-10e-5 a 0.16459609,0.2500358 0 0 0 0.1642,-0.2492 0.16459609,0.2500358 0 0 0 -0.1639,-0.2495 h -0.9886 a 0.16459609,0.2500358 0 0 0 -0.1644,0.2505 z" id="path10-9-6" gorn="0.1.0.0.1.9"/>
                    <path stroke-width="1"  stroke="none" stroke-opacity="1" fill="#000000" style="baseline-shift:baseline;display:inline;overflow:visible;opacity:1;vector-effect:none;stroke-linecap:round;stroke-linejoin:round;shape-rendering:crispEdges;enable-background:accumulate;stop-color:#000000;stop-opacity:1" fill-opacity="1" d="m 3991.8939,2988.7609 a 0.2500358,0.2500358 0 0 0 -0.2504,0.2502 v 1.5017 a 0.2500358,0.2500358 0 0 0 0.2504,0.2483 0.2500358,0.2500358 0 0 0 0.2502,-0.2483 v -1.5017 a 0.2500358,0.2500358 0 0 0 -0.2502,-0.2502 z" id="path9" gorn="0.1.0.0.1.10"/>
                    <path stroke-width="1"  stroke="none" stroke-opacity="1" fill="#000000" style="baseline-shift:baseline;display:inline;overflow:visible;opacity:1;vector-effect:none;stroke-linecap:round;stroke-linejoin:round;shape-rendering:crispEdges;enable-background:accumulate;stop-color:#000000;stop-opacity:1" fill-opacity="1" d="m 3986.3938,2985.4991 v 10.0255 h 1.0011 v -10.0255 z" id="path8" gorn="0.1.0.0.1.11"/>
                    <path stroke-width="1"  stroke="none" stroke-opacity="1" fill="#000000" style="baseline-shift:baseline;display:inline;overflow:visible;opacity:1;vector-effect:none;stroke-linecap:round;stroke-linejoin:round;shape-rendering:crispEdges;enable-background:accumulate;stop-color:#000000;stop-opacity:1" fill-opacity="1" d="m 3981.3393,2984.5 a 0.5000716,0.5000716 0 0 1 0.4985,0.4986 v 0.5005 h 17.1127 v -0.5005 a 0.5000716,0.5000716 0 0 1 0.5005,-0.4986 z" id="path7" gorn="0.1.0.0.1.12"/>
                    <path stroke-width="1"  stroke="none" stroke-opacity="1" fill="#000000" style="baseline-shift:baseline;display:inline;overflow:visible;opacity:1;vector-effect:none;stroke-linecap:round;stroke-linejoin:round;shape-rendering:crispEdges;enable-background:accumulate;stop-color:#000000;stop-opacity:1" fill-opacity="1" d="m 3981.8378,2995.5246 v 0.5005 a 0.5000716,0.5000716 0 0 1 -0.4985,0.4985 h 18.1117 a 0.5000716,0.5000716 0 0 1 -0.5005,-0.4985 v -0.5005 z" id="path6" gorn="0.1.0.0.1.13"/>
                    <path stroke-width="1"  stroke="none" stroke-opacity="1" fill="#000000" style="baseline-shift:baseline;display:inline;overflow:visible;opacity:1;vector-effect:none;stroke-linecap:round;stroke-linejoin:round;shape-rendering:crispEdges;enable-background:accumulate;stop-color:#000000;stop-opacity:1" fill-opacity="1" d="m 3981.3393,2984.5 a 0.5000716,0.5000716 0 0 0 -0.5005,0.4986 v 0.6653 a 0.5000716,0.5000716 0 0 0 0.5005,0.5006 0.5000716,0.5000716 0 0 0 0.4985,-0.5006 v -0.6653 a 0.5000716,0.5000716 0 0 0 -0.4985,-0.4986 z" id="path5" gorn="0.1.0.0.1.14"/>
                    <path stroke-width="1"  stroke="none" stroke-opacity="1" fill="#000000" style="baseline-shift:baseline;display:inline;overflow:visible;opacity:1;vector-effect:none;stroke-linecap:round;stroke-linejoin:round;shape-rendering:crispEdges;enable-background:accumulate;stop-color:#000000;stop-opacity:1" fill-opacity="1" d="m 3981.3393,2994.8612 a 0.5000716,0.5000716 0 0 0 -0.5005,0.4985 v 0.6654 a 0.5000716,0.5000716 0 0 0 0.5005,0.4985 0.5000716,0.5000716 0 0 0 0.4985,-0.4985 v -0.6654 a 0.5000716,0.5000716 0 0 0 -0.4985,-0.4985 z" id="path4" gorn="0.1.0.0.1.15"/>
                    <path stroke-width="1"  stroke="none" stroke-opacity="1" fill="#000000" style="baseline-shift:baseline;display:inline;overflow:visible;opacity:1;vector-effect:none;stroke-linecap:round;stroke-linejoin:round;shape-rendering:crispEdges;enable-background:accumulate;stop-color:#000000;stop-opacity:1" fill-opacity="1" d="m 3999.451,2984.5 a 0.5000716,0.5000716 0 0 0 -0.5005,0.4986 v 0.6653 a 0.5000716,0.5000716 0 0 0 0.5005,0.5006 0.5000716,0.5000716 0 0 0 0.4986,-0.5006 v -0.6653 a 0.5000716,0.5000716 0 0 0 -0.4986,-0.4986 z" id="path3" gorn="0.1.0.0.1.16"/>
                    <path stroke-width="1"  stroke="none" stroke-opacity="1" fill="#000000" style="baseline-shift:baseline;display:inline;overflow:visible;opacity:1;vector-effect:none;stroke-linecap:round;stroke-linejoin:round;shape-rendering:crispEdges;enable-background:accumulate;stop-color:#000000;stop-opacity:1" fill-opacity="1" d="m 3999.451,2994.8612 a 0.5000716,0.5000716 0 0 0 -0.5005,0.4985 v 0.6654 a 0.5000716,0.5000716 0 0 0 0.5005,0.4985 0.5000716,0.5000716 0 0 0 0.4986,-0.4985 v -0.6654 a 0.5000716,0.5000716 0 0 0 -0.4986,-0.4985 z" id="path2" gorn="0.1.0.0.1.17"/>
                </g>
                <g  id="copper1" gorn="0.1.0.0.2">
                    <path  stroke="none" fill="#ffc000" d="m 3995.5137,2986.5735 v 7.8767 h 7.8747 v -7.8767 z" id="connector1pin" gorn="0.1.0.0.2.0"/>
                    <path  stroke="none" fill="#ffc000" d="m 3977.4,2986.5735 v 7.8767 h 7.8746 v -7.8767 z" id="connector0pin" gorn="0.1.0.0.2.1"/>
                </g>
            </g>
        </g>
    </g>
</svg>
