<?xml version='1.0' encoding='UTF-8' standalone='no'?>
<svg xmlns="http://www.w3.org/2000/svg"  viewBox="0 0 18.110984 20.500347" id="svg1188" width="4.5999999mm" height="5.2069998mm" version="1.1" gorn="0">
    <desc >
        <referenceFile >SPVS320200-Switch.svg</referenceFile>
    </desc>
    <g  transform="translate(-4030.9,-3020.2)">
        <g >
            <g >
                <defs  id="defs1192"/>
                <g  style="fill:#aa8800" id="copper1" gorn="0.1.0.0.1">
                    <g  transform="translate(-10.0449,-16.300564)">
                        <g >
                            <path  d="m 4044.4882,3055.4725 h -3.3464 v -4.3308 h 3.3464 z" fill="#aa8800" id="connector0pad" stroke-width="0" stroke="#000000" gorn="0.1.0.0.1.0.0.0"/>
                        </g>
                    </g>
                    <g  transform="translate(-10.0449,-16.300564)">
                        <g >
                            <path  d="m 4058.8582,3055.4725 h -3.3464 v -4.3308 h 3.3464 z" fill="#aa8800" id="connector1pad" stroke-width="0" stroke="#000000" gorn="0.1.0.0.1.1.0.0"/>
                        </g>
                    </g>
                    <g  transform="translate(-10.0449,-16.300564)">
                        <g >
                            <path  d="m 4043.3071,3047.874 h -2.3622 v -2.3622 h 2.3622 z" fill="#aa8800" id="polygon1160" stroke-width="0" stroke="#000000" gorn="0.1.0.0.1.2.0.0"/>
                        </g>
                    </g>
                    <g  transform="translate(-10.0449,-16.300564)">
                        <g >
                            <path  d="m 4059.0551,3048.937 h -2.3622 v -2.3622 h 2.3622 z" fill="#aa8800" id="polygon1165" stroke-width="0" stroke="#000000" gorn="0.1.0.0.1.3.0.0"/>
                        </g>
                    </g>
                </g>
                <g  id="silkscreen" gorn="0.1.0.0.2">
                    <path  d="m 4038.1832,3031.4553 a 1.378,1.378 0 0 1 -1.378,1.378 1.378,1.378 0 0 1 -1.378,-1.378 1.378,1.378 0 0 1 1.378,-1.378 1.378,1.378 0 0 1 1.378,1.378 z" id="circle1170" stroke-width="1" stroke="#000000" gorn="0.1.0.0.2.0" fill-opacity="0"/>
                    <path  d="m 4044.483,3031.4553 a 1.378,1.378 0 0 1 -1.378,1.378 1.378,1.378 0 0 1 -1.378,-1.378 1.378,1.378 0 0 1 1.378,-1.378 1.378,1.378 0 0 1 1.378,1.378 z" id="circle1173" stroke-width="1" stroke="#000000" gorn="0.1.0.0.2.1" fill-opacity="0"/>
                    <g  transform="translate(-10.0449,-16.300564)">
                        <g >
                            <path  style="stroke-linecap:round" d="m 4049.5,3043.5 h 0.5 l 1.5,-2 v -4.5 h 1 l 3,3.5 0.5,3" fill="none" id="gge64" stroke-width="1" stroke="#000000" gorn="0.1.0.0.2.2.0.0"/>
                        </g>
                    </g>
                    <g  transform="translate(-10.0449,-16.300564)">
                        <g >
                            <path  style="stroke-linecap:round" d="m 4043,3043.5 v 1.1018" fill="none" id="gge73" stroke-width="1" stroke="#000000" gorn="0.1.0.0.2.3.0.0"/>
                        </g>
                    </g>
                    <g  transform="translate(-10.0449,-16.300564)">
                        <g >
                            <path  style="stroke-linecap:round" d="m 4043,3048.784 v 1.4477" fill="none" id="gge76" stroke-width="1" stroke="#000000" gorn="0.1.0.0.2.4.0.0"/>
                        </g>
                    </g>
                    <g  transform="translate(-10.0449,-16.300564)">
                        <g >
                            <path  style="stroke-linecap:round" d="m 4043,3056.3825 v 0.1175 h 14 v -0.1175" fill="none" id="gge79" stroke-width="1" stroke="#000000" gorn="0.1.0.0.2.5.0.0"/>
                        </g>
                    </g>
                    <g  transform="translate(-10.0449,-16.300564)">
                        <g >
                            <path  style="stroke-linecap:round" d="m 4057,3050.2317 v -0.3847" fill="none" id="gge82" stroke-width="1" stroke="#000000" gorn="0.1.0.0.2.6.0.0"/>
                        </g>
                    </g>
                    <g  transform="translate(-10.0449,-16.300564)">
                        <g >
                            <path  style="stroke-linecap:round" d="M 4057,3045.6648 V 3043.5 h -14" fill="none" id="gge85" stroke-width="1" stroke="#000000" gorn="0.1.0.0.2.7.0.0"/>
                        </g>
                    </g>
                </g>
            </g>
        </g>
    </g>
</svg>
