<?xml version="1.0" encoding="UTF-8" standalone="no"?>
<svg
   width="23.6mm"
   height="23.6mm"
   viewBox="3994.1 2987.5 92.914044 92.914619"
   version="1.1"
   id="STM32H723ZGT6_PCB"
   xmlns="http://www.w3.org/2000/svg"
   xmlns:svg="http://www.w3.org/2000/svg">
  <defs
     id="defs" />
  <g
     id="copper1">
    <path
       fill="#FFC000"
       stroke="none"
       d="m 4006.1075,3072.539 a 0.55119997,0.55119997 0 0 0 -0.5508,0.5528 v 6.7715 a 0.55119997,0.55119997 0 0 0 0.5508,0.5507 0.55119997,0.55119997 0 0 0 0.5508,-0.5507 v -6.7715 a 0.55119997,0.55119997 0 0 0 -0.5508,-0.5528 z"
       id="connector0pad" />
    <path
       fill="#FFC000"
       stroke="none"
       d="m 4008.0762,3072.539 a 0.55119997,0.55119997 0 0 0 -0.5507,0.5528 v 6.7715 a 0.55119997,0.55119997 0 0 0 0.5507,0.5507 0.55119997,0.55119997 0 0 0 0.5508,-0.5507 v -6.7715 a 0.55119997,0.55119997 0 0 0 -0.5508,-0.5528 z"
       id="connector1pad" />
    <path
       fill="#FFC000"
       stroke="none"
       d="m 4010.045,3072.539 a 0.55119997,0.55119997 0 0 0 -0.5508,0.5528 v 6.7715 a 0.55119997,0.55119997 0 0 0 0.5508,0.5507 0.55119997,0.55119997 0 0 0 0.5508,-0.5507 v -6.7715 a 0.55119997,0.55119997 0 0 0 -0.5508,-0.5528 z"
       id="connector2pad" />
    <path
       fill="#FFC000"
       stroke="none"
       d="m 4012.0137,3072.539 a 0.55119997,0.55119997 0 0 0 -0.5507,0.5528 v 6.7715 a 0.55119997,0.55119997 0 0 0 0.5507,0.5507 0.55119997,0.55119997 0 0 0 0.5508,-0.5507 v -6.7715 a 0.55119997,0.55119997 0 0 0 -0.5508,-0.5528 z"
       id="connector3pad" />
    <path
       fill="#FFC000"
       stroke="none"
       d="m 4013.9825,3072.539 a 0.55119997,0.55119997 0 0 0 -0.5528,0.5528 v 6.7715 a 0.55119997,0.55119997 0 0 0 0.5528,0.5507 0.55119997,0.55119997 0 0 0 0.5508,-0.5507 v -6.7715 a 0.55119997,0.55119997 0 0 0 -0.5508,-0.5528 z"
       id="connector4pad" />
    <path
       fill="#FFC000"
       stroke="none"
       d="m 4015.9512,3072.539 a 0.55119997,0.55119997 0 0 0 -0.5507,0.5528 v 6.7715 a 0.55119997,0.55119997 0 0 0 0.5507,0.5507 0.55119997,0.55119997 0 0 0 0.5508,-0.5507 v -6.7715 a 0.55119997,0.55119997 0 0 0 -0.5508,-0.5528 z"
       id="connector5pad" />
    <path
       fill="#FFC000"
       stroke="none"
       d="m 4017.918,3072.539 a 0.55119997,0.55119997 0 0 0 -0.5508,0.5528 v 6.7715 a 0.55119997,0.55119997 0 0 0 0.5508,0.5507 0.55119997,0.55119997 0 0 0 0.5528,-0.5507 v -6.7715 a 0.55119997,0.55119997 0 0 0 -0.5528,-0.5528 z"
       id="connector6pad" />
    <path
       fill="#FFC000"
       stroke="none"
       d="m 4019.8868,3072.539 a 0.55119997,0.55119997 0 0 0 -0.5508,0.5528 v 6.7715 a 0.55119997,0.55119997 0 0 0 0.5508,0.5507 0.55119997,0.55119997 0 0 0 0.5527,-0.5507 v -6.7715 a 0.55119997,0.55119997 0 0 0 -0.5527,-0.5528 z"
       id="connector7pad" />
    <path
       fill="#FFC000"
       stroke="none"
       d="m 4021.8555,3072.539 a 0.55119997,0.55119997 0 0 0 -0.5508,0.5528 v 6.7715 a 0.55119997,0.55119997 0 0 0 0.5508,0.5507 0.55119997,0.55119997 0 0 0 0.5508,-0.5507 v -6.7715 a 0.55119997,0.55119997 0 0 0 -0.5508,-0.5528 z"
       id="connector8pad" />
    <path
       fill="#FFC000"
       stroke="none"
       d="m 4023.8243,3072.539 a 0.55119997,0.55119997 0 0 0 -0.5508,0.5528 v 6.7715 a 0.55119997,0.55119997 0 0 0 0.5508,0.5507 0.55119997,0.55119997 0 0 0 0.5508,-0.5507 v -6.7715 a 0.55119997,0.55119997 0 0 0 -0.5508,-0.5528 z"
       id="connector9pad" />
    <path
       fill="#FFC000"
       stroke="none"
       d="m 4025.793,3072.539 a 0.55119997,0.55119997 0 0 0 -0.5508,0.5528 v 6.7715 a 0.55119997,0.55119997 0 0 0 0.5508,0.5507 0.55119997,0.55119997 0 0 0 0.5508,-0.5507 v -6.7715 a 0.55119997,0.55119997 0 0 0 -0.5508,-0.5528 z"
       id="connector10pad" />
    <path
       fill="#FFC000"
       stroke="none"
       d="m 4027.7618,3072.539 a 0.55119997,0.55119997 0 0 0 -0.5508,0.5528 v 6.7715 a 0.55119997,0.55119997 0 0 0 0.5508,0.5507 0.55119997,0.55119997 0 0 0 0.5508,-0.5507 v -6.7715 a 0.55119997,0.55119997 0 0 0 -0.5508,-0.5528 z"
       id="connector11pad" />
    <path
       fill="#FFC000"
       stroke="none"
       d="m 4029.7305,3072.539 a 0.55119997,0.55119997 0 0 0 -0.5527,0.5528 v 6.7715 a 0.55119997,0.55119997 0 0 0 0.5527,0.5507 0.55119997,0.55119997 0 0 0 0.5508,-0.5507 v -6.7715 a 0.55119997,0.55119997 0 0 0 -0.5508,-0.5528 z"
       id="connector12pad" />
    <path
       fill="#FFC000"
       stroke="none"
       d="m 4031.6993,3072.539 a 0.55119997,0.55119997 0 0 0 -0.5528,0.5528 v 6.7715 a 0.55119997,0.55119997 0 0 0 0.5528,0.5507 0.55119997,0.55119997 0 0 0 0.5508,-0.5507 v -6.7715 a 0.55119997,0.55119997 0 0 0 -0.5508,-0.5528 z"
       id="connector13pad" />
    <path
       fill="#FFC000"
       stroke="none"
       d="m 4033.6661,3072.539 a 0.55119997,0.55119997 0 0 0 -0.5508,0.5528 v 6.7715 a 0.55119997,0.55119997 0 0 0 0.5508,0.5507 0.55119997,0.55119997 0 0 0 0.5527,-0.5507 v -6.7715 a 0.55119997,0.55119997 0 0 0 -0.5527,-0.5528 z"
       id="connector14pad" />
    <path
       fill="#FFC000"
       stroke="none"
       d="m 4035.6348,3072.539 a 0.55119997,0.55119997 0 0 0 -0.5508,0.5528 v 6.7715 a 0.55119997,0.55119997 0 0 0 0.5508,0.5507 0.55119997,0.55119997 0 0 0 0.5528,-0.5507 v -6.7715 a 0.55119997,0.55119997 0 0 0 -0.5528,-0.5528 z"
       id="connector15pad" />
    <path
       fill="#FFC000"
       stroke="none"
       d="m 4037.6036,3072.539 a 0.55119997,0.55119997 0 0 0 -0.5508,0.5528 v 6.7715 a 0.55119997,0.55119997 0 0 0 0.5508,0.5507 0.55119997,0.55119997 0 0 0 0.5508,-0.5507 v -6.7715 a 0.55119997,0.55119997 0 0 0 -0.5508,-0.5528 z"
       id="connector16pad" />
    <path
       fill="#FFC000"
       stroke="none"
       d="m 4039.5723,3072.539 a 0.55119997,0.55119997 0 0 0 -0.5508,0.5528 v 6.7715 a 0.55119997,0.55119997 0 0 0 0.5508,0.5507 0.55119997,0.55119997 0 0 0 0.5508,-0.5507 v -6.7715 a 0.55119997,0.55119997 0 0 0 -0.5508,-0.5528 z"
       id="connector17pad" />
    <path
       fill="#FFC000"
       stroke="none"
       d="m 4041.5411,3072.539 a 0.55119997,0.55119997 0 0 0 -0.5508,0.5528 v 6.7715 a 0.55119997,0.55119997 0 0 0 0.5508,0.5507 0.55119997,0.55119997 0 0 0 0.5508,-0.5507 v -6.7715 a 0.55119997,0.55119997 0 0 0 -0.5508,-0.5528 z"
       id="connector18pad" />
    <path
       fill="#FFC000"
       stroke="none"
       d="m 4043.5098,3072.539 a 0.55119997,0.55119997 0 0 0 -0.5508,0.5528 v 6.7715 a 0.55119997,0.55119997 0 0 0 0.5508,0.5507 0.55119997,0.55119997 0 0 0 0.5508,-0.5507 v -6.7715 a 0.55119997,0.55119997 0 0 0 -0.5508,-0.5528 z"
       id="connector19pad" />
    <path
       fill="#FFC000"
       stroke="none"
       d="m 4045.4786,3072.539 a 0.55119997,0.55119997 0 0 0 -0.5528,0.5528 v 6.7715 a 0.55119997,0.55119997 0 0 0 0.5528,0.5507 0.55119997,0.55119997 0 0 0 0.5508,-0.5507 v -6.7715 a 0.55119997,0.55119997 0 0 0 -0.5508,-0.5528 z"
       id="connector20pad" />
    <path
       fill="#FFC000"
       stroke="none"
       d="m 4047.4473,3072.539 a 0.55119997,0.55119997 0 0 0 -0.5527,0.5528 v 6.7715 a 0.55119997,0.55119997 0 0 0 0.5527,0.5507 0.55119997,0.55119997 0 0 0 0.5508,-0.5507 v -6.7715 a 0.55119997,0.55119997 0 0 0 -0.5508,-0.5528 z"
       id="connector21pad" />
    <path
       fill="#FFC000"
       stroke="none"
       d="m 4049.4141,3072.539 a 0.55119997,0.55119997 0 0 0 -0.5508,0.5528 v 6.7715 a 0.55119997,0.55119997 0 0 0 0.5508,0.5507 0.55119997,0.55119997 0 0 0 0.5528,-0.5507 v -6.7715 a 0.55119997,0.55119997 0 0 0 -0.5528,-0.5528 z"
       id="connector22pad" />
    <path
       fill="#FFC000"
       stroke="none"
       d="m 4051.3829,3072.539 a 0.55119997,0.55119997 0 0 0 -0.5508,0.5528 v 6.7715 a 0.55119997,0.55119997 0 0 0 0.5508,0.5507 0.55119997,0.55119997 0 0 0 0.5527,-0.5507 v -6.7715 a 0.55119997,0.55119997 0 0 0 -0.5527,-0.5528 z"
       id="connector23pad" />
    <path
       fill="#FFC000"
       stroke="none"
       d="m 4053.3516,3072.539 a 0.55119997,0.55119997 0 0 0 -0.5508,0.5528 v 6.7715 a 0.55119997,0.55119997 0 0 0 0.5508,0.5507 0.55119997,0.55119997 0 0 0 0.5508,-0.5507 v -6.7715 a 0.55119997,0.55119997 0 0 0 -0.5508,-0.5528 z"
       id="connector24pad" />
    <path
       fill="#FFC000"
       stroke="none"
       d="m 4055.3204,3072.539 a 0.55119997,0.55119997 0 0 0 -0.5508,0.5528 v 6.7715 a 0.55119997,0.55119997 0 0 0 0.5508,0.5507 0.55119997,0.55119997 0 0 0 0.5508,-0.5507 v -6.7715 a 0.55119997,0.55119997 0 0 0 -0.5508,-0.5528 z"
       id="connector25pad" />
    <path
       fill="#FFC000"
       stroke="none"
       d="m 4057.2891,3072.539 a 0.55119997,0.55119997 0 0 0 -0.5508,0.5528 v 6.7715 a 0.55119997,0.55119997 0 0 0 0.5508,0.5507 0.55119997,0.55119997 0 0 0 0.5508,-0.5507 v -6.7715 a 0.55119997,0.55119997 0 0 0 -0.5508,-0.5528 z"
       id="connector26pad" />
    <path
       fill="#FFC000"
       stroke="none"
       d="m 4059.2579,3072.539 a 0.55119997,0.55119997 0 0 0 -0.5508,0.5528 v 6.7715 a 0.55119997,0.55119997 0 0 0 0.5508,0.5507 0.55119997,0.55119997 0 0 0 0.5508,-0.5507 v -6.7715 a 0.55119997,0.55119997 0 0 0 -0.5508,-0.5528 z"
       id="connector27pad" />
    <path
       fill="#FFC000"
       stroke="none"
       d="m 4061.2266,3072.539 a 0.55119997,0.55119997 0 0 0 -0.5527,0.5528 v 6.7715 a 0.55119997,0.55119997 0 0 0 0.5527,0.5507 0.55119997,0.55119997 0 0 0 0.5508,-0.5507 v -6.7715 a 0.55119997,0.55119997 0 0 0 -0.5508,-0.5528 z"
       id="connector28pad" />
    <path
       fill="#FFC000"
       stroke="none"
       d="m 4063.1954,3072.539 a 0.55119997,0.55119997 0 0 0 -0.5528,0.5528 v 6.7715 a 0.55119997,0.55119997 0 0 0 0.5528,0.5507 0.55119997,0.55119997 0 0 0 0.5508,-0.5507 v -6.7715 a 0.55119997,0.55119997 0 0 0 -0.5508,-0.5528 z"
       id="connector29pad" />
    <path
       fill="#FFC000"
       stroke="none"
       d="m 4065.1622,3072.539 a 0.55119997,0.55119997 0 0 0 -0.5508,0.5528 v 6.7715 a 0.55119997,0.55119997 0 0 0 0.5508,0.5507 0.55119997,0.55119997 0 0 0 0.5508,-0.5507 v -6.7715 a 0.55119997,0.55119997 0 0 0 -0.5508,-0.5528 z"
       id="connector30pad" />
    <path
       fill="#FFC000"
       stroke="none"
       d="m 4067.1309,3072.539 a 0.55119997,0.55119997 0 0 0 -0.5508,0.5528 v 6.7715 a 0.55119997,0.55119997 0 0 0 0.5508,0.5507 0.55119997,0.55119997 0 0 0 0.5528,-0.5507 v -6.7715 a 0.55119997,0.55119997 0 0 0 -0.5528,-0.5528 z"
       id="connector31pad" />
    <path
       fill="#FFC000"
       stroke="none"
       d="m 4069.0997,3072.539 a 0.55119997,0.55119997 0 0 0 -0.5508,0.5528 v 6.7715 a 0.55119997,0.55119997 0 0 0 0.5508,0.5507 0.55119997,0.55119997 0 0 0 0.5508,-0.5507 v -6.7715 a 0.55119997,0.55119997 0 0 0 -0.5508,-0.5528 z"
       id="connector32pad" />
    <path
       fill="#FFC000"
       stroke="none"
       d="m 4071.0684,3072.539 a 0.55119997,0.55119997 0 0 0 -0.5508,0.5528 v 6.7715 a 0.55119997,0.55119997 0 0 0 0.5508,0.5507 0.55119997,0.55119997 0 0 0 0.5508,-0.5507 v -6.7715 a 0.55119997,0.55119997 0 0 0 -0.5508,-0.5528 z"
       id="connector33pad" />
    <path
       fill="#FFC000"
       stroke="none"
       d="m 4073.0372,3072.539 a 0.55119997,0.55119997 0 0 0 -0.5508,0.5528 v 6.7715 a 0.55119997,0.55119997 0 0 0 0.5508,0.5507 0.55119997,0.55119997 0 0 0 0.5508,-0.5507 v -6.7715 a 0.55119997,0.55119997 0 0 0 -0.5508,-0.5528 z"
       id="connector34pad" />
    <path
       fill="#FFC000"
       stroke="none"
       d="m 4075.0059,3072.539 a 0.55119997,0.55119997 0 0 0 -0.5508,0.5528 v 6.7715 a 0.55119997,0.55119997 0 0 0 0.5508,0.5507 0.55119997,0.55119997 0 0 0 0.5508,-0.5507 v -6.7715 a 0.55119997,0.55119997 0 0 0 -0.5508,-0.5528 z"
       id="connector35pad" />
    <path
       fill="#FFC000"
       stroke="none"
       d="m 4079.6915,3067.8554 a 0.55119997,0.55119997 0 0 0 -0.5528,0.5508 0.55119997,0.55119997 0 0 0 0.5528,0.5508 h 6.7715 a 0.55119997,0.55119997 0 0 0 0.5507,-0.5508 0.55119997,0.55119997 0 0 0 -0.5507,-0.5508 z"
       id="connector36pad" />
    <path
       fill="#FFC000"
       stroke="none"
       d="m 4079.6915,3065.8867 a 0.55119997,0.55119997 0 0 0 -0.5528,0.5508 0.55119997,0.55119997 0 0 0 0.5528,0.5508 h 6.7715 a 0.55119997,0.55119997 0 0 0 0.5507,-0.5508 0.55119997,0.55119997 0 0 0 -0.5507,-0.5508 z"
       id="connector37pad" />
    <path
       fill="#FFC000"
       stroke="none"
       d="m 4079.6915,3063.9179 a 0.55119997,0.55119997 0 0 0 -0.5528,0.5508 0.55119997,0.55119997 0 0 0 0.5528,0.5508 h 6.7715 a 0.55119997,0.55119997 0 0 0 0.5507,-0.5508 0.55119997,0.55119997 0 0 0 -0.5507,-0.5508 z"
       id="connector38pad" />
    <path
       fill="#FFC000"
       stroke="none"
       d="m 4079.6915,3061.9492 a 0.55119997,0.55119997 0 0 0 -0.5528,0.5508 0.55119997,0.55119997 0 0 0 0.5528,0.5508 h 6.7715 a 0.55119997,0.55119997 0 0 0 0.5507,-0.5508 0.55119997,0.55119997 0 0 0 -0.5507,-0.5508 z"
       id="connector39pad" />
    <path
       fill="#FFC000"
       stroke="none"
       d="m 4079.6915,3059.9804 a 0.55119997,0.55119997 0 0 0 -0.5528,0.5508 0.55119997,0.55119997 0 0 0 0.5528,0.5528 h 6.7715 a 0.55119997,0.55119997 0 0 0 0.5507,-0.5528 0.55119997,0.55119997 0 0 0 -0.5507,-0.5508 z"
       id="connector40pad" />
    <path
       fill="#FFC000"
       stroke="none"
       d="m 4079.6915,3058.0117 a 0.55119997,0.55119997 0 0 0 -0.5528,0.5508 0.55119997,0.55119997 0 0 0 0.5528,0.5508 h 6.7715 a 0.55119997,0.55119997 0 0 0 0.5507,-0.5508 0.55119997,0.55119997 0 0 0 -0.5507,-0.5508 z"
       id="connector41pad" />
    <path
       fill="#FFC000"
       stroke="none"
       d="m 4079.6915,3056.0429 a 0.55119997,0.55119997 0 0 0 -0.5528,0.5528 0.55119997,0.55119997 0 0 0 0.5528,0.5508 h 6.7715 a 0.55119997,0.55119997 0 0 0 0.5507,-0.5508 0.55119997,0.55119997 0 0 0 -0.5507,-0.5528 z"
       id="connector42pad" />
    <path
       fill="#FFC000"
       stroke="none"
       d="m 4079.6915,3054.0742 a 0.55119997,0.55119997 0 0 0 -0.5528,0.5527 0.55119997,0.55119997 0 0 0 0.5528,0.5508 h 6.7715 a 0.55119997,0.55119997 0 0 0 0.5507,-0.5508 0.55119997,0.55119997 0 0 0 -0.5507,-0.5527 z"
       id="connector43pad" />
    <path
       fill="#FFC000"
       stroke="none"
       d="m 4079.6915,3052.1074 a 0.55119997,0.55119997 0 0 0 -0.5528,0.5508 0.55119997,0.55119997 0 0 0 0.5528,0.5508 h 6.7715 a 0.55119997,0.55119997 0 0 0 0.5507,-0.5508 0.55119997,0.55119997 0 0 0 -0.5507,-0.5508 z"
       id="connector44pad" />
    <path
       fill="#FFC000"
       stroke="none"
       d="m 4079.6915,3050.1386 a 0.55119997,0.55119997 0 0 0 -0.5528,0.5508 0.55119997,0.55119997 0 0 0 0.5528,0.5508 h 6.7715 a 0.55119997,0.55119997 0 0 0 0.5507,-0.5508 0.55119997,0.55119997 0 0 0 -0.5507,-0.5508 z"
       id="connector45pad" />
    <path
       fill="#FFC000"
       stroke="none"
       d="m 4079.6915,3048.1699 a 0.55119997,0.55119997 0 0 0 -0.5528,0.5508 0.55119997,0.55119997 0 0 0 0.5528,0.5508 h 6.7715 a 0.55119997,0.55119997 0 0 0 0.5507,-0.5508 0.55119997,0.55119997 0 0 0 -0.5507,-0.5508 z"
       id="connector46pad" />
    <path
       fill="#FFC000"
       stroke="none"
       d="m 4079.6915,3046.2011 a 0.55119997,0.55119997 0 0 0 -0.5528,0.5508 0.55119997,0.55119997 0 0 0 0.5528,0.5508 h 6.7715 a 0.55119997,0.55119997 0 0 0 0.5507,-0.5508 0.55119997,0.55119997 0 0 0 -0.5507,-0.5508 z"
       id="connector47pad" />
    <path
       fill="#FFC000"
       stroke="none"
       d="m 4079.6915,3044.2324 a 0.55119997,0.55119997 0 0 0 -0.5528,0.5508 0.55119997,0.55119997 0 0 0 0.5528,0.5527 h 6.7715 a 0.55119997,0.55119997 0 0 0 0.5507,-0.5527 0.55119997,0.55119997 0 0 0 -0.5507,-0.5508 z"
       id="connector48pad" />
    <path
       fill="#FFC000"
       stroke="none"
       d="m 4079.6915,3042.2636 a 0.55119997,0.55119997 0 0 0 -0.5528,0.5508 0.55119997,0.55119997 0 0 0 0.5528,0.5528 h 6.7715 a 0.55119997,0.55119997 0 0 0 0.5507,-0.5528 0.55119997,0.55119997 0 0 0 -0.5507,-0.5508 z"
       id="connector49pad" />
    <path
       fill="#FFC000"
       stroke="none"
       d="m 4079.6915,3040.2949 a 0.55119997,0.55119997 0 0 0 -0.5528,0.5527 0.55119997,0.55119997 0 0 0 0.5528,0.5508 h 6.7715 a 0.55119997,0.55119997 0 0 0 0.5507,-0.5508 0.55119997,0.55119997 0 0 0 -0.5507,-0.5527 z"
       id="connector50pad" />
    <path
       fill="#FFC000"
       stroke="none"
       d="m 4079.6915,3038.3261 a 0.55119997,0.55119997 0 0 0 -0.5528,0.5528 0.55119997,0.55119997 0 0 0 0.5528,0.5508 h 6.7715 a 0.55119997,0.55119997 0 0 0 0.5507,-0.5508 0.55119997,0.55119997 0 0 0 -0.5507,-0.5528 z"
       id="connector51pad" />
    <path
       fill="#FFC000"
       stroke="none"
       d="m 4079.6915,3036.3593 a 0.55119997,0.55119997 0 0 0 -0.5528,0.5508 0.55119997,0.55119997 0 0 0 0.5528,0.5508 h 6.7715 a 0.55119997,0.55119997 0 0 0 0.5507,-0.5508 0.55119997,0.55119997 0 0 0 -0.5507,-0.5508 z"
       id="connector52pad" />
    <path
       fill="#FFC000"
       stroke="none"
       d="m 4079.6915,3034.3906 a 0.55119997,0.55119997 0 0 0 -0.5528,0.5508 0.55119997,0.55119997 0 0 0 0.5528,0.5508 h 6.7715 a 0.55119997,0.55119997 0 0 0 0.5507,-0.5508 0.55119997,0.55119997 0 0 0 -0.5507,-0.5508 z"
       id="connector53pad" />
    <path
       fill="#FFC000"
       stroke="none"
       d="m 4079.6915,3032.4218 a 0.55119997,0.55119997 0 0 0 -0.5528,0.5508 0.55119997,0.55119997 0 0 0 0.5528,0.5508 h 6.7715 a 0.55119997,0.55119997 0 0 0 0.5507,-0.5508 0.55119997,0.55119997 0 0 0 -0.5507,-0.5508 z"
       id="connector54pad" />
    <path
       fill="#FFC000"
       stroke="none"
       d="m 4079.6915,3030.4531 a 0.55119997,0.55119997 0 0 0 -0.5528,0.5508 0.55119997,0.55119997 0 0 0 0.5528,0.5508 h 6.7715 a 0.55119997,0.55119997 0 0 0 0.5507,-0.5508 0.55119997,0.55119997 0 0 0 -0.5507,-0.5508 z"
       id="connector55pad" />
    <path
       fill="#FFC000"
       stroke="none"
       d="m 4079.6915,3028.4843 a 0.55119997,0.55119997 0 0 0 -0.5528,0.5508 0.55119997,0.55119997 0 0 0 0.5528,0.5528 h 6.7715 a 0.55119997,0.55119997 0 0 0 0.5507,-0.5528 0.55119997,0.55119997 0 0 0 -0.5507,-0.5508 z"
       id="connector56pad" />
    <path
       fill="#FFC000"
       stroke="none"
       d="m 4079.6915,3026.5156 a 0.55119997,0.55119997 0 0 0 -0.5528,0.5508 0.55119997,0.55119997 0 0 0 0.5528,0.5527 h 6.7715 a 0.55119997,0.55119997 0 0 0 0.5507,-0.5527 0.55119997,0.55119997 0 0 0 -0.5507,-0.5508 z"
       id="connector57pad" />
    <path
       fill="#FFC000"
       stroke="none"
       d="m 4079.6915,3024.5468 a 0.55119997,0.55119997 0 0 0 -0.5528,0.5528 0.55119997,0.55119997 0 0 0 0.5528,0.5508 h 6.7715 a 0.55119997,0.55119997 0 0 0 0.5507,-0.5508 0.55119997,0.55119997 0 0 0 -0.5507,-0.5528 z"
       id="connector58pad" />
    <path
       fill="#FFC000"
       stroke="none"
       d="m 4079.6915,3022.5781 a 0.55119997,0.55119997 0 0 0 -0.5528,0.5527 0.55119997,0.55119997 0 0 0 0.5528,0.5508 h 6.7715 a 0.55119997,0.55119997 0 0 0 0.5507,-0.5508 0.55119997,0.55119997 0 0 0 -0.5507,-0.5527 z"
       id="connector59pad" />
    <path
       fill="#FFC000"
       stroke="none"
       d="m 4079.6915,3020.6113 a 0.55119997,0.55119997 0 0 0 -0.5528,0.5508 0.55119997,0.55119997 0 0 0 0.5528,0.5508 h 6.7715 a 0.55119997,0.55119997 0 0 0 0.5507,-0.5508 0.55119997,0.55119997 0 0 0 -0.5507,-0.5508 z"
       id="connector60pad" />
    <path
       fill="#FFC000"
       stroke="none"
       d="m 4079.6915,3018.6425 a 0.55119997,0.55119997 0 0 0 -0.5528,0.5508 0.55119997,0.55119997 0 0 0 0.5528,0.5508 h 6.7715 a 0.55119997,0.55119997 0 0 0 0.5507,-0.5508 0.55119997,0.55119997 0 0 0 -0.5507,-0.5508 z"
       id="connector61pad" />
    <path
       fill="#FFC000"
       stroke="none"
       d="m 4079.6915,3016.6738 a 0.55119997,0.55119997 0 0 0 -0.5528,0.5508 0.55119997,0.55119997 0 0 0 0.5528,0.5508 h 6.7715 a 0.55119997,0.55119997 0 0 0 0.5507,-0.5508 0.55119997,0.55119997 0 0 0 -0.5507,-0.5508 z"
       id="connector62pad" />
    <path
       fill="#FFC000"
       stroke="none"
       d="m 4079.6915,3014.705 a 0.55119997,0.55119997 0 0 0 -0.5528,0.5508 0.55119997,0.55119997 0 0 0 0.5528,0.5508 h 6.7715 a 0.55119997,0.55119997 0 0 0 0.5507,-0.5508 0.55119997,0.55119997 0 0 0 -0.5507,-0.5508 z"
       id="connector63pad" />
    <path
       fill="#FFC000"
       stroke="none"
       d="m 4079.6915,3012.7363 a 0.55119997,0.55119997 0 0 0 -0.5528,0.5508 0.55119997,0.55119997 0 0 0 0.5528,0.5527 h 6.7715 a 0.55119997,0.55119997 0 0 0 0.5507,-0.5527 0.55119997,0.55119997 0 0 0 -0.5507,-0.5508 z"
       id="connector64pad" />
    <path
       fill="#FFC000"
       stroke="none"
       d="m 4079.6915,3010.7675 a 0.55119997,0.55119997 0 0 0 -0.5528,0.5508 0.55119997,0.55119997 0 0 0 0.5528,0.5528 h 6.7715 a 0.55119997,0.55119997 0 0 0 0.5507,-0.5528 0.55119997,0.55119997 0 0 0 -0.5507,-0.5508 z"
       id="connector65pad" />
    <path
       fill="#FFC000"
       stroke="none"
       d="m 4079.6915,3008.8008 a 0.55119997,0.55119997 0 0 0 -0.5528,0.5507 0.55119997,0.55119997 0 0 0 0.5528,0.5508 h 6.7715 a 0.55119997,0.55119997 0 0 0 0.5507,-0.5508 0.55119997,0.55119997 0 0 0 -0.5507,-0.5507 z"
       id="connector66pad" />
    <path
       fill="#FFC000"
       stroke="none"
       d="m 4079.6915,3006.83 a 0.55119997,0.55119997 0 0 0 -0.5528,0.5528 0.55119997,0.55119997 0 0 0 0.5528,0.5508 h 6.7715 a 0.55119997,0.55119997 0 0 0 0.5507,-0.5508 0.55119997,0.55119997 0 0 0 -0.5507,-0.5528 z"
       id="connector67pad" />
    <path
       fill="#FFC000"
       stroke="none"
       d="m 4079.6915,3004.8633 a 0.55119997,0.55119997 0 0 0 -0.5528,0.5507 0.55119997,0.55119997 0 0 0 0.5528,0.5508 h 6.7715 a 0.55119997,0.55119997 0 0 0 0.5507,-0.5508 0.55119997,0.55119997 0 0 0 -0.5507,-0.5507 z"
       id="connector68pad" />
    <path
       fill="#FFC000"
       stroke="none"
       d="m 4079.6915,3002.8945 a 0.55119997,0.55119997 0 0 0 -0.5528,0.5508 0.55119997,0.55119997 0 0 0 0.5528,0.5508 h 6.7715 a 0.55119997,0.55119997 0 0 0 0.5507,-0.5508 0.55119997,0.55119997 0 0 0 -0.5507,-0.5508 z"
       id="connector69pad" />
    <path
       fill="#FFC000"
       stroke="none"
       d="m 4079.6915,3000.9258 a 0.55119997,0.55119997 0 0 0 -0.5528,0.5507 0.55119997,0.55119997 0 0 0 0.5528,0.5508 h 6.7715 a 0.55119997,0.55119997 0 0 0 0.5507,-0.5508 0.55119997,0.55119997 0 0 0 -0.5507,-0.5507 z"
       id="connector70pad" />
    <path
       fill="#FFC000"
       stroke="none"
       d="m 4079.6915,2998.957 a 0.55119997,0.55119997 0 0 0 -0.5528,0.5508 0.55119997,0.55119997 0 0 0 0.5528,0.5508 h 6.7715 a 0.55119997,0.55119997 0 0 0 0.5507,-0.5508 0.55119997,0.55119997 0 0 0 -0.5507,-0.5508 z"
       id="connector71pad" />
    <path
       fill="#FFC000"
       stroke="none"
       d="m 4075.0059,2987.5 a 0.55119997,0.55119997 0 0 0 -0.5508,0.5508 v 6.7714 a 0.55119997,0.55119997 0 0 0 0.5508,0.5528 0.55119997,0.55119997 0 0 0 0.5508,-0.5528 v -6.7714 a 0.55119997,0.55119997 0 0 0 -0.5508,-0.5508 z"
       id="connector72pad" />
    <path
       fill="#FFC000"
       stroke="none"
       d="m 4073.0372,2987.5 a 0.55119997,0.55119997 0 0 0 -0.5508,0.5508 v 6.7714 a 0.55119997,0.55119997 0 0 0 0.5508,0.5528 0.55119997,0.55119997 0 0 0 0.5508,-0.5528 v -6.7714 a 0.55119997,0.55119997 0 0 0 -0.5508,-0.5508 z"
       id="connector73pad" />
    <path
       fill="#FFC000"
       stroke="none"
       d="m 4071.0684,2987.5 a 0.55119997,0.55119997 0 0 0 -0.5508,0.5508 v 6.7714 a 0.55119997,0.55119997 0 0 0 0.5508,0.5528 0.55119997,0.55119997 0 0 0 0.5508,-0.5528 v -6.7714 a 0.55119997,0.55119997 0 0 0 -0.5508,-0.5508 z"
       id="connector74pad" />
    <path
       fill="#FFC000"
       stroke="none"
       d="m 4069.0997,2987.5 a 0.55119997,0.55119997 0 0 0 -0.5508,0.5508 v 6.7714 a 0.55119997,0.55119997 0 0 0 0.5508,0.5528 0.55119997,0.55119997 0 0 0 0.5508,-0.5528 v -6.7714 a 0.55119997,0.55119997 0 0 0 -0.5508,-0.5508 z"
       id="connector75pad" />
    <path
       fill="#FFC000"
       stroke="none"
       d="m 4067.1309,2987.5 a 0.55119997,0.55119997 0 0 0 -0.5508,0.5508 v 6.7714 a 0.55119997,0.55119997 0 0 0 0.5508,0.5528 0.55119997,0.55119997 0 0 0 0.5528,-0.5528 v -6.7714 a 0.55119997,0.55119997 0 0 0 -0.5528,-0.5508 z"
       id="connector76pad" />
    <path
       fill="#FFC000"
       stroke="none"
       d="m 4065.1622,2987.5 a 0.55119997,0.55119997 0 0 0 -0.5508,0.5508 v 6.7714 a 0.55119997,0.55119997 0 0 0 0.5508,0.5528 0.55119997,0.55119997 0 0 0 0.5508,-0.5528 v -6.7714 a 0.55119997,0.55119997 0 0 0 -0.5508,-0.5508 z"
       id="connector77pad" />
    <path
       fill="#FFC000"
       stroke="none"
       d="m 4063.1954,2987.5 a 0.55119997,0.55119997 0 0 0 -0.5528,0.5508 v 6.7714 a 0.55119997,0.55119997 0 0 0 0.5528,0.5528 0.55119997,0.55119997 0 0 0 0.5508,-0.5528 v -6.7714 a 0.55119997,0.55119997 0 0 0 -0.5508,-0.5508 z"
       id="connector78pad" />
    <path
       fill="#FFC000"
       stroke="none"
       d="m 4061.2266,2987.5 a 0.55119997,0.55119997 0 0 0 -0.5527,0.5508 v 6.7714 a 0.55119997,0.55119997 0 0 0 0.5527,0.5528 0.55119997,0.55119997 0 0 0 0.5508,-0.5528 v -6.7714 a 0.55119997,0.55119997 0 0 0 -0.5508,-0.5508 z"
       id="connector79pad" />
    <path
       fill="#FFC000"
       stroke="none"
       d="m 4059.2579,2987.5 a 0.55119997,0.55119997 0 0 0 -0.5508,0.5508 v 6.7714 a 0.55119997,0.55119997 0 0 0 0.5508,0.5528 0.55119997,0.55119997 0 0 0 0.5508,-0.5528 v -6.7714 a 0.55119997,0.55119997 0 0 0 -0.5508,-0.5508 z"
       id="connector80pad" />
    <path
       fill="#FFC000"
       stroke="none"
       d="m 4057.2891,2987.5 a 0.55119997,0.55119997 0 0 0 -0.5508,0.5508 v 6.7714 a 0.55119997,0.55119997 0 0 0 0.5508,0.5528 0.55119997,0.55119997 0 0 0 0.5508,-0.5528 v -6.7714 a 0.55119997,0.55119997 0 0 0 -0.5508,-0.5508 z"
       id="connector81pad" />
    <path
       fill="#FFC000"
       stroke="none"
       d="m 4055.3204,2987.5 a 0.55119997,0.55119997 0 0 0 -0.5508,0.5508 v 6.7714 a 0.55119997,0.55119997 0 0 0 0.5508,0.5528 0.55119997,0.55119997 0 0 0 0.5508,-0.5528 v -6.7714 a 0.55119997,0.55119997 0 0 0 -0.5508,-0.5508 z"
       id="connector82pad" />
    <path
       fill="#FFC000"
       stroke="none"
       d="m 4053.3516,2987.5 a 0.55119997,0.55119997 0 0 0 -0.5508,0.5508 v 6.7714 a 0.55119997,0.55119997 0 0 0 0.5508,0.5528 0.55119997,0.55119997 0 0 0 0.5508,-0.5528 v -6.7714 a 0.55119997,0.55119997 0 0 0 -0.5508,-0.5508 z"
       id="connector83pad" />
    <path
       fill="#FFC000"
       stroke="none"
       d="m 4051.3829,2987.5 a 0.55119997,0.55119997 0 0 0 -0.5508,0.5508 v 6.7714 a 0.55119997,0.55119997 0 0 0 0.5508,0.5528 0.55119997,0.55119997 0 0 0 0.5527,-0.5528 v -6.7714 a 0.55119997,0.55119997 0 0 0 -0.5527,-0.5508 z"
       id="connector84pad" />
    <path
       fill="#FFC000"
       stroke="none"
       d="m 4049.4141,2987.5 a 0.55119997,0.55119997 0 0 0 -0.5508,0.5508 v 6.7714 a 0.55119997,0.55119997 0 0 0 0.5508,0.5528 0.55119997,0.55119997 0 0 0 0.5528,-0.5528 v -6.7714 a 0.55119997,0.55119997 0 0 0 -0.5528,-0.5508 z"
       id="connector85pad" />
    <path
       fill="#FFC000"
       stroke="none"
       d="m 4047.4473,2987.5 a 0.55119997,0.55119997 0 0 0 -0.5527,0.5508 v 6.7714 a 0.55119997,0.55119997 0 0 0 0.5527,0.5528 0.55119997,0.55119997 0 0 0 0.5508,-0.5528 v -6.7714 a 0.55119997,0.55119997 0 0 0 -0.5508,-0.5508 z"
       id="connector86pad" />
    <path
       fill="#FFC000"
       stroke="none"
       d="m 4045.4786,2987.5 a 0.55119997,0.55119997 0 0 0 -0.5528,0.5508 v 6.7714 a 0.55119997,0.55119997 0 0 0 0.5528,0.5528 0.55119997,0.55119997 0 0 0 0.5508,-0.5528 v -6.7714 a 0.55119997,0.55119997 0 0 0 -0.5508,-0.5508 z"
       id="connector87pad" />
    <path
       fill="#FFC000"
       stroke="none"
       d="m 4043.5098,2987.5 a 0.55119997,0.55119997 0 0 0 -0.5508,0.5508 v 6.7714 a 0.55119997,0.55119997 0 0 0 0.5508,0.5528 0.55119997,0.55119997 0 0 0 0.5508,-0.5528 v -6.7714 a 0.55119997,0.55119997 0 0 0 -0.5508,-0.5508 z"
       id="connector88pad" />
    <path
       fill="#FFC000"
       stroke="none"
       d="m 4041.5411,2987.5 a 0.55119997,0.55119997 0 0 0 -0.5508,0.5508 v 6.7714 a 0.55119997,0.55119997 0 0 0 0.5508,0.5528 0.55119997,0.55119997 0 0 0 0.5508,-0.5528 v -6.7714 a 0.55119997,0.55119997 0 0 0 -0.5508,-0.5508 z"
       id="connector89pad" />
    <path
       fill="#FFC000"
       stroke="none"
       d="m 4039.5723,2987.5 a 0.55119997,0.55119997 0 0 0 -0.5508,0.5508 v 6.7714 a 0.55119997,0.55119997 0 0 0 0.5508,0.5528 0.55119997,0.55119997 0 0 0 0.5508,-0.5528 v -6.7714 a 0.55119997,0.55119997 0 0 0 -0.5508,-0.5508 z"
       id="connector90pad" />
    <path
       fill="#FFC000"
       stroke="none"
       d="m 4037.6036,2987.5 a 0.55119997,0.55119997 0 0 0 -0.5508,0.5508 v 6.7714 a 0.55119997,0.55119997 0 0 0 0.5508,0.5528 0.55119997,0.55119997 0 0 0 0.5508,-0.5528 v -6.7714 a 0.55119997,0.55119997 0 0 0 -0.5508,-0.5508 z"
       id="connector91pad" />
    <path
       fill="#FFC000"
       stroke="none"
       d="m 4035.6348,2987.5 a 0.55119997,0.55119997 0 0 0 -0.5508,0.5508 v 6.7714 a 0.55119997,0.55119997 0 0 0 0.5508,0.5528 0.55119997,0.55119997 0 0 0 0.5528,-0.5528 v -6.7714 a 0.55119997,0.55119997 0 0 0 -0.5528,-0.5508 z"
       id="connector92pad" />
    <path
       fill="#FFC000"
       stroke="none"
       d="m 4033.6661,2987.5 a 0.55119997,0.55119997 0 0 0 -0.5508,0.5508 v 6.7714 a 0.55119997,0.55119997 0 0 0 0.5508,0.5528 0.55119997,0.55119997 0 0 0 0.5527,-0.5528 v -6.7714 a 0.55119997,0.55119997 0 0 0 -0.5527,-0.5508 z"
       id="connector93pad" />
    <path
       fill="#FFC000"
       stroke="none"
       d="m 4031.6993,2987.5 a 0.55119997,0.55119997 0 0 0 -0.5528,0.5508 v 6.7714 a 0.55119997,0.55119997 0 0 0 0.5528,0.5528 0.55119997,0.55119997 0 0 0 0.5508,-0.5528 v -6.7714 a 0.55119997,0.55119997 0 0 0 -0.5508,-0.5508 z"
       id="connector94pad" />
    <path
       fill="#FFC000"
       stroke="none"
       d="m 4029.7305,2987.5 a 0.55119997,0.55119997 0 0 0 -0.5527,0.5508 v 6.7714 a 0.55119997,0.55119997 0 0 0 0.5527,0.5528 0.55119997,0.55119997 0 0 0 0.5508,-0.5528 v -6.7714 a 0.55119997,0.55119997 0 0 0 -0.5508,-0.5508 z"
       id="connector95pad" />
    <path
       fill="#FFC000"
       stroke="none"
       d="m 4027.7618,2987.5 a 0.55119997,0.55119997 0 0 0 -0.5508,0.5508 v 6.7714 a 0.55119997,0.55119997 0 0 0 0.5508,0.5528 0.55119997,0.55119997 0 0 0 0.5508,-0.5528 v -6.7714 a 0.55119997,0.55119997 0 0 0 -0.5508,-0.5508 z"
       id="connector96pad" />
    <path
       fill="#FFC000"
       stroke="none"
       d="m 4025.793,2987.5 a 0.55119997,0.55119997 0 0 0 -0.5508,0.5508 v 6.7714 a 0.55119997,0.55119997 0 0 0 0.5508,0.5528 0.55119997,0.55119997 0 0 0 0.5508,-0.5528 v -6.7714 a 0.55119997,0.55119997 0 0 0 -0.5508,-0.5508 z"
       id="connector97pad" />
    <path
       fill="#FFC000"
       stroke="none"
       d="m 4023.8243,2987.5 a 0.55119997,0.55119997 0 0 0 -0.5508,0.5508 v 6.7714 a 0.55119997,0.55119997 0 0 0 0.5508,0.5528 0.55119997,0.55119997 0 0 0 0.5508,-0.5528 v -6.7714 a 0.55119997,0.55119997 0 0 0 -0.5508,-0.5508 z"
       id="connector98pad" />
    <path
       fill="#FFC000"
       stroke="none"
       d="m 4021.8555,2987.5 a 0.55119997,0.55119997 0 0 0 -0.5508,0.5508 v 6.7714 a 0.55119997,0.55119997 0 0 0 0.5508,0.5528 0.55119997,0.55119997 0 0 0 0.5508,-0.5528 v -6.7714 a 0.55119997,0.55119997 0 0 0 -0.5508,-0.5508 z"
       id="connector99pad" />
    <path
       fill="#FFC000"
       stroke="none"
       d="m 4019.8868,2987.5 a 0.55119997,0.55119997 0 0 0 -0.5508,0.5508 v 6.7714 a 0.55119997,0.55119997 0 0 0 0.5508,0.5528 0.55119997,0.55119997 0 0 0 0.5527,-0.5528 v -6.7714 a 0.55119997,0.55119997 0 0 0 -0.5527,-0.5508 z"
       id="connector100pad" />
    <path
       fill="#FFC000"
       stroke="none"
       d="m 4017.918,2987.5 a 0.55119997,0.55119997 0 0 0 -0.5508,0.5508 v 6.7714 a 0.55119997,0.55119997 0 0 0 0.5508,0.5528 0.55119997,0.55119997 0 0 0 0.5528,-0.5528 v -6.7714 a 0.55119997,0.55119997 0 0 0 -0.5528,-0.5508 z"
       id="connector101pad" />
    <path
       fill="#FFC000"
       stroke="none"
       d="m 4015.9512,2987.5 a 0.55119997,0.55119997 0 0 0 -0.5507,0.5508 v 6.7714 a 0.55119997,0.55119997 0 0 0 0.5507,0.5528 0.55119997,0.55119997 0 0 0 0.5508,-0.5528 v -6.7714 a 0.55119997,0.55119997 0 0 0 -0.5508,-0.5508 z"
       id="connector102pad" />
    <path
       fill="#FFC000"
       stroke="none"
       d="m 4013.9825,2987.5 a 0.55119997,0.55119997 0 0 0 -0.5528,0.5508 v 6.7714 a 0.55119997,0.55119997 0 0 0 0.5528,0.5528 0.55119997,0.55119997 0 0 0 0.5508,-0.5528 v -6.7714 a 0.55119997,0.55119997 0 0 0 -0.5508,-0.5508 z"
       id="connector103pad" />
    <path
       fill="#FFC000"
       stroke="none"
       d="m 4012.0137,2987.5 a 0.55119997,0.55119997 0 0 0 -0.5507,0.5508 v 6.7714 a 0.55119997,0.55119997 0 0 0 0.5507,0.5528 0.55119997,0.55119997 0 0 0 0.5508,-0.5528 v -6.7714 a 0.55119997,0.55119997 0 0 0 -0.5508,-0.5508 z"
       id="connector104pad" />
    <path
       fill="#FFC000"
       stroke="none"
       d="m 4010.045,2987.5 a 0.55119997,0.55119997 0 0 0 -0.5508,0.5508 v 6.7714 a 0.55119997,0.55119997 0 0 0 0.5508,0.5528 0.55119997,0.55119997 0 0 0 0.5508,-0.5528 v -6.7714 a 0.55119997,0.55119997 0 0 0 -0.5508,-0.5508 z"
       id="connector105pad" />
    <path
       fill="#FFC000"
       stroke="none"
       d="m 4008.0762,2987.5 a 0.55119997,0.55119997 0 0 0 -0.5507,0.5508 v 6.7714 a 0.55119997,0.55119997 0 0 0 0.5507,0.5528 0.55119997,0.55119997 0 0 0 0.5508,-0.5528 v -6.7714 a 0.55119997,0.55119997 0 0 0 -0.5508,-0.5508 z"
       id="connector106pad" />
    <path
       fill="#FFC000"
       stroke="none"
       d="m 4006.1075,2987.5 a 0.55119997,0.55119997 0 0 0 -0.5508,0.5508 v 6.7714 a 0.55119997,0.55119997 0 0 0 0.5508,0.5528 0.55119997,0.55119997 0 0 0 0.5508,-0.5528 v -6.7714 a 0.55119997,0.55119997 0 0 0 -0.5508,-0.5508 z"
       id="connector107pad" />
    <path
       fill="#FFC000"
       stroke="none"
       d="m 3994.6505,2998.957 a 0.55119997,0.55119997 0 0 0 -0.5508,0.5508 0.55119997,0.55119997 0 0 0 0.5508,0.5508 h 6.7714 a 0.55119997,0.55119997 0 0 0 0.5528,-0.5508 0.55119997,0.55119997 0 0 0 -0.5528,-0.5508 z"
       id="connector108pad" />
    <path
       fill="#FFC000"
       stroke="none"
       d="m 3994.6505,3000.9258 a 0.55119997,0.55119997 0 0 0 -0.5508,0.5507 0.55119997,0.55119997 0 0 0 0.5508,0.5508 h 6.7714 a 0.55119997,0.55119997 0 0 0 0.5528,-0.5508 0.55119997,0.55119997 0 0 0 -0.5528,-0.5507 z"
       id="connector109pad" />
    <path
       fill="#FFC000"
       stroke="none"
       d="m 3994.6505,3002.8945 a 0.55119997,0.55119997 0 0 0 -0.5508,0.5508 0.55119997,0.55119997 0 0 0 0.5508,0.5508 h 6.7714 a 0.55119997,0.55119997 0 0 0 0.5528,-0.5508 0.55119997,0.55119997 0 0 0 -0.5528,-0.5508 z"
       id="connector110pad" />
    <path
       fill="#FFC000"
       stroke="none"
       d="m 3994.6505,3004.8633 a 0.55119997,0.55119997 0 0 0 -0.5508,0.5507 0.55119997,0.55119997 0 0 0 0.5508,0.5508 h 6.7714 a 0.55119997,0.55119997 0 0 0 0.5528,-0.5508 0.55119997,0.55119997 0 0 0 -0.5528,-0.5507 z"
       id="connector111pad" />
    <path
       fill="#FFC000"
       stroke="none"
       d="m 3994.6505,3006.83 a 0.55119997,0.55119997 0 0 0 -0.5508,0.5528 0.55119997,0.55119997 0 0 0 0.5508,0.5508 h 6.7714 a 0.55119997,0.55119997 0 0 0 0.5528,-0.5508 0.55119997,0.55119997 0 0 0 -0.5528,-0.5528 z"
       id="connector112pad" />
    <path
       fill="#FFC000"
       stroke="none"
       d="m 3994.6505,3008.8008 a 0.55119997,0.55119997 0 0 0 -0.5508,0.5507 0.55119997,0.55119997 0 0 0 0.5508,0.5508 h 6.7714 a 0.55119997,0.55119997 0 0 0 0.5528,-0.5508 0.55119997,0.55119997 0 0 0 -0.5528,-0.5507 z"
       id="connector113pad" />
    <path
       fill="#FFC000"
       stroke="none"
       d="m 3994.6505,3010.7675 a 0.55119997,0.55119997 0 0 0 -0.5508,0.5508 0.55119997,0.55119997 0 0 0 0.5508,0.5528 h 6.7714 a 0.55119997,0.55119997 0 0 0 0.5528,-0.5528 0.55119997,0.55119997 0 0 0 -0.5528,-0.5508 z"
       id="connector114pad" />
    <path
       fill="#FFC000"
       stroke="none"
       d="m 3994.6505,3012.7363 a 0.55119997,0.55119997 0 0 0 -0.5508,0.5508 0.55119997,0.55119997 0 0 0 0.5508,0.5527 h 6.7714 a 0.55119997,0.55119997 0 0 0 0.5528,-0.5527 0.55119997,0.55119997 0 0 0 -0.5528,-0.5508 z"
       id="connector115pad" />
    <path
       fill="#FFC000"
       stroke="none"
       d="m 3994.6505,3014.705 a 0.55119997,0.55119997 0 0 0 -0.5508,0.5508 0.55119997,0.55119997 0 0 0 0.5508,0.5508 h 6.7714 a 0.55119997,0.55119997 0 0 0 0.5528,-0.5508 0.55119997,0.55119997 0 0 0 -0.5528,-0.5508 z"
       id="connector116pad" />
    <path
       fill="#FFC000"
       stroke="none"
       d="m 3994.6505,3016.6738 a 0.55119997,0.55119997 0 0 0 -0.5508,0.5508 0.55119997,0.55119997 0 0 0 0.5508,0.5508 h 6.7714 a 0.55119997,0.55119997 0 0 0 0.5528,-0.5508 0.55119997,0.55119997 0 0 0 -0.5528,-0.5508 z"
       id="connector117pad" />
    <path
       fill="#FFC000"
       stroke="none"
       d="m 3994.6505,3018.6425 a 0.55119997,0.55119997 0 0 0 -0.5508,0.5508 0.55119997,0.55119997 0 0 0 0.5508,0.5508 h 6.7714 a 0.55119997,0.55119997 0 0 0 0.5528,-0.5508 0.55119997,0.55119997 0 0 0 -0.5528,-0.5508 z"
       id="connector118pad" />
    <path
       fill="#FFC000"
       stroke="none"
       d="m 3994.6505,3020.6113 a 0.55119997,0.55119997 0 0 0 -0.5508,0.5508 0.55119997,0.55119997 0 0 0 0.5508,0.5508 h 6.7714 a 0.55119997,0.55119997 0 0 0 0.5528,-0.5508 0.55119997,0.55119997 0 0 0 -0.5528,-0.5508 z"
       id="connector119pad" />
    <path
       fill="#FFC000"
       stroke="none"
       d="m 3994.6505,3022.5781 a 0.55119997,0.55119997 0 0 0 -0.5508,0.5527 0.55119997,0.55119997 0 0 0 0.5508,0.5508 h 6.7714 a 0.55119997,0.55119997 0 0 0 0.5528,-0.5508 0.55119997,0.55119997 0 0 0 -0.5528,-0.5527 z"
       id="connector120pad" />
    <path
       fill="#FFC000"
       stroke="none"
       d="m 3994.6505,3024.5468 a 0.55119997,0.55119997 0 0 0 -0.5508,0.5528 0.55119997,0.55119997 0 0 0 0.5508,0.5508 h 6.7714 a 0.55119997,0.55119997 0 0 0 0.5528,-0.5508 0.55119997,0.55119997 0 0 0 -0.5528,-0.5528 z"
       id="connector121pad" />
    <path
       fill="#FFC000"
       stroke="none"
       d="m 3994.6505,3026.5156 a 0.55119997,0.55119997 0 0 0 -0.5508,0.5508 0.55119997,0.55119997 0 0 0 0.5508,0.5527 h 6.7714 a 0.55119997,0.55119997 0 0 0 0.5528,-0.5527 0.55119997,0.55119997 0 0 0 -0.5528,-0.5508 z"
       id="connector122pad" />
    <path
       fill="#FFC000"
       stroke="none"
       d="m 3994.6505,3028.4843 a 0.55119997,0.55119997 0 0 0 -0.5508,0.5508 0.55119997,0.55119997 0 0 0 0.5508,0.5528 h 6.7714 a 0.55119997,0.55119997 0 0 0 0.5528,-0.5528 0.55119997,0.55119997 0 0 0 -0.5528,-0.5508 z"
       id="connector123pad" />
    <path
       fill="#FFC000"
       stroke="none"
       d="m 3994.6505,3030.4531 a 0.55119997,0.55119997 0 0 0 -0.5508,0.5508 0.55119997,0.55119997 0 0 0 0.5508,0.5508 h 6.7714 a 0.55119997,0.55119997 0 0 0 0.5528,-0.5508 0.55119997,0.55119997 0 0 0 -0.5528,-0.5508 z"
       id="connector124pad" />
    <path
       fill="#FFC000"
       stroke="none"
       d="m 3994.6505,3032.4218 a 0.55119997,0.55119997 0 0 0 -0.5508,0.5508 0.55119997,0.55119997 0 0 0 0.5508,0.5508 h 6.7714 a 0.55119997,0.55119997 0 0 0 0.5528,-0.5508 0.55119997,0.55119997 0 0 0 -0.5528,-0.5508 z"
       id="connector125pad" />
    <path
       fill="#FFC000"
       stroke="none"
       d="m 3994.6505,3034.3906 a 0.55119997,0.55119997 0 0 0 -0.5508,0.5508 0.55119997,0.55119997 0 0 0 0.5508,0.5508 h 6.7714 a 0.55119997,0.55119997 0 0 0 0.5528,-0.5508 0.55119997,0.55119997 0 0 0 -0.5528,-0.5508 z"
       id="connector126pad" />
    <path
       fill="#FFC000"
       stroke="none"
       d="m 3994.6505,3036.3593 a 0.55119997,0.55119997 0 0 0 -0.5508,0.5508 0.55119997,0.55119997 0 0 0 0.5508,0.5508 h 6.7714 a 0.55119997,0.55119997 0 0 0 0.5528,-0.5508 0.55119997,0.55119997 0 0 0 -0.5528,-0.5508 z"
       id="connector127pad" />
    <path
       fill="#FFC000"
       stroke="none"
       d="m 3994.6505,3038.3261 a 0.55119997,0.55119997 0 0 0 -0.5508,0.5528 0.55119997,0.55119997 0 0 0 0.5508,0.5508 h 6.7714 a 0.55119997,0.55119997 0 0 0 0.5528,-0.5508 0.55119997,0.55119997 0 0 0 -0.5528,-0.5528 z"
       id="connector128pad" />
    <path
       fill="#FFC000"
       stroke="none"
       d="m 3994.6505,3040.2949 a 0.55119997,0.55119997 0 0 0 -0.5508,0.5527 0.55119997,0.55119997 0 0 0 0.5508,0.5508 h 6.7714 a 0.55119997,0.55119997 0 0 0 0.5528,-0.5508 0.55119997,0.55119997 0 0 0 -0.5528,-0.5527 z"
       id="connector129pad" />
    <path
       fill="#FFC000"
       stroke="none"
       d="m 3994.6505,3042.2636 a 0.55119997,0.55119997 0 0 0 -0.5508,0.5508 0.55119997,0.55119997 0 0 0 0.5508,0.5528 h 6.7714 a 0.55119997,0.55119997 0 0 0 0.5528,-0.5528 0.55119997,0.55119997 0 0 0 -0.5528,-0.5508 z"
       id="connector130pad" />
    <path
       fill="#FFC000"
       stroke="none"
       d="m 3994.6505,3044.2324 a 0.55119997,0.55119997 0 0 0 -0.5508,0.5508 0.55119997,0.55119997 0 0 0 0.5508,0.5527 h 6.7714 a 0.55119997,0.55119997 0 0 0 0.5528,-0.5527 0.55119997,0.55119997 0 0 0 -0.5528,-0.5508 z"
       id="connector131pad" />
    <path
       fill="#FFC000"
       stroke="none"
       d="m 3994.6505,3046.2011 a 0.55119997,0.55119997 0 0 0 -0.5508,0.5508 0.55119997,0.55119997 0 0 0 0.5508,0.5508 h 6.7714 a 0.55119997,0.55119997 0 0 0 0.5528,-0.5508 0.55119997,0.55119997 0 0 0 -0.5528,-0.5508 z"
       id="connector132pad" />
    <path
       fill="#FFC000"
       stroke="none"
       d="m 3994.6505,3048.1699 a 0.55119997,0.55119997 0 0 0 -0.5508,0.5508 0.55119997,0.55119997 0 0 0 0.5508,0.5508 h 6.7714 a 0.55119997,0.55119997 0 0 0 0.5528,-0.5508 0.55119997,0.55119997 0 0 0 -0.5528,-0.5508 z"
       id="connector133pad" />
    <path
       fill="#FFC000"
       stroke="none"
       d="m 3994.6505,3050.1386 a 0.55119997,0.55119997 0 0 0 -0.5508,0.5508 0.55119997,0.55119997 0 0 0 0.5508,0.5508 h 6.7714 a 0.55119997,0.55119997 0 0 0 0.5528,-0.5508 0.55119997,0.55119997 0 0 0 -0.5528,-0.5508 z"
       id="connector134pad" />
    <path
       fill="#FFC000"
       stroke="none"
       d="m 3994.6505,3052.1074 a 0.55119997,0.55119997 0 0 0 -0.5508,0.5508 0.55119997,0.55119997 0 0 0 0.5508,0.5508 h 6.7714 a 0.55119997,0.55119997 0 0 0 0.5528,-0.5508 0.55119997,0.55119997 0 0 0 -0.5528,-0.5508 z"
       id="connector135pad" />
    <path
       fill="#FFC000"
       stroke="none"
       d="m 3994.6505,3054.0742 a 0.55119997,0.55119997 0 0 0 -0.5508,0.5527 0.55119997,0.55119997 0 0 0 0.5508,0.5508 h 6.7714 a 0.55119997,0.55119997 0 0 0 0.5528,-0.5508 0.55119997,0.55119997 0 0 0 -0.5528,-0.5527 z"
       id="connector136pad" />
    <path
       fill="#FFC000"
       stroke="none"
       d="m 3994.6505,3056.0429 a 0.55119997,0.55119997 0 0 0 -0.5508,0.5528 0.55119997,0.55119997 0 0 0 0.5508,0.5508 h 6.7714 a 0.55119997,0.55119997 0 0 0 0.5528,-0.5508 0.55119997,0.55119997 0 0 0 -0.5528,-0.5528 z"
       id="connector137pad" />
    <path
       fill="#FFC000"
       stroke="none"
       d="m 3994.6505,3058.0117 a 0.55119997,0.55119997 0 0 0 -0.5508,0.5508 0.55119997,0.55119997 0 0 0 0.5508,0.5508 h 6.7714 a 0.55119997,0.55119997 0 0 0 0.5528,-0.5508 0.55119997,0.55119997 0 0 0 -0.5528,-0.5508 z"
       id="connector138pad" />
    <path
       fill="#FFC000"
       stroke="none"
       d="m 3994.6505,3059.9804 a 0.55119997,0.55119997 0 0 0 -0.5508,0.5508 0.55119997,0.55119997 0 0 0 0.5508,0.5528 h 6.7714 a 0.55119997,0.55119997 0 0 0 0.5528,-0.5528 0.55119997,0.55119997 0 0 0 -0.5528,-0.5508 z"
       id="connector139pad" />
    <path
       fill="#FFC000"
       stroke="none"
       d="m 3994.6505,3061.9492 a 0.55119997,0.55119997 0 0 0 -0.5508,0.5508 0.55119997,0.55119997 0 0 0 0.5508,0.5508 h 6.7714 a 0.55119997,0.55119997 0 0 0 0.5528,-0.5508 0.55119997,0.55119997 0 0 0 -0.5528,-0.5508 z"
       id="connector140pad" />
    <path
       fill="#FFC000"
       stroke="none"
       d="m 3994.6505,3063.9179 a 0.55119997,0.55119997 0 0 0 -0.5508,0.5508 0.55119997,0.55119997 0 0 0 0.5508,0.5508 h 6.7714 a 0.55119997,0.55119997 0 0 0 0.5528,-0.5508 0.55119997,0.55119997 0 0 0 -0.5528,-0.5508 z"
       id="connector141pad" />
    <path
       fill="#FFC000"
       stroke="none"
       d="m 3994.6505,3065.8867 a 0.55119997,0.55119997 0 0 0 -0.5508,0.5508 0.55119997,0.55119997 0 0 0 0.5508,0.5508 h 6.7714 a 0.55119997,0.55119997 0 0 0 0.5528,-0.5508 0.55119997,0.55119997 0 0 0 -0.5528,-0.5508 z"
       id="connector142pad" />
    <path
       fill="#FFC000"
       stroke="none"
       d="m 3994.6505,3067.8554 a 0.55119997,0.55119997 0 0 0 -0.5508,0.5508 0.55119997,0.55119997 0 0 0 0.5508,0.5508 h 6.7714 a 0.55119997,0.55119997 0 0 0 0.5528,-0.5508 0.55119997,0.55119997 0 0 0 -0.5528,-0.5508 z"
       id="connector143pad" />
  </g>
  <g
     id="silkscreen">
    <path
       d="m 4011.9238,3011.623 a 0.30003001,0.30003001 0 0 0 -0.3008,0.3008 v 76.1524 a 0.30000001,0.30000001 0 0 0 0.3008,0.3008 h 76.1524 a 0.30003001,0.30003001 0 0 0 0.3008,-0.3008 v -76.1524 a 0.30003001,0.30003001 0 0 0 -0.3008,-0.3008 z m 0.3008,0.6016 h 75.5527 v 75.5527 h -75.5527 z"
       id="gge901"
       transform="translate(-9.4433445,-16.043)"
       fill="black"
       stroke="none" />
    <path
       d="m 3999.611,3073.3279 c -0.8601,0 -1.5742,0.714 -1.5742,1.5742 0,0.8602 0.7141,1.5742 1.5742,1.5743 0.8602,-1e-4 1.5743,-0.7141 1.5743,-1.5743 0,-0.8602 -0.7141,-1.5742 -1.5743,-1.5742 z"
       id="gge916"
       fill="#000000"
       stroke="none" />
    <path
       d="m 4005.0566,3067.8828 c -0.8601,0 -1.5742,0.714 -1.5742,1.5742 0,0.8602 0.7141,1.5742 1.5742,1.5743 0.8602,-1e-4 1.5743,-0.7141 1.5743,-1.5743 0,-0.8602 -0.7141,-1.5742 -1.5743,-1.5742 z"
       id="gge919"
       fill="black"
       stroke="none" />
  </g>
</svg>
