<?xml version='1.0' encoding='UTF-8' standalone='no'?>
<!-- Created with Inkscape (http://www.inkscape.org/) -->
<svg xmlns="http://www.w3.org/2000/svg"  version="1.1" height="14mm" gorn="0" id="svg1" width="14mm" viewBox="0 0 14 14">
    <desc >
        <referenceFile >Capacitor-Largo-1000uf.svg</referenceFile>
    </desc>
    <defs  id="defs1"/>
    <g  transform="translate(0.11707592,-0.01467085)">
        <g >
            <g  gorn="0.2.0.0" id="copper1">
                <g  gorn="0.2.0.0.0" id="copper0">
                    <circle cy="7.0146708" stroke="#ffc000"  gorn="0.2.0.0.0.0" id="connector1pin" cx="4.3828478" fill="none" r="1.25" stroke-width="0.5"/>
                    <circle cy="7.0146708" stroke="#ffc000"  gorn="0.2.0.0.0.1" id="connector0pin" cx="9.3830004" fill="none" r="1.25" stroke-width="0.5"/>
                </g>
            </g>
        </g>
    </g>
    <g  gorn="0.3" id="silkscreen">
        <path d="m 13.873879,7 a 6.875,6.876121 0 0 1 -6.875,6.876121 A 6.875,6.876121 0 0 1 0.123879,7 6.875,6.876121 0 0 1 6.998879,0.123879 6.875,6.876121 0 0 1 13.873879,7 Z" stroke="#000000"  gorn="0.3.0" id="path1" fill="none" stroke-width="0.247758"/>
        <path d="M 7.0000895,6.9487823 V 13.876156 A 6.875,7.0149441 0 0 0 13.868404,6.9487823 H 11.490255 A 2,2.0403783 0 0 1 9.5001953,8.9015213 2,2.0403783 0 0 1 7.5101359,6.9487823 Z" stroke="none"  gorn="0.3.1" id="path2" fill="black"/>
        <path d="M 7.0000895,0.12402344 V 7.1548158 H 7.5018677 A 2,2.0493167 0 0 1 9.5001953,5.1204504 2,2.0493167 0 0 1 11.498523,7.1548158 h 2.374532 A 6.875,7.0456749 0 0 0 7.0000895,0.12402344 Z" stroke="none"  gorn="0.3.2" id="path1-5" fill="black"/>
        <path d="m 6.452124,3.1922607 q 0,0.081024 -0.013638,0.1407253 Q 6.424848,3.388421 6.402134,3.4268 6.37942,3.465183 6.347588,3.482235 6.315751,3.499309 6.279408,3.499309 H 4.7884947 v 1.5522223 q 0,0.034104 -0.0182,0.059701 -0.018199,0.021309 -0.059089,0.038383 -0.036352,0.017074 -0.099998,0.029868 -0.063637,0.00851 -0.1590917,0.00851 -0.090908,0 -0.1590917,-0.00851 Q 4.2293873,5.1666893 4.188479,5.1496153 4.152127,5.1325413 4.133933,5.1112323 4.115733,5.0856433 4.115733,5.0515313 V 3.4992936 H 2.624867 q -0.040913,0 -0.072727,-0.017074 Q 2.524864,3.4651456 2.502141,3.4267846 2.479427,3.3884016 2.465789,3.3329706 2.452151,3.2732696 2.452151,3.1922453 q 0,-0.076758 0.013638,-0.1321928 0.013638,-0.059701 0.036352,-0.09808 0.022714,-0.038383 0.049999,-0.055435 0.031837,-0.017074 0.068179,-0.017074 H 4.1157705 V 1.33727 q 0,-0.034104 0.018199,-0.059701 0.0182,-0.029868 0.054546,-0.046907 Q 4.2294285,1.209353 4.2930608,1.200794 4.3612448,1.188 4.4521525,1.188 q 0.095455,0 0.1590917,0.012794 0.063637,0.00852 0.099998,0.029868 0.040913,0.017074 0.059089,0.046907 0.018199,0.025589 0.018199,0.059701 v 1.5522222 h 1.4954483 q 0.036352,0 0.063637,0.017074 0.031837,0.017074 0.054546,0.055435 0.027275,0.038383 0.036352,0.09808 0.013638,0.055435 0.013638,0.1321928 z" stroke="none"  gorn="0.3.3" id="path90123" fill="#000000"/>
    </g>
</svg>
