<?xml version='1.0' encoding='UTF-8' standalone='no'?>
<!-- Created with Fritzing (https://fritzing.org/) -->
<svg xmlns="http://www.w3.org/2000/svg" x="0in" width="13.646mm" viewBox="0 0 38.681575 28.799999" gorn="0" height="10.16mm"  id="svg9" y="0in" version="1.2">
    <desc >
        <referenceFile >Borne-Power.svg</referenceFile>
    </desc>
    <defs  id="defs9"/>
    <g gorn="0.2"  id="copper0">
        <g gorn="0.2.0"  id="copper1">
            <circle cx="11.05512" stroke-width="1.44" stroke="#ffbf00" gorn="0.2.0.0" fill="none"  r="2.0880001" id="connector0pin" cy="7.2000008"/>
            <circle cx="11.05512" stroke-width="1.44" stroke="#ffbf00" gorn="0.2.0.1" fill="none"  r="2.0880001" id="connector1pin" cy="21.599998"/>
        </g>
    </g>
    <g gorn="0.3"  id="silkscreen">
        <path style="color:#000000;fill:#000000;fill-opacity:1;stroke:none;stroke-linecap:square;stroke-linejoin:round;stroke-opacity:1;-inkscape-stroke:none" d="M 0.24609603,0 A 0.2470472,0.2470472 0 0 0 2.0305208e-6,0.246094 v 28.30664 A 0.2470472,0.2470472 0 0 0 0.24609603,28.800781 H 21.863283 a 0.2470472,0.2470472 0 0 0 0.246094,-0.248047 V 0.246094 A 0.2470472,0.2470472 0 0 0 21.863283,0 Z m 0.248047,0.494141 H 21.615236 v 27.8125 H 0.49414303 Z" gorn="0.3.0"  id="rect41-8-5"/>
        <path style="font-size:5.61543px;line-height:14.2632px;font-family:Droid Sans;-inkscape-font-specification:Droid Sans;letter-spacing:0px;word-spacing:0px;stroke-width:0.749999;stroke:none;stroke-opacity:1;fill:#000000;fill-opacity:1" d="M 28.264478,8.2306739 V 7.682292 h 0.540156 v 0.5483819 z m 0,-0.5483819 V 7.1311683 h 0.540156 V 7.682292 Z m 0,-0.5511237 V 6.5827865 h 0.540156 v 0.5483818 z m 0,-0.5483818 V 6.0316628 h 0.540156 v 0.5511237 z m 0,-0.5511237 V 5.480539 h 0.540156 v 0.5511238 z m 0,-0.5511238 V 4.9431248 h 0.540156 V 5.480539 Z M 27.716096,4.9431248 V 4.3920011 h 0.548382 v 0.5511237 z m 0,3.8386728 V 8.2306739 h 0.548382 v 0.5511237 z m 0,-0.5511237 V 7.682292 h 0.548382 v 0.5483819 z m 0,-0.5483819 V 7.1311683 h 0.548382 V 7.682292 Z m 0,-0.5511237 V 6.5827865 h 0.548382 v 0.5483818 z m 0,-0.5483818 V 6.0316628 h 0.548382 v 0.5511237 z m 0,-0.5511237 V 5.480539 h 0.548382 v 0.5511238 z m 0,-0.5511238 V 4.9431248 h 0.548382 V 5.480539 Z M 27.164972,4.9431248 V 4.3920011 h 0.551124 v 0.5511237 z m 0,4.376087 V 8.7817976 h 0.551124 v 0.5374142 z m 0,-0.5374142 V 8.2306739 h 0.551124 v 0.5511237 z m 0,-0.5511237 V 7.682292 h 0.551124 v 0.5483819 z m 0,-0.5483819 V 7.1311683 h 0.551124 V 7.682292 Z M 26.616591,4.9431248 V 4.3920011 h 0.548381 v 0.5511237 z m 0.548381,4.376087 v 0.542898 h -0.548381 v -0.542898 z m -0.548381,0 V 8.7817976 h 0.548381 v 0.5374142 z m 0,-0.5374142 V 8.2306739 h 0.548381 v 0.5511237 z m 0,-0.5511237 V 7.682292 h 0.548381 V 8.2306739 Z M 26.065467,4.9431248 V 4.3920011 h 0.551124 v 0.5511237 z m 0.551124,4.376087 v 0.542898 h -0.551124 v -0.542898 z m -0.551124,0 V 8.7817976 h 0.551124 v 0.5374142 z m 0,-0.5374142 V 8.2306739 h 0.551124 v 0.5511237 z m 0,-1.6506293 V 6.5827865 h 0.551124 v 0.5483818 z m 0,-0.5483818 V 6.0316628 h 0.551124 v 0.5511237 z m 0,-0.5511237 V 5.480539 h 0.551124 v 0.5511238 z m 0,-0.5511238 V 4.9431248 h 0.551124 V 5.480539 Z m 0,3.8386728 v 0.542898 h -0.551124 v -0.542898 z m -0.551124,0 V 8.7817976 h 0.551124 v 0.5374142 z m 0,-1.6369198 V 7.1311683 h 0.551124 V 7.682292 Z m 0,-0.5511237 V 6.5827865 h 0.551124 v 0.5483818 z m 0,-0.5483818 V 6.0316628 h 0.551124 v 0.5511237 z m 0,-0.5511237 V 5.480539 h 0.551124 v 0.5511238 z m 0,-0.5511238 V 4.9431248 h 0.551124 V 5.480539 Z M 24.976929,4.9431248 V 4.3920011 h 0.537414 v 0.5511237 z m 0,4.376087 V 8.7817976 h 0.537414 v 0.5374142 z m 0,-0.5374142 V 8.2306739 h 0.537414 v 0.5511237 z m 0,-1.6506293 V 6.5827865 h 0.537414 v 0.5483818 z m 0,-0.5483818 V 6.0316628 h 0.537414 v 0.5511237 z m 0,-0.5511237 V 5.480539 h 0.537414 v 0.5511238 z m 0,-0.5511238 V 4.9431248 h 0.537414 V 5.480539 Z M 24.425805,4.9431248 V 4.3920011 h 0.551124 v 0.5511237 z m 0,3.8386728 V 8.2306739 h 0.551124 v 0.5511237 z m 0,-0.5511237 V 7.682292 h 0.551124 V 8.2306739 Z M 23.877423,4.9431248 V 4.3920011 h 0.548382 v 0.5511237 z m 0,3.2875491 V 7.682292 h 0.548382 v 0.5483819 z m 0,-0.5483819 V 7.1311683 h 0.548382 V 7.682292 Z M 23.3263,4.9431248 V 4.3920011 h 0.551123 v 0.5511237 z m 0,2.7391672 V 7.1311683 h 0.551123 V 7.682292 Z m 0,-0.5511237 V 6.5827865 h 0.551123 v 0.5483818 z m 0,-0.5483818 V 6.0316628 h 0.551123 v 0.5511237 z m 0,-0.5511237 V 5.480539 h 0.551123 v 0.5511238 z m 0,-0.5511238 V 4.9431248 h 0.551123 V 5.480539 Z m 9.876357,3.8386728 V 8.7817976 h 0.540156 v 0.5374142 z m 0,-0.5374142 V 8.2306739 h 0.540156 v 0.5511237 z m 0,-0.5511237 V 7.682292 h 0.540156 v 0.5483819 z m 0,-1.0995056 V 6.5827865 h 0.540156 v 0.5483818 z m 0,-0.5483818 V 6.0316628 h 0.540156 v 0.5511237 z m 0,-0.5511237 V 5.480539 h 0.540156 v 0.5511238 z m 0,3.287549 v 0.542898 h -0.548382 v -0.542898 z m -0.548382,0 V 8.7817976 h 0.548382 v 0.5374142 z m 0,-0.5374142 V 8.2306739 h 0.548382 v 0.5511237 z m 0,-0.5511237 V 7.682292 h 0.548382 v 0.5483819 z m 0,-0.5483819 V 7.1311683 h 0.548382 V 7.682292 Z m 0,-0.5511237 V 6.5827865 h 0.548382 v 0.5483818 z m 0,-0.5483818 V 6.0316628 h 0.548382 v 0.5511237 z m 0,-0.5511237 V 5.480539 h 0.548382 v 0.5511238 z m 0,-0.5511238 V 4.9431248 h 0.548382 V 5.480539 Z M 32.103151,4.9431248 V 4.3920011 h 0.551124 v 0.5511237 z m 0.551124,4.376087 v 0.542898 h -0.551124 v -0.542898 z m -0.551124,0 V 8.7817976 h 0.551124 v 0.5374142 z m 0,-0.5374142 V 8.2306739 h 0.551124 v 0.5511237 z m 0,-1.0995056 V 7.1311683 h 0.551124 V 7.682292 Z m 0,-0.5511237 V 6.5827865 h 0.551124 v 0.5483818 z m 0,-0.5483818 V 6.0316628 h 0.551124 v 0.5511237 z m 0,-1.1022475 V 4.9431248 h 0.551124 V 5.480539 Z M 31.554769,4.9431248 V 4.3920011 h 0.548382 v 0.5511237 z m 0.548382,4.376087 v 0.542898 h -0.548382 v -0.542898 z m -0.548382,0 V 8.7817976 h 0.548382 v 0.5374142 z m 0,-1.6369198 V 7.1311683 h 0.548382 V 7.682292 Z m 0,-0.5511237 V 6.5827865 h 0.548382 v 0.5483818 z m 0,-0.5483818 V 6.0316628 h 0.548382 V 6.5827865 Z M 31.003645,4.9431248 V 4.3920011 h 0.551124 v 0.5511237 z m 0.551124,4.376087 v 0.542898 h -0.551124 v -0.542898 z m -0.551124,0 V 8.7817976 h 0.551124 v 0.5374142 z m 0,-1.0885379 V 7.682292 h 0.551124 v 0.5483819 z m 0,-0.5483819 V 7.1311683 h 0.551124 V 7.682292 Z m 0,-0.5511237 V 6.5827865 h 0.551124 v 0.5483818 z m 0,-0.5483818 V 6.0316628 h 0.551124 v 0.5511237 z m 0,-0.5511237 V 5.480539 h 0.551124 V 6.0316628 Z M 30.452522,4.9431248 V 4.3920011 h 0.551123 v 0.5511237 z m 0.551123,4.376087 v 0.542898 h -0.551123 v -0.542898 z m -0.551123,0 V 8.7817976 h 0.551123 v 0.5374142 z m 0,-1.0885379 V 7.682292 h 0.551123 v 0.5483819 z m 0,-0.5483819 V 7.1311683 h 0.551123 V 7.682292 Z m 0,-0.5511237 V 6.5827865 h 0.551123 v 0.5483818 z m 0,-0.5483818 V 6.0316628 h 0.551123 v 0.5511237 z m 0,-0.5511237 V 5.480539 h 0.551123 V 6.0316628 Z M 29.915107,4.9431248 V 4.3920011 h 0.537415 v 0.5511237 z m 0.537415,4.376087 v 0.542898 h -0.537415 v -0.542898 z m -0.537415,0 V 8.7817976 h 0.537415 v 0.5374142 z m 0,-1.0885379 V 7.682292 h 0.537415 v 0.5483819 z m 0,-0.5483819 V 7.1311683 h 0.537415 V 7.682292 Z m 0,-0.5511237 V 6.5827865 h 0.537415 v 0.5483818 z m 0,-0.5483818 V 6.0316628 h 0.537415 v 0.5511237 z m 0,-0.5511237 V 5.480539 h 0.537415 V 6.0316628 Z M 29.363984,4.9431248 V 4.3920011 h 0.551123 v 0.5511237 z m 0.551123,4.376087 v 0.542898 h -0.551123 v -0.542898 z m -0.551123,0 V 8.7817976 h 0.551123 V 9.3192118 Z M 28.815602,4.9431248 V 4.3920011 h 0.548382 v 0.5511237 z m 0,4.376087 V 8.7817976 h 0.548382 v 0.5374142 z m 0,-0.5374142 V 8.2306739 h 0.548382 v 0.5511237 z m 0,-3.3012586 V 4.9431248 h 0.548382 V 5.480539 Z M 28.264478,8.7817976 V 8.2306739 h 0.551124 v 0.5511237 z m 0,-0.5511237 V 7.682292 h 0.551124 v 0.5483819 z m 0,-0.5483819 V 7.1311683 h 0.551124 V 7.682292 Z m 0,-0.5511237 V 6.5827865 h 0.551124 v 0.5483818 z m 0,-0.5483818 V 6.0316628 h 0.551124 v 0.5511237 z m 0,-0.5511237 V 5.480539 h 0.551124 v 0.5511238 z m 0,-0.5511238 V 4.9431248 h 0.551124 V 5.480539 Z m 9.876357,3.8386728 V 8.7817976 h 0.540156 v 0.5374142 z m 0,-0.5374142 V 8.2306739 h 0.540156 v 0.5511237 z m 0,-0.5511237 V 7.682292 h 0.540156 v 0.5483819 z m 0,-1.0995056 V 6.5827865 h 0.540156 v 0.5483818 z m 0,-0.5483818 V 6.0316628 h 0.540156 v 0.5511237 z m 0,-0.5511237 V 5.480539 h 0.540156 v 0.5511238 z m 0,3.287549 v 0.542898 h -0.548382 v -0.542898 z m -0.548382,0 V 8.7817976 h 0.548382 v 0.5374142 z m 0,-0.5374142 V 8.2306739 h 0.548382 v 0.5511237 z m 0,-0.5511237 V 7.682292 h 0.548382 v 0.5483819 z m 0,-0.5483819 V 7.1311683 h 0.548382 V 7.682292 Z m 0,-0.5511237 V 6.5827865 h 0.548382 v 0.5483818 z m 0,-0.5483818 V 6.0316628 h 0.548382 v 0.5511237 z m 0,-0.5511237 V 5.480539 h 0.548382 v 0.5511238 z m 0,-0.5511238 V 4.9431248 h 0.548382 V 5.480539 Z M 37.04133,4.9431248 V 4.3920011 h 0.551123 v 0.5511237 z m 0.551123,4.376087 v 0.542898 H 37.04133 v -0.542898 z m -0.551123,0 V 8.7817976 h 0.551123 v 0.5374142 z m 0,-0.5374142 V 8.2306739 h 0.551123 v 0.5511237 z m 0,-1.0995056 V 7.1311683 h 0.551123 V 7.682292 Z m 0,-0.5511237 V 6.5827865 h 0.551123 v 0.5483818 z m 0,-0.5483818 V 6.0316628 h 0.551123 v 0.5511237 z m 0,-1.1022475 V 4.9431248 h 0.551123 V 5.480539 Z M 36.492948,4.9431248 V 4.3920011 h 0.548382 v 0.5511237 z m 0.548382,4.376087 v 0.542898 h -0.548382 v -0.542898 z m -0.548382,0 V 8.7817976 h 0.548382 v 0.5374142 z m 0,-1.6369198 V 7.1311683 H 37.04133 V 7.682292 Z m 0,-0.5511237 V 6.5827865 h 0.548382 v 0.5483818 z m 0,-0.5483818 V 6.0316628 H 37.04133 V 6.5827865 Z M 35.941824,4.9431248 V 4.3920011 h 0.551124 v 0.5511237 z m 0.551124,4.376087 v 0.542898 h -0.551124 v -0.542898 z m -0.551124,0 V 8.7817976 h 0.551124 v 0.5374142 z m 0,-1.0885379 V 7.682292 h 0.551124 v 0.5483819 z m 0,-0.5483819 V 7.1311683 h 0.551124 V 7.682292 Z m 0,-0.5511237 V 6.5827865 h 0.551124 v 0.5483818 z m 0,-0.5483818 V 6.0316628 h 0.551124 v 0.5511237 z m 0,-0.5511237 V 5.480539 h 0.551124 V 6.0316628 Z M 35.3907,4.9431248 V 4.3920011 h 0.551124 v 0.5511237 z m 0.551124,4.376087 v 0.542898 H 35.3907 v -0.542898 z m -0.551124,0 V 8.7817976 h 0.551124 v 0.5374142 z m 0,-1.0885379 V 7.682292 h 0.551124 v 0.5483819 z m 0,-0.5483819 V 7.1311683 h 0.551124 V 7.682292 Z m 0,-0.5511237 V 6.5827865 h 0.551124 v 0.5483818 z m 0,-0.5483818 V 6.0316628 h 0.551124 v 0.5511237 z m 0,-0.5511237 V 5.480539 h 0.551124 V 6.0316628 Z M 34.853286,4.9431248 V 4.3920011 H 35.3907 v 0.5511237 z m 0.537414,4.376087 v 0.542898 h -0.537414 v -0.542898 z m -0.537414,0 V 8.7817976 H 35.3907 v 0.5374142 z m 0,-1.0885379 V 7.682292 H 35.3907 v 0.5483819 z m 0,-0.5483819 V 7.1311683 H 35.3907 V 7.682292 Z m 0,-0.5511237 V 6.5827865 H 35.3907 v 0.5483818 z m 0,-0.5483818 V 6.0316628 H 35.3907 v 0.5511237 z m 0,-0.5511237 V 5.480539 H 35.3907 V 6.0316628 Z M 34.302162,4.9431248 V 4.3920011 h 0.551124 v 0.5511237 z m 0.551124,4.376087 v 0.542898 h -0.551124 v -0.542898 z m -0.551124,0 V 8.7817976 h 0.551124 V 9.3192118 Z M 33.75378,4.9431248 V 4.3920011 h 0.548382 v 0.5511237 z m 0,4.376087 V 8.7817976 h 0.548382 v 0.5374142 z m 0,-0.5374142 V 8.2306739 h 0.548382 v 0.5511237 z m 0,-3.3012586 V 4.9431248 h 0.548382 V 5.480539 Z M 33.202657,8.7817976 V 8.2306739 h 0.551123 v 0.5511237 z m 0,-0.5511237 V 7.682292 h 0.551123 v 0.5483819 z m 0,-0.5483819 V 7.1311683 H 33.75378 V 7.682292 Z m 0,-0.5511237 V 6.5827865 h 0.551123 v 0.5483818 z m 0,-0.5483818 V 6.0316628 h 0.551123 v 0.5511237 z m 0,-0.5511237 V 5.480539 h 0.551123 v 0.5511238 z m 0,-0.5511238 V 4.9431248 H 33.75378 V 5.480539 Z" gorn="0.3.1"  id="path1"/>
        <path style="fill:#000000;fill-opacity:1;stroke:none;stroke-opacity:1" d="m 28.804634,23.905742 v 0.542898 h -0.540156 v -0.542898 z m -0.540156,0 v -0.537414 h 0.540156 v 0.537414 z m 0,-0.537414 v -0.551124 h 0.540156 v 0.551124 z m 0,-0.551124 v -0.548382 h 0.540156 v 0.548382 z m 0,-0.548382 v -0.551124 h 0.540156 v 0.551124 z m 0,-0.551124 v -0.548381 h 0.540156 v 0.548381 z m 0,-0.548381 v -0.551124 h 0.540156 v 0.551124 z m 0,-0.551124 v -0.551124 h 0.540156 v 0.551124 z m 0,3.287549 v 0.542898 h -0.548382 v -0.542898 z m -0.548382,0 v -0.537414 h 0.548382 v 0.537414 z m 0,-0.537414 v -0.551124 h 0.548382 v 0.551124 z m 0,-0.551124 v -0.548382 h 0.548382 v 0.548382 z m 0,-0.548382 v -0.551124 h 0.548382 v 0.551124 z m 0,-0.551124 v -0.548381 h 0.548382 v 0.548381 z m 0,-0.548381 v -0.551124 h 0.548382 v 0.551124 z m 0,-0.551124 v -0.551124 h 0.548382 v 0.551124 z m 0,-0.551124 v -0.537414 h 0.548382 v 0.537414 z m -0.551124,-0.537414 v -0.551124 h 0.551124 v 0.551124 z m 0.551124,4.376087 v 0.542898 h -0.551124 v -0.542898 z m -0.551124,0 v -0.537414 h 0.551124 v 0.537414 z m 0,-2.736425 v -0.551124 h 0.551124 v 0.551124 z m 0,-1.102248 v -0.537414 h 0.551124 v 0.537414 z m -0.548381,-0.537414 v -0.551124 h 0.548381 v 0.551124 z m 0.548381,4.376087 v 0.542898 h -0.548381 v -0.542898 z m -0.548381,0 v -0.537414 h 0.548381 v 0.537414 z m 0,-0.537414 v -0.551124 h 0.548381 v 0.551124 z m 0,-2.199011 v -0.551124 h 0.548381 v 0.551124 z m -0.551124,-1.639662 v -0.551124 h 0.551124 v 0.551124 z m 0.551124,4.376087 v 0.542898 h -0.551124 v -0.542898 z m -0.551124,0 v -0.537414 h 0.551124 v 0.537414 z m 0,-1.088538 v -0.548382 h 0.551124 v 0.548382 z m 0,-0.548382 v -0.551124 h 0.551124 v 0.551124 z m 0,-1.099505 v -0.551124 h 0.551124 v 0.551124 z m 0,-0.551124 v -0.551124 h 0.551124 v 0.551124 z m -0.551124,-1.088538 v -0.551124 h 0.551124 v 0.551124 z m 0.551124,4.376087 v 0.542898 h -0.551124 v -0.542898 z m -0.551124,0 v -0.537414 h 0.551124 v 0.537414 z m 0,-1.088538 v -0.548382 h 0.551124 v 0.548382 z m 0,-0.548382 v -0.551124 h 0.551124 v 0.551124 z m 0,-0.551124 v -0.548381 h 0.551124 v 0.548381 z m 0,-0.548381 v -0.551124 h 0.551124 v 0.551124 z m 0,-0.551124 v -0.551124 h 0.551124 v 0.551124 z m -0.537414,-1.088538 v -0.551124 h 0.537414 v 0.551124 z m 0.537414,4.376087 v 0.542898 h -0.537414 v -0.542898 z m -0.537414,0 v -0.537414 h 0.537414 v 0.537414 z m 0,-1.088538 v -0.548382 h 0.537414 v 0.548382 z m 0,-0.548382 v -0.551124 h 0.537414 v 0.551124 z m 0,-0.551124 v -0.548381 h 0.537414 v 0.548381 z m 0,-0.548381 v -0.551124 h 0.537414 v 0.551124 z m 0,-0.551124 v -0.551124 h 0.537414 v 0.551124 z m -0.551124,-1.088538 v -0.551124 h 0.551124 v 0.551124 z m 0.551124,4.376087 v 0.542898 h -0.551124 v -0.542898 z m -0.551124,0 v -0.537414 h 0.551124 v 0.537414 z m -0.548382,-4.376087 v -0.551124 h 0.548382 v 0.551124 z m 0,4.376087 v -0.537414 h 0.548382 v 0.537414 z m 0,-0.537414 v -0.551124 h 0.548382 v 0.551124 z m 0,-3.301259 v -0.537414 h 0.548382 v 0.537414 z M 23.3263,23.368328 v -0.551124 h 0.551123 v 0.551124 z m 0,-0.551124 v -0.548382 h 0.551123 v 0.548382 z m 0,-0.548382 v -0.551124 h 0.551123 v 0.551124 z m 0,-0.551124 v -0.548381 h 0.551123 v 0.548381 z m 0,-0.548381 v -0.551124 h 0.551123 v 0.551124 z m 0,-0.551124 v -0.551124 h 0.551123 v 0.551124 z m 0,-0.551124 v -0.537414 h 0.551123 v 0.537414 z m 10.416513,3.838673 v 0.542898 h -0.540156 v -0.542898 z m -0.540156,0 v -0.537414 h 0.540156 v 0.537414 z m 0,-0.537414 v -0.551124 h 0.540156 v 0.551124 z m 0,-0.551124 v -0.548382 h 0.540156 v 0.548382 z m 0,-0.548382 v -0.551124 h 0.540156 v 0.551124 z m 0,-0.551124 v -0.548381 h 0.540156 v 0.548381 z m 0,-0.548381 v -0.551124 h 0.540156 v 0.551124 z m 0,-0.551124 v -0.551124 h 0.540156 v 0.551124 z m 0,-0.551124 v -0.537414 h 0.540156 v 0.537414 z m -0.548382,-0.537414 v -0.551124 h 0.548382 v 0.551124 z m 0.548382,4.376087 v 0.542898 h -0.548382 v -0.542898 z m -0.548382,0 v -0.537414 h 0.548382 v 0.537414 z m 0,-0.537414 v -0.551124 h 0.548382 v 0.551124 z m 0,-0.551124 v -0.548382 h 0.548382 v 0.548382 z m 0,-0.548382 v -0.551124 h 0.548382 v 0.551124 z m 0,-0.551124 v -0.548381 h 0.548382 v 0.548381 z m 0,-0.548381 v -0.551124 h 0.548382 v 0.551124 z m 0,-0.551124 v -0.551124 h 0.548382 v 0.551124 z m 0,-0.551124 v -0.537414 h 0.548382 v 0.537414 z m -0.551124,-0.537414 v -0.551124 h 0.551124 v 0.551124 z m 0.551124,4.376087 v 0.542898 h -0.551124 v -0.542898 z m -0.551124,0 v -0.537414 h 0.551124 v 0.537414 z m -0.548382,-4.376087 v -0.551124 h 0.548382 v 0.551124 z m 0.548382,4.376087 v 0.542898 h -0.548382 v -0.542898 z m -0.548382,0 v -0.537414 h 0.548382 v 0.537414 z m -0.551124,-4.376087 v -0.551124 h 0.551124 v 0.551124 z m 0,4.376087 v -0.537414 h 0.551124 v 0.537414 z m 0,-0.537414 v -0.551124 h 0.551124 v 0.551124 z m 0,-0.551124 v -0.548382 h 0.551124 v 0.548382 z m 0,-1.647887 v -0.551124 h 0.551124 v 0.551124 z m 0,-0.551124 v -0.551124 h 0.551124 v 0.551124 z m 0,-0.551124 v -0.537414 h 0.551124 v 0.537414 z m 0,3.838673 v 0.542898 h -0.551123 v -0.542898 z m -0.551123,0 v -0.537414 h 0.551123 v 0.537414 z m 0,-0.537414 v -0.551124 h 0.551123 v 0.551124 z m 0,-0.551124 v -0.548382 h 0.551123 v 0.548382 z m 0,-0.548382 v -0.551124 h 0.551123 v 0.551124 z m 0,-1.650629 v -0.551124 h 0.551123 v 0.551124 z m 0,-0.551124 v -0.537414 h 0.551123 v 0.537414 z m -0.537415,-0.537414 v -0.551124 h 0.537415 v 0.551124 z m 0.537415,4.376087 v 0.542898 h -0.537415 v -0.542898 z m -0.537415,0 v -0.537414 h 0.537415 v 0.537414 z m 0,-0.537414 v -0.551124 h 0.537415 v 0.551124 z m 0,-0.551124 v -0.548382 h 0.537415 v 0.548382 z m 0,-0.548382 v -0.551124 h 0.537415 v 0.551124 z m 0,-0.551124 v -0.548381 h 0.537415 v 0.548381 z m 0,-1.650629 v -0.537414 h 0.537415 v 0.537414 z m -0.551123,-0.537414 v -0.551124 h 0.551123 v 0.551124 z m 0.551123,4.376087 v 0.542898 h -0.551123 v -0.542898 z m -0.551123,0 v -0.537414 h 0.551123 v 0.537414 z m -0.548382,-4.376087 v -0.551124 h 0.548382 v 0.551124 z m 0.548382,4.376087 v 0.542898 h -0.548382 v -0.542898 z m -0.548382,0 v -0.537414 h 0.548382 v 0.537414 z m -0.551124,-4.376087 v -0.551124 h 0.551124 v 0.551124 z m 0,4.376087 v -0.537414 h 0.551124 v 0.537414 z m 0,-0.537414 v -0.551124 h 0.551124 v 0.551124 z m 0,-0.551124 v -0.548382 h 0.551124 v 0.548382 z m 0,-0.548382 v -0.551124 h 0.551124 v 0.551124 z m 0,-0.551124 v -0.548381 h 0.551124 v 0.548381 z m 0,-0.548381 v -0.551124 h 0.551124 v 0.551124 z m 0,-0.551124 v -0.551124 h 0.551124 v 0.551124 z m 0,-0.551124 v -0.537414 h 0.551124 v 0.537414 z m 9.876357,3.301259 v -0.551124 h 0.540156 v 0.551124 z m 0,-0.551124 v -0.548382 h 0.540156 v 0.548382 z m 0,-0.548382 v -0.551124 h 0.540156 v 0.551124 z m 0,-0.551124 v -0.548381 h 0.540156 v 0.548381 z m 0,-0.548381 v -0.551124 h 0.540156 v 0.551124 z m -0.548382,2.736425 v -0.537414 h 0.548382 v 0.537414 z m 0,-0.537414 v -0.551124 h 0.548382 v 0.551124 z m 0,-0.551124 v -0.548382 h 0.548382 v 0.548382 z m 0,-0.548382 v -0.551124 h 0.548382 v 0.551124 z m 0,-0.551124 v -0.548381 h 0.548382 v 0.548381 z m 0,-0.548381 v -0.551124 h 0.548382 v 0.551124 z m 0,-0.551124 v -0.551124 h 0.548382 v 0.551124 z m 0,3.287549 V 24.44864 H 37.04133 v -0.542898 z m -0.551123,0 v -0.537414 h 0.551123 v 0.537414 z m 0,-0.537414 v -0.551124 h 0.551123 v 0.551124 z m 0,-0.551124 v -0.548382 h 0.551123 v 0.548382 z m 0,-2.199011 v -0.551124 h 0.551123 v 0.551124 z m 0,-0.551124 v -0.537414 h 0.551123 v 0.537414 z m -0.548382,-0.537414 v -0.551124 h 0.548382 v 0.551124 z m 0.548382,4.376087 v 0.542898 h -0.548382 v -0.542898 z m -0.548382,0 v -0.537414 h 0.548382 v 0.537414 z m 0,-0.537414 v -0.551124 h 0.548382 v 0.551124 z m 0,-3.301259 v -0.537414 h 0.548382 v 0.537414 z m -0.551124,-0.537414 v -0.551124 h 0.551124 v 0.551124 z m 0.551124,4.376087 v 0.542898 h -0.551124 v -0.542898 z m -0.551124,0 v -0.537414 h 0.551124 v 0.537414 z m 0,-1.63692 v -0.551124 h 0.551124 v 0.551124 z m 0,-0.551124 v -0.548381 h 0.551124 v 0.548381 z m 0,-0.548381 v -0.551124 h 0.551124 v 0.551124 z M 35.3907,19.529655 v -0.551124 h 0.551124 v 0.551124 z m 0.551124,4.376087 V 24.44864 H 35.3907 v -0.542898 z m -0.551124,0 v -0.537414 h 0.551124 v 0.537414 z m 0,-1.088538 v -0.548382 h 0.551124 v 0.548382 z m 0,-0.548382 v -0.551124 h 0.551124 v 0.551124 z m 0,-0.551124 v -0.548381 h 0.551124 v 0.548381 z m 0,-0.548381 v -0.551124 h 0.551124 v 0.551124 z m 0,-0.551124 v -0.551124 h 0.551124 v 0.551124 z M 34.853286,19.529655 V 18.978531 H 35.3907 v 0.551124 z m 0.537414,4.376087 v 0.542898 h -0.537414 v -0.542898 z m -0.537414,0 V 23.368328 H 35.3907 v 0.537414 z m 0,-1.088538 V 22.268822 H 35.3907 v 0.548382 z m 0,-0.548382 V 21.717698 H 35.3907 v 0.551124 z m 0,-0.551124 V 21.169317 H 35.3907 v 0.548381 z m 0,-0.548381 V 20.618193 H 35.3907 v 0.551124 z m 0,-0.551124 V 20.067069 H 35.3907 v 0.551124 z m -0.551124,-1.088538 v -0.551124 h 0.551124 v 0.551124 z m 0.551124,4.376087 v 0.542898 h -0.551124 v -0.542898 z m -0.551124,0 v -0.537414 h 0.551124 v 0.537414 z M 33.75378,19.529655 v -0.551124 h 0.548382 v 0.551124 z m 0.548382,4.376087 V 24.44864 H 33.75378 v -0.542898 z m -0.548382,0 v -0.537414 h 0.548382 v 0.537414 z m -0.551123,-4.376087 v -0.551124 h 0.551123 v 0.551124 z m 0,4.376087 v -0.537414 h 0.551123 v 0.537414 z m 0,-0.537414 v -0.551124 h 0.551123 v 0.551124 z m 0,-0.551124 v -0.548382 h 0.551123 v 0.548382 z m 0,-0.548382 v -0.551124 h 0.551123 v 0.551124 z m 0,-0.551124 v -0.548381 h 0.551123 v 0.548381 z m 0,-0.548381 v -0.551124 h 0.551123 v 0.551124 z m 0,-0.551124 v -0.551124 h 0.551123 v 0.551124 z m 0,-0.551124 v -0.537414 h 0.551123 v 0.537414 z" gorn="0.3.2"  id="path2"/>
    </g>
</svg>
