<?xml version="1.0" encoding="UTF-8" standalone="no"?>
<!-- Created with Fritzing (https://fritzing.org/) -->

<svg
   x="0in"
   id="svg21729"
   width="12.026mm"
   y="0in"
   viewBox="0 0 34.089449 76.535438"
   gorn="0"
   version="1.2"
   height="27mm"
   xmlns="http://www.w3.org/2000/svg"
   xmlns:svg="http://www.w3.org/2000/svg">
  <desc
     id="desc1119">
    <referenceFile>kicks-bootleg.svg</referenceFile>
  </desc>
  <defs
     id="defs21733" />
  <g
     id="silkscreen"
     gorn="0.2">
    <rect
       id="rect21814"
       x="0.29455101"
       style="stroke-linecap:square;stroke-linejoin:round;stroke-miterlimit:4;stroke-dasharray:none;stroke-dashoffset:12.548;paint-order:markers stroke fill"
       stroke-width="0.589102"
       fill="none"
       width="16.361361"
       y="0.29455101"
       stroke="#000000"
       gorn="0.2.0"
       height="75.946335" />
    <g
       transform="translate(1.5)"
       id="g1286">
      <g
         id="g1284">
        <g
           id="g26969"
           gorn="0.2.1.0.0">
          <g
             id="g1440"
             transform="translate(-0.10584187,-0.35302957)">
            <g
               transform="matrix(0.37355001,0,0,0.37355001,10.252287,10.367839)"
               id="g1146">
              <g
                 id="g1144">
                <g
                   id="g26899"
                   style="stroke-miterlimit:4;stroke-dasharray:none"
                   stroke-width="1.008"
                   fill="#000000"
                   fill-opacity="1"
                   stroke="none"
                   gorn="0.2.1.0.0.0.0.0">
                  <g
                     transform="scale(0.75)"
                     id="g1126">
                    <g
                       id="g1124">
                      <path
                         d="M 23.902372,9.9290384 V 5.1218062 l 2.150508,0.04791 c 2.046604,0.045596 2.182218,0.066551 2.806795,0.4337138 1.127185,0.6626254 1.586626,2.2663911 1.030539,3.5972935 -0.509587,1.2196135 -1.253594,1.5796485 -3.273266,1.5839755 l -1.445423,0.0031 v 1.974237 1.974238 H 24.536948 23.902372 Z M 27.56439,9.7540748 C 28.681647,9.4616685 29.167465,8.2108918 28.615543,7.0478015 28.297756,6.3781144 27.683249,6.1342371 26.313603,6.1342371 h -1.142078 v 1.9037287 1.9037288 l 0.881355,-0.011349 c 0.484746,-0.00624 1.164925,-0.085564 1.51151,-0.1762708 z"
                         id="path25578"
                         style="stroke-linecap:square;stroke-linejoin:round;stroke-miterlimit:4;stroke-dasharray:none;stroke-dashoffset:12.548;paint-order:markers stroke fill"
                         stroke-width="1.344"
                         fill="#000000"
                         fill-opacity="1"
                         stroke="none"
                         gorn="0.2.1.0.0.0.0.0.0.0.0" />
                    </g>
                  </g>
                  <g
                     transform="scale(0.75)"
                     id="g1131">
                    <g
                       id="g1129">
                      <path
                         d="m 31.611298,14.783276 c -0.05171,-0.05171 -0.09401,-0.295618 -0.09401,-0.542027 0,-0.38573 0.304112,-0.766189 2.187466,-2.736624 1.203106,-1.258735 2.281886,-2.4711972 2.397288,-2.6943602 0.115402,-0.2231629 0.209822,-0.7008072 0.209822,-1.0614317 0,-0.5576536 -0.07168,-0.7273618 -0.479458,-1.1351384 -0.299692,-0.2996923 -0.630143,-0.4868479 -0.881355,-0.4991686 -0.771805,-0.037853 -1.509774,0.04995 -2.064346,0.2456146 -0.307326,0.108431 -0.713271,0.1971472 -0.9021,0.1971472 -0.310501,0 -0.339141,-0.050558 -0.299558,-0.5288135 0.04165,-0.5032309 0.08129,-0.5418402 0.81936,-0.7980838 1.118616,-0.3883609 2.830604,-0.3851474 3.681736,0.00691 0.968787,0.4462543 1.441093,1.1484558 1.511011,2.2464992 0.08473,1.3306601 -0.247262,1.888288 -2.489632,4.1816812 l -1.892256,1.935312 2.238638,0.03892 2.238638,0.03893 0.04336,0.599322 0.04336,0.599322 h -3.086978 c -1.697838,0 -3.129284,-0.04231 -3.18099,-0.09401 z"
                         id="path25771"
                         style="stroke-linecap:square;stroke-linejoin:round;stroke-miterlimit:4;stroke-dasharray:none;stroke-dashoffset:12.548;paint-order:markers stroke fill"
                         stroke-width="1.344"
                         fill="#000000"
                         fill-opacity="1"
                         stroke="none"
                         gorn="0.2.1.0.0.0.0.0.1.0.0" />
                    </g>
                  </g>
                  <g
                     transform="scale(0.75)"
                     id="g1136">
                    <g
                       id="g1134">
                      <path
                         d="m 47.194971,14.857829 c -0.675472,-0.194589 -1.627616,-1.207603 -1.912538,-2.034805 -0.610569,-1.772639 -0.56307,-4.181349 0.110963,-5.627009 0.85383,-1.8312889 2.653245,-2.6504034 4.738128,-2.1568503 l 0.775593,0.1836057 0.04336,0.5967503 c 0.02385,0.3282127 0.02383,0.5967503 -5.3e-5,0.5967503 -0.02388,0 -0.485207,-0.092435 -1.025175,-0.2054111 C 47.777157,5.76142 46.680343,6.5808218 46.26477,8.9455118 l -0.08515,0.4844953 0.319001,-0.2917288 c 0.651394,-0.5957052 1.2229,-0.7803149 2.23808,-0.7229521 1.795198,0.1014378 2.815342,1.2538207 2.821453,3.1871908 0.0038,1.216004 -0.313008,2.023559 -1.046717,2.667756 -0.796967,0.699738 -2.115925,0.933409 -3.31647,0.587556 z m 2.016771,-1.13289 c 0.608371,-0.277193 0.972947,-1.031951 0.970639,-2.009451 -0.0035,-1.483091 -0.632754,-2.1968443 -1.936764,-2.1968443 -1.18643,0 -1.874579,0.9792873 -1.749345,2.4894473 0.09999,1.205785 0.75233,1.875706 1.83065,1.879999 0.287198,0.0011 0.685367,-0.07227 0.88482,-0.163151 z"
                         id="path25810"
                         style="stroke-linecap:square;stroke-linejoin:round;stroke-miterlimit:4;stroke-dasharray:none;stroke-dashoffset:12.548;paint-order:markers stroke fill"
                         stroke-width="1.344"
                         fill="#000000"
                         fill-opacity="1"
                         stroke="none"
                         gorn="0.2.1.0.0.0.0.0.2.0.0" />
                    </g>
                  </g>
                  <g
                     transform="scale(0.75)"
                     id="g1141">
                    <g
                       id="g1139">
                      <path
                         d="m 39.7944,11.685022 c -0.05397,-0.05397 -0.09813,-0.309655 -0.09813,-0.568186 v -0.470057 h 1.841732 1.841733 l -0.04377,0.528814 -0.04377,0.528813 -1.699836,0.03937 c -0.93491,0.02166 -1.743995,-0.0048 -1.797966,-0.05876 z"
                         id="path25849"
                         style="stroke-linecap:square;stroke-linejoin:round;stroke-miterlimit:4;stroke-dasharray:none;stroke-dashoffset:12.548;paint-order:markers stroke fill"
                         stroke-width="1.344"
                         fill="#000000"
                         fill-opacity="1"
                         stroke="none"
                         gorn="0.2.1.0.0.0.0.0.3.0.0" />
                    </g>
                  </g>
                </g>
              </g>
            </g>
            <g
               transform="matrix(0.36980753,0,0,0.36980753,10.319377,13.800423)"
               id="g1176">
              <g
                 id="g1174">
                <g
                   id="g26893"
                   style="stroke-miterlimit:4;stroke-dasharray:none"
                   stroke-width="1.008"
                   fill="#000000"
                   fill-opacity="1"
                   stroke="none"
                   gorn="0.2.1.0.0.1.0.0">
                  <g
                     transform="scale(0.75)"
                     id="g1151">
                    <g
                       id="g1149">
                      <path
                         d="m 23.902372,23.97288 v -4.865084 l 2.08,0.0031 c 1.712382,0.0025 2.180724,0.04885 2.649901,0.261967 1.753541,0.796523 2.173534,3.299935 0.78635,4.687119 -0.640155,0.640155 -1.290204,0.827717 -2.872183,0.828725 l -1.233899,7.87e-4 v 1.974237 1.974237 h -0.705084 -0.705085 z m 4.383192,-0.742563 c 0.348205,-0.389803 0.411384,-0.578961 0.411384,-1.231674 0,-0.652713 -0.06318,-0.841871 -0.411384,-1.231673 -0.398994,-0.44666 -0.44996,-0.462014 -1.692204,-0.509815 l -1.280819,-0.04929 v 1.790773 1.790774 l 1.280819,-0.04929 c 1.242244,-0.0478 1.29321,-0.06316 1.692204,-0.509815 z"
                         id="path25888"
                         style="stroke-linecap:square;stroke-linejoin:round;stroke-miterlimit:4;stroke-dasharray:none;stroke-dashoffset:12.548;paint-order:markers stroke fill"
                         stroke-width="1.344"
                         fill="#000000"
                         fill-opacity="1"
                         stroke="none"
                         gorn="0.2.1.0.0.1.0.0.0.0.0" />
                    </g>
                  </g>
                  <g
                     transform="scale(0.75)"
                     id="g1156">
                    <g
                       id="g1154">
                      <path
                         d="m 34.196609,25.450001 c 0,-0.325644 0.197334,-0.638727 0.833806,-1.322887 0.458594,-0.492954 0.934526,-1.091049 1.057627,-1.329101 0.285926,-0.552919 0.287841,-1.561824 0.0037,-1.967442 -0.536008,-0.765258 -1.877584,-0.955581 -3.198063,-0.453694 -1.130141,0.429544 -1.259938,0.396007 -1.208265,-0.312192 0.04332,-0.593672 0.04425,-0.594576 0.889464,-0.858338 0.481917,-0.15039 1.303162,-0.269824 1.907981,-0.277478 0.918124,-0.01162 1.16296,0.04158 1.808523,0.392935 0.97825,0.53243 1.431826,1.274885 1.427518,2.336686 -0.0044,1.074803 -0.367227,1.76215 -1.625636,3.079312 -0.86621,0.906651 -1.170439,1.138807 -1.492351,1.138807 -0.356005,0 -0.40434,-0.051 -0.40434,-0.426608 z"
                         id="path25927"
                         style="stroke-linecap:square;stroke-linejoin:round;stroke-miterlimit:4;stroke-dasharray:none;stroke-dashoffset:12.548;paint-order:markers stroke fill"
                         stroke-width="1.344"
                         fill="#000000"
                         fill-opacity="1"
                         stroke="none"
                         gorn="0.2.1.0.0.1.0.0.1.0.0" />
                    </g>
                  </g>
                  <g
                     transform="scale(0.75)"
                     id="g1161">
                    <g
                       id="g1159">
                      <path
                         d="m 39.69627,25.171525 v -0.564068 h 1.83322 1.83322 v 0.564068 0.564067 h -1.83322 -1.83322 z"
                         id="path25966"
                         style="stroke-linecap:square;stroke-linejoin:round;stroke-miterlimit:4;stroke-dasharray:none;stroke-dashoffset:12.548;paint-order:markers stroke fill"
                         stroke-width="1.344"
                         fill="#000000"
                         fill-opacity="1"
                         stroke="none"
                         gorn="0.2.1.0.0.1.0.0.2.0.0" />
                    </g>
                  </g>
                  <g
                     transform="scale(0.75)"
                     id="g1166">
                    <g
                       id="g1164">
                      <path
                         d="m 31.611298,28.743954 c -0.05171,-0.05171 -0.09401,-0.286054 -0.09401,-0.520772 0,-0.348495 0.252152,-0.687807 1.374915,-1.850176 1.566294,-1.621544 2.502561,-2.710782 2.960634,-3.444354 0.341086,-0.546226 0.425676,-1.522968 0.172813,-1.995447 -0.359842,-0.672371 -1.889505,-0.912198 -3.098193,-0.485748 -0.329739,0.116339 -0.750192,0.211525 -0.934339,0.211525 -0.294842,0 -0.334813,-0.06528 -0.334813,-0.546801 0,-0.691663 0.166975,-0.823928 1.358963,-1.076472 1.339003,-0.283692 2.258146,-0.258083 3.012562,0.08394 1.22402,0.554917 1.737341,1.304651 1.738481,2.539145 0.0011,1.238406 -0.403569,1.883168 -2.546649,4.057153 l -1.896034,1.923377 2.268711,0.03875 2.268711,0.03875 v 0.560574 0.560575 h -3.07887 c -1.693379,0 -3.121176,-0.0423 -3.172882,-0.09401 z"
                         id="path26005"
                         style="stroke-linecap:square;stroke-linejoin:round;stroke-miterlimit:4;stroke-dasharray:none;stroke-dashoffset:12.548;paint-order:markers stroke fill"
                         stroke-width="1.344"
                         fill="#000000"
                         fill-opacity="1"
                         stroke="none"
                         gorn="0.2.1.0.0.1.0.0.3.0.0" />
                    </g>
                  </g>
                  <g
                     transform="scale(0.75)"
                     id="g1171">
                    <g
                       id="g1169">
                      <path
                         d="M 46.958642,29.030548 C 46.725964,29.001412 46.17071,28.905762 45.724744,28.817992 L 44.913897,28.65841 v -0.615307 c 0,-0.711487 0.01143,-0.714925 1.28843,-0.387772 0.995044,0.254919 1.974838,0.197307 2.658699,-0.156331 1.3199,-0.682547 1.314062,-2.9007 -0.0096,-3.628828 -0.39554,-0.217589 -0.686296,-0.253651 -1.610799,-0.199787 -0.620474,0.03615 -1.302644,0.110535 -1.515932,0.165298 l -0.387797,0.09957 v -2.484236 -2.484236 h 2.608814 2.608813 v 0.634576 0.634576 H 48.580337 46.6061 l 1.69e-4,1.092882 1.69e-4,1.092881 h 1.233724 c 1.097829,0 1.307854,0.04358 1.906712,0.395592 1.010838,0.594184 1.427239,1.319078 1.491769,2.59696 0.06669,1.32076 -0.214369,2.112962 -0.983109,2.770975 -0.727603,0.622811 -2.153737,0.988472 -3.296892,0.845327 z"
                         id="path26044"
                         style="stroke-linecap:square;stroke-linejoin:round;stroke-miterlimit:4;stroke-dasharray:none;stroke-dashoffset:12.548;paint-order:markers stroke fill"
                         stroke-width="1.344"
                         fill="#000000"
                         fill-opacity="1"
                         stroke="none"
                         gorn="0.2.1.0.0.1.0.0.4.0.0" />
                    </g>
                  </g>
                </g>
              </g>
            </g>
            <g
               transform="matrix(0.38031039,0,0,0.38031039,10.131095,16.939307)"
               id="g1206">
              <g
                 id="g1204">
                <g
                   id="g26886"
                   style="stroke-miterlimit:4;stroke-dasharray:none"
                   stroke-width="1.008"
                   fill="#000000"
                   fill-opacity="1"
                   stroke="none"
                   gorn="0.2.1.0.0.2.0.0">
                  <g
                     transform="scale(0.75)"
                     id="g1181">
                    <g
                       id="g1179">
                      <path
                         d="m 35.042711,38.573041 c 0,-0.258165 0.154374,-0.595365 0.403495,-0.881356 0.600782,-0.689695 0.865657,-1.29432 0.865657,-1.976018 0,-1.457204 -1.286047,-2.000536 -3.26608,-1.37986 -1.299467,0.40734 -1.387479,0.389924 -1.387479,-0.274549 v -0.558402 l 0.931464,-0.2877 c 1.014295,-0.313283 2.35758,-0.37135 3.197136,-0.138204 0.613493,0.170369 1.433819,0.841311 1.730807,1.415621 0.287108,0.555206 0.25149,1.772246 -0.07277,2.48657 -0.414722,0.9136 -1.505757,2.012042 -1.998474,2.012042 -0.353551,0 -0.403753,-0.05199 -0.403753,-0.418144 z"
                         id="path26083"
                         style="stroke-linecap:square;stroke-linejoin:round;stroke-miterlimit:4;stroke-dasharray:none;stroke-dashoffset:12.548;paint-order:markers stroke fill"
                         stroke-width="1.344"
                         fill="#000000"
                         fill-opacity="1"
                         stroke="none"
                         gorn="0.2.1.0.0.2.0.0.0.0.0" />
                    </g>
                  </g>
                  <g
                     transform="scale(0.75)"
                     id="g1186">
                    <g
                       id="g1184">
                      <path
                         d="m 23.902372,37.933558 v -4.865085 h 1.841284 c 2.250012,0 2.954384,0.160058 3.659584,0.831582 1.226569,1.167997 1.046356,3.547891 -0.340622,4.498264 -0.514749,0.352711 -1.696729,0.590798 -2.939229,0.592049 l -0.810848,8.17e-4 v 1.903729 1.903728 h -0.705084 -0.705085 z m 4.06904,-0.412475 c 0.495792,-0.256384 0.725536,-0.765415 0.725536,-1.607529 0,-1.220431 -0.691949,-1.716945 -2.392759,-1.716945 h -0.991648 v 1.762712 1.762712 h 1.135139 c 0.706651,0 1.281823,-0.07585 1.523732,-0.20095 z"
                         id="path26122"
                         style="stroke-linecap:square;stroke-linejoin:round;stroke-miterlimit:4;stroke-dasharray:none;stroke-dashoffset:12.548;paint-order:markers stroke fill"
                         stroke-width="1.344"
                         fill="#000000"
                         fill-opacity="1"
                         stroke="none"
                         gorn="0.2.1.0.0.2.0.0.1.0.0" />
                    </g>
                  </g>
                  <g
                     transform="scale(0.75)"
                     id="g1191">
                    <g
                       id="g1189">
                      <path
                         d="m 31.517287,42.267424 c 0,-0.489287 0.123488,-0.653471 1.564434,-2.08 2.361245,-2.33762 3.089125,-3.396826 3.089125,-4.495271 0,-1.400065 -1.18861,-1.835294 -3.300215,-1.208428 -0.591732,0.175665 -1.11695,0.278318 -1.167151,0.228116 -0.0502,-0.0502 -0.09677,-0.353645 -0.10348,-0.674319 -0.01166,-0.556827 0.01316,-0.591956 0.551863,-0.781258 0.832367,-0.292496 2.25945,-0.464511 3.063588,-0.369273 0.852131,0.100923 1.881393,0.748618 2.277831,1.433397 0.375484,0.648584 0.366404,1.854864 -0.02053,2.727479 -0.201421,0.454246 -0.900046,1.282369 -2.200856,2.608814 l -1.905762,1.943317 2.248458,0.03875 2.248457,0.03875 v 0.560575 0.560574 h -3.172881 -3.172881 z"
                         id="path26161"
                         style="stroke-linecap:square;stroke-linejoin:round;stroke-miterlimit:4;stroke-dasharray:none;stroke-dashoffset:12.548;paint-order:markers stroke fill"
                         stroke-width="1.344"
                         fill="#000000"
                         fill-opacity="1"
                         stroke="none"
                         gorn="0.2.1.0.0.2.0.0.2.0.0" />
                    </g>
                  </g>
                  <g
                     transform="scale(0.75)"
                     id="g1196">
                    <g
                       id="g1194">
                      <path
                         d="m 39.69627,39.132202 v -0.564068 h 1.83322 1.83322 v 0.564068 0.564068 h -1.83322 -1.83322 z"
                         id="path26237"
                         style="stroke-linecap:square;stroke-linejoin:round;stroke-miterlimit:4;stroke-dasharray:none;stroke-dashoffset:12.548;paint-order:markers stroke fill"
                         stroke-width="1.344"
                         fill="#000000"
                         fill-opacity="1"
                         stroke="none"
                         gorn="0.2.1.0.0.2.0.0.3.0.0" />
                    </g>
                  </g>
                  <g
                     transform="scale(0.75)"
                     id="g1201">
                    <g
                       id="g1199">
                      <path
                         d="m 49.003388,41.670507 v -1.128136 h -2.256271 -2.256271 l 2.18e-4,-0.599322 c 1.95e-4,-0.534282 0.223638,-0.939825 2.058958,-3.736949 l 2.058738,-3.137627 h 0.83189 0.831891 v 3.172882 3.172881 h 0.705084 0.705085 v 0.564068 0.564067 h -0.705085 -0.705084 v 1.128136 1.128135 h -0.634577 -0.634576 z m 0,-4.754286 c 0,-2.118355 -0.02928,-2.466631 -0.192637,-2.291525 -0.194439,0.208422 -2.614797,3.956408 -2.904408,4.497551 -0.153846,0.287463 -0.131057,0.291989 1.470389,0.291989 h 1.626656 z"
                         id="path26276"
                         style="stroke-linecap:square;stroke-linejoin:round;stroke-miterlimit:4;stroke-dasharray:none;stroke-dashoffset:12.548;paint-order:markers stroke fill"
                         stroke-width="1.344"
                         fill="#000000"
                         fill-opacity="1"
                         stroke="none"
                         gorn="0.2.1.0.0.2.0.0.4.0.0" />
                    </g>
                  </g>
                </g>
              </g>
            </g>
          </g>
          <g
             id="g1487"
             transform="translate(-0.10857187,-0.35302957)">
            <g
               transform="matrix(0.37474023,0,0,0.37474023,10.23368,23.715975)"
               id="g1231">
              <g
                 id="g1229">
                <g
                   id="g26879"
                   style="stroke-miterlimit:4;stroke-dasharray:none"
                   stroke-width="1.008"
                   fill="#000000"
                   fill-opacity="1"
                   stroke="none"
                   gorn="0.2.1.0.0.3.0.0">
                  <g
                     transform="scale(0.75)"
                     id="g1211">
                    <g
                       id="g1209">
                      <path
                         d="m 23.902372,65.913704 v -4.962763 l 2.010622,0.06826 c 2.266854,0.07696 3.001629,0.293844 3.664549,1.08168 0.898199,1.067448 0.877086,2.835274 -0.04642,3.887092 -0.572381,0.651907 -1.448422,0.924568 -2.970567,0.924568 H 25.3205 l -0.03923,1.938983 -0.03923,1.938983 -0.669831,0.04298 -0.66983,0.04298 z m 3.864065,-0.325929 c 0.652213,-0.272512 0.930511,-0.72721 0.930511,-1.520316 0,-1.404842 -0.502017,-1.808478 -2.249268,-1.808478 h -1.135139 v 1.762712 1.762711 h 0.991648 c 0.545407,0 1.203418,-0.08848 1.462248,-0.196629 z"
                         id="path26315"
                         style="stroke-linecap:square;stroke-linejoin:round;stroke-miterlimit:4;stroke-dasharray:none;stroke-dashoffset:12.548;paint-order:markers stroke fill"
                         stroke-width="1.344"
                         fill="#000000"
                         fill-opacity="1"
                         stroke="none"
                         gorn="0.2.1.0.0.3.0.0.0.0.0" />
                    </g>
                  </g>
                  <g
                     transform="scale(0.75)"
                     id="g1216">
                    <g
                       id="g1214">
                      <path
                         d="m 32.222372,70.302878 v -0.558136 l 1.092881,-0.04119 1.092881,-0.04119 0.03764,-3.631186 c 0.03516,-3.392772 0.02128,-3.63096 -0.211525,-3.627739 -0.218981,0.003 -0.713757,0.09816 -1.835601,0.352923 -0.292709,0.06647 -0.317288,0.02289 -0.317288,-0.562522 0,-0.543106 0.04574,-0.644775 0.317288,-0.705325 0.174508,-0.03891 0.749565,-0.167036 1.277903,-0.28472 0.528338,-0.117685 1.210508,-0.213973 1.515932,-0.213973 H 35.7478 v 4.371526 4.371525 h 1.057627 1.057627 v 0.564068 0.564067 h -2.820338 -2.820339 z"
                         id="path26354"
                         style="stroke-linecap:square;stroke-linejoin:round;stroke-miterlimit:4;stroke-dasharray:none;stroke-dashoffset:12.548;paint-order:markers stroke fill"
                         stroke-width="1.344"
                         fill="#000000"
                         fill-opacity="1"
                         stroke="none"
                         gorn="0.2.1.0.0.3.0.0.1.0.0" />
                    </g>
                  </g>
                  <g
                     transform="scale(0.75)"
                     id="g1221">
                    <g
                       id="g1219">
                      <path
                         d="m 39.7944,67.668749 c -0.05397,-0.05397 -0.09813,-0.309655 -0.09813,-0.568186 v -0.470057 h 1.841732 1.841733 l -0.04377,0.528814 -0.04377,0.528813 -1.699836,0.03937 c -0.93491,0.02165 -1.743995,-0.0048 -1.797966,-0.05876 z"
                         id="path26393"
                         style="stroke-linecap:square;stroke-linejoin:round;stroke-miterlimit:4;stroke-dasharray:none;stroke-dashoffset:12.548;paint-order:markers stroke fill"
                         stroke-width="1.344"
                         fill="#000000"
                         fill-opacity="1"
                         stroke="none"
                         gorn="0.2.1.0.0.3.0.0.2.0.0" />
                    </g>
                  </g>
                  <g
                     transform="scale(0.75)"
                     id="g1226">
                    <g
                       id="g1224">
                      <path
                         d="m 46.948667,70.735113 c -0.704379,-0.319922 -1.389487,-1.126002 -1.684091,-1.981455 -0.555107,-1.611891 -0.530152,-4.107789 0.05428,-5.428999 0.351472,-0.794562 1.194928,-1.716415 1.912199,-2.089935 0.681582,-0.354935 2.373646,-0.42116 3.217755,-0.125938 0.493262,0.172515 0.528813,0.22324 0.528813,0.754519 0,0.550684 -0.01286,0.566378 -0.387796,0.473276 -0.647399,-0.160758 -2.121227,-0.256541 -2.49684,-0.162268 -0.887926,0.222855 -1.562565,1.226009 -1.817842,2.703041 -0.07107,0.411216 -0.05428,0.429602 0.339617,0.371791 0.360375,-0.05289 0.414387,-0.01667 0.414387,0.277912 0,0.186302 -0.126915,0.587667 -0.282034,0.891924 -0.166528,0.326634 -0.282034,0.831602 -0.282034,1.23299 0,1.365229 0.684414,2.221925 1.775094,2.221925 1.293349,0 1.945614,-0.73034 1.942204,-2.174681 -0.0037,-1.577577 -0.678649,-2.260848 -2.147022,-2.173571 l -0.794683,0.04724 -0.0442,-0.458396 c -0.03709,-0.38469 0.0154,-0.481056 0.326468,-0.599322 1.265002,-0.480953 2.936024,0.147861 3.621379,1.362744 0.722066,1.279957 0.531774,3.174021 -0.420963,4.190044 -0.855347,0.912164 -2.568579,1.214971 -3.774698,0.667164 z"
                         id="path26432"
                         style="stroke-linecap:square;stroke-linejoin:round;stroke-miterlimit:4;stroke-dasharray:none;stroke-dashoffset:12.548;paint-order:markers stroke fill"
                         stroke-width="1.344"
                         fill="#000000"
                         fill-opacity="1"
                         stroke="none"
                         gorn="0.2.1.0.0.3.0.0.3.0.0" />
                    </g>
                  </g>
                </g>
              </g>
            </g>
            <g
               transform="matrix(0.38185373,0,0,0.38185373,10.106158,26.45495)"
               id="g1256">
              <g
                 id="g1254">
                <g
                   id="g26873"
                   style="stroke-miterlimit:4;stroke-dasharray:none"
                   stroke-width="1.008"
                   fill="#000000"
                   fill-opacity="1"
                   stroke="none"
                   gorn="0.2.1.0.0.4.0.0">
                  <g
                     transform="scale(0.75)"
                     id="g1236">
                    <g
                       id="g1234">
                      <path
                         d="m 45.548473,84.771832 c -0.530647,-0.159177 -0.566637,-0.204488 -0.60743,-0.764756 -0.04956,-0.680668 -0.0119,-0.694823 1.017638,-0.382502 0.865699,0.262619 2.066542,0.27013 2.66144,0.01665 0.81818,-0.348622 1.140179,-0.839064 1.195377,-1.820696 0.06018,-1.070238 -0.267762,-1.6982 -1.059647,-2.02907 -0.598062,-0.249887 -2.029353,-0.280914 -2.617236,-0.05674 -0.819201,0.312385 -0.801668,0.361505 -0.801668,-2.245909 v -2.397288 h 2.608814 2.608813 v 0.564067 0.564068 H 48.580337 46.6061 v 1.092882 1.092881 l 1.16339,0.0064 c 1.337187,0.0073 2.03224,0.285866 2.748254,1.101361 0.600988,0.684487 0.79001,1.358536 0.706862,2.520646 -0.09072,1.267997 -0.557881,1.988298 -1.648055,2.541112 -0.682777,0.346228 -0.909423,0.386635 -2.114382,0.376959 -0.742295,-0.006 -1.603459,-0.08698 -1.913696,-0.180039 z"
                         id="path26471"
                         style="stroke-linecap:square;stroke-linejoin:round;stroke-miterlimit:4;stroke-dasharray:none;stroke-dashoffset:12.548;paint-order:markers stroke fill"
                         stroke-width="1.344"
                         fill="#000000"
                         fill-opacity="1"
                         stroke="none"
                         gorn="0.2.1.0.0.4.0.0.0.0.0" />
                    </g>
                  </g>
                  <g
                     transform="scale(0.75)"
                     id="g1241">
                    <g
                       id="g1239">
                      <path
                         d="m 39.69627,81.155251 v -0.564068 h 1.83322 1.83322 v 0.564068 0.564068 h -1.83322 -1.83322 z"
                         id="path26510"
                         style="stroke-linecap:square;stroke-linejoin:round;stroke-miterlimit:4;stroke-dasharray:none;stroke-dashoffset:12.548;paint-order:markers stroke fill"
                         stroke-width="1.344"
                         fill="#000000"
                         fill-opacity="1"
                         stroke="none"
                         gorn="0.2.1.0.0.4.0.0.1.0.0" />
                    </g>
                  </g>
                  <g
                     transform="scale(0.75)"
                     id="g1246">
                    <g
                       id="g1244">
                      <path
                         d="m 32.222372,84.257624 v -0.564068 h 1.128135 1.128136 v -3.66644 c 0,-2.841783 -0.03965,-3.665327 -0.176271,-3.661487 -0.09695,0.0027 -0.588746,0.09568 -1.092882,0.206572 -0.504135,0.110889 -0.964203,0.203847 -1.022373,0.206571 -0.05817,0.0027 -0.105762,-0.275347 -0.105762,-0.617937 v -0.622891 l 0.740339,-0.16862 c 0.407186,-0.09274 1.232135,-0.201338 1.83322,-0.241329 l 1.092881,-0.07271 v 4.319136 4.319135 h 1.057627 1.057627 v 0.564068 0.564068 h -2.820338 -2.820339 z"
                         id="path26549"
                         style="stroke-linecap:square;stroke-linejoin:round;stroke-miterlimit:4;stroke-dasharray:none;stroke-dashoffset:12.548;paint-order:markers stroke fill"
                         stroke-width="1.344"
                         fill="#000000"
                         fill-opacity="1"
                         stroke="none"
                         gorn="0.2.1.0.0.4.0.0.2.0.0" />
                    </g>
                  </g>
                  <g
                     transform="scale(0.75)"
                     id="g1251">
                    <g
                       id="g1249">
                      <path
                         d="m 23.902372,79.956607 v -4.865084 l 1.938983,7.87e-4 c 2.294473,9.3e-4 2.886663,0.13812 3.577268,0.828725 1.387184,1.387183 0.967191,3.890595 -0.78635,4.687118 -0.426027,0.193517 -0.917005,0.259652 -1.944816,0.261967 l -1.374916,0.0031 v 1.974238 1.974237 h -0.705084 -0.705085 z m 4.315118,-0.690983 c 0.430787,-0.430786 0.479458,-0.559396 0.479458,-1.266927 0,-0.670751 -0.06098,-0.855731 -0.411384,-1.248 -0.398994,-0.44666 -0.44996,-0.462015 -1.692204,-0.509815 l -1.280819,-0.04929 v 1.776743 1.776743 h 1.212746 c 1.191179,0 1.221272,-0.0085 1.692203,-0.479458 z"
                         id="path26588"
                         style="stroke-linecap:square;stroke-linejoin:round;stroke-miterlimit:4;stroke-dasharray:none;stroke-dashoffset:12.548;paint-order:markers stroke fill"
                         stroke-width="1.344"
                         fill="#000000"
                         fill-opacity="1"
                         stroke="none"
                         gorn="0.2.1.0.0.4.0.0.3.0.0" />
                    </g>
                  </g>
                </g>
              </g>
            </g>
            <g
               transform="matrix(0.38742608,0,0,0.38742608,10.006264,29.193015)"
               id="g1281">
              <g
                 id="g1279">
                <g
                   id="g26867"
                   style="stroke-miterlimit:4;stroke-dasharray:none"
                   stroke-width="1.008"
                   fill="#000000"
                   fill-opacity="1"
                   stroke="none"
                   gorn="0.2.1.0.0.5.0.0">
                  <g
                     transform="scale(0.75)"
                     id="g1261">
                    <g
                       id="g1259">
                      <path
                         d="m 23.902372,93.904629 v -4.877741 l 2.150508,0.05028 c 1.889364,0.04417 2.221845,0.08813 2.737955,0.362005 1.113113,0.590672 1.655658,1.924895 1.339571,3.294262 -0.355574,1.540427 -1.194271,2.082818 -3.409397,2.204878 l -1.408468,0.07761 v 1.883223 1.883223 h -0.705084 -0.705085 z m 3.994304,-0.352821 c 0.525434,-0.241356 0.800272,-0.804887 0.800272,-1.640889 0,-1.235205 -0.684926,-1.730583 -2.392759,-1.730583 h -0.991648 v 1.85337 1.853371 l 1.092882,-0.07614 c 0.601084,-0.04188 1.272149,-0.158485 1.491253,-0.259129 z"
                         id="path26627"
                         style="stroke-linecap:square;stroke-linejoin:round;stroke-miterlimit:4;stroke-dasharray:none;stroke-dashoffset:12.548;paint-order:markers stroke fill"
                         stroke-width="1.344"
                         fill="#000000"
                         fill-opacity="1"
                         stroke="none"
                         gorn="0.2.1.0.0.5.0.0.0.0.0" />
                    </g>
                  </g>
                  <g
                     transform="scale(0.75)"
                     id="g1266">
                    <g
                       id="g1264">
                      <path
                         d="m 32.222372,98.218301 v -0.564067 h 1.128135 1.128136 v -3.666441 c 0,-2.016542 -0.04759,-3.664211 -0.105763,-3.661487 -0.05817,0.0027 -0.518237,0.09568 -1.022373,0.206572 -1.296573,0.285195 -1.269152,0.293649 -1.269152,-0.391279 v -0.602804 l 1.181974,-0.243298 c 0.650086,-0.133813 1.475035,-0.243297 1.83322,-0.243297 h 0.651246 v 4.301017 4.301017 h 1.057627 1.057627 v 0.564067 0.564068 h -2.820338 -2.820339 z"
                         id="path26666"
                         style="stroke-linecap:square;stroke-linejoin:round;stroke-miterlimit:4;stroke-dasharray:none;stroke-dashoffset:12.548;paint-order:markers stroke fill"
                         stroke-width="1.344"
                         fill="#000000"
                         fill-opacity="1"
                         stroke="none"
                         gorn="0.2.1.0.0.5.0.0.1.0.0" />
                    </g>
                  </g>
                  <g
                     transform="scale(0.75)"
                     id="g1271">
                    <g
                       id="g1269">
                      <path
                         d="m 39.723011,95.151183 0.04377,-0.528814 h 1.762712 1.762712 l 0.04377,0.528814 0.04377,0.528813 H 41.52949 39.679245 Z"
                         id="path26705"
                         style="stroke-linecap:square;stroke-linejoin:round;stroke-miterlimit:4;stroke-dasharray:none;stroke-dashoffset:12.548;paint-order:markers stroke fill"
                         stroke-width="1.344"
                         fill="#000000"
                         fill-opacity="1"
                         stroke="none"
                         gorn="0.2.1.0.0.5.0.0.2.0.0" />
                    </g>
                  </g>
                  <g
                     transform="scale(0.75)"
                     id="g1276">
                    <g
                       id="g1274">
                      <path
                         d="m 49.003388,97.654234 v -1.128136 h -2.256271 -2.256271 v -0.589195 c 0,-0.52101 0.238352,-0.95347 2.059632,-3.736949 L 48.610109,89.0522 h 0.831216 0.831216 v 3.172881 3.172882 h 0.705084 0.705085 v 0.564067 0.564068 h -0.705085 -0.705084 v 1.128136 1.128135 h -0.634577 -0.634576 z m 0,-4.754286 c 0,-2.100338 -0.03018,-2.465142 -0.189582,-2.291525 -0.151873,0.165417 -2.564309,3.914535 -2.968489,4.613268 -0.07909,0.136732 0.263671,0.176272 1.528054,0.176272 h 1.630017 z"
                         id="path26744"
                         style="stroke-linecap:square;stroke-linejoin:round;stroke-miterlimit:4;stroke-dasharray:none;stroke-dashoffset:12.548;paint-order:markers stroke fill"
                         stroke-width="1.344"
                         fill="#000000"
                         fill-opacity="1"
                         stroke="none"
                         gorn="0.2.1.0.0.5.0.0.3.0.0" />
                    </g>
                  </g>
                </g>
              </g>
            </g>
          </g>
          <rect
             style="fill:none;stroke:#000000;stroke-width:0.64270001;stroke-linecap:round;stroke-linejoin:round;stroke-miterlimit:4;stroke-dasharray:1.92810001,1.92810001;stroke-dashoffset:0;stroke-opacity:1"
             id="rect1523"
             width="27.477022"
             height="21.671324"
             x="-0.81344795"
             y="9.4183369" />
          <rect
             style="fill:none;stroke:#000000;stroke-width:0.6427;stroke-linecap:round;stroke-linejoin:round;stroke-miterlimit:4;stroke-dasharray:1.9281, 1.9281;stroke-dashoffset:0;stroke-opacity:1"
             id="rect1523-3"
             width="27.477022"
             height="21.671324"
             x="-0.81344426"
             y="38.313438" />
        </g>
      </g>
    </g>
  </g>
  <g
     transform="translate(3.4352313,0.82772026)"
     id="g1304">
    <g
       id="g1302">
      <g
         id="g21689"
         partID="882437510"
         gorn="0.3.0.0">
        <g
           id="copper1"
           gorn="0.3.0.0.0">
          <g
             id="copper0"
             gorn="0.3.0.0.0.0">
            <circle
               cx="5.04"
               id="connector0pin"
               fill="none"
               stroke-width="1.44"
               r="2.0880001"
               cy="5.04"
               stroke="#ffbf00"
               gorn="0.3.0.0.0.0.0" />
            <circle
               cx="5.04"
               id="connector1pin"
               fill="none"
               stroke-width="1.44"
               r="2.0880001"
               cy="12.24"
               stroke="#ffbf00"
               gorn="0.3.0.0.0.0.1" />
            <circle
               cx="5.04"
               id="connector2pin"
               fill="none"
               stroke-width="1.44"
               r="2.0880001"
               cy="19.440001"
               stroke="#ffbf00"
               gorn="0.3.0.0.0.0.2" />
            <circle
               cx="5.04"
               id="connector3pin"
               fill="none"
               stroke-width="1.44"
               r="2.0880001"
               cy="26.639999"
               stroke="#ffbf00"
               gorn="0.3.0.0.0.0.3" />
            <circle
               cx="5.04"
               id="connector4pin"
               fill="none"
               stroke-width="1.44"
               r="2.0880001"
               cy="33.84"
               stroke="#ffbf00"
               gorn="0.3.0.0.0.0.4" />
            <circle
               cx="5.04"
               id="connector5pin"
               fill="none"
               stroke-width="1.44"
               r="2.0880001"
               cy="41.040001"
               stroke="#ffbf00"
               gorn="0.3.0.0.0.0.5" />
            <circle
               cx="5.04"
               id="connector6pin"
               fill="none"
               stroke-width="1.44"
               r="2.0880001"
               cy="48.240002"
               stroke="#ffbf00"
               gorn="0.3.0.0.0.0.6" />
            <circle
               cx="5.04"
               id="connector7pin"
               fill="none"
               stroke-width="1.44"
               r="2.0880001"
               cy="55.439999"
               stroke="#ffbf00"
               gorn="0.3.0.0.0.0.7" />
            <circle
               cx="5.04"
               id="connector8pin"
               fill="none"
               stroke-width="1.44"
               r="2.0880001"
               cy="62.639999"
               stroke="#ffbf00"
               gorn="0.3.0.0.0.0.8" />
            <circle
               cx="5.04"
               id="connector9pin"
               fill="none"
               stroke-width="1.44"
               r="2.0880001"
               cy="69.839996"
               stroke="#ffbf00"
               gorn="0.3.0.0.0.0.9" />
          </g>
        </g>
      </g>
    </g>
  </g>
</svg>
