<?xml version='1.0' encoding='UTF-8' standalone='no'?>
<!-- Created with Inkscape (http://www.inkscape.org/) -->
<svg xmlns="http://www.w3.org/2000/svg" height="32mm" version="1.1" gorn="0" xmlns:xml="http://www.w3.org/XML/1998/namespace"  viewBox="0 0 24 32" id="svg1" xml:space="preserve" width="24mm">
    <desc >
        <referenceFile >SDCard-PCB.svg</referenceFile>
    </desc>
    <defs  id="defs1"/>
    <g gorn="0.2"  id="silkscreen">
        <path stroke="black" gorn="0.2.0" fill="none"  stroke-width="0.262055" id="path1" d="M 4.0876058 0.13125814 L 3.3248617 0.89606934 L 3.3248617 6.8688314 L 1.9249471 6.8688314 L 1.9249471 2.2996012 L 0.13125814 4.0984578 L 0.13125814 31.868856 L 23.868827 31.868856 L 23.868827 0.13125814 L 22.200195 0.13125814 L 22.200195 6.8688314 L 21.299992 6.8688314 L 21.299992 0.13125814 L 20.599776 0.13125814 L 20.599776 6.8688314 L 19.500102 6.8688314 L 19.500102 0.13125814 L 18.325496 0.13125814 L 18.325496 6.8688314 L 16.925065 6.8688314 L 16.925065 0.13125814 L 15.825391 0.13125814 L 15.825391 6.8688314 L 14.425476 6.8688314 L 14.425476 0.13125814 L 13.325285 0.13125814 L 13.325285 6.8688314 L 11.92537 6.8688314 L 11.92537 0.13125814 L 10.825179 0.13125814 L 10.825179 6.8688314 L 9.4252645 6.8688314 L 9.4252645 0.13125814 L 8.3250732 0.13125814 L 8.3250732 6.8688314 L 6.9251587 6.8688314 L 6.9251587 0.13125814 L 5.8254842 0.13125814 L 5.8254842 6.8688314 L 4.4255697 6.8688314 L 4.4255697 0.13125814 L 4.0876058 0.13125814 z "/>
        <path stroke="none" gorn="0.2.1" fill="#000000"  id="path11" d="m 2.4353,8.6744975 h 0.399 q 0.3052,0 0.3052,0.2772 V 9.2428977 H 2.1245 V 8.9516975 q 0,-0.2772 0.3108,-0.2772 z m 0.3892,0.1792 H 2.4521 q -0.1568,0 -0.1568,0.1092 v 0.1008 h 0.6734 v -0.1008 q 0,-0.1092 -0.1442,-0.1092 z m -0.7,-0.902998 h 0.1708 v 0.2226 h 0.8442 v 0.1792 H 2.2953 v 0.2226 H 2.1245 Z m -0.014,-0.375197 q 0,-0.1344 0.0784,-0.2086 0.0784,-0.0756 0.2058,-0.0756 0.112,0 0.2184,0.0588 l 0.3556,0.1988 v -0.2534 h 0.1708 v 0.5334 l -0.595,-0.3248 q -0.077,-0.042 -0.154,-0.042 -0.1274,0 -0.1274,0.1162 0,0.0546 0.0322,0.0812 0.0308,0.0266 0.1078,0.028 v 0.1638 q -0.1498,-0.0056 -0.2212,-0.0798 -0.0714,-0.0742 -0.0714,-0.196 z"/>
        <path stroke="none" gorn="0.2.2" fill="#000000"  id="path12" d="m 4.9286168,8.0011005 h 0.399 q 0.3052,0 0.3052,0.2772 v 0.2912 h -1.015 v -0.2912 q 0,-0.2772 0.3108,-0.2772 z m 0.3892,0.1792 h -0.3724 q -0.1568,0 -0.1568,0.1092 v 0.1008 h 0.6734 v -0.1008 q 0,-0.1092 -0.1442,-0.1092 z m 0.0112,-0.888998 q 0.147,0 0.2324,0.0812 0.0854,0.0812 0.0854,0.2254 0,0.1232 -0.0672,0.1988 -0.0672,0.0756 -0.2016,0.0854 v -0.1708 q 0.0504,0 0.0826,-0.0294 0.0322,-0.0294 0.0322,-0.0854 0,-0.0616 -0.042,-0.0938 -0.042,-0.0336 -0.1204,-0.0336 -0.1568,0 -0.1568,0.1288 v 0.0266 h -0.1302 v -0.0224 q 0,-0.0658 -0.0336,-0.0966 -0.035,-0.0308 -0.1078,-0.0308 -0.1442,0 -0.1442,0.1232 0,0.112 0.1148,0.112 v 0.1722 q -0.1288,-0.0084 -0.1988,-0.084 -0.07,-0.077 -0.07,-0.2002 0,-0.1386 0.084,-0.2142 0.0826,-0.077 0.203,-0.077 0.1414,0 0.2114,0.1078 0.0574,-0.1232 0.2268,-0.1232 z"/>
        <path stroke="none" gorn="0.2.3" fill="#000000"  id="asdas" d="m 10.298217,8.9796975 -0.6804002,-0.1414 v -0.1792 l 1.0150002,0.2338 v 0.1806 l -1.0150002,0.2352 v -0.1904 z M 9.6038168,8.2810995 q 0,-0.133 0.0714,-0.2002 0.07,-0.0672 0.196,-0.0686 v 0.1638 q -0.0546,0 -0.084,0.0294 -0.0294,0.028 -0.0294,0.0812 0,0.1064 0.112,0.1064 0.0392,0 0.063,-0.0154 0.0224,-0.0154 0.0462,-0.0504 0.0112,-0.0168 0.0602,-0.1022 0.049,-0.0854 0.0854,-0.1274 0.091,-0.1064 0.2282,-0.1064 0.1344,0 0.2142,0.0784 0.0798,0.077 0.0798,0.2212 0,0.2646 -0.2786,0.2842 v -0.1666 q 0.0574,-0.007 0.091,-0.042 0.0336,-0.035 0.0336,-0.0882 0,-0.0532 -0.0336,-0.0784 -0.035,-0.0266 -0.0854,-0.0266 -0.0406,0 -0.0728,0.021 -0.0322,0.021 -0.0672,0.0756 -0.0014,0.0028 -0.049,0.0882 -0.049,0.084 -0.0812,0.1204 -0.084,0.0938 -0.2240012,0.0938 -0.1316,0 -0.203,-0.077 -0.0728,-0.0784 -0.072799,-0.2142 z m 0,-0.699997 q 0,-0.133 0.0714,-0.2002 0.07,-0.0672 0.196,-0.0686 v 0.1638 q -0.0546,0 -0.084,0.0294 -0.0294,0.028 -0.0294,0.0812 0,0.1064 0.112,0.1064 0.0392,0 0.063,-0.0154 0.0224,-0.0154 0.0462,-0.0504 0.0112,-0.0168 0.0602,-0.1022 0.049,-0.0854 0.0854,-0.1274 0.091,-0.1064 0.2282,-0.1064 0.1344,0 0.2142,0.0784 0.0798,0.077 0.0798,0.2212 0,0.2646 -0.2786,0.2842 v -0.1666 q 0.0574,-0.007 0.091,-0.042 0.0336,-0.035 0.0336,-0.0882 0,-0.0532 -0.0336,-0.0784 -0.035,-0.0266 -0.0854,-0.0266 -0.0406,0 -0.0728,0.021 -0.0322,0.021 -0.0672,0.0756 -0.0014,0.0028 -0.049,0.0882 -0.049,0.084 -0.0812,0.1204 -0.084,0.0938 -0.2240012,0.0938 -0.1316,0 -0.203,-0.077 -0.0728,-0.0784 -0.072799,-0.2142 z"/>
        <path stroke="none" gorn="0.2.4" fill="#000000"  id="path15" d="m 12.798217,8.9754975 -0.6804,-0.1414 v -0.1792 l 1.015,0.2338 v 0.1806 l -1.015,0.2352 v -0.1904 z m -0.3696,-0.984198 h 0.399 q 0.3052,0 0.3052,0.2772 v 0.2912 h -1.015 v -0.2912 q 0,-0.2772 0.3108,-0.2772 z m 0.3892,0.1792 h -0.3724 q -0.1568,0 -0.1568,0.1092 v 0.1008 h 0.6734 v -0.1008 q 0,-0.1092 -0.1442,-0.1092 z m -0.3892,-0.879197 h 0.399 q 0.3052,0 0.3052,0.2772 v 0.2912 h -1.015 v -0.2912 q 0,-0.2772 0.3108,-0.2772 z m 0.3892,0.1792 h -0.3724 q -0.1568,0 -0.1568,0.1092 v 0.1008 h 0.6734 v -0.1008 q 0,-0.1092 -0.1442,-0.1092 z"/>
        <path stroke="none" gorn="0.2.5" fill="#000000"  style="font-size:1.4px;line-height:1.4px;font-family:Droid Sans;-inkscape-font-specification:Droid Sans;letter-spacing:0px;word-spacing:0px;stroke-width:0.264583" id="clk" d="m 14.603817,9.0062975 q 0,-0.2604 0.268801,-0.2828 v 0.1708 q -0.0504,0 -0.0826,0.0294 -0.0322,0.028 -0.0322,0.0826 0,0.1176 0.170799,0.1176 h 0.3934 q 0.1708,0 0.1708,-0.1176 0,-0.0546 -0.0322,-0.0826 -0.0322,-0.0294 -0.0826,-0.0294 v -0.1708 q 0.2688,0.0224 0.2688,0.2828 0,0.1498 -0.0868,0.224 -0.0868,0.0728 -0.238,0.0728 h -0.3934 q -0.151199,0 -0.237999,-0.0728 -0.0868,-0.0742 -0.0868,-0.224 z m 0.8582,-0.978598 h 0.1708 v 0.5614 h -1.014999 v -0.1792 h 0.844199 z m -0.371,-0.471797 0.5418,-0.2646 v 0.1974 l -0.476001,0.2212 h 0.476 v 0.1792 h -1.014999 v -0.1792 h 0.450799 l -0.450799,-0.217 v -0.182 z"/>
        <path stroke="none" gorn="0.2.6" fill="#000000"  id="path17" d="m 17.798217,8.9796975 -0.6804,-0.1414 v -0.1792 l 1.015,0.2338 v 0.1806 l -1.015,0.2352 v -0.1904 z m -0.6944,-0.698598 q 0,-0.133 0.0714,-0.2002 0.07,-0.0672 0.196,-0.0686 v 0.1638 q -0.0546,0 -0.084,0.0294 -0.0294,0.028 -0.0294,0.0812 0,0.1064 0.112,0.1064 0.0392,0 0.063,-0.0154 0.0224,-0.0154 0.0462,-0.0504 0.0112,-0.0168 0.0602,-0.1022 0.049,-0.0854 0.0854,-0.1274 0.091,-0.1064 0.2282,-0.1064 0.1344,0 0.2142,0.0784 0.0798,0.077 0.0798,0.2212 0,0.2646 -0.2786,0.2842 v -0.1666 q 0.0574,-0.007 0.091,-0.042 0.0336,-0.035 0.0336,-0.0882 0,-0.0532 -0.0336,-0.0784 -0.035,-0.0266 -0.0854,-0.0266 -0.0406,0 -0.0728,0.021 -0.0322,0.021 -0.0672,0.0756 -0.0014,0.0028 -0.049,0.0882 -0.049,0.084 -0.0812,0.1204 -0.084,0.0938 -0.224,0.0938 -0.1316,0 -0.203,-0.077 -0.0728,-0.0784 -0.0728,-0.2142 z m 0,-0.699997 q 0,-0.133 0.0714,-0.2002 0.07,-0.0672 0.196,-0.0686 v 0.1638 q -0.0546,0 -0.084,0.0294 -0.0294,0.028 -0.0294,0.0812 0,0.1064 0.112,0.1064 0.0392,0 0.063,-0.0154 0.0224,-0.0154 0.0462,-0.0504 0.0112,-0.0168 0.0602,-0.1022 0.049,-0.0854 0.0854,-0.1274 0.091,-0.1064 0.2282,-0.1064 0.1344,0 0.2142,0.0784 0.0798,0.077 0.0798,0.2212 0,0.2646 -0.2786,0.2842 v -0.1666 q 0.0574,-0.007 0.091,-0.042 0.0336,-0.035 0.0336,-0.0882 0,-0.0532 -0.0336,-0.0784 -0.035,-0.0266 -0.0854,-0.0266 -0.0406,0 -0.0728,0.021 -0.0322,0.021 -0.0672,0.0756 -0.0014,0.0028 -0.049,0.0882 -0.049,0.084 -0.0812,0.1204 -0.084,0.0938 -0.224,0.0938 -0.1316,0 -0.203,-0.077 -0.0728,-0.0784 -0.0728,-0.2142 z"/>
        <path stroke="none" gorn="0.2.7" fill="#000000"  id="path18" d="m 19.8533,7.9689005 h 0.399 q 0.3052,0 0.3052,0.2772 v 0.2912 h -1.015 v -0.2912 q 0,-0.2772 0.3108,-0.2772 z m 0.3892,0.1792 h -0.3724 q -0.1568,0 -0.1568,0.1092 v 0.1008 h 0.6734 v -0.1008 q 0,-0.1092 -0.1442,-0.1092 z m -0.5502,-0.667798 q -0.0224,0.0196 -0.0224,0.077 0,0.0574 0.0224,0.077 0.0224,0.0196 0.0882,0.0196 h 0.539 q 0.0658,0 0.0882,-0.0196 0.0224,-0.0196 0.0224,-0.077 0,-0.0574 -0.0224,-0.077 -0.0224,-0.0196 -0.0882,-0.0196 h -0.539 q -0.0658,0 -0.0882,0.0196 z m -0.1064,0.2842 q -0.0574,-0.0588 -0.0574,-0.2072 0,-0.1484 0.0574,-0.2072 0.0574,-0.0588 0.1946,-0.0588 h 0.539 q 0.1372,0 0.1946,0.0588 0.0574,0.0588 0.0574,0.2072 0,0.1484 -0.0574,0.2072 -0.0574,0.0588 -0.1946,0.0588 h -0.539 q -0.1372,0 -0.1946,-0.0588 z"/>
        <path stroke="none" gorn="0.2.8" fill="#000000"  id="path19" d="m 21.5603,7.8177005 h 0.399 q 0.3052,0 0.3052,0.2772 v 0.2912 h -1.015 v -0.2912 q 0,-0.2772 0.3108,-0.2772 z m 0.3892,0.1792 h -0.3724 q -0.1568,0 -0.1568,0.1092 v 0.1008 h 0.6734 v -0.1008 q 0,-0.1092 -0.1442,-0.1092 z m -0.714,-0.705598 h 1.029 v 0.1638 h -0.7588 l 0.0952,0.1624 h -0.1834 z"/>
        <path stroke="none" gorn="0.2.9" fill="#000000"  id="text19" d="m 7.1038043,8.9768985 q -7e-6,-0.2604 0.2688,-0.282801 l -4e-6,0.170801 q -0.05041,6e-6 -0.08262,0.02939 -0.03224,0.02797 -0.03217,0.0826 -1e-6,0.117606 0.170797,0.117608 l 0.393399,10e-7 q 0.170801,3e-6 0.170806,-0.117595 -2e-6,-0.0546 -0.03218,-0.08261 -0.03214,-0.02946 -0.08261,-0.02938 l 4e-6,-0.170801 q 0.268798,0.0224 0.268803,0.282799 10e-7,0.149799 -0.0868,0.224003 -0.08679,0.0728 -0.238005,0.07278 l -0.393405,-3.2e-5 q -0.151199,3e-6 -0.238003,-0.07278 -0.08679,-0.0742 -0.0868,-0.224002 z m 0.014,-0.996798 1.015,-1e-6 v 0.148402 l -0.623002,-1e-6 0.445202,0.149801 -0.445199,0.1498 0.622999,2e-6 4e-6,0.1512 -1.015,-10e-7 3e-6,-0.1834 0.390597,-0.117601 -0.3906,-0.127399 z m 0.310798,-0.688796 0.399,-2e-6 q 0.305199,-10e-7 0.305201,0.277199 l -1e-6,0.291202 h -1.014998 l 2e-6,-0.2912 q 6e-6,-0.2772 0.310801,-0.277199 z m 0.389201,0.179197 -0.372402,5e-6 q -0.156799,3e-6 -0.156797,0.109203 l -2e-6,0.100795 h 0.673402 l 2e-6,-0.100795 q -3e-6,-0.1092 -0.1442,-0.109201 z"/>
    </g>
    <g gorn="0.3"  id="copper1" style="display:inline">
        <path stroke="none" gorn="0.3.0" fill="#ffc000"  id="connector0pin" d="m 1.925,2.1683475 1.4,-1.40386387 V 6.8689728 h -1.4 z"/>
        <path stroke="none" gorn="0.3.1" fill="#ffc000"  id="connector1pin" d="m 4.4253168,0 h 1.4 v 6.8689728 h -1.4 z"/>
        <path stroke="none" gorn="0.3.2" fill="#ffc000"  id="connector2pin" d="m 6.9253168,0 h 1.4 v 6.8690008 h -1.4 z"/>
        <path stroke="none" gorn="0.3.3" fill="#ffc000"  id="connector3pin" d="M 9.4253168,0 H 10.825317 V 6.8690008 H 9.4253168 Z"/>
        <path stroke="none" gorn="0.3.4" fill="#ffc000"  id="connector4pin" d="m 11.925317,0 h 1.4 v 6.8690008 h -1.4 z"/>
        <path stroke="none" gorn="0.3.5" fill="#ffc000"  id="connector5pin" d="m 14.425317,0 h 1.4 v 6.8690008 h -1.4 z"/>
        <path stroke="none" gorn="0.3.6" fill="#ffc000"  id="connector6pin" d="m 16.925317,0 h 1.4 v 6.8690008 h -1.4 z"/>
        <path stroke="none" gorn="0.3.7" fill="#ffc000"  id="connector7pin" d="m 19.5,0 h 1.1 v 6.8690008 h -1.1 z"/>
        <path stroke="none" gorn="0.3.8" fill="#ffc000"  id="connector8pin" d="m 21.3,0 h 0.9 v 6.8690008 h -0.9 z"/>
    </g>
</svg>
