<?xml version='1.0' encoding='UTF-8'?>
<!DOCTYPE svg>
<!-- Creator: CorelDRAW 2018 -->
<svg xmlns="http://www.w3.org/2000/svg" text-rendering="geometricPrecision" xmlns:xml="http://www.w3.org/XML/1998/namespace" clip-rule="evenodd" viewBox="0 0 4465.4 2640" image-rendering="optimizeQuality" width="44.654mm" xml:space="preserve" version="1.0" shape-rendering="geometricPrecision" height="26.4mm"  fill-rule="evenodd">
    <desc>
        <referenceFile>LicheePADS_40f19c2e07d9c6856071472181124720_6_pcb.svg</referenceFile>
    </desc>
    <g id="copper1" gorn="0.0" >
        <rect y="-0" fill="#FFC800" id="connector0pad" gorn="0.0.0" width="99.44" x="580.28" height="100" />
        <rect y="-0" fill="#FFC800" id="connector1pad" gorn="0.0.1" width="99.44" x="707.26" height="100" />
        <rect y="-0" fill="#FFC800" id="connector2pad" gorn="0.0.2" width="99.44" x="834.26" height="100" />
        <rect y="-0" fill="#FFC800" id="connector3pad" gorn="0.0.3" width="99.44" x="961.24" height="100" />
        <rect y="-0" fill="#FFC800" id="connector4pad" gorn="0.0.4" width="99.44" x="1088.24" height="100" />
        <rect y="-0" fill="#FFC800" id="connector5pad" gorn="0.0.5" width="99.44" x="1215.22" height="100" />
        <rect y="-0" fill="#FFC800" id="connector6pad" gorn="0.0.6" width="99.44" x="1342.22" height="100" />
        <rect y="-0" fill="#FFC800" id="connector7pad" gorn="0.0.7" width="99.44" x="1469.2" height="100" />
        <rect y="-0" fill="#FFC800" id="connector8pad" gorn="0.0.8" width="99.44" x="1596.2" height="100" />
        <rect y="-0" fill="#FFC800" id="connector9pad" gorn="0.0.9" width="99.44" x="1723.18" height="100" />
        <rect y="-0" fill="#FFC800" id="connector10pad" gorn="0.0.10" width="99.44" x="1850.18" height="100" />
        <rect y="-0" fill="#FFC800" id="connector11pad" gorn="0.0.11" width="99.44" x="1977.16" height="100" />
        <rect y="-0" fill="#FFC800" id="connector12pad" gorn="0.0.12" width="99.44" x="2104.16" height="100" />
        <rect y="-0" fill="#FFC800" id="connector13pad" gorn="0.0.13" width="99.44" x="2231.14" height="100" />
        <rect y="-0" fill="#FFC800" id="connector14pad" gorn="0.0.14" width="99.44" x="2358.14" height="100" />
        <rect y="-0" fill="#FFC800" id="connector15pad" gorn="0.0.15" width="99.44" x="2485.12" height="100" />
        <rect y="-0" fill="#FFC800" id="connector16pad" gorn="0.0.16" width="99.44" x="2612.12" height="100" />
        <rect y="-0" fill="#FFC800" id="connector17pad" gorn="0.0.17" width="99.44" x="2739.1" height="100" />
        <rect y="-0" fill="#FFC800" id="connector18pad" gorn="0.0.18" width="99.44" x="2866.1" height="100" />
        <rect y="-0" fill="#FFC800" id="connector19pad" gorn="0.0.19" width="99.44" x="2993.08" height="100" />
        <rect y="-0" fill="#FFC800" id="connector20pad" gorn="0.0.20" width="99.44" x="3120.08" height="100" />
        <rect y="-0" fill="#FFC800" id="connector21pad" gorn="0.0.21" width="99.44" x="3247.06" height="100" />
        <rect y="-0" fill="#FFC800" id="connector22pad" gorn="0.0.22" width="99.44" x="3374.06" height="100" />
        <rect y="-0" fill="#FFC800" id="connector23pad" gorn="0.0.23" width="99.44" x="3501.04" height="100" />
        <rect y="-0" fill="#FFC800" id="connector24pad" gorn="0.0.24" width="99.44" x="3628.04" height="100" />
        <rect y="-0" fill="#FFC800" id="connector25pad" gorn="0.0.25" width="99.44" x="3755.02" height="100" />
        <rect y="-0" fill="#FFC800" id="connector26pad" gorn="0.0.26" width="99.44" x="3882.02" height="100" />
        <rect y="-0" fill="#FFC800" id="connector27pad" gorn="0.0.27" width="99.44" x="4009" height="100" />
        <rect y="-0" fill="#FFC800" id="connector28pad" gorn="0.0.28" width="99.44" x="4136" height="100" />
        <rect y="-0" fill="#FFC800" id="connector29pad" gorn="0.0.29" width="99.44" x="4262.98" height="100" />
        <rect y="2540" fill="#FFC800" id="connector30pad" gorn="0.0.30" width="99.44" x="580.28" height="100" />
        <rect y="2540" fill="#FFC800" id="connector31pad" gorn="0.0.31" width="99.44" x="707.26" height="100" />
        <rect y="2540" fill="#FFC800" id="connector32pad" gorn="0.0.32" width="99.44" x="834.26" height="100" />
        <rect y="2540" fill="#FFC800" id="connector33pad" gorn="0.0.33" width="99.44" x="961.24" height="100" />
        <rect y="2540" fill="#FFC800" id="connector34pad" gorn="0.0.34" width="99.44" x="1088.24" height="100" />
        <rect y="2540" fill="#FFC800" id="connector35pad" gorn="0.0.35" width="99.44" x="1215.22" height="100" />
        <rect y="2540" fill="#FFC800" id="connector36pad" gorn="0.0.36" width="99.44" x="1342.22" height="100" />
        <rect y="2540" fill="#FFC800" id="connector37pad" gorn="0.0.37" width="99.44" x="1469.2" height="100" />
        <rect y="2540" fill="#FFC800" id="connector38pad" gorn="0.0.38" width="99.44" x="1596.2" height="100" />
        <rect y="2540" fill="#FFC800" id="connector39pad" gorn="0.0.39" width="99.44" x="1723.18" height="100" />
        <rect y="2540" fill="#FFC800" id="connector40pad" gorn="0.0.40" width="99.44" x="1850.18" height="100" />
        <rect y="2540" fill="#FFC800" id="connector41pad" gorn="0.0.41" width="99.44" x="1977.16" height="100" />
        <rect y="2540" fill="#FFC800" id="connector42pad" gorn="0.0.42" width="99.44" x="2104.16" height="100" />
        <rect y="2540" fill="#FFC800" id="connector43pad" gorn="0.0.43" width="99.44" x="2231.14" height="100" />
        <rect y="2540" fill="#FFC800" id="connector44pad" gorn="0.0.44" width="99.44" x="2358.14" height="100" />
        <rect y="2540" fill="#FFC800" id="connector45pad" gorn="0.0.45" width="99.44" x="2485.12" height="100" />
        <rect y="2540" fill="#FFC800" id="connector46pad" gorn="0.0.46" width="99.44" x="2612.12" height="100" />
        <rect y="2540" fill="#FFC800" id="connector47pad" gorn="0.0.47" width="99.44" x="2739.1" height="100" />
        <rect y="2540" fill="#FFC800" id="connector48pad" gorn="0.0.48" width="99.44" x="2866.1" height="100" />
        <rect y="2540" fill="#FFC800" id="connector49pad" gorn="0.0.49" width="99.44" x="2993.08" height="100" />
        <rect y="2540" fill="#FFC800" id="connector50pad" gorn="0.0.50" width="99.44" x="3120.08" height="100" />
        <rect y="2540" fill="#FFC800" id="connector51pad" gorn="0.0.51" width="99.44" x="3247.06" height="100" />
        <rect y="2540" fill="#FFC800" id="connector52pad" gorn="0.0.52" width="99.44" x="3374.06" height="100" />
        <rect y="2540" fill="#FFC800" id="connector53pad" gorn="0.0.53" width="99.44" x="3501.04" height="100" />
        <rect y="2540" fill="#FFC800" id="connector54pad" gorn="0.0.54" width="99.44" x="3628.04" height="100" />
        <rect y="2540" fill="#FFC800" id="connector55pad" gorn="0.0.55" width="99.44" x="3755.02" height="100" />
        <rect y="2540" fill="#FFC800" id="connector56pad" gorn="0.0.56" width="99.44" x="3882.02" height="100" />
        <rect y="2540" fill="#FFC800" id="connector57pad" gorn="0.0.57" width="99.44" x="4009" height="100" />
        <rect y="2540" fill="#FFC800" id="connector58pad" gorn="0.0.58" width="99.44" x="4136" height="100" />
        <rect y="2540" fill="#FFC800" id="connector59pad" gorn="0.0.59" width="99.44" x="4262.98" height="100" />
    </g>
    <g id="silkscreen" gorn="0.1" >
        <path fill="black"  d="M-0 37.3l580.28 0 0 62.7 3782.14 0 0 -62.7 8.28 0 94.7 94.7 0 2369.2 -94.7 88.8 -8.28 0 0 -50 -3782.14 0 0 50 -580.28 0 0 -30.4c22.09,0 40,-17.9 40,-40 0,-22.09 -17.91,-40 -39.99,-40l-0.01 0 0 -47c22.09,-0.01 40,-17.91 40,-40 0,-22.1 -17.91,-40 -40,-40l0 -47c22.09,0 40,-17.9 40,-40 0,-22.08 -17.91,-40.01 -40,-40l0 -46.99c22.09,-0.01 40,-17.92 40,-40.01 0,-22.09 -17.91,-40 -40,-40l0 -47c22.09,0 40,-17.91 40.01,-40 -0.01,-22.09 -17.92,-40 -40.01,-40l0 -47c22.09,0 40,-17.91 40,-40 0,-22.08 -17.91,-40 -40,-40l0 -47c22.09,0.01 40,-17.91 39.99,-40 0.01,-22.09 -17.9,-40.01 -39.99,-40.01l0 -46.99c22.09,0 40,-17.91 40,-40 0,-22.09 -17.91,-40 -40,-40l0 -47c22.09,0 40,-17.92 40,-40 0,-22.09 -17.91,-40 -40,-40l0 -47c22.1,-0.01 40,-17.92 40,-40 0,-22.09 -17.91,-40 -40,-40l0 -47.01c22.09,0.02 40,-17.9 40,-39.99 0,-22.1 -17.91,-40 -40,-40l0 -47c22.09,0 40,-17.91 40,-40 -0.01,-22.09 -17.91,-39.99 -40,-40.01l0 -46.99c22.09,0 40,-17.91 40,-40.01 0,-22.08 -17.92,-39.99 -40,-39.99l0 -47c22.09,0 40.01,-17.91 40,-40 0,-22.09 -17.92,-40 -40,-40l0 -47c22.09,-0.01 40,-17.9 40,-40 0,-22.09 -17.9,-39.99 -40,-40l0 -47.01c22.08,0.01 40,-17.9 39.99,-39.99 0.02,-22.09 -17.9,-40 -39.98,-40l-0.01 0 0 -47c22.09,0 40,-17.91 40,-40 0,-22.09 -17.91,-40 -40,-40l0 -47c22.09,0 40,-17.91 40,-40 0,-22.1 -17.9,-39.99 -40,-40l0 -47c22.09,0 40.01,-17.91 40,-40 0,-22.09 -17.91,-40.01 -40,-40l0 -46.99c22.09,-0.01 40,-17.92 40,-40.01 0,-22.09 -17.91,-40 -40,-39.99l0 -29.31zm560.28 20l-526.09 0c2.95,2.05 5.7,4.35 8.23,6.88l-0.04 0.04c10.88,10.88 17.62,25.87 17.62,42.36l0 0.02c0,16.56 -6.73,31.57 -17.58,42.42l-0.04 -0.04c-6.24,6.24 -13.87,11.11 -22.38,14.12l0 13.96c8.54,3 16.18,7.87 22.42,14.11 10.85,10.85 17.58,25.85 17.58,42.41l0 0.02 0 0.02 -0.08 0c0.01,16.58 -6.68,31.59 -17.49,42.4 -6.26,6.26 -13.9,11.15 -22.43,14.17l0 13.89c8.55,3 16.19,7.86 22.43,14.1l-0.04 0.04c10.88,10.88 17.61,25.88 17.61,42.38 0,16.56 -6.73,31.57 -17.58,42.42 -6.26,6.26 -13.9,11.14 -22.42,14.16l0 13.84c8.52,3.02 16.16,7.9 22.42,14.16l-0.04 0.04c10.88,10.88 17.62,25.88 17.62,42.38 0,16.56 -6.73,31.57 -17.58,42.42 -6.26,6.26 -13.9,11.14 -22.42,14.16l0 13.89c8.55,3 16.19,7.87 22.43,14.11 10.84,10.84 17.56,25.83 17.56,42.38l0 0.04 0 0.04c0,16.48 -6.74,31.46 -17.61,42.34l0.04 0.04c-6.26,6.26 -13.9,11.14 -22.42,14.16l0 13.84c8.53,3.01 16.17,7.9 22.43,14.16l0 0.08c10.84,10.86 17.57,25.83 17.57,42.34 0,16.51 -6.73,31.48 -17.57,42.34l0 0.08c-6.24,6.24 -13.88,11.1 -22.43,14.1l0 13.9c8.52,3.02 16.16,7.9 22.42,14.16 10.85,10.85 17.58,25.86 17.58,42.42l0 0.02 -0.08 0c0.01,16.58 -6.68,31.59 -17.49,42.4 -6.26,6.26 -13.9,11.15 -22.43,14.17l0 13.83c8.52,3.02 16.16,7.9 22.42,14.16l-0.04 0.04c10.88,10.88 17.62,25.88 17.62,42.37 0,16.57 -6.73,31.58 -17.58,42.43l-0.04 -0.04c-6.26,6.26 -13.89,11.15 -22.38,14.17l0 13.92c8.54,3 16.18,7.87 22.42,14.11 10.85,10.85 17.58,25.86 17.58,42.42 0,16.56 -6.73,31.57 -17.58,42.42 -6.26,6.26 -13.9,11.14 -22.42,14.16l0 13.86c8.49,3.01 16.1,7.89 22.35,14.13l0.08 0.08c10.84,10.86 17.57,25.84 17.57,42.35l0 0.04 -0.08 0c-0.01,16.59 -6.71,31.6 -17.5,42.39 -6.26,6.26 -13.9,11.14 -22.42,14.15l0 13.84c8.52,3.02 16.16,7.9 22.42,14.16 10.85,10.85 17.58,25.86 17.58,42.42 0,16.5 -6.73,31.48 -17.57,42.34l0 0.08c-6.26,6.26 -13.9,11.15 -22.43,14.16l0 13.84c8.52,3.02 16.16,7.9 22.42,14.16 10.85,10.85 17.58,25.86 17.58,42.42 0,16.56 -6.73,31.57 -17.58,42.42 -6.26,6.26 -13.9,11.14 -22.42,14.16l0 13.84c8.52,3.02 16.16,7.9 22.42,14.16 10.85,10.85 17.58,25.86 17.58,42.42 0,16.5 -6.74,31.5 -17.62,42.38l0.04 0.04c-6.26,6.26 -13.9,11.14 -22.42,14.16l0 13.89c8.54,3 16.18,7.86 22.42,14.1l0 0.08c10.84,10.86 17.57,25.83 17.57,42.33l0 0.02 0 0.04c0,16.55 -6.73,31.55 -17.57,42.39 -6.26,6.26 -13.9,11.14 -22.42,14.16l0 13.83c8.52,3.02 16.16,7.9 22.42,14.16 10.85,10.85 17.58,25.86 17.58,42.42 0,16.5 -6.74,31.5 -17.62,42.38l0.04 0.04c-6.26,6.26 -13.9,11.14 -22.42,14.16l0 13.84c8.52,3.02 16.16,7.9 22.42,14.16l-0.04 0.04c10.83,10.83 17.54,25.84 17.55,42.38 -0.01,16.54 -6.72,31.55 -17.55,42.38l0.04 0.04c-6.26,6.26 -13.9,11.14 -22.42,14.16l0 13.84c8.52,3.02 16.16,7.9 22.42,14.16 10.85,10.85 17.58,25.86 17.58,42.42 0,16.56 -6.73,31.57 -17.58,42.42l-0.04 -0.04c-6.24,6.24 -13.87,11.11 -22.38,14.12l0 13.99c8.48,3 16.09,7.86 22.34,14.09l0 0c0.01,0.01 0.03,0.03 0.04,0.04 0.01,0.01 0.03,0.03 0.04,0.04l0 0c10.85,10.87 17.58,25.87 17.58,42.32l0 0.02c0,16.51 -6.73,31.49 -17.57,42.35l-0.08 0.08c-6.25,6.24 -13.86,11.12 -22.35,14.13l0 13.88c8.49,3.01 16.1,7.89 22.35,14.13l0.08 0.08c10.84,10.86 17.57,25.84 17.57,42.35 0,16.5 -6.73,31.48 -17.57,42.34l0 0.08c-6.24,6.24 -13.88,11.1 -22.43,14.1l0 13.9c8.53,3.01 16.17,7.9 22.43,14.16l0 0.08c10.84,10.86 17.57,25.84 17.57,42.34 0,16.51 -6.73,31.49 -17.57,42.35l-0.08 0.08c-2.99,2.99 -6.3,5.66 -9.86,7.97l527.79 0 0 -30 0 -20 20 0 3782.14 0 20 0 0 20 0 11.66 62.98 -59.05 0 -2352.33 -62.98 -62.98 0 22.7 0 20 -20 0 -3782.14 0 -20 0 0 -20 0 -42.7z"/>
    </g>
</svg>
