<?xml version='1.0' encoding='UTF-8' standalone='no'?>
<svg xmlns="http://www.w3.org/2000/svg"  height="9.9350004mm" width="12.254mm" id="svg18958" version="1.1" gorn="0" viewBox="0 0 48.243527 39.114174">
    <desc >
        <referenceFile >A2008WR-5P.svg</referenceFile>
    </desc>
    <g transform="translate(-4016.4,-3027.5)" >
        <g >
            <g >
                <g >
                    <g >
                        <defs  id="defs18962"/>
                        <g transform="translate(-9.4260051,-15.381889)" >
                            <g >
                                <g >
                                    <g >
                                        <g  id="copper1" gorn="0.1.0.0.0.0.1.0.0.0.0">
                                            <g  id="copper0" gorn="0.1.0.0.0.0.1.0.0.0.0.0">
                                                <g  id="connector0pin" gorn="0.1.0.0.0.0.1.0.0.0.0.0.0">
                                                    <path stroke-width="0" d="m 4034.2004,3057.6837 a 2.9527558,3.7 0 0 0 2.9528,-3.7 v -7.4 a 2.9527558,3.7 0 0 0 -2.9528,-3.7 v 0 a 2.9527558,3.7 0 0 0 -2.9528,3.7 v 7.4 a 2.9527558,3.7 0 0 0 2.9528,3.7 z m -1.7557,-7.4 a 1.7557,2.2000093 0 1 1 3.5114,0 1.7557,2.2000093 0 1 1 -3.5114,0 z" stroke="none"  id="path19156" gorn="0.1.0.0.0.0.1.0.0.0.0.0.0.0" fill="#f7bd13" style="stroke-linecap:round;stroke-linejoin:round;shape-rendering:crispEdges"/>
                                                    <circle cx="4034.2004"  r="2.95272" cy="3050.2837" id="path20949" gorn="0.1.0.0.0.0.1.0.0.0.0.0.0.1" fill="#000000"/>
                                                </g>
                                                <g transform="translate(7.8724789,-0.00181085)" >
                                                    <g >
                                                        <g >
                                                            <g >
                                                                <g  id="connector1pin" gorn="0.1.0.0.0.0.1.0.0.0.0.0.1.0.0.0.0">
                                                                    <path stroke-width="0" d="m 4034.2004,3057.6837 a 2.9527558,3.7 0 0 0 2.9528,-3.7 v -7.4 a 2.9527558,3.7 0 0 0 -2.9528,-3.7 v 0 a 2.9527558,3.7 0 0 0 -2.9528,3.7 v 7.4 a 2.9527558,3.7 0 0 0 2.9528,3.7 z m -1.7557,-7.4 a 1.7557,2.2000093 0 1 1 3.5114,0 1.7557,2.2000093 0 1 1 -3.5114,0 z" stroke="none"  id="path19156-8" gorn="0.1.0.0.0.0.1.0.0.0.0.0.1.0.0.0.0.0" fill="#f7bd13" style="stroke-linecap:round;stroke-linejoin:round;shape-rendering:crispEdges"/>
                                                                    <circle cx="4034.2004"  r="2.95272" cy="3050.2837" id="path20949-7" gorn="0.1.0.0.0.0.1.0.0.0.0.0.1.0.0.0.0.1" fill="#000000"/>
                                                                </g>
                                                            </g>
                                                        </g>
                                                    </g>
                                                </g>
                                                <g transform="translate(15.746494,-0.00181085)" >
                                                    <g >
                                                        <g >
                                                            <g >
                                                                <g  id="connector2pin" gorn="0.1.0.0.0.0.1.0.0.0.0.0.2.0.0.0.0">
                                                                    <path stroke-width="0" d="m 4034.2004,3057.6837 a 2.9527558,3.7 0 0 0 2.9528,-3.7 v -7.4 a 2.9527558,3.7 0 0 0 -2.9528,-3.7 v 0 a 2.9527558,3.7 0 0 0 -2.9528,3.7 v 7.4 a 2.9527558,3.7 0 0 0 2.9528,3.7 z m -1.7557,-7.4 a 1.7557,2.2000093 0 1 1 3.5114,0 1.7557,2.2000093 0 1 1 -3.5114,0 z" stroke="none"  id="path19156-8-2" gorn="0.1.0.0.0.0.1.0.0.0.0.0.2.0.0.0.0.0" fill="#f7bd13" style="stroke-linecap:round;stroke-linejoin:round;shape-rendering:crispEdges"/>
                                                                    <circle cx="4034.2004"  r="2.95272" cy="3050.2837" id="path20949-7-0" gorn="0.1.0.0.0.0.1.0.0.0.0.0.2.0.0.0.0.1" fill="#000000"/>
                                                                </g>
                                                            </g>
                                                        </g>
                                                    </g>
                                                </g>
                                                <g transform="translate(23.62051,-0.00181085)" >
                                                    <g >
                                                        <g >
                                                            <g >
                                                                <g  id="connector3pin" gorn="0.1.0.0.0.0.1.0.0.0.0.0.3.0.0.0.0">
                                                                    <path stroke-width="0" d="m 4034.2004,3057.6837 a 2.9527558,3.7 0 0 0 2.9528,-3.7 v -7.4 a 2.9527558,3.7 0 0 0 -2.9528,-3.7 v 0 a 2.9527558,3.7 0 0 0 -2.9528,3.7 v 7.4 a 2.9527558,3.7 0 0 0 2.9528,3.7 z m -1.7557,-7.4 a 1.7557,2.2000093 0 1 1 3.5114,0 1.7557,2.2000093 0 1 1 -3.5114,0 z" stroke="none"  id="path19156-8-3" gorn="0.1.0.0.0.0.1.0.0.0.0.0.3.0.0.0.0.0" fill="#f7bd13" style="stroke-linecap:round;stroke-linejoin:round;shape-rendering:crispEdges"/>
                                                                    <circle cx="4034.2004"  r="2.95272" cy="3050.2837" id="path20949-7-7" gorn="0.1.0.0.0.0.1.0.0.0.0.0.3.0.0.0.0.1" fill="#000000"/>
                                                                </g>
                                                            </g>
                                                        </g>
                                                    </g>
                                                </g>
                                                <g transform="translate(31.494525,-0.00181085)" >
                                                    <g >
                                                        <g >
                                                            <g >
                                                                <g  id="connector4pin" gorn="0.1.0.0.0.0.1.0.0.0.0.0.4.0.0.0.0">
                                                                    <path stroke-width="0" d="m 4034.2004,3057.6837 a 2.9527558,3.7 0 0 0 2.9528,-3.7 v -7.4 a 2.9527558,3.7 0 0 0 -2.9528,-3.7 v 0 a 2.9527558,3.7 0 0 0 -2.9528,3.7 v 7.4 a 2.9527558,3.7 0 0 0 2.9528,3.7 z m -1.7557,-7.4 a 1.7557,2.2000093 0 1 1 3.5114,0 1.7557,2.2000093 0 1 1 -3.5114,0 z" stroke="none"  id="path19156-8-3-9" gorn="0.1.0.0.0.0.1.0.0.0.0.0.4.0.0.0.0.0" fill="#f7bd13" style="stroke-linecap:round;stroke-linejoin:round;shape-rendering:crispEdges"/>
                                                                    <circle cx="4034.2004"  r="2.95272" cy="3050.2837" id="path20949-7-7-2" gorn="0.1.0.0.0.0.1.0.0.0.0.0.4.0.0.0.0.1" fill="#000000"/>
                                                                </g>
                                                            </g>
                                                        </g>
                                                    </g>
                                                </g>
                                            </g>
                                        </g>
                                    </g>
                                </g>
                            </g>
                        </g>
                        <g stroke-width="1" stroke="#000000" stroke-opacity="1"  id="silkscreen" gorn="0.1.0.0.0.0.2" fill="#000000" fill-opacity="1">
                            <g transform="matrix(1.0416667,0,0,1.0416667,4016.3997,3027.5)" >
                                <g >
                                    <g >
                                        <g >
                                            <path stroke-width="0.0192937" d="M 3.8162577,4.4539234 3.8030636,1.6335307 2.3737242,1.6219068 C 1.5875876,1.6155136 0.80209387,1.6097707 0.62818258,1.6091448 0.20843298,1.607634 0.02784427,1.4690897 0.02784427,1.1485762 c 0,-0.17188881 0.02850132,-0.2395428 0.14206798,-0.33722872 L 0.31198023,0.68914574 H 2.5297144 4.7474485 V 3.5223005 6.3554552 H 4.9771637 5.206879 V 6.8148857 7.2743162 H 4.5181654 3.8294519 Z" stroke="#000000" stroke-opacity="1"  id="path24523" gorn="0.1.0.0.0.0.2.0.0.0.0.0" fill="#000000" fill-opacity="1" style="stroke-linecap:square;stroke-linejoin:round;stroke-dashoffset:12.548;paint-order:markers stroke fill;"/>
                                        </g>
                                    </g>
                                </g>
                            </g>
                            <g transform="matrix(1.0416667,0,0,1.0416667,4016.3997,3027.5)" >
                                <g >
                                    <g >
                                        <g >
                                            <path stroke-width="0.0192937" d="M 10.873188,6.8148857 V 6.3554552 h 0.944385 0.944385 v 0.4594305 0.4594305 h -0.944385 -0.944385 z" stroke="#000000" stroke-opacity="1"  id="path24562" gorn="0.1.0.0.0.0.2.1.0.0.0.0" fill="#000000" fill-opacity="1" style="stroke-linecap:square;stroke-linejoin:round;stroke-dashoffset:12.548;paint-order:markers stroke fill;"/>
                                        </g>
                                    </g>
                                </g>
                            </g>
                            <g transform="matrix(1.0416667,0,0,1.0416667,4016.3997,3027.5)" >
                                <g >
                                    <g >
                                        <g >
                                            <path stroke-width="0.0192937" d="M 18.428268,6.8148857 V 6.3554552 h 0.944385 0.944385 v 0.4594305 0.4594305 h -0.944385 -0.944385 z" stroke="#000000" stroke-opacity="1"  id="path24601" gorn="0.1.0.0.0.0.2.2.0.0.0.0" fill="#000000" fill-opacity="1" style="stroke-linecap:square;stroke-linejoin:round;stroke-dashoffset:12.548;paint-order:markers stroke fill;"/>
                                        </g>
                                    </g>
                                </g>
                            </g>
                            <g transform="matrix(1.0416667,0,0,1.0416667,4016.3997,3027.5)" >
                                <g >
                                    <g >
                                        <g >
                                            <path stroke-width="0.0192937" d="M 25.983347,6.8148857 V 6.3554552 h 0.944385 0.944385 v 0.4594305 0.4594305 h -0.944385 -0.944385 z" stroke="#000000" stroke-opacity="1"  id="path24640" gorn="0.1.0.0.0.0.2.3.0.0.0.0" fill="#000000" fill-opacity="1" style="stroke-linecap:square;stroke-linejoin:round;stroke-dashoffset:12.548;paint-order:markers stroke fill;"/>
                                        </g>
                                    </g>
                                </g>
                            </g>
                            <g transform="matrix(1.0416667,0,0,1.0416667,4016.3997,3027.5)" >
                                <g >
                                    <g >
                                        <g >
                                            <path stroke-width="0.0192937" d="M 33.589474,6.8148857 V 6.3554552 h 0.918861 0.918861 v 0.4594305 0.4594305 h -0.918861 -0.918861 z" stroke="#000000" stroke-opacity="1"  id="path24679" gorn="0.1.0.0.0.0.2.4.0.0.0.0" fill="#000000" fill-opacity="1" style="stroke-linecap:square;stroke-linejoin:round;stroke-dashoffset:12.548;paint-order:markers stroke fill;"/>
                                        </g>
                                    </g>
                                </g>
                            </g>
                            <g transform="matrix(1.0416667,0,0,1.0416667,4016.3997,3027.5)" >
                                <g >
                                    <g >
                                        <g >
                                            <path stroke-width="0.0192937" d="M 41.144553,6.8148857 V 6.3554552 h 0.382859 0.382859 V 3.5223005 0.68914574 h 2.04584 2.04584 l 0.149217,0.14921675 c 0.08918,0.0891768 0.149216,0.20316671 0.149216,0.28329811 0,0.173246 -0.124898,0.4135365 -0.237384,0.4567015 -0.04841,0.018576 -0.795833,0.032594 -1.660943,0.031151 l -1.572925,-0.00262 v 2.8337137 2.8337138 h -0.842289 -0.84229 z" stroke="#000000" stroke-opacity="1"  id="path24757" gorn="0.1.0.0.0.0.2.5.0.0.0.0" fill="#000000" fill-opacity="1" style="stroke-linecap:square;stroke-linejoin:round;stroke-dashoffset:12.548;paint-order:markers stroke fill;"/>
                                        </g>
                                    </g>
                                </g>
                            </g>
                            <g transform="matrix(1.0416667,0,0,1.0416667,4016.3997,3027.5)" >
                                <g >
                                    <g >
                                        <g >
                                            <path stroke-width="0.0192937" d="M 0.26085807,37.474538 C 0.19375769,37.437295 0.10842848,37.351923 0.07123759,37.284823 0.01548188,37.184228 0.00330043,34.038232 0.0018089,19.354097 L 0,1.5453711 0.16590546,1.5809391 c 0.091248,0.019562 0.2978811,0.047176 0.4591846,0.061364 l 0.29327919,0.025795 0.0130078,5.0874997 0.0130079,5.0874992 2.19799575,0.0133 2.197996,0.0133 0.1757281,0.42061 c 0.096651,0.231335 0.1833857,0.437838 0.1927443,0.458895 0.00936,0.02106 -1.0646083,0.03829 -2.3865937,0.03829 H 0.91864562 l 0.0128696,11.906907 0.0128697,11.906907 22.21856908,0.01282 22.218569,0.01282 V 24.707209 12.787482 h -2.3482 -2.3482 v -0.111897 c 0,-0.06154 0.06317,-0.268004 0.140381,-0.458801 l 0.140382,-0.346905 2.207819,-6.28e-4 2.207818,-6.3e-4 V 6.7638379 1.6590546 h 0.222591 c 0.122424,0 0.329168,-0.014608 0.45943,-0.032463 l 0.23684,-0.032463 V 19.413915 37.233701 l -0.123199,0.143228 -0.123199,0.143228 -22.835564,0.01105 c -18.8910609,0.0091 -22.85663705,-6.5e-4 -22.95756393,-0.05667 z" stroke="#000000" stroke-opacity="1"  id="path24796" gorn="0.1.0.0.0.0.2.6.0.0.0.0" fill="#000000" fill-opacity="1" style="stroke-linecap:square;stroke-linejoin:round;stroke-dashoffset:12.548;paint-order:markers stroke fill;"/>
                                        </g>
                                    </g>
                                </g>
                            </g>
                            <g transform="matrix(1.0416667,0,0,1.0416667,4016.3997,3027.5)" >
                                <g >
                                    <g >
                                        <g >
                                            <path stroke-width="0.0192937" d="m 10.464806,12.673889 c 0,-0.06248 0.06106,-0.269221 0.135684,-0.459431 l 0.135685,-0.345837 h 1.079421 1.079422 l 0.175947,0.421145 c 0.09677,0.231629 0.183605,0.438373 0.192964,0.45943 0.0094,0.02106 -0.616616,0.03829 -1.391054,0.03829 h -1.408069 z" stroke="#000000" stroke-opacity="1"  id="path24835" gorn="0.1.0.0.0.0.2.7.0.0.0.0" fill="#000000" fill-opacity="1" style="stroke-linecap:square;stroke-linejoin:round;stroke-dashoffset:12.548;paint-order:markers stroke fill;"/>
                                        </g>
                                    </g>
                                </g>
                            </g>
                            <g transform="matrix(1.0416667,0,0,1.0416667,4016.3997,3027.5)" >
                                <g >
                                    <g >
                                        <g >
                                            <path stroke-width="0.0192937" d="m 18.019885,12.673889 c 0,-0.06248 0.06106,-0.269221 0.135684,-0.459431 l 0.135685,-0.345837 h 1.091066 c 0.993387,0 1.093813,0.008 1.121754,0.08933 0.03034,0.08833 0.251933,0.642341 0.306265,0.765717 0.0221,0.05019 -0.272801,0.06381 -1.381177,0.06381 h -1.409277 z" stroke="#000000" stroke-opacity="1"  id="path24874" gorn="0.1.0.0.0.0.2.8.0.0.0.0" fill="#000000" fill-opacity="1" style="stroke-linecap:square;stroke-linejoin:round;stroke-dashoffset:12.548;paint-order:markers stroke fill;"/>
                                        </g>
                                    </g>
                                </g>
                            </g>
                            <g transform="matrix(1.0416667,0,0,1.0416667,4016.3997,3027.5)" >
                                <g >
                                    <g >
                                        <g >
                                            <path stroke-width="0.0192937" d="m 25.574964,12.679176 c 0,-0.05957 0.06189,-0.266748 0.137522,-0.460399 l 0.137523,-0.352092 1.089685,0.01373 1.089685,0.01373 0.176608,0.43153 c 0.09713,0.237341 0.176608,0.438342 0.176608,0.446668 0,0.0083 -0.631717,0.01514 -1.403815,0.01514 -1.396618,0 -1.403816,-5.55e-4 -1.403816,-0.108306 z" stroke="#000000" stroke-opacity="1"  id="path24913" gorn="0.1.0.0.0.0.2.9.0.0.0.0" fill="#000000" fill-opacity="1" style="stroke-linecap:square;stroke-linejoin:round;stroke-dashoffset:12.548;paint-order:markers stroke fill;"/>
                                        </g>
                                    </g>
                                </g>
                            </g>
                            <g transform="matrix(1.0416667,0,0,1.0416667,4016.3997,3027.5)" >
                                <g >
                                    <g >
                                        <g >
                                            <path stroke-width="0.0192937" d="m 33.130044,12.679176 c 0,-0.05957 0.06171,-0.266313 0.137144,-0.459431 l 0.137144,-0.351124 h 1.092783 c 1.058302,0 1.093645,0.0033 1.120115,0.104521 0.01503,0.05749 0.103872,0.26423 0.197419,0.45943 l 0.170086,0.35491 h -1.427346 c -1.420597,0 -1.427345,-5.12e-4 -1.427345,-0.108306 z" stroke="#000000" stroke-opacity="1"  id="path24952" gorn="0.1.0.0.0.0.2.10.0.0.0.0" fill="#000000" fill-opacity="1" style="stroke-linecap:square;stroke-linejoin:round;stroke-dashoffset:12.548;paint-order:markers stroke fill;"/>
                                        </g>
                                    </g>
                                </g>
                            </g>
                        </g>
                    </g>
                </g>
            </g>
        </g>
    </g>
</svg>
