<?xml version='1.0' encoding='UTF-8' standalone='no'?>
<svg xmlns="http://www.w3.org/2000/svg"  height="13.416mm" gorn="0" id="svg4914" viewBox="0 0 49.611376 52.819964" width="12.601mm" version="1.1">
    <defs  id="defs29">
        <defs  id="defs4918"/>
    </defs>
    <desc  id="desc1">
        <referenceFile >TF-104.svg</referenceFile>
    </desc>
    <g  transform="translate(-3802.6,-2892.8)">
        <g >
            <g >
                <g  gorn="0.2.0.0.0" id="silkscreen">
                    <g  transform="translate(-9.4585,-15.700111)">
                        <g >
                            <g >
                                <g  gorn="0.2.0.0.0.0.0.0.0" id="g22">
                                    <g  gorn="0.2.0.0.0.0.0.0.0.0" id="g21">
                                        <polyline  style="stroke-linecap:round;stroke-linejoin:round;shape-rendering:crispEdges" layerid="3" gorn="0.2.0.0.0.0.0.0.0.0.0" stroke-linecap="round" locked="0" net="" fill="none" points="3837.0867 2939.5611 3834.9207 2941.7271 3834.9207 2941.7259 3832.7556 2939.5611 3830.5906 2937.3961 3832.7556 2937.3961 3832.7556 2930.9 3837.0867 2930.9 3837.0867 2937.3961 3839.2515 2937.3961 3837.0867 2939.5611" id="gge612" stroke="#000000" stroke-width="1"/>
                                    </g>
                                </g>
                            </g>
                        </g>
                    </g>
                    <g  transform="translate(-9.4585,-15.700111)">
                        <g >
                            <g >
                                <g  gorn="0.2.0.0.0.1.0.0.0" id="g24">
                                    <g  gorn="0.2.0.0.0.1.0.0.0.0" id="g23">
                                        <polyline  style="stroke-linecap:round;stroke-linejoin:round;shape-rendering:crispEdges" layerid="3" gorn="0.2.0.0.0.1.0.0.0.0.0" stroke-linecap="round" locked="0" net="" fill="none" points="3812.5585 2909.0015 3812.5585 2960.8215 3861.1585 2960.8215 3861.1585 2957.4915" id="gge615" stroke="#000000" stroke-width="1"/>
                                    </g>
                                </g>
                            </g>
                        </g>
                    </g>
                    <g  transform="translate(-9.4585,-15.700111)">
                        <g >
                            <g >
                                <g  gorn="0.2.0.0.0.2.0.0.0" id="g26">
                                    <g  gorn="0.2.0.0.0.2.0.0.0.0" id="g25">
                                        <polyline  style="stroke-linecap:round;stroke-linejoin:round;shape-rendering:crispEdges" layerid="3" gorn="0.2.0.0.0.2.0.0.0.0.0" stroke-linecap="round" locked="0" net="" fill="none" points="3812.5588 2909 3856.0588 2909 3856.0588 2931.5 3861.0588 2936.5 3861.1688 2957.4915" id="gge618" stroke="#000000" stroke-width="1"/>
                                    </g>
                                </g>
                            </g>
                        </g>
                    </g>
                    <path  style="stroke-linecap:round;stroke-linejoin:round;shape-rendering:crispEdges" c_fontfamily="" gorn="0.2.0.0.0.3" c_fontsize="3.937" d="m 3827.2504,2900.3338 h -3.76 m 0,0 v 2.15 m 3.76,2.25 -0.18,-0.36 -0.36,-0.35 -0.36,-0.18 -0.53,-0.18 h -0.9 l -0.54,0.18 -0.35,0.18 -0.36,0.35 -0.18,0.36 v 0.72 l 0.18,0.36 0.36,0.35 0.35,0.18 0.54,0.18 h 0.9 l 0.53,-0.18 0.36,-0.18 0.36,-0.35 0.18,-0.36 v -0.72 m -0.9,5.66 0.36,-0.18 0.36,-0.36 0.18,-0.36 v -0.71 l -0.18,-0.36 -0.36,-0.36 -0.36,-0.18 -0.53,-0.18 h -0.9 l -0.54,0.18 -0.35,0.18 -0.36,0.36 -0.18,0.36 v 0.71 l 0.18,0.36 0.36,0.36 0.35,0.18 m 2.87,1.18 h -3.76 m 3.76,2.5 -2.51,-2.5 m 0.9,0.89 -2.15,1.61" fill="none" id="path4911" c_text="LOCK" stroke="#000000" stroke-width="0.3937"/>
                    <path  style="line-height:4.25207px;font-family:Droid Sans;-inkscape-font-specification:Droid Sans;text-align:start;letter-spacing:0px;word-spacing:0px;text-anchor:start;" gorn="0.2.0.0.0.4" stroke-opacity="1" d="m 3840.3016,2938.7251 q -0.323,0 -0.5652,-0.083 -0.2403,-0.083 -0.3999,-0.2422 -0.1576,-0.1577 -0.2364,-0.3884 -0.079,-0.2307 -0.079,-0.5498 v -0.5267 q 0,-0.044 0.029,-0.085 0.031,-0.039 0.1057,-0.039 h 2.2185 q 0.075,0 0.1038,0.039 0.031,0.04 0.031,0.085 v 0.5632 q 0,0.323 -0.084,0.546 -0.083,0.223 -0.2403,0.373 -0.1558,0.1518 -0.3788,0.2287 -0.223,0.079 -0.5036,0.079 z m -0.013,-0.3479 q 0.2019,0 0.3749,-0.05 0.1749,-0.05 0.3018,-0.1576 0.1269,-0.1058 0.198,-0.2692 0.071,-0.1634 0.071,-0.421 v -0.3364 h -1.9358 v 0.3403 q 0,0.2383 0.06,0.4018 0.06,0.1634 0.1826,0.2729 0.123,0.1096 0.3076,0.1634 0.1865,0.056 0.4402,0.056 z m -1.1496,2.6625 q -0.042,0.015 -0.069,0.015 -0.025,0 -0.038,-0.013 -0.014,-0.015 -0.017,-0.052 0,-0.035 0,-0.094 0,-0.06 0,-0.096 0,-0.035 0.01,-0.054 0.01,-0.017 0.019,-0.027 0.012,-0.01 0.029,-0.015 l 0.6056,-0.2134 v -1.0342 l -0.5979,-0.2038 q -0.017,-0.01 -0.031,-0.015 -0.012,-0.01 -0.021,-0.029 -0.01,-0.017 -0.011,-0.052 0,-0.033 0,-0.086 0,-0.056 0.01,-0.092 0,-0.035 0.017,-0.05 0.013,-0.014 0.038,-0.014 0.027,0 0.069,0.017 l 2.3108,0.8344 q 0.021,0.01 0.035,0.019 0.013,0.014 0.021,0.037 0.01,0.025 0.01,0.061 0,0.039 0,0.096 0,0.062 0,0.1018 0,0.04 -0.01,0.065 -0.01,0.025 -0.023,0.039 -0.014,0.013 -0.035,0.021 z m 2.0397,-1.0708 v 0 l -1.24,-0.4287 v 0.8651 z m 0.1884,2.7376 q -0.036,0 -0.063,0 -0.027,0 -0.044,-0.013 -0.015,-0.01 -0.023,-0.021 -0.01,-0.012 -0.01,-0.027 v -0.6998 h -2.157 q -0.015,0 -0.027,-0.01 -0.012,-0.01 -0.019,-0.027 -0.01,-0.019 -0.01,-0.052 -0.01,-0.031 -0.01,-0.079 0,-0.046 0.01,-0.079 0,-0.033 0.01,-0.052 0.01,-0.019 0.019,-0.027 0.012,-0.01 0.027,-0.01 h 2.157 v -0.6998 q 0,-0.015 0.01,-0.029 0.01,-0.011 0.023,-0.019 0.017,-0.01 0.044,-0.014 0.027,0 0.063,0 0.037,0 0.063,0 0.029,0.01 0.046,0.014 0.017,0.01 0.025,0.019 0.01,0.013 0.01,0.029 v 1.7302 q 0,0.015 -0.01,0.027 -0.01,0.014 -0.025,0.021 -0.017,0.01 -0.046,0.013 -0.027,0 -0.063,0 z m -2.2031,1.8051 q -0.035,0 -0.062,-0.01 -0.027,0 -0.046,-0.013 -0.017,-0.01 -0.027,-0.023 -0.01,-0.013 -0.01,-0.031 v -1.3746 q 0,-0.027 0.01,-0.048 0.01,-0.019 0.023,-0.035 0.015,-0.014 0.044,-0.021 0.029,-0.01 0.071,-0.01 0.039,0 0.067,0 0.029,0 0.05,0.013 0.023,0.01 0.044,0.023 0.023,0.015 0.048,0.038 l 0.5113,0.4826 q 0.1769,0.1672 0.3172,0.2672 0.1404,0.1019 0.2557,0.1557 0.1153,0.056 0.2095,0.073 0.094,0.017 0.1769,0.017 0.083,0 0.1557,-0.027 0.075,-0.027 0.1307,-0.079 0.056,-0.05 0.088,-0.1269 0.033,-0.077 0.033,-0.1768 0,-0.1173 -0.033,-0.2115 -0.033,-0.092 -0.071,-0.1634 -0.038,-0.069 -0.071,-0.1173 -0.033,-0.046 -0.033,-0.069 0,-0.013 0.01,-0.025 0.01,-0.01 0.025,-0.017 0.017,-0.01 0.046,-0.01 0.029,0 0.069,0 0.029,0 0.05,0 0.021,0 0.037,0.01 0.015,0.01 0.029,0.013 0.014,0.01 0.033,0.031 0.021,0.023 0.056,0.079 0.035,0.058 0.067,0.1423 0.035,0.086 0.058,0.1884 0.023,0.1038 0.023,0.2172 0,0.1807 -0.052,0.3153 -0.05,0.1365 -0.1385,0.2249 -0.088,0.09 -0.2056,0.1346 -0.1173,0.044 -0.25,0.044 -0.1192,0 -0.2383,-0.021 -0.1173,-0.021 -0.2557,-0.09 -0.1365,-0.067 -0.3057,-0.1961 -0.1672,-0.1288 -0.3864,-0.3422 l -0.4114,-0.3941 v 1.0823 q 0,0.015 -0.01,0.029 -0.01,0.015 -0.025,0.025 -0.017,0.012 -0.044,0.015 -0.025,0.01 -0.06,0.01 z" fill="#000000" fill-opacity="1" id="path54" font-size="4.37466" stroke-width="1.04169" stroke="none"/>
                    <path  style="line-height:4.25207px;font-family:Droid Sans;-inkscape-font-specification:Droid Sans;text-align:start;letter-spacing:0px;word-spacing:0px;text-anchor:start;" gorn="0.2.0.0.0.5" stroke-opacity="1" d="m 3835.9481,2938.7251 q -0.323,0 -0.5652,-0.083 -0.2403,-0.083 -0.3999,-0.2422 -0.1576,-0.1577 -0.2364,-0.3884 -0.079,-0.2307 -0.079,-0.5498 v -0.5267 q 0,-0.044 0.029,-0.085 0.031,-0.039 0.1057,-0.039 h 2.2185 q 0.075,0 0.1038,0.039 0.031,0.04 0.031,0.085 v 0.5632 q 0,0.323 -0.085,0.546 -0.083,0.223 -0.2403,0.373 -0.1557,0.1518 -0.3787,0.2287 -0.223,0.079 -0.5037,0.079 z m -0.014,-0.3479 q 0.2019,0 0.3749,-0.05 0.175,-0.05 0.3018,-0.1576 0.1269,-0.1058 0.198,-0.2692 0.071,-0.1634 0.071,-0.421 v -0.3364 h -1.9359 v 0.3403 q 0,0.2383 0.06,0.4018 0.06,0.1634 0.1826,0.2729 0.1231,0.1096 0.3076,0.1634 0.1865,0.056 0.4402,0.056 z m -1.1496,2.6625 q -0.042,0.015 -0.069,0.015 -0.025,0 -0.038,-0.013 -0.014,-0.015 -0.017,-0.052 0,-0.035 0,-0.094 0,-0.06 0,-0.096 0,-0.035 0.01,-0.054 0.01,-0.017 0.019,-0.027 0.012,-0.01 0.029,-0.015 l 0.6056,-0.2134 v -1.0342 l -0.5979,-0.2038 q -0.017,-0.01 -0.031,-0.015 -0.012,-0.01 -0.021,-0.029 -0.01,-0.017 -0.012,-0.052 0,-0.033 0,-0.086 0,-0.056 0.01,-0.092 0,-0.035 0.017,-0.05 0.014,-0.014 0.039,-0.014 0.027,0 0.069,0.017 l 2.3107,0.8344 q 0.021,0.01 0.035,0.019 0.013,0.014 0.021,0.037 0.01,0.025 0.01,0.061 0,0.039 0,0.096 0,0.062 0,0.1018 0,0.04 -0.01,0.065 -0.01,0.025 -0.023,0.039 -0.014,0.013 -0.035,0.021 z m 2.0397,-1.0708 v 0 l -1.2399,-0.4287 v 0.8651 z m 0.1884,2.7376 q -0.037,0 -0.063,0 -0.027,0 -0.044,-0.013 -0.015,-0.01 -0.023,-0.021 -0.01,-0.012 -0.01,-0.027 v -0.6998 h -2.1569 q -0.015,0 -0.027,-0.01 -0.012,-0.01 -0.019,-0.027 -0.01,-0.019 -0.01,-0.052 -0.01,-0.031 -0.01,-0.079 0,-0.046 0.01,-0.079 0,-0.033 0.01,-0.052 0.01,-0.019 0.019,-0.027 0.012,-0.01 0.027,-0.01 h 2.1569 v -0.6998 q 0,-0.015 0.01,-0.029 0.01,-0.011 0.023,-0.019 0.017,-0.01 0.044,-0.014 0.027,0 0.063,0 0.036,0 0.063,0 0.029,0.01 0.046,0.014 0.017,0.01 0.025,0.019 0.01,0.013 0.01,0.029 v 1.7302 q 0,0.015 -0.01,0.027 -0.01,0.014 -0.025,0.021 -0.017,0.01 -0.046,0.013 -0.027,0 -0.063,0 z m -1.634,1.7859 q -0.1711,0 -0.3095,-0.06 -0.1365,-0.06 -0.2346,-0.1711 -0.098,-0.1115 -0.1518,-0.2749 -0.052,-0.1634 -0.052,-0.3691 0,-0.125 0.021,-0.2346 0.019,-0.1076 0.046,-0.1922 0.029,-0.085 0.058,-0.1403 0.031,-0.056 0.044,-0.071 0.014,-0.013 0.027,-0.021 0.014,-0.01 0.033,-0.013 0.019,-0.01 0.046,-0.01 0.029,0 0.069,0 0.069,0 0.096,0.014 0.027,0.013 0.027,0.038 0,0.017 -0.031,0.067 -0.031,0.052 -0.067,0.1307 -0.035,0.081 -0.065,0.1865 -0.031,0.1076 -0.031,0.2384 0,0.1269 0.033,0.223 0.033,0.096 0.092,0.1615 0.06,0.065 0.1403,0.098 0.083,0.033 0.1788,0.033 0.1057,0 0.1903,-0.042 0.085,-0.04 0.1461,-0.1211 0.062,-0.079 0.094,-0.1961 0.033,-0.1154 0.033,-0.2634 v -0.2364 q 0,-0.015 0.01,-0.031 0.01,-0.014 0.023,-0.025 0.015,-0.01 0.04,-0.017 0.025,-0.01 0.065,-0.01 0.037,0 0.06,0.01 0.025,0.01 0.038,0.015 0.015,0.012 0.021,0.025 0.01,0.013 0.01,0.031 v 0.2173 q 0,0.1268 0.033,0.2268 0.033,0.1019 0.094,0.1711 0.062,0.071 0.1461,0.1077 0.086,0.038 0.1923,0.038 0.077,0 0.1461,-0.025 0.071,-0.025 0.123,-0.075 0.052,-0.05 0.081,-0.1288 0.031,-0.077 0.031,-0.1787 0,-0.1115 -0.035,-0.2057 -0.033,-0.092 -0.071,-0.1654 -0.039,-0.073 -0.073,-0.1211 -0.033,-0.048 -0.033,-0.067 0,-0.013 0,-0.025 0.01,-0.01 0.019,-0.017 0.015,-0.01 0.04,-0.01 0.027,0 0.069,0 0.029,0 0.05,0 0.023,0 0.038,0.01 0.017,0.01 0.031,0.014 0.013,0.01 0.031,0.025 0.019,0.019 0.054,0.075 0.035,0.056 0.067,0.1365 0.035,0.083 0.058,0.1884 0.023,0.1077 0.023,0.2307 0,0.173 -0.044,0.3038 -0.044,0.1307 -0.125,0.2172 -0.081,0.088 -0.1941,0.1307 -0.1115,0.044 -0.248,0.044 -0.1173,0 -0.2192,-0.031 -0.1,-0.031 -0.1788,-0.09 -0.077,-0.06 -0.1326,-0.1461 -0.054,-0.087 -0.075,-0.1999 v 0 q -0.014,0.1288 -0.065,0.2345 -0.05,0.1077 -0.1269,0.1846 -0.077,0.077 -0.1807,0.1192 -0.1019,0.044 -0.2191,0.044 z" fill="#000000" fill-opacity="1" id="path55" font-size="4.37466" stroke-width="1.04169" stroke="none"/>
                    <path  style="line-height:4.25207px;font-family:Droid Sans;-inkscape-font-specification:Droid Sans;text-align:start;letter-spacing:0px;word-spacing:0px;text-anchor:start;" gorn="0.2.0.0.0.6" stroke-opacity="1" d="m 3830.6661,2938.4733 q -0.031,0 -0.054,0 -0.023,0 -0.04,-0.01 -0.017,0 -0.031,-0.011 -0.013,-0.01 -0.033,-0.027 -0.019,-0.019 -0.06,-0.081 -0.038,-0.062 -0.077,-0.1538 -0.036,-0.09 -0.061,-0.2095 -0.027,-0.1173 -0.027,-0.2576 0,-0.2423 0.081,-0.4383 0.081,-0.1942 0.2384,-0.3326 0.1576,-0.1365 0.3883,-0.2115 0.2326,-0.073 0.5344,-0.073 0.3095,0 0.5518,0.079 0.2422,0.081 0.4094,0.2249 0.1692,0.1442 0.2576,0.3441 0.088,0.2019 0.088,0.446 0,0.1077 -0.021,0.2096 -0.019,0.1018 -0.05,0.1884 -0.031,0.087 -0.071,0.1537 -0.04,0.067 -0.067,0.092 -0.025,0.027 -0.038,0.035 -0.014,0.01 -0.033,0.012 -0.017,0.01 -0.042,0.01 -0.025,0 -0.06,0 -0.038,0 -0.065,0 -0.027,0 -0.046,-0.012 -0.017,-0.01 -0.027,-0.019 -0.01,-0.01 -0.01,-0.025 0,-0.027 0.036,-0.075 0.039,-0.048 0.083,-0.1249 0.046,-0.075 0.083,-0.1846 0.038,-0.1076 0.038,-0.2595 0,-0.1653 -0.067,-0.3018 -0.065,-0.1346 -0.1941,-0.2307 -0.1288,-0.096 -0.3153,-0.15 -0.1846,-0.052 -0.423,-0.052 -0.2364,0 -0.419,0.05 -0.1807,0.052 -0.3038,0.1461 -0.1211,0.096 -0.1845,0.2346 -0.061,0.1384 -0.061,0.3133 0,0.148 0.036,0.2576 0.037,0.1115 0.081,0.1884 0.046,0.079 0.083,0.1288 0.036,0.05 0.036,0.079 0,0.014 -0.01,0.023 -0.01,0.01 -0.023,0.015 -0.015,0.01 -0.044,0.01 -0.029,0 -0.073,0 z m -0.3018,3.1432 q -0.015,0 -0.027,-0.01 -0.012,-0.01 -0.019,-0.027 -0.01,-0.019 -0.01,-0.05 -0.01,-0.029 -0.01,-0.077 0,-0.044 0.01,-0.077 0,-0.031 0.01,-0.05 0.01,-0.017 0.019,-0.025 0.012,-0.01 0.027,-0.01 h 2.1665 v 0 l -2.1761,-0.8863 q -0.014,-0.01 -0.023,-0.017 -0.01,-0.01 -0.017,-0.031 -0.01,-0.019 -0.01,-0.048 0,-0.027 0,-0.065 0,-0.04 0,-0.069 0,-0.029 0.01,-0.048 0.01,-0.019 0.017,-0.031 0.01,-0.01 0.021,-0.013 l 2.1761,-0.8478 v 0 h -2.1665 q -0.015,0 -0.027,-0.01 -0.012,-0.01 -0.019,-0.027 -0.01,-0.019 -0.01,-0.05 -0.01,-0.031 -0.01,-0.079 0,-0.046 0.01,-0.077 0,-0.031 0.01,-0.05 0.01,-0.017 0.019,-0.025 0.012,-0.01 0.027,-0.01 h 2.2877 q 0.081,0 0.1153,0.042 0.035,0.042 0.035,0.094 v 0.1999 q 0,0.062 -0.012,0.1077 -0.012,0.046 -0.037,0.081 -0.025,0.035 -0.063,0.058 -0.038,0.023 -0.09,0.04 l -1.8013,0.7209 v 0.01 l 1.7955,0.7497 q 0.058,0.021 0.098,0.046 0.04,0.025 0.063,0.054 0.025,0.031 0.035,0.067 0.012,0.037 0.012,0.085 v 0.2095 q 0,0.029 -0.01,0.054 -0.01,0.027 -0.027,0.044 -0.017,0.019 -0.046,0.031 -0.027,0.012 -0.067,0.012 z m 1.2303,2.5741 q -0.3229,0 -0.5652,-0.083 -0.2403,-0.083 -0.3998,-0.2422 -0.1577,-0.1577 -0.2365,-0.3884 -0.079,-0.2306 -0.079,-0.5498 v -0.5267 q 0,-0.044 0.029,-0.085 0.031,-0.038 0.1058,-0.038 h 2.2184 q 0.075,0 0.1038,0.038 0.031,0.04 0.031,0.085 v 0.5633 q 0,0.3229 -0.085,0.5459 -0.083,0.223 -0.2403,0.373 -0.1557,0.1518 -0.3787,0.2287 -0.223,0.079 -0.5037,0.079 z m -0.013,-0.348 q 0.2018,0 0.3748,-0.05 0.175,-0.05 0.3019,-0.1576 0.1268,-0.1057 0.198,-0.2692 0.071,-0.1634 0.071,-0.421 v -0.3364 h -1.9359 v 0.3403 q 0,0.2384 0.06,0.4018 0.06,0.1634 0.1827,0.273 0.123,0.1095 0.3075,0.1634 0.1865,0.056 0.4403,0.056 z" fill="#000000" fill-opacity="1" id="path56" font-size="4.37466" stroke-width="1.04169" stroke="none"/>
                    <path  style="line-height:4.25207px;font-family:Droid Sans;-inkscape-font-specification:Droid Sans;text-align:start;letter-spacing:0px;word-spacing:0px;text-anchor:start;" gorn="0.2.0.0.0.7" stroke-opacity="1" d="m 3827.7429,2938.1946 q -0.01,0 -0.017,0 -0.01,0 -0.017,0 -0.01,0 -0.021,-0.01 -0.012,0 -0.025,-0.01 l -1.6437,-0.5902 q -0.021,-0.01 -0.035,-0.021 -0.014,-0.012 -0.021,-0.037 -0.01,-0.025 -0.01,-0.063 0,-0.039 0,-0.096 0,-0.058 0,-0.096 0,-0.038 0.012,-0.063 0.01,-0.023 0.021,-0.037 0.014,-0.013 0.033,-0.021 l 1.6437,-0.5882 q 0.023,-0.01 0.04,-0.014 0.017,0 0.025,-0.01 0.01,0 0.015,0 0.015,0 0.027,0.01 0.012,0.01 0.017,0.025 0.01,0.019 0.01,0.048 0,0.031 0,0.075 0,0.056 0,0.088 0,0.035 -0.01,0.052 -0.01,0.019 -0.019,0.027 -0.012,0.01 -0.029,0.017 l -1.4264,0.4883 -0.023,0.01 0.023,0.01 1.4264,0.4825 q 0.017,0 0.029,0.014 0.012,0.01 0.019,0.027 0.01,0.019 0.01,0.05 0,0.033 0,0.085 0,0.044 0,0.073 0,0.029 -0.01,0.044 -0.01,0.017 -0.019,0.023 -0.01,0.01 -0.025,0.01 z m -1.734,1.8032 q -0.015,0 -0.027,-0.01 -0.012,-0.01 -0.019,-0.023 -0.01,-0.015 -0.01,-0.042 0,-0.027 0,-0.065 0,-0.04 0,-0.067 0,-0.027 0.01,-0.044 0.01,-0.017 0.019,-0.025 0.012,-0.01 0.027,-0.01 h 0.2288 q -0.1481,-0.1365 -0.2307,-0.2845 -0.083,-0.1461 -0.083,-0.3211 0,-0.1903 0.073,-0.3249 0.075,-0.1345 0.1999,-0.2191 0.1269,-0.083 0.296,-0.1211 0.1711,-0.039 0.3595,-0.039 0.223,0 0.4018,0.048 0.1807,0.048 0.3076,0.1422 0.1269,0.094 0.1942,0.2327 0.069,0.1403 0.069,0.3229 0,0.1519 -0.067,0.2768 -0.065,0.1269 -0.1942,0.25 h 1.0055 q 0.013,0 0.025,0.01 0.014,0.01 0.019,0.027 0.01,0.019 0.012,0.048 0.01,0.031 0.01,0.077 0,0.048 -0.01,0.079 0,0.031 -0.012,0.048 -0.01,0.017 -0.019,0.025 -0.012,0.01 -0.025,0.01 z m 1.2169,-0.3191 q 0.1595,-0.1288 0.2422,-0.25 0.085,-0.1191 0.085,-0.2499 0,-0.1211 -0.058,-0.2057 -0.058,-0.085 -0.1518,-0.1384 -0.094,-0.052 -0.2134,-0.077 -0.1192,-0.023 -0.2423,-0.023 -0.1307,0 -0.2556,0.019 -0.125,0.021 -0.223,0.071 -0.096,0.05 -0.1558,0.1327 -0.058,0.083 -0.058,0.2076 0,0.063 0.017,0.1211 0.017,0.06 0.058,0.1211 0.04,0.061 0.1039,0.1288 0.065,0.067 0.1595,0.1423 z m -1.2169,2.3876 q -0.015,0 -0.027,-0.01 -0.012,-0.01 -0.019,-0.023 -0.01,-0.015 -0.01,-0.042 0,-0.027 0,-0.065 0,-0.04 0,-0.067 0,-0.027 0.01,-0.044 0.01,-0.017 0.019,-0.025 0.012,-0.01 0.027,-0.01 h 0.2288 q -0.1481,-0.1365 -0.2307,-0.2845 -0.083,-0.1461 -0.083,-0.3211 0,-0.1903 0.073,-0.3248 0.075,-0.1346 0.1999,-0.2192 0.1269,-0.083 0.296,-0.1211 0.1711,-0.039 0.3595,-0.039 0.223,0 0.4018,0.048 0.1807,0.048 0.3076,0.1423 0.1269,0.094 0.1942,0.2326 0.069,0.1403 0.069,0.3229 0,0.1519 -0.067,0.2769 -0.065,0.1268 -0.1942,0.2499 h 1.0055 q 0.013,0 0.025,0.01 0.014,0.01 0.019,0.027 0.01,0.019 0.012,0.048 0.01,0.031 0.01,0.077 0,0.048 -0.01,0.079 0,0.031 -0.012,0.048 -0.01,0.017 -0.019,0.025 -0.012,0.01 -0.025,0.01 z m 1.2169,-0.3191 q 0.1595,-0.1288 0.2422,-0.2499 0.085,-0.1192 0.085,-0.25 0,-0.1211 -0.058,-0.2056 -0.058,-0.085 -0.1518,-0.1385 -0.094,-0.052 -0.2134,-0.077 -0.1192,-0.023 -0.2423,-0.023 -0.1307,0 -0.2556,0.019 -0.125,0.021 -0.223,0.071 -0.096,0.05 -0.1558,0.1327 -0.058,0.083 -0.058,0.2076 0,0.063 0.017,0.1211 0.017,0.06 0.058,0.1211 0.04,0.062 0.1039,0.1288 0.065,0.067 0.1595,0.1423 z" fill="#000000" fill-opacity="1" id="path57" font-size="4.37466" stroke-width="1.04169" stroke="none"/>
                    <path  style="line-height:4.25207px;font-family:Droid Sans;-inkscape-font-specification:Droid Sans;text-align:start;letter-spacing:0px;word-spacing:0px;text-anchor:start;" gorn="0.2.0.0.0.8" stroke-opacity="1" d="m 3821.9592,2938.4733 q -0.031,0 -0.054,0 -0.023,0 -0.04,-0.01 -0.017,0 -0.031,-0.011 -0.013,-0.01 -0.033,-0.027 -0.019,-0.019 -0.06,-0.081 -0.038,-0.062 -0.077,-0.1538 -0.037,-0.09 -0.061,-0.2095 -0.027,-0.1173 -0.027,-0.2576 0,-0.2423 0.081,-0.4383 0.081,-0.1942 0.2383,-0.3326 0.1577,-0.1365 0.3884,-0.2115 0.2326,-0.073 0.5344,-0.073 0.3095,0 0.5517,0.079 0.2422,0.081 0.4095,0.2249 0.1692,0.1442 0.2576,0.3441 0.088,0.2019 0.088,0.446 0,0.1077 -0.021,0.2096 -0.019,0.1018 -0.05,0.1884 -0.031,0.087 -0.071,0.1537 -0.04,0.067 -0.067,0.092 -0.025,0.027 -0.039,0.035 -0.013,0.01 -0.033,0.012 -0.017,0.01 -0.042,0.01 -0.025,0 -0.06,0 -0.039,0 -0.065,0 -0.027,0 -0.046,-0.012 -0.017,-0.01 -0.027,-0.019 -0.01,-0.01 -0.01,-0.025 0,-0.027 0.037,-0.075 0.038,-0.048 0.083,-0.1249 0.046,-0.075 0.083,-0.1846 0.039,-0.1076 0.039,-0.2595 0,-0.1653 -0.067,-0.3018 -0.065,-0.1346 -0.1942,-0.2307 -0.1288,-0.096 -0.3153,-0.15 -0.1845,-0.052 -0.4229,-0.052 -0.2364,0 -0.4191,0.05 -0.1807,0.052 -0.3037,0.1461 -0.1211,0.096 -0.1846,0.2346 -0.061,0.1384 -0.061,0.3133 0,0.148 0.036,0.2576 0.037,0.1115 0.081,0.1884 0.046,0.079 0.083,0.1288 0.037,0.05 0.037,0.079 0,0.014 -0.01,0.023 -0.01,0.01 -0.023,0.015 -0.015,0.01 -0.044,0.01 -0.029,0 -0.073,0 z m -0.2076,1.7283 q -0.039,0 -0.065,0 -0.025,0 -0.044,-0.013 -0.017,-0.01 -0.027,-0.021 -0.01,-0.012 -0.01,-0.029 v -1.0996 q 0,-0.044 0.029,-0.085 0.031,-0.039 0.1057,-0.039 h 2.3031 q 0.015,0 0.027,0.01 0.012,0.01 0.017,0.027 0.01,0.019 0.012,0.052 0.01,0.033 0.01,0.079 0,0.048 -0.01,0.079 0,0.033 -0.012,0.052 -0.01,0.019 -0.017,0.027 -0.012,0.01 -0.027,0.01 h -2.1512 v 0.892 q 0,0.017 -0.01,0.029 -0.01,0.013 -0.025,0.021 -0.015,0.01 -0.042,0.013 -0.027,0 -0.065,0 z m -0.09,1.9877 q -0.015,0 -0.029,-0.01 -0.012,-0.01 -0.019,-0.025 -0.01,-0.019 -0.012,-0.052 -0.01,-0.033 -0.01,-0.084 0,-0.067 0.01,-0.1096 0.01,-0.042 0.021,-0.064 0.015,-0.021 0.035,-0.035 l 1.2438,-0.915 h -1.2438 q -0.014,0 -0.027,-0.01 -0.012,-0.01 -0.019,-0.027 -0.01,-0.019 -0.01,-0.052 -0.01,-0.031 -0.01,-0.079 0,-0.046 0.01,-0.079 0,-0.033 0.01,-0.052 0.01,-0.019 0.019,-0.027 0.014,-0.01 0.027,-0.01 h 2.3876 q 0.015,0 0.027,0.01 0.012,0.01 0.017,0.027 0.01,0.019 0.012,0.052 0.01,0.033 0.01,0.079 0,0.048 -0.01,0.079 0,0.033 -0.012,0.052 -0.01,0.019 -0.017,0.027 -0.012,0.01 -0.027,0.01 h -1.1054 l 1.1054,0.8804 q 0.017,0.012 0.029,0.027 0.012,0.015 0.017,0.037 0.01,0.023 0.012,0.054 0,0.033 0,0.083 0,0.05 -0.01,0.081 0,0.031 -0.012,0.048 -0.01,0.019 -0.019,0.025 -0.012,0.01 -0.025,0.01 -0.025,0 -0.05,-0.013 -0.025,-0.012 -0.069,-0.046 l -0.9862,-0.8248 -1.1804,0.8882 q -0.05,0.033 -0.069,0.038 -0.017,0.01 -0.029,0.01 z" fill="#000000" fill-opacity="1" id="path58" font-size="4.37466" stroke-width="1.04169" stroke="none"/>
                    <path  style="line-height:4.25207px;font-family:Droid Sans;-inkscape-font-specification:Droid Sans;text-align:start;letter-spacing:0px;word-spacing:0px;text-anchor:start;" gorn="0.2.0.0.0.9" stroke-opacity="1" d="m 3817.3116,2937.8178 q -0.021,-0.01 -0.035,-0.021 -0.014,-0.013 -0.021,-0.038 -0.01,-0.023 -0.01,-0.062 0,-0.037 0,-0.092 0,-0.042 0,-0.075 0,-0.031 0,-0.054 0,-0.023 0.01,-0.04 0.01,-0.015 0.014,-0.027 0.01,-0.012 0.017,-0.019 0.012,-0.01 0.027,-0.012 l 2.3107,-0.8131 q 0.042,-0.015 0.067,-0.017 0.027,0 0.04,0.017 0.013,0.017 0.017,0.056 0,0.039 0,0.1038 0,0.054 0,0.085 0,0.033 -0.01,0.05 -0.01,0.017 -0.021,0.025 -0.012,0.01 -0.031,0.017 l -2.0935,0.7132 v 0 l 2.0896,0.694 q 0.021,0.01 0.035,0.014 0.014,0.01 0.021,0.027 0.01,0.019 0.01,0.054 0,0.035 0,0.092 0,0.06 -0.01,0.094 0,0.035 -0.017,0.046 -0.014,0.014 -0.04,0.01 -0.025,0 -0.067,-0.017 z m 0.4614,2.105 q -0.1327,0 -0.2365,-0.05 -0.1038,-0.048 -0.1749,-0.1384 -0.071,-0.09 -0.1077,-0.2153 -0.037,-0.125 -0.037,-0.2749 0,-0.092 0.015,-0.1769 0.013,-0.083 0.035,-0.1499 0.023,-0.065 0.046,-0.1115 0.025,-0.046 0.044,-0.067 0.019,-0.021 0.054,-0.031 0.035,-0.01 0.094,-0.01 0.037,0 0.062,0 0.025,0 0.04,0.01 0.015,0.01 0.021,0.015 0.01,0.012 0.01,0.025 0,0.021 -0.027,0.061 -0.025,0.042 -0.056,0.1019 -0.031,0.061 -0.058,0.1441 -0.025,0.083 -0.025,0.1904 0,0.081 0.017,0.1461 0.017,0.065 0.05,0.1134 0.035,0.048 0.086,0.073 0.052,0.027 0.1231,0.027 0.073,0 0.123,-0.039 0.05,-0.036 0.088,-0.098 0.038,-0.062 0.067,-0.1385 0.031,-0.077 0.064,-0.1595 0.033,-0.081 0.073,-0.1596 0.042,-0.077 0.1019,-0.1384 0.06,-0.061 0.1422,-0.1 0.083,-0.037 0.1981,-0.037 0.1018,0 0.1941,0.039 0.094,0.04 0.1634,0.1192 0.071,0.079 0.1134,0.196 0.042,0.1192 0.042,0.2769 0,0.069 -0.011,0.1384 -0.012,0.069 -0.029,0.1249 -0.017,0.056 -0.039,0.094 -0.019,0.04 -0.035,0.06 -0.015,0.021 -0.027,0.027 -0.012,0.01 -0.027,0.01 -0.014,0 -0.035,0.01 -0.021,0 -0.052,0 -0.033,0 -0.058,0 -0.023,0 -0.038,-0.01 -0.015,-0.01 -0.023,-0.015 -0.01,-0.01 -0.01,-0.021 0,-0.017 0.021,-0.05 0.021,-0.033 0.044,-0.085 0.025,-0.052 0.046,-0.123 0.021,-0.069 0.021,-0.1596 0,-0.081 -0.019,-0.1422 -0.017,-0.061 -0.052,-0.1019 -0.033,-0.038 -0.079,-0.06 -0.046,-0.019 -0.1,-0.019 -0.075,0 -0.1269,0.038 -0.05,0.039 -0.089,0.1 -0.038,0.062 -0.069,0.1403 -0.031,0.079 -0.063,0.1596 -0.033,0.083 -0.073,0.1615 -0.04,0.081 -0.098,0.1422 -0.058,0.061 -0.1384,0.098 -0.081,0.038 -0.1922,0.038 z m 0,1.5399 q -0.1327,0 -0.2365,-0.05 -0.1038,-0.048 -0.1749,-0.1384 -0.071,-0.09 -0.1077,-0.2153 -0.037,-0.125 -0.037,-0.275 0,-0.092 0.015,-0.1768 0.013,-0.083 0.035,-0.15 0.023,-0.065 0.046,-0.1115 0.025,-0.046 0.044,-0.067 0.019,-0.021 0.054,-0.031 0.035,-0.01 0.094,-0.01 0.037,0 0.062,0 0.025,0 0.04,0.01 0.015,0.01 0.021,0.015 0.01,0.012 0.01,0.025 0,0.021 -0.027,0.061 -0.025,0.042 -0.056,0.1019 -0.031,0.061 -0.058,0.1442 -0.025,0.083 -0.025,0.1903 0,0.081 0.017,0.1461 0.017,0.065 0.05,0.1134 0.035,0.048 0.086,0.073 0.052,0.027 0.1231,0.027 0.073,0 0.123,-0.038 0.05,-0.037 0.088,-0.098 0.038,-0.061 0.067,-0.1384 0.031,-0.077 0.064,-0.1596 0.033,-0.081 0.073,-0.1595 0.042,-0.077 0.1019,-0.1384 0.06,-0.062 0.1422,-0.1 0.083,-0.036 0.1981,-0.036 0.1018,0 0.1941,0.038 0.094,0.04 0.1634,0.1192 0.071,0.079 0.1134,0.1961 0.042,0.1192 0.042,0.2768 0,0.069 -0.011,0.1384 -0.012,0.069 -0.029,0.125 -0.017,0.056 -0.039,0.094 -0.019,0.04 -0.035,0.06 -0.015,0.021 -0.027,0.027 -0.012,0.01 -0.027,0.01 -0.014,0 -0.035,0.01 -0.021,0 -0.052,0 -0.033,0 -0.058,0 -0.023,0 -0.038,-0.01 -0.015,-0.01 -0.023,-0.015 -0.01,-0.01 -0.01,-0.021 0,-0.017 0.021,-0.05 0.021,-0.033 0.044,-0.085 0.025,-0.052 0.046,-0.1231 0.021,-0.069 0.021,-0.1595 0,-0.081 -0.019,-0.1423 -0.017,-0.061 -0.052,-0.1019 -0.033,-0.038 -0.079,-0.06 -0.046,-0.019 -0.1,-0.019 -0.075,0 -0.1269,0.039 -0.05,0.038 -0.089,0.1 -0.038,0.062 -0.069,0.1404 -0.031,0.079 -0.063,0.1595 -0.033,0.083 -0.073,0.1615 -0.04,0.081 -0.098,0.1423 -0.058,0.062 -0.1384,0.098 -0.081,0.039 -0.1922,0.039 z" fill="#000000" fill-opacity="1" id="path59" font-size="4.37466" stroke-width="1.04169" stroke="none"/>
                    <path  style="line-height:4.25207px;font-family:Droid Sans;-inkscape-font-specification:Droid Sans;text-align:start;letter-spacing:0px;word-spacing:0px;text-anchor:start;" gorn="0.2.0.0.0.10" stroke-opacity="1" d="m 3814.1808,2938.7251 q -0.323,0 -0.5652,-0.083 -0.2403,-0.083 -0.3999,-0.2422 -0.1576,-0.1577 -0.2364,-0.3884 -0.079,-0.2307 -0.079,-0.5498 v -0.5267 q 0,-0.044 0.029,-0.085 0.031,-0.039 0.1057,-0.039 h 2.2185 q 0.075,0 0.1038,0.039 0.031,0.04 0.031,0.085 v 0.5632 q 0,0.323 -0.085,0.546 -0.083,0.223 -0.2403,0.373 -0.1557,0.1518 -0.3787,0.2287 -0.223,0.079 -0.5036,0.079 z m -0.014,-0.3479 q 0.2019,0 0.3749,-0.05 0.1749,-0.05 0.3018,-0.1576 0.1269,-0.1058 0.198,-0.2692 0.071,-0.1634 0.071,-0.421 v -0.3364 h -1.9358 v 0.3403 q 0,0.2383 0.06,0.4018 0.06,0.1634 0.1826,0.2729 0.123,0.1096 0.3076,0.1634 0.1864,0.056 0.4402,0.056 z m -1.1496,2.6625 q -0.042,0.015 -0.069,0.015 -0.025,0 -0.039,-0.013 -0.013,-0.015 -0.017,-0.052 0,-0.035 0,-0.094 0,-0.06 0,-0.096 0,-0.035 0.01,-0.054 0.01,-0.017 0.019,-0.027 0.012,-0.01 0.029,-0.015 l 0.6056,-0.2134 v -1.0342 l -0.5979,-0.2038 q -0.017,-0.01 -0.031,-0.015 -0.012,-0.01 -0.021,-0.029 -0.01,-0.017 -0.012,-0.052 0,-0.033 0,-0.086 0,-0.056 0.01,-0.092 0,-0.035 0.017,-0.05 0.013,-0.014 0.038,-0.014 0.027,0 0.069,0.017 l 2.3108,0.8344 q 0.021,0.01 0.035,0.019 0.013,0.014 0.021,0.037 0.01,0.025 0.01,0.061 0,0.039 0,0.096 0,0.062 0,0.1018 0,0.04 -0.01,0.065 -0.01,0.025 -0.023,0.039 -0.013,0.013 -0.035,0.021 z m 2.0397,-1.0708 v 0 l -1.24,-0.4287 v 0.8651 z m 0.1884,2.7376 q -0.037,0 -0.064,0 -0.027,0 -0.044,-0.013 -0.015,-0.01 -0.023,-0.021 -0.01,-0.012 -0.01,-0.027 v -0.6998 h -2.157 q -0.015,0 -0.027,-0.01 -0.012,-0.01 -0.019,-0.027 -0.01,-0.019 -0.01,-0.052 -0.01,-0.031 -0.01,-0.079 0,-0.046 0.01,-0.079 0,-0.033 0.01,-0.052 0.01,-0.019 0.019,-0.027 0.012,-0.01 0.027,-0.01 h 2.157 v -0.6998 q 0,-0.015 0.01,-0.029 0.01,-0.011 0.023,-0.019 0.017,-0.01 0.044,-0.014 0.027,0 0.064,0 0.036,0 0.063,0 0.029,0.01 0.046,0.014 0.017,0.01 0.025,0.019 0.01,0.013 0.01,0.029 v 1.7302 q 0,0.015 -0.01,0.027 -0.01,0.014 -0.025,0.021 -0.017,0.01 -0.046,0.013 -0.027,0 -0.063,0 z m -1.0958,1.8878 q -0.2864,0 -0.5229,-0.046 -0.2365,-0.044 -0.4075,-0.1499 -0.1692,-0.1038 -0.2634,-0.273 -0.092,-0.1692 -0.092,-0.4172 0,-0.2345 0.083,-0.396 0.085,-0.1595 0.246,-0.2576 0.1634,-0.098 0.3999,-0.1403 0.2384,-0.04 0.546,-0.04 0.2845,0 0.5209,0.046 0.2384,0.046 0.4076,0.15 0.1711,0.1038 0.2634,0.273 0.094,0.1692 0.094,0.4152 0,0.2365 -0.085,0.396 -0.083,0.1615 -0.2461,0.2596 -0.1615,0.098 -0.3999,0.1384 -0.2364,0.042 -0.544,0.042 z m -0.023,-0.3384 q 0.1865,0 0.3345,-0.013 0.1481,-0.014 0.2615,-0.04 0.1134,-0.025 0.1941,-0.067 0.083,-0.04 0.1346,-0.098 0.054,-0.058 0.077,-0.1327 0.025,-0.073 0.025,-0.1653 0,-0.1634 -0.077,-0.2653 -0.077,-0.1019 -0.2115,-0.1615 -0.1345,-0.058 -0.3152,-0.079 -0.1807,-0.021 -0.3884,-0.021 -0.2787,0 -0.4748,0.029 -0.1942,0.029 -0.3172,0.09 -0.123,0.063 -0.1788,0.1596 -0.056,0.098 -0.056,0.2365 0,0.1076 0.035,0.1884 0.035,0.083 0.098,0.1403 0.065,0.06 0.1557,0.098 0.09,0.039 0.2,0.062 0.1095,0.023 0.2364,0.031 0.1288,0.01 0.2672,0.01 z" fill="#000000" fill-opacity="1" id="path60" font-size="4.37466" stroke-width="1.04169" stroke="none"/>
                    <path  style="line-height:4.25207px;font-family:Droid Sans;-inkscape-font-specification:Droid Sans;text-align:start;letter-spacing:0px;word-spacing:0px;text-anchor:start;" gorn="0.2.0.0.0.11" stroke-opacity="1" d="m 3809.8273,2938.7251 q -0.323,0 -0.5652,-0.083 -0.2403,-0.083 -0.3999,-0.2422 -0.1576,-0.1577 -0.2364,-0.3884 -0.079,-0.2307 -0.079,-0.5498 v -0.5267 q 0,-0.044 0.029,-0.085 0.031,-0.039 0.1057,-0.039 h 2.2185 q 0.075,0 0.1038,0.039 0.031,0.04 0.031,0.085 v 0.5632 q 0,0.323 -0.085,0.546 -0.083,0.223 -0.2403,0.373 -0.1557,0.1518 -0.3787,0.2287 -0.223,0.079 -0.5037,0.079 z m -0.014,-0.3479 q 0.2019,0 0.3749,-0.05 0.1749,-0.05 0.3018,-0.1576 0.1269,-0.1058 0.198,-0.2692 0.071,-0.1634 0.071,-0.421 v -0.3364 h -1.9359 v 0.3403 q 0,0.2383 0.06,0.4018 0.06,0.1634 0.1826,0.2729 0.1231,0.1096 0.3076,0.1634 0.1865,0.056 0.4402,0.056 z m -1.1496,2.6625 q -0.042,0.015 -0.069,0.015 -0.025,0 -0.038,-0.013 -0.014,-0.015 -0.017,-0.052 0,-0.035 0,-0.094 0,-0.06 0,-0.096 0,-0.035 0.01,-0.054 0.01,-0.017 0.019,-0.027 0.011,-0.01 0.029,-0.015 l 0.6056,-0.2134 v -1.0342 l -0.5979,-0.2038 q -0.017,-0.01 -0.031,-0.015 -0.012,-0.01 -0.021,-0.029 -0.01,-0.017 -0.012,-0.052 0,-0.033 0,-0.086 0,-0.056 0.01,-0.092 0,-0.035 0.017,-0.05 0.014,-0.014 0.038,-0.014 0.027,0 0.069,0.017 l 2.3107,0.8344 q 0.021,0.01 0.035,0.019 0.014,0.014 0.021,0.037 0.01,0.025 0.01,0.061 0,0.039 0,0.096 0,0.062 0,0.1018 0,0.04 -0.01,0.065 -0.01,0.025 -0.023,0.039 -0.014,0.013 -0.035,0.021 z m 2.0397,-1.0708 v 0 l -1.2399,-0.4287 v 0.8651 z m 0.1884,2.7376 q -0.037,0 -0.063,0 -0.027,0 -0.044,-0.013 -0.015,-0.01 -0.023,-0.021 -0.01,-0.012 -0.01,-0.027 v -0.6998 h -2.157 q -0.015,0 -0.027,-0.01 -0.012,-0.01 -0.019,-0.027 -0.01,-0.019 -0.01,-0.052 -0.01,-0.031 -0.01,-0.079 0,-0.046 0.01,-0.079 0,-0.033 0.01,-0.052 0.01,-0.019 0.019,-0.027 0.012,-0.01 0.027,-0.01 h 2.157 v -0.6998 q 0,-0.015 0.01,-0.029 0.01,-0.011 0.023,-0.019 0.017,-0.01 0.044,-0.014 0.027,0 0.063,0 0.037,0 0.063,0 0.029,0.01 0.046,0.014 0.017,0.01 0.025,0.019 0.01,0.013 0.01,0.029 v 1.7302 q 0,0.015 -0.01,0.027 -0.01,0.014 -0.025,0.021 -0.017,0.01 -0.046,0.013 -0.027,0 -0.063,0 z m -2.2146,1.8109 q -0.037,0 -0.062,-0.01 -0.025,-0.01 -0.04,-0.015 -0.015,-0.01 -0.023,-0.023 -0.01,-0.012 -0.01,-0.025 v -1.2996 q 0,-0.013 0.01,-0.025 0.01,-0.012 0.023,-0.023 0.015,-0.01 0.04,-0.015 0.025,-0.01 0.062,-0.01 0.035,0 0.06,0.01 0.025,0.01 0.04,0.013 0.017,0.01 0.025,0.021 0.01,0.013 0.01,0.029 v 0.5191 h 1.8916 l -0.2864,-0.4806 q -0.019,-0.037 -0.023,-0.06 0,-0.021 0.01,-0.035 0.014,-0.014 0.042,-0.019 0.029,0 0.073,0 0.033,0 0.056,0 0.023,0 0.038,0.01 0.015,0.01 0.027,0.015 0.011,0.012 0.023,0.029 l 0.3672,0.5729 q 0.01,0.01 0.01,0.019 0,0.012 0.01,0.029 0,0.017 0,0.04 0,0.023 0,0.058 0,0.046 0,0.077 0,0.031 -0.011,0.048 -0.01,0.017 -0.017,0.023 -0.01,0.01 -0.021,0.01 h -2.1857 v 0.4499 q 0,0.015 -0.01,0.029 -0.01,0.014 -0.025,0.021 -0.015,0.01 -0.04,0.014 -0.025,0.01 -0.06,0.01 z" fill="#000000" fill-opacity="1" id="path61" font-size="4.37466" stroke-width="1.04169" stroke="none"/>
                </g>
            </g>
        </g>
    </g>
    <g  gorn="0.3" id="copper0">
        <g  transform="translate(-3802.6,-2892.8)">
            <g >
                <g >
                    <g  style="display:inline" gorn="0.3.0.0.0.0" id="copper1">
                        <g  transform="translate(-9.4585,-15.700111)">
                            <g >
                                <g >
                                    <path  style="stroke-linecap:round;stroke-linejoin:round;shape-rendering:crispEdges" gorn="0.3.0.0.0.0.0.0.0.0" stroke-opacity="1" d="m 3840.3266,2915.744 v -5.9056 h 12.2047 v 5.9056 z" fill="#fdde68" fill-opacity="1" id="nonconn8" stroke-width="0" stroke="none"/>
                                </g>
                            </g>
                        </g>
                        <g  transform="translate(-9.4585,-15.700111)">
                            <g >
                                <g >
                                    <path  style="stroke-linecap:round;stroke-linejoin:round;shape-rendering:crispEdges" gorn="0.3.0.0.0.0.1.0.0.0" stroke-opacity="1" d="m 3816.4683,2915.744 v -5.9056 h 12.2048 v 5.9056 z" fill="#fdde68" fill-opacity="1" id="nonconn9" stroke-width="0" stroke="none"/>
                                </g>
                            </g>
                        </g>
                        <path  style="stroke-linecap:round;stroke-linejoin:round;shape-rendering:crispEdges" gorn="0.3.0.0.0.0.2" d="m 3808.3089,2936.4612 v -5.9056 h 3.1496 v 5.9056 z" fill="#ffc000" fill-opacity="1" id="nonconn7" stroke-width="0" stroke="none"/>
                        <path  style="stroke-linecap:round;stroke-linejoin:round;shape-rendering:crispEdges" gorn="0.3.0.0.0.0.3" d="m 3812.6393,2936.4612 v -5.9056 h 3.1496 v 5.9056 z" fill="#ffc000" fill-opacity="1" id="nonconn6" stroke-width="0" stroke="none"/>
                        <path  style="stroke-linecap:round;stroke-linejoin:round;shape-rendering:crispEdges" gorn="0.3.0.0.0.0.4" d="m 3816.9699,2936.4612 v -5.9056 h 3.1496 v 5.9056 z" fill="#ffc000" fill-opacity="1" id="nonconn5" stroke-width="0" stroke="none"/>
                        <path  style="stroke-linecap:round;stroke-linejoin:round;shape-rendering:crispEdges" gorn="0.3.0.0.0.0.5" d="m 3821.3012,2936.4612 v -5.9056 h 3.1496 v 5.9056 z" fill="#ffc000" fill-opacity="1" id="nonconn4" stroke-width="0" stroke="none"/>
                        <path  style="stroke-linecap:round;stroke-linejoin:round;shape-rendering:crispEdges" gorn="0.3.0.0.0.0.6" d="m 3825.6316,2936.4612 v -5.9056 h 3.1496 v 5.9056 z" fill="#ffc000" fill-opacity="1" id="nonconn3" stroke-width="0" stroke="none"/>
                        <path  style="stroke-linecap:round;stroke-linejoin:round;shape-rendering:crispEdges" gorn="0.3.0.0.0.0.7" d="m 3829.962,2936.4612 v -5.9056 h 3.1496 v 5.9056 z" fill="#ffc000" fill-opacity="1" id="nonconn2" stroke-width="0" stroke="none"/>
                        <path  style="stroke-linecap:round;stroke-linejoin:round;shape-rendering:crispEdges" gorn="0.3.0.0.0.0.8" d="m 3834.2935,2936.4612 v -5.9056 h 3.1496 v 5.9056 z" fill="#ffc000" fill-opacity="1" id="nonconn1" stroke-width="0" stroke="none"/>
                        <path  style="stroke-linecap:round;stroke-linejoin:round;shape-rendering:crispEdges" gorn="0.3.0.0.0.0.9" d="m 3838.6239,2936.4612 v -5.9056 h 3.1496 v 5.9056 z" fill="#ffc000" fill-opacity="1" id="nonconn0" stroke-width="0" stroke="none"/>
                        <circle  gorn="0.3.0.0.0.0.10" fill="none" id="connector8pin" cy="2929.1121" cx="3809.8838" r="1.29713" stroke="#ffc000" stroke-width="0.8"/>
                        <circle  style="display:inline" gorn="0.3.0.0.0.0.11" fill="none" id="connector7pin" cy="2929.1121" cx="3814.2141" r="1.29713" stroke="#ffc000" stroke-width="0.8"/>
                        <circle  style="display:inline" gorn="0.3.0.0.0.0.12" fill="none" id="connector6pin" cy="2929.1121" cx="3818.5447" r="1.29713" stroke="#ffc000" stroke-width="0.8"/>
                        <circle  style="display:inline" gorn="0.3.0.0.0.0.13" fill="none" id="connector5pin" cy="2929.1121" cx="3822.876" r="1.29713" stroke="#ffc000" stroke-width="0.8"/>
                        <circle  style="display:inline" gorn="0.3.0.0.0.0.14" fill="none" id="connector4pin" cy="2929.1121" cx="3827.2063" r="1.29713" stroke="#ffc000" stroke-width="0.8"/>
                        <circle  style="display:inline" gorn="0.3.0.0.0.0.15" fill="none" id="connector3pin" cy="2929.1121" cx="3831.5369" r="1.29713" stroke="#ffc000" stroke-width="0.8"/>
                        <circle  style="display:inline" gorn="0.3.0.0.0.0.16" fill="none" id="connector2pin" cy="2929.1121" cx="3835.8684" r="1.29713" stroke="#ffc000" stroke-width="0.8"/>
                        <circle  style="display:inline" gorn="0.3.0.0.0.0.17" fill="none" id="connector1pin" cy="2929.1121" cx="3840.1987" r="1.29713" stroke="#ffc000" stroke-width="0.8"/>
                        <circle  style="display:inline" gorn="0.3.0.0.0.0.18" fill="none" id="connector9pin" cy="2901.2781" cx="3836.9705" r="1.29713" stroke="#ffc000" stroke-width="0.8"/>
                        <circle  style="display:inline" gorn="0.3.0.0.0.0.19" fill="none" id="connector10pin" cy="2901.2781" cx="3813.1123" r="1.29713" stroke="#ffc000" stroke-width="0.8"/>
                    </g>
                </g>
            </g>
        </g>
    </g>
</svg>
