<?xml version='1.0' encoding='UTF-8' standalone='no'?>
<svg xmlns="http://www.w3.org/2000/svg" gorn="0" height="3.7mm" id="svg5"  viewBox="0 0 14.567592 14.566573" width="3.7mm" version="1.1">
    <desc >
        <referenceFile >SOT-23-5-PCB.svg</referenceFile>
    </desc>
    <g  transform="translate(-3961,-2977.6)">
        <g >
            <g >
                <g >
                    <g >
                        <g >
                            <defs id="defs5" />
                            <g gorn="0.1.0.0.0.0.0.1" id="silkscreen" >
                                <path gorn="0.1.0.0.0.0.0.1.0" stroke="none" id="path47"  stroke-width="0" fill="#000000" stroke-opacity="1" fill-opacity="1" d="m 3971.8272,2989.9114 a 0.50002277,0.50002277 0 0 0 -0.5,0.5 v 0.5742 a 0.50002277,0.50002277 0 0 0 0.5,0.5 0.50002277,0.50002277 0 0 0 0.5,-0.5 v -0.5742 a 0.50002277,0.50002277 0 0 0 -0.5,-0.5 z" style="baseline-shift:baseline;display:inline;overflow:visible;stroke-linecap:round;stroke-linejoin:round;shape-rendering:crispEdges;enable-background:accumulate;stop-color:#000000;stroke-dasharray:none;"/>
                                <path gorn="0.1.0.0.0.0.0.1.1" stroke="none" id="path45"  stroke-width="0" fill="#000000" stroke-opacity="1" fill-opacity="1" d="m 3971.8272,2986.1712 a 0.50002277,0.50002277 0 0 0 -0.5,0.5 v 0.164 a 0.50002277,0.50002277 0 0 0 0.5,0.5 0.50002277,0.50002277 0 0 0 0.5,-0.5 v -0.164 a 0.50002277,0.50002277 0 0 0 -0.5,-0.5 z" style="baseline-shift:baseline;display:inline;overflow:visible;stroke-linecap:round;stroke-linejoin:round;shape-rendering:crispEdges;enable-background:accumulate;stop-color:#000000;stroke-dasharray:none;"/>
                                <path gorn="0.1.0.0.0.0.0.1.2" stroke="none" id="path43"  stroke-width="0" fill="#000000" stroke-opacity="1" fill-opacity="1" d="m 3971.8272,2982.4309 a 0.50002277,0.50002277 0 0 0 -0.5,0.5 v 0.1641 a 0.50002277,0.50002277 0 0 0 0.5,0.5 0.50002277,0.50002277 0 0 0 0.5,-0.5 v -0.1641 a 0.50002277,0.50002277 0 0 0 -0.5,-0.5 z" style="baseline-shift:baseline;display:inline;overflow:visible;stroke-linecap:round;stroke-linejoin:round;shape-rendering:crispEdges;enable-background:accumulate;stop-color:#000000;stroke-dasharray:none;"/>
                                <path gorn="0.1.0.0.0.0.0.1.3" stroke="none" id="path41"  stroke-width="0" fill="#000000" stroke-opacity="1" fill-opacity="1" d="m 3971.8272,2978.2805 a 0.50002277,0.50002277 0 0 0 -0.5,0.5 v 0.5743 a 0.50002277,0.50002277 0 0 0 0.5,0.5 0.50002277,0.50002277 0 0 0 0.5,-0.5 v -0.5743 a 0.50002277,0.50002277 0 0 0 -0.5,-0.5 z" style="baseline-shift:baseline;display:inline;overflow:visible;stroke-linecap:round;stroke-linejoin:round;shape-rendering:crispEdges;enable-background:accumulate;stop-color:#000000;stroke-dasharray:none;"/>
                                <path gorn="0.1.0.0.0.0.0.1.4" stroke="none" id="path39"  stroke-width="0" fill="#000000" stroke-opacity="1" fill-opacity="1" d="m 3964.7393,2989.9114 a 0.50002277,0.50002277 0 0 0 -0.5,0.5 v 0.5742 a 0.50002277,0.50002277 0 0 0 0.5,0.5 0.50002277,0.50002277 0 0 0 0.502,-0.5 v -0.5742 a 0.50002277,0.50002277 0 0 0 -0.502,-0.5 z" style="baseline-shift:baseline;display:inline;overflow:visible;stroke-linecap:round;stroke-linejoin:round;shape-rendering:crispEdges;enable-background:accumulate;stop-color:#000000;stroke-dasharray:none;"/>
                                <path gorn="0.1.0.0.0.0.0.1.5" stroke="none" id="path37"  stroke-width="0" fill="#000000" stroke-opacity="1" fill-opacity="1" d="m 3964.7393,2982.4309 a 0.50002277,0.50002277 0 0 0 -0.5,0.5 v 3.9043 a 0.50002277,0.50002277 0 0 0 0.5,0.5 0.50002277,0.50002277 0 0 0 0.502,-0.5 v -3.9043 a 0.50002277,0.50002277 0 0 0 -0.502,-0.5 z" style="baseline-shift:baseline;display:inline;overflow:visible;stroke-linecap:round;stroke-linejoin:round;shape-rendering:crispEdges;enable-background:accumulate;stop-color:#000000;stroke-dasharray:none;"/>
                                <path gorn="0.1.0.0.0.0.0.1.6" stroke="none" id="path35"  stroke-width="0" fill="#000000" stroke-opacity="1" fill-opacity="1" d="m 3964.7393,2978.2805 a 0.50002277,0.50002277 0 0 0 -0.5,0.5 v 0.5743 a 0.50002277,0.50002277 0 0 0 0.5,0.5 0.50002277,0.50002277 0 0 0 0.502,-0.5 v -0.5743 a 0.50002277,0.50002277 0 0 0 -0.502,-0.5 z" style="baseline-shift:baseline;display:inline;overflow:visible;stroke-linecap:round;stroke-linejoin:round;shape-rendering:crispEdges;enable-background:accumulate;stop-color:#000000;stroke-dasharray:none;"/>
                                <path gorn="0.1.0.0.0.0.0.1.7" stroke="none" id="path33"  stroke-width="0" fill="#000000" stroke-opacity="1" fill-opacity="1" d="m 3964.7393,2978.2805 a 0.50002277,0.50002277 0 0 0 -0.5,0.5 0.50002277,0.50002277 0 0 0 0.5,0.5 h 7.0879 a 0.50002277,0.50002277 0 0 0 0.5,-0.5 0.50002277,0.50002277 0 0 0 -0.5,-0.5 z" style="baseline-shift:baseline;display:inline;overflow:visible;stroke-linecap:round;stroke-linejoin:round;shape-rendering:crispEdges;enable-background:accumulate;stop-color:#000000;stroke-dasharray:none;"/>
                                <path gorn="0.1.0.0.0.0.0.1.8" stroke="none" id="path31"  stroke-width="0" fill="#000000" stroke-opacity="1" fill-opacity="1" d="m 3964.7393,2990.4856 a 0.50002277,0.50002277 0 0 0 -0.5,0.5 0.50002277,0.50002277 0 0 0 0.5,0.5 h 7.0879 a 0.50002277,0.50002277 0 0 0 0.5,-0.5 0.50002277,0.50002277 0 0 0 -0.5,-0.5 z" style="baseline-shift:baseline;display:inline;overflow:visible;stroke-linecap:round;stroke-linejoin:round;shape-rendering:crispEdges;enable-background:accumulate;stop-color:#000000;stroke-dasharray:none;"/>
                                <path gorn="0.1.0.0.0.0.0.1.9" stroke="none" id="path29"  stroke-width="0" fill="#000000" stroke-opacity="1" fill-opacity="1" d="m 3969.7832,2987.6777 c -0.2872,0 -0.5817,0.094 -0.8164,0.3047 -0.2332,0.2092 -0.3793,0.5424 -0.377,0.9004 0,0.358 0.1438,0.6931 0.377,0.9024 0.2347,0.2105 0.5292,0.3027 0.8164,0.3027 0.2872,0 0.5817,-0.092 0.8164,-0.3027 0.2332,-0.2093 0.3813,-0.5444 0.3789,-0.9024 0,-0.358 -0.1457,-0.6912 -0.3789,-0.9004 -0.2347,-0.2105 -0.5292,-0.3047 -0.8164,-0.3047 z m 0,1 c 0.064,0 0.1211,0.024 0.1484,0.049 0.027,0.024 0.05,0.041 0.049,0.1504 v 0.01 0.01 c 0,0.1096 -0.022,0.1258 -0.049,0.1504 -0.027,0.024 -0.084,0.049 -0.1484,0.049 -0.064,0 -0.1211,-0.024 -0.1484,-0.049 -0.027,-0.025 -0.048,-0.041 -0.047,-0.1504 v -0.01 -0.01 c 0,-0.1096 0.019,-0.1259 0.047,-0.1504 0.027,-0.025 0.084,-0.049 0.1484,-0.049 z" style="baseline-shift:baseline;display:inline;overflow:visible;enable-background:accumulate;stop-color:#000000;stroke-dasharray:none;"/>
                                <path gorn="0.1.0.0.0.0.0.1.10" stroke="none" id="path29-6"  stroke-width="0" fill="#000000" stroke-opacity="1" fill-opacity="1" d="m 3974.3724,2989.805 c -0.2872,0 -0.5817,0.094 -0.8164,0.3047 -0.2332,0.2092 -0.3793,0.5424 -0.377,0.9004 0,0.358 0.1438,0.6931 0.377,0.9024 0.2347,0.2105 0.5292,0.3027 0.8164,0.3027 0.2872,0 0.5817,-0.092 0.8164,-0.3027 0.2332,-0.2093 0.3813,-0.5444 0.3789,-0.9024 0,-0.358 -0.1457,-0.6912 -0.3789,-0.9004 -0.2347,-0.2105 -0.5292,-0.3047 -0.8164,-0.3047 z m 0,1 c 0.064,0 0.1211,0.024 0.1484,0.049 0.027,0.024 0.05,0.041 0.049,0.1504 v 0.01 0.01 c 0,0.1096 -0.022,0.1258 -0.049,0.1504 -0.027,0.024 -0.084,0.049 -0.1484,0.049 -0.064,0 -0.1211,-0.024 -0.1484,-0.049 -0.027,-0.025 -0.048,-0.041 -0.047,-0.1504 v -0.01 -0.01 c 0,-0.1096 0.019,-0.1259 0.047,-0.1504 0.027,-0.025 0.084,-0.049 0.1484,-0.049 z" style="baseline-shift:baseline;display:inline;overflow:visible;stroke-dasharray:none;enable-background:accumulate;stop-color:#000000"/>
                            </g>
                            <g gorn="0.1.0.0.0.0.0.2" id="copper1" >
                                <path gorn="0.1.0.0.0.0.0.2.0" stroke="none" id="connector3pin"  fill="#FFC000" d="m 3961,2987.4429 v 2.3621 h 4.3296 v -2.3621 z"/>
                                <path gorn="0.1.0.0.0.0.0.2.1" stroke="none" id="connector2pin"  fill="#FFC000" d="m 3961,2979.9617 v 2.3621 h 4.3296 v -2.3621 z"/>
                                <path gorn="0.1.0.0.0.0.0.2.2" stroke="none" id="connector1pin"  fill="#ffc000" d="m 3971.2361,2979.9617 v 2.3621 h 4.3316 v -2.3621 z"/>
                                <path gorn="0.1.0.0.0.0.0.2.3" stroke="none" id="connector0pin"  fill="#ffc000" d="m 3971.2361,2983.7012 v 2.3622 h 4.3316 v -2.3622 z"/>
                                <path gorn="0.1.0.0.0.0.0.2.4" stroke="none" id="padpin"  fill="#ffc000" d="m 3971.2361,2987.4429 v 2.3621 h 4.3316 v -2.3621 z"/>
                            </g>
                        </g>
                    </g>
                </g>
            </g>
        </g>
    </g>
</svg>
