<?xml version='1.0' encoding='UTF-8' standalone='no'?>
<svg xmlns="http://www.w3.org/2000/svg" gorn="0" id="svg2"  version="1.1" height="3.9519999mm" viewBox="0 0 27.37054 15.559054" width="6.9520001mm">
    <desc >
        <referenceFile >CRYSTAL-SMD5032-2P-L5.0-W3.2_2024-05-04.svg</referenceFile>
    </desc>
    <g transform="translate(-3942.8,-2979.7)" >
        <g >
            <g >
                <defs id="defs2" />
                <g transform="translate(-9.6946,-9.7474949)" >
                    <g >
                        <g gorn="0.1.0.0.1.0.0" id="silkscreen" >
                            <path gorn="0.1.0.0.1.0.0.0" id="path10"  fill="black" d="m 3953.0927,3004.4092 v 0.297 c 0,0.1652 -0.1339,0.299 -0.299,0.2991 h 26.7704 c -0.1651,-10e-5 -0.299,-0.1339 -0.2991,-0.2991 v -0.297 z" stroke="none"/>
                            <path gorn="0.1.0.0.1.0.0.1" id="path9"  fill="black" d="m 3952.7937,2989.4472 c -0.041,0 -0.08,0.01 -0.116,0.024 0.036,-0.015 0.075,-0.024 0.116,-0.024 z m -0.116,0.024 c -0.036,0.015 -0.069,0.036 -0.096,0.063 0.027,-0.027 0.06,-0.048 0.096,-0.063 z m -0.096,0.063 c -0.027,0.027 -0.048,0.06 -0.063,0.096 0.015,-0.036 0.036,-0.069 0.063,-0.096 z m -0.063,0.096 c -0.015,0.036 -0.024,0.075 -0.024,0.116 0,-0.041 0.01,-0.08 0.024,-0.116 z m -0.024,0.116 v 14.9599 c 10e-5,0.1652 0.1339,0.299 0.2991,0.2991 0.1651,-1e-4 0.299,-0.1339 0.299,-0.2991 v -14.6609 h -0.299 c -0.1652,0 -0.299,-0.1339 -0.2991,-0.299 z" stroke="none"/>
                            <path gorn="0.1.0.0.1.0.0.2" id="path8"  fill="black" d="m 3979.5641,2989.4472 c 0.041,0 0.08,0.01 0.116,0.024 -0.036,-0.015 -0.075,-0.024 -0.116,-0.024 z m 0.116,0.024 c 0.036,0.015 0.069,0.036 0.096,0.063 -0.027,-0.027 -0.06,-0.048 -0.096,-0.063 z m 0.096,0.063 c 0.027,0.027 0.048,0.06 0.063,0.096 -0.015,-0.036 -0.036,-0.069 -0.063,-0.096 z m 0.063,0.096 c 0.015,0.036 0.024,0.075 0.024,0.116 0,-0.041 -0.01,-0.08 -0.024,-0.116 z m 0.024,0.116 c -1e-4,0.1651 -0.1339,0.299 -0.2991,0.299 h -0.2991 v 14.6609 c 10e-5,0.1652 0.134,0.299 0.2991,0.2991 0.1652,-1e-4 0.299,-0.1339 0.2991,-0.2991 z" stroke="none"/>
                            <path gorn="0.1.0.0.1.0.0.3" id="path7"  fill="black" d="m 3952.7937,2989.4472 c -0.1652,10e-5 -0.299,0.1339 -0.2991,0.2991 1e-4,0.1651 0.1339,0.299 0.2991,0.299 h 26.7704 c 0.1652,0 0.299,-0.1339 0.2991,-0.299 -10e-5,-0.1652 -0.1339,-0.299 -0.2991,-0.2991 z" stroke="none"/>
                            <path gorn="0.1.0.0.1.0.0.4" id="path6"  fill="black" d="m 3963.0091,2997.0299 c -0.1,0.01 -0.1773,0.095 -0.177,0.1974 -3e-4,0.1091 0.088,0.1976 0.1973,0.1973 h 0.9847 v -0.3947 h -0.9847 c -0.01,0 -0.014,-6e-4 -0.02,0 z" stroke="none"/>
                            <path gorn="0.1.0.0.1.0.0.5" id="path5"  fill="black" d="m 3965.0009,2993.0931 c -0.1083,-3e-4 -0.1965,0.087 -0.1974,0.1953 v 7.8716 c -2e-4,0.1091 0.088,0.1976 0.1974,0.1974 h 2.358 c 0.1091,3e-4 0.1977,-0.088 0.1974,-0.1974 v -7.8716 c -9e-4,-0.1083 -0.089,-0.1956 -0.1974,-0.1953 z m 0.1973,0.3926 h 1.9654 v 7.477 h -1.9654 z" stroke="none"/>
                            <path gorn="0.1.0.0.1.0.0.6" id="path4"  fill="black" d="m 3968.3436,2997.0299 v 0.3947 h 0.9848 c 0.1091,3e-4 0.1976,-0.088 0.1973,-0.1973 3e-4,-0.1091 -0.088,-0.1977 -0.1973,-0.1974 z" stroke="none"/>
                            <path gorn="0.1.0.0.1.0.0.7" id="path3"  fill="black" d="m 3968.1483,2993.091 c -0.1091,-2e-4 -0.1976,0.088 -0.1973,0.1974 v 7.8757 c 8e-4,0.1083 0.089,0.1956 0.1973,0.1953 0.1075,-8e-4 0.1945,-0.088 0.1953,-0.1953 v -7.8757 c 3e-4,-0.1083 -0.087,-0.1965 -0.1953,-0.1974 z" stroke="none"/>
                            <path gorn="0.1.0.0.1.0.0.8" id="path2"  fill="black" d="m 3964.2115,2993.091 a 0.19685,0.19685 0 0 0 -0.1974,0.1974 v 7.8757 a 0.19685,0.19685 0 0 0 0.1974,0.1953 0.19685,0.19685 0 0 0 0.1973,-0.1953 v -7.8757 a 0.19685,0.19685 0 0 0 -0.1973,-0.1974 z" stroke="none"/>
                        </g>
                    </g>
                </g>
                <g transform="translate(-9.6946,-9.7474949)" >
                    <g >
                        <g gorn="0.1.0.0.2.0.0" id="copper1" >
                            <path gorn="0.1.0.0.2.0.0.0" id="connector1pin"  fill="#ffc000" d="m 3970.3131,2992.501 v 9.4484 h 7.8736 v -9.4484 z" stroke="none"/>
                            <path gorn="0.1.0.0.2.0.0.1" id="connector0pin"  fill="#ffc000" d="m 3954.171,2992.501 v 9.4484 h 7.8737 v -9.4484 z" stroke="none"/>
                        </g>
                    </g>
                </g>
            </g>
        </g>
    </g>
</svg>
