<?xml version='1.0' encoding='UTF-8' standalone='no'?>
<!-- Created with Fritzing (http://www.fritzing.org/) -->
<svg xmlns="http://www.w3.org/2000/svg" version="1.2" id="svg9" viewBox="0 0 2.0409987 1.1499991" height="1.15mm"  y="0in" x="0in" gorn="0" width="2.0409999mm">
    <desc >
        <referenceFile >0402-JLCBPCB.svg</referenceFile>
    </desc>
    <defs id="defs13" />
    <g id="silkscreen"  gorn="0.2">
        <g  transform="scale(0.26458333)">
            <g >
                <g >
                    <g >
                        <g >
                            <g >
                                <path stroke="none" fill="black" d="M 0 0 L 0 0.56640625 L 0 4.3457031 L 0.56640625 4.3457031 L 3.4785156 4.3457031 L 3.4785156 3.7792969 L 0.56640625 3.7792969 L 0.56640625 0.56640625 L 3.4785156 0.56640625 L 3.4785156 0 L 0 0 z M 4.234375 0 L 4.234375 0.56640625 L 7.1464844 0.56640625 L 7.1464844 3.7792969 L 4.234375 3.7792969 L 4.234375 4.3457031 L 7.1464844 4.3457031 L 7.7148438 4.3457031 L 7.7148438 3.7792969 L 7.7148438 0.56640625 L 7.7148438 0 L 7.1464844 0 L 4.234375 0 z " id="rect6586"  gorn="0.2.0.0.0.0.0.0.0"/>
                            </g>
                        </g>
                    </g>
                </g>
            </g>
        </g>
    </g>
    <g  transform="translate(4.9114227e-5,2.0210445e-4)">
        <g >
            <g >
                <g >
                    <g >
                        <g >
                            <g id="copper1"  gorn="0.3.0.0.0.0.0.0">
                                <rect stroke="none" fill="#ffcc00" id="connector0pad" height="0.78026074"  y="0.18466751" x="0.19045076" gorn="0.3.0.0.0.0.0.0.0" width="0.73000002"/>
                                <rect stroke="none" fill="#FFC000" id="connector1pad" height="0.77999997"  y="0.1847979" x="1.1204509" gorn="0.3.0.0.0.0.0.0.1" width="0.73000002"/>
                            </g>
                        </g>
                    </g>
                </g>
            </g>
        </g>
    </g>
</svg>
