<?xml version='1.0' encoding='UTF-8' standalone='no'?>
<!-- Created with Inkscape (http://www.inkscape.org/) -->
<svg xmlns="http://www.w3.org/2000/svg" version="1.1" width="1.8mm" gorn="0"  height="1.6mm" viewBox="0 0 1.7999999 1.6" id="svg1">
    <desc >
        <referenceFile >UQFN-6.svg</referenceFile>
    </desc>
    <defs  id="defs1"/>
    <g gorn="0.2"  id="layer1">
        <g gorn="0.2.0"  id="silkscreen">
            <path stroke="none" gorn="0.2.0.0" d="m 0.1,0.29544753 c 0.0554,0 0.1,0.0446 0.1,0.1 V 1.1954475 c 0,0.0554 -0.0446,0.1 -0.1,0.1 -0.0554,0 -0.1,-0.0446 -0.1,-0.1 V 0.39544753 c 0,-0.0554 0.0446,-0.1 0.1,-0.1 z"  id="rect8" fill="#000000"/>
            <path stroke="none" gorn="0.2.0.1" d="m 1.7,0.30000003 c 0.0554,0 0.1,0.0446 0.1,0.1 V 1.2 C 1.8,1.2554 1.7554,1.3 1.7,1.3 1.6446,1.3 1.6,1.2554 1.6,1.2 V 0.40000003 c 0,-0.0554 0.0446,-0.1 0.1,-0.1 z"  id="rect8-7" fill="#000000"/>
            <path stroke="none" gorn="0.2.0.2" d="M 0,1.5 A 0.1,0.1 0 0 0 0.1,1.6 0.1,0.1 0 0 0 0.2,1.5 0.1,0.1 0 0 0 0.1,1.4 0.1,0.1 0 0 0 0,1.5 Z"  id="path9" fill="black"/>
        </g>
        <g transform="translate(0.27497353)" >
            <g >
                <g >
                    <g gorn="0.2.1.0.0.0"  id="copper1">
                        <path stroke="none" gorn="0.2.1.0.0.0.0" d="M -0.02494303,0.90000001 V 1.6 h 0.3 V 0.90000001 Z"  id="connector0pad" fill="#ffc000"/>
                        <path stroke="none" gorn="0.2.1.0.0.0.1" d="M 0.62471589,0.90000001 C 0.54192875,0.90027282 0.47498818,0.96049146 0.47502646,1.0346582 V 1.6 H 0.77502643 V 1.0346582 C 0.77506428,0.96027456 0.70774575,0.89996611 0.62471589,0.90000001 Z"  id="connector1pad" fill="#ffc000"/>
                        <path stroke="none" gorn="0.2.1.0.0.0.2" d="M 1.1249959,0.90000001 C 1.0421377,0.89996611 0.97495818,0.96027456 0.97499594,1.0346582 V 1.6 H 1.2749959 V 1.0346582 c 3.78e-5,-0.0743842 -0.067142,-0.13469209 -0.15,-0.13465819 z"  id="connector2pad" fill="#ffc000"/>
                        <path stroke="none" gorn="0.2.1.0.0.0.3" d="m 0.47506506,3.1e-7 v 0.56534181 c -3.827e-5,0.0741667 0.0668816,0.13438537 0.14964315,0.13465818 0.0830041,3.391e-5 0.1503019,-0.0602745 0.15026406,-0.13465818 1.2369e-4,-0.003152 1.2369e-4,-0.006308 0,-0.00946 V 0 Z"  id="connector4pad" fill="#ffc000"/>
                        <path stroke="none" gorn="0.2.1.0.0.0.4" d="m -0.02494302,0 v 0.56534181 c -3.777e-5,0.0743836 0.06714172,0.13469209 0.14999999,0.13465818 0.0828582,3.391e-5 0.15003775,-0.0602745 0.14999998,-0.13465818 V 0 Z"  id="connector5pad" fill="#ffc000"/>
                        <path stroke="none" gorn="0.2.1.0.0.0.5" d="m 0.97499594,0 v 0.56534181 a 0.14993166,0.13459684 0 0 0 0.14999996,0.13465818 0.14993166,0.13459684 0 0 0 0.15,-0.13465818 V 0 Z"  id="connector3pad" fill="#ffc000"/>
                    </g>
                </g>
            </g>
        </g>
    </g>
</svg>
