<?xml version='1.0' encoding='UTF-8' standalone='no'?>
<svg xmlns="http://www.w3.org/2000/svg" id="svg4" height="3.54mm" viewBox="0 0 13.93636 13.937576" gorn="0" width="3.54mm"  version="1.1">
    <desc >
        <referenceFile >XC6206P332MR.svg</referenceFile>
    </desc>
    <g  transform="translate(-4033,-3027.5)">
        <g >
            <g >
                <defs id="defs4" />
                <g  transform="translate(0.00165917,0.62078817)">
                    <g >
                        <g id="silkscreen" gorn="0.1.0.0.1.0.0" >
                            <g  transform="translate(-10.032979,-16.152)">
                                <g >
                                    <path id="gge37" fill="black" d="m 4046.5508,3043.6523 a 0.30003001,0.30003001 0 0 0 -0.3008,0.2989 v 4.1015 a 0.30000001,0.30000001 0 0 0 0.3008,0.3008 0.30000001,0.30000001 0 0 0 0.2988,-0.3008 v -3.8007 h 6.5996 a 0.30000001,0.30000001 0 0 0 0.3008,-0.3008 0.30000001,0.30000001 0 0 0 -0.3008,-0.2989 z" gorn="0.1.0.0.1.0.0.0.0.0" stroke="none" />
                                </g>
                            </g>
                            <g  transform="translate(-10.032979,-16.152)">
                                <g >
                                    <path id="gge40" fill="black" d="m 4046.5508,3051.6465 a 0.30000001,0.30000001 0 0 0 -0.3008,0.3008 v 4.1015 a 0.30003001,0.30003001 0 0 0 0.3008,0.2989 h 6.8984 a 0.30000001,0.30000001 0 0 0 0.3008,-0.2989 0.30000001,0.30000001 0 0 0 -0.3008,-0.3008 h -6.5996 v -3.8007 a 0.30000001,0.30000001 0 0 0 -0.2988,-0.3008 z" gorn="0.1.0.0.1.0.0.1.0.0" stroke="none" />
                                </g>
                            </g>
                            <g  transform="translate(-10.032979,-16.152)">
                                <g >
                                    <path id="gge43" fill="black" d="m 4053.4492,3047.9063 a 0.30000001,0.30000001 0 0 0 -0.3008,0.3007 v 3.586 a 0.30000001,0.30000001 0 0 0 0.3008,0.3008 0.30000001,0.30000001 0 0 0 0.3008,-0.3008 v -3.586 a 0.30000001,0.30000001 0 0 0 -0.3008,-0.3007 z" gorn="0.1.0.0.1.0.0.2.0.0" stroke="none" />
                                </g>
                            </g>
                        </g>
                    </g>
                </g>
                <g  transform="translate(0.00115917,0.62078817)">
                    <g >
                        <g id="copper1" gorn="0.1.0.0.2.0.0" >
                            <g  transform="translate(-10.032979,-16.152)">
                                <g >
                                    <path id="connector1pad" fill="#ffc000" d="m 4052.7559,3054.9211 v -2.3622 h 4.2126 v 2.3622 z" gorn="0.1.0.0.2.0.0.0.0.0" stroke="none" />
                                </g>
                            </g>
                            <g  transform="translate(-10.032979,-16.152)">
                                <g >
                                    <path id="connector2pad" fill="#ffc000" d="m 4052.7559,3047.4411 v -2.3622 h 4.2126 v 2.3622 z" gorn="0.1.0.0.2.0.0.1.0.0" stroke="none" />
                                </g>
                            </g>
                            <g  transform="translate(-10.032979,-16.152)">
                                <g >
                                    <path id="connector0pad" fill="#ffc000" d="m 4043.0315,3051.1811 v -2.3622 h 4.2126 v 2.3622 z" gorn="0.1.0.0.2.0.0.2.0.0" />
                                </g>
                            </g>
                        </g>
                    </g>
                </g>
            </g>
        </g>
    </g>
</svg>
