<?xml version='1.0' encoding='UTF-8' standalone='no'?>
<svg xmlns="http://www.w3.org/2000/svg" width="5.4299998mm" version="1.1"  height="9.3100004mm" viewBox="0 0 21.377951 36.654008" gorn="0" id="svg9">
    <desc >
        <referenceFile >SOIC-8.svg</referenceFile>
    </desc>
    <g  transform="translate(-4028.9,-3015.5)">
        <g >
            <g >
                <defs  id="defs9"/>
                <g  transform="translate(-10.41076,-16.17285)">
                    <g >
                        <g  gorn="0.1.0.0.1.0.0" id="silkscreen">
                            <path stroke-opacity="1" stroke="none" fill="#000000"  fill-opacity="1" gorn="0.1.0.0.1.0.0.0" d="m 4039.6113,3041.1309 a 0.30003001,0.30003001 0 0 0 -0.3008,0.3007 v 17.1368 a 0.30000001,0.30000001 0 0 0 0.3008,0.3007 h 20.7774 a 0.30003001,0.30003001 0 0 0 0.3008,-0.3007 v -17.1368 a 0.30003001,0.30003001 0 0 0 -0.3008,-0.3007 z m 0.3008,0.6015 h 20.1758 v 16.5352 h -20.1758 z" id="gge28" style="color:#000000;stroke-linecap:round;stroke-linejoin:round;-inkscape-shape-rendering:crispEdges"/>
                            <path stroke-opacity="1" stroke="none" fill="#000000"  fill-opacity="1" gorn="0.1.0.0.1.0.0.1" d="m 4042.5,3054.4238 c -0.6456,0 -1.1816,0.5361 -1.1816,1.1817 0,0.6455 0.536,1.1816 1.1816,1.1816 0.6456,0 1.1816,-0.5361 1.1816,-1.1816 0,-0.6456 -0.536,-1.1817 -1.1816,-1.1817 z" id="gge31" style="color:#000000;-inkscape-shape-rendering:crispEdges"/>
                            <path stroke-width="0.666366" stroke-opacity="1" stroke="none" fill="#000000"  fill-opacity="1" gorn="0.1.0.0.1.0.0.2" d="m 4040.098,3066.7521 c 0.4302,0 0.7874,0.3572 0.7874,0.7874 0,0.4302 -0.3572,0.7874 -0.7874,0.7874 -0.4302,0 -0.7874,-0.3572 -0.7874,-0.7874 0,-0.4302 0.3572,-0.7874 0.7874,-0.7874 z" id="gge34" style="color:#000000;-inkscape-shape-rendering:crispEdges"/>
                        </g>
                    </g>
                </g>
                <g  transform="translate(-10.41076,-16.17285)">
                    <g >
                        <g  gorn="0.1.0.0.2.0.0" id="copper1">
                            <path stroke-opacity="1" stroke="none" fill="#ffc000"  fill-opacity="1" gorn="0.1.0.0.2.0.0.0" d="m 4042.5,3031.6719 a 1.24015,1.24015 0 0 0 -1.2402,1.2402 v 6.3789 a 1.24015,1.24015 0 0 0 1.2402,1.2403 1.24015,1.24015 0 0 0 1.2402,-1.2403 v -6.3789 a 1.24015,1.24015 0 0 0 -1.2402,-1.2402 z" id="connector7pad" style="color:#000000;stroke-linecap:round;stroke-linejoin:round;-inkscape-shape-rendering:crispEdges;"/>
                            <path stroke-opacity="1" stroke="none" fill="#ffc000"  fill-opacity="1" gorn="0.1.0.0.2.0.0.1" d="m 4047.5,3031.6719 a 1.24015,1.24015 0 0 0 -1.2402,1.2402 v 6.3789 a 1.24015,1.24015 0 0 0 1.2402,1.2403 1.24015,1.24015 0 0 0 1.2402,-1.2403 v -6.3789 a 1.24015,1.24015 0 0 0 -1.2402,-1.2402 z" id="connector6pad" style="color:#000000;stroke-linecap:round;stroke-linejoin:round;-inkscape-shape-rendering:crispEdges;"/>
                            <path stroke-opacity="1" stroke="none" fill="#ffc000"  fill-opacity="1" gorn="0.1.0.0.2.0.0.2" d="m 4052.5,3031.6719 a 1.24015,1.24015 0 0 0 -1.2402,1.2402 v 6.3789 a 1.24015,1.24015 0 0 0 1.2402,1.2403 1.24015,1.24015 0 0 0 1.2402,-1.2403 v -6.3789 a 1.24015,1.24015 0 0 0 -1.2402,-1.2402 z" id="connector5pad" style="color:#000000;stroke-linecap:round;stroke-linejoin:round;-inkscape-shape-rendering:crispEdges;"/>
                            <path stroke-opacity="1" stroke="none" fill="#ffc000"  fill-opacity="1" gorn="0.1.0.0.2.0.0.3" d="m 4057.5,3031.6719 a 1.24015,1.24015 0 0 0 -1.2402,1.2402 v 6.3789 a 1.24015,1.24015 0 0 0 1.2402,1.2403 1.24015,1.24015 0 0 0 1.2402,-1.2403 v -6.3789 a 1.24015,1.24015 0 0 0 -1.2402,-1.2402 z" id="connector4pad" style="color:#000000;stroke-linecap:round;stroke-linejoin:round;-inkscape-shape-rendering:crispEdges;"/>
                            <path stroke-opacity="1" stroke="none" fill="#ffc000"  fill-opacity="1" gorn="0.1.0.0.2.0.0.4" d="m 4057.5,3059.4688 a 1.24015,1.24015 0 0 0 -1.2402,1.2402 v 6.3789 a 1.24015,1.24015 0 0 0 1.2402,1.2402 1.24015,1.24015 0 0 0 1.2402,-1.2402 v -6.3789 a 1.24015,1.24015 0 0 0 -1.2402,-1.2402 z" id="connector3pad" style="color:#000000;stroke-linecap:round;stroke-linejoin:round;-inkscape-shape-rendering:crispEdges;"/>
                            <path stroke-opacity="1" stroke="none" fill="#ffc000"  fill-opacity="1" gorn="0.1.0.0.2.0.0.5" d="m 4052.5,3059.4688 a 1.24015,1.24015 0 0 0 -1.2402,1.2402 v 6.3789 a 1.24015,1.24015 0 0 0 1.2402,1.2402 1.24015,1.24015 0 0 0 1.2402,-1.2402 v -6.3789 a 1.24015,1.24015 0 0 0 -1.2402,-1.2402 z" id="connector2pad" style="color:#000000;stroke-linecap:round;stroke-linejoin:round;-inkscape-shape-rendering:crispEdges;"/>
                            <path stroke-opacity="1" stroke="none" fill="#ffc000"  fill-opacity="1" gorn="0.1.0.0.2.0.0.6" d="m 4047.5,3059.4688 a 1.24015,1.24015 0 0 0 -1.2402,1.2402 v 6.3789 a 1.24015,1.24015 0 0 0 1.2402,1.2402 1.24015,1.24015 0 0 0 1.2402,-1.2402 v -6.3789 a 1.24015,1.24015 0 0 0 -1.2402,-1.2402 z" id="connector1pad" style="color:#000000;stroke-linecap:round;stroke-linejoin:round;-inkscape-shape-rendering:crispEdges;"/>
                            <path stroke-opacity="1" stroke="none" fill="#ffc000"  fill-opacity="1" gorn="0.1.0.0.2.0.0.7" d="m 4042.5,3059.4688 a 1.24015,1.24015 0 0 0 -1.2402,1.2402 v 6.3789 a 1.24015,1.24015 0 0 0 1.2402,1.2402 1.24015,1.24015 0 0 0 1.2402,-1.2402 v -6.3789 a 1.24015,1.24015 0 0 0 -1.2402,-1.2402 z" id="connector0pad" style="color:#000000;stroke-linecap:round;stroke-linejoin:round;-inkscape-shape-rendering:crispEdges;"/>
                        </g>
                    </g>
                </g>
            </g>
        </g>
    </g>
</svg>
