<?xml version='1.0' encoding='UTF-8' standalone='no'?>
<!-- Creator: CorelDRAW 2018 -->
<svg xmlns="http://www.w3.org/2000/svg"  gorn="0" height="44.9999mm" shape-rendering="geometricPrecision" xmlns:xml="http://www.w3.org/XML/1998/namespace" fill-rule="evenodd" image-rendering="optimizeQuality" text-rendering="geometricPrecision" version="1.0" width="126mm" xml:space="preserve" clip-rule="evenodd" viewBox="0 0 12599.96 4499.98" id="svg1">
    <desc >
        <referenceFile >borda-em-cobre.svg</referenceFile>
    </desc>
    <defs  id="defs1"/>
    <g  gorn="0.2" id="copper1">
        <g  gorn="0.2.0" id="copper0">
            <path  gorn="0.2.0.0" fill="#fff000" d="m 5667.9016,0 h 99.9998 v 99.999729 h -99.9998 z" stroke="none" id="connector0pad"/>
            <path  gorn="0.2.0.1" fill="#fff000" d="m 8333.3107,4399.9782 h 99.9998 v 99.9997 h -99.9998 z" stroke="none" id="connector1pad"/>
            <path  gorn="0.2.0.2" fill="#fff000" d="m 4166.6554,4399.9782 h 99.9998 v 99.9997 h -99.9998 z" stroke="none" id="connector2pad"/>
            <path  gorn="0.2.0.3" fill="#fff000" d="m 0,2199.9891 h 99.9998 v 99.9997 H 0 Z" stroke="none" id="connector3pad"/>
            <path  gorn="0.2.0.4" fill="#fff000" d="m 12499.966,2199.9891 h 100 v 99.9997 h -100 z" stroke="none" id="connector4pad"/>
            <path  gorn="0.2.0.5" fill="#FFC000" d="M7205.47 475.02c-24.21,-24.21 -26.64,-24.14 -77.26,-22.64 -32.63,0.97 -74.53,2.22 -109.48,2.22l-955.53 0c-3.92,0 -7.78,-0.23 -11.58,-0.67 -35.91,-3.61 -67.37,-15.55 -94.86,-31.57l-0.29 -0.17 -0.1 0.17c-24.22,-14.13 -44.99,-31.8 -62.71,-49.17 -63.79,-62.55 -63.99,-63.74 -77.82,-150.94l-5.07 -32.61c-2.73,-19.35 -6.4,-45.29 -13.19,-66.11 -6.1,-5.19 -11.72,-10.73 -16.86,-16.52l-5.92 -7.01 -1166.05 0c-60.25,0 -65.81,40.46 -71.55,82.43 -11.97,87.45 -24.3,177.28 -130.41,236.79l0.09 0.17 -2.78 1.56c-29.05,16.35 -59.73,33.6 -108.26,33.6l-405.91 0c-88.17,0 -148.54,-26.8 -191.04,-74.8 -40.09,-45.29 -56.56,-102.23 -61.58,-168.93l-0.13 -2.17c-1.29,-16.9 -4.1,-47.02 -8.07,-73.99 -2.17,-14.75 -4.11,-26.43 -5.06,-28.99l-0.21 -0.54 -805.41 0.05c-3.52,0.09 -6.66,0.43 -9.45,0.99 8.1,41.57 31.76,122.7 52.4,193.48 15.22,52.24 29.05,99.64 35,125.16 12.51,53.72 -20.89,107.42 -74.61,119.93l-3.82 0.8c-58.03,13.71 -115.1,32.7 -171.63,51.52 -32.7,10.86 -65.28,21.71 -96.32,31.19 -87.73,26.8 -198.28,62.32 -311.21,98.59 -185.59,59.62 -377.82,121.37 -529.75,162.85 -37.81,10.32 -85.57,26.08 -133.58,41.89l-4.74 1.43 -25.87 8.51c-9.91,3.22 -19.96,4.81 -29.85,4.91l-39.22 12.6c-19.96,6.27 -43.16,13.18 -72.82,21.33 -16.3,4.48 -38.63,11.17 -63.38,18.76l-4.36 1.23 -64.7 20.62 -7.08 1.95 -567.79 175.94c-6.08,2.32 -12.77,4.4 -19.97,6.26l-6.35 1.42c-44.34,9.8 -96.63,4.03 -142.14,-16.44 -48.57,-21.85 -92.41,-60.87 -115.43,-116.29l-0.14 0.06c-2.68,-6.48 -5.23,-13.99 -7.61,-22.55l-0.27 0.08c-11.91,-37.53 -21.76,-68.26 -28.14,-87.77 -8.87,-27.14 -17.57,-53.35 -25.27,-76.01l-2.22 -7.5c-1.22,-1.68 -4.99,-4.15 -10.19,-6.78 -6.6,-3.34 -12.97,-5.16 -17.27,-4.42 -2,0.33 -4.49,1.49 -6.44,2.22l0.08 0.24c-23.06,7.86 -70.4,25.98 -116.02,44.5 -36.05,14.64 -68.98,28.68 -84.03,36.46 -4.37,2.26 -8.38,5.93 -10.99,10.85 -2.55,4.8 -3.84,11.61 -3.11,20.64 0.21,2.62 0.31,5.22 0.31,7.81l0.08 1926.2 -100 0 0 -1926.2c-5.16,-63.42 27.98,-107.27 68.01,-127.97 41.93,-21.67 167.53,-71.07 213.72,-86.82 62.45,-26.95 149.86,19.66 162.6,78.74 16.23,47.8 36.69,110.61 54.19,165.73 19.11,74.28 110.97,105 162.18,83.82l579.21 -179.48c45.52,-14.39 95.26,-30.08 136.35,-41.39 46.87,-12.88 92.19,-27.75 137.2,-42.54l0 4.87c56.4,-18.44 111.9,-37.44 168.88,-53 235.11,-64.2 583.61,-182.86 838.22,-260.66 91.36,-27.89 184.43,-63.71 278.02,-85.47 -18.5,-79.31 -93.02,-304.38 -93.02,-363.08 0,-8.77 2.17,-17.63 6.03,-26.15 20.03,-29.39 53.84,-51.33 103.97,-52.67l829.06 -0.05c5.35,0 10.54,0.54 15.54,1.54 27.15,12.17 47.14,38.2 56.72,63.84 10.03,26.9 17.27,102.13 19.51,132.5 6.98,92.67 39.57,151.15 153.01,151.15l405.91 0c23.81,0 43.47,-11.76 62.21,-22.27 148.43,-83.04 -4.4,-332.28 250.7,-332.28l1175.43 0c22.63,0 40.98,5.77 55.94,15.43 6.45,16.81 18.85,33.12 37.45,42.08 24.5,44.61 29.43,104.01 34.56,135.61 11.1,68.69 7.94,66.32 51.45,108.98 24.62,24.15 57.32,48.82 99.62,52.5l955.53 0c205.34,0 186.67,-21 260.09,52.77l323.45 301.79 1099.3 0c131.59,0 117.25,-128.97 118.06,-202.99 1.14,-101.18 7.76,-177.81 58.87,-262 68.89,-113.51 206.72,-214.3 339.24,-238.6l612.08 0c44.36,0 93.24,37.65 93.24,84.28 0,33.39 -27.46,156.28 -56.01,251.59 -4.68,15.63 -5.57,33.35 -2.8,51.2 -9.21,31.09 -16.91,54.47 -21.13,63.25l68.6 21.05c11.27,9.09 24.43,16.37 39.43,21.02 669.88,207.54 1341.4,409.83 2012.09,614.73 53.76,16.42 129.65,4.12 163.22,-83.4 35.33,-92.16 23.81,-207.78 132.61,-203.96 30.57,1.89 188.92,29.21 266.39,54.29 18.68,6.04 72.24,23.22 74.35,105.51 0.02,587.11 0.2,1381.05 0.15,1935.6l-99.61 0 -0.15 -1933.26c-0.29,-11.32 -3.88,-12.5 -5.12,-12.9 -28.75,-9.3 -71.36,-19.24 -113.43,-27.81 -55.83,-11.37 -108.18,-20.01 -125.92,-21.62 -1.36,2.36 -4.76,26.1 -10.95,52.44 -6.61,28.1 -13.48,57.29 -24.96,87.26 -24.72,64.46 -65.67,105.52 -112.19,129.3 -57.88,29.57 -121.89,29.56 -173.3,13.86 -222.93,-68.1 -445.99,-135.94 -669.01,-203.75 -458.5,-139.43 -917.12,-278.9 -1343.47,-410.98 -13.23,-4.1 -25.98,-9.5 -38.13,-15.96l-0.16 0.3c-5.79,-3.08 -11.51,-6.52 -17.14,-10.27l-52.6 -16.14c-52.63,-16.18 -82.19,-71.98 -66.01,-124.61 1.57,-5.11 3.52,-10.01 5.8,-14.66l3.43 -10.21 6.16 -19.44c-0.34,-7.25 -0.33,-14.37 0.05,-21.29l0.02 -0.39c0.89,-16.6 3.59,-32.68 8.08,-47.68 14.31,-47.8 27.75,-99.8 37.25,-142.46 5.96,-26.77 10.53,-49.71 12.82,-64.89l-595.37 0c-47.6,10.48 -96.89,34.08 -141.8,65.67 -50.15,35.26 -93.01,79.04 -120.59,124.49 -18.59,30.63 -29.2,60.32 -35.28,91.82 -6.97,36.05 -8.64,74.93 -9.14,119.4l0.04 20.59c0.85,116.49 2.09,281.62 -217.71,281.62l-1099.3 0c-28.69,0 -54.56,-12.09 -72.8,-31.46l-318.62 -297.28 -5.38 -5.4zm5394.48 2445.71l-0.02 90.1 -12.44 -0.29c-151.88,0 -275,123.12 -275,275.01 0,151.88 123.12,275 275,275l12.1 -0.28 -0.1 82.45c-3.82,43.8 -21.33,76.45 -57.18,102.62 -328.55,239.81 -680.32,481.83 -1003.78,727.79 -26.41,19.14 -50.99,26.36 -78.69,26.86l-4805.8 -0.08c-45.89,0 -73.8,-36.53 -73.8,-76.99l0.04 -130.66 -0.12 -7.78c-4.12,-148.29 -125.59,-267.22 -274.88,-267.22 -151.16,0 -273.8,121.95 -274.96,272.84l-0.03 0.2c-1.43,43.91 0.15,90.43 0.15,134.65 0,35.08 -28.86,74.96 -74.61,74.96l-4871.43 0c-30.75,0.57 -57.69,-12.43 -72.48,-22.2 -325.43,-216.75 -634.17,-482.58 -962.89,-707.16 -12.66,-11.49 -48.79,-43.32 -48.49,-100.59l0 -112.71 12.33 0.29c151.89,0 275,-123.12 275,-275 0,-151.89 -123.11,-275.01 -275,-275.01l-12.33 0.29 0 -89.98 100 0c68.33,16.38 129.41,51.46 177.49,99.53 67.86,67.87 109.84,161.63 109.84,265.17 0,103.53 -41.98,197.29 -109.84,265.16 -48.08,48.07 -109.16,83.15 -177.49,99.53l-0.09 26.71c1.26,7.32 6.2,13.65 10.31,17.94 157.11,107.61 308.89,223.79 460.1,339.51 164.83,126.15 329.01,251.81 496.14,363.12 2.52,1.67 6.02,3.59 9.65,4.7l0.36 0.11 0.03 -0.11c2.18,0.67 4.28,1.11 5.8,1.09l1.56 0 0 -0.39 4846.05 0 0.01 -19.86c-0.37,-31.28 -0.75,-62.86 0.22,-92.88l0.1 -2.18c2.01,-101.28 43.9,-192.55 110.52,-258.66 67.95,-67.41 161.23,-109.07 263.98,-109.07 101.37,0 193.52,40.53 261.19,106.31 65.85,64.01 108.24,152.17 112.99,250.28 0.39,3.57 0.58,7.13 0.59,10.67l-0.21 115.78 4778.44 0.08c3.28,-0.05 6.61,-0.59 10.14,-1.75 3.31,-1.09 7.09,-3.15 11.52,-6.36l4.69 -3.2c206.63,-156.93 416.71,-306.83 625.24,-455.65 132.8,-94.76 264.87,-189.01 373.85,-268.55 5.52,-4.03 9.38,-8.08 11.69,-12.28l1.42 -3.08c-67.13,-16.68 -127.12,-51.43 -174.49,-98.8 -67.86,-67.86 -109.85,-161.62 -109.85,-265.16 0,-103.53 41.98,-197.3 109.84,-265.16 48.2,-48.2 109.46,-83.33 178.01,-99.66l99.61 0zm-8957.04 -2815.6l2.24 0.32 0 -0.32 -2.24 0zm-3295.54 771.8l-0.06 -0.27 0.06 0.27zm-26.71 -8.04c0.48,-0.32 2.28,-1.16 1.06,-0.63l-1.1 0.46 0.04 0.17zm9508.24 -763.32l-0.02 0.1c0.72,-0.06 1.69,-0.1 0.93,-0.1l-0.91 0z" stroke="none" id="path1"/>
        </g>
    </g>
</svg>
