<?xml version='1.0' encoding='UTF-8' standalone='no'?>
<svg xmlns="http://www.w3.org/2000/svg"  viewBox="0 0 38.975854 38.975317" width="9.8999996mm" height="9.8999996mm" version="1.1" id="svg48" gorn="0">
    <desc >
        <referenceFile >TPS65218D0PHPT.svg</referenceFile>
    </desc>
    <g  transform="translate(-557.2,257.9)">
        <g >
            <g >
                <g >
                    <defs  id="defs48"/>
                    <g  id="silkscreen" gorn="0.1.0.0.0.1">
                        <path  fill="#000000" d="m 565.86281,-249.63228 c -0.2182,-5.3e-4 -0.39522,0.17649 -0.39469,0.39469 v 21.65091 c -5.3e-4,0.2182 0.17649,0.39522 0.39469,0.39469 h 21.65091 c 0.2182,5.3e-4 0.39522,-0.17649 0.39469,-0.39469 v -21.65091 c 8.2e-4,-0.16041 -0.0958,-0.30527 -0.24414,-0.36621 -0.0478,-0.0193 -0.099,-0.0289 -0.15055,-0.0285 z m 0.39265,0.78734 h 20.86561 v 20.86561 h -20.86561 z" id="cilque" gorn="0.1.0.0.0.1.0" stroke="none"/>
                        <circle  fill="#000000" r="2.1575658" cx="561.1817" id="cilque3" cy="-253.83203" style="stroke:none;shape-rendering:crispEdges" gorn="0.1.0.0.0.1.1" stroke="none"/>
                    </g>
                    <g  id="copper1" gorn="0.1.0.0.0.2">
                        <path  fill="#ffc000" d="m 557.75134,-249.79097 c -0.30532,-8e-5 -0.55255,0.24805 -0.55134,0.55338 10e-4,0.30374 0.24761,0.54939 0.55134,0.54931 h 5.9834 c 0.30374,8e-5 0.5503,-0.24557 0.55135,-0.54931 0.001,-0.30533 -0.24602,-0.55346 -0.55135,-0.55338 z" id="connector0pad" gorn="0.1.0.0.0.2.0" stroke="none"/>
                        <path  fill="#ffc000" d="m 557.75134,-247.82159 c -0.30453,-8e-5 -0.55142,0.24681 -0.55134,0.55134 -8e-5,0.30453 0.24681,0.55142 0.55134,0.55134 h 5.9834 c 0.30453,8e-5 0.55143,-0.24681 0.55135,-0.55134 8e-5,-0.30453 -0.24682,-0.55142 -0.55135,-0.55134 z" id="connector1pad" gorn="0.1.0.0.0.2.1" stroke="none"/>
                        <path  fill="#ffc000" d="m 557.75134,-245.85425 c -0.30453,-8e-5 -0.55142,0.24681 -0.55134,0.55134 -0.001,0.30532 0.24602,0.55346 0.55134,0.55338 h 5.9834 c 0.30533,8e-5 0.55255,-0.24806 0.55135,-0.55338 8e-5,-0.30453 -0.24682,-0.55142 -0.55135,-0.55134 z" id="connector2pad" gorn="0.1.0.0.0.2.2" stroke="none"/>
                        <path  fill="#ffc000" d="m 557.75134,-243.88488 c -0.30453,-8e-5 -0.55142,0.24681 -0.55134,0.55134 -8e-5,0.30453 0.24681,0.55143 0.55134,0.55135 h 5.9834 c 0.30453,8e-5 0.55143,-0.24682 0.55135,-0.55135 8e-5,-0.30453 -0.24682,-0.55142 -0.55135,-0.55134 z" id="connector3pad" gorn="0.1.0.0.0.2.3" stroke="none"/>
                        <path  fill="#ffc000" d="m 557.75134,-241.91551 c -0.30373,-8e-5 -0.5503,0.24558 -0.55134,0.54931 -8e-5,0.30454 0.24681,0.55143 0.55134,0.55135 h 5.9834 c 0.30453,8e-5 0.55143,-0.24681 0.55135,-0.55135 -10e-4,-0.30373 -0.24761,-0.54939 -0.55135,-0.54931 z" id="connector4pad" gorn="0.1.0.0.0.2.4" stroke="none"/>
                        <path  fill="#ffc000" d="m 557.75134,-239.94816 c -0.30453,-8e-5 -0.55142,0.24681 -0.55134,0.55134 -8e-5,0.30453 0.24681,0.55142 0.55134,0.55134 h 5.9834 c 0.30453,8e-5 0.55143,-0.24681 0.55135,-0.55134 8e-5,-0.30453 -0.24682,-0.55142 -0.55135,-0.55134 z" id="connector5pad" gorn="0.1.0.0.0.2.5" stroke="none"/>
                        <path  fill="#ffc000" d="m 557.75134,-237.97879 c -0.30453,-8e-5 -0.55142,0.24681 -0.55134,0.55134 -8e-5,0.30453 0.24681,0.55143 0.55134,0.55135 h 5.9834 c 0.30453,8e-5 0.55143,-0.24682 0.55135,-0.55135 8e-5,-0.30453 -0.24682,-0.55142 -0.55135,-0.55134 z" id="connector6pad" gorn="0.1.0.0.0.2.6" stroke="none"/>
                        <path  fill="#ffc000" d="m 557.75134,-236.00942 c -0.30453,-8e-5 -0.55142,0.24682 -0.55134,0.55135 10e-4,0.30373 0.24761,0.54939 0.55134,0.54931 h 5.9834 c 0.30374,8e-5 0.5503,-0.24558 0.55135,-0.54931 8e-5,-0.30453 -0.24682,-0.55143 -0.55135,-0.55135 z" id="connector7pad" gorn="0.1.0.0.0.2.7" stroke="none"/>
                        <path  fill="#ffc000" d="m 557.75134,-234.04208 c -0.30453,-7e-5 -0.55142,0.24682 -0.55134,0.55135 -8e-5,0.30453 0.24681,0.55142 0.55134,0.55134 h 5.9834 c 0.30453,8e-5 0.55143,-0.24681 0.55135,-0.55134 8e-5,-0.30453 -0.24682,-0.55142 -0.55135,-0.55135 z" id="connector8pad" gorn="0.1.0.0.0.2.8" stroke="none"/>
                        <path  fill="#ffc000" d="m 557.75134,-232.07474 c -0.30532,-8e-5 -0.55255,0.24806 -0.55134,0.55338 -8e-5,0.30453 0.24681,0.55143 0.55134,0.55135 h 5.9834 c 0.30453,8e-5 0.55143,-0.24682 0.55135,-0.55135 0.001,-0.30532 -0.24602,-0.55346 -0.55135,-0.55338 z" id="connector9pad" gorn="0.1.0.0.0.2.9" stroke="none"/>
                        <path  fill="#ffc000" d="m 557.75134,-230.10536 c -0.30453,-8e-5 -0.55142,0.24681 -0.55134,0.55134 -8e-5,0.30453 0.24681,0.55143 0.55134,0.55135 h 5.9834 c 0.30453,8e-5 0.55143,-0.24682 0.55135,-0.55135 8e-5,-0.30453 -0.24682,-0.55142 -0.55135,-0.55134 z" id="connector10pad" gorn="0.1.0.0.0.2.10" stroke="none"/>
                        <path  fill="#ffc000" d="m 557.75134,-228.13599 c -0.30373,-8e-5 -0.5503,0.24558 -0.55134,0.54931 -0.001,0.30533 0.24602,0.55346 0.55134,0.55338 h 5.9834 c 0.30533,8e-5 0.55255,-0.24805 0.55135,-0.55338 -10e-4,-0.30373 -0.24761,-0.54939 -0.55135,-0.54931 z" id="connector11pad" gorn="0.1.0.0.0.2.11" stroke="none"/>
                        <path  fill="#ffc000" d="m 565.86281,-226.00996 c -0.30533,-0.001 -0.55346,0.24602 -0.55338,0.55135 v 5.9834 c -8e-5,0.30532 0.24805,0.55255 0.55338,0.55134 0.30373,-0.001 0.54939,-0.24761 0.54931,-0.55134 v -5.9834 c 8e-5,-0.30374 -0.24558,-0.5503 -0.54931,-0.55135 z" id="connector12pad" gorn="0.1.0.0.0.2.12" stroke="none"/>
                        <path  fill="#ffc000" d="m 567.83015,-226.00996 c -0.30453,-8e-5 -0.55143,0.24682 -0.55135,0.55135 v 5.9834 c -8e-5,0.30453 0.24682,0.55142 0.55135,0.55134 0.30453,8e-5 0.55142,-0.24681 0.55134,-0.55134 v -5.9834 c 8e-5,-0.30453 -0.24681,-0.55143 -0.55134,-0.55135 z" id="connector13pad" gorn="0.1.0.0.0.2.13" stroke="none"/>
                        <path  fill="#ffc000" d="m 569.79749,-226.00996 c -0.30453,-8e-5 -0.55143,0.24682 -0.55135,0.55135 v 5.9834 c -8e-5,0.30453 0.24682,0.55142 0.55135,0.55134 0.30532,0.001 0.55346,-0.24602 0.55338,-0.55134 v -5.9834 c 8e-5,-0.30533 -0.24806,-0.55255 -0.55338,-0.55135 z" id="connector14pad" gorn="0.1.0.0.0.2.14" stroke="none"/>
                        <path  fill="#ffc000" d="m 571.76686,-226.00996 c -0.30453,-8e-5 -0.55142,0.24682 -0.55134,0.55135 v 5.9834 c -8e-5,0.30453 0.24681,0.55142 0.55134,0.55134 0.30453,8e-5 0.55142,-0.24681 0.55135,-0.55134 v -5.9834 c 7e-5,-0.30453 -0.24682,-0.55143 -0.55135,-0.55135 z" id="connector15pad" gorn="0.1.0.0.0.2.15" stroke="none"/>
                        <path  fill="#ffc000" d="m 573.7342,-226.00996 c -0.30373,0.001 -0.54939,0.24761 -0.54931,0.55135 v 5.9834 c -8e-5,0.30373 0.24558,0.5503 0.54931,0.55134 0.30453,8e-5 0.55142,-0.24681 0.55135,-0.55134 v -5.9834 c 7e-5,-0.30453 -0.24682,-0.55143 -0.55135,-0.55135 z" id="connector16pad" gorn="0.1.0.0.0.2.16" stroke="none"/>
                        <path  fill="#ffc000" d="m 575.70358,-226.00996 c -0.30453,-8e-5 -0.55143,0.24682 -0.55135,0.55135 v 5.9834 c -8e-5,0.30453 0.24682,0.55142 0.55135,0.55134 0.30453,8e-5 0.55142,-0.24681 0.55134,-0.55134 v -5.9834 c 8e-5,-0.30453 -0.24681,-0.55143 -0.55134,-0.55135 z" id="connector17pad" gorn="0.1.0.0.0.2.17" stroke="none"/>
                        <path  fill="#ffc000" d="m 577.67295,-226.00996 c -0.30453,-8e-5 -0.55142,0.24682 -0.55134,0.55135 v 5.9834 c -8e-5,0.30453 0.24681,0.55142 0.55134,0.55134 0.30453,8e-5 0.55142,-0.24681 0.55134,-0.55134 v -5.9834 c 8e-5,-0.30453 -0.24681,-0.55143 -0.55134,-0.55135 z" id="connector18pad" gorn="0.1.0.0.0.2.18" stroke="none"/>
                        <path  fill="#ffc000" d="m 579.64233,-226.00996 c -0.30454,-8e-5 -0.55143,0.24682 -0.55135,0.55135 v 5.9834 c -8e-5,0.30453 0.24681,0.55142 0.55135,0.55134 0.30373,-0.001 0.54939,-0.24761 0.5493,-0.55134 v -5.9834 c 9e-5,-0.30374 -0.24557,-0.5503 -0.5493,-0.55135 z" id="connector19pad" gorn="0.1.0.0.0.2.19" stroke="none"/>
                        <path  fill="#ffc000" d="m 581.60967,-226.00996 c -0.30454,-8e-5 -0.55143,0.24682 -0.55135,0.55135 v 5.9834 c -8e-5,0.30453 0.24681,0.55142 0.55135,0.55134 0.30453,8e-5 0.55142,-0.24681 0.55134,-0.55134 v -5.9834 c 8e-5,-0.30453 -0.24681,-0.55143 -0.55134,-0.55135 z" id="connector20pad" gorn="0.1.0.0.0.2.20" stroke="none"/>
                        <path  fill="#ffc000" d="m 583.57904,-226.00996 c -0.30532,-0.001 -0.55346,0.24602 -0.55338,0.55135 v 5.9834 c -8e-5,0.30532 0.24806,0.55255 0.55338,0.55134 0.30453,8e-5 0.55142,-0.24681 0.55134,-0.55134 v -5.9834 c 8e-5,-0.30453 -0.24681,-0.55143 -0.55134,-0.55135 z" id="connector21pad" gorn="0.1.0.0.0.2.21" stroke="none"/>
                        <path  fill="#ffc000" d="m 585.54638,-226.00996 c -0.30453,-8e-5 -0.55142,0.24682 -0.55134,0.55135 v 5.9834 c -8e-5,0.30453 0.24681,0.55142 0.55134,0.55134 0.30453,8e-5 0.55142,-0.24681 0.55134,-0.55134 v -5.9834 c 8e-5,-0.30453 -0.24681,-0.55143 -0.55134,-0.55135 z" id="connector22pad" gorn="0.1.0.0.0.2.22" stroke="none"/>
                        <path  fill="#ffc000" d="m 587.51372,-226.00996 c -0.30374,0.001 -0.54939,0.24761 -0.54931,0.55135 v 5.9834 c -8e-5,0.30373 0.24557,0.5503 0.54931,0.55134 0.30533,0.001 0.55346,-0.24602 0.55338,-0.55134 v -5.9834 c 8e-5,-0.30533 -0.24805,-0.55255 -0.55338,-0.55135 z" id="connector23pad" gorn="0.1.0.0.0.2.23" stroke="none"/>
                        <path  fill="#ffc000" d="m 589.64178,-228.13599 c -0.30373,-8e-5 -0.5503,0.24558 -0.55134,0.54931 -10e-4,0.30533 0.24602,0.55346 0.55134,0.55338 h 5.9834 c 0.30533,8e-5 0.55255,-0.24805 0.55135,-0.55338 -10e-4,-0.30373 -0.24761,-0.54939 -0.55135,-0.54931 z" id="connector24pad" gorn="0.1.0.0.0.2.24" stroke="none"/>
                        <path  fill="#ffc000" d="m 589.64178,-230.10536 c -0.30453,-8e-5 -0.55142,0.24681 -0.55134,0.55134 -8e-5,0.30453 0.24681,0.55143 0.55134,0.55135 h 5.9834 c 0.30454,8e-5 0.55143,-0.24682 0.55135,-0.55135 8e-5,-0.30453 -0.24681,-0.55142 -0.55135,-0.55134 z" id="connector25pad" gorn="0.1.0.0.0.2.25" stroke="none"/>
                        <path  fill="#ffc000" d="m 589.64178,-232.07474 c -0.30532,-8e-5 -0.55255,0.24806 -0.55134,0.55338 -8e-5,0.30453 0.24681,0.55143 0.55134,0.55135 h 5.9834 c 0.30454,8e-5 0.55143,-0.24682 0.55135,-0.55135 0.001,-0.30532 -0.24602,-0.55346 -0.55135,-0.55338 z" id="connector26pad" gorn="0.1.0.0.0.2.26" stroke="none"/>
                        <path  fill="#ffc000" d="m 589.64178,-234.04208 c -0.30453,-7e-5 -0.55142,0.24682 -0.55134,0.55135 -8e-5,0.30453 0.24681,0.55142 0.55134,0.55134 h 5.9834 c 0.30454,8e-5 0.55143,-0.24681 0.55135,-0.55134 8e-5,-0.30453 -0.24681,-0.55142 -0.55135,-0.55135 z" id="connector27pad" gorn="0.1.0.0.0.2.27" stroke="none"/>
                        <path  fill="#ffc000" d="m 589.64178,-236.00942 c -0.30453,-8e-5 -0.55142,0.24682 -0.55134,0.55135 0.001,0.30373 0.24761,0.54939 0.55134,0.54931 h 5.9834 c 0.30374,8e-5 0.55031,-0.24558 0.55135,-0.54931 8e-5,-0.30453 -0.24681,-0.55143 -0.55135,-0.55135 z" id="connector28pad" gorn="0.1.0.0.0.2.28" stroke="none"/>
                        <path  fill="#ffc000" d="m 589.64178,-237.97879 c -0.30453,-8e-5 -0.55142,0.24681 -0.55134,0.55134 -8e-5,0.30453 0.24681,0.55143 0.55134,0.55135 h 5.9834 c 0.30454,8e-5 0.55143,-0.24682 0.55135,-0.55135 8e-5,-0.30453 -0.24681,-0.55142 -0.55135,-0.55134 z" id="connector29pad" gorn="0.1.0.0.0.2.29" stroke="none"/>
                        <path  fill="#ffc000" d="m 589.64178,-239.94816 c -0.30453,-8e-5 -0.55142,0.24681 -0.55134,0.55134 -8e-5,0.30453 0.24681,0.55142 0.55134,0.55134 h 5.9834 c 0.30454,8e-5 0.55143,-0.24681 0.55135,-0.55134 8e-5,-0.30453 -0.24681,-0.55142 -0.55135,-0.55134 z" id="connector30pad" gorn="0.1.0.0.0.2.30" stroke="none"/>
                        <path  fill="#ffc000" d="m 589.64178,-241.91551 c -0.30373,-8e-5 -0.5503,0.24558 -0.55134,0.54931 -8e-5,0.30454 0.24681,0.55143 0.55134,0.55135 h 5.9834 c 0.30454,8e-5 0.55143,-0.24681 0.55135,-0.55135 -10e-4,-0.30373 -0.24761,-0.54939 -0.55135,-0.54931 z" id="connector31pad" gorn="0.1.0.0.0.2.31" stroke="none"/>
                        <path  fill="#ffc000" d="m 589.64178,-243.88488 c -0.30453,-8e-5 -0.55142,0.24681 -0.55134,0.55134 -8e-5,0.30453 0.24681,0.55143 0.55134,0.55135 h 5.9834 c 0.30454,8e-5 0.55143,-0.24682 0.55135,-0.55135 8e-5,-0.30453 -0.24681,-0.55142 -0.55135,-0.55134 z" id="connector32pad" gorn="0.1.0.0.0.2.32" stroke="none"/>
                        <path  fill="#ffc000" d="m 589.64178,-245.85425 c -0.30453,-8e-5 -0.55142,0.24681 -0.55134,0.55134 -10e-4,0.30532 0.24602,0.55346 0.55134,0.55338 h 5.9834 c 0.30533,8e-5 0.55255,-0.24806 0.55135,-0.55338 8e-5,-0.30453 -0.24681,-0.55142 -0.55135,-0.55134 z" id="connector33pad" gorn="0.1.0.0.0.2.33" stroke="none"/>
                        <path  fill="#ffc000" d="m 589.64178,-247.82159 c -0.30453,-8e-5 -0.55142,0.24681 -0.55134,0.55134 -8e-5,0.30453 0.24681,0.55142 0.55134,0.55134 h 5.9834 c 0.30454,8e-5 0.55143,-0.24681 0.55135,-0.55134 8e-5,-0.30453 -0.24681,-0.55142 -0.55135,-0.55134 z" id="connector34pad" gorn="0.1.0.0.0.2.34" stroke="none"/>
                        <path  fill="#ffc000" d="m 589.64178,-249.79097 c -0.30532,-8e-5 -0.55255,0.24805 -0.55134,0.55338 0.001,0.30374 0.24761,0.54939 0.55134,0.54931 h 5.9834 c 0.30374,8e-5 0.55031,-0.24557 0.55135,-0.54931 0.001,-0.30533 -0.24602,-0.55346 -0.55135,-0.55338 z" id="connector35pad" gorn="0.1.0.0.0.2.35" stroke="none"/>
                        <path  fill="#ffc000" d="m 587.51372,-257.9004 c -0.30374,10e-4 -0.54939,0.24761 -0.54931,0.55135 v 5.9834 c -8e-5,0.30373 0.24557,0.5503 0.54931,0.55134 0.30533,0.001 0.55346,-0.24602 0.55338,-0.55134 v -5.9834 c 8e-5,-0.30533 -0.24805,-0.55255 -0.55338,-0.55135 z" id="connector36pad" gorn="0.1.0.0.0.2.36" stroke="none"/>
                        <path  fill="#ffc000" d="m 585.54638,-257.9004 c -0.30453,-8e-5 -0.55142,0.24681 -0.55134,0.55135 v 5.9834 c -8e-5,0.30453 0.24681,0.55142 0.55134,0.55134 0.30453,8e-5 0.55142,-0.24681 0.55134,-0.55134 v -5.9834 c 8e-5,-0.30454 -0.24681,-0.55143 -0.55134,-0.55135 z" id="connector37pad" gorn="0.1.0.0.0.2.37" stroke="none"/>
                        <path  fill="#ffc000" d="m 583.57904,-257.9004 c -0.30532,-0.001 -0.55346,0.24602 -0.55338,0.55135 v 5.9834 c -8e-5,0.30532 0.24806,0.55255 0.55338,0.55134 0.30453,8e-5 0.55142,-0.24681 0.55134,-0.55134 v -5.9834 c 8e-5,-0.30454 -0.24681,-0.55143 -0.55134,-0.55135 z" id="connector38pad" gorn="0.1.0.0.0.2.38" stroke="none"/>
                        <path  fill="#ffc000" d="m 581.60967,-257.9004 c -0.30454,-8e-5 -0.55143,0.24681 -0.55135,0.55135 v 5.9834 c -8e-5,0.30453 0.24681,0.55142 0.55135,0.55134 0.30453,8e-5 0.55142,-0.24681 0.55134,-0.55134 v -5.9834 c 8e-5,-0.30454 -0.24681,-0.55143 -0.55134,-0.55135 z" id="connector39pad" gorn="0.1.0.0.0.2.39" stroke="none"/>
                        <path  fill="#ffc000" d="m 579.64233,-257.9004 c -0.30454,-8e-5 -0.55143,0.24681 -0.55135,0.55135 v 5.9834 c -8e-5,0.30453 0.24681,0.55142 0.55135,0.55134 0.30373,-0.001 0.54939,-0.24761 0.5493,-0.55134 v -5.9834 c 9e-5,-0.30374 -0.24557,-0.55031 -0.5493,-0.55135 z" id="connector40pad" gorn="0.1.0.0.0.2.40" stroke="none"/>
                        <path  fill="#ffc000" d="m 577.67295,-257.9004 c -0.30453,-8e-5 -0.55142,0.24681 -0.55134,0.55135 v 5.9834 c -8e-5,0.30453 0.24681,0.55142 0.55134,0.55134 0.30453,8e-5 0.55142,-0.24681 0.55134,-0.55134 v -5.9834 c 8e-5,-0.30454 -0.24681,-0.55143 -0.55134,-0.55135 z" id="connector41pad" gorn="0.1.0.0.0.2.41" stroke="none"/>
                        <path  fill="#ffc000" d="m 575.70358,-257.9004 c -0.30453,-8e-5 -0.55143,0.24681 -0.55135,0.55135 v 5.9834 c -8e-5,0.30453 0.24682,0.55142 0.55135,0.55134 0.30453,8e-5 0.55142,-0.24681 0.55134,-0.55134 v -5.9834 c 8e-5,-0.30454 -0.24681,-0.55143 -0.55134,-0.55135 z" id="connector42pad" gorn="0.1.0.0.0.2.42" stroke="none"/>
                        <path  fill="#ffc000" d="m 573.7342,-257.9004 c -0.30373,10e-4 -0.54939,0.24761 -0.54931,0.55135 v 5.9834 c -8e-5,0.30373 0.24558,0.5503 0.54931,0.55134 0.30453,8e-5 0.55142,-0.24681 0.55135,-0.55134 v -5.9834 c 7e-5,-0.30454 -0.24682,-0.55143 -0.55135,-0.55135 z" id="connector43pad" gorn="0.1.0.0.0.2.43" stroke="none"/>
                        <path  fill="#ffc000" d="m 571.76686,-257.9004 c -0.30453,-8e-5 -0.55142,0.24681 -0.55134,0.55135 v 5.9834 c -8e-5,0.30453 0.24681,0.55142 0.55134,0.55134 0.30453,8e-5 0.55142,-0.24681 0.55135,-0.55134 v -5.9834 c 7e-5,-0.30454 -0.24682,-0.55143 -0.55135,-0.55135 z" id="connector44pad" gorn="0.1.0.0.0.2.44" stroke="none"/>
                        <path  fill="#ffc000" d="m 569.79749,-257.9004 c -0.30453,-8e-5 -0.55143,0.24681 -0.55135,0.55135 v 5.9834 c -8e-5,0.30453 0.24682,0.55142 0.55135,0.55134 0.30532,0.001 0.55346,-0.24602 0.55338,-0.55134 v -5.9834 c 8e-5,-0.30533 -0.24806,-0.55255 -0.55338,-0.55135 z" id="connector45pad" gorn="0.1.0.0.0.2.45" stroke="none"/>
                        <path  fill="#ffc000" d="m 567.83015,-257.9004 c -0.30453,-8e-5 -0.55143,0.24681 -0.55135,0.55135 v 5.9834 c -8e-5,0.30453 0.24682,0.55142 0.55135,0.55134 0.30453,8e-5 0.55142,-0.24681 0.55134,-0.55134 v -5.9834 c 8e-5,-0.30454 -0.24681,-0.55143 -0.55134,-0.55135 z" id="connector46pad" gorn="0.1.0.0.0.2.46" stroke="none"/>
                        <path  fill="#ffc000" d="m 565.86281,-257.9004 c -0.30533,-0.001 -0.55346,0.24602 -0.55338,0.55135 v 5.9834 c -8e-5,0.30532 0.24805,0.55255 0.55338,0.55134 0.30373,-0.001 0.54939,-0.24761 0.54931,-0.55134 v -5.9834 c 8e-5,-0.30374 -0.24558,-0.55031 -0.54931,-0.55135 z" id="connector47pad" gorn="0.1.0.0.0.2.47" stroke="none"/>
                        <path  fill="#ffc000" d="m 568.81403,-246.28625 h 15.74782 v 15.74782 h -15.74782 z" id="connector48pin" gorn="0.1.0.0.0.2.48" stroke="none"/>
                    </g>
                </g>
            </g>
        </g>
    </g>
</svg>
