<?xml version='1.0' encoding='UTF-8' standalone='no'?>
<!-- Created with Fritzing (https://fritzing.org/) -->
<svg xmlns="http://www.w3.org/2000/svg" y="0in" viewBox="0 0 24.094489 24.094489" width="8.5mm" x="0in" id="svg9097" height="8.5mm" gorn="0" version="1.2" >
    <desc >
        <referenceFile >capacitor-8.5mm.svg</referenceFile>
    </desc>
    <defs id="defs9101" />
    <g transform="rotate(90,6.8396335,13.846878)" >
        <g >
            <g >
                <g id="silkscreen" gorn="0.2.0.0.0" >
                    <g transform="matrix(0,0.75000003,-0.75000003,0,17.087245,-3.4072452)" >
                        <g >
                            <g >
                                <path id="path9464" gorn="0.2.0.0.0.0.0.0.0" d="M 15.964844,0.00195313 C 7.1461882,0.05592423 -0.00195366,7.2332278 -0.00195313,16.064453 -0.00195352,24.895681 7.146185,32.071052 15.964844,32.125 V 30.990234 C 7.7591419,30.936541 1.1347654,24.282918 1.1347656,16.064453 1.1347652,7.8459883 7.7591418,1.1904337 15.964844,1.1367188 Z" stroke="none"  fill="#000000"/>
                            </g>
                        </g>
                    </g>
                    <path id="path9464-2" gorn="0.2.0.0.0.1" d="M 17.08578,8.7121451 C 17.045302,15.326137 11.662324,20.687244 5.0389047,20.687244 c -6.6234213,0 -12.0049498,-5.361104 -12.0454108,-11.9750989 h 0.8510746 c 0.04027,6.1542769 5.0304872,11.1225599 11.1943362,11.1225599 6.1638493,0 11.1555153,-4.968283 11.1958013,-11.1225599 z" stroke="none"  fill="#000000"/>
                    <g transform="rotate(90)" >
                        <g >
                            <g >
                                <rect y="-17.087244" width="0.85039371" x="8.2148027" id="rect9835" height="24.094488" gorn="0.2.0.0.0.2.0.0.0" stroke="none"  fill="#000000"/>
                            </g>
                        </g>
                    </g>
                    <g transform="matrix(0,-0.75000003,0.75000003,0,-7.0072445,20.686512)" >
                        <g >
                            <g >
                                <path id="path11283" gorn="0.2.0.0.0.3.0.0.0" d="m 16.033203,15.449219 c -4e-6,0.301812 0,0.25213 0,0.566406 0,12.486193 0.01105,15.646882 0.06055,15.646484 0.03412,-2.66e-4 0.330654,-0.0216 0.658203,-0.04883 8.356283,-0.694363 14.757845,-7.450711 14.763672,-15.582031 1.41e-4,-0.194785 -0.0065,-0.388769 -0.01367,-0.582031 h -6.3125 a 3.9999999,3.9999999 0 0 1 0.05078,0.613281 3.9999999,3.9999999 0 0 1 -4,4 3.9999999,3.9999999 0 0 1 -4,-4 3.9999999,3.9999999 0 0 1 0.08008,-0.613281 z" stroke="none"  fill="black"/>
                            </g>
                        </g>
                    </g>
                    <path id="path10944" gorn="0.2.0.0.0.4" d="m -6.730389,8.5971558 c -6.892e-4,0.060503 0.8708293,0.064312 11.3100592,0.064454 L 4.5796687,7.696273 C 3.1403135,7.4583982 2.0514504,6.2151684 2.0396309,4.7563374 2.0400471,3.2886316 3.1316127,2.0337799 4.5796687,1.7944177 l 0.029384,-4.8087628 c -5.52320423,0.21873 -10.2327095,4.4557934 -11.178309,10.1115009 -0.051165,0.3060225 -0.1589828,1.3116803 -0.1611327,1.5 z" stroke="none"  fill="black"/>
                    <path id="path13275" gorn="0.2.0.0.0.5" d="m 1.0998285,12.506148 q 0,0.114847 -0.019316,0.199454 -0.019316,0.07858 -0.051549,0.132969 -0.032209,0.05439 -0.077312,0.07858 -0.045102,0.02417 -0.096628,0.02417 h -2.1130938 v 2.200059 q 0,0.04836 -0.025763,0.08461 -0.025763,0.03022 -0.083758,0.05439 -0.051549,0.02417 -0.1417304,0.04231 -0.090205,0.01201 -0.2254887,0.01201 -0.1288372,0 -0.2254885,-0.01201 -0.090205,-0.01812 -0.1481768,-0.04231 -0.051549,-0.02417 -0.077312,-0.05439 -0.025763,-0.03627 -0.025763,-0.08461 v -2.200059 h -2.113094 q -0.057972,0 -0.1030744,-0.02417 -0.038656,-0.02417 -0.070865,-0.07858 -0.032209,-0.05439 -0.051549,-0.132969 -0.019316,-0.08463 -0.019316,-0.199454 0,-0.108798 0.019316,-0.187379 0.019316,-0.08461 0.051549,-0.139017 0.032209,-0.05439 0.070865,-0.07858 0.045102,-0.02417 0.096628,-0.02417 h 2.1195359 V 9.8769576 q 0,-0.04836 0.025763,-0.08463 0.025763,-0.04232 0.077312,-0.06649 0.057972,-0.03022 0.1481768,-0.04231 0.096628,-0.01812 0.2254885,-0.01812 0.1352839,0 0.2254886,0.01812 0.090205,0.01201 0.1417303,0.04231 0.057972,0.02417 0.083758,0.06649 0.025763,0.03627 0.025763,0.08463 v 2.2000584 h 2.119536 q 0.051549,0 0.090205,0.02417 0.045102,0.02417 0.077312,0.07858 0.038656,0.05439 0.051549,0.139017 0.019316,0.07858 0.019316,0.18738 z" stroke="none" style="stroke-width:1"  fill="#000000"/>
                </g>
            </g>
        </g>
    </g>
    <g transform="rotate(-90,10.247245,6.8399998)" >
        <g >
            <g >
                <g id="copper0" gorn="0.3.0.0.0" style="display:inline" >
                    <g id="copper1" gorn="0.3.0.0.0.0" >
                        <circle r="2.0880001" id="connector1pin" cy="4.7554007" gorn="0.3.0.0.0.0.0" stroke-width="1.44" cx="5.04" stroke="#ffbf00"  fill="none"/>
                        <circle r="2.0880001" id="connector0pin" cy="12.52233" gorn="0.3.0.0.0.0.1" stroke-width="1.44" cx="5.04" stroke="#ffbf00"  fill="none"/>
                        <circle r="2.0880001" id="circle9075" cy="4.7554007" gorn="0.3.0.0.0.0.2" stroke-width="1.44" cx="5.04" stroke="#ffbf00"  fill="none"/>
                        <circle r="2.0880001" id="circle9077" cy="12.52233" gorn="0.3.0.0.0.0.3" stroke-width="1.44" cx="5.04" stroke="#ffbf00"  fill="none"/>
                    </g>
                </g>
            </g>
        </g>
    </g>
</svg>
