<?xml version='1.0' encoding='UTF-8' standalone='no'?>
<svg xmlns="http://www.w3.org/2000/svg" version="1.1" width="4.724mm" viewBox="0 0 18.597691 15.811022" gorn="0" id="svg4"  height="4.0159998mm">
    <desc >
        <referenceFile >Pushbutton-90C-C2888995.svg</referenceFile>
    </desc>
    <g transform="translate(-4030.7,-3026.8)" >
        <g >
            <g >
                <defs id="defs4" />
                <title id="title1" />
                <style type="text/css" id="style1" >
*[layerid="1"] {stroke:#000000;fill:#000000;}
*[layerid="2"] {stroke:#000000;fill:#000000;}
*[layerid="3"] {stroke:#000000;fill:#000000;}
*[layerid="4"] {stroke:#000000;fill:#000000;}
*[layerid="5"] {stroke:#000000;fill:#000000;}
*[layerid="6"] {stroke:#000000;fill:#000000;}
*[layerid="7"] {stroke:#000000;fill:#000000;}
*[layerid="8"] {stroke:#000000;fill:#000000;}
*[layerid="9"] {stroke:#000000;fill:#000000;}
*[layerid="10"] {stroke:#000000;fill:#000000;}
*[layerid="11"] {stroke:#000000;fill:#000000;}
*[layerid="12"] {stroke:#000000;fill:#000000;}
*[layerid="13"] {stroke:#000000;fill:#000000;}
*[layerid="14"] {stroke:#000000;fill:#000000;}
*[layerid="15"] {stroke:#000000;fill:#000000;}
*[layerid="19"] {stroke:#000000;fill:#000000;}
*[layerid="21"] {stroke:#000000;fill:#000000;}
*[layerid="22"] {stroke:#000000;fill:#000000;}
*[layerid="23"] {stroke:#000000;fill:#000000;}
*[layerid="24"] {stroke:#000000;fill:#000000;}
*[layerid="25"] {stroke:#000000;fill:#000000;}
*[layerid="26"] {stroke:#000000;fill:#000000;}
*[layerid="27"] {stroke:#000000;fill:#000000;}
*[layerid="28"] {stroke:#000000;fill:#000000;}
*[layerid="29"] {stroke:#000000;fill:#000000;}
*[layerid="30"] {stroke:#000000;fill:#000000;}
*[layerid="31"] {stroke:#000000;fill:#000000;}
*[layerid="32"] {stroke:#000000;fill:#000000;}
*[layerid="33"] {stroke:#000000;fill:#000000;}
*[layerid="34"] {stroke:#000000;fill:#000000;}
*[layerid="35"] {stroke:#000000;fill:#000000;}
*[layerid="36"] {stroke:#000000;fill:#000000;}
*[layerid="37"] {stroke:#000000;fill:#000000;}
*[layerid="38"] {stroke:#000000;fill:#000000;}
*[layerid="39"] {stroke:#000000;fill:#000000;}
*[layerid="40"] {stroke:#000000;fill:#000000;}
*[layerid="41"] {stroke:#000000;fill:#000000;}
*[layerid="42"] {stroke:#000000;fill:#000000;}
*[layerid="43"] {stroke:#000000;fill:#000000;}
*[layerid="44"] {stroke:#000000;fill:#000000;}
*[layerid="45"] {stroke:#000000;fill:#000000;}
*[layerid="46"] {stroke:#000000;fill:#000000;}
*[layerid="47"] {stroke:#000000;fill:#000000;}
*[layerid="48"] {stroke:#000000;fill:#000000;}
*[layerid="49"] {stroke:#000000;fill:#000000;}
*[layerid="50"] {stroke:#000000;fill:#000000;}
*[layerid="51"] {stroke:#000000;fill:#000000;}
*[layerid="52"] {stroke:#000000;fill:#000000;}
*[layerid="99"] {stroke:#000000;fill:#000000;}
*[layerid="100"] {stroke:#000000;fill:#000000;}
*[layerid="101"] {stroke:#000000;fill:#000000;}
*[layerid="Hole"] {stroke:#000000;fill:#000000;}
*[layerid="DRCError"] {stroke:#000000;fill:#000000;}
*[fill="none"] {fill: none;}
*[stroke="none"] {stroke: none;}
path, polyline, polygon, line {stroke-linecap:round;}
g[c_partid="part_pad"][layerid="1"] ellipse:not([c_etype="pad_outer"]) {fill:#000000;}
g[c_partid="part_pad"][layerid="1"] polygon:not([c_etype="pad_outer"]) {fill:#000000;}
g[c_partid="part_pad"][layerid="1"] polyline:not([c_etype="pad_outer"]) {stroke:#000000;}
g[c_partid="part_pad"][layerid="2"] ellipse:not([c_etype="pad_outer"]) {fill:#000000;}
g[c_partid="part_pad"][layerid="2"] polygon:not([c_etype="pad_outer"]) {fill:#000000;}
g[c_partid="part_pad"][layerid="2"] polyline:not([c_etype="pad_outer"]) {stroke:#000000;}
g[c_partid="part_pad"][layerid="11"] ellipse:not([c_etype="pad_outer"]) {fill:#000000;}
g[c_partid="part_pad"][layerid="11"] polygon:not([c_etype="pad_outer"]) {fill:#000000;}
g[c_partid="part_pad"][layerid="11"] polyline:not([c_etype="pad_outer"]) {stroke:#000000;}
g[c_partid="part_pad"][layerid="11"] circle {fill:#FFFFFF;}
g[c_partid="part_pad"][layerid="11"] > polyline:nth-of-type(2) {stroke:#FFFFFF;}
g[c_partid="part_pad"][layerid="11"][c_shape="ELLIPSE"]  polyline:nth-last-of-type(1) {stroke:#FFFFFF;}
g[c_partid="part_pad"][layerid="11"][c_shape="RECT"]  polyline:nth-last-of-type(1) {stroke:#FFFFFF;}
g[c_partid="part_pad"][layerid="11"][c_shape="POLYGON"]  polyline:nth-last-of-type(1) {stroke:#FFFFFF;}
g[c_partid="part_via"] > * + circle, #gCurParts g[c_partid="part_via"] > * + circle {fill:#FFFFFF;}
g[c_partid="part_pad"] > polygon[c_etype="pad_outer"], #gCurParts g[c_partid="part_pad"] > polygon[c_etype="pad_outer"] {stroke-linejoin: round;stroke-miterlimit: 100;}
g[c_partid="part_hole"] > circle {fill: #FFFFFF;}path, polyline, polygon {stroke-linejoin:round;}
rect, circle, ellipse, polyline, line, polygon, path {shape-rendering:crispEdges;}
</style>
                <g transform="translate(-10.001945,-16.034)" >
                    <g >
                        <g gorn="0.1.0.0.3.0.0" id="silkscreen" >
                            <path d="m 4045.3203,3053.8379 a 0.2992,0.2992 0 0 0 -0.3008,0.3008 v 4.209 a 0.29922992,0.29922992 0 0 0 0.3008,0.2988 h 9.3985 a 0.29922992,0.29922992 0 0 0 0.3007,-0.2988 v -3.918 a 0.2992,0.2992 0 0 0 0.2793,-0.291 0.2992,0.2992 0 0 0 -0.2988,-0.3008 h -0.2812 a 0.29922992,0.29922992 0 0 0 -0.2989,0.3008 v 3.9101 h -8.8008 v -3.9101 a 0.2992,0.2992 0 0 0 -0.2988,-0.3008 z" stroke="none" fill="black" gorn="0.1.0.0.3.0.0.0" id="gge49" />
                            <path d="m 4059,3048.9707 a 0.2992,0.2992 0 0 0 -0.2988,0.3008 v 4.5625 H 4055 a 0.2992,0.2992 0 0 0 -0.2988,0.2988 0.2992,0.2992 0 0 0 0.2988,0.3008 h 4 a 0.29922992,0.29922992 0 0 0 0.2988,-0.3008 v -4.8613 A 0.2992,0.2992 0 0 0 4059,3048.9707 Z" stroke="none" fill="black" gorn="0.1.0.0.3.0.0.1" id="gge52" />
                            <path d="m 4041,3048.9707 a 0.2992,0.2992 0 0 0 -0.2988,0.2988 v 4.8633 a 0.29922992,0.29922992 0 0 0 0.2988,0.3008 h 4 a 0.2992,0.2992 0 0 0 0.2988,-0.3008 0.2992,0.2992 0 0 0 -0.2988,-0.2988 h -3.7012 v -4.5645 A 0.2992,0.2992 0 0 0 4041,3048.9707 Z" stroke="none" fill="black" gorn="0.1.0.0.3.0.0.2" id="gge55" />
                            <path d="m 4046.8613,3042.834 a 0.2992,0.2992 0 0 0 -0.2988,0.2988 0.2992,0.2992 0 0 0 0.2988,0.3008 h 6.2774 a 0.2992,0.2992 0 0 0 0.2988,-0.3008 0.2992,0.2992 0 0 0 -0.2988,-0.2988 z" stroke="none" fill="black" gorn="0.1.0.0.3.0.0.3" id="gge67" />
                        </g>
                    </g>
                </g>
                <g transform="translate(-10.001945,-16.034)" >
                    <g >
                        <g gorn="0.1.0.0.4.0.0" id="copper1" >
                            <circle cy="3046.3579" r="2.65748" stroke-width="0.984252" stroke="#ffc000" fill="none" gorn="0.1.0.0.4.0.0.0" cx="4044.0945" id="connector0pin" />
                            <circle cy="3046.3579" r="2.65748" stroke-width="0.984252" stroke="#ffc000" fill="none" gorn="0.1.0.0.4.0.0.1" cx="4055.9055" id="connector2pin" />
                            <circle cy="3053.6421" r="2.65748" stroke-width="0.984252" stroke="#ffc000" fill="none" gorn="0.1.0.0.4.0.0.2" cx="4049.9995" id="connector1pin" />
                        </g>
                    </g>
                </g>
            </g>
        </g>
    </g>
</svg>
