<?xml version='1.0' encoding='UTF-8' standalone='no'?>
<svg xmlns="http://www.w3.org/2000/svg" height="9.3100004mm"  id="svg1305" width="5.4299998mm" version="1.1" gorn="0" viewBox="0 0 21.377951 36.653012">
    <desc >
        <referenceFile >W25Q128JVSIQ-PCB.svg</referenceFile>
    </desc>
    <g  transform="translate(-380.6,-274.7)">
        <g >
            <g >
                <g  id="copper1" gorn="0.1.0.0.0">
                    <path  id="connector0pin" d="m 383.78906,302.49609 a 1.24015,1.24015 0 0 0 -1.24023,1.24024 v 6.37695 a 1.24015,1.24015 0 0 0 1.24023,1.24024 1.24015,1.24015 0 0 0 1.24024,-1.24024 v -6.37695 a 1.24015,1.24015 0 0 0 -1.24024,-1.24024 z" stroke="none" gorn="0.1.0.0.0.0" fill="#ffc000"/>
                    <path  id="connector1pin" d="m 388.78906,302.49609 a 1.24015,1.24015 0 0 0 -1.24023,1.24024 v 6.37695 a 1.24015,1.24015 0 0 0 1.24023,1.24024 1.24015,1.24015 0 0 0 1.24024,-1.24024 v -6.37695 a 1.24015,1.24015 0 0 0 -1.24024,-1.24024 z" stroke="none" gorn="0.1.0.0.0.1" fill="#ffc000"/>
                    <path  id="connector2pin" d="m 393.78906,302.49609 a 1.24015,1.24015 0 0 0 -1.24023,1.24024 v 6.37695 a 1.24015,1.24015 0 0 0 1.24023,1.24024 1.24015,1.24015 0 0 0 1.24024,-1.24024 v -6.37695 a 1.24015,1.24015 0 0 0 -1.24024,-1.24024 z" stroke="none" gorn="0.1.0.0.0.2" fill="#ffc000"/>
                    <path  id="connector3pin" d="m 398.78906,302.49609 a 1.24015,1.24015 0 0 0 -1.24023,1.24024 v 6.37695 a 1.24015,1.24015 0 0 0 1.24023,1.24024 1.24015,1.24015 0 0 0 1.24024,-1.24024 v -6.37695 a 1.24015,1.24015 0 0 0 -1.24024,-1.24024 z" stroke="none" gorn="0.1.0.0.0.3" fill="#ffc000"/>
                    <path  id="connector4pin" d="m 398.78906,274.69922 a 1.24015,1.24015 0 0 0 -1.24023,1.24023 v 6.37891 a 1.24015,1.24015 0 0 0 1.24023,1.24023 1.24015,1.24015 0 0 0 1.24024,-1.24023 v -6.37891 a 1.24015,1.24015 0 0 0 -1.24024,-1.24023 z" stroke="none" gorn="0.1.0.0.0.4" fill="#ffc000"/>
                    <path  id="connector5pin" d="m 393.78906,274.69922 a 1.24015,1.24015 0 0 0 -1.24023,1.24023 v 6.37891 a 1.24015,1.24015 0 0 0 1.24023,1.24023 1.24015,1.24015 0 0 0 1.24024,-1.24023 v -6.37891 a 1.24015,1.24015 0 0 0 -1.24024,-1.24023 z" stroke="none" gorn="0.1.0.0.0.5" fill="#ffc000"/>
                    <path  id="connector6pin" d="m 388.78906,274.69922 a 1.24015,1.24015 0 0 0 -1.24023,1.24023 v 6.37891 a 1.24015,1.24015 0 0 0 1.24023,1.24023 1.24015,1.24015 0 0 0 1.24024,-1.24023 v -6.37891 a 1.24015,1.24015 0 0 0 -1.24024,-1.24023 z" stroke="none" gorn="0.1.0.0.0.6" fill="#ffc000"/>
                    <path  id="connector7pin" d="m 383.78906,274.69922 a 1.24015,1.24015 0 0 0 -1.24023,1.24023 v 6.37891 a 1.24015,1.24015 0 0 0 1.24023,1.24023 1.24015,1.24015 0 0 0 1.24024,-1.24023 v -6.37891 a 1.24015,1.24015 0 0 0 -1.24024,-1.24023 z" stroke="none" gorn="0.1.0.0.0.7" fill="#ffc000"/>
                </g>
                <g  id="silkscreen" gorn="0.1.0.0.1">
                    <path  id="rep12" d="m 380.6,283.95898 v 18.13672 h 20.88712 v -0.5 h 0.49083 v -17.63672 z m 0.98167,1 h 19.41462 v 16.13672 h -19.41462 z" stroke="none" gorn="0.1.0.0.1.0" style="stroke-width:0.990787" fill="#000000"/>
                    <path layerid="3"  id="rep2" d="m 383.56092,301.0957 a 1.9977454,1.9977454 0 1 0 -0.0886,-0.002" stroke="none" gorn="0.1.0.0.1.1" locked="0" fill="#000000"/>
                </g>
                <defs  id="defs1309"/>
            </g>
        </g>
    </g>
</svg>
