<?xml version='1.0' encoding='UTF-8' standalone='no'?>
<svg xmlns="http://www.w3.org/2000/svg" gorn="0"  width="4mm" viewBox="0 0 15.747684 14.819472" version="1.1" id="svg4" height="3.7639999mm">
    <desc >
        <referenceFile >Coaxial.svg</referenceFile>
    </desc>
    <g  transform="translate(-4032.1,-3024.5)">
        <g >
            <g >
                <defs  id="defs4"/>
                <g  transform="translate(-10.026984,-15.7486)">
                    <g >
                        <g gorn="0.1.0.0.1.0.0"  id="copper1">
                            <path fill="#ffc000" gorn="0.1.0.0.1.0.0.0" d="m 4057.8741,3051.3292 h -4.1339 v -8.6614 h 4.1339 z"  id="connector0pad" stroke="none"/>
                            <path fill="#ffc000" gorn="0.1.0.0.1.0.0.1" d="m 4046.2598,3051.3292 h -4.1339 v -8.6614 h 4.1339 z"  id="connector1pad" stroke="none"/>
                            <path fill="#ffc000" gorn="0.1.0.0.1.0.0.2" d="m 4051.9685,3055.068 h -3.937 v -4.1338 h 3.937 z"  id="connector2pad" stroke="none"/>
                        </g>
                    </g>
                </g>
                <g  transform="translate(-10.026984,-15.7486)">
                    <g >
                        <g gorn="0.1.0.0.2.0.0"  id="silkscreen">
                            <path fill="black" gorn="0.1.0.0.2.0.0.0" d="m 4051.1816,3041.2324 a 0.5,0.5 0 0 0 -0.5,0.5 0.5,0.5 0 0 0 0.5,0.5 h 3.875 a 0.5,0.5 0 0 0 0.061,0.025 0.5,0.5 0 0 0 0.5,-0.5 v -0.025 a 0.50005,0.50005 0 0 0 -0.5,-0.5 z"  id="gge40" stroke="none"/>
                            <path fill="black" gorn="0.1.0.0.2.0.0.1" d="m 4048.623,3040.248 a 0.50005,0.50005 0 0 0 -0.5,0.5 v 0.4844 h -3.2402 a 0.50005,0.50005 0 0 0 -0.5,0.5 v 0.025 a 0.5,0.5 0 0 0 0.5,0.5 0.5,0.5 0 0 0 0.061,-0.025 h 3.6796 a 0.50005,0.50005 0 0 0 0.5,-0.5 v -0.4844 h 1.5586 v 0.4844 a 0.5,0.5 0 0 0 0.5,0.5 0.5,0.5 0 0 0 0.5,-0.5 v -0.9844 a 0.50005,0.50005 0 0 0 -0.5,-0.5 z"  id="gge43" stroke="none"/>
                            <path fill="black" gorn="0.1.0.0.2.0.0.2" d="m 4055,3051.7383 a 0.5,0.5 0 0 0 -0.4004,0.2597 h -1.7207 a 0.5,0.5 0 0 0 -0.5,0.5 0.5,0.5 0 0 0 0.5,0.5 H 4055 a 0.50005,0.50005 0 0 0 0.5,-0.5 v -0.2597 a 0.5,0.5 0 0 0 -0.5,-0.5 z"  id="gge46" stroke="none"/>
                            <path fill="black" gorn="0.1.0.0.2.0.0.3" d="m 4045,3051.7383 a 0.5,0.5 0 0 0 -0.5,0.5 v 0.2597 a 0.50005,0.50005 0 0 0 0.5,0.5 h 2.1211 a 0.5,0.5 0 0 0 0.5,-0.5 0.5,0.5 0 0 0 -0.5,-0.5 h -1.6914 A 0.5,0.5 0 0 0 4045,3051.7383 Z"  id="gge49" stroke="none"/>
                        </g>
                    </g>
                </g>
            </g>
        </g>
    </g>
</svg>
