<?xml version='1.0' encoding='UTF-8' standalone='no'?>
<!-- Creator: CorelDRAW 2018 -->
<svg xmlns="http://www.w3.org/2000/svg" id="svg19433" text-rendering="geometricPrecision" width="28.112mm" gorn="0" version="1.0" fill-rule="evenodd" xmlns:xml="http://www.w3.org/XML/1998/namespace"  height="4.723mm" viewBox="0 0 655.44081 110.11985" shape-rendering="geometricPrecision" image-rendering="optimizeQuality" clip-rule="evenodd" xml:space="preserve">
    <desc >
        <referenceFile >logo-playtronic-cobre-variant2.svg</referenceFile>
    </desc>
    <defs id="defs19437" />
    <g transform="matrix(0.61550417,0,0,0.61550417,0.00423204,-0.01922479)" >
        <g >
            <g id="g19715" gorn="0.2.0.0" >
                <g id="silkscreen" gorn="0.2.0.0.0" >
                    <g id="g19430" gorn="0.2.0.0.0.0" >
                        <path id="path19428" gorn="0.2.0.0.0.0.0" d="m 977.53,0.03 17.02,0.21 c 6.68,0.08 13.86,0.8 20.56,2.81 7.1,2.13 13.73,5.68 18.88,11.36 v 0.02 c 4.2,4.63 6.8,9.97 8.23,15.63 1.37,5.43 1.66,11.14 1.26,16.75 -0.19,2.67 -1.38,5.06 -3.21,6.78 l -0.01,-0.01 c -1.84,1.74 -4.29,2.8 -6.98,2.8 h -37.32 c -2.8,0 -5.33,-1.13 -7.18,-2.97 -1.8,-1.8 -2.94,-4.27 -3.03,-7.02 v 0 -0.07 -0.21 c 0,-2.64 -0.29,-4.15 -0.94,-4.75 h -0.02 c -0.8,-0.73 -2.68,-1.06 -5.63,-1.15 -6.7,-0.2 -11.47,1.27 -15.01,4.17 -3.77,3.09 -6.56,8 -9.02,14.37 -1.03,2.66 -2.03,6.13 -2.17,9.34 v 0.02 c -0.08,1.91 0.13,3.66 0.86,4.84 h 0.02 c 0.45,0.73 1.17,1.23 1.99,1.56 V 74.5 c 1.28,0.51 2.81,0.72 4.31,0.77 4.95,0.18 8.55,-0.38 11.39,-1.92 2.87,-1.56 5.33,-4.31 7.93,-8.46 l -0.02,-0.01 c 0.91,-1.45 2.21,-2.67 3.72,-3.52 v -0.02 c 1.5,-0.84 3.22,-1.33 4.97,-1.33 h 36.65 c 1.69,0 3.26,0.41 4.64,1.11 l 0.02,0.02 c 1.7,0.87 3.09,2.2 4.06,3.78 0.97,1.6 1.52,3.46 1.52,5.36 0,1.55 -0.37,3.17 -1.16,4.72 h -0.01 c -1.79,3.47 -3.8,6.77 -6.02,9.86 0.39,-0.44 0.8,-0.86 1.22,-1.27 3.89,-3.73 9.23,-6.03 14.99,-6.03 4.11,0 8.18,1.45 11.54,3.71 3.55,2.39 6.42,5.78 7.79,9.4 1.09,2.89 1.65,5.52 1.63,8.25 -0.02,2.77 -0.64,5.46 -1.9,8.37 -0.73,1.69 -1.66,3.22 -2.75,4.57 l 0.49,1 h -1.34 c -0.19,0.21 -0.38,0.41 -0.58,0.61 -2.99,3 -6.88,5.01 -11,5.84 v 0.02 c -4.1,0.82 -8.51,0.46 -12.55,-1.3 -2.29,-0.99 -4.45,-2.42 -6.32,-4.29 -2.1,-2.09 -3.67,-4.25 -4.75,-6.82 h -0.01 c -1.07,-2.54 -1.59,-5.33 -1.59,-8.67 0,-3.93 1.14,-7.6 3.11,-10.72 -5.39,6.86 -11.83,12.64 -19.05,17.15 -11.21,7 -24.33,10.96 -38.34,11.14 l -0.07,0.02 h -22.49 l -0.34,-0.02 h -0.04 v 0 c -10.94,-0.34 -22.11,-2.29 -30.94,-7.47 -9.52,-5.59 -16.19,-14.61 -17.01,-28.79 -0.46,-7.93 0.37,-15.48 2.29,-22.75 1.91,-7.23 4.88,-14.14 8.72,-20.84 7.5,-13.11 17.8,-21.86 29.81,-27.48 C 950.08,3 963.34,0.58 977.15,0 h 0.05 0.07 0.25 z m -0.07,5.81 17.02,0.21 c 12.37,0.15 26.47,2.65 35.2,12.28 7,7.72 8.71,17.97 7.99,28.08 -0.17,2.34 -2.05,4.15 -4.4,4.15 h -37.32 c -2.42,0 -4.34,-1.94 -4.4,-4.37 v -0.07 c 0.01,-8.74 -3.47,-11.44 -12.24,-11.7 -16.43,-0.5 -23.98,7.72 -29.61,22.25 -2.11,5.46 -4.14,13.98 -0.83,19.35 2.36,3.83 6.88,4.92 11.07,5.07 12.02,0.45 18.14,-3.06 24.44,-13.12 0.79,-1.27 2.26,-2.12 3.75,-2.12 h 36.65 c 3.29,0 5.43,3.52 3.91,6.5 -11.83,23.03 -34.45,37.37 -60.33,37.7 h -22.49 -0.04 C 925.52,109.46 904.72,103.09 903.34,79.27 902.5,64.67 906.39,51.48 913.6,38.89 927.33,14.9 951.18,6.93 977.38,5.83 h 0.07 z M 589.27,73.28 c -5.78,5.36 -13.18,9.46 -20.56,10.97 l 10.75,16.97 c 1.89,2.99 -0.25,6.94 -3.78,6.94 l -33.53,0.01 c -1.5,0 -2.9,-0.72 -3.75,-1.98 l -21.54,-32.01 -9.95,30.89 c -0.57,1.79 -2.34,3.1 -4.21,3.1 h -33.42 c -3.05,0 -5.21,-2.98 -4.28,-5.88 l 21.16,-65.57 h -24.31 l -23.28,68.34 c -0.62,1.82 -2.33,3.05 -4.24,3.05 h -31.29 c -3.01,0 -5.19,-3.08 -4.21,-5.94 l 22.29,-65.45 h -17.07 l -67.15,69.99 c -0.84,0.88 -2.05,1.41 -3.26,1.41 h -68.99 c -2.26,0 -4.14,-1.66 -4.45,-3.91 l -7.52,-55.69 -38.92,57.6 c -0.84,1.25 -2.21,1.99 -3.71,1.99 h -89.43 c -3.04,0 -5.2,-2.99 -4.26,-5.9 l 7.23,-22.39 c -9.71,7.23 -21.72,11.45 -33.73,12 H 89.79 L 52.33,91.58 48,105.01 c -0.56,1.85 -2.35,3.1 -4.25,3.1 -11.13,0.01 -22.26,0 -33.39,0 H 10.28 10.2 C 7.17,107.92 5.07,104.93 6.13,102.12 L 35.26,11.84 c 0.6,-1.87 2.32,-3.13 4.27,-3.13 21.68,0 43.36,0.04 65.04,0 9.69,-0.02 19.27,2.41 26.7,8.92 3.77,3.3 6.63,7.36 8.57,11.87 l 5.7,-17.66 c 0.6,-1.86 2.32,-3.12 4.27,-3.12 h 31.27 c 3.05,0 5.2,3.01 4.26,5.92 L 165.15,77.2 h 26.98 l 44.92,-66.49 c 0.84,-1.25 2.32,-2.03 3.72,-1.98 h 43.99 c 2.29,0 4.15,1.65 4.46,3.93 l 11.45,84.73 23.27,-24.25 -7.87,-59.29 c -0.36,-2.71 1.69,-5.12 4.43,-5.12 h 34.69 c 2.44,0 4.4,1.96 4.47,4.4 l 0.63,22.1 24.08,-25.11 c 0.83,-0.87 2.04,-1.39 3.25,-1.39 l 172.71,0.05 c 14.18,0 29.41,3.93 37.06,17.04 2.25,3.85 3.56,8.06 4.13,12.4 C 615.31,14.77 638.96,6.95 664.9,5.86 h 0.07 l 17.02,0.21 c 19.51,0.24 40.13,7.19 43.7,28.68 l 7.36,-22.82 c 0.61,-1.88 2.3,-3.15 4.28,-3.15 12.43,0 24.85,0 37.28,0 1.92,0 3.6,1.19 4.32,2.96 l 17.09,42.16 13.55,-41.97 c 0.61,-1.88 2.31,-3.15 4.28,-3.15 h 31.26 c 3.06,0 5.21,3 4.26,5.92 l -29.15,90.34 c -0.61,1.88 -2.3,3.15 -4.28,3.15 -11.88,0 -23.76,0 -35.64,0 -1.92,0 -3.6,-1.19 -4.32,-2.96 l -18,-44.41 -14.27,44.22 c -0.61,1.88 -2.3,3.15 -4.28,3.15 h -31.26 c -3.06,0 -5.21,-3 -4.26,-5.92 l 5.45,-16.88 c -13.05,14.89 -34.75,24.45 -53.46,24.69 h -22.49 -0.04 c -20.09,-0.59 -42.68,-6.82 -44.06,-30.78 -0.12,-2.01 -0.11,-4.01 0,-5.99 z m 251.08,34.89 c -2.46,0 -3.86,-2.52 -3.17,-4.77 l 28.05,-91.45 c 0.59,-1.9 2.31,-3.18 4.29,-3.18 h 31.26 c 3.06,0 5.21,3 4.26,5.92 l -29.16,90.34 c -0.61,1.88 -2.3,3.15 -4.28,3.15 H 840.34 Z M 519.91,64.68 546.13,64.67 c 2.96,-0.25 5.92,-1 8.1,-3.14 1.93,-1.91 3.03,-4.68 3.82,-7.23 1.21,-3.93 1.97,-8.17 2.81,-12.2 0.33,-1.6 0.46,-3.56 -0.73,-4.85 -1.76,-1.89 -5.86,-2.15 -8.28,-2.15 h -22.4 l -9.53,29.58 z m 127.53,16.41 c 14.73,0.55 25.14,-5.23 30.52,-19.12 2.3,-5.94 5.4,-16.09 1.79,-22.06 -2.63,-4.35 -8.29,-5.36 -12.94,-5.5 -16.43,-0.5 -23.98,7.72 -29.61,22.25 -2.11,5.46 -4.13,13.98 -0.83,19.35 2.35,3.83 6.88,4.92 11.07,5.08 z M 70.52,35.04 l -9,28 21.07,-0.01 c 7.34,0 12.71,-4.49 15.2,-11.28 0.98,-2.67 2.18,-6.67 2.53,-9.48 0.77,-6.29 -1.66,-7.22 -7.4,-7.22 h -22.4 z m 967.11,72.01 h 4.01 v -6.91 h 2.14 c 0.14,1.75 2.47,4.89 2.94,6.91 h 4.82 l -3.74,-7.71 c 2.63,-0.22 4.62,-3.26 3.18,-6.61 -1.53,-3.55 -9.37,-2.69 -13.35,-2.69 z m 9.36,-11.43 c 0,1.13 -1.66,1.86 -2.94,1.86 h -2.41 V 92.7 c 2.81,0 5.35,-0.12 5.35,2.92 z m -18.46,2.66 c 0,5.08 1.48,8.24 4.61,11.36 7.62,7.6 20.64,4.57 24.64,-4.64 1.9,-4.38 1.85,-7.79 0.16,-12.28 -1.84,-4.87 -7.89,-9.33 -13.89,-9.33 -8.41,0 -15.52,6.63 -15.52,14.88 z m 15.52,12.49 c -6.94,0 -12.31,-5.2 -12.31,-11.43 0,-4.17 0.75,-6.46 3.68,-9.37 7.89,-7.85 20.68,-1.03 20.68,8.58 0,6.49 -5.47,12.23 -12.04,12.23 z m -492.96,60.37 c 0,0.22 -0.07,0.43 -0.22,0.61 -0.15,0.17 -0.39,0.32 -0.73,0.44 -0.34,0.1 -0.8,0.2 -1.35,0.27 -0.57,0.07 -1.29,0.1 -2.17,0.1 -0.86,0 -1.57,-0.03 -2.15,-0.1 -0.58,-0.07 -1.04,-0.16 -1.37,-0.27 -0.34,-0.11 -0.58,-0.26 -0.73,-0.44 -0.15,-0.18 -0.22,-0.39 -0.22,-0.61 v -41.41 c 0,-0.22 0.07,-0.43 0.22,-0.61 0.15,-0.17 0.39,-0.32 0.75,-0.44 0.35,-0.12 0.8,-0.2 1.37,-0.27 0.57,-0.07 1.28,-0.1 2.14,-0.1 0.88,0 1.61,0.03 2.17,0.1 0.56,0.07 1.02,0.15 1.35,0.27 0.34,0.11 0.58,0.26 0.73,0.44 0.15,0.18 0.22,0.39 0.22,0.61 v 41.41 z m 45.69,-1.91 c 0,0.52 -0.09,0.98 -0.26,1.4 -0.18,0.41 -0.43,0.74 -0.74,1.02 -0.3,0.27 -0.66,0.46 -1.08,0.59 -0.43,0.13 -0.84,0.18 -1.27,0.18 h -3.81 c -0.8,0 -1.48,-0.08 -2.06,-0.23 -0.56,-0.16 -1.1,-0.45 -1.58,-0.87 -0.5,-0.42 -0.96,-0.98 -1.41,-1.7 -0.45,-0.71 -0.96,-1.63 -1.52,-2.76 l -10.88,-20.5 c -0.64,-1.23 -1.28,-2.54 -1.93,-3.95 -0.66,-1.41 -1.24,-2.79 -1.76,-4.12 h -0.07 c 0.09,1.63 0.16,3.25 0.21,4.87 0.05,1.61 0.07,3.28 0.07,4.99 v 22.95 c 0,0.22 -0.06,0.43 -0.18,0.61 -0.13,0.17 -0.35,0.32 -0.65,0.45 -0.3,0.13 -0.72,0.22 -1.24,0.29 -0.52,0.07 -1.19,0.1 -2,0.1 -0.8,0 -1.45,-0.03 -1.98,-0.1 -0.52,-0.07 -0.92,-0.16 -1.21,-0.29 -0.3,-0.12 -0.51,-0.28 -0.61,-0.45 -0.12,-0.19 -0.17,-0.39 -0.17,-0.61 v -39.4 c 0,-1.06 0.31,-1.86 0.93,-2.39 0.61,-0.53 1.38,-0.8 2.29,-0.8 h 4.78 c 0.86,0 1.58,0.07 2.17,0.22 0.59,0.15 1.11,0.39 1.57,0.73 0.46,0.34 0.9,0.81 1.31,1.41 0.4,0.59 0.82,1.34 1.25,2.22 l 8.52,16.04 c 0.5,0.97 0.98,1.93 1.47,2.87 0.49,0.94 0.96,1.87 1.4,2.81 0.45,0.93 0.89,1.86 1.32,2.76 0.44,0.91 0.86,1.81 1.26,2.72 h 0.04 c -0.07,-1.59 -0.13,-3.24 -0.16,-4.95 -0.03,-1.72 -0.05,-3.36 -0.05,-4.93 v -20.58 c 0,-0.22 0.07,-0.43 0.21,-0.61 0.13,-0.17 0.36,-0.34 0.67,-0.48 0.32,-0.14 0.74,-0.23 1.26,-0.29 0.52,-0.06 1.19,-0.08 2,-0.08 0.78,0 1.42,0.02 1.94,0.08 0.52,0.06 0.91,0.15 1.2,0.29 0.28,0.14 0.49,0.3 0.59,0.48 0.12,0.18 0.17,0.38 0.17,0.61 v 39.4 z m 45.97,-19.44 c 0,4.02 -0.52,7.46 -1.57,10.32 -1.05,2.85 -2.56,5.18 -4.52,6.99 -1.97,1.8 -4.36,3.13 -7.17,3.98 -2.81,0.84 -6.16,1.27 -10.05,1.27 h -10.46 c -0.75,0 -1.37,-0.22 -1.88,-0.66 -0.51,-0.44 -0.76,-1.15 -0.76,-2.15 v -38.22 c 0,-0.99 0.25,-1.71 0.76,-2.15 0.51,-0.44 1.13,-0.66 1.88,-0.66 h 11.24 c 3.91,0 7.23,0.46 9.94,1.38 2.73,0.91 5.02,2.27 6.88,4.06 1.86,1.8 3.28,4.02 4.26,6.66 0.97,2.65 1.46,5.7 1.46,9.18 z m -9.23,0.31 c 0,-2.08 -0.24,-4 -0.73,-5.79 -0.48,-1.78 -1.26,-3.32 -2.33,-4.62 -1.07,-1.31 -2.45,-2.34 -4.13,-3.06 -1.69,-0.73 -3.88,-1.1 -6.62,-1.1 h -4.5 v 29.76 h 4.64 c 2.44,0 4.5,-0.31 6.16,-0.95 1.66,-0.62 3.06,-1.58 4.19,-2.85 1.11,-1.27 1.94,-2.86 2.5,-4.75 0.55,-1.89 0.83,-4.1 0.83,-6.62 z m 52.26,5.92 c 0,2.68 -0.39,5.09 -1.19,7.2 -0.79,2.13 -1.94,3.92 -3.48,5.39 -1.54,1.47 -3.43,2.59 -5.69,3.36 -2.27,0.77 -4.86,1.15 -7.79,1.15 -2.75,0 -5.23,-0.35 -7.41,-1.03 -2.2,-0.69 -4.05,-1.73 -5.56,-3.13 -1.51,-1.4 -2.67,-3.14 -3.47,-5.24 -0.8,-2.09 -1.2,-4.53 -1.2,-7.33 v -26.66 c 0,-0.22 0.07,-0.43 0.21,-0.61 0.13,-0.17 0.37,-0.32 0.72,-0.44 0.35,-0.12 0.81,-0.2 1.38,-0.27 0.55,-0.07 1.28,-0.1 2.16,-0.1 0.84,0 1.56,0.03 2.12,0.1 0.56,0.07 1.01,0.15 1.35,0.27 0.34,0.11 0.58,0.26 0.73,0.44 0.15,0.18 0.22,0.39 0.22,0.61 v 25.9 c 0,1.75 0.22,3.25 0.65,4.53 0.43,1.27 1.04,2.34 1.85,3.17 0.8,0.83 1.76,1.47 2.88,1.88 1.12,0.42 2.37,0.62 3.75,0.62 1.4,0 2.66,-0.22 3.76,-0.65 1.11,-0.43 2.05,-1.05 2.82,-1.87 0.76,-0.83 1.36,-1.85 1.78,-3.05 0.42,-1.21 0.63,-2.59 0.63,-4.13 v -26.41 c 0,-0.22 0.07,-0.43 0.21,-0.61 0.13,-0.17 0.37,-0.32 0.7,-0.44 0.34,-0.12 0.8,-0.2 1.38,-0.27 0.58,-0.07 1.29,-0.1 2.15,-0.1 0.85,0 1.56,0.03 2.11,0.1 0.55,0.07 1.01,0.15 1.34,0.27 0.34,0.11 0.58,0.26 0.7,0.44 0.14,0.18 0.21,0.39 0.21,0.61 v 26.29 z m 35.57,3.18 c 0,2.31 -0.43,4.32 -1.28,6.07 -0.87,1.73 -2.02,3.18 -3.49,4.35 -1.48,1.15 -3.19,2.03 -5.16,2.62 -1.97,0.59 -4.07,0.88 -6.31,0.88 -1.52,0 -2.91,-0.13 -4.22,-0.38 -1.29,-0.25 -2.44,-0.55 -3.43,-0.91 -0.99,-0.35 -1.83,-0.72 -2.5,-1.11 -0.67,-0.39 -1.14,-0.74 -1.45,-1.03 -0.29,-0.3 -0.49,-0.73 -0.62,-1.28 -0.13,-0.55 -0.19,-1.34 -0.19,-2.38 0,-0.71 0.02,-1.28 0.07,-1.76 0.05,-0.48 0.12,-0.86 0.22,-1.16 0.1,-0.29 0.24,-0.5 0.4,-0.62 0.17,-0.13 0.37,-0.18 0.6,-0.18 0.31,0 0.76,0.18 1.34,0.56 0.58,0.37 1.32,0.79 2.22,1.24 0.9,0.45 1.99,0.87 3.25,1.24 1.25,0.38 2.7,0.57 4.36,0.57 1.09,0 2.06,-0.13 2.91,-0.38 0.87,-0.26 1.6,-0.62 2.2,-1.1 0.6,-0.47 1.05,-1.05 1.38,-1.75 0.31,-0.69 0.47,-1.47 0.47,-2.32 0,-0.99 -0.27,-1.85 -0.81,-2.55 -0.54,-0.72 -1.25,-1.34 -2.13,-1.9 -0.86,-0.55 -1.86,-1.07 -2.97,-1.56 -1.1,-0.49 -2.24,-0.99 -3.42,-1.54 -1.18,-0.54 -2.32,-1.15 -3.42,-1.85 -1.11,-0.68 -2.11,-1.5 -2.97,-2.46 -0.88,-0.96 -1.58,-2.09 -2.13,-3.41 -0.54,-1.31 -0.81,-2.88 -0.81,-4.71 0,-2.09 0.39,-3.94 1.17,-5.54 0.77,-1.59 1.83,-2.9 3.14,-3.95 1.33,-1.05 2.88,-1.84 4.67,-2.36 1.79,-0.52 3.7,-0.78 5.71,-0.78 1.03,0 2.07,0.08 3.11,0.24 1.04,0.15 2.01,0.37 2.91,0.63 0.9,0.28 1.7,0.58 2.41,0.91 0.69,0.35 1.15,0.62 1.38,0.86 0.22,0.22 0.37,0.42 0.45,0.57 0.08,0.16 0.15,0.37 0.21,0.64 0.06,0.25 0.09,0.58 0.12,0.98 0.02,0.39 0.03,0.88 0.03,1.47 0,0.65 -0.01,1.2 -0.05,1.66 -0.03,0.45 -0.09,0.82 -0.17,1.12 -0.08,0.29 -0.2,0.51 -0.33,0.63 -0.15,0.14 -0.35,0.21 -0.6,0.21 -0.24,0 -0.63,-0.16 -1.18,-0.47 -0.54,-0.31 -1.21,-0.66 -2,-1.04 -0.8,-0.37 -1.71,-0.71 -2.75,-1 -1.04,-0.31 -2.17,-0.46 -3.42,-0.46 -0.97,0 -1.81,0.12 -2.54,0.36 -0.72,0.23 -1.32,0.57 -1.8,0.98 -0.48,0.42 -0.86,0.91 -1.09,1.5 -0.24,0.59 -0.36,1.21 -0.36,1.86 0,0.97 0.27,1.82 0.8,2.52 0.53,0.72 1.25,1.35 2.14,1.91 0.89,0.54 1.91,1.06 3.04,1.55 1.12,0.48 2.28,1.01 3.46,1.54 1.18,0.54 2.34,1.15 3.46,1.85 1.13,0.69 2.14,1.51 3.03,2.47 0.88,0.96 1.59,2.08 2.14,3.39 0.54,1.29 0.81,2.82 0.81,4.58 z m 35.23,-27.03 c 0,0.66 -0.02,1.21 -0.08,1.69 -0.06,0.46 -0.14,0.83 -0.26,1.11 -0.11,0.29 -0.25,0.5 -0.43,0.62 -0.16,0.14 -0.36,0.21 -0.55,0.21 H 744.3 v 35.34 c 0,0.22 -0.07,0.43 -0.22,0.61 -0.15,0.17 -0.39,0.32 -0.73,0.44 -0.34,0.1 -0.8,0.2 -1.38,0.27 -0.58,0.07 -1.29,0.1 -2.15,0.1 -0.85,0 -1.57,-0.03 -2.15,-0.1 -0.58,-0.07 -1.04,-0.16 -1.38,-0.27 -0.34,-0.11 -0.58,-0.26 -0.73,-0.44 -0.15,-0.18 -0.22,-0.39 -0.22,-0.61 V 135.8 h -10.96 c -0.22,0 -0.42,-0.07 -0.58,-0.21 -0.15,-0.13 -0.29,-0.34 -0.4,-0.62 -0.1,-0.28 -0.2,-0.65 -0.25,-1.11 -0.06,-0.47 -0.08,-1.03 -0.08,-1.69 0,-0.67 0.02,-1.25 0.08,-1.72 0.06,-0.47 0.15,-0.85 0.25,-1.13 0.12,-0.29 0.25,-0.48 0.4,-0.61 0.16,-0.13 0.36,-0.19 0.58,-0.19 h 30.87 c 0.2,0 0.38,0.06 0.55,0.19 0.17,0.13 0.31,0.32 0.43,0.61 0.12,0.28 0.2,0.66 0.26,1.13 0.06,0.47 0.08,1.05 0.08,1.72 z m 37.75,39.04 c 0,0.24 -0.04,0.45 -0.14,0.62 -0.09,0.17 -0.3,0.31 -0.64,0.43 -0.35,0.1 -0.83,0.19 -1.49,0.23 -0.66,0.04 -1.55,0.07 -2.67,0.07 -0.95,0 -1.7,-0.02 -2.27,-0.07 -0.57,-0.05 -1.02,-0.13 -1.34,-0.26 -0.32,-0.13 -0.55,-0.28 -0.69,-0.47 -0.13,-0.2 -0.24,-0.43 -0.34,-0.69 l -3.95,-9.82 c -0.48,-1.11 -0.94,-2.1 -1.39,-2.96 -0.45,-0.87 -0.96,-1.59 -1.51,-2.16 -0.55,-0.58 -1.2,-1.01 -1.93,-1.31 -0.72,-0.29 -1.56,-0.44 -2.51,-0.44 h -2.79 v 16.75 c 0,0.22 -0.07,0.43 -0.22,0.6 -0.15,0.18 -0.39,0.33 -0.73,0.45 -0.34,0.1 -0.79,0.2 -1.35,0.27 -0.55,0.07 -1.28,0.1 -2.15,0.1 -0.86,0 -1.57,-0.03 -2.15,-0.1 -0.58,-0.07 -1.03,-0.16 -1.36,-0.27 -0.33,-0.11 -0.58,-0.26 -0.7,-0.44 -0.14,-0.18 -0.21,-0.39 -0.21,-0.61 v -39.82 c 0,-0.99 0.25,-1.71 0.76,-2.15 0.51,-0.44 1.13,-0.66 1.87,-0.66 h 11.35 c 1.15,0 2.11,0.02 2.84,0.07 0.74,0.04 1.42,0.1 2.04,0.16 1.76,0.25 3.34,0.68 4.75,1.29 1.41,0.6 2.61,1.4 3.6,2.38 0.98,0.98 1.73,2.14 2.25,3.48 0.52,1.34 0.77,2.88 0.77,4.62 0,1.46 -0.18,2.8 -0.55,4 -0.38,1.21 -0.92,2.29 -1.65,3.24 -0.72,0.95 -1.61,1.77 -2.67,2.46 -1.07,0.7 -2.28,1.26 -3.63,1.7 0.66,0.31 1.27,0.69 1.85,1.14 0.58,0.45 1.12,1 1.63,1.65 0.51,0.65 0.99,1.38 1.45,2.21 0.45,0.82 0.89,1.76 1.32,2.8 l 3.71,8.66 c 0.34,0.86 0.57,1.48 0.67,1.88 0.12,0.39 0.17,0.71 0.17,0.94 z m -11.52,-29.77 c 0,-1.45 -0.32,-2.67 -0.98,-3.65 -0.66,-0.99 -1.73,-1.7 -3.22,-2.11 -0.45,-0.11 -0.96,-0.2 -1.54,-0.27 -0.58,-0.07 -1.38,-0.1 -2.39,-0.1 h -4 v 12.42 h 4.54 c 1.27,0 2.37,-0.15 3.32,-0.46 0.96,-0.3 1.75,-0.73 2.39,-1.28 0.63,-0.54 1.11,-1.21 1.42,-1.98 0.31,-0.76 0.47,-1.62 0.47,-2.57 z m 26.99,29.7 c 0,0.22 -0.07,0.43 -0.22,0.61 -0.15,0.17 -0.39,0.32 -0.73,0.44 -0.34,0.1 -0.8,0.2 -1.35,0.27 -0.56,0.07 -1.29,0.1 -2.17,0.1 -0.85,0 -1.57,-0.03 -2.15,-0.1 -0.58,-0.07 -1.04,-0.16 -1.38,-0.27 -0.34,-0.11 -0.58,-0.26 -0.73,-0.44 -0.15,-0.18 -0.22,-0.39 -0.22,-0.61 v -41.41 c 0,-0.22 0.07,-0.43 0.22,-0.61 0.15,-0.17 0.39,-0.32 0.75,-0.44 0.35,-0.12 0.8,-0.2 1.37,-0.27 0.57,-0.07 1.28,-0.1 2.14,-0.1 0.88,0 1.61,0.03 2.17,0.1 0.56,0.07 1.02,0.15 1.35,0.27 0.34,0.11 0.58,0.26 0.73,0.44 0.15,0.18 0.22,0.39 0.22,0.61 z m 45.45,-2.1 c 0.27,0.81 0.44,1.46 0.51,1.93 0.07,0.47 -0.03,0.83 -0.27,1.07 -0.25,0.23 -0.69,0.38 -1.33,0.44 -0.62,0.06 -1.5,0.08 -2.6,0.08 -1.16,0 -2.06,-0.01 -2.7,-0.05 -0.65,-0.03 -1.13,-0.1 -1.48,-0.21 -0.34,-0.1 -0.57,-0.24 -0.71,-0.43 -0.14,-0.17 -0.25,-0.42 -0.34,-0.7 l -2.88,-8.81 h -16.53 l -2.77,8.57 c -0.09,0.32 -0.21,0.59 -0.36,0.8 -0.14,0.22 -0.38,0.38 -0.71,0.51 -0.32,0.13 -0.79,0.21 -1.38,0.26 -0.6,0.04 -1.39,0.07 -2.36,0.07 -1.04,0 -1.85,-0.03 -2.44,-0.1 -0.59,-0.07 -0.99,-0.23 -1.21,-0.49 -0.23,-0.27 -0.31,-0.64 -0.24,-1.11 0.07,-0.48 0.24,-1.1 0.51,-1.9 l 13.5,-38.91 c 0.13,-0.38 0.29,-0.69 0.47,-0.92 0.17,-0.24 0.46,-0.42 0.86,-0.54 0.4,-0.13 0.95,-0.21 1.65,-0.24 0.69,-0.03 1.62,-0.05 2.78,-0.05 1.33,0 2.39,0.01 3.18,0.05 0.8,0.03 1.41,0.11 1.85,0.24 0.44,0.13 0.75,0.31 0.95,0.55 0.19,0.25 0.36,0.59 0.49,1.02 l 13.55,38.87 z M 835.13,136.85 H 835.1 L 829,155.5 h 12.3 l -6.16,-18.65 z m 50.33,31.78 c 0,0.67 -0.02,1.25 -0.08,1.71 -0.06,0.46 -0.15,0.85 -0.26,1.14 -0.11,0.31 -0.25,0.53 -0.43,0.66 -0.17,0.14 -0.37,0.21 -0.59,0.21 h -20.08 c -0.74,0 -1.36,-0.22 -1.87,-0.66 -0.51,-0.44 -0.76,-1.15 -0.76,-2.15 v -39.82 c 0,-0.22 0.07,-0.43 0.22,-0.61 0.15,-0.17 0.39,-0.32 0.73,-0.44 0.34,-0.12 0.8,-0.2 1.37,-0.27 0.58,-0.07 1.3,-0.1 2.15,-0.1 0.88,0 1.61,0.03 2.17,0.1 0.56,0.07 1.02,0.15 1.35,0.27 0.34,0.11 0.58,0.26 0.73,0.44 0.15,0.18 0.22,0.39 0.22,0.61 V 165 h 13.77 c 0.22,0 0.43,0.06 0.59,0.18 0.17,0.13 0.31,0.32 0.43,0.62 0.12,0.28 0.2,0.65 0.26,1.12 0.06,0.46 0.08,1.03 0.08,1.71 z m 45.01,0 c 0,0.67 -0.02,1.25 -0.08,1.71 -0.06,0.46 -0.15,0.85 -0.26,1.14 -0.11,0.31 -0.25,0.53 -0.43,0.66 -0.17,0.14 -0.37,0.21 -0.59,0.21 h -20.08 c -0.74,0 -1.36,-0.22 -1.87,-0.66 -0.51,-0.44 -0.76,-1.15 -0.76,-2.15 v -39.82 c 0,-0.22 0.07,-0.43 0.22,-0.61 0.15,-0.17 0.39,-0.32 0.73,-0.44 0.34,-0.12 0.8,-0.2 1.37,-0.27 0.58,-0.07 1.3,-0.1 2.15,-0.1 0.88,0 1.61,0.03 2.18,0.1 0.56,0.07 1.02,0.15 1.35,0.27 0.34,0.11 0.58,0.26 0.73,0.44 0.15,0.18 0.22,0.39 0.22,0.61 V 165 h 13.77 c 0.22,0 0.43,0.06 0.59,0.18 0.17,0.13 0.31,0.32 0.43,0.62 0.12,0.28 0.2,0.65 0.26,1.12 0.06,0.46 0.08,1.03 0.08,1.71 z m 29.32,-36.47 c 0,0.66 -0.02,1.21 -0.08,1.69 -0.06,0.46 -0.14,0.83 -0.25,1.11 -0.11,0.29 -0.25,0.5 -0.43,0.62 -0.16,0.14 -0.36,0.21 -0.55,0.21 h -10.96 v 35.34 c 0,0.22 -0.07,0.43 -0.22,0.61 -0.15,0.17 -0.39,0.32 -0.73,0.44 -0.34,0.1 -0.8,0.2 -1.38,0.27 -0.58,0.07 -1.29,0.1 -2.15,0.1 -0.85,0 -1.57,-0.03 -2.15,-0.1 -0.58,-0.07 -1.04,-0.16 -1.37,-0.27 -0.34,-0.11 -0.58,-0.26 -0.73,-0.44 -0.15,-0.18 -0.22,-0.39 -0.22,-0.61 v -35.34 h -10.96 c -0.22,0 -0.42,-0.07 -0.58,-0.21 -0.15,-0.13 -0.29,-0.34 -0.4,-0.62 -0.1,-0.28 -0.2,-0.65 -0.25,-1.11 -0.06,-0.47 -0.08,-1.03 -0.08,-1.69 0,-0.67 0.02,-1.25 0.08,-1.72 0.06,-0.47 0.15,-0.85 0.25,-1.13 0.12,-0.29 0.26,-0.48 0.4,-0.61 0.16,-0.13 0.36,-0.19 0.58,-0.19 h 30.87 c 0.2,0 0.38,0.06 0.55,0.19 0.17,0.13 0.31,0.32 0.43,0.61 0.12,0.28 0.2,0.66 0.25,1.13 0.06,0.47 0.08,1.05 0.08,1.72 z m 41.63,17.62 c 0,4.02 -0.52,7.46 -1.57,10.32 -1.05,2.85 -2.56,5.18 -4.52,6.99 -1.97,1.8 -4.36,3.13 -7.17,3.98 -2.81,0.84 -6.16,1.27 -10.05,1.27 h -10.46 c -0.75,0 -1.37,-0.22 -1.88,-0.66 -0.51,-0.44 -0.76,-1.15 -0.76,-2.15 v -38.22 c 0,-0.99 0.25,-1.71 0.76,-2.15 0.51,-0.44 1.13,-0.66 1.88,-0.66 h 11.24 c 3.91,0 7.23,0.46 9.94,1.38 2.73,0.91 5.02,2.27 6.88,4.06 1.86,1.8 3.29,4.02 4.26,6.66 0.97,2.65 1.45,5.7 1.45,9.18 z m -9.23,0.31 c 0,-2.08 -0.24,-4 -0.73,-5.79 -0.48,-1.78 -1.26,-3.32 -2.34,-4.62 -1.07,-1.31 -2.45,-2.34 -4.12,-3.06 -1.69,-0.73 -3.89,-1.1 -6.63,-1.1 h -4.5 v 29.76 h 4.64 c 2.44,0 4.5,-0.31 6.16,-0.95 1.66,-0.62 3.06,-1.58 4.19,-2.85 1.11,-1.27 1.94,-2.86 2.5,-4.75 0.55,-1.89 0.83,-4.1 0.83,-6.62 z m 50.82,18.94 c 0.27,0.81 0.44,1.46 0.51,1.93 0.07,0.47 -0.03,0.83 -0.27,1.07 -0.25,0.23 -0.69,0.38 -1.33,0.44 -0.62,0.06 -1.5,0.08 -2.6,0.08 -1.15,0 -2.06,-0.01 -2.69,-0.05 -0.65,-0.03 -1.13,-0.1 -1.48,-0.21 -0.34,-0.1 -0.57,-0.24 -0.7,-0.43 -0.14,-0.17 -0.25,-0.42 -0.34,-0.7 l -2.88,-8.81 h -16.53 l -2.76,8.57 c -0.09,0.32 -0.21,0.59 -0.36,0.8 -0.14,0.22 -0.38,0.38 -0.71,0.51 -0.32,0.13 -0.78,0.21 -1.38,0.26 -0.6,0.04 -1.39,0.07 -2.36,0.07 -1.04,0 -1.85,-0.03 -2.44,-0.1 -0.59,-0.07 -0.99,-0.23 -1.21,-0.49 -0.23,-0.27 -0.31,-0.64 -0.24,-1.11 0.07,-0.48 0.24,-1.1 0.51,-1.9 l 13.5,-38.91 c 0.13,-0.38 0.29,-0.69 0.47,-0.92 0.17,-0.24 0.46,-0.42 0.86,-0.54 0.4,-0.13 0.95,-0.21 1.65,-0.24 0.69,-0.03 1.62,-0.05 2.78,-0.05 1.33,0 2.39,0.01 3.18,0.05 0.8,0.03 1.41,0.11 1.85,0.24 0.44,0.13 0.75,0.31 0.95,0.55 0.19,0.25 0.36,0.59 0.49,1.02 l 13.55,38.87 z m -20.12,-32.19 h -0.03 l -6.1,18.65 h 12.3 l -6.16,-18.65 z m 36.27,30.61 c 0,2.09 -0.36,3.51 -1.1,4.23 -0.73,0.73 -2.04,1.09 -3.94,1.09 -1.89,0 -3.21,-0.36 -3.93,-1.06 -0.73,-0.72 -1.09,-2.07 -1.09,-4.06 0,-2.12 0.37,-3.55 1.1,-4.27 0.74,-0.73 2.07,-1.09 3.99,-1.09 1.87,0 3.17,0.36 3.89,1.06 0.72,0.72 1.07,2.08 1.07,4.09 z M 584,84.37 c -0.61,0.36 -1.23,0.7 -1.85,1.04 -1.47,0.78 -2.97,1.49 -4.49,2.12 l 6.69,10.57 0.01,-0.01 c 1.11,1.75 1.62,3.66 1.62,5.52 0,1.74 -0.46,3.46 -1.3,4.98 v 0.02 c -0.82,1.5 -2.03,2.81 -3.54,3.76 l 0.01,0.01 c -1.57,1 -3.44,1.59 -5.49,1.59 v -0.02 l -33.53,0.01 v 0.02 c -1.69,0 -3.35,-0.42 -4.84,-1.21 -1.48,-0.78 -2.77,-1.92 -3.74,-3.35 v -0.02 l -14.85,-22.07 -6.28,19.49 c -0.67,2.09 -2.02,3.89 -3.72,5.14 -1.72,1.26 -3.83,2.01 -6.03,2.01 h -33.42 c -1.05,0 -2.11,-0.18 -3.14,-0.51 h -0.02 c -2.13,-0.69 -3.93,-2.03 -5.18,-3.75 -1.25,-1.73 -1.98,-3.84 -1.98,-6.06 0,-1.01 0.17,-2.08 0.52,-3.17 l 18.7,-57.96 h -12.16 l -21.93,64.38 c -0.71,2.08 -2.04,3.83 -3.75,5.05 -1.73,1.24 -3.82,1.96 -6,1.96 h -31.29 c -1.12,0 -2.23,-0.2 -3.26,-0.55 -2.09,-0.71 -3.84,-2.08 -5.07,-3.8 -1.23,-1.73 -1.95,-3.82 -1.95,-6 0,-1.07 0.18,-2.18 0.56,-3.29 l 19.67,-57.76 h -6.47 l -65.42,68.19 c -0.97,1.01 -2.14,1.82 -3.39,2.36 l -0.01,-0.02 c -1.3,0.56 -2.69,0.87 -4.05,0.87 h -68.99 c -2.59,0 -4.97,-0.96 -6.8,-2.57 -1.8,-1.59 -3.06,-3.82 -3.41,-6.39 l -5.48,-40.56 -30.38,44.96 -0.01,-0.01 c -0.96,1.43 -2.24,2.56 -3.67,3.34 h -0.02 c -1.49,0.8 -3.15,1.23 -4.83,1.23 h -89.43 c -1.06,0 -2.12,-0.18 -3.15,-0.51 -2.14,-0.69 -3.94,-2.04 -5.19,-3.76 -1.25,-1.73 -1.98,-3.85 -1.98,-6.07 0,-1.01 0.17,-2.08 0.52,-3.17 l 2.63,-8.16 c -1.28,0.55 -2.57,1.05 -3.88,1.52 -6.2,2.2 -12.75,3.51 -19.34,3.82 v 0.01 h -0.07 -0.41 l -33.21,-0.22 -2.99,9.26 h 0.01 c -0.65,2.17 -2.02,3.98 -3.76,5.25 -1.73,1.26 -3.87,1.99 -6.07,1.99 H 21.46 10.33 v 0.02 H 10.25 L 9.93,113.87 H 9.85 9.83 c -1.09,-0.07 -2.13,-0.3 -3.08,-0.66 -2.08,-0.78 -3.81,-2.2 -5,-3.97 -1.22,-1.82 -1.86,-4 -1.72,-6.26 0.06,-0.97 0.26,-1.95 0.61,-2.9 L 29.7,10.02 c 0.69,-2.14 2.02,-3.93 3.73,-5.18 1.72,-1.27 3.84,-2 6.08,-2 v 0.02 l 20.41,0.01 c 14.88,0.01 29.76,0.02 44.63,-0.01 5.69,-0.01 11.38,0.75 16.75,2.54 4.97,1.66 9.65,4.2 13.78,7.82 1.04,0.91 2.02,1.87 2.94,2.88 l 1.96,-6.08 c 0.69,-2.13 2.02,-3.93 3.72,-5.17 1.73,-1.27 3.85,-2 6.08,-2 h 31.27 c 1.06,0 2.12,0.18 3.14,0.51 2.14,0.69 3.94,2.04 5.19,3.76 v 0.02 c 1.25,1.74 1.98,3.86 1.98,6.05 0,1.01 -0.17,2.09 -0.52,3.17 l -17.73,54.95 h 15.9 L 232.19,7.39 h 0.02 c 0.97,-1.42 2.28,-2.59 3.75,-3.37 v 0.01 c 1.46,-0.77 3.11,-1.2 4.77,-1.18 V 2.83 h 43.99 c 2.6,0 4.99,0.96 6.82,2.56 v 0.02 c 1.81,1.6 3.06,3.83 3.41,6.4 l 9.83,72.78 13,-13.55 -7.5,-56.5 v 0 c -0.07,-0.54 -0.11,-1.01 -0.11,-1.39 0,-2.55 0.95,-4.93 2.53,-6.76 1.58,-1.83 3.82,-3.11 6.42,-3.46 h 0.02 c 0.53,-0.07 0.99,-0.11 1.34,-0.11 h 34.69 c 2.8,0 5.34,1.13 7.2,2.96 1.84,1.81 3.01,4.32 3.08,7.11 L 365.68,21.1 380.16,6 c 0.97,-1.01 2.13,-1.81 3.38,-2.34 h 0.02 c 1.28,-0.54 2.66,-0.85 4.04,-0.85 v 0.02 l 172.71,0.05 c 8.49,0 17.39,1.32 25.19,4.9 6.83,3.14 12.78,7.95 16.9,15.01 v 0.02 c 0.44,0.76 0.86,1.54 1.24,2.33 6.43,-7.47 14.07,-12.95 22.55,-16.87 11.62,-5.36 24.76,-7.75 38.45,-8.32 h 0.05 0.07 0.25 l 17.02,0.21 c 11.73,0.14 23.92,2.57 33.31,8.73 3.71,2.43 6.97,5.42 9.61,9.03 l 2.54,-7.87 c 0.69,-2.14 2.01,-3.94 3.73,-5.2 1.73,-1.27 3.84,-2 6.09,-2 h 37.28 c 2.15,0 4.17,0.67 5.87,1.83 1.7,1.16 3.05,2.81 3.84,4.77 l 11.08,27.33 8.63,-26.74 c 0.69,-2.14 2.01,-3.94 3.73,-5.2 1.73,-1.27 3.84,-2 6.09,-2 h 31.26 c 1.05,0 2.11,0.18 3.14,0.51 h 0.02 c 2.13,0.69 3.93,2.05 5.18,3.78 1.25,1.74 1.98,3.85 1.98,6.05 0,1.04 -0.17,2.12 -0.52,3.21 h -0.01 l -29.15,90.32 c -0.69,2.14 -2.01,3.94 -3.73,5.2 -1.73,1.27 -3.84,2 -6.09,2 h -35.64 c -2.15,0 -4.17,-0.67 -5.87,-1.83 l -0.02,-0.02 c -1.68,-1.16 -3.03,-2.8 -3.82,-4.75 l -11.99,-29.58 -9.35,28.98 c -0.69,2.14 -2.02,3.94 -3.73,5.2 -1.72,1.27 -3.84,2 -6.08,2 h -31.26 c -1.05,0 -2.11,-0.18 -3.14,-0.51 h -0.02 c -2.13,-0.69 -3.93,-2.05 -5.18,-3.78 -1.25,-1.73 -1.98,-3.85 -1.98,-6.05 0,-0.33 0.02,-0.67 0.05,-1.01 -3.31,2.12 -6.78,4.02 -10.35,5.67 -10.2,4.71 -21.28,7.42 -31.59,7.55 l -0.07,0.02 h -22.49 l -0.34,-0.02 H 633 v 0 c -12.19,-0.37 -25.33,-2.76 -35.03,-9.54 -7.05,-4.93 -12.22,-11.98 -13.95,-21.93 z m 256.34,29.61 c -0.91,0 -1.82,-0.15 -2.68,-0.42 v -0.01 c -2.09,-0.64 -3.76,-1.96 -4.88,-3.65 v 0 c -1.04,-1.57 -1.62,-3.45 -1.62,-5.34 0,-0.9 0.15,-1.87 0.45,-2.86 v -0.02 l 28.05,-91.45 c 0.67,-2.16 1.99,-3.99 3.72,-5.27 1.74,-1.29 3.88,-2.04 6.13,-2.04 h 31.26 c 1.05,0 2.11,0.18 3.14,0.51 h 0.02 c 2.13,0.69 3.93,2.05 5.18,3.78 1.25,1.74 1.98,3.85 1.98,6.05 0,1.04 -0.17,2.12 -0.52,3.21 h -0.01 l -29.15,90.32 c -0.69,2.14 -2.01,3.94 -3.73,5.2 -1.73,1.27 -3.84,2 -6.09,2 H 840.33 Z M 527.87,58.86 h 17.77 v 0 c 1.05,-0.09 2.06,-0.25 2.88,-0.54 v -0.01 c 0.64,-0.22 1.2,-0.53 1.62,-0.94 0.46,-0.45 0.86,-1.08 1.2,-1.78 v -0.02 c 0.45,-0.92 0.82,-1.97 1.14,-2.99 0.91,-2.97 1.56,-6.15 2.18,-9.25 v -0.02 l 0.44,-2.15 c -1.06,-0.2 -2.32,-0.25 -3.27,-0.25 h -18.17 l -5.78,17.95 z m 119.76,16.42 c 6.22,0.23 11.43,-0.81 15.53,-3.3 4.02,-2.44 7.16,-6.42 9.36,-12.11 1.02,-2.65 2.23,-6.23 2.77,-9.79 0.43,-2.86 0.44,-5.57 -0.53,-7.17 h -0.02 c -0.52,-0.86 -1.5,-1.45 -2.64,-1.84 -1.68,-0.59 -3.66,-0.8 -5.47,-0.86 -6.7,-0.2 -11.47,1.26 -15.01,4.17 -3.77,3.09 -6.55,8 -9.02,14.37 -1.03,2.66 -2.03,6.12 -2.17,9.34 v 0.02 c -0.08,1.89 0.14,3.63 0.88,4.84 0.44,0.72 1.17,1.21 2.02,1.55 1.29,0.51 2.81,0.72 4.29,0.77 z M 74.73,40.86 69.47,57.22 82.57,57.21 v -0.02 c 2.29,0 4.23,-0.65 5.77,-1.79 1.72,-1.28 3.08,-3.24 3.97,-5.67 0.5,-1.35 1.05,-3.04 1.48,-4.66 v -0.02 c 0.34,-1.26 0.61,-2.5 0.73,-3.5 v 0 c 0.13,-0.9 1.24,-0.42 0.81,-0.78 -0.09,-0.07 -0.86,0.09 -2.43,0.09 z m 481.1,133.9 c -0.15,0.23 -0.31,0.46 -0.49,0.68 l -0.09,0.11 c -0.5,0.57 -1.07,1.05 -1.69,1.43 l -0.01,-0.02 c -0.49,0.3 -1.03,0.55 -1.58,0.73 l -0.11,0.05 c -0.29,0.09 -0.69,0.19 -1.17,0.28 l -0.04,0.02 c -0.2,0.04 -0.58,0.1 -1.14,0.17 l -0.02,0.02 c -0.31,0.04 -0.79,0.07 -1.43,0.1 -0.69,0.03 -1.2,0.05 -1.45,0.05 -0.24,0 -0.75,-0.02 -1.42,-0.05 -0.62,-0.03 -1.09,-0.06 -1.41,-0.1 h -0.02 c -0.4,-0.05 -0.8,-0.11 -1.17,-0.19 v -0.01 c -0.44,-0.08 -0.85,-0.19 -1.2,-0.3 l -0.14,-0.05 c -0.55,-0.19 -1.09,-0.44 -1.58,-0.73 l -0.01,0.02 c -0.63,-0.38 -1.2,-0.86 -1.69,-1.43 l -0.09,-0.11 c -0.52,-0.64 -0.91,-1.32 -1.16,-2.04 v 0 c -0.26,-0.74 -0.4,-1.49 -0.4,-2.26 v -41.41 c 0,-0.73 0.13,-1.46 0.38,-2.19 v 0 c 0.25,-0.74 0.64,-1.45 1.19,-2.11 l 0.09,-0.11 c 0.48,-0.56 1.05,-1.04 1.69,-1.43 l 0.07,-0.02 c 0.51,-0.3 1.04,-0.54 1.59,-0.72 v 0.01 c 0.47,-0.15 0.89,-0.26 1.28,-0.34 h 0.02 c 0.43,-0.08 0.81,-0.14 1.15,-0.18 0.31,-0.04 0.79,-0.07 1.42,-0.1 0.67,-0.03 1.18,-0.05 1.42,-0.05 0.25,0 0.76,0.02 1.45,0.05 0.64,0.03 1.12,0.06 1.43,0.1 l 0.02,0.02 c 0.49,0.06 0.89,0.12 1.12,0.16 h 0.02 c 0.39,0.07 0.82,0.19 1.32,0.36 v 0 c 0.55,0.19 1.09,0.44 1.58,0.73 l 0.01,-0.02 c 0.62,0.38 1.19,0.86 1.69,1.43 l 0.09,0.11 c 0.34,0.42 0.62,0.85 0.85,1.3 0.43,-0.66 0.95,-1.26 1.58,-1.8 l -0.01,-0.01 c 1.71,-1.49 3.74,-2.23 6.09,-2.23 h 4.78 c 0.47,0 1.05,0.03 1.73,0.1 h 0.05 c 0.67,0.07 1.27,0.17 1.8,0.3 l 0.05,0.02 c 0.66,0.17 1.27,0.38 1.81,0.64 0.57,0.26 1.13,0.6 1.7,1 l 0.05,0.02 c 0.52,0.38 1.04,0.84 1.52,1.36 v 0 c 0.4,0.43 0.8,0.94 1.17,1.5 v 0 c 0.36,0.53 0.66,1 0.87,1.39 0.14,0.25 0.38,0.72 0.68,1.34 l 0.02,-0.01 2.82,5.3 v -5.83 c 0,-1.43 0.45,-2.8 1.35,-4.03 v 0 c 0.42,-0.58 0.94,-1.09 1.54,-1.52 v 0 c 0.45,-0.33 0.95,-0.62 1.45,-0.84 l 0.11,-0.07 c 0.43,-0.18 0.94,-0.34 1.49,-0.47 h 0.07 c 0.48,-0.11 0.92,-0.18 1.3,-0.23 h 0.04 c 0.32,-0.03 0.75,-0.06 1.28,-0.08 v 0 l 1.34,-0.04 c 0.21,0 0.59,0.01 1.32,0.04 v 0 c 0.5,0.02 0.91,0.05 1.24,0.08 h 0.04 c 0.5,0.06 0.95,0.13 1.35,0.23 l 0.05,0.02 c 0.58,0.14 1.11,0.33 1.61,0.56 l 0.16,0.07 c 0.47,0.24 0.92,0.52 1.34,0.86 l 0.01,-0.01 c 0.63,0.5 1.16,1.11 1.56,1.75 v 0 c 0.08,0.13 0.15,0.26 0.22,0.39 0.41,-0.65 0.91,-1.23 1.52,-1.76 0.81,-0.7 1.73,-1.23 2.74,-1.59 0.96,-0.33 1.94,-0.51 2.94,-0.51 h 11.24 c 2.16,0 4.23,0.14 6.21,0.41 v 0 c 2.01,0.28 3.88,0.71 5.58,1.28 1.74,0.58 3.36,1.32 4.86,2.2 1.56,0.92 2.97,1.99 4.21,3.18 l 0.02,0.02 c 1.14,1.1 2.16,2.34 3.07,3.7 v -3.76 c 0,-0.68 0.13,-1.38 0.35,-2.07 l 0.02,-0.11 c 0.23,-0.67 0.57,-1.3 0.98,-1.86 v 0 c 0.5,-0.68 1.15,-1.29 1.96,-1.77 0.51,-0.31 1.07,-0.57 1.67,-0.76 v 0 c 0.45,-0.15 0.87,-0.25 1.29,-0.33 0.44,-0.08 0.82,-0.14 1.16,-0.18 v 0.02 c 0.45,-0.06 0.93,-0.1 1.42,-0.12 0.68,-0.03 1.19,-0.05 1.45,-0.05 0.24,0 0.74,0.02 1.42,0.05 0.48,0.02 0.95,0.06 1.41,0.12 v -0.02 c 0.39,0.05 0.78,0.11 1.17,0.18 0.39,0.08 0.82,0.19 1.31,0.36 v 0 c 0.55,0.19 1.09,0.44 1.58,0.73 l 0.01,-0.02 c 0.62,0.38 1.19,0.86 1.69,1.43 l 0.09,0.11 c 0.54,0.66 0.93,1.36 1.19,2.11 v 0 c 0.25,0.73 0.38,1.46 0.38,2.19 v 25.9 c 0,0.65 0.03,1.18 0.09,1.62 v 0 c 0.06,0.43 0.14,0.79 0.23,1.07 0.08,0.24 0.18,0.47 0.3,0.67 l 0.01,-0.01 c 0.09,0.15 0.16,0.26 0.2,0.3 l 0.05,0.04 c 0.1,0.11 0.21,0.2 0.29,0.26 l 0.01,-0.02 c 0.12,0.07 0.24,0.14 0.37,0.19 l 0.02,0.02 c 0.19,0.07 0.42,0.13 0.68,0.17 h 0.02 c 0.26,0.04 0.6,0.07 1.01,0.07 0.38,0 0.71,-0.03 0.98,-0.07 h 0.05 c 0.24,-0.04 0.46,-0.1 0.63,-0.17 l 0.02,-0.02 c 0.16,-0.06 0.3,-0.13 0.4,-0.2 0.1,-0.07 0.2,-0.15 0.28,-0.24 v 0 c 0.06,-0.08 0.13,-0.18 0.2,-0.31 l 0.02,-0.02 c 0.07,-0.12 0.15,-0.32 0.25,-0.61 h 0.02 c 0.07,-0.2 0.14,-0.51 0.2,-0.92 0.06,-0.39 0.09,-0.83 0.09,-1.32 v -26.41 c 0,-0.7 0.12,-1.45 0.37,-2.19 l 0.02,-0.04 c 0.23,-0.66 0.57,-1.31 1.04,-1.93 h 0.01 c 0.49,-0.64 1.09,-1.18 1.77,-1.61 l 0.04,-0.02 c 0.47,-0.29 1.01,-0.54 1.59,-0.74 0.49,-0.17 0.95,-0.29 1.39,-0.38 0.41,-0.08 0.8,-0.14 1.19,-0.18 0.32,-0.04 0.79,-0.07 1.41,-0.1 0.68,-0.03 1.18,-0.05 1.42,-0.05 0.25,0 0.75,0.02 1.42,0.05 0.64,0.03 1.11,0.06 1.41,0.1 l 0.02,0.02 c 0.53,0.07 0.94,0.12 1.14,0.16 0.4,0.08 0.84,0.2 1.36,0.38 0.58,0.2 1.14,0.46 1.66,0.79 v 0 c 0.73,0.46 1.34,1.04 1.82,1.68 h 0.01 c 0.42,0.57 0.77,1.2 1,1.88 l 0.02,0.11 c 0.13,0.42 0.23,0.84 0.29,1.26 0.77,-0.95 1.65,-1.82 2.61,-2.59 0.97,-0.77 2.03,-1.45 3.16,-2.02 1.07,-0.54 2.24,-1 3.51,-1.37 1.18,-0.34 2.39,-0.6 3.61,-0.76 1.29,-0.17 2.53,-0.26 3.72,-0.26 0.6,0 1.26,0.03 1.97,0.08 h 0.02 c 0.51,0.04 1.16,0.12 1.95,0.24 v -0.02 c 0.52,0.07 1.15,0.2 1.91,0.37 v -0.02 c 0.35,0.08 0.97,0.24 1.75,0.47 l 0.11,0.02 c 0.59,0.18 1.14,0.37 1.62,0.55 h 0.02 c 0.39,0.15 0.9,0.37 1.52,0.66 l 0.16,0.07 c 0.15,0.08 0.31,0.16 0.47,0.25 0.12,-0.11 0.24,-0.23 0.38,-0.34 l 0.14,-0.11 c 0.63,-0.5 1.34,-0.88 2.08,-1.12 0.73,-0.24 1.44,-0.34 2.12,-0.34 h 30.87 c 0.67,0 1.36,0.11 2.08,0.34 l 0.11,0.04 c 0.61,0.21 1.2,0.52 1.77,0.94 0.09,0.06 0.17,0.13 0.26,0.2 0.62,-0.43 1.29,-0.76 2.01,-1.02 0.95,-0.33 1.93,-0.51 2.94,-0.51 h 11.35 c 1.14,0 2.22,0.03 3.21,0.09 h 0.05 l 1.07,0.08 h 0.09 l 0.97,0.08 0.32,0.04 c 1.13,0.16 2.2,0.38 3.19,0.65 l 0.02,0.02 c 1.04,0.28 2.04,0.63 3,1.04 v -0.01 c 1.03,0.44 2,0.96 2.89,1.55 0.96,0.64 1.82,1.33 2.55,2.06 v 0.02 c 0.7,0.7 1.33,1.47 1.89,2.3 v -0.89 c 0,-0.76 0.14,-1.54 0.42,-2.31 v 0 c 0.25,-0.7 0.63,-1.37 1.14,-1.99 l 0.09,-0.11 c 0.48,-0.55 1.05,-1.05 1.73,-1.45 h 0.02 c 0.51,-0.3 1.04,-0.54 1.59,-0.72 v 0.01 c 0.47,-0.15 0.89,-0.26 1.28,-0.34 h 0.02 c 0.43,-0.08 0.81,-0.14 1.15,-0.18 0.31,-0.04 0.79,-0.07 1.42,-0.1 0.67,-0.03 1.18,-0.05 1.42,-0.05 0.25,0 0.76,0.02 1.45,0.05 0.64,0.03 1.13,0.06 1.43,0.1 l 0.02,0.02 c 0.52,0.07 0.95,0.13 1.15,0.16 0.39,0.07 0.82,0.19 1.32,0.36 v 0 c 0.57,0.19 1.1,0.44 1.57,0.72 l 0.07,0.02 c 0.59,0.36 1.16,0.85 1.68,1.47 l 0.05,0.05 c 0.51,0.62 0.89,1.29 1.14,1.99 v 0 c 0.28,0.77 0.42,1.55 0.42,2.31 v 22.54 l 8.36,-24.09 v 0 c 0.15,-0.45 0.33,-0.86 0.51,-1.22 l 0.05,-0.09 c 0.2,-0.38 0.42,-0.74 0.68,-1.09 h -0.01 c 0.55,-0.77 1.23,-1.4 2.01,-1.89 v 0.01 c 0.56,-0.35 1.17,-0.62 1.8,-0.83 l 0.05,-0.02 c 0.48,-0.15 1.02,-0.28 1.62,-0.36 0.39,-0.06 0.89,-0.1 1.46,-0.13 h 0.14 l 1.21,-0.04 h 0.14 l 1.56,-0.01 h 0.05 l 1.79,0.01 h 0.11 l 1.38,0.04 h 0.11 c 0.54,0.02 1.05,0.07 1.54,0.13 0.65,0.08 1.2,0.19 1.63,0.32 h 0.02 c 0.69,0.2 1.32,0.47 1.86,0.78 l 0.09,0.07 c 0.74,0.44 1.4,1 1.93,1.66 l 0.16,0.21 c 0.27,0.37 0.55,0.83 0.82,1.4 l 0.02,0.02 c 0.18,0.38 0.36,0.82 0.5,1.31 l 8.3,23.83 v -22.54 c 0,-0.73 0.13,-1.46 0.38,-2.19 v 0 c 0.25,-0.74 0.64,-1.45 1.19,-2.11 l 0.09,-0.11 c 0.49,-0.57 1.06,-1.05 1.69,-1.43 l 0.01,0.02 c 0.49,-0.29 1.02,-0.55 1.58,-0.73 v 0 c 0.48,-0.16 0.92,-0.28 1.34,-0.36 0.41,-0.08 0.8,-0.14 1.19,-0.18 0.32,-0.04 0.8,-0.07 1.41,-0.1 0.68,-0.03 1.18,-0.05 1.42,-0.05 0.25,0 0.76,0.02 1.45,0.05 0.64,0.03 1.12,0.06 1.43,0.1 l 0.02,0.02 c 0.52,0.07 0.95,0.13 1.15,0.16 0.39,0.07 0.82,0.19 1.32,0.36 v 0 c 0.55,0.19 1.09,0.44 1.58,0.73 l 0.01,-0.02 c 0.62,0.38 1.19,0.86 1.69,1.43 l 0.09,0.11 c 0.54,0.66 0.93,1.36 1.19,2.11 v 0 c 0.25,0.73 0.38,1.46 0.38,2.19 v 29.45 h 7.94 c 0.69,0 1.37,0.1 2.01,0.3 l 0.02,0.02 c 0.75,0.23 1.46,0.59 2.07,1.05 v 0 c 0.56,0.42 1.05,0.93 1.49,1.54 v 0.02 c 0.34,0.49 0.62,1 0.83,1.53 v 0 c 0.18,0.45 0.32,0.9 0.43,1.37 0.07,0.34 0.14,0.73 0.2,1.18 l 0.02,0.05 c 0.03,0.26 0.06,0.68 0.08,1.18 v 0.16 l 0.02,0.94 v 0.23 l -0.02,0.93 v 0.16 c -0.02,0.51 -0.05,0.92 -0.08,1.19 l -0.02,0.09 c -0.04,0.34 -0.11,0.7 -0.2,1.1 v 0.02 c -0.1,0.42 -0.21,0.82 -0.33,1.16 l -0.05,0.11 c -0.2,0.53 -0.44,1.03 -0.74,1.49 l -0.05,0.07 c -0.39,0.59 -0.86,1.12 -1.42,1.58 v 0.01 c -0.64,0.52 -1.3,0.89 -1.98,1.14 h -0.05 c -0.76,0.27 -1.51,0.39 -2.23,0.39 h -20.08 c -0.98,0 -1.96,-0.17 -2.93,-0.51 v 0.01 c -0.72,-0.25 -1.4,-0.6 -2.03,-1.04 -0.66,0.52 -1.42,0.93 -2.29,1.22 v -0.01 c -0.62,0.21 -1.31,0.34 -2.06,0.41 h -0.04 c -0.44,0.04 -0.93,0.07 -1.44,0.08 v 0 l -1.66,0.04 -0.02,-0.02 -1.54,-0.01 h -0.04 c -0.67,-0.01 -1.15,-0.02 -1.41,-0.04 v 0 c -0.47,-0.03 -0.91,-0.07 -1.29,-0.12 h -0.07 c -0.45,-0.07 -0.93,-0.17 -1.42,-0.31 l -0.07,-0.02 c -0.62,-0.19 -1.2,-0.44 -1.72,-0.76 v 0 c -0.73,-0.44 -1.36,-0.99 -1.87,-1.66 v 0 c -0.31,-0.4 -0.6,-0.86 -0.85,-1.38 l -0.02,-0.02 c -0.15,-0.31 -0.29,-0.68 -0.42,-1.08 h -0.01 l -1.56,-4.78 h -8.09 l -1.4,4.33 h 0.01 c -0.1,0.36 -0.24,0.75 -0.43,1.17 l -0.04,0.09 c -0.21,0.46 -0.46,0.9 -0.75,1.31 v 0 c -0.47,0.68 -1.03,1.23 -1.67,1.68 l -0.07,0.05 c -0.47,0.32 -0.97,0.59 -1.52,0.8 v 0 c -0.49,0.2 -1.08,0.36 -1.75,0.48 -0.52,0.09 -0.99,0.16 -1.39,0.19 -0.18,0.01 -0.65,0.03 -1.33,0.05 h -0.09 l -1.31,0.02 -0.07,0.02 c -0.28,0 -0.84,-0.02 -1.61,-0.05 -0.67,-0.03 -1.18,-0.06 -1.51,-0.1 -1.47,-0.17 -2.72,-0.64 -3.74,-1.38 -0.05,0.03 -0.11,0.07 -0.16,0.1 l -0.07,0.02 c -0.47,0.28 -1,0.52 -1.57,0.72 l -0.11,0.05 c -0.29,0.09 -0.69,0.19 -1.17,0.28 l -0.04,0.02 c -0.2,0.04 -0.59,0.1 -1.14,0.17 l -0.02,0.02 c -0.3,0.04 -0.79,0.07 -1.43,0.1 -0.69,0.03 -1.2,0.05 -1.45,0.05 -0.24,0 -0.75,-0.02 -1.42,-0.05 -0.61,-0.03 -1.09,-0.06 -1.41,-0.1 h -0.02 c -0.4,-0.05 -0.8,-0.11 -1.18,-0.19 v -0.01 c -0.48,-0.09 -0.9,-0.2 -1.23,-0.3 l -0.11,-0.05 c -0.58,-0.2 -1.11,-0.44 -1.57,-0.72 l -0.07,-0.02 c -0.21,-0.13 -0.42,-0.28 -0.62,-0.43 -0.16,0.13 -0.33,0.26 -0.51,0.38 l 0.01,0.02 c -0.46,0.31 -1.07,0.6 -1.82,0.85 l -0.14,0.07 c -0.35,0.1 -0.82,0.21 -1.4,0.3 l -0.07,0.02 c -0.33,0.05 -0.77,0.1 -1.3,0.14 h -0.02 c -0.22,0.01 -0.72,0.03 -1.41,0.05 h -0.09 l -1.51,0.02 h -0.11 L 788,178.3 h -0.09 c -0.68,-0.02 -1.14,-0.04 -1.29,-0.05 -0.44,-0.03 -0.9,-0.1 -1.38,-0.19 -0.62,-0.11 -1.18,-0.27 -1.7,-0.48 v -0.01 c -0.52,-0.21 -1,-0.46 -1.48,-0.78 l -0.01,0.01 c -0.71,-0.48 -1.34,-1.08 -1.85,-1.83 l -0.02,-0.02 c -0.15,-0.23 -0.35,-0.6 -0.57,-1.05 v 0 c -0.2,-0.41 -0.34,-0.72 -0.41,-0.91 h 0.01 l -2.77,-6.89 v 5 c 0,0.76 -0.14,1.54 -0.42,2.31 v 0 c -0.28,0.78 -0.68,1.46 -1.16,2.03 l -0.01,-0.01 c -0.85,1.02 -1.96,1.77 -3.31,2.23 l -0.16,0.05 c -0.35,0.11 -0.74,0.21 -1.18,0.3 v 0.01 c -0.17,0.03 -0.57,0.09 -1.16,0.17 -0.46,0.06 -0.95,0.1 -1.44,0.12 -0.68,0.03 -1.19,0.05 -1.44,0.05 -0.24,0 -0.75,-0.02 -1.42,-0.05 -0.62,-0.03 -1.09,-0.06 -1.41,-0.1 h -0.02 c -0.3,-0.03 -0.69,-0.1 -1.12,-0.18 h -0.05 c -0.44,-0.09 -0.85,-0.19 -1.22,-0.31 l -0.16,-0.07 c -0.59,-0.2 -1.14,-0.46 -1.64,-0.77 v 0 c -0.69,-0.44 -1.29,-0.98 -1.77,-1.61 h -0.01 c -0.47,-0.61 -0.81,-1.26 -1.04,-1.93 l -0.02,-0.09 c -0.25,-0.76 -0.37,-1.47 -0.37,-2.15 v -29.56 c -0.24,0.03 -0.47,0.04 -0.71,0.04 h -5.13 v 29.51 c 0,0.76 -0.14,1.52 -0.4,2.26 h -0.01 c -0.26,0.73 -0.65,1.42 -1.16,2.04 l -0.05,0.05 c -0.53,0.63 -1.1,1.11 -1.68,1.47 l -0.07,0.02 c -0.47,0.28 -1,0.52 -1.57,0.72 l -0.11,0.05 c -0.33,0.1 -0.75,0.21 -1.23,0.3 v 0.01 c -0.38,0.07 -0.78,0.14 -1.18,0.19 h -0.02 c -0.32,0.04 -0.79,0.07 -1.41,0.1 -0.68,0.03 -1.18,0.05 -1.42,0.05 -0.24,0 -0.75,-0.02 -1.42,-0.05 -0.62,-0.03 -1.09,-0.06 -1.41,-0.1 h -0.02 c -0.4,-0.05 -0.8,-0.11 -1.18,-0.19 V 178 c -0.48,-0.09 -0.9,-0.2 -1.23,-0.3 l -0.11,-0.05 c -0.57,-0.19 -1.1,-0.44 -1.57,-0.72 l -0.07,-0.02 c -0.59,-0.36 -1.16,-0.85 -1.68,-1.47 l -0.05,-0.05 c -0.52,-0.63 -0.89,-1.29 -1.14,-2 -0.28,-0.77 -0.42,-1.55 -0.42,-2.31 v -29.51 h -5.13 c -0.63,0 -1.25,-0.08 -1.85,-0.26 -0.11,0.12 -0.23,0.24 -0.35,0.35 l -0.04,0.05 c -0.66,0.6 -1.41,1.04 -2.27,1.34 -0.67,0.24 -1.33,0.36 -1.99,0.39 0.18,0.11 0.36,0.21 0.54,0.32 0.85,0.52 1.61,1.05 2.24,1.57 l -0.01,0.01 c 0.73,0.59 1.4,1.22 2,1.87 l 0.05,0.04 c 0.64,0.7 1.25,1.49 1.81,2.39 0.54,0.86 1.01,1.76 1.4,2.69 0.44,1.05 0.76,2.17 0.97,3.34 v 0.02 c 0.19,1.11 0.29,2.26 0.29,3.44 0,1.51 -0.15,2.99 -0.46,4.43 v 0.02 c -0.32,1.5 -0.8,2.89 -1.42,4.17 l -0.04,0.04 c -0.63,1.26 -1.36,2.41 -2.18,3.43 -0.86,1.06 -1.82,2.03 -2.88,2.87 l -0.05,0.02 c -1.06,0.82 -2.18,1.54 -3.35,2.14 v -0.01 c -1.21,0.62 -2.45,1.12 -3.71,1.5 -1.24,0.37 -2.55,0.65 -3.92,0.84 h -0.02 c -1.38,0.19 -2.73,0.28 -4.04,0.28 -0.77,0 -1.67,-0.05 -2.71,-0.14 v 0 c -1.03,-0.09 -1.9,-0.21 -2.63,-0.35 v 0 c -0.74,-0.14 -1.48,-0.31 -2.19,-0.5 -0.73,-0.19 -1.43,-0.41 -2.11,-0.66 v 0 c -0.53,-0.19 -1.12,-0.42 -1.73,-0.7 h -0.02 c -0.63,-0.28 -1.2,-0.57 -1.68,-0.85 l -0.02,-0.02 c -0.52,-0.3 -0.94,-0.58 -1.28,-0.82 h -0.02 c -0.43,-0.31 -0.85,-0.66 -1.26,-1.06 l -0.16,-0.16 c -0.55,-0.57 -1.01,-1.24 -1.37,-1.98 l -0.02,-0.07 c -0.22,-0.46 -0.4,-0.93 -0.54,-1.39 -0.67,0.92 -1.42,1.77 -2.22,2.54 l -0.02,0.02 c -1.07,1.02 -2.28,1.94 -3.65,2.74 -1.31,0.77 -2.71,1.41 -4.18,1.91 -1.48,0.5 -3.04,0.88 -4.67,1.12 -1.6,0.24 -3.27,0.35 -4.99,0.35 -1.56,0 -3.13,-0.11 -4.68,-0.32 h -0.02 c -1.54,-0.21 -3.02,-0.54 -4.41,-0.98 h -0.02 c -1.44,-0.45 -2.83,-1.06 -4.15,-1.8 -1.36,-0.76 -2.57,-1.64 -3.62,-2.61 v -0.02 c -1.13,-1.05 -2.11,-2.19 -2.92,-3.41 -0.81,-1.22 -1.49,-2.56 -2.05,-4.01 h -0.01 c -0.11,-0.29 -0.22,-0.59 -0.31,-0.89 -0.39,0.78 -0.82,1.52 -1.28,2.24 -1.02,1.58 -2.21,3 -3.56,4.25 -1.28,1.18 -2.75,2.23 -4.39,3.14 v 0.01 c -1.59,0.88 -3.28,1.6 -5.06,2.13 -1.65,0.49 -3.51,0.88 -5.56,1.14 l -0.02,0.02 c -1.92,0.24 -3.97,0.36 -6.13,0.36 h -10.46 c -1.02,0 -2.01,-0.17 -2.97,-0.51 v -0.01 c -0.99,-0.35 -1.9,-0.88 -2.72,-1.58 v 0 c -0.77,-0.66 -1.39,-1.45 -1.84,-2.35 -0.17,0.29 -0.35,0.58 -0.54,0.85 v 0.02 c -0.35,0.48 -0.77,0.94 -1.26,1.37 v 0.02 c -0.45,0.4 -0.97,0.76 -1.54,1.07 v 0 c -0.54,0.3 -1.11,0.54 -1.72,0.72 -0.57,0.17 -1.07,0.28 -1.5,0.35 -0.53,0.07 -1.02,0.11 -1.45,0.11 h -3.81 c -0.57,0 -1.16,-0.03 -1.77,-0.1 -0.6,-0.07 -1.19,-0.18 -1.77,-0.33 l -0.11,-0.02 c -0.69,-0.2 -1.38,-0.48 -2.03,-0.84 -0.59,-0.33 -1.19,-0.74 -1.76,-1.23 v 0 c -0.5,-0.43 -0.97,-0.9 -1.4,-1.42 l -0.01,0.01 c -0.35,-0.43 -0.73,-0.96 -1.12,-1.58 v 0 c -0.31,-0.49 -0.61,-0.99 -0.89,-1.5 v -0.02 c -0.35,-0.64 -0.65,-1.19 -0.86,-1.61 h -0.01 l -3.39,-6.38 v 7.89 c 0,0.64 -0.09,1.31 -0.31,2.01 h 0.01 c -0.19,0.62 -0.49,1.26 -0.93,1.9 l -0.09,0.11 c -0.48,0.66 -1,1.17 -1.56,1.56 l -0.11,0.07 c -0.4,0.27 -0.85,0.52 -1.35,0.73 l -0.09,0.05 c -0.41,0.17 -0.9,0.33 -1.45,0.45 v 0.01 c -0.31,0.07 -0.74,0.14 -1.27,0.21 -0.42,0.06 -0.89,0.1 -1.37,0.12 -0.64,0.03 -1.12,0.05 -1.38,0.05 -0.26,0 -0.74,-0.02 -1.36,-0.05 -0.48,-0.02 -0.94,-0.07 -1.37,-0.12 -0.44,-0.06 -0.85,-0.13 -1.24,-0.22 v 0.01 c -0.45,-0.1 -0.88,-0.24 -1.29,-0.4 v 0.01 c -0.61,-0.23 -1.18,-0.55 -1.68,-0.92 l -0.01,0.01 c -0.76,-0.55 -1.37,-1.22 -1.81,-1.94 z m 71.85,-24.67 c 0,-0.82 -0.05,-1.59 -0.14,-2.3 h 0.02 c -0.07,-0.59 -0.21,-1.26 -0.41,-1.99 h 0.02 c -0.13,-0.47 -0.31,-0.93 -0.53,-1.37 -0.2,-0.4 -0.43,-0.76 -0.68,-1.06 -0.23,-0.28 -0.51,-0.55 -0.82,-0.78 -0.35,-0.25 -0.72,-0.48 -1.11,-0.64 l -0.01,0.02 c -0.43,-0.19 -0.96,-0.33 -1.57,-0.44 v 0 c -0.42,-0.07 -0.89,-0.11 -1.42,-0.14 v 18.03 c 0.46,-0.03 0.89,-0.07 1.29,-0.13 0.64,-0.1 1.18,-0.23 1.61,-0.39 h 0.05 c 0.35,-0.13 0.71,-0.32 1.04,-0.54 0.31,-0.21 0.59,-0.45 0.8,-0.69 v 0 c 0.24,-0.28 0.47,-0.62 0.68,-1.02 h 0.01 c 0.23,-0.44 0.43,-0.95 0.6,-1.52 v -0.02 c 0.2,-0.67 0.35,-1.39 0.44,-2.14 h -0.02 c 0.1,-0.86 0.16,-1.8 0.16,-2.84 z m 63.92,5.92 c 0,0.29 0,0.59 -0.01,0.88 0.13,-0.05 0.26,-0.1 0.4,-0.14 v 0.02 c 0.69,-0.21 1.35,-0.31 2,-0.31 0.91,0 1.85,0.2 2.81,0.6 l 0.02,0.02 c 0.51,0.21 1.06,0.51 1.63,0.88 v 0 c 0.16,0.1 0.4,0.24 0.72,0.42 h 0.02 c 0.26,0.14 0.58,0.31 0.95,0.5 v 0.02 c 0.17,0.08 0.5,0.22 0.97,0.4 0.51,0.2 0.95,0.35 1.3,0.45 l 0.07,0.02 c 0.31,0.09 0.67,0.17 1.06,0.22 h 0.02 c 0.3,0.04 0.69,0.06 1.18,0.07 -0.23,-0.11 -0.53,-0.24 -0.89,-0.4 l -0.02,-0.02 -0.26,-0.11 v -0.01 l -3.24,-1.44 v -0.01 c -0.78,-0.35 -1.47,-0.7 -2.07,-1.02 -0.74,-0.4 -1.43,-0.8 -2.04,-1.19 v -0.01 c -0.8,-0.49 -1.53,-1.02 -2.18,-1.56 -0.69,-0.57 -1.35,-1.2 -1.98,-1.9 v 0 c -0.17,-0.18 -0.33,-0.37 -0.49,-0.56 V 156 Z m 15.92,-15.45 -0.01,0.01 v 0 0 h 0.01 z m -0.01,0.01 z m 87.51,9.9 c -0.18,0.27 -0.37,0.53 -0.56,0.79 l 0.02,0.01 c -0.44,0.58 -0.97,1.17 -1.56,1.75 0.19,0.32 0.41,0.69 0.65,1.13 h 0.02 c 0.17,0.31 0.43,0.83 0.8,1.63 0.23,0.49 0.44,0.97 0.64,1.43 v -6.75 z m -18.04,-9.03 c 0,-0.06 0,-0.11 0,-0.16 l -0.08,-0.01 -0.4,-0.06 v 0.59 c 0.07,-0.02 0.14,-0.04 0.21,-0.06 l 0.07,-0.02 c 0.08,-0.03 0.15,-0.05 0.2,-0.07 z m 157.43,34.15 c -0.32,0.41 -0.69,0.78 -1.11,1.11 v 0 c -0.64,0.5 -1.27,0.86 -1.92,1.09 h -0.05 c -0.76,0.27 -1.49,0.39 -2.22,0.39 h -20.08 c -0.98,0 -1.96,-0.17 -2.93,-0.51 v 0.01 c -1,-0.35 -1.92,-0.88 -2.74,-1.59 v 0 c -1.03,-0.89 -1.79,-2 -2.25,-3.3 h -0.01 c -0.35,-1 -0.53,-2.08 -0.53,-3.24 v -39.82 c 0,-0.73 0.13,-1.46 0.38,-2.19 v 0 c 0.25,-0.74 0.64,-1.45 1.19,-2.11 l 0.09,-0.11 c 0.49,-0.57 1.06,-1.05 1.69,-1.43 l 0.01,0.02 c 0.49,-0.29 1.02,-0.55 1.58,-0.73 v 0 c 0.48,-0.16 0.92,-0.28 1.34,-0.36 0.41,-0.08 0.8,-0.14 1.19,-0.18 0.32,-0.04 0.8,-0.07 1.41,-0.1 0.68,-0.03 1.18,-0.05 1.42,-0.05 0.25,0 0.76,0.02 1.45,0.05 0.64,0.03 1.12,0.06 1.43,0.1 l 0.02,0.02 c 0.49,0.06 0.89,0.12 1.12,0.16 h 0.02 c 0.39,0.07 0.82,0.19 1.32,0.36 v 0 c 0.55,0.19 1.09,0.44 1.58,0.73 l 0.01,-0.02 c 0.62,0.38 1.19,0.86 1.69,1.43 l 0.09,0.11 c 0.54,0.66 0.93,1.36 1.19,2.11 v 0 c 0.05,0.15 0.1,0.31 0.14,0.47 0.07,-0.25 0.14,-0.48 0.21,-0.68 l 0.07,-0.21 c 0.19,-0.46 0.43,-0.91 0.71,-1.33 l 0.02,-0.07 c 0.35,-0.53 0.79,-1.01 1.31,-1.46 l 0.21,-0.16 c 0.59,-0.46 1.26,-0.8 2,-1.05 l 0.11,-0.05 c 0.69,-0.21 1.36,-0.32 2.02,-0.32 h 30.87 c 0.66,0 1.36,0.12 2.11,0.36 l 0.09,0.02 c 0.62,0.21 1.19,0.51 1.73,0.9 l 0.05,0.04 c 0.09,0.07 0.17,0.13 0.26,0.2 0.62,-0.43 1.29,-0.77 2.01,-1.02 0.96,-0.33 1.94,-0.51 2.94,-0.51 h 11.24 c 2.16,0 4.23,0.14 6.21,0.41 v 0 c 2.01,0.28 3.88,0.71 5.58,1.28 1.77,0.59 3.41,1.33 4.88,2.2 l -0.01,0.01 c 1.56,0.92 2.96,1.98 4.19,3.17 l 0.02,0.02 c 1.24,1.2 2.34,2.56 3.31,4.07 0.95,1.49 1.74,3.09 2.36,4.75 0.49,1.35 0.89,2.8 1.19,4.35 l 5.13,-14.78 v 0 c 0.17,-0.5 0.35,-0.93 0.53,-1.29 v 0 c 0.19,-0.37 0.43,-0.75 0.7,-1.11 h -0.01 c 0.55,-0.77 1.23,-1.4 2.01,-1.89 v 0.01 c 0.56,-0.35 1.17,-0.62 1.8,-0.83 l 0.05,-0.02 c 0.48,-0.15 1.02,-0.28 1.62,-0.36 0.4,-0.06 0.89,-0.1 1.46,-0.13 h 0.14 l 1.21,-0.04 h 0.14 l 1.56,-0.01 h 0.05 l 1.79,0.01 h 0.11 l 1.38,0.04 h 0.11 c 0.53,0.02 1.05,0.07 1.54,0.13 0.66,0.08 1.2,0.2 1.63,0.32 h 0.02 c 0.69,0.2 1.32,0.47 1.86,0.78 l 0.09,0.07 c 0.74,0.44 1.4,1 1.93,1.66 l 0.16,0.21 c 0.27,0.37 0.55,0.83 0.82,1.4 l 0.02,0.02 c 0.18,0.38 0.36,0.82 0.5,1.31 l 10.83,31.08 c 0.09,-0.1 0.18,-0.19 0.28,-0.29 1.09,-1.08 2.48,-1.85 4.12,-2.3 v 0.02 c 1.21,-0.33 2.53,-0.49 3.94,-0.49 1.39,0 2.7,0.17 3.9,0.49 h 0.02 c 1.6,0.44 2.95,1.19 4.02,2.23 l 0.07,0.04 c 1.09,1.09 1.86,2.49 2.31,4.2 0.31,1.2 0.47,2.54 0.47,4.01 0,1.47 -0.16,2.82 -0.48,4.06 -0.45,1.74 -1.23,3.18 -2.34,4.28 l 0.01,0.01 c -1.06,1.06 -2.44,1.83 -4.11,2.29 v 0.01 c -1.21,0.33 -2.53,0.5 -3.96,0.5 -1.39,0 -2.7,-0.16 -3.9,-0.49 v 0.02 c -1.26,-0.34 -2.36,-0.87 -3.3,-1.59 -0.69,0.58 -1.49,1.03 -2.39,1.32 v -0.01 c -0.62,0.21 -1.31,0.34 -2.06,0.41 h -0.04 c -0.44,0.04 -0.93,0.07 -1.44,0.08 v 0 l -1.66,0.04 -0.02,-0.02 -1.54,-0.01 h -0.04 c -0.68,-0.01 -1.18,-0.02 -1.42,-0.04 v 0 c -0.47,-0.02 -0.89,-0.07 -1.27,-0.12 h -0.07 c -0.45,-0.07 -0.93,-0.17 -1.42,-0.31 l -0.07,-0.02 c -0.62,-0.19 -1.2,-0.44 -1.72,-0.76 v 0 c -0.81,-0.48 -1.48,-1.09 -2.01,-1.82 h 0.01 c -0.27,-0.37 -0.51,-0.78 -0.72,-1.21 l -0.02,-0.02 c -0.15,-0.33 -0.29,-0.69 -0.41,-1.08 h -0.01 l -1.56,-4.78 h -8.09 l -1.4,4.33 h 0.01 c -0.1,0.35 -0.24,0.73 -0.43,1.17 v 0 c -0.23,0.52 -0.5,0.99 -0.79,1.4 v 0 c -0.47,0.68 -1.03,1.23 -1.67,1.68 l -0.07,0.05 c -0.47,0.32 -0.97,0.59 -1.52,0.8 v 0 c -0.49,0.2 -1.08,0.36 -1.75,0.48 -0.52,0.09 -0.98,0.16 -1.39,0.19 -0.18,0.01 -0.65,0.03 -1.33,0.05 h -0.09 l -1.31,0.02 -0.07,0.02 c -0.28,0 -0.84,-0.02 -1.61,-0.05 -0.67,-0.03 -1.18,-0.06 -1.51,-0.1 -2.07,-0.24 -3.71,-1.07 -4.9,-2.44 L 999,175.71 c -0.72,-0.84 -1.23,-1.82 -1.49,-2.96 -0.83,0.62 -1.73,1.2 -2.68,1.73 v 0.01 c -1.59,0.88 -3.28,1.6 -5.06,2.13 -1.65,0.49 -3.51,0.88 -5.56,1.14 l -0.02,0.02 c -1.91,0.24 -3.96,0.36 -6.12,0.36 h -10.46 c -1.02,0 -2.01,-0.17 -2.97,-0.51 v -0.01 c -0.99,-0.35 -1.9,-0.88 -2.72,-1.58 v 0 c -1.03,-0.89 -1.79,-2 -2.25,-3.3 h -0.01 c -0.35,-1 -0.53,-2.08 -0.53,-3.24 v -27.96 c -0.24,0.03 -0.47,0.04 -0.7,0.04 h -5.13 v 29.51 c 0,0.77 -0.14,1.52 -0.4,2.26 v 0 c -0.26,0.73 -0.65,1.41 -1.16,2.04 l -0.09,0.11 c -0.5,0.57 -1.07,1.05 -1.69,1.43 l -0.01,-0.02 c -0.49,0.3 -1.03,0.55 -1.58,0.73 l -0.11,0.05 c -0.33,0.1 -0.75,0.21 -1.23,0.3 V 178 c -0.38,0.07 -0.78,0.14 -1.18,0.19 h -0.02 c -0.32,0.04 -0.8,0.07 -1.41,0.1 -0.68,0.03 -1.18,0.05 -1.42,0.05 -0.24,0 -0.75,-0.02 -1.42,-0.05 -0.61,-0.03 -1.09,-0.06 -1.41,-0.1 h -0.02 c -0.4,-0.05 -0.8,-0.11 -1.18,-0.19 v -0.01 c -0.49,-0.09 -0.9,-0.2 -1.22,-0.3 l -0.11,-0.05 c -0.55,-0.19 -1.09,-0.44 -1.58,-0.73 l -0.01,0.02 c -0.62,-0.37 -1.18,-0.84 -1.66,-1.39 z m -13.24,-38.56 v 22.14 h 7.94 c 0.69,0 1.37,0.1 2.01,0.3 l 0.02,0.02 c 0.56,0.17 1.1,0.42 1.59,0.73 v -18.59 h -5.13 c -0.77,0 -1.53,-0.13 -2.27,-0.39 l -0.02,-0.02 c -0.76,-0.28 -1.45,-0.68 -2.06,-1.2 l -0.05,-0.05 c -0.47,-0.42 -0.93,-0.93 -1.31,-1.53 h 0.01 c -0.28,-0.43 -0.52,-0.88 -0.69,-1.34 l -0.03,-0.05 z m 65.19,13.07 c 0,-0.82 -0.05,-1.59 -0.14,-2.3 h 0.02 c -0.07,-0.6 -0.21,-1.27 -0.41,-1.99 h 0.02 c -0.13,-0.47 -0.31,-0.93 -0.53,-1.37 -0.2,-0.4 -0.43,-0.76 -0.69,-1.06 -0.23,-0.28 -0.51,-0.55 -0.82,-0.77 -0.32,-0.24 -0.7,-0.45 -1.12,-0.64 v 0.01 c -0.43,-0.19 -0.96,-0.34 -1.58,-0.44 v 0 c -0.41,-0.07 -0.89,-0.11 -1.42,-0.14 v 18.03 c 0.46,-0.03 0.89,-0.07 1.29,-0.13 0.64,-0.1 1.18,-0.23 1.61,-0.39 h 0.05 c 0.35,-0.13 0.71,-0.32 1.04,-0.54 0.31,-0.21 0.59,-0.45 0.8,-0.69 v 0 c 0.24,-0.28 0.47,-0.62 0.68,-1.02 h 0.01 c 0.23,-0.44 0.43,-0.95 0.6,-1.52 v -0.02 c 0.17,-0.6 0.32,-1.32 0.42,-2.14 0.1,-0.86 0.16,-1.81 0.16,-2.84 z"  fill="#292829"/>
                    </g>
                </g>
                <g id="copper1" gorn="0.2.0.0.1" >
                    <path id="connector0pad" gorn="0.2.0.0.1.0" d="m 977.46,5.83 17.02,0.21 c 12.37,0.15 26.47,2.65 35.21,12.28 6.99,7.72 8.7,17.97 7.98,28.07 -0.16,2.34 -2.05,4.15 -4.39,4.15 h -37.32 c -2.42,0 -4.34,-1.94 -4.4,-4.37 V 46.1 c 0,-8.74 -3.47,-11.44 -12.24,-11.71 -16.43,-0.5 -23.98,7.72 -29.61,22.25 -2.11,5.46 -4.14,13.98 -0.83,19.35 2.36,3.83 6.88,4.92 11.07,5.08 12.02,0.45 18.14,-3.06 24.44,-13.12 0.79,-1.27 2.26,-2.12 3.75,-2.12 h 36.65 c 3.29,0 5.43,3.52 3.91,6.5 -11.83,23.03 -34.45,37.36 -60.33,37.69 h -22.49 -0.04 C 925.54,109.43 904.73,103.06 903.35,79.24 902.51,64.63 906.4,51.45 913.61,38.86 927.34,14.87 951.2,6.9 977.39,5.8 h 0.07 z M 589.28,73.27 c -5.78,5.37 -13.18,9.46 -20.57,10.97 l 10.74,16.97 c 1.9,2.99 -0.25,6.94 -3.78,6.94 h -33.53 c -1.5,0 -2.9,-0.72 -3.75,-1.97 l -21.54,-32.02 -9.95,30.89 c -0.58,1.79 -2.34,3.1 -4.21,3.1 h -33.42 c -3.05,0 -5.22,-2.97 -4.28,-5.88 L 486.15,36.7 h -24.31 l -23.28,68.35 c -0.62,1.82 -2.33,3.05 -4.25,3.05 h -31.28 c -3.01,0 -5.19,-3.08 -4.22,-5.95 L 421.1,36.69 h -17.07 l -67.14,69.99 c -0.84,0.88 -2.05,1.41 -3.26,1.41 h -68.99 c -2.25,0 -4.14,-1.67 -4.45,-3.91 l -7.52,-55.69 -38.92,57.61 c -0.84,1.25 -2.21,1.99 -3.71,1.99 h -89.42 c -3.04,0 -5.2,-2.99 -4.26,-5.9 l 7.22,-22.39 c -9.71,7.23 -21.72,11.45 -33.73,12 h -0.07 l -37.47,-0.24 -4.33,13.43 c -0.56,1.85 -2.35,3.1 -4.25,3.11 -11.13,0.01 -22.26,0 -33.39,0 h -0.08 l -0.08,-0.01 C 7.15,107.9 5.06,104.91 6.12,102.1 L 35.25,11.82 c 0.6,-1.87 2.32,-3.14 4.27,-3.14 21.68,0 43.36,0.04 65.04,0 9.68,-0.02 19.27,2.41 26.7,8.92 3.77,3.3 6.63,7.36 8.57,11.86 l 5.7,-17.66 c 0.6,-1.86 2.32,-3.13 4.27,-3.13 h 31.27 c 3.05,0 5.2,3.01 4.26,5.92 l -20.19,62.56 h 26.98 l 44.92,-66.49 c 0.84,-1.25 2.31,-2.03 3.72,-1.98 h 43.99 c 2.29,0 4.16,1.66 4.46,3.93 l 11.44,84.73 23.27,-24.25 -7.87,-59.29 c -0.36,-2.71 1.69,-5.12 4.43,-5.12 h 34.69 c 2.45,0 4.41,1.96 4.47,4.4 l 0.63,22.1 24.08,-25.11 c 0.83,-0.87 2.04,-1.39 3.24,-1.39 L 560.3,8.74 c 14.18,0 29.41,3.93 37.06,17.04 2.25,3.85 3.56,8.06 4.13,12.4 13.79,-23.45 37.44,-31.27 63.38,-32.36 h 0.07 l 17.01,0.21 c 19.51,0.24 40.13,7.19 43.7,28.68 l 7.36,-22.82 c 0.61,-1.88 2.31,-3.14 4.28,-3.14 12.43,0 24.85,0 37.28,0 1.92,0 3.6,1.19 4.32,2.96 l 17.09,42.16 13.55,-41.97 c 0.61,-1.88 2.31,-3.14 4.28,-3.14 h 31.26 c 3.06,0 5.21,3 4.26,5.92 l -29.15,90.34 c -0.61,1.88 -2.31,3.15 -4.28,3.15 -11.88,0 -23.76,0 -35.64,0 -1.92,0 -3.6,-1.18 -4.32,-2.96 l -18,-44.41 -14.27,44.22 c -0.61,1.88 -2.31,3.15 -4.28,3.15 h -31.26 c -3.06,0 -5.21,-3 -4.26,-5.92 l 5.45,-16.88 c -13.05,14.89 -34.75,24.45 -53.46,24.69 h -22.49 -0.04 c -20.09,-0.59 -42.68,-6.82 -44.06,-30.78 -0.12,-2.01 -0.11,-4.01 0,-5.99 z m 251.08,34.89 c -2.46,0 -3.86,-2.52 -3.17,-4.77 l 28.05,-91.45 c 0.58,-1.9 2.3,-3.18 4.29,-3.18 h 31.26 c 3.06,0 5.21,3 4.26,5.92 l -29.16,90.34 c -0.6,1.88 -2.31,3.15 -4.28,3.15 H 840.35 Z M 519.91,64.68 546.14,64.67 c 2.96,-0.25 5.92,-1 8.1,-3.14 1.93,-1.91 3.03,-4.67 3.82,-7.23 1.21,-3.94 1.97,-8.17 2.81,-12.21 0.33,-1.59 0.47,-3.56 -0.73,-4.84 -1.76,-1.89 -5.86,-2.15 -8.28,-2.15 h -22.4 l -9.53,29.58 z m 127.54,16.41 c 14.73,0.55 25.13,-5.23 30.51,-19.12 2.3,-5.94 5.4,-16.09 1.79,-22.06 -2.63,-4.35 -8.28,-5.36 -12.94,-5.5 -16.43,-0.5 -23.98,7.72 -29.61,22.25 -2.11,5.46 -4.13,13.98 -0.83,19.35 2.35,3.83 6.87,4.93 11.07,5.08 z M 70.52,35.04 l -9,28 21.07,-0.01 c 7.35,0 12.71,-4.5 15.21,-11.29 0.98,-2.67 2.18,-6.67 2.52,-9.48 0.77,-6.29 -1.66,-7.22 -7.4,-7.22 z m 967.11,72.02 h 4.02 v -6.91 h 2.14 c 0.14,1.75 2.47,4.9 2.94,6.91 h 4.81 l -3.74,-7.71 c 2.64,-0.22 4.62,-3.26 3.18,-6.61 -1.53,-3.55 -9.37,-2.69 -13.35,-2.69 z m 6.42,-9.57 h -2.41 v -4.78 c 2.81,0 5.35,-0.12 5.35,2.92 0,1.13 -1.66,1.86 -2.94,1.86 z m -15.52,0.8 c 0,5.08 1.48,8.24 4.61,11.36 7.62,7.6 20.65,4.57 24.64,-4.64 1.9,-4.38 1.85,-7.79 0.16,-12.27 -1.84,-4.87 -7.89,-9.33 -13.89,-9.33 -8.41,0 -15.52,6.63 -15.52,14.88 z m 15.52,12.49 c -6.94,0 -12.31,-5.2 -12.31,-11.43 0,-4.17 0.76,-6.46 3.68,-9.37 7.89,-7.85 20.68,-1.03 20.68,8.58 0,6.49 -5.46,12.22 -12.04,12.22 z m -492.96,60.37 c 0,0.22 -0.07,0.43 -0.22,0.61 -0.15,0.17 -0.39,0.32 -0.73,0.44 -0.34,0.1 -0.8,0.2 -1.35,0.27 -0.57,0.07 -1.29,0.1 -2.17,0.1 -0.86,0 -1.57,-0.03 -2.15,-0.1 -0.58,-0.07 -1.04,-0.16 -1.37,-0.27 -0.34,-0.12 -0.58,-0.26 -0.73,-0.44 -0.15,-0.18 -0.22,-0.39 -0.22,-0.61 v -41.41 c 0,-0.22 0.07,-0.43 0.22,-0.61 0.15,-0.17 0.39,-0.32 0.75,-0.44 0.35,-0.12 0.8,-0.2 1.37,-0.27 0.57,-0.07 1.28,-0.1 2.14,-0.1 0.88,0 1.61,0.03 2.17,0.1 0.56,0.07 1.02,0.15 1.35,0.27 0.34,0.11 0.58,0.26 0.73,0.44 0.15,0.18 0.22,0.39 0.22,0.61 v 41.41 z m 45.69,-1.91 c 0,0.52 -0.09,0.98 -0.26,1.4 -0.18,0.41 -0.43,0.74 -0.74,1.02 -0.3,0.27 -0.66,0.46 -1.08,0.59 -0.43,0.13 -0.84,0.18 -1.27,0.18 h -3.81 c -0.8,0 -1.48,-0.08 -2.06,-0.23 -0.56,-0.16 -1.1,-0.45 -1.58,-0.87 -0.5,-0.42 -0.96,-0.98 -1.41,-1.7 -0.45,-0.71 -0.96,-1.63 -1.52,-2.76 l -10.88,-20.5 c -0.64,-1.23 -1.28,-2.54 -1.93,-3.95 -0.66,-1.41 -1.24,-2.79 -1.76,-4.12 h -0.07 c 0.09,1.63 0.16,3.25 0.21,4.87 0.05,1.61 0.07,3.28 0.07,4.99 v 22.95 c 0,0.22 -0.06,0.43 -0.18,0.61 -0.13,0.17 -0.35,0.32 -0.65,0.45 -0.3,0.13 -0.72,0.22 -1.24,0.29 -0.52,0.07 -1.19,0.1 -2,0.1 -0.8,0 -1.45,-0.03 -1.97,-0.1 -0.52,-0.07 -0.93,-0.16 -1.21,-0.29 -0.3,-0.12 -0.51,-0.28 -0.61,-0.45 -0.12,-0.19 -0.17,-0.39 -0.17,-0.61 v -39.4 c 0,-1.06 0.31,-1.86 0.93,-2.39 0.61,-0.53 1.38,-0.8 2.29,-0.8 h 4.78 c 0.86,0 1.58,0.07 2.17,0.22 0.59,0.15 1.11,0.39 1.57,0.73 0.46,0.34 0.9,0.81 1.31,1.41 0.4,0.59 0.82,1.34 1.25,2.22 l 8.52,16.04 c 0.5,0.97 0.98,1.93 1.47,2.87 0.49,0.94 0.96,1.87 1.4,2.81 0.45,0.93 0.89,1.86 1.32,2.76 0.44,0.91 0.86,1.81 1.26,2.72 h 0.04 c -0.07,-1.59 -0.13,-3.24 -0.16,-4.95 -0.03,-1.72 -0.05,-3.36 -0.05,-4.93 v -20.58 c 0,-0.22 0.07,-0.43 0.21,-0.61 0.13,-0.17 0.36,-0.34 0.67,-0.48 0.32,-0.14 0.74,-0.23 1.26,-0.29 0.52,-0.06 1.19,-0.08 2,-0.08 0.78,0 1.42,0.02 1.94,0.08 0.52,0.06 0.91,0.15 1.2,0.29 0.28,0.14 0.49,0.3 0.59,0.48 0.12,0.18 0.17,0.38 0.17,0.61 v 39.4 z m 45.97,-19.44 c 0,4.02 -0.52,7.46 -1.57,10.32 -1.05,2.86 -2.56,5.18 -4.52,7 -1.97,1.8 -4.36,3.13 -7.17,3.98 -2.81,0.84 -6.16,1.27 -10.05,1.27 h -10.46 c -0.75,0 -1.37,-0.22 -1.88,-0.66 -0.51,-0.44 -0.76,-1.16 -0.76,-2.15 v -38.22 c 0,-0.99 0.25,-1.71 0.76,-2.15 0.51,-0.44 1.13,-0.66 1.88,-0.66 h 11.24 c 3.91,0 7.23,0.46 9.94,1.38 2.73,0.91 5.02,2.27 6.88,4.06 1.86,1.8 3.28,4.02 4.26,6.66 0.97,2.65 1.46,5.7 1.46,9.18 z m -9.23,0.31 c 0,-2.08 -0.24,-4 -0.73,-5.79 -0.48,-1.78 -1.26,-3.32 -2.33,-4.62 -1.07,-1.31 -2.45,-2.34 -4.13,-3.06 -1.69,-0.73 -3.88,-1.1 -6.62,-1.1 h -4.5 v 29.76 h 4.64 c 2.44,0 4.5,-0.31 6.16,-0.95 1.66,-0.62 3.06,-1.58 4.19,-2.85 1.11,-1.27 1.94,-2.86 2.5,-4.75 0.55,-1.89 0.83,-4.1 0.83,-6.62 z m 52.26,5.92 c 0,2.68 -0.39,5.09 -1.19,7.2 -0.79,2.13 -1.94,3.92 -3.48,5.39 -1.54,1.47 -3.43,2.59 -5.69,3.36 -2.26,0.77 -4.86,1.15 -7.79,1.15 -2.75,0 -5.23,-0.35 -7.41,-1.03 -2.2,-0.69 -4.05,-1.73 -5.56,-3.13 -1.51,-1.4 -2.67,-3.14 -3.47,-5.24 -0.8,-2.09 -1.2,-4.53 -1.2,-7.33 v -26.66 c 0,-0.22 0.07,-0.43 0.21,-0.61 0.13,-0.17 0.37,-0.32 0.72,-0.44 0.35,-0.12 0.81,-0.2 1.38,-0.27 0.55,-0.07 1.28,-0.1 2.16,-0.1 0.84,0 1.56,0.03 2.12,0.1 0.57,0.07 1.01,0.15 1.35,0.27 0.34,0.11 0.58,0.26 0.73,0.44 0.15,0.18 0.22,0.39 0.22,0.61 v 25.9 c 0,1.75 0.22,3.25 0.65,4.53 0.43,1.27 1.04,2.34 1.85,3.17 0.8,0.83 1.76,1.47 2.88,1.88 1.12,0.42 2.37,0.62 3.75,0.62 1.4,0 2.66,-0.22 3.76,-0.65 1.11,-0.43 2.05,-1.05 2.82,-1.87 0.76,-0.83 1.36,-1.85 1.78,-3.05 0.42,-1.21 0.63,-2.59 0.63,-4.13 v -26.41 c 0,-0.22 0.07,-0.43 0.21,-0.61 0.13,-0.17 0.37,-0.32 0.7,-0.44 0.34,-0.12 0.8,-0.2 1.38,-0.27 0.58,-0.07 1.29,-0.1 2.15,-0.1 0.86,0 1.56,0.03 2.11,0.1 0.55,0.07 1.01,0.15 1.34,0.27 0.34,0.11 0.58,0.26 0.7,0.44 0.14,0.18 0.21,0.39 0.21,0.61 v 26.29 z m 35.57,3.18 c 0,2.31 -0.43,4.32 -1.28,6.07 -0.87,1.73 -2.02,3.18 -3.49,4.35 -1.48,1.15 -3.19,2.03 -5.16,2.62 -1.97,0.59 -4.07,0.88 -6.31,0.88 -1.52,0 -2.91,-0.13 -4.22,-0.38 -1.29,-0.25 -2.44,-0.55 -3.43,-0.91 -0.99,-0.35 -1.83,-0.72 -2.5,-1.11 -0.67,-0.39 -1.14,-0.74 -1.45,-1.03 -0.29,-0.3 -0.49,-0.73 -0.62,-1.28 -0.13,-0.55 -0.19,-1.34 -0.19,-2.38 0,-0.71 0.02,-1.28 0.07,-1.76 0.05,-0.48 0.12,-0.86 0.22,-1.16 0.1,-0.29 0.24,-0.5 0.4,-0.62 0.17,-0.13 0.37,-0.18 0.6,-0.18 0.31,0 0.76,0.18 1.34,0.56 0.58,0.37 1.32,0.79 2.22,1.24 0.9,0.45 1.99,0.87 3.25,1.24 1.25,0.38 2.7,0.57 4.36,0.57 1.09,0 2.06,-0.13 2.91,-0.38 0.87,-0.26 1.6,-0.62 2.2,-1.1 0.6,-0.47 1.05,-1.05 1.38,-1.75 0.31,-0.69 0.47,-1.47 0.47,-2.32 0,-0.99 -0.27,-1.85 -0.81,-2.55 -0.54,-0.72 -1.25,-1.34 -2.13,-1.9 -0.86,-0.55 -1.86,-1.07 -2.97,-1.56 -1.1,-0.49 -2.24,-0.99 -3.42,-1.54 -1.18,-0.54 -2.32,-1.15 -3.42,-1.85 -1.11,-0.68 -2.11,-1.5 -2.97,-2.46 -0.88,-0.96 -1.58,-2.09 -2.13,-3.41 -0.54,-1.31 -0.81,-2.88 -0.81,-4.71 0,-2.09 0.39,-3.94 1.17,-5.54 0.77,-1.59 1.83,-2.9 3.14,-3.95 1.33,-1.05 2.88,-1.84 4.67,-2.36 1.79,-0.52 3.7,-0.78 5.71,-0.78 1.03,0 2.07,0.08 3.11,0.24 1.04,0.15 2.01,0.37 2.91,0.63 0.9,0.28 1.7,0.58 2.41,0.91 0.69,0.35 1.15,0.62 1.38,0.86 0.22,0.22 0.37,0.42 0.45,0.57 0.08,0.16 0.15,0.37 0.21,0.64 0.06,0.25 0.09,0.58 0.12,0.98 0.02,0.39 0.03,0.88 0.03,1.47 0,0.65 -0.01,1.2 -0.05,1.66 -0.03,0.45 -0.09,0.82 -0.17,1.12 -0.08,0.29 -0.2,0.51 -0.33,0.63 -0.15,0.14 -0.35,0.21 -0.6,0.21 -0.24,0 -0.63,-0.16 -1.18,-0.47 -0.54,-0.31 -1.21,-0.66 -2,-1.04 -0.8,-0.37 -1.71,-0.71 -2.75,-1 -1.04,-0.31 -2.17,-0.46 -3.42,-0.46 -0.97,0 -1.81,0.12 -2.54,0.36 -0.72,0.23 -1.32,0.57 -1.8,0.98 -0.48,0.42 -0.86,0.91 -1.09,1.5 -0.24,0.59 -0.36,1.21 -0.36,1.86 0,0.97 0.27,1.82 0.8,2.52 0.53,0.72 1.25,1.35 2.14,1.91 0.89,0.54 1.91,1.06 3.04,1.55 1.12,0.48 2.28,1.01 3.46,1.54 1.18,0.54 2.34,1.15 3.46,1.85 1.13,0.69 2.14,1.51 3.03,2.47 0.88,0.96 1.59,2.08 2.14,3.39 0.54,1.29 0.81,2.82 0.81,4.58 z m 35.23,-27.03 c 0,0.66 -0.02,1.21 -0.08,1.69 -0.06,0.46 -0.14,0.83 -0.26,1.11 -0.11,0.29 -0.25,0.5 -0.43,0.62 -0.16,0.14 -0.36,0.21 -0.55,0.21 H 744.3 v 35.34 c 0,0.22 -0.07,0.43 -0.22,0.61 -0.15,0.17 -0.39,0.32 -0.73,0.44 -0.34,0.1 -0.8,0.2 -1.38,0.27 -0.58,0.07 -1.29,0.1 -2.15,0.1 -0.85,0 -1.57,-0.03 -2.15,-0.1 -0.58,-0.07 -1.04,-0.16 -1.38,-0.27 -0.34,-0.12 -0.58,-0.26 -0.73,-0.44 -0.15,-0.18 -0.22,-0.39 -0.22,-0.61 v -35.34 h -10.96 c -0.22,0 -0.42,-0.07 -0.58,-0.21 -0.15,-0.13 -0.29,-0.34 -0.4,-0.62 -0.1,-0.28 -0.2,-0.65 -0.25,-1.11 -0.06,-0.47 -0.08,-1.03 -0.08,-1.69 0,-0.67 0.02,-1.25 0.08,-1.72 0.06,-0.47 0.15,-0.85 0.25,-1.13 0.12,-0.29 0.25,-0.48 0.4,-0.61 0.16,-0.13 0.36,-0.19 0.58,-0.19 h 30.87 c 0.2,0 0.38,0.06 0.55,0.19 0.17,0.13 0.31,0.32 0.43,0.61 0.12,0.28 0.2,0.66 0.26,1.13 0.06,0.47 0.08,1.05 0.08,1.72 z m 37.75,39.04 c 0,0.24 -0.04,0.45 -0.14,0.62 -0.09,0.17 -0.3,0.31 -0.64,0.43 -0.35,0.1 -0.83,0.19 -1.49,0.23 -0.66,0.04 -1.55,0.07 -2.67,0.07 -0.95,0 -1.7,-0.02 -2.27,-0.07 -0.57,-0.05 -1.02,-0.13 -1.34,-0.26 -0.32,-0.13 -0.55,-0.28 -0.69,-0.47 -0.13,-0.2 -0.24,-0.43 -0.34,-0.69 l -3.95,-9.82 c -0.48,-1.11 -0.94,-2.1 -1.39,-2.96 -0.45,-0.87 -0.96,-1.59 -1.51,-2.16 -0.55,-0.58 -1.2,-1.01 -1.93,-1.31 -0.72,-0.29 -1.56,-0.44 -2.51,-0.44 h -2.79 v 16.75 c 0,0.22 -0.07,0.43 -0.22,0.6 -0.15,0.18 -0.39,0.33 -0.73,0.45 -0.34,0.1 -0.79,0.2 -1.35,0.27 -0.55,0.07 -1.28,0.1 -2.15,0.1 -0.86,0 -1.57,-0.03 -2.15,-0.1 -0.58,-0.07 -1.03,-0.16 -1.36,-0.27 -0.34,-0.12 -0.58,-0.26 -0.71,-0.44 -0.14,-0.18 -0.21,-0.39 -0.21,-0.61 v -39.82 c 0,-0.99 0.25,-1.71 0.76,-2.15 0.51,-0.44 1.13,-0.66 1.87,-0.66 h 11.35 c 1.15,0 2.11,0.02 2.84,0.07 0.74,0.04 1.42,0.1 2.04,0.16 1.76,0.25 3.34,0.68 4.75,1.29 1.41,0.6 2.61,1.4 3.6,2.38 0.98,0.98 1.73,2.14 2.25,3.48 0.52,1.34 0.77,2.88 0.77,4.62 0,1.46 -0.18,2.8 -0.55,4 -0.38,1.21 -0.92,2.29 -1.65,3.24 -0.72,0.95 -1.61,1.77 -2.67,2.46 -1.07,0.7 -2.28,1.26 -3.63,1.7 0.66,0.31 1.27,0.69 1.85,1.14 0.58,0.45 1.12,1 1.63,1.65 0.51,0.65 0.99,1.38 1.45,2.21 0.45,0.82 0.89,1.76 1.32,2.8 l 3.71,8.66 c 0.34,0.86 0.57,1.48 0.67,1.88 0.12,0.39 0.17,0.7 0.17,0.94 z m -11.52,-29.77 c 0,-1.45 -0.32,-2.67 -0.98,-3.65 -0.66,-0.99 -1.73,-1.7 -3.22,-2.11 -0.45,-0.11 -0.96,-0.2 -1.54,-0.27 -0.58,-0.07 -1.38,-0.1 -2.39,-0.1 h -4 v 12.42 h 4.54 c 1.27,0 2.37,-0.15 3.32,-0.46 0.96,-0.3 1.75,-0.73 2.39,-1.28 0.63,-0.54 1.11,-1.21 1.42,-1.98 0.31,-0.76 0.47,-1.62 0.47,-2.57 z m 26.99,29.7 c 0,0.22 -0.07,0.43 -0.22,0.61 -0.15,0.17 -0.39,0.32 -0.73,0.44 -0.34,0.1 -0.8,0.2 -1.35,0.27 -0.56,0.07 -1.29,0.1 -2.17,0.1 -0.85,0 -1.57,-0.03 -2.15,-0.1 -0.58,-0.07 -1.04,-0.16 -1.38,-0.27 -0.34,-0.12 -0.58,-0.26 -0.73,-0.44 -0.15,-0.18 -0.22,-0.39 -0.22,-0.61 v -41.41 c 0,-0.22 0.07,-0.43 0.22,-0.61 0.15,-0.17 0.39,-0.32 0.75,-0.44 0.35,-0.12 0.8,-0.2 1.37,-0.27 0.57,-0.07 1.28,-0.1 2.14,-0.1 0.88,0 1.61,0.03 2.17,0.1 0.56,0.07 1.02,0.15 1.35,0.27 0.34,0.11 0.58,0.26 0.73,0.44 0.15,0.18 0.22,0.39 0.22,0.61 z m 45.45,-2.1 c 0.27,0.81 0.44,1.46 0.51,1.93 0.07,0.47 -0.03,0.83 -0.27,1.07 -0.25,0.23 -0.69,0.38 -1.33,0.44 -0.62,0.06 -1.5,0.08 -2.6,0.08 -1.16,0 -2.06,-0.01 -2.7,-0.05 -0.65,-0.03 -1.13,-0.1 -1.48,-0.21 -0.34,-0.1 -0.57,-0.24 -0.71,-0.43 -0.14,-0.17 -0.25,-0.42 -0.34,-0.7 l -2.88,-8.81 h -16.53 l -2.77,8.57 c -0.09,0.32 -0.21,0.59 -0.36,0.8 -0.14,0.22 -0.38,0.38 -0.71,0.51 -0.32,0.13 -0.79,0.21 -1.38,0.26 -0.6,0.04 -1.39,0.07 -2.36,0.07 -1.04,0 -1.85,-0.03 -2.44,-0.1 -0.59,-0.07 -0.99,-0.23 -1.21,-0.49 -0.23,-0.27 -0.31,-0.64 -0.24,-1.11 0.07,-0.48 0.24,-1.1 0.51,-1.9 l 13.5,-38.91 c 0.13,-0.38 0.29,-0.69 0.47,-0.92 0.17,-0.24 0.46,-0.42 0.86,-0.54 0.4,-0.13 0.95,-0.21 1.65,-0.24 0.69,-0.03 1.62,-0.05 2.78,-0.05 1.33,0 2.39,0.01 3.18,0.05 0.8,0.03 1.41,0.11 1.85,0.24 0.44,0.13 0.75,0.31 0.95,0.55 0.19,0.25 0.36,0.59 0.49,1.02 l 13.55,38.87 z m -20.12,-32.19 h -0.03 l -6.1,18.65 h 12.3 l -6.16,-18.65 z m 50.33,31.78 c 0,0.67 -0.02,1.25 -0.08,1.71 -0.06,0.46 -0.15,0.85 -0.26,1.14 -0.11,0.31 -0.25,0.53 -0.43,0.66 -0.17,0.14 -0.37,0.21 -0.59,0.21 h -20.08 c -0.74,0 -1.36,-0.22 -1.87,-0.66 -0.51,-0.44 -0.76,-1.16 -0.76,-2.15 v -39.82 c 0,-0.22 0.07,-0.43 0.22,-0.61 0.15,-0.17 0.39,-0.32 0.73,-0.44 0.34,-0.12 0.8,-0.2 1.37,-0.27 0.58,-0.07 1.3,-0.1 2.15,-0.1 0.88,0 1.61,0.03 2.17,0.1 0.56,0.07 1.02,0.15 1.35,0.27 0.34,0.11 0.58,0.26 0.73,0.44 0.15,0.18 0.22,0.39 0.22,0.61 v 35.28 h 13.77 c 0.22,0 0.43,0.06 0.59,0.18 0.17,0.13 0.31,0.32 0.43,0.62 0.12,0.28 0.2,0.65 0.26,1.12 0.06,0.46 0.08,1.03 0.08,1.71 z m 45.01,0 c 0,0.67 -0.02,1.25 -0.08,1.71 -0.06,0.46 -0.15,0.85 -0.26,1.14 -0.11,0.31 -0.25,0.53 -0.43,0.66 -0.17,0.14 -0.37,0.21 -0.59,0.21 h -20.08 c -0.74,0 -1.36,-0.22 -1.87,-0.66 -0.51,-0.44 -0.76,-1.16 -0.76,-2.15 v -39.82 c 0,-0.22 0.07,-0.43 0.22,-0.61 0.15,-0.17 0.39,-0.32 0.73,-0.44 0.34,-0.12 0.8,-0.2 1.37,-0.27 0.58,-0.07 1.3,-0.1 2.15,-0.1 0.88,0 1.61,0.03 2.17,0.1 0.56,0.07 1.02,0.15 1.35,0.27 0.34,0.11 0.58,0.26 0.73,0.44 0.15,0.18 0.22,0.39 0.22,0.61 v 35.28 h 13.77 c 0.22,0 0.43,0.06 0.59,0.18 0.17,0.13 0.31,0.32 0.43,0.62 0.12,0.28 0.2,0.65 0.26,1.12 0.06,0.46 0.08,1.03 0.08,1.71 z m 29.32,-36.47 c 0,0.66 -0.02,1.21 -0.08,1.69 -0.06,0.46 -0.14,0.83 -0.26,1.11 -0.11,0.29 -0.25,0.5 -0.43,0.62 -0.16,0.14 -0.36,0.21 -0.55,0.21 h -10.96 v 35.34 c 0,0.22 -0.07,0.43 -0.22,0.61 -0.15,0.17 -0.39,0.32 -0.73,0.44 -0.34,0.1 -0.8,0.2 -1.38,0.27 -0.58,0.07 -1.29,0.1 -2.15,0.1 -0.85,0 -1.57,-0.03 -2.15,-0.1 -0.58,-0.07 -1.04,-0.16 -1.37,-0.27 -0.34,-0.12 -0.58,-0.26 -0.73,-0.44 -0.15,-0.18 -0.22,-0.39 -0.22,-0.61 V 135.8 H 927.6 c -0.22,0 -0.42,-0.07 -0.58,-0.21 -0.15,-0.13 -0.29,-0.34 -0.4,-0.62 -0.1,-0.28 -0.2,-0.65 -0.25,-1.11 -0.06,-0.47 -0.08,-1.03 -0.08,-1.69 0,-0.67 0.02,-1.25 0.08,-1.72 0.06,-0.47 0.15,-0.85 0.25,-1.13 0.12,-0.29 0.26,-0.48 0.4,-0.61 0.16,-0.13 0.36,-0.19 0.58,-0.19 h 30.87 c 0.2,0 0.38,0.06 0.55,0.19 0.17,0.13 0.31,0.32 0.43,0.61 0.12,0.28 0.2,0.66 0.26,1.13 0.06,0.47 0.08,1.05 0.08,1.72 z m 41.63,17.62 c 0,4.02 -0.52,7.46 -1.57,10.32 -1.05,2.86 -2.56,5.18 -4.52,7 -1.97,1.8 -4.36,3.13 -7.17,3.98 -2.81,0.84 -6.16,1.27 -10.05,1.27 h -10.46 c -0.75,0 -1.37,-0.22 -1.88,-0.66 -0.51,-0.44 -0.76,-1.16 -0.76,-2.15 v -38.22 c 0,-0.99 0.25,-1.71 0.76,-2.15 0.51,-0.44 1.13,-0.66 1.88,-0.66 h 11.24 c 3.91,0 7.23,0.46 9.94,1.38 2.73,0.91 5.02,2.27 6.88,4.06 1.86,1.8 3.29,4.02 4.26,6.66 0.97,2.65 1.45,5.7 1.45,9.18 z m -9.23,0.31 c 0,-2.08 -0.24,-4 -0.73,-5.79 -0.48,-1.78 -1.26,-3.32 -2.34,-4.62 -1.07,-1.31 -2.45,-2.34 -4.12,-3.06 -1.69,-0.73 -3.89,-1.1 -6.63,-1.1 h -4.5 v 29.76 h 4.64 c 2.44,0 4.5,-0.31 6.16,-0.95 1.66,-0.62 3.06,-1.58 4.19,-2.85 1.11,-1.27 1.94,-2.86 2.5,-4.75 0.55,-1.89 0.83,-4.1 0.83,-6.62 z m 50.81,18.94 c 0.27,0.81 0.44,1.46 0.51,1.93 0.07,0.47 -0.03,0.83 -0.27,1.07 -0.25,0.23 -0.69,0.38 -1.33,0.44 -0.62,0.06 -1.5,0.08 -2.6,0.08 -1.15,0 -2.06,-0.01 -2.69,-0.05 -0.65,-0.03 -1.13,-0.1 -1.48,-0.21 -0.34,-0.1 -0.57,-0.24 -0.7,-0.43 -0.14,-0.17 -0.25,-0.42 -0.34,-0.7 l -2.88,-8.81 h -16.53 l -2.76,8.57 c -0.09,0.32 -0.21,0.59 -0.36,0.8 -0.14,0.22 -0.38,0.38 -0.71,0.51 -0.32,0.13 -0.78,0.21 -1.38,0.26 -0.6,0.04 -1.39,0.07 -2.36,0.07 -1.04,0 -1.85,-0.03 -2.44,-0.1 -0.59,-0.07 -0.99,-0.23 -1.21,-0.49 -0.23,-0.27 -0.31,-0.64 -0.24,-1.11 0.07,-0.48 0.24,-1.1 0.51,-1.9 l 13.5,-38.91 c 0.13,-0.38 0.29,-0.69 0.47,-0.92 0.17,-0.24 0.46,-0.42 0.86,-0.54 0.41,-0.13 0.95,-0.21 1.65,-0.24 0.69,-0.03 1.62,-0.05 2.78,-0.05 1.33,0 2.39,0.01 3.18,0.05 0.8,0.03 1.41,0.11 1.85,0.24 0.44,0.13 0.75,0.31 0.95,0.55 0.19,0.25 0.36,0.59 0.49,1.02 l 13.55,38.87 z m -20.12,-32.19 h -0.03 l -6.1,18.65 h 12.3 l -6.16,-18.65 z m 36.27,30.61 c 0,2.09 -0.36,3.51 -1.1,4.23 -0.73,0.73 -2.04,1.09 -3.94,1.09 -1.89,0 -3.21,-0.36 -3.93,-1.06 -0.73,-0.72 -1.09,-2.07 -1.09,-4.06 0,-2.12 0.37,-3.55 1.1,-4.27 0.74,-0.73 2.07,-1.09 3.99,-1.09 1.87,0 3.17,0.36 3.89,1.06 0.72,0.72 1.07,2.08 1.07,4.09 z"  fill="#ffcc00"/>
                </g>
            </g>
        </g>
    </g>
</svg>
