<?xml version='1.0' encoding='UTF-8' standalone='no'?>
<svg xmlns="http://www.w3.org/2000/svg" gorn="0"  id="svg11" version="1.1" width="3.3050001mm" viewBox="0 0 13.012431 22.991387" height="5.8400002mm">
    <desc >
        <referenceFile >MSOP-10.svg</referenceFile>
    </desc>
    <g  transform="translate(-4033.1,-3022.5)">
        <g >
            <g >
                <defs  id="defs11"/>
                <g  transform="translate(-9.449407,-16.005952)">
                    <g >
                        <g gorn="0.1.0.0.1.0.0"  id="silkscreen">
                            <path gorn="0.1.0.0.1.0.0.0"  id="gge28" stroke-opacity="1" stroke="none" style="color:#000000;stroke-linecap:round;stroke-linejoin:round;-inkscape-shape-rendering:crispEdges;" d="m 4042.8502,3045.4824 a 0.30003001,0.30003001 0 0 0 -0.3008,0.2989 v 8.4375 a 0.30000001,0.30000001 0 0 0 0.3008,0.2988 h 12.4102 a 0.30003001,0.30003001 0 0 0 0.3008,-0.2988 v -8.4375 a 0.30003001,0.30003001 0 0 0 -0.3008,-0.2989 z m 0.2989,0.5996 h 11.8125 v 7.836 h -11.8125 z" fill="#000000" fill-opacity="1"/>
                            <path gorn="0.1.0.0.1.0.0.1"  id="gge31" stroke-opacity="1" stroke="none" style="color:#000000;-inkscape-shape-rendering:crispEdges;" d="m 4044.4857,3051.3038 c -0.6456,0 -1.1816,0.5361 -1.1816,1.1817 0,0.6455 0.536,1.1816 1.1816,1.1816 0.6456,0 1.1816,-0.5361 1.1816,-1.1816 0,-0.6456 -0.536,-1.1817 -1.1816,-1.1817 z" fill="#000000" fill-opacity="1"/>
                            <path gorn="0.1.0.0.1.0.0.2"  id="gge34" stroke-opacity="1" stroke="none" style="color:#000000;-inkscape-shape-rendering:crispEdges;" d="m 4043.3369,3059.9234 c -0.4302,0 -0.7875,0.3573 -0.7875,0.7874 0,0.4302 0.3573,0.7875 0.7875,0.7875 0.4301,0 0.7874,-0.3573 0.7874,-0.7875 0,-0.4301 -0.3573,-0.7874 -0.7874,-0.7874 z" fill="#000000" fill-opacity="1" stroke-width="0.666387"/>
                        </g>
                    </g>
                </g>
                <g  transform="translate(-10.3941,-16.005952)">
                    <g >
                        <g gorn="0.1.0.0.2.0.0"  id="copper1">
                            <path gorn="0.1.0.0.2.0.0.0"  id="connector0pad" stroke-opacity="1" stroke="none" style="color:#000000;stroke-linecap:round;stroke-linejoin:round;-inkscape-shape-rendering:crispEdges;" d="m 4046.0625,3055.1172 a 0.55119997,0.55119997 0 0 0 -0.5508,0.5527 v 5.2754 a 0.55119997,0.55119997 0 0 0 0.5508,0.5508 0.55119997,0.55119997 0 0 0 0.5508,-0.5508 v -5.2754 a 0.55119997,0.55119997 0 0 0 -0.5508,-0.5527 z" fill="#ffc000" fill-opacity="1"/>
                            <path gorn="0.1.0.0.2.0.0.1"  id="connector1pad" stroke-opacity="1" stroke="none" style="color:#000000;stroke-linecap:round;stroke-linejoin:round;-inkscape-shape-rendering:crispEdges;" d="m 4048.0313,3055.1172 a 0.55119997,0.55119997 0 0 0 -0.5508,0.5527 v 5.2754 a 0.55119997,0.55119997 0 0 0 0.5508,0.5508 0.55119997,0.55119997 0 0 0 0.5527,-0.5508 v -5.2754 a 0.55119997,0.55119997 0 0 0 -0.5527,-0.5527 z" fill="#ffc000" fill-opacity="1"/>
                            <path gorn="0.1.0.0.2.0.0.2"  id="connector2pad" stroke-opacity="1" stroke="none" style="color:#000000;stroke-linecap:round;stroke-linejoin:round;-inkscape-shape-rendering:crispEdges;" d="m 4050,3055.1172 a 0.55119997,0.55119997 0 0 0 -0.5508,0.5527 v 5.2754 a 0.55119997,0.55119997 0 0 0 0.5508,0.5508 0.55119997,0.55119997 0 0 0 0.5508,-0.5508 v -5.2754 A 0.55119997,0.55119997 0 0 0 4050,3055.1172 Z" fill="#ffc000" fill-opacity="1"/>
                            <path gorn="0.1.0.0.2.0.0.3"  id="connector3pad" stroke-opacity="1" stroke="none" style="color:#000000;stroke-linecap:round;stroke-linejoin:round;-inkscape-shape-rendering:crispEdges;" d="m 4051.9688,3055.1172 a 0.55119997,0.55119997 0 0 0 -0.5508,0.5527 v 5.2754 a 0.55119997,0.55119997 0 0 0 0.5508,0.5508 0.55119997,0.55119997 0 0 0 0.5507,-0.5508 v -5.2754 a 0.55119997,0.55119997 0 0 0 -0.5507,-0.5527 z" fill="#ffc000" fill-opacity="1"/>
                            <path gorn="0.1.0.0.2.0.0.4"  id="connector4pad" stroke-opacity="1" stroke="none" style="color:#000000;stroke-linecap:round;stroke-linejoin:round;-inkscape-shape-rendering:crispEdges;" d="m 4053.9375,3055.1172 a 0.55119997,0.55119997 0 0 0 -0.5508,0.5527 v 5.2754 a 0.55119997,0.55119997 0 0 0 0.5508,0.5508 0.55119997,0.55119997 0 0 0 0.5508,-0.5508 v -5.2754 a 0.55119997,0.55119997 0 0 0 -0.5508,-0.5527 z" fill="#ffc000" fill-opacity="1"/>
                            <path gorn="0.1.0.0.2.0.0.5"  id="connector5pad" stroke-opacity="1" stroke="none" style="color:#000000;stroke-linecap:round;stroke-linejoin:round;-inkscape-shape-rendering:crispEdges;" d="m 4053.9375,3038.5039 a 0.55119997,0.55119997 0 0 0 -0.5508,0.5508 v 5.2754 a 0.55119997,0.55119997 0 0 0 0.5508,0.5527 0.55119997,0.55119997 0 0 0 0.5508,-0.5527 v -5.2754 a 0.55119997,0.55119997 0 0 0 -0.5508,-0.5508 z" fill="#ffc000" fill-opacity="1"/>
                            <path gorn="0.1.0.0.2.0.0.6"  id="connector6pad" stroke-opacity="1" stroke="none" style="color:#000000;stroke-linecap:round;stroke-linejoin:round;-inkscape-shape-rendering:crispEdges;" d="m 4051.9688,3038.5039 a 0.55119997,0.55119997 0 0 0 -0.5508,0.5508 v 5.2754 a 0.55119997,0.55119997 0 0 0 0.5508,0.5527 0.55119997,0.55119997 0 0 0 0.5507,-0.5527 v -5.2754 a 0.55119997,0.55119997 0 0 0 -0.5507,-0.5508 z" fill="#ffc000" fill-opacity="1"/>
                            <path gorn="0.1.0.0.2.0.0.7"  id="connector7pad" stroke-opacity="1" stroke="none" style="color:#000000;stroke-linecap:round;stroke-linejoin:round;-inkscape-shape-rendering:crispEdges;" d="m 4050,3038.5039 a 0.55119997,0.55119997 0 0 0 -0.5508,0.5508 v 5.2754 a 0.55119997,0.55119997 0 0 0 0.5508,0.5527 0.55119997,0.55119997 0 0 0 0.5508,-0.5527 v -5.2754 A 0.55119997,0.55119997 0 0 0 4050,3038.5039 Z" fill="#ffc000" fill-opacity="1"/>
                            <path gorn="0.1.0.0.2.0.0.8"  id="connector8pad" stroke-opacity="1" stroke="none" style="color:#000000;stroke-linecap:round;stroke-linejoin:round;-inkscape-shape-rendering:crispEdges;" d="m 4048.0313,3038.5039 a 0.55119997,0.55119997 0 0 0 -0.5508,0.5508 v 5.2754 a 0.55119997,0.55119997 0 0 0 0.5508,0.5527 0.55119997,0.55119997 0 0 0 0.5527,-0.5527 v -5.2754 a 0.55119997,0.55119997 0 0 0 -0.5527,-0.5508 z" fill="#ffc000" fill-opacity="1"/>
                            <path gorn="0.1.0.0.2.0.0.9"  id="connector9pad" stroke-opacity="1" stroke="none" style="color:#000000;stroke-linecap:round;stroke-linejoin:round;-inkscape-shape-rendering:crispEdges;" d="m 4046.0625,3038.5039 a 0.55119997,0.55119997 0 0 0 -0.5508,0.5508 v 5.2754 a 0.55119997,0.55119997 0 0 0 0.5508,0.5527 0.55119997,0.55119997 0 0 0 0.5508,-0.5527 v -5.2754 a 0.55119997,0.55119997 0 0 0 -0.5508,-0.5508 z" fill="#ffc000" fill-opacity="1"/>
                        </g>
                    </g>
                </g>
            </g>
        </g>
    </g>
</svg>
