<?xml version="1.0" encoding="UTF-8" standalone="no"?>
<!-- Created with Fritzing (https://fritzing.org/) -->

<svg
   y="0in"
   width="2.5mm"
   height="2.5mm"
   viewBox="0 0 7.0866095 7.0866093"
   version="1.2"
   x="0in"
   gorn="0"
   id="svg890"
   xmlns="http://www.w3.org/2000/svg"
   xmlns:svg="http://www.w3.org/2000/svg">
  <desc
     id="desc958">
    <referenceFile>pad-central-direcional.svg</referenceFile>
  </desc>
  <defs
     id="defs894" />
  <g
     gorn="0.2.0.0.0.0"
     id="copper1"
     transform="translate(0,-834.80166)">
    <path
       stroke-width="0.136062"
       style="stroke-linecap:square;paint-order:markers stroke fill;fill:#ffc000;fill-opacity:1"
       gorn="0.2.0.0.0.0.0.0"
       id="connector0pad"
       d="m 6.944877,838.34496 a 3.4015724,3.4015723 0 0 1 -3.4015724,3.40157 3.4015724,3.4015723 0 0 1 -3.4015724,-3.40157 3.4015724,3.4015723 0 0 1 3.4015724,-3.40157 3.4015724,3.4015723 0 0 1 3.4015724,3.40157 z"
       fill="#ff9400" />
  </g>
  <g
     id="silkscreen">
    <path
       stroke-width="0.138952"
       style="fill:none;stroke:#000000;stroke-linecap:square;stroke-opacity:1;paint-order:markers stroke fill"
       gorn="0.2.0.0.0.0.0.0"
       id="connector0pad-3"
       d="M 7.0171328,3.5433048 A 3.4738282,3.4738283 0 0 1 3.5433045,7.0171332 3.4738282,3.4738283 0 0 1 0.06947638,3.5433048 3.4738282,3.4738283 0 0 1 3.5433045,0.06947638 3.4738282,3.4738283 0 0 1 7.0171328,3.5433048 Z"
       fill="#ff9400" />
  </g>
</svg>
