<?xml version='1.0' encoding='UTF-8' standalone='no'?>
<!-- Created with Fritzing (https://fritzing.org/) -->
<svg xmlns="http://www.w3.org/2000/svg" id="svg25" gorn="0" width="20mm"  version="1.2" x="0in" viewBox="0 0 56.692915 38.88" y="0in" height="13.716001mm">
    <desc >
        <referenceFile >STLINK-V2-PCB.svg</referenceFile>
    </desc>
    <defs id="defs25" />
    <g  transform="translate(19.706807,-4.2949811e-4)">
        <g >
            <g id="copper1" gorn="0.2.0.0" style="display:inline" >
                <g id="copper0" gorn="0.2.0.0.0" >
                    <circle id="connector0pin" gorn="0.2.0.0.0.0"  cx="5.04" fill="none" r="1.7121201" cy="5.04" stroke-width="1.44" stroke="#ffbf00"/>
                    <circle id="connector1pin" gorn="0.2.0.0.0.1"  cx="5.04" fill="none" r="1.7121201" cy="12.24" stroke-width="1.44" stroke="#ffbf00"/>
                    <circle id="connector2pin" gorn="0.2.0.0.0.2"  cx="5.04" fill="none" r="1.7121201" cy="19.440001" stroke-width="1.44" stroke="#ffbf00"/>
                    <circle id="connector3pin" gorn="0.2.0.0.0.3"  cx="5.04" fill="none" r="1.7121201" cy="26.639999" stroke-width="1.44" stroke="#ffbf00"/>
                    <circle id="connector4pin" gorn="0.2.0.0.0.4"  cx="5.04" fill="none" r="1.7121201" cy="33.84" stroke-width="1.44" stroke="#ffbf00"/>
                    <circle id="circle1" gorn="0.2.0.0.0.5"  cx="5.04" fill="none" r="1.7121201" cy="5.04" stroke-width="1.44" stroke="#ffbf00"/>
                    <circle id="circle2" gorn="0.2.0.0.0.6"  cx="5.04" fill="none" r="1.7121201" cy="12.24" stroke-width="1.44" stroke="#ffbf00"/>
                    <circle id="circle3" gorn="0.2.0.0.0.7"  cx="5.04" fill="none" r="1.7121201" cy="19.440001" stroke-width="1.44" stroke="#ffbf00"/>
                    <circle id="circle4" gorn="0.2.0.0.0.8"  cx="5.04" fill="none" r="1.7121201" cy="26.639999" stroke-width="1.44" stroke="#ffbf00"/>
                    <circle id="circle5" gorn="0.2.0.0.0.9"  cx="5.04" fill="none" r="1.7121201" cy="33.84" stroke-width="1.44" stroke="#ffbf00"/>
                    <circle id="connector5pin" gorn="0.2.0.0.0.10"  cx="12.24" fill="none" r="1.7121201" cy="33.84" stroke-width="1.44" stroke="#ffbf00"/>
                    <circle id="connector6pin" gorn="0.2.0.0.0.11"  cx="12.24" fill="none" r="1.7121201" cy="26.639999" stroke-width="1.44" stroke="#ffbf00"/>
                    <circle id="connector7pin" gorn="0.2.0.0.0.12"  cx="12.24" fill="none" r="1.7121201" cy="19.440001" stroke-width="1.44" stroke="#ffbf00"/>
                    <circle id="connector8pin" gorn="0.2.0.0.0.13"  cx="12.24" fill="none" r="1.7121201" cy="12.24" stroke-width="1.44" stroke="#ffbf00"/>
                    <circle id="connector9pin" gorn="0.2.0.0.0.14"  cx="12.24" fill="none" r="1.7121201" cy="5.04" stroke-width="1.44" stroke="#ffbf00"/>
                    <circle id="circle6" gorn="0.2.0.0.0.15"  cx="5.04" fill="none" r="1.7121201" cy="5.04" stroke-width="1.44" stroke="#ffbf00"/>
                    <circle id="circle7" gorn="0.2.0.0.0.16"  cx="5.04" fill="none" r="1.7121201" cy="12.24" stroke-width="1.44" stroke="#ffbf00"/>
                    <circle id="circle8" gorn="0.2.0.0.0.17"  cx="5.04" fill="none" r="1.7121201" cy="19.440001" stroke-width="1.44" stroke="#ffbf00"/>
                    <circle id="circle9" gorn="0.2.0.0.0.18"  cx="5.04" fill="none" r="1.7121201" cy="26.639999" stroke-width="1.44" stroke="#ffbf00"/>
                    <circle id="circle10" gorn="0.2.0.0.0.19"  cx="5.04" fill="none" r="1.7121201" cy="33.84" stroke-width="1.44" stroke="#ffbf00"/>
                    <circle id="circle11" gorn="0.2.0.0.0.20"  cx="5.04" fill="none" r="1.7121201" cy="5.04" stroke-width="1.44" stroke="#ffbf00"/>
                    <circle id="circle12" gorn="0.2.0.0.0.21"  cx="5.04" fill="none" r="1.7121201" cy="12.24" stroke-width="1.44" stroke="#ffbf00"/>
                    <circle id="circle13" gorn="0.2.0.0.0.22"  cx="5.04" fill="none" r="1.7121201" cy="19.440001" stroke-width="1.44" stroke="#ffbf00"/>
                    <circle id="circle14" gorn="0.2.0.0.0.23"  cx="5.04" fill="none" r="1.7121201" cy="26.639999" stroke-width="1.44" stroke="#ffbf00"/>
                    <circle id="circle15" gorn="0.2.0.0.0.24"  cx="5.04" fill="none" r="1.7121201" cy="33.84" stroke-width="1.44" stroke="#ffbf00"/>
                    <circle id="circle16" gorn="0.2.0.0.0.25"  cx="12.24" fill="none" r="1.7121201" cy="33.84" stroke-width="1.44" stroke="#ffbf00"/>
                    <circle id="circle17" gorn="0.2.0.0.0.26"  cx="12.24" fill="none" r="1.7121201" cy="26.639999" stroke-width="1.44" stroke="#ffbf00"/>
                    <circle id="circle18" gorn="0.2.0.0.0.27"  cx="12.24" fill="none" r="1.7121201" cy="19.440001" stroke-width="1.44" stroke="#ffbf00"/>
                    <circle id="circle19" gorn="0.2.0.0.0.28"  cx="12.24" fill="none" r="1.7121201" cy="12.24" stroke-width="1.44" stroke="#ffbf00"/>
                    <circle id="circle20" gorn="0.2.0.0.0.29"  cx="12.24" fill="none" r="1.7121201" cy="5.04" stroke-width="1.44" stroke="#ffbf00"/>
                </g>
            </g>
        </g>
    </g>
    <g id="silkscreen" gorn="0.3" >
        <path id="path26" gorn="0.3.0" style="stroke-dasharray:none;"  stroke-opacity="1" d="M 20.786885,1.4390236 V 37.439024 h 0.720703 V 1.4390236 Z" fill="#000000" fill-opacity="1" stroke-width="0" stroke="none"/>
        <path id="path28" gorn="0.3.1" style="stroke-dasharray:none;"  stroke-opacity="1" d="m 21.14626,37.079649 v 0.720703 h 14.400391 v -0.720703 z" fill="#000000" fill-opacity="1" stroke-width="0" stroke="none"/>
        <path id="path30" gorn="0.3.2" style="stroke-dasharray:none;"  stroke-opacity="1" d="M 35.187276,1.4390236 V 37.439024 h 0.71875 V 1.4390236 Z" fill="#000000" fill-opacity="1" stroke-width="0" stroke="none"/>
        <path id="path32" gorn="0.3.3" style="stroke-dasharray:none;"  stroke-opacity="1" d="M 21.14626,1.0796486 V 1.8003517 H 35.546651 V 1.0796486 Z" fill="#000000" fill-opacity="1" stroke-width="0" stroke="none"/>
        <path id="path34" gorn="0.3.4" style="stroke-dasharray:none;"  stroke-opacity="1" d="m 23.538838,1.3120705 -2.519531,2.5195313 0.253906,0.2558593 2.521485,-2.5214844 z" fill="#000000" fill-opacity="1" stroke-width="0" stroke="none"/>
        <path id="path44" gorn="0.3.5" style="stroke-dasharray:none;"  stroke-opacity="1" d="m 39.213278,7.4784203 q 0,0.02812 -0.01055,0.04922 -0.01055,0.02109 -0.0457,0.03516 -0.03516,0.01406 -0.09844,0.02109 -0.06328,0.007 -0.16875,0.007 -0.09141,0 -0.151172,-0.007 -0.05625,-0.007 -0.09141,-0.02109 -0.03516,-0.01758 -0.05625,-0.0457 -0.01758,-0.02812 -0.03164,-0.07031 l -0.418353,-1.072266 q -0.07383,-0.182813 -0.154688,-0.333985 -0.07734,-0.154687 -0.186328,-0.263672 -0.108984,-0.1125 -0.256641,-0.172265 -0.147656,-0.06328 -0.355078,-0.06328 h -0.404297 v 1.937098 q 0,0.02812 -0.01758,0.04922 -0.01406,0.02109 -0.04922,0.03516 -0.03164,0.01055 -0.09141,0.01758 -0.05625,0.01055 -0.14414,0.01055 -0.08789,0 -0.147657,-0.01055 -0.05625,-0.007 -0.09141,-0.01758 -0.03516,-0.01406 -0.04922,-0.03516 -0.01406,-0.02109 -0.01406,-0.04922 v -4.211719 q 0,-0.137109 0.07031,-0.189843 0.07383,-0.05625 0.154688,-0.05625 h 0.966797 q 0.172265,0 0.284765,0.01055 0.116016,0.007 0.207422,0.01758 0.263672,0.0457 0.464063,0.14414 0.203906,0.09844 0.341015,0.24961 0.13711,0.151171 0.203907,0.348046 0.07031,0.19336 0.07031,0.428907 0,0.228515 -0.06328,0.411328 -0.05977,0.179297 -0.175781,0.319922 -0.116016,0.137109 -0.277735,0.239062 -0.161719,0.101953 -0.362109,0.172266 0.1125,0.04922 0.203906,0.126562 0.09141,0.07383 0.16875,0.179297 0.08086,0.105469 0.151172,0.242578 0.07031,0.13711 0.140625,0.309375 l 0.407812,1.001953 q 0.04922,0.126563 0.06328,0.179297 0.01406,0.04922 0.01406,0.07734 z m -0.910547,-3.195703 q 0,-0.267188 -0.119531,-0.45 -0.119531,-0.186328 -0.400781,-0.267188 -0.08789,-0.02461 -0.200391,-0.03516 -0.108984,-0.01055 -0.288281,-0.01055 h -0.509766 v 1.532813 h 0.590625 q 0.239063,0 0.411329,-0.05625 0.175781,-0.05977 0.291796,-0.161719 0.116016,-0.105469 0.16875,-0.246094 0.05625,-0.140625 0.05625,-0.305859 z m 4.134375,2.010937 q 0,0.319922 -0.119531,0.569532 -0.116016,0.249609 -0.326953,0.42539 -0.207422,0.172266 -0.492187,0.260156 -0.28125,0.08789 -0.608204,0.08789 -0.228515,0 -0.42539,-0.03867 -0.19336,-0.03867 -0.348047,-0.09492 -0.151172,-0.05625 -0.256641,-0.116015 -0.101953,-0.05977 -0.14414,-0.101953 -0.03867,-0.04219 -0.05977,-0.105469 -0.01758,-0.0668 -0.01758,-0.175781 0,-0.07734 0.007,-0.126563 0.007,-0.05273 0.02109,-0.08437 0.01406,-0.03164 0.03516,-0.04219 0.02109,-0.01406 0.04922,-0.01406 0.04922,0 0.137109,0.05977 0.09141,0.05977 0.232032,0.130078 0.140625,0.07031 0.3375,0.133594 0.20039,0.05977 0.460546,0.05977 0.196875,0 0.358594,-0.05273 0.165235,-0.05273 0.28125,-0.147656 0.119531,-0.09844 0.182813,-0.239063 0.06328,-0.140625 0.06328,-0.319922 0,-0.193359 -0.08789,-0.330468 -0.08785,-0.137112 -0.231995,-0.239065 -0.144141,-0.105469 -0.330469,-0.189844 -0.182812,-0.08789 -0.376172,-0.175781 -0.193359,-0.09141 -0.376171,-0.200391 -0.182813,-0.108984 -0.326954,-0.25664 -0.14414,-0.147656 -0.235546,-0.344531 -0.08789,-0.200391 -0.08789,-0.478125 0,-0.284766 0.101953,-0.50625 0.105469,-0.225 0.288281,-0.376172 0.186328,-0.151172 0.439453,-0.228516 0.256641,-0.08086 0.551954,-0.08086 0.151171,0 0.302343,0.02812 0.154688,0.02461 0.288282,0.07031 0.137109,0.04219 0.242578,0.09844 0.105468,0.05273 0.137109,0.08789 0.03516,0.03164 0.0457,0.05273 0.01055,0.01758 0.01758,0.04922 0.007,0.02813 0.01055,0.07031 0.0035,0.04219 0.0035,0.108984 0,0.06328 -0.007,0.1125 -0.0035,0.04922 -0.01406,0.08437 -0.01055,0.03164 -0.03164,0.04922 -0.01758,0.01406 -0.04219,0.01406 -0.03867,0 -0.123047,-0.04922 -0.08086,-0.04922 -0.200391,-0.108984 -0.119531,-0.06328 -0.284765,-0.1125 -0.161719,-0.05273 -0.365625,-0.05273 -0.189844,0 -0.330469,0.05273 -0.140625,0.04922 -0.232031,0.133594 -0.09141,0.08437 -0.13711,0.20039 -0.0457,0.116016 -0.0457,0.246094 0,0.189844 0.08789,0.326953 0.08789,0.13711 0.232031,0.242578 0.147656,0.105469 0.333985,0.19336 0.186328,0.08789 0.379687,0.179297 0.193359,0.08789 0.379688,0.196875 0.186328,0.105468 0.330468,0.253125 0.147656,0.14414 0.235547,0.344531 0.09141,0.196875 0.09141,0.467578 z m 3.666797,-3.01289 q 0,0.0668 -0.007,0.116015 -0.007,0.04922 -0.02461,0.08086 -0.01406,0.02812 -0.03867,0.04219 -0.02109,0.01406 -0.04922,0.01406 h -1.279687 v 3.944532 q 0,0.02813 -0.01406,0.04922 -0.01406,0.02109 -0.04922,0.03516 -0.03516,0.01055 -0.09492,0.01758 -0.05625,0.01055 -0.144141,0.01055 -0.08437,0 -0.144141,-0.01055 -0.05976,-0.007 -0.09492,-0.01758 -0.03516,-0.01406 -0.04922,-0.03516 -0.01406,-0.02109 -0.01406,-0.04922 v -3.944532 h -1.279687 q -0.02812,0 -0.05273,-0.01406 -0.02109,-0.01406 -0.03516,-0.04219 -0.01406,-0.03164 -0.02461,-0.08086 -0.007,-0.04922 -0.007,-0.116016 0,-0.0668 0.007,-0.116016 0.01055,-0.05273 0.02461,-0.08438 0.01406,-0.03164 0.03516,-0.0457 0.02461,-0.01406 0.05273,-0.01406 h 3.164062 q 0.02812,0 0.04922,0.01406 0.02461,0.01406 0.03867,0.0457 0.01758,0.03164 0.02461,0.08438 0.007,0.04922 0.007,0.116016 z" fill="#000000" fill-opacity="1" stroke-width="0" stroke="none"/>
        <path id="path45" gorn="0.3.6" style="stroke-dasharray:none;"  stroke-opacity="1" d="m 38.977727,13.493655 q 0,0.319921 -0.119531,0.569531 -0.116016,0.249609 -0.326953,0.42539 -0.207422,0.172266 -0.492188,0.260157 -0.28125,0.08789 -0.608203,0.08789 -0.228515,0 -0.42539,-0.03867 -0.19336,-0.03867 -0.348047,-0.09492 -0.151172,-0.05625 -0.256641,-0.116016 -0.101953,-0.05977 -0.14414,-0.101953 -0.03867,-0.04219 -0.05977,-0.105469 -0.01758,-0.0668 -0.01758,-0.175781 0,-0.07734 0.007,-0.126563 0.007,-0.05273 0.02109,-0.08437 0.01406,-0.03164 0.03516,-0.04219 0.02109,-0.01406 0.04922,-0.01406 0.04922,0 0.137109,0.05977 0.09141,0.05977 0.232031,0.130078 0.140625,0.07031 0.3375,0.133594 0.200391,0.05977 0.460547,0.05977 0.196875,0 0.358594,-0.05273 0.165234,-0.05273 0.28125,-0.147656 0.119531,-0.09844 0.182812,-0.239063 0.06328,-0.140625 0.06328,-0.319922 0,-0.193359 -0.08789,-0.330468 -0.08789,-0.137131 -0.232029,-0.239084 -0.144141,-0.105469 -0.330469,-0.189844 -0.182812,-0.08789 -0.376172,-0.175781 -0.193359,-0.09141 -0.376172,-0.20039 -0.182812,-0.108985 -0.326953,-0.256641 -0.14414,-0.147656 -0.235547,-0.344531 -0.08789,-0.200391 -0.08789,-0.478125 0,-0.284766 0.101953,-0.50625 0.105469,-0.225 0.288281,-0.376172 0.186328,-0.151172 0.439453,-0.228516 0.256641,-0.08086 0.551953,-0.08086 0.151172,0 0.302344,0.02813 0.154688,0.02461 0.288281,0.07031 0.13711,0.04219 0.242579,0.09844 0.105468,0.05273 0.137109,0.08789 0.03516,0.03164 0.0457,0.05273 0.01055,0.01758 0.01758,0.04922 0.007,0.02813 0.01055,0.07031 0.0035,0.04219 0.0035,0.108985 0,0.06328 -0.007,0.1125 -0.0035,0.04922 -0.01406,0.08437 -0.01055,0.03164 -0.03164,0.04922 -0.01758,0.01406 -0.04219,0.01406 -0.03867,0 -0.123047,-0.04922 -0.08086,-0.04922 -0.200391,-0.108984 -0.119531,-0.06328 -0.284765,-0.1125 -0.161719,-0.05274 -0.365625,-0.05274 -0.189844,0 -0.330469,0.05274 -0.140625,0.04922 -0.232031,0.133593 -0.09141,0.08437 -0.13711,0.200391 -0.0457,0.116016 -0.0457,0.246094 0,0.189844 0.08789,0.326953 0.08789,0.137109 0.232032,0.242578 0.147656,0.105469 0.333984,0.193359 0.186328,0.08789 0.379688,0.179297 0.193359,0.08789 0.379687,0.196875 0.186328,0.105469 0.330469,0.253125 0.147656,0.144141 0.235547,0.344531 0.09141,0.196875 0.09141,0.467579 z m 5.167969,1.142578 q -0.01406,0.04922 -0.04219,0.08086 -0.02813,0.02812 -0.07734,0.0457 -0.04922,0.01406 -0.123047,0.02109 -0.07031,0.007 -0.175782,0.007 -0.108984,0 -0.186328,-0.007 -0.07383,-0.007 -0.123047,-0.02109 -0.04922,-0.01758 -0.07383,-0.0457 -0.02461,-0.03164 -0.03867,-0.08086 l -0.952735,-3.434766 h -0.007 l -0.878906,3.434766 q -0.01055,0.04922 -0.03516,0.08086 -0.02461,0.02812 -0.07031,0.0457 -0.0457,0.01406 -0.119531,0.02109 -0.07031,0.007 -0.182813,0.007 -0.116015,0 -0.193359,-0.007 -0.07734,-0.007 -0.126563,-0.02109 -0.04922,-0.01758 -0.07734,-0.0457 -0.02461,-0.03164 -0.03516,-0.08086 l -1.202373,-4.201172 q -0.02109,-0.08086 -0.02461,-0.126563 0,-0.0457 0.02813,-0.07031 0.03164,-0.02461 0.09844,-0.03164 0.0668,-0.007 0.179296,-0.007 0.108985,0 0.172266,0.007 0.06328,0.0035 0.09492,0.01758 0.03516,0.01406 0.0457,0.03867 0.01406,0.02461 0.02109,0.06328 l 1.023047,3.810938 h 0.0035 l 0.970307,-3.803906 q 0.01055,-0.03867 0.02461,-0.06328 0.01758,-0.02812 0.05273,-0.04219 0.03516,-0.01406 0.09844,-0.02109 0.0668,-0.007 0.172265,-0.007 0.09844,0 0.154688,0.007 0.05977,0.007 0.09492,0.02109 0.03516,0.01406 0.04922,0.04219 0.01758,0.02461 0.02812,0.06328 l 1.04414,3.803906 h 0.007 l 1.001953,-3.807422 q 0.01055,-0.03516 0.02109,-0.05977 0.01055,-0.02812 0.04219,-0.04219 0.03516,-0.01406 0.09492,-0.02109 0.06328,-0.007 0.165234,-0.007 0.105469,0 0.165235,0.01055 0.06328,0.007 0.09141,0.03164 0.02813,0.02461 0.02461,0.07031 0,0.0457 -0.01758,0.126563 z m 2.654297,0.04219 q 0,0.02812 -0.01406,0.04922 -0.01406,0.02109 -0.04922,0.03516 -0.03516,0.01055 -0.09492,0.01758 -0.05625,0.01055 -0.144141,0.01055 -0.08437,0 -0.144141,-0.01055 -0.05977,-0.007 -0.09492,-0.01758 -0.03516,-0.01406 -0.04922,-0.03516 -0.01406,-0.02109 -0.01406,-0.04922 v -4.366409 q 0,-0.02812 0.01406,-0.04922 0.01758,-0.02109 0.05273,-0.03164 0.03867,-0.01406 0.09492,-0.02109 0.05977,-0.01055 0.140625,-0.01055 0.08789,0 0.144141,0.01055 0.05977,0.007 0.09492,0.02109 0.03516,0.01055 0.04922,0.03164 0.01406,0.02109 0.01406,0.04922 z m 6.155859,0 q 0,0.02812 -0.01406,0.04922 -0.01406,0.02109 -0.04922,0.03516 -0.03516,0.01055 -0.09141,0.01758 -0.05273,0.01055 -0.140625,0.01055 -0.08086,0 -0.140625,-0.01055 -0.05625,-0.007 -0.09141,-0.01758 -0.03164,-0.01406 -0.0457,-0.03516 -0.01406,-0.02109 -0.01406,-0.04922 v -3.962109 h -0.007 l -1.620703,3.979687 q -0.01055,0.02461 -0.03164,0.04219 -0.01758,0.01758 -0.05625,0.03164 -0.03516,0.01055 -0.08789,0.01406 -0.04922,0.007 -0.119532,0.007 -0.07383,0 -0.126562,-0.007 -0.05273,-0.007 -0.08789,-0.01758 -0.03516,-0.01406 -0.05625,-0.03164 -0.01758,-0.01758 -0.02461,-0.03867 l -1.550391,-3.979687 h -0.0035 v 3.962109 q 0,0.02812 -0.01406,0.04922 -0.01406,0.02109 -0.04922,0.03516 -0.03516,0.01055 -0.09141,0.01758 -0.05625,0.01055 -0.14414,0.01055 -0.08437,0 -0.140625,-0.01055 -0.05625,-0.007 -0.09141,-0.01758 -0.03164,-0.01406 -0.0457,-0.03516 -0.01055,-0.02109 -0.01055,-0.04922 V 10.49483 q 0,-0.147657 0.07734,-0.210938 0.07734,-0.06328 0.172266,-0.06328 h 0.365625 q 0.1125,0 0.196875,0.02109 0.08438,0.02109 0.147656,0.0668 0.06328,0.0457 0.105469,0.116016 0.04219,0.07031 0.07383,0.165234 l 1.318359,3.294141 h 0.01758 l 1.371094,-3.283594 q 0.03867,-0.105468 0.08438,-0.179297 0.0457,-0.07383 0.09844,-0.116016 0.05625,-0.0457 0.123046,-0.06328 0.0668,-0.02109 0.154688,-0.02109 h 0.383203 q 0.05273,0 0.09844,0.01758 0.04922,0.01406 0.08086,0.04922 0.03516,0.03164 0.05625,0.08438 0.02109,0.04922 0.02109,0.123047 z" fill="#000000" fill-opacity="1" stroke-width="0" stroke="none"/>
        <path id="path46" gorn="0.3.7" style="stroke-dasharray:none;"  stroke-opacity="1" d="m 39.881286,18.039358 q 0,0.0668 -0.007,0.119531 -0.007,0.04922 -0.02109,0.08438 -0.01406,0.03164 -0.03516,0.0457 -0.02109,0.01406 -0.0457,0.01406 -0.04219,0 -0.140625,-0.0668 -0.09844,-0.0668 -0.263672,-0.147657 -0.165234,-0.08086 -0.397265,-0.147656 -0.228516,-0.0668 -0.544922,-0.0668 -0.376172,0 -0.675,0.13711 -0.298828,0.137109 -0.50625,0.379687 -0.207422,0.242578 -0.319922,0.576563 -0.108985,0.333984 -0.108985,0.724218 0,0.435938 0.119532,0.773438 0.123047,0.3375 0.3375,0.569531 0.214453,0.232031 0.509765,0.351563 0.298828,0.119531 0.653907,0.119531 0.210937,0 0.42539,-0.04922 0.217969,-0.05273 0.404297,-0.154687 v -1.325383 h -1.054721 q -0.05977,0 -0.09141,-0.05977 -0.02813,-0.05976 -0.02813,-0.186328 0,-0.0668 0.007,-0.1125 0.007,-0.04922 0.02109,-0.07734 0.01758,-0.03164 0.03867,-0.0457 0.02109,-0.01406 0.05273,-0.01406 h 1.444921 q 0.03867,0 0.07734,0.01406 0.03867,0.01406 0.07031,0.04219 0.03164,0.02812 0.04922,0.07734 0.01758,0.04922 0.01758,0.1125 v 1.733203 q 0,0.09141 -0.03164,0.158203 -0.03164,0.0668 -0.133594,0.119531 -0.101953,0.04922 -0.263672,0.108984 -0.161718,0.05977 -0.333984,0.101953 -0.172266,0.04219 -0.348047,0.06328 -0.175781,0.02109 -0.348047,0.02109 -0.527344,0 -0.942187,-0.161718 -0.41484,-0.165231 -0.703121,-0.467574 -0.284766,-0.302344 -0.435938,-0.724219 -0.151172,-0.421875 -0.151172,-0.942188 0,-0.541406 0.161719,-0.980859 0.165234,-0.439453 0.460547,-0.748828 0.298828,-0.309375 0.713672,-0.478125 0.418359,-0.172266 0.924609,-0.172266 0.260156,0 0.488672,0.0457 0.228516,0.0457 0.404297,0.108985 0.179297,0.05976 0.298828,0.133594 0.123047,0.07031 0.16875,0.116015 0.0457,0.0457 0.06328,0.105469 0.01758,0.05977 0.01758,0.172266 z m 4.563281,3.680859 q 0,0.07031 -0.02461,0.119531 -0.02109,0.04922 -0.05977,0.08086 -0.03516,0.03164 -0.08086,0.0457 -0.0457,0.01406 -0.09141,0.01406 h -0.19336 q -0.09141,0 -0.161718,-0.01758 -0.0668,-0.02109 -0.130078,-0.07031 -0.05977,-0.05273 -0.123047,-0.140625 -0.05977,-0.08789 -0.133594,-0.225 l -1.434375,-2.5875 q -0.1125,-0.200391 -0.228516,-0.41836 -0.1125,-0.221484 -0.210937,-0.428906 h -0.007 q 0.007,0.253125 0.01055,0.516797 0.0035,0.263672 0.0035,0.523828 v 2.745703 q 0,0.02461 -0.01406,0.04922 -0.01406,0.02109 -0.04922,0.03516 -0.03164,0.01055 -0.08789,0.01758 -0.05273,0.01055 -0.137109,0.01055 -0.08437,0 -0.140625,-0.01055 -0.05274,-0.007 -0.08437,-0.01758 -0.03164,-0.01406 -0.0457,-0.03516 -0.01406,-0.02461 -0.01406,-0.04922 v -4.197656 q 0,-0.140625 0.07734,-0.200391 0.07734,-0.05977 0.16875,-0.05977 h 0.288281 q 0.101953,0 0.16875,0.01758 0.07031,0.01758 0.123047,0.05977 0.05625,0.03867 0.105469,0.1125 0.05273,0.07031 0.1125,0.179297 l 1.103906,1.996875 q 0.101953,0.182813 0.196875,0.358594 0.09492,0.172266 0.182813,0.341016 0.08789,0.16875 0.172265,0.333984 0.08789,0.161719 0.172266,0.326953 h 0.0035 q -0.007,-0.277734 -0.01055,-0.576562 0,-0.302344 0,-0.580079 v -2.467968 q 0,-0.02461 0.01406,-0.0457 0.01406,-0.02109 0.0457,-0.03516 0.03516,-0.01758 0.08789,-0.02461 0.05625,-0.007 0.14414,-0.007 0.07734,0 0.133594,0.007 0.05625,0.007 0.08789,0.02461 0.03164,0.01406 0.0457,0.03516 0.01406,0.02109 0.01406,0.0457 z m 4.707422,-2.091797 q 0,0.590625 -0.151172,1.033594 -0.151172,0.439453 -0.442969,0.73125 -0.288281,0.288281 -0.710156,0.432422 -0.421875,0.14414 -1.005469,0.14414 h -0.963281 q -0.08086,0 -0.154687,-0.05273 -0.07031,-0.05625 -0.07031,-0.193359 v -4.057032 q 0,-0.137109 0.07031,-0.189843 0.07383,-0.05625 0.154687,-0.05625 h 1.030078 q 0.590625,0 0.998438,0.154687 0.407812,0.151172 0.682031,0.439453 0.277734,0.284766 0.418359,0.692578 0.144141,0.407813 0.144141,0.921094 z m -0.636328,0.02461 q 0,-0.36914 -0.09141,-0.685546 -0.09141,-0.319922 -0.288282,-0.551954 -0.193359,-0.232031 -0.492187,-0.362109 -0.298828,-0.130078 -0.769922,-0.130078 h -0.615234 v 3.540234 h 0.622265 q 0.435938,0 0.734766,-0.108984 0.298828,-0.108984 0.499219,-0.333984 0.20039,-0.225 0.298828,-0.5625 0.101953,-0.341016 0.101953,-0.805079 z" fill="#000000" fill-opacity="1" stroke-width="0" stroke="none"/>
        <path id="path47" gorn="0.3.8" style="stroke-dasharray:none;"  stroke-opacity="1" d="m 39.030441,27.869045 q 0,0.31289 -0.108984,0.566015 -0.108985,0.24961 -0.312891,0.428907 -0.203906,0.179297 -0.502734,0.277734 -0.298828,0.09492 -0.675,0.09492 -0.228516,0 -0.428906,-0.03867 -0.196875,-0.03516 -0.351563,-0.08438 -0.154687,-0.05273 -0.256641,-0.105469 -0.101953,-0.05625 -0.130078,-0.08086 -0.02461,-0.02461 -0.03867,-0.04922 -0.01406,-0.02461 -0.02461,-0.05976 -0.01055,-0.03516 -0.01758,-0.08438 -0.0035,-0.05273 -0.0035,-0.126563 0,-0.126562 0.02461,-0.175781 0.02461,-0.04922 0.07031,-0.04922 0.03164,0 0.123047,0.05625 0.09492,0.05625 0.239063,0.123047 0.147656,0.06328 0.341015,0.119531 0.196875,0.05625 0.435938,0.05625 0.232031,0 0.407812,-0.05976 0.175781,-0.05977 0.295313,-0.16875 0.119531,-0.108985 0.179297,-0.256641 0.05977,-0.151172 0.05977,-0.326953 0,-0.19336 -0.07734,-0.348047 -0.07383,-0.154688 -0.221484,-0.267188 -0.144141,-0.1125 -0.358594,-0.172265 -0.210937,-0.05977 -0.48164,-0.05977 h -0.432426 q -0.02812,0 -0.05625,-0.01055 -0.02461,-0.01406 -0.0457,-0.04219 -0.01758,-0.02812 -0.03164,-0.07383 -0.01055,-0.0457 -0.01055,-0.119532 0,-0.0668 0.01055,-0.108984 0.01055,-0.0457 0.02813,-0.07031 0.02109,-0.02813 0.0457,-0.03867 0.02461,-0.01406 0.05625,-0.01406 h 0.397265 q 0.232032,0 0.414844,-0.05976 0.186328,-0.05977 0.312891,-0.172266 0.130078,-0.1125 0.196875,-0.267187 0.07031,-0.158204 0.07031,-0.351563 0,-0.140625 -0.0457,-0.267187 -0.0457,-0.130079 -0.13711,-0.225 -0.09141,-0.09492 -0.235547,-0.147657 -0.140625,-0.05625 -0.326953,-0.05625 -0.203906,0 -0.376172,0.06328 -0.16875,0.05976 -0.302344,0.130078 -0.133594,0.07031 -0.221484,0.133593 -0.08789,0.05977 -0.123047,0.05977 -0.02461,0 -0.0457,-0.007 -0.01758,-0.01055 -0.03164,-0.03516 -0.01055,-0.02812 -0.01758,-0.07383 -0.0035,-0.04922 -0.0035,-0.126562 0,-0.05273 0.0035,-0.09141 0.0035,-0.04219 0.01406,-0.07031 0.01055,-0.03164 0.02461,-0.05625 0.01406,-0.02461 0.0457,-0.05625 0.03516,-0.03516 0.137109,-0.09844 0.101953,-0.06328 0.24961,-0.123047 0.151171,-0.06328 0.344531,-0.105469 0.196875,-0.04219 0.421875,-0.04219 0.316406,0 0.555468,0.08086 0.239063,0.08086 0.397266,0.228516 0.161719,0.147656 0.239062,0.355078 0.08086,0.203906 0.08086,0.453515 0,0.214453 -0.05625,0.400782 -0.05625,0.182812 -0.165235,0.326953 -0.108984,0.140625 -0.267187,0.242578 -0.158203,0.09844 -0.365625,0.137109 v 0.007 q 0.235547,0.02461 0.428906,0.119532 0.196875,0.09141 0.3375,0.232031 0.140625,0.140625 0.217969,0.330469 0.08086,0.186328 0.08086,0.400781 z m 1.722656,0.917578 q 0,0.249609 -0.08437,0.333984 -0.08086,0.08086 -0.298828,0.08086 -0.210937,0 -0.291797,-0.08086 -0.08086,-0.08086 -0.08086,-0.323437 0,-0.24961 0.08086,-0.330469 0.08437,-0.08438 0.302344,-0.08438 0.210938,0 0.291797,0.08086 0.08086,0.08086 0.08086,0.323438 z m 3.744141,-0.917578 q 0,0.31289 -0.108984,0.566015 -0.108985,0.24961 -0.312891,0.428907 -0.203906,0.179297 -0.502734,0.277734 -0.298828,0.09492 -0.675,0.09492 -0.228516,0 -0.428907,-0.03867 -0.196875,-0.03516 -0.351562,-0.08438 -0.154688,-0.05273 -0.256641,-0.105469 -0.101953,-0.05625 -0.130078,-0.08086 -0.02461,-0.02461 -0.03867,-0.04922 -0.01406,-0.02461 -0.02461,-0.05976 -0.01055,-0.03516 -0.01758,-0.08438 -0.0035,-0.05273 -0.0035,-0.126563 0,-0.126562 0.02461,-0.175781 0.02461,-0.04922 0.07031,-0.04922 0.03164,0 0.123047,0.05625 0.09492,0.05625 0.239062,0.123047 0.147657,0.06328 0.341016,0.119531 0.196875,0.05625 0.435938,0.05625 0.232031,0 0.407812,-0.05976 0.175781,-0.05977 0.295313,-0.16875 0.119531,-0.108985 0.179296,-0.256641 0.05977,-0.151172 0.05977,-0.326953 0,-0.19336 -0.07734,-0.348047 -0.07383,-0.154688 -0.221484,-0.267188 -0.144141,-0.1125 -0.358594,-0.172265 -0.210937,-0.05977 -0.48164,-0.05977 h -0.432422 q -0.02812,0 -0.05625,-0.01055 -0.02461,-0.01406 -0.0457,-0.04219 -0.01758,-0.02812 -0.03164,-0.07383 -0.01055,-0.0457 -0.01055,-0.119532 0,-0.0668 0.01055,-0.108984 0.01055,-0.0457 0.02813,-0.07031 0.02109,-0.02813 0.0457,-0.03867 0.02461,-0.01406 0.05625,-0.01406 h 0.397266 q 0.232031,0 0.414843,-0.05976 0.186329,-0.05977 0.312891,-0.172266 0.130078,-0.1125 0.196875,-0.267187 0.07031,-0.158204 0.07031,-0.351563 0,-0.140625 -0.0457,-0.267187 -0.0457,-0.130079 -0.137109,-0.225 -0.09141,-0.09492 -0.235547,-0.147657 -0.140625,-0.05625 -0.326953,-0.05625 -0.203906,0 -0.376172,0.06328 -0.16875,0.05976 -0.302344,0.130078 -0.133593,0.07031 -0.221484,0.133593 -0.08789,0.05977 -0.123047,0.05977 -0.02461,0 -0.0457,-0.007 -0.01758,-0.01055 -0.03164,-0.03516 -0.01055,-0.02812 -0.01758,-0.07383 -0.0035,-0.04922 -0.0035,-0.126562 0,-0.05273 0.0035,-0.09141 0.0035,-0.04219 0.01406,-0.07031 0.01055,-0.03164 0.02461,-0.05625 0.01406,-0.02461 0.0457,-0.05625 0.03516,-0.03516 0.13711,-0.09844 0.101953,-0.06328 0.249609,-0.123047 0.151172,-0.06328 0.344531,-0.105469 0.196875,-0.04219 0.421875,-0.04219 0.316407,0 0.555469,0.08086 0.239063,0.08086 0.397266,0.228516 0.161718,0.147656 0.239062,0.355078 0.08086,0.203906 0.08086,0.453515 0,0.214453 -0.05625,0.400782 -0.05625,0.182812 -0.165235,0.326953 -0.108984,0.140625 -0.267187,0.242578 -0.158203,0.09844 -0.365625,0.137109 v 0.007 q 0.235547,0.02461 0.428906,0.119532 0.196875,0.09141 0.3375,0.232031 0.140625,0.140625 0.217969,0.330469 0.08086,0.186328 0.08086,0.400781 z m 3.568359,-1.958203 q 0,0.01406 -0.0035,0.03164 0,0.01406 -0.0035,0.03164 -0.0035,0.01758 -0.01055,0.03867 -0.0035,0.02109 -0.01055,0.0457 L 46.9582,29.064351 q -0.01406,0.03867 -0.03867,0.06328 -0.02109,0.02461 -0.0668,0.03867 -0.0457,0.01406 -0.116016,0.01758 -0.07031,0.007 -0.175781,0.007 -0.105469,0 -0.175781,-0.007 -0.07031,-0.007 -0.116016,-0.02109 -0.04219,-0.01406 -0.0668,-0.03867 -0.02461,-0.02461 -0.03867,-0.05977 l -1.075803,-3.005853 q -0.01406,-0.04219 -0.02461,-0.07383 -0.007,-0.03164 -0.01055,-0.0457 0,-0.01758 0,-0.02812 0,-0.02812 0.01406,-0.04922 0.01406,-0.02109 0.0457,-0.03164 0.03516,-0.01406 0.08789,-0.01758 0.05625,-0.0035 0.137109,-0.0035 0.101953,0 0.161719,0.007 0.06328,0.0035 0.09492,0.01758 0.03516,0.01406 0.04922,0.03516 0.01758,0.02109 0.03164,0.05273 l 0.892969,2.608593 0.01406,0.04219 0.01055,-0.04219 0.882422,-2.608593 q 0.007,-0.03164 0.02461,-0.05273 0.01758,-0.02109 0.04922,-0.03516 0.03516,-0.01406 0.09141,-0.01758 0.05976,-0.007 0.154687,-0.007 0.08086,0 0.133594,0.0035 0.05273,0.0035 0.08086,0.01758 0.03164,0.01406 0.04219,0.03516 0.01406,0.01758 0.01406,0.0457 z" fill="#000000" fill-opacity="1" stroke-width="0" stroke="none"/>
        <path id="path48" gorn="0.3.9" style="stroke-dasharray:none;"  stroke-opacity="1" d="m 39.051537,34.907326 q 0,0.365625 -0.123047,0.650391 -0.123047,0.284765 -0.348047,0.48164 -0.225,0.193359 -0.537891,0.295313 -0.309375,0.101953 -0.689062,0.101953 -0.210938,0 -0.400781,-0.03164 -0.189844,-0.02813 -0.3375,-0.07031 -0.147657,-0.0457 -0.242579,-0.08789 -0.09492,-0.04219 -0.123046,-0.0668 -0.02461,-0.02461 -0.03516,-0.0457 -0.01055,-0.02109 -0.02109,-0.04922 -0.007,-0.03164 -0.01055,-0.07734 -0.0035,-0.0457 -0.0035,-0.108985 0,-0.05976 0.0035,-0.105469 0.007,-0.04922 0.02109,-0.07734 0.01406,-0.03164 0.03164,-0.0457 0.02109,-0.01406 0.0457,-0.01406 0.03516,0 0.108984,0.0457 0.07383,0.04219 0.196875,0.09492 0.126562,0.04922 0.309375,0.09492 0.186328,0.0457 0.439453,0.0457 0.235547,0 0.432422,-0.05625 0.196875,-0.05625 0.3375,-0.175781 0.14414,-0.119531 0.225,-0.298828 0.08086,-0.182813 0.08086,-0.442969 0,-0.217969 -0.07031,-0.383203 -0.0668,-0.16875 -0.210937,-0.277735 -0.140625,-0.1125 -0.358593,-0.165234 -0.217969,-0.05625 -0.520313,-0.05625 -0.214453,0 -0.369141,0.02109 -0.154687,0.02109 -0.288281,0.02109 -0.09844,0 -0.140625,-0.0457 -0.04219,-0.0457 -0.04219,-0.175781 v -1.852734 q 0,-0.116016 0.05273,-0.172266 0.05625,-0.05625 0.158203,-0.05625 h 2.014454 q 0.02812,0 0.05273,0.01758 0.02813,0.01406 0.0457,0.0457 0.01758,0.03164 0.02461,0.08086 0.01055,0.04922 0.01055,0.116015 0,0.126563 -0.03516,0.196875 -0.03516,0.07031 -0.09844,0.07031 h -1.698024 v 1.276172 q 0.123047,-0.01758 0.249609,-0.02109 0.130079,-0.0035 0.298829,-0.0035 0.390234,0 0.682031,0.09492 0.291797,0.09141 0.485156,0.263672 0.196875,0.16875 0.295313,0.411328 0.101953,0.242578 0.101953,0.537891 z m 1.708593,1.079297 q 0,0.249609 -0.08437,0.333984 -0.08086,0.08086 -0.298828,0.08086 -0.210937,0 -0.291797,-0.08086 -0.08086,-0.08086 -0.08086,-0.323437 0,-0.24961 0.08086,-0.330469 0.08437,-0.08438 0.302344,-0.08438 0.210938,0 0.291797,0.08086 0.08086,0.08086 0.08086,0.323438 z m 3.930469,-1.901953 q 0,0.523828 -0.08438,0.95625 -0.08086,0.432422 -0.274219,0.745312 -0.189843,0.309375 -0.499218,0.481641 -0.309375,0.16875 -0.762891,0.16875 -0.428906,0 -0.724219,-0.151172 -0.291797,-0.154688 -0.471093,-0.45 -0.179297,-0.298828 -0.256641,-0.73125 -0.07383,-0.435938 -0.07383,-0.998438 0,-0.520312 0.08437,-0.952734 0.08437,-0.435937 0.274219,-0.745312 0.189843,-0.312891 0.499218,-0.481641 0.309375,-0.172266 0.759375,-0.172266 0.432422,0 0.724219,0.154688 0.295313,0.151172 0.474609,0.45 0.179297,0.295312 0.253125,0.73125 0.07734,0.432422 0.07734,0.994922 z m -0.61875,0.04219 q 0,-0.341015 -0.02461,-0.611719 -0.02461,-0.270703 -0.07383,-0.478125 -0.0457,-0.207421 -0.123047,-0.355078 -0.07383,-0.151172 -0.179297,-0.246093 -0.105469,-0.09844 -0.242578,-0.140625 -0.133594,-0.0457 -0.302344,-0.0457 -0.298828,0 -0.485156,0.140625 -0.186328,0.140625 -0.295313,0.386719 -0.105468,0.246094 -0.14414,0.576563 -0.03867,0.330468 -0.03867,0.710156 0,0.509766 0.05273,0.868359 0.05274,0.355078 0.165235,0.580078 0.116015,0.225 0.291796,0.326954 0.179297,0.101953 0.432422,0.101953 0.196875,0 0.344532,-0.06328 0.151171,-0.06328 0.25664,-0.179296 0.108985,-0.119532 0.179297,-0.284766 0.07031,-0.165234 0.1125,-0.365625 0.04219,-0.200391 0.05625,-0.432422 0.01758,-0.235547 0.01758,-0.488672 z m 4.000781,-1.016015 q 0,0.01406 -0.0035,0.03164 0,0.01406 -0.0035,0.03164 -0.0035,0.01758 -0.01055,0.03867 -0.0035,0.02109 -0.01055,0.0457 l -1.079297,3.005859 q -0.01406,0.03867 -0.03867,0.06328 -0.02109,0.02461 -0.0668,0.03867 -0.0457,0.01406 -0.116016,0.01758 -0.07031,0.007 -0.175781,0.007 -0.105469,0 -0.175781,-0.007 -0.07031,-0.007 -0.116016,-0.02109 -0.04219,-0.01406 -0.0668,-0.03867 -0.02461,-0.02461 -0.03867,-0.05977 l -1.075803,-3.005856 q -0.01406,-0.04219 -0.02461,-0.07383 -0.007,-0.03164 -0.01055,-0.0457 0,-0.01758 0,-0.02812 0,-0.02813 0.01406,-0.04922 0.01406,-0.02109 0.0457,-0.03164 0.03516,-0.01406 0.08789,-0.01758 0.05625,-0.0035 0.137109,-0.0035 0.101953,0 0.161719,0.007 0.06328,0.0035 0.09492,0.01758 0.03516,0.01406 0.04922,0.03516 0.01758,0.02109 0.03164,0.05273 l 0.892969,2.608594 0.01406,0.04219 0.01055,-0.04219 0.882422,-2.608594 q 0.007,-0.03164 0.02461,-0.05273 0.01758,-0.02109 0.04922,-0.03516 0.03516,-0.01406 0.09141,-0.01758 0.05976,-0.007 0.154687,-0.007 0.08086,0 0.133594,0.0035 0.05273,0.0035 0.08086,0.01758 0.03164,0.01406 0.04219,0.03516 0.01406,0.01758 0.01406,0.0457 z" fill="#000000" fill-opacity="1" stroke-width="0" stroke="none"/>
        <path id="path49" gorn="0.3.10" style="stroke-dasharray:none;"  stroke-opacity="1" d="m 3.1567082,5.7448361 q 0,0.3199219 -0.119532,0.5695313 -0.116015,0.2496093 -0.326953,0.4253906 -0.207422,0.1722656 -0.492187,0.2601562 -0.28125,0.087891 -0.608203,0.087891 -0.228516,0 -0.425391,-0.038672 -0.19335899,-0.038672 -0.34804699,-0.094922 -0.151172,-0.05625 -0.25664,-0.1160156 -0.101954,-0.059766 -0.144141,-0.1019531 -0.03867,-0.042187 -0.05977,-0.1054688 -0.01758,-0.066797 -0.01758,-0.1757812 0,-0.077344 0.007,-0.1265625 0.007,-0.052734 0.02109,-0.084375 0.01406,-0.031641 0.03516,-0.042187 0.02109,-0.014063 0.04922,-0.014063 0.04922,0 0.13711,0.059766 0.09141,0.059766 0.232031,0.1300781 0.140625,0.070312 0.33749999,0.1335938 0.20039,0.059766 0.460547,0.059766 0.196875,0 0.358593,-0.052734 0.165235,-0.052734 0.28125,-0.1476562 0.119532,-0.098438 0.182813,-0.2390625 0.06328,-0.140625 0.06328,-0.3199219 0,-0.1933594 -0.08789,-0.3304687 Q 2.3481142,5.3440549 2.2039732,5.2421018 2.0598332,5.136633 1.8735052,5.052258 1.6906922,4.9643674 1.4973332,4.8764768 1.3039732,4.7850705 1.1211612,4.6760862 0.93834821,4.5671018 0.79420821,4.4194455 q -0.144141,-0.1476562 -0.235547,-0.3445312 -0.08789,-0.2003906 -0.08789,-0.478125 0,-0.2847656 0.101953,-0.50625 0.105469,-0.225 0.288282,-0.3761718 0.18632799,-0.1511719 0.43945299,-0.2285156 0.25664,-0.080859 0.551953,-0.080859 0.151172,0 0.302344,0.028125 0.154687,0.024609 0.288281,0.070312 0.137109,0.042187 0.242578,0.098437 0.105469,0.052734 0.137109,0.087891 0.03516,0.031641 0.0457,0.052734 0.01055,0.017578 0.01758,0.049219 0.007,0.028125 0.01055,0.070312 0.0035,0.042188 0.0035,0.1089844 0,0.063281 -0.007,0.1125 -0.0035,0.049219 -0.01406,0.084375 -0.01055,0.031641 -0.03164,0.049219 -0.01758,0.014063 -0.04219,0.014063 -0.03867,0 -0.123047,-0.049219 -0.08086,-0.049219 -0.20039,-0.1089844 -0.119532,-0.063281 -0.284766,-0.1125 -0.161719,-0.052734 -0.365625,-0.052734 -0.189844,0 -0.330469,0.052734 -0.140625,0.049219 -0.232031,0.1335938 -0.09141,0.084375 -0.137109,0.2003906 -0.0457,0.1160156 -0.0457,0.2460937 0,0.1898438 0.08789,0.3269531 0.08789,0.1371094 0.232031,0.2425782 0.147657,0.1054687 0.333985,0.1933593 0.186328,0.087891 0.379687,0.1792969 0.19336,0.087891 0.379688,0.196875 0.186328,0.1054687 0.330469,0.253125 0.147656,0.1441406 0.235546,0.3445312 0.09141,0.196875 0.09141,0.4675781 z m 5.167968,1.1425781 q -0.01406,0.049219 -0.04219,0.080859 -0.02813,0.028125 -0.07734,0.045703 -0.04922,0.014063 -0.123047,0.021094 -0.07031,0.00703 -0.175781,0.00703 -0.108985,0 -0.186328,-0.00703 -0.07383,-0.00703 -0.123047,-0.021094 -0.04922,-0.017578 -0.07383,-0.045703 -0.02461,-0.031641 -0.03867,-0.080859 L 6.5317072,3.4526487 h -0.007 l -0.878937,3.4347655 q -0.01055,0.049219 -0.03516,0.080859 -0.02461,0.028125 -0.07031,0.045703 -0.0457,0.014063 -0.119531,0.021094 -0.07031,0.00703 -0.182812,0.00703 -0.116016,0 -0.19336,-0.00703 -0.07734,-0.00703 -0.126562,-0.021094 -0.04922,-0.017578 -0.07734,-0.045703 -0.02461,-0.031641 -0.03516,-0.080859 L 3.6031922,2.6862425 q -0.02109,-0.080859 -0.02461,-0.1265625 0,-0.045703 0.02813,-0.070312 0.03164,-0.024609 0.09844,-0.031641 0.0668,-0.00703 0.179297,-0.00703 0.108984,0 0.172266,0.00703 0.06328,0.00352 0.09492,0.017578 0.03516,0.014063 0.0457,0.038672 0.01406,0.024609 0.02109,0.063281 l 1.023047,3.8109374 h 0.0035 l 0.970329,-3.8039061 q 0.01055,-0.038672 0.02461,-0.063281 0.01758,-0.028125 0.05273,-0.042187 0.03516,-0.014063 0.09844,-0.021094 0.0668,-0.00703 0.172266,-0.00703 0.09844,0 0.154688,0.00703 0.05976,0.00703 0.09492,0.021094 0.03516,0.014063 0.04922,0.042187 0.01758,0.024609 0.02813,0.063281 l 1.044141,3.8039062 h 0.007 l 1.001953,-3.8074218 q 0.01055,-0.035156 0.02109,-0.059766 0.01055,-0.028125 0.04219,-0.042187 0.03516,-0.014063 0.09492,-0.021094 0.06328,-0.00703 0.165235,-0.00703 0.105468,0 0.165234,0.010547 0.06328,0.00703 0.09141,0.031641 0.02813,0.024609 0.02461,0.070312 0,0.045703 -0.01758,0.1265625 z M 13.334442,6.3776486 q 0,0.05625 -0.0035,0.098438 -0.0035,0.042187 -0.01406,0.073828 -0.007,0.031641 -0.02109,0.05625 -0.01406,0.024609 -0.04922,0.059766 -0.03516,0.035156 -0.147656,0.1089843 -0.1125,0.070312 -0.28125,0.140625 -0.165235,0.066797 -0.383203,0.1125 -0.214453,0.049219 -0.471094,0.049219 -0.442969,0 -0.801563,-0.1476563 Q 10.806707,6.7819455 10.553582,6.4936642 10.303973,6.205383 10.166864,5.783508 10.03327,5.3581174 10.03327,4.8061643 q 0,-0.5660156 0.14414,-1.0089844 0.147657,-0.4429687 0.411329,-0.7488281 0.263671,-0.309375 0.629296,-0.4710937 0.369141,-0.1617187 0.815625,-0.1617187 0.196875,0 0.383204,0.038672 0.186328,0.035156 0.344531,0.091406 0.158203,0.05625 0.28125,0.1300781 0.123047,0.073828 0.16875,0.1230469 0.04922,0.045703 0.06328,0.070312 0.01406,0.024609 0.02109,0.059766 0.01055,0.031641 0.01406,0.077344 0.007,0.045703 0.007,0.1089844 0,0.070312 -0.007,0.1195313 -0.007,0.049219 -0.02109,0.084375 -0.01406,0.031641 -0.03516,0.049219 -0.01758,0.014063 -0.0457,0.014063 -0.04922,0 -0.137109,-0.066797 -0.08789,-0.070312 -0.228516,-0.1511718 -0.137109,-0.084375 -0.3375,-0.1511719 -0.196875,-0.070312 -0.474609,-0.070312 -0.302344,0 -0.551953,0.1230469 -0.246094,0.1195312 -0.421875,0.3550781 -0.175782,0.2355468 -0.274219,0.5765625 -0.09492,0.3375 -0.09492,0.7734374 0,0.4324219 0.09141,0.7664063 0.09492,0.3304687 0.267188,0.5554687 0.175781,0.2214844 0.428906,0.3375 0.253125,0.1125 0.573047,0.1125 0.270703,0 0.471094,-0.066797 0.203906,-0.066797 0.344531,-0.1476562 0.14414,-0.084375 0.235547,-0.1511719 0.09141,-0.066797 0.14414,-0.066797 0.02461,0 0.04219,0.010547 0.01758,0.010547 0.02813,0.042188 0.01055,0.028125 0.01406,0.080859 0.007,0.052734 0.007,0.1335937 z m 3.160547,0.3796875 q 0,0.070312 -0.007,0.1195313 -0.007,0.045703 -0.02461,0.080859 -0.01406,0.031641 -0.03867,0.049219 -0.02109,0.014062 -0.05273,0.014062 h -2.010938 q -0.08086,0 -0.154687,-0.052734 -0.07031,-0.05625 -0.07031,-0.1933594 V 2.5631956 q 0,-0.028125 0.01406,-0.049219 0.01406,-0.021094 0.04922,-0.031641 0.03516,-0.014063 0.09492,-0.021094 0.05976,-0.010547 0.14414,-0.010547 0.08789,0 0.144141,0.010547 0.05977,0.00703 0.09492,0.021094 0.03516,0.010547 0.04922,0.031641 0.01406,0.021094 0.01406,0.049219 v 3.9339843 h 1.63125 q 0.03164,0 0.05273,0.017578 0.02461,0.014062 0.03867,0.045703 0.01758,0.028125 0.02461,0.077344 0.007,0.049219 0.007,0.1195312 z m 3.635157,0.1652344 q 0,0.028125 -0.01406,0.052734 -0.01055,0.021094 -0.0457,0.035156 -0.03516,0.014063 -0.09492,0.021094 -0.05977,0.010547 -0.154687,0.010547 -0.123047,0 -0.200391,-0.010547 -0.07734,-0.010547 -0.116016,-0.038672 -0.03867,-0.028125 -0.06328,-0.063281 L 17.767646,4.6549924 v 2.2746093 q 0,0.024609 -0.01406,0.049219 -0.01406,0.021094 -0.04922,0.035156 -0.03516,0.010547 -0.09492,0.017578 -0.05625,0.010547 -0.14414,0.010547 -0.08438,0 -0.144141,-0.010547 -0.05976,-0.00703 -0.09492,-0.017578 -0.03516,-0.014062 -0.04922,-0.035156 -0.01406,-0.024609 -0.01406,-0.049219 V 2.5631956 q 0,-0.028125 0.01406,-0.049219 0.01406,-0.021094 0.04922,-0.031641 0.03516,-0.014063 0.09492,-0.021094 0.05977,-0.010547 0.144141,-0.010547 0.08789,0 0.14414,0.010547 0.05977,0.00703 0.09492,0.021094 0.03516,0.010547 0.04922,0.031641 0.01406,0.021094 0.01406,0.049219 v 2.0214843 l 1.610156,-2.0214843 q 0.02109,-0.031641 0.04922,-0.052734 0.02813,-0.021094 0.0668,-0.031641 0.04219,-0.014063 0.09844,-0.021094 0.05977,-0.00703 0.151172,-0.00703 0.09141,0 0.147656,0.010547 0.05625,0.00703 0.08789,0.021094 0.03516,0.014062 0.0457,0.035156 0.01406,0.021094 0.01406,0.045703 0,0.045703 -0.02461,0.091406 -0.02109,0.045703 -0.08437,0.1265625 l -1.508203,1.8035156 1.624219,2.1585937 q 0.05977,0.091406 0.07031,0.1265625 0.01406,0.031641 0.01406,0.052734 z" fill="#000000" fill-opacity="1" stroke-width="0" stroke="none"/>
        <path id="path50" gorn="0.3.11" style="stroke-dasharray:none;"  stroke-opacity="1" d="m 2.8578812,12.944836 q 0,0.319922 -0.119532,0.569531 -0.116015,0.249609 -0.326953,0.42539 -0.207422,0.172266 -0.492187,0.260157 -0.28125,0.08789 -0.608203,0.08789 -0.228516,0 -0.42539099,-0.03867 -0.193359,-0.03867 -0.348047,-0.09492 -0.151172,-0.05625 -0.25664,-0.116016 -0.101954,-0.05977 -0.144141,-0.101953 -0.03867,-0.04219 -0.05977,-0.105469 -0.01758,-0.0668 -0.01758,-0.175781 0,-0.07734 0.007,-0.126563 0.007,-0.05273 0.02109,-0.08437 0.01406,-0.03164 0.03516,-0.04219 0.02109,-0.01406 0.04922,-0.01406 0.04922,0 0.13711,0.05977 0.09141,0.05977 0.232031,0.130078 0.140625,0.07031 0.3375,0.133594 0.20038999,0.05977 0.46054699,0.05977 0.196875,0 0.358593,-0.05273 0.165235,-0.05273 0.28125,-0.147656 0.119532,-0.09844 0.182813,-0.239063 0.06328,-0.140625 0.06328,-0.319921 0,-0.19336 -0.08789,-0.330469 -0.08789,-0.13711 -0.232032,-0.239063 -0.14414,-0.105468 -0.330468,-0.189843 -0.182813,-0.08789 -0.376172,-0.175782 -0.19336,-0.09141 -0.37617199,-0.20039 -0.182813,-0.108985 -0.326953,-0.256641 -0.144141,-0.147656 -0.235547,-0.344531 -0.08789,-0.200391 -0.08789,-0.478125 0,-0.284766 0.101953,-0.50625 0.105469,-0.225 0.288282,-0.3761717 0.186328,-0.1511719 0.43945299,-0.2285156 0.25664,-0.080859 0.551953,-0.080859 0.151172,0 0.302344,0.028125 0.154687,0.024609 0.288281,0.070312 0.137109,0.042188 0.242578,0.098438 0.105469,0.052734 0.137109,0.087891 0.03516,0.03164 0.0457,0.05273 0.01055,0.01758 0.01758,0.04922 0.007,0.02813 0.01055,0.07031 0.0035,0.04219 0.0035,0.108985 0,0.06328 -0.007,0.1125 -0.0035,0.04922 -0.01406,0.08437 -0.01055,0.03164 -0.03164,0.04922 -0.01758,0.01406 -0.04219,0.01406 -0.03867,0 -0.123047,-0.04922 -0.08086,-0.04922 -0.20039,-0.108984 -0.119532,-0.06328 -0.284766,-0.1125 -0.161719,-0.05274 -0.365625,-0.05274 -0.189844,0 -0.330469,0.05274 -0.140625,0.04922 -0.23203099,0.133593 -0.09141,0.08437 -0.137109,0.200391 -0.0457,0.116016 -0.0457,0.246094 0,0.189844 0.08789,0.326953 0.08789,0.137109 0.23203099,0.242578 0.147657,0.105469 0.333985,0.193359 0.186328,0.08789 0.379687,0.179297 0.19336,0.08789 0.379688,0.196875 0.186328,0.105469 0.330469,0.253125 0.147656,0.144141 0.235546,0.344532 0.09141,0.196875 0.09141,0.467578 z m 5.167968,1.142578 q -0.01406,0.04922 -0.04219,0.08086 -0.02813,0.02812 -0.07734,0.0457 -0.04922,0.01406 -0.123047,0.02109 -0.07031,0.007 -0.175781,0.007 -0.108985,0 -0.186328,-0.007 -0.07383,-0.007 -0.123047,-0.02109 -0.04922,-0.01758 -0.07383,-0.0457 -0.02461,-0.03164 -0.03867,-0.08086 l -0.952735,-3.434766 h -0.007 l -0.878906,3.434766 q -0.01055,0.04922 -0.03516,0.08086 -0.02461,0.02812 -0.07031,0.0457 -0.0457,0.01406 -0.119531,0.02109 -0.07031,0.007 -0.182812,0.007 -0.116016,0 -0.19336,-0.007 -0.07734,-0.007 -0.126562,-0.02109 -0.04922,-0.01758 -0.07734,-0.0457 -0.02461,-0.03164 -0.03516,-0.08086 L 3.3043962,9.8862423 q -0.02109,-0.080859 -0.02461,-0.1265625 0,-0.045703 0.02813,-0.070312 0.03164,-0.024609 0.09844,-0.031641 0.0668,-0.00703 0.179297,-0.00703 0.108984,0 0.172266,0.00703 0.06328,0.00352 0.09492,0.017578 0.03516,0.014062 0.0457,0.038672 0.01406,0.024609 0.02109,0.063281 l 1.023047,3.8109372 h 0.0035 l 0.970312,-3.8039059 q 0.01055,-0.038672 0.02461,-0.063281 0.01758,-0.028125 0.05273,-0.042188 0.03516,-0.014062 0.09844,-0.021094 0.0668,-0.00703 0.172266,-0.00703 0.09844,0 0.154688,0.00703 0.05976,0.00703 0.09492,0.021094 0.03516,0.014062 0.04922,0.042188 0.01758,0.024609 0.02813,0.063281 l 1.044141,3.8039059 h 0.007 l 1.001953,-3.8074216 q 0.01055,-0.035156 0.02109,-0.059766 0.01055,-0.028125 0.04219,-0.042188 0.03516,-0.014062 0.09492,-0.021094 0.06328,-0.00703 0.165235,-0.00703 0.105468,0 0.165234,0.010547 0.06328,0.00703 0.09141,0.031641 0.02813,0.024609 0.02461,0.070312 0,0.045703 -0.01758,0.1265629 z m 5.5476558,-2.207813 q 0,0.590625 -0.151171,1.033594 -0.151172,0.439453 -0.442969,0.73125 -0.288281,0.288281 -0.710156,0.432422 -0.421875,0.14414 -1.005469,0.14414 h -0.963281 q -0.08086,0 -0.154688,-0.05273 -0.07031,-0.05625 -0.07031,-0.193359 V 9.9178873 q 0,-0.1371098 0.07031,-0.1898441 0.07383,-0.05625 0.154688,-0.05625 h 1.030078 q 0.590625,0 0.998437,0.1546875 0.407813,0.1511716 0.682031,0.4394523 0.277735,0.284766 0.41836,0.692579 0.14414,0.407812 0.14414,0.921093 z m -0.636328,0.02461 q 0,-0.369141 -0.09141,-0.685547 -0.09141,-0.319922 -0.288281,-0.551953 -0.19336,-0.232032 -0.492188,-0.36211 -0.298828,-0.130078 -0.769922,-0.130078 h -0.615234 v 3.540235 h 0.622266 q 0.435937,0 0.734765,-0.108985 0.298828,-0.108984 0.499219,-0.333984 0.200391,-0.225 0.298828,-0.5625 0.101953,-0.341016 0.101953,-0.805078 z m 2.172657,2.22539 q 0,0.02812 -0.01406,0.04922 -0.01406,0.02109 -0.04922,0.03516 -0.03516,0.01055 -0.09492,0.01758 -0.05625,0.01055 -0.14414,0.01055 -0.08438,0 -0.144141,-0.01055 -0.05976,-0.007 -0.09492,-0.01758 -0.03516,-0.01406 -0.04922,-0.03516 -0.01406,-0.02109 -0.01406,-0.04922 V 9.7631954 q 0,-0.028125 0.01406,-0.049219 0.01758,-0.021094 0.05273,-0.031641 0.03867,-0.014062 0.09492,-0.021094 0.05977,-0.010547 0.140625,-0.010547 0.08789,0 0.14414,0.010547 0.05977,0.00703 0.09492,0.021094 0.03516,0.010547 0.04922,0.031641 0.01406,0.021094 0.01406,0.049219 z m 5.020312,-2.235937 q 0,0.551953 -0.130078,0.994922 -0.130079,0.442968 -0.390235,0.755859 -0.25664,0.309375 -0.646875,0.478125 -0.390234,0.165234 -0.910547,0.165234 -0.513281,0 -0.889453,-0.151172 -0.372656,-0.154687 -0.61875,-0.446484 -0.242578,-0.291797 -0.362109,-0.724219 -0.119531,-0.432421 -0.119531,-0.994921 0,-0.537891 0.130078,-0.977344 0.130078,-0.439453 0.390234,-0.745313 0.260156,-0.3093747 0.650391,-0.4746087 0.390234,-0.16875 0.910547,-0.16875 0.502734,0 0.87539,0.1511719 0.372656,0.1511721 0.61875,0.4429688 0.24961,0.288281 0.369141,0.717187 0.123047,0.425391 0.123047,0.977344 z m -0.636328,0.04219 q 0,-0.386718 -0.07031,-0.717187 -0.0668,-0.333985 -0.228516,-0.576563 -0.158203,-0.246093 -0.42539,-0.383203 -0.267188,-0.137109 -0.660938,-0.137109 -0.39375,0 -0.660937,0.147656 -0.267188,0.147656 -0.435938,0.39375 -0.165234,0.246094 -0.239062,0.576563 -0.07031,0.326953 -0.07031,0.689062 0,0.400781 0.0668,0.738281 0.0668,0.3375 0.225,0.583594 0.158203,0.242578 0.421875,0.379688 0.267188,0.133593 0.667969,0.133593 0.397266,0 0.667969,-0.147656 0.270703,-0.147656 0.435937,-0.397266 0.165235,-0.253125 0.235547,-0.583593 0.07031,-0.330469 0.07031,-0.69961 z" fill="#000000" fill-opacity="1" stroke-width="0" stroke="none"/>
        <path id="path51" gorn="0.3.12" style="stroke-dasharray:none;"  stroke-opacity="1" d="m 10.859444,17.490539 q 0,0.0668 -0.007,0.119531 -0.007,0.04922 -0.02109,0.08437 -0.01406,0.03164 -0.03516,0.0457 -0.02109,0.01406 -0.0457,0.01406 -0.04219,0 -0.140625,-0.0668 -0.09844,-0.0668 -0.263672,-0.147657 -0.165234,-0.08086 -0.3972648,-0.147656 -0.228516,-0.0668 -0.544922,-0.0668 -0.376172,0 -0.675,0.13711 -0.298828,0.137109 -0.50625,0.379687 -0.207422,0.242578 -0.319922,0.576563 -0.108984,0.333984 -0.108984,0.724218 0,0.435938 0.119531,0.773438 0.123047,0.3375 0.3375,0.569531 0.214453,0.232031 0.509766,0.351563 0.298828,0.119531 0.653906,0.119531 0.210937,0 0.425391,-0.04922 0.2179678,-0.05273 0.4042958,-0.154687 V 19.42763 H 9.1895572 q -0.05977,0 -0.09141,-0.05977 -0.02813,-0.05976 -0.02813,-0.186328 0,-0.0668 0.007,-0.1125 0.007,-0.04922 0.02109,-0.07734 0.01758,-0.03164 0.03867,-0.0457 0.02109,-0.01406 0.05273,-0.01406 h 1.4449218 q 0.03867,0 0.07734,0.01406 0.03867,0.01406 0.07031,0.04219 0.03164,0.02813 0.04922,0.07734 0.01758,0.04922 0.01758,0.1125 v 1.733203 q 0,0.09141 -0.03164,0.158203 -0.03164,0.0668 -0.133594,0.119531 -0.101953,0.04922 -0.263671,0.108984 -0.161719,0.05977 -0.333985,0.101954 -0.1722648,0.04219 -0.3480468,0.06328 -0.175781,0.02109 -0.348046,0.02109 -0.527344,0 -0.942188,-0.161719 -0.414844,-0.165235 -0.703125,-0.467578 -0.284766,-0.302344 -0.435937,-0.724219 -0.151172,-0.421875 -0.151172,-0.942188 0,-0.541406 0.161718,-0.980859 0.165235,-0.439453 0.460547,-0.748828 0.298828,-0.309375 0.713672,-0.478125 0.41836,-0.172266 0.92461,-0.172266 0.260156,0 0.488671,0.0457 0.2285158,0.0457 0.4042968,0.108984 0.179297,0.05977 0.298828,0.133594 0.123047,0.07031 0.16875,0.116015 0.0457,0.0457 0.06328,0.105469 0.01758,0.05977 0.01758,0.172266 z m 4.563281,3.680859 q 0,0.07031 -0.02461,0.119531 -0.02109,0.04922 -0.05977,0.08086 -0.03516,0.03164 -0.08086,0.0457 -0.0457,0.01406 -0.09141,0.01406 h -0.193359 q -0.09141,0 -0.161719,-0.01758 -0.0668,-0.02109 -0.130078,-0.07031 -0.05977,-0.05274 -0.123047,-0.140625 -0.05977,-0.08789 -0.133594,-0.225 l -1.434375,-2.5875 q -0.1125,-0.200391 -0.228515,-0.41836 -0.1125,-0.221484 -0.210938,-0.428906 h -0.007 q 0.007,0.253125 0.01055,0.516797 0.0035,0.263672 0.0035,0.523828 v 2.745703 q 0,0.02461 -0.01406,0.04922 -0.01406,0.02109 -0.04922,0.03516 -0.03164,0.01055 -0.08789,0.01758 -0.05273,0.01055 -0.13711,0.01055 -0.08438,0 -0.140625,-0.01055 -0.05273,-0.007 -0.08438,-0.01758 -0.03164,-0.01406 -0.0457,-0.03516 -0.01406,-0.02461 -0.01406,-0.04922 V 17.13194 q 0,-0.140625 0.07734,-0.200391 0.07734,-0.05976 0.16875,-0.05976 h 0.288282 q 0.101953,0 0.16875,0.01758 0.07031,0.01758 0.123046,0.05976 0.05625,0.03867 0.105469,0.1125 0.05273,0.07031 0.1125,0.179297 l 1.103906,1.996875 q 0.101953,0.182813 0.196875,0.358594 0.09492,0.172266 0.182813,0.341016 0.08789,0.16875 0.172265,0.333984 0.08789,0.161719 0.172266,0.326953 h 0.0035 q -0.007,-0.277734 -0.01055,-0.576562 0,-0.302344 0,-0.580079 v -2.467968 q 0,-0.02461 0.01406,-0.0457 0.01406,-0.02109 0.0457,-0.03516 0.03516,-0.01758 0.08789,-0.02461 0.05625,-0.007 0.144141,-0.007 0.07734,0 0.133593,0.007 0.05625,0.007 0.08789,0.02461 0.03164,0.01406 0.0457,0.03516 0.01406,0.02109 0.01406,0.0457 z m 4.707421,-2.091797 q 0,0.590625 -0.151172,1.033594 -0.151171,0.439453 -0.442968,0.73125 -0.288282,0.288281 -0.710157,0.432422 -0.421875,0.14414 -1.005468,0.14414 h -0.963282 q -0.08086,0 -0.154687,-0.05273 -0.07031,-0.05625 -0.07031,-0.193359 v -4.057032 q 0,-0.137109 0.07031,-0.189843 0.07383,-0.05625 0.154687,-0.05625 h 1.030079 q 0.590625,0 0.998437,0.154687 0.407813,0.151172 0.682031,0.439453 0.277735,0.284766 0.41836,0.692578 0.14414,0.407813 0.14414,0.921094 z m -0.636328,0.02461 q 0,-0.36914 -0.09141,-0.685546 -0.09141,-0.319922 -0.288281,-0.551953 -0.19336,-0.232032 -0.492188,-0.36211 -0.298828,-0.130078 -0.769922,-0.130078 h -0.615234 v 3.540234 h 0.622266 q 0.435937,0 0.734765,-0.108984 0.298828,-0.108984 0.499219,-0.333984 0.200391,-0.225 0.298828,-0.5625 0.101953,-0.341016 0.101953,-0.805079 z" fill="#000000" fill-opacity="1" stroke-width="0" stroke="none"/>
        <path id="path52" gorn="0.3.13" style="stroke-dasharray:none;"  stroke-opacity="1" d="m 11.09497,27.320226 q 0,0.312891 -0.108984,0.566016 -0.108985,0.249609 -0.312891,0.428906 -0.203906,0.179297 -0.502734,0.277734 -0.2988278,0.09492 -0.6749998,0.09492 -0.228516,0 -0.428907,-0.03867 -0.196875,-0.03516 -0.351562,-0.08437 -0.154688,-0.05273 -0.256641,-0.105469 -0.101953,-0.05625 -0.130078,-0.08086 -0.02461,-0.02461 -0.03867,-0.04922 -0.01406,-0.02461 -0.02461,-0.05977 -0.01055,-0.03516 -0.01758,-0.08437 -0.0035,-0.05274 -0.0035,-0.126563 0,-0.126562 0.02461,-0.175781 0.02461,-0.04922 0.07031,-0.04922 0.03164,0 0.123047,0.05625 0.09492,0.05625 0.239062,0.123047 0.147657,0.06328 0.341016,0.119531 0.196875,0.05625 0.435938,0.05625 0.232031,0 0.407812,-0.05977 0.1757808,-0.05977 0.2953128,-0.16875 0.119531,-0.108985 0.179296,-0.256641 0.05977,-0.151172 0.05977,-0.326953 0,-0.193359 -0.07734,-0.348047 -0.07383,-0.154687 -0.221484,-0.267187 -0.1441408,-0.1125 -0.3585938,-0.172266 -0.210937,-0.05977 -0.48164,-0.05977 h -0.432422 q -0.02813,0 -0.05625,-0.01055 -0.02461,-0.01406 -0.0457,-0.04219 -0.01758,-0.02812 -0.03164,-0.07383 -0.01055,-0.0457 -0.01055,-0.119531 0,-0.0668 0.01055,-0.108985 0.01055,-0.0457 0.02813,-0.07031 0.02109,-0.02812 0.0457,-0.03867 0.02461,-0.01406 0.05625,-0.01406 h 0.397266 q 0.232031,0 0.414843,-0.05977 0.186329,-0.05977 0.312891,-0.172266 0.1300778,-0.1125 0.1968748,-0.267187 0.07031,-0.158204 0.07031,-0.351563 0,-0.140625 -0.0457,-0.267187 -0.0457,-0.130079 -0.137109,-0.225 -0.09141,-0.09492 -0.2355468,-0.147657 -0.140625,-0.05625 -0.326953,-0.05625 -0.203906,0 -0.376172,0.06328 -0.16875,0.05977 -0.302344,0.130078 -0.133593,0.07031 -0.221484,0.133593 -0.08789,0.05977 -0.123047,0.05977 -0.02461,0 -0.0457,-0.007 -0.01758,-0.01055 -0.03164,-0.03516 -0.01055,-0.02812 -0.01758,-0.07383 -0.0035,-0.04922 -0.0035,-0.126562 0,-0.05273 0.0035,-0.09141 0.0035,-0.04219 0.01406,-0.07031 0.01055,-0.03164 0.02461,-0.05625 0.01406,-0.02461 0.0457,-0.05625 0.03516,-0.03516 0.13711,-0.09844 0.101953,-0.06328 0.249609,-0.123047 0.151172,-0.06328 0.344531,-0.105469 0.196875,-0.04219 0.421875,-0.04219 0.316407,0 0.5554688,0.08086 0.239063,0.08086 0.397266,0.228516 0.161718,0.147656 0.239062,0.355078 0.08086,0.203906 0.08086,0.453515 0,0.214453 -0.05625,0.400782 -0.05625,0.182812 -0.165235,0.326953 -0.108984,0.140625 -0.267187,0.242578 -0.158203,0.09844 -0.365625,0.137109 v 0.007 q 0.235547,0.02461 0.428906,0.119532 0.196875,0.09141 0.3375,0.232031 0.140625,0.140625 0.217969,0.330469 0.08086,0.186328 0.08086,0.400781 z m 1.722656,0.917578 q 0,0.249609 -0.08438,0.333984 -0.08086,0.08086 -0.298828,0.08086 -0.210937,0 -0.291797,-0.08086 -0.08086,-0.08086 -0.08086,-0.323437 0,-0.24961 0.08086,-0.330469 0.08438,-0.08437 0.302344,-0.08437 0.210937,0 0.291797,0.08086 0.08086,0.08086 0.08086,0.323437 z m 3.744141,-0.917578 q 0,0.312891 -0.108984,0.566016 -0.108985,0.249609 -0.312891,0.428906 -0.203906,0.179297 -0.502734,0.277734 -0.298829,0.09492 -0.675,0.09492 -0.228516,0 -0.428907,-0.03867 -0.196875,-0.03516 -0.351562,-0.08437 -0.154688,-0.05273 -0.256641,-0.105469 -0.101953,-0.05625 -0.130078,-0.08086 -0.02461,-0.02461 -0.03867,-0.04922 -0.01406,-0.02461 -0.02461,-0.05977 -0.01055,-0.03516 -0.01758,-0.08437 -0.0035,-0.05274 -0.0035,-0.126563 0,-0.126562 0.02461,-0.175781 0.02461,-0.04922 0.07031,-0.04922 0.03164,0 0.123047,0.05625 0.09492,0.05625 0.239062,0.123047 0.147657,0.06328 0.341016,0.119531 0.196875,0.05625 0.435937,0.05625 0.232032,0 0.407813,-0.05977 0.175781,-0.05977 0.295312,-0.16875 0.119532,-0.108985 0.179297,-0.256641 0.05977,-0.151172 0.05977,-0.326953 0,-0.193359 -0.07734,-0.348047 -0.07383,-0.154687 -0.221484,-0.267187 -0.144141,-0.1125 -0.358594,-0.172266 -0.210937,-0.05977 -0.481641,-0.05977 h -0.432421 q -0.02813,0 -0.05625,-0.01055 -0.02461,-0.01406 -0.0457,-0.04219 -0.01758,-0.02812 -0.03164,-0.07383 -0.01055,-0.0457 -0.01055,-0.119531 0,-0.0668 0.01055,-0.108985 0.01055,-0.0457 0.02813,-0.07031 0.02109,-0.02812 0.0457,-0.03867 0.02461,-0.01406 0.05625,-0.01406 h 0.397266 q 0.232031,0 0.414843,-0.05977 0.186328,-0.05977 0.312891,-0.172266 0.130078,-0.1125 0.196875,-0.267187 0.07031,-0.158204 0.07031,-0.351563 0,-0.140625 -0.0457,-0.267187 -0.0457,-0.130079 -0.137109,-0.225 -0.09141,-0.09492 -0.235547,-0.147657 -0.140625,-0.05625 -0.326953,-0.05625 -0.203906,0 -0.376172,0.06328 -0.16875,0.05977 -0.302344,0.130078 -0.133593,0.07031 -0.221484,0.133593 -0.08789,0.05977 -0.123047,0.05977 -0.02461,0 -0.0457,-0.007 -0.01758,-0.01055 -0.03164,-0.03516 -0.01055,-0.02812 -0.01758,-0.07383 -0.0035,-0.04922 -0.0035,-0.126562 0,-0.05273 0.0035,-0.09141 0.0035,-0.04219 0.01406,-0.07031 0.01055,-0.03164 0.02461,-0.05625 0.01406,-0.02461 0.0457,-0.05625 0.03516,-0.03516 0.13711,-0.09844 0.101953,-0.06328 0.249609,-0.123047 0.151172,-0.06328 0.344531,-0.105469 0.196875,-0.04219 0.421875,-0.04219 0.316406,0 0.555469,0.08086 0.239062,0.08086 0.397266,0.228516 0.161718,0.147656 0.239062,0.355078 0.08086,0.203906 0.08086,0.453515 0,0.214453 -0.05625,0.400782 -0.05625,0.182812 -0.165234,0.326953 -0.108984,0.140625 -0.267187,0.242578 -0.158204,0.09844 -0.365625,0.137109 v 0.007 q 0.235546,0.02461 0.428906,0.119532 0.196875,0.09141 0.3375,0.232031 0.140625,0.140625 0.217969,0.330469 0.08086,0.186328 0.08086,0.400781 z m 3.568359,-1.958203 q 0,0.01406 -0.0035,0.03164 0,0.01406 -0.0035,0.03164 -0.0035,0.01758 -0.01055,0.03867 -0.0035,0.02109 -0.01055,0.0457 l -1.079297,3.005859 q -0.01406,0.03867 -0.03867,0.06328 -0.02109,0.02461 -0.0668,0.03867 -0.0457,0.01406 -0.116015,0.01758 -0.07031,0.007 -0.175781,0.007 -0.105469,0 -0.175782,-0.007 -0.07031,-0.007 -0.116015,-0.02109 -0.04219,-0.01406 -0.0668,-0.03867 -0.02461,-0.02461 -0.03867,-0.05977 l -1.075781,-3.005859 q -0.01406,-0.04219 -0.02461,-0.07383 -0.007,-0.03164 -0.01055,-0.0457 0,-0.01758 0,-0.02812 0,-0.02813 0.01406,-0.04922 0.01406,-0.02109 0.0457,-0.03164 0.03516,-0.01406 0.08789,-0.01758 0.05625,-0.0035 0.137109,-0.0035 0.101953,0 0.161719,0.007 0.06328,0.0035 0.09492,0.01758 0.03516,0.01406 0.04922,0.03516 0.01758,0.02109 0.03164,0.05274 l 0.892969,2.608593 0.01406,0.04219 0.01055,-0.04219 0.882422,-2.608593 q 0.007,-0.03164 0.02461,-0.05274 0.01758,-0.02109 0.04922,-0.03516 0.03516,-0.01406 0.09141,-0.01758 0.05977,-0.007 0.154688,-0.007 0.08086,0 0.133594,0.0035 0.05273,0.0035 0.08086,0.01758 0.03164,0.01406 0.04219,0.03516 0.01406,0.01758 0.01406,0.0457 z" fill="#000000" fill-opacity="1" stroke-width="0" stroke="none"/>
        <path id="path53" gorn="0.3.14" style="stroke-dasharray:none;"  stroke-opacity="1" d="m 11.109033,34.358507 q 0,0.365625 -0.123047,0.650391 -0.123047,0.284765 -0.348047,0.48164 -0.225,0.19336 -0.537891,0.295313 -0.3093748,0.101953 -0.6890618,0.101953 -0.210938,0 -0.400782,-0.03164 -0.189843,-0.02813 -0.3375,-0.07031 -0.147656,-0.0457 -0.242578,-0.08789 -0.09492,-0.04219 -0.123047,-0.0668 -0.02461,-0.02461 -0.03516,-0.0457 -0.01055,-0.02109 -0.02109,-0.04922 -0.007,-0.03164 -0.01055,-0.07734 -0.0035,-0.0457 -0.0035,-0.108985 0,-0.05976 0.0035,-0.105469 0.007,-0.04922 0.02109,-0.07734 0.01406,-0.03164 0.03164,-0.0457 0.02109,-0.01406 0.0457,-0.01406 0.03516,0 0.108984,0.0457 0.07383,0.04219 0.196875,0.09492 0.126563,0.04922 0.309375,0.09492 0.186329,0.0457 0.439454,0.0457 0.235546,0 0.432421,-0.05625 0.1968748,-0.05625 0.3374998,-0.175781 0.144141,-0.119531 0.225,-0.298828 0.08086,-0.182813 0.08086,-0.442969 0,-0.217969 -0.07031,-0.383203 -0.0668,-0.16875 -0.210937,-0.277735 -0.140625,-0.1125 -0.3585938,-0.165234 -0.217969,-0.05625 -0.520312,-0.05625 -0.214454,0 -0.369141,0.02109 -0.154688,0.02109 -0.288281,0.02109 -0.09844,0 -0.140625,-0.0457 -0.04219,-0.0457 -0.04219,-0.175781 v -1.852734 q 0,-0.116016 0.05273,-0.172266 0.05625,-0.05625 0.158203,-0.05625 h 2.0144528 q 0.02813,0 0.05273,0.01758 0.02812,0.01406 0.0457,0.0457 0.01758,0.03164 0.02461,0.08086 0.01055,0.04922 0.01055,0.116016 0,0.126562 -0.03516,0.196875 -0.03516,0.07031 -0.09844,0.07031 H 8.9961172 v 1.276172 q 0.123047,-0.01758 0.249609,-0.02109 0.130078,-0.0035 0.298828,-0.0035 0.390235,0 0.6820318,0.09492 0.291797,0.09141 0.485156,0.263672 0.196875,0.16875 0.295312,0.411328 0.101954,0.242578 0.101954,0.537891 z m 1.708593,1.079297 q 0,0.249609 -0.08438,0.333984 -0.08086,0.08086 -0.298828,0.08086 -0.210937,0 -0.291797,-0.08086 -0.08086,-0.08086 -0.08086,-0.323437 0,-0.24961 0.08086,-0.330469 0.08438,-0.08438 0.302344,-0.08438 0.210937,0 0.291797,0.08086 0.08086,0.08086 0.08086,0.323438 z m 3.930469,-1.901953 q 0,0.523828 -0.08438,0.95625 -0.08086,0.432422 -0.274219,0.745312 -0.189843,0.309375 -0.499218,0.481641 -0.309375,0.16875 -0.762891,0.16875 -0.428906,0 -0.724219,-0.151172 -0.291797,-0.154688 -0.471094,-0.45 -0.179296,-0.298828 -0.25664,-0.73125 -0.07383,-0.435938 -0.07383,-0.998438 0,-0.520312 0.08438,-0.952734 0.08438,-0.435937 0.274218,-0.745312 0.189844,-0.312891 0.499219,-0.481641 0.309375,-0.172266 0.759375,-0.172266 0.432422,0 0.724219,0.154688 0.295312,0.151172 0.474609,0.45 0.179297,0.295312 0.253125,0.73125 0.07734,0.432422 0.07734,0.994922 z m -0.61875,0.04219 q 0,-0.341015 -0.02461,-0.611719 -0.02461,-0.270703 -0.07383,-0.478124 -0.0457,-0.207422 -0.123047,-0.355079 -0.07383,-0.151171 -0.179297,-0.246093 -0.105469,-0.09844 -0.242578,-0.140625 -0.133594,-0.0457 -0.302344,-0.0457 -0.298828,0 -0.485156,0.140625 -0.186328,0.140625 -0.295313,0.386718 -0.105469,0.246094 -0.14414,0.576563 -0.03867,0.330468 -0.03867,0.710156 0,0.509766 0.05273,0.868359 0.05273,0.355078 0.165234,0.580078 0.116016,0.225 0.291797,0.326954 0.179297,0.101953 0.432422,0.101953 0.196875,0 0.344531,-0.06328 0.151172,-0.06328 0.256641,-0.179296 0.108984,-0.119532 0.179297,-0.284766 0.07031,-0.165234 0.1125,-0.365625 0.04219,-0.200391 0.05625,-0.432422 0.01758,-0.235547 0.01758,-0.488672 z m 4.000781,-1.016015 q 0,0.01406 -0.0035,0.03164 0,0.01406 -0.0035,0.03164 -0.0035,0.01758 -0.01055,0.03867 -0.0035,0.02109 -0.01055,0.0457 l -1.079297,3.005859 q -0.01406,0.03867 -0.03867,0.06328 -0.02109,0.02461 -0.0668,0.03867 -0.0457,0.01406 -0.116015,0.01758 -0.07031,0.007 -0.175781,0.007 -0.105469,0 -0.175782,-0.007 -0.07031,-0.007 -0.116015,-0.02109 -0.04219,-0.01406 -0.0668,-0.03867 -0.02461,-0.02461 -0.03867,-0.05977 l -1.075781,-3.005859 q -0.01406,-0.04219 -0.02461,-0.07383 -0.007,-0.03164 -0.01055,-0.0457 0,-0.01758 0,-0.02813 0,-0.02812 0.01406,-0.04922 0.01406,-0.02109 0.0457,-0.03164 0.03516,-0.01406 0.08789,-0.01758 0.05625,-0.0035 0.137109,-0.0035 0.101953,0 0.161719,0.007 0.06328,0.0035 0.09492,0.01758 0.03516,0.01406 0.04922,0.03516 0.01758,0.02109 0.03164,0.05273 l 0.892969,2.608593 0.01406,0.04219 0.01055,-0.04219 0.882422,-2.608593 q 0.007,-0.03164 0.02461,-0.05273 0.01758,-0.02109 0.04922,-0.03516 0.03516,-0.01406 0.09141,-0.01758 0.05977,-0.007 0.154688,-0.007 0.08086,0 0.133594,0.0035 0.05273,0.0035 0.08086,0.01758 0.03164,0.01406 0.04219,0.03516 0.01406,0.01758 0.01406,0.0457 z" fill="#000000" fill-opacity="1" stroke-width="0" stroke="none"/>
    </g>
</svg>
