<?xml version='1.0' encoding='UTF-8' standalone='no'?>
<svg xmlns="http://www.w3.org/2000/svg"  height="8.2539997mm" gorn="0" id="svg7" viewBox="0 0 32.496061 32.496063" width="8.2539997mm" version="1.1">
    <desc >
        <referenceFile >pushbutton-momentary.svg</referenceFile>
    </desc>
    <g  transform="translate(-4024.3,-3018.3)">
        <g >
            <g >
                <defs  id="defs7"/>
                <title  id="title1"/>
                <g  transform="translate(-9.452,-15.452)">
                    <g >
                        <g  gorn="0.1.0.0.2.0.0" id="silkscreen">
                            <path  style="color:#000000;stroke-linecap:round;-inkscape-" gorn="0.1.0.0.2.0.0.0" stroke-opacity="1" d="m 4053.9375,3041.627 a 0.5,0.5 0 0 0 -0.5,0.5 v 15.748 a 0.5,0.5 0 0 0 0.5,0.5 0.5,0.5 0 0 0 0.5,-0.5 v -15.748 a 0.5,0.5 0 0 0 -0.5,-0.5 z" fill="#000000" fill-opacity="1" id="gge46" stroke="none"/>
                            <path  style="color:#000000;stroke-linecap:round;-inkscape-" gorn="0.1.0.0.2.0.0.1" stroke-opacity="1" d="m 4046.0625,3041.627 a 0.5,0.5 0 0 0 -0.5,0.5 v 15.748 a 0.5,0.5 0 0 0 0.5,0.5 0.5,0.5 0 0 0 0.5,-0.5 v -15.748 a 0.5,0.5 0 0 0 -0.5,-0.5 z" fill="#000000" fill-opacity="1" id="gge49" stroke="none"/>
                            <path  style="color:#000000;stroke-linecap:round;-inkscape-" gorn="0.1.0.0.2.0.0.2" stroke-opacity="1" d="m 4046.0625,3044.5781 a 0.5,0.5 0 0 0 -0.5,0.5 0.5,0.5 0 0 0 0.5,0.5 h 7.875 a 0.5,0.5 0 0 0 0.5,-0.5 0.5,0.5 0 0 0 -0.5,-0.5 z" fill="#000000" fill-opacity="1" id="gge52" stroke="none"/>
                            <path  style="color:#000000;stroke-linecap:round;-inkscape-" gorn="0.1.0.0.2.0.0.3" stroke-opacity="1" d="m 4046.0625,3054.4219 a 0.5,0.5 0 0 0 -0.5,0.5 0.5,0.5 0 0 0 0.5,0.5 h 7.875 a 0.5,0.5 0 0 0 0.5,-0.5 0.5,0.5 0 0 0 -0.5,-0.5 z" fill="#000000" fill-opacity="1" id="gge55" stroke="none"/>
                            <path  style="color:#000000;stroke-linecap:round;-inkscape-" gorn="0.1.0.0.2.0.0.4" stroke-opacity="1" d="m 4042.127,3041.627 a 0.5,0.5 0 0 0 -0.5,0.5 v 16.246 h 16.748 v -16.746 z m 0.5,1 h 14.748 v 14.746 h -14.748 z" fill="#000000" fill-opacity="1" id="gge58" stroke="none"/>
                            <path  style="color:#000000;stroke-linecap:round;-inkscape-" gorn="0.1.0.0.2.0.0.5" stroke-opacity="1" d="m 4034.252,3033.752 a 0.5,0.5 0 0 0 -0.5,0.5 v 31.996 h 32.496 v -32.496 z m 0.5,1 h 30.496 v 30.496 h -30.496 z" fill="#000000" fill-opacity="1" id="gge61" stroke="none"/>
                        </g>
                    </g>
                </g>
                <g  gorn="0.1.0.0.3" id="copper0">
                    <g  transform="translate(-9.452,-15.452)">
                        <g >
                            <g  gorn="0.1.0.0.3.0.0.0" id="copper1">
                                <path  gorn="0.1.0.0.3.0.0.0.0" d="m 4036.8618,3058.7649 h 6.5914 v 6.0923 h -6.5914 z" fill="#fff000" id="nonconn0" stroke="none"/>
                                <circle  layerid="11" c_etype="pad_hole" gorn="0.1.0.0.3.0.0.0.1" fill="none" id="connector0pad" cy="3061.811" cx="4040.1575" r="1.9685" stroke-width="1" stroke="#ffc000"/>
                                <circle  layerid="11" c_etype="pad_hole" gorn="0.1.0.0.3.0.0.0.2" fill="none" id="connector1pad" cy="3061.811" cx="4050.0005" r="1.9685" stroke-width="1" stroke="#ffc000"/>
                                <circle  layerid="11" c_etype="pad_hole" gorn="0.1.0.0.3.0.0.0.3" fill="none" id="connector2pad" cy="3061.811" cx="4059.8425" r="1.9685" stroke-width="1" stroke="#ffc000"/>
                                <circle  layerid="11" c_etype="pad_hole" gorn="0.1.0.0.3.0.0.0.4" fill="none" id="connector3pin" cy="3038.189" cx="4059.8425" r="1.9685" stroke-width="1" stroke="#ffc000"/>
                                <circle  layerid="1" c_etype="pad_hole" gorn="0.1.0.0.3.0.0.0.5" fill="none" id="connector4pin" cy="3038.189" cx="4050.0005" r="1.9685" stroke-width="1" stroke="#ffc000"/>
                                <circle  layerid="11" c_etype="pad_hole" gorn="0.1.0.0.3.0.0.0.6" fill="none" id="connector5pin" cy="3038.189" cx="4040.1575" r="1.9685" stroke-width="1" stroke="#ffc000"/>
                            </g>
                        </g>
                    </g>
                </g>
            </g>
        </g>
    </g>
</svg>
