<?xml version="1.0" encoding="UTF-8" standalone="no"?>
<svg
   version="1.1"
   gorn="0"
   width="30.566mm"
   height="30.566mm"
   viewBox="0 0 120.33943 120.34018"
   id="STM32H723ZGT6_PCB"
   xmlns="http://www.w3.org/2000/svg"
   xmlns:svg="http://www.w3.org/2000/svg">
  <defs
     id="defs3">
    <defs
       id="defs" />
  </defs>
  <desc
     id="desc1">
    <referenceFile>STM32H723ZGT6_84c8c3eb332b242e3ad35c4aa2e16ca7_4_pcb.svg</referenceFile>
  </desc>
  <g
     gorn="0.2"
     style="display:inline"
     id="copper1">
    <path
       gorn="0.2.0"
       stroke="none"
       fill="#ffc000"
       d="m 27.7838,99.31 a 0.55119997,0.55119997 0 0 0 -0.5508,0.5528 v 6.7715 a 0.55119997,0.55119997 0 0 0 0.5508,0.5507 0.55119997,0.55119997 0 0 0 0.5508,-0.5507 V 99.8628 A 0.55119997,0.55119997 0 0 0 27.7838,99.31 Z"
       id="connector0pad" />
    <path
       gorn="0.2.1"
       stroke="none"
       fill="#ffc000"
       d="m 29.7525,99.31 a 0.55119997,0.55119997 0 0 0 -0.5507,0.5528 v 6.7715 a 0.55119997,0.55119997 0 0 0 0.5507,0.5507 0.55119997,0.55119997 0 0 0 0.5508,-0.5507 V 99.8628 A 0.55119997,0.55119997 0 0 0 29.7525,99.31 Z"
       id="connector1pad" />
    <path
       gorn="0.2.2"
       stroke="none"
       fill="#ffc000"
       d="m 31.7213,99.31 a 0.55119997,0.55119997 0 0 0 -0.5508,0.5528 v 6.7715 a 0.55119997,0.55119997 0 0 0 0.5508,0.5507 0.55119997,0.55119997 0 0 0 0.5508,-0.5507 V 99.8628 A 0.55119997,0.55119997 0 0 0 31.7213,99.31 Z"
       id="connector2pad" />
    <path
       gorn="0.2.3"
       stroke="none"
       fill="#ffc000"
       d="m 33.69,99.31 a 0.55119997,0.55119997 0 0 0 -0.5507,0.5528 v 6.7715 a 0.55119997,0.55119997 0 0 0 0.5507,0.5507 0.55119997,0.55119997 0 0 0 0.5508,-0.5507 V 99.8628 A 0.55119997,0.55119997 0 0 0 33.69,99.31 Z"
       id="connector3pad" />
    <path
       gorn="0.2.4"
       stroke="none"
       fill="#ffc000"
       d="m 35.6588,99.31 a 0.55119997,0.55119997 0 0 0 -0.5528,0.5528 v 6.7715 a 0.55119997,0.55119997 0 0 0 0.5528,0.5507 0.55119997,0.55119997 0 0 0 0.5508,-0.5507 V 99.8628 A 0.55119997,0.55119997 0 0 0 35.6588,99.31 Z"
       id="connector4pad" />
    <path
       gorn="0.2.5"
       stroke="none"
       fill="#ffc000"
       d="m 37.6275,99.31 a 0.55119997,0.55119997 0 0 0 -0.5507,0.5528 v 6.7715 a 0.55119997,0.55119997 0 0 0 0.5507,0.5507 0.55119997,0.55119997 0 0 0 0.5508,-0.5507 V 99.8628 A 0.55119997,0.55119997 0 0 0 37.6275,99.31 Z"
       id="connector5pad" />
    <path
       gorn="0.2.6"
       stroke="none"
       fill="#ffc000"
       d="m 39.5943,99.31 a 0.55119997,0.55119997 0 0 0 -0.5508,0.5528 v 6.7715 a 0.55119997,0.55119997 0 0 0 0.5508,0.5507 0.55119997,0.55119997 0 0 0 0.5528,-0.5507 V 99.8628 A 0.55119997,0.55119997 0 0 0 39.5943,99.31 Z"
       id="connector6pad" />
    <path
       gorn="0.2.7"
       stroke="none"
       fill="#ffc000"
       d="m 41.5631,99.31 a 0.55119997,0.55119997 0 0 0 -0.5508,0.5528 v 6.7715 a 0.55119997,0.55119997 0 0 0 0.5508,0.5507 0.55119997,0.55119997 0 0 0 0.5527,-0.5507 V 99.8628 A 0.55119997,0.55119997 0 0 0 41.5631,99.31 Z"
       id="connector7pad" />
    <path
       gorn="0.2.8"
       stroke="none"
       fill="#ffc000"
       d="m 43.5318,99.31 a 0.55119997,0.55119997 0 0 0 -0.5508,0.5528 v 6.7715 a 0.55119997,0.55119997 0 0 0 0.5508,0.5507 0.55119997,0.55119997 0 0 0 0.5508,-0.5507 V 99.8628 A 0.55119997,0.55119997 0 0 0 43.5318,99.31 Z"
       id="connector8pad" />
    <path
       gorn="0.2.9"
       stroke="none"
       fill="#ffc000"
       d="m 45.5006,99.31 a 0.55119997,0.55119997 0 0 0 -0.5508,0.5528 v 6.7715 a 0.55119997,0.55119997 0 0 0 0.5508,0.5507 0.55119997,0.55119997 0 0 0 0.5508,-0.5507 V 99.8628 A 0.55119997,0.55119997 0 0 0 45.5006,99.31 Z"
       id="connector9pad" />
    <path
       gorn="0.2.10"
       stroke="none"
       fill="#ffc000"
       d="m 47.4693,99.31 a 0.55119997,0.55119997 0 0 0 -0.5508,0.5528 v 6.7715 a 0.55119997,0.55119997 0 0 0 0.5508,0.5507 0.55119997,0.55119997 0 0 0 0.5508,-0.5507 V 99.8628 A 0.55119997,0.55119997 0 0 0 47.4693,99.31 Z"
       id="connector10pad" />
    <path
       gorn="0.2.11"
       stroke="none"
       fill="#ffc000"
       d="m 49.4381,99.31 a 0.55119997,0.55119997 0 0 0 -0.5508,0.5528 v 6.7715 a 0.55119997,0.55119997 0 0 0 0.5508,0.5507 0.55119997,0.55119997 0 0 0 0.5508,-0.5507 V 99.8628 A 0.55119997,0.55119997 0 0 0 49.4381,99.31 Z"
       id="connector11pad" />
    <path
       gorn="0.2.12"
       stroke="none"
       fill="#ffc000"
       d="m 51.4068,99.31 a 0.55119997,0.55119997 0 0 0 -0.5527,0.5528 v 6.7715 a 0.55119997,0.55119997 0 0 0 0.5527,0.5507 0.55119997,0.55119997 0 0 0 0.5508,-0.5507 V 99.8628 A 0.55119997,0.55119997 0 0 0 51.4068,99.31 Z"
       id="connector12pad" />
    <path
       gorn="0.2.13"
       stroke="none"
       fill="#ffc000"
       d="m 53.3756,99.31 a 0.55119997,0.55119997 0 0 0 -0.5528,0.5528 v 6.7715 a 0.55119997,0.55119997 0 0 0 0.5528,0.5507 0.55119997,0.55119997 0 0 0 0.5508,-0.5507 V 99.8628 A 0.55119997,0.55119997 0 0 0 53.3756,99.31 Z"
       id="connector13pad" />
    <path
       gorn="0.2.14"
       stroke="none"
       fill="#ffc000"
       d="m 55.3424,99.31 a 0.55119997,0.55119997 0 0 0 -0.5508,0.5528 v 6.7715 a 0.55119997,0.55119997 0 0 0 0.5508,0.5507 0.55119997,0.55119997 0 0 0 0.5527,-0.5507 V 99.8628 A 0.55119997,0.55119997 0 0 0 55.3424,99.31 Z"
       id="connector14pad" />
    <path
       gorn="0.2.15"
       stroke="none"
       fill="#ffc000"
       d="m 57.3111,92.6478 a 0.55119997,1.0175103 0 0 0 -0.5508,1.0205 v 12.5001 a 0.55119997,1.0175103 0 0 0 0.5508,1.0166 0.55119997,1.0175103 0 0 0 0.5528,-1.0166 V 93.6683 a 0.55119997,1.0175103 0 0 0 -0.5528,-1.0205 z"
       id="connector15pad" />
    <path
       gorn="0.2.16"
       stroke="none"
       fill="#ffc000"
       d="m 59.2799,99.31 a 0.55119997,0.55119997 0 0 0 -0.5508,0.5528 v 6.7715 a 0.55119997,0.55119997 0 0 0 0.5508,0.5507 0.55119997,0.55119997 0 0 0 0.5508,-0.5507 V 99.8628 A 0.55119997,0.55119997 0 0 0 59.2799,99.31 Z"
       id="connector16pad" />
    <path
       gorn="0.2.17"
       stroke="none"
       fill="#ffc000"
       d="m 61.2486,99.31 a 0.55119997,0.55119997 0 0 0 -0.5508,0.5528 v 6.7715 a 0.55119997,0.55119997 0 0 0 0.5508,0.5507 0.55119997,0.55119997 0 0 0 0.5508,-0.5507 V 99.8628 A 0.55119997,0.55119997 0 0 0 61.2486,99.31 Z"
       id="connector17pad" />
    <path
       gorn="0.2.18"
       stroke="none"
       fill="#ffc000"
       d="m 63.2174,99.31 a 0.55119997,0.55119997 0 0 0 -0.5508,0.5528 v 6.7715 a 0.55119997,0.55119997 0 0 0 0.5508,0.5507 0.55119997,0.55119997 0 0 0 0.5508,-0.5507 V 99.8628 A 0.55119997,0.55119997 0 0 0 63.2174,99.31 Z"
       id="connector18pad" />
    <path
       gorn="0.2.19"
       stroke="none"
       fill="#ffc000"
       d="m 65.1861,99.31 a 0.55119997,0.55119997 0 0 0 -0.5508,0.5528 v 6.7715 a 0.55119997,0.55119997 0 0 0 0.5508,0.5507 0.55119997,0.55119997 0 0 0 0.5508,-0.5507 V 99.8628 A 0.55119997,0.55119997 0 0 0 65.1861,99.31 Z"
       id="connector19pad" />
    <path
       gorn="0.2.20"
       stroke="none"
       fill="#ffc000"
       d="m 67.1549,99.31 a 0.55119997,0.55119997 0 0 0 -0.5528,0.5528 v 6.7715 a 0.55119997,0.55119997 0 0 0 0.5528,0.5507 0.55119997,0.55119997 0 0 0 0.5508,-0.5507 V 99.8628 A 0.55119997,0.55119997 0 0 0 67.1549,99.31 Z"
       id="connector20pad" />
    <path
       gorn="0.2.21"
       stroke="none"
       fill="#ffc000"
       d="m 69.1236,99.31 a 0.55119997,0.55119997 0 0 0 -0.5527,0.5528 v 6.7715 a 0.55119997,0.55119997 0 0 0 0.5527,0.5507 0.55119997,0.55119997 0 0 0 0.5508,-0.5507 V 99.8628 A 0.55119997,0.55119997 0 0 0 69.1236,99.31 Z"
       id="connector21pad" />
    <path
       gorn="0.2.22"
       stroke="none"
       fill="#ffc000"
       d="m 71.0904,99.31 a 0.55119997,0.55119997 0 0 0 -0.5508,0.5528 v 6.7715 a 0.55119997,0.55119997 0 0 0 0.5508,0.5507 0.55119997,0.55119997 0 0 0 0.5528,-0.5507 V 99.8628 A 0.55119997,0.55119997 0 0 0 71.0904,99.31 Z"
       id="connector22pad" />
    <path
       gorn="0.2.23"
       stroke="none"
       fill="#ffc000"
       d="m 73.0592,99.31 a 0.55119997,0.55119997 0 0 0 -0.5508,0.5528 v 6.7715 a 0.55119997,0.55119997 0 0 0 0.5508,0.5507 0.55119997,0.55119997 0 0 0 0.5527,-0.5507 V 99.8628 A 0.55119997,0.55119997 0 0 0 73.0592,99.31 Z"
       id="connector23pad" />
    <path
       gorn="0.2.24"
       stroke="none"
       fill="#ffc000"
       d="m 75.0279,99.31 a 0.55119997,0.55119997 0 0 0 -0.5508,0.5528 v 6.7715 a 0.55119997,0.55119997 0 0 0 0.5508,0.5507 0.55119997,0.55119997 0 0 0 0.5508,-0.5507 V 99.8628 A 0.55119997,0.55119997 0 0 0 75.0279,99.31 Z"
       id="connector24pad" />
    <path
       gorn="0.2.25"
       stroke="none"
       fill="#ffc000"
       d="m 76.9967,99.31 a 0.55119997,0.55119997 0 0 0 -0.5508,0.5528 v 6.7715 a 0.55119997,0.55119997 0 0 0 0.5508,0.5507 0.55119997,0.55119997 0 0 0 0.5508,-0.5507 V 99.8628 A 0.55119997,0.55119997 0 0 0 76.9967,99.31 Z"
       id="connector25pad" />
    <path
       gorn="0.2.26"
       stroke="none"
       fill="#ffc000"
       d="m 78.9654,99.31 a 0.55119997,0.55119997 0 0 0 -0.5508,0.5528 v 6.7715 a 0.55119997,0.55119997 0 0 0 0.5508,0.5507 0.55119997,0.55119997 0 0 0 0.5508,-0.5507 V 99.8628 A 0.55119997,0.55119997 0 0 0 78.9654,99.31 Z"
       id="connector26pad" />
    <path
       gorn="0.2.27"
       stroke="none"
       fill="#ffc000"
       d="m 80.9342,99.31 a 0.55119997,0.55119997 0 0 0 -0.5508,0.5528 v 6.7715 a 0.55119997,0.55119997 0 0 0 0.5508,0.5507 0.55119997,0.55119997 0 0 0 0.5508,-0.5507 V 99.8628 A 0.55119997,0.55119997 0 0 0 80.9342,99.31 Z"
       id="connector27pad" />
    <path
       gorn="0.2.28"
       stroke="none"
       fill="#ffc000"
       d="m 82.9029,99.31 a 0.55119997,0.55119997 0 0 0 -0.5527,0.5528 v 6.7715 a 0.55119997,0.55119997 0 0 0 0.5527,0.5507 0.55119997,0.55119997 0 0 0 0.5508,-0.5507 V 99.8628 A 0.55119997,0.55119997 0 0 0 82.9029,99.31 Z"
       id="connector28pad" />
    <path
       gorn="0.2.29"
       stroke="none"
       fill="#ffc000"
       d="m 84.8717,99.31 a 0.55119997,0.55119997 0 0 0 -0.5528,0.5528 v 6.7715 a 0.55119997,0.55119997 0 0 0 0.5528,0.5507 0.55119997,0.55119997 0 0 0 0.5508,-0.5507 V 99.8628 A 0.55119997,0.55119997 0 0 0 84.8717,99.31 Z"
       id="connector29pad" />
    <path
       gorn="0.2.30"
       stroke="none"
       fill="#ffc000"
       d="m 86.8385,99.31 a 0.55119997,0.5512 0 0 0 -0.5508,0.552799 v 6.771501 a 0.55119997,0.5512 0 0 0 0.5508,0.5507 0.55119997,0.5512 0 0 0 0.5508,-0.5507 V 99.862799 A 0.55119997,0.5512 0 0 0 86.8385,99.31 Z"
       id="connector30pad" />
    <path
       gorn="0.2.31"
       stroke="none"
       fill="#ffc000"
       d="m 88.8072,99.31 a 0.55119997,0.55119997 0 0 0 -0.5508,0.5528 v 6.7715 a 0.55119997,0.55119997 0 0 0 0.5508,0.5507 0.55119997,0.55119997 0 0 0 0.5528,-0.5507 V 99.8628 A 0.55119997,0.55119997 0 0 0 88.8072,99.31 Z"
       id="connector31pad" />
    <path
       gorn="0.2.32"
       stroke="none"
       fill="#ffc000"
       d="m 90.776,99.31 a 0.55119997,0.55119997 0 0 0 -0.5508,0.5528 v 6.7715 a 0.55119997,0.55119997 0 0 0 0.5508,0.5507 0.55119997,0.55119997 0 0 0 0.5508,-0.5507 V 99.8628 A 0.55119997,0.55119997 0 0 0 90.776,99.31 Z"
       id="connector32pad" />
    <path
       gorn="0.2.33"
       stroke="none"
       fill="#ffc000"
       d="m 92.7447,99.31 a 0.55119997,0.55119997 0 0 0 -0.5508,0.5528 v 6.7715 a 0.55119997,0.55119997 0 0 0 0.5508,0.5507 0.55119997,0.55119997 0 0 0 0.5508,-0.5507 V 99.8628 A 0.55119997,0.55119997 0 0 0 92.7447,99.31 Z"
       id="connector33pad" />
    <path
       gorn="0.2.34"
       stroke="none"
       fill="#ffc000"
       d="m 94.7135,99.31 a 0.55119997,0.55119997 0 0 0 -0.5508,0.5528 v 6.7715 a 0.55119997,0.55119997 0 0 0 0.5508,0.5507 0.55119997,0.55119997 0 0 0 0.5508,-0.5507 V 99.8628 A 0.55119997,0.55119997 0 0 0 94.7135,99.31 Z"
       id="connector34pad" />
    <path
       gorn="0.2.35"
       stroke="none"
       fill="#ffc000"
       d="m 96.6822,99.31 a 0.55119997,0.55119997 0 0 0 -0.5508,0.5528 v 6.7715 a 0.55119997,0.55119997 0 0 0 0.5508,0.5507 0.55119997,0.55119997 0 0 0 0.5508,-0.5507 V 99.8628 A 0.55119997,0.55119997 0 0 0 96.6822,99.31 Z"
       id="connector35pad" />
    <path
       gorn="0.2.36"
       stroke="none"
       fill="#ffc000"
       d="m 101.3678,94.6264 a 0.55119997,0.55119997 0 0 0 -0.5528,0.5508 0.55119997,0.55119997 0 0 0 0.5528,0.5508 h 6.7715 a 0.55119997,0.55119997 0 0 0 0.5507,-0.5508 0.55119997,0.55119997 0 0 0 -0.5507,-0.5508 z"
       id="connector36pad" />
    <path
       gorn="0.2.37"
       stroke="none"
       fill="#ffc000"
       d="m 95.8058,92.6577 a 0.96989618,0.55119997 0 0 0 -0.9727,0.5508 0.96989618,0.55119997 0 0 0 0.9727,0.5508 h 11.9152 a 0.96989618,0.55119997 0 0 0 0.969,-0.5508 0.96989618,0.55119997 0 0 0 -0.969,-0.5508 z"
       id="connector37pad" />
    <path
       gorn="0.2.38"
       stroke="none"
       fill="#ffc000"
       d="m 101.3678,90.6889 a 0.55119997,0.55119997 0 0 0 -0.5528,0.5508 0.55119997,0.55119997 0 0 0 0.5528,0.5508 h 6.7715 a 0.55119997,0.55119997 0 0 0 0.5507,-0.5508 0.55119997,0.55119997 0 0 0 -0.5507,-0.5508 z"
       id="connector38pad" />
    <path
       gorn="0.2.39"
       stroke="none"
       fill="#ffc000"
       d="m 101.3678,88.7202 a 0.55119997,0.55119997 0 0 0 -0.5528,0.5508 0.55119997,0.55119997 0 0 0 0.5528,0.5508 h 6.7715 a 0.55119997,0.55119997 0 0 0 0.5507,-0.5508 0.55119997,0.55119997 0 0 0 -0.5507,-0.5508 z"
       id="connector39pad" />
    <path
       gorn="0.2.40"
       stroke="none"
       fill="#ffc000"
       d="m 101.3678,86.7514 a 0.55119997,0.55119997 0 0 0 -0.5528,0.5508 0.55119997,0.55119997 0 0 0 0.5528,0.5528 h 6.7715 a 0.55119997,0.55119997 0 0 0 0.5507,-0.5528 0.55119997,0.55119997 0 0 0 -0.5507,-0.5508 z"
       id="connector40pad" />
    <path
       gorn="0.2.41"
       stroke="none"
       fill="#ffc000"
       d="m 101.3678,84.7827 a 0.55119997,0.55119997 0 0 0 -0.5528,0.5508 0.55119997,0.55119997 0 0 0 0.5528,0.5508 h 6.7715 a 0.55119997,0.55119997 0 0 0 0.5507,-0.5508 0.55119997,0.55119997 0 0 0 -0.5507,-0.5508 z"
       id="connector41pad" />
    <path
       gorn="0.2.42"
       stroke="none"
       fill="#ffc000"
       d="m 101.3678,82.8139 a 0.55119997,0.55119997 0 0 0 -0.5528,0.5528 0.55119997,0.55119997 0 0 0 0.5528,0.5508 h 6.7715 a 0.55119997,0.55119997 0 0 0 0.5507,-0.5508 0.55119997,0.55119997 0 0 0 -0.5507,-0.5528 z"
       id="connector42pad" />
    <path
       gorn="0.2.43"
       stroke="none"
       fill="#ffc000"
       d="m 101.3678,80.8452 a 0.55119997,0.55119997 0 0 0 -0.5528,0.5527 0.55119997,0.55119997 0 0 0 0.5528,0.5508 h 6.7715 a 0.55119997,0.55119997 0 0 0 0.5507,-0.5508 0.55119997,0.55119997 0 0 0 -0.5507,-0.5527 z"
       id="connector43pad" />
    <path
       gorn="0.2.44"
       stroke="none"
       fill="#ffc000"
       d="m 101.3678,78.8784 a 0.55119997,0.55119997 0 0 0 -0.5528,0.5508 0.55119997,0.55119997 0 0 0 0.5528,0.5508 h 6.7715 a 0.55119997,0.55119997 0 0 0 0.5507,-0.5508 0.55119997,0.55119997 0 0 0 -0.5507,-0.5508 z"
       id="connector44pad" />
    <path
       gorn="0.2.45"
       stroke="none"
       fill="#ffc000"
       d="m 101.3678,76.9096 a 0.55119997,0.55119997 0 0 0 -0.5528,0.5508 0.55119997,0.55119997 0 0 0 0.5528,0.5508 h 6.7715 a 0.55119997,0.55119997 0 0 0 0.5507,-0.5508 0.55119997,0.55119997 0 0 0 -0.5507,-0.5508 z"
       id="connector45pad" />
    <path
       gorn="0.2.46"
       stroke="none"
       fill="#ffc000"
       d="m 101.3678,74.9409 a 0.55119997,0.55119997 0 0 0 -0.5528,0.5508 0.55119997,0.55119997 0 0 0 0.5528,0.5508 h 6.7715 a 0.55119997,0.55119997 0 0 0 0.5507,-0.5508 0.55119997,0.55119997 0 0 0 -0.5507,-0.5508 z"
       id="connector46pad" />
    <path
       gorn="0.2.47"
       stroke="none"
       fill="#ffc000"
       d="m 101.3678,72.9721 a 0.55119997,0.55119997 0 0 0 -0.5528,0.5508 0.55119997,0.55119997 0 0 0 0.5528,0.5508 h 6.7715 a 0.55119997,0.55119997 0 0 0 0.5507,-0.5508 0.55119997,0.55119997 0 0 0 -0.5507,-0.5508 z"
       id="connector47pad" />
    <path
       gorn="0.2.48"
       stroke="none"
       fill="#ffc000"
       d="m 101.3678,71.0034 a 0.55119997,0.55119997 0 0 0 -0.5528,0.5508 0.55119997,0.55119997 0 0 0 0.5528,0.5527 h 6.7715 a 0.55119997,0.55119997 0 0 0 0.5507,-0.5527 0.55119997,0.55119997 0 0 0 -0.5507,-0.5508 z"
       id="connector48pad" />
    <path
       gorn="0.2.49"
       stroke="none"
       fill="#ffc000"
       d="m 101.3678,69.0346 a 0.55119997,0.55119997 0 0 0 -0.5528,0.5508 0.55119997,0.55119997 0 0 0 0.5528,0.5528 h 6.7715 a 0.55119997,0.55119997 0 0 0 0.5507,-0.5528 0.55119997,0.55119997 0 0 0 -0.5507,-0.5508 z"
       id="connector49pad" />
    <path
       gorn="0.2.50"
       stroke="none"
       fill="#ffc000"
       d="m 95.8596,67.0659 a 0.96584682,0.55119997 0 0 0 -0.9687,0.5527 0.96584682,0.55119997 0 0 0 0.9687,0.5508 h 11.8654 a 0.96584682,0.55119997 0 0 0 0.965,-0.5508 0.96584682,0.55119997 0 0 0 -0.965,-0.5527 z"
       id="connector50pad" />
    <path
       gorn="0.2.51"
       stroke="none"
       fill="#ffc000"
       d="m 101.3678,65.0971 a 0.55119997,0.55119997 0 0 0 -0.5528,0.5528 0.55119997,0.55119997 0 0 0 0.5528,0.5508 h 6.7715 a 0.55119997,0.55119997 0 0 0 0.5507,-0.5508 0.55119997,0.55119997 0 0 0 -0.5507,-0.5528 z"
       id="connector51pad" />
    <path
       gorn="0.2.52"
       stroke="none"
       fill="#ffc000"
       d="m 101.3678,63.1303 a 0.55119997,0.55119997 0 0 0 -0.5528,0.5508 0.55119997,0.55119997 0 0 0 0.5528,0.5508 h 6.7715 a 0.55119997,0.55119997 0 0 0 0.5507,-0.5508 0.55119997,0.55119997 0 0 0 -0.5507,-0.5508 z"
       id="connector52pad" />
    <path
       gorn="0.2.53"
       stroke="none"
       fill="#ffc000"
       d="m 101.3678,61.1616 a 0.55119997,0.55119997 0 0 0 -0.5528,0.5508 0.55119997,0.55119997 0 0 0 0.5528,0.5508 h 6.7715 a 0.55119997,0.55119997 0 0 0 0.5507,-0.5508 0.55119997,0.55119997 0 0 0 -0.5507,-0.5508 z"
       id="connector53pad" />
    <path
       gorn="0.2.54"
       stroke="none"
       fill="#ffc000"
       d="m 101.3678,59.1928 a 0.55119997,0.55119997 0 0 0 -0.5528,0.5508 0.55119997,0.55119997 0 0 0 0.5528,0.5508 h 6.7715 a 0.55119997,0.55119997 0 0 0 0.5507,-0.5508 0.55119997,0.55119997 0 0 0 -0.5507,-0.5508 z"
       id="connector54pad" />
    <path
       gorn="0.2.55"
       stroke="none"
       fill="#ffc000"
       d="m 101.3678,57.2241 a 0.55119997,0.55119997 0 0 0 -0.5528,0.5508 0.55119997,0.55119997 0 0 0 0.5528,0.5508 h 6.7715 a 0.55119997,0.55119997 0 0 0 0.5507,-0.5508 0.55119997,0.55119997 0 0 0 -0.5507,-0.5508 z"
       id="connector55pad" />
    <path
       gorn="0.2.56"
       stroke="none"
       fill="#ffc000"
       d="m 101.3678,55.2553 a 0.55119997,0.55119997 0 0 0 -0.5528,0.5508 0.55119997,0.55119997 0 0 0 0.5528,0.5528 h 6.7715 a 0.55119997,0.55119997 0 0 0 0.5507,-0.5528 0.55119997,0.55119997 0 0 0 -0.5507,-0.5508 z"
       id="connector56pad" />
    <path
       gorn="0.2.57"
       stroke="none"
       fill="#ffc000"
       d="m 101.3678,53.2866 a 0.55119997,0.55119997 0 0 0 -0.5528,0.5508 0.55119997,0.55119997 0 0 0 0.5528,0.5527 h 6.7715 a 0.55119997,0.55119997 0 0 0 0.5507,-0.5527 0.55119997,0.55119997 0 0 0 -0.5507,-0.5508 z"
       id="connector57pad" />
    <path
       gorn="0.2.58"
       stroke="none"
       fill="#ffc000"
       d="m 101.3678,51.3178 a 0.55119997,0.55119997 0 0 0 -0.5528,0.5528 0.55119997,0.55119997 0 0 0 0.5528,0.5508 h 6.7715 a 0.55119997,0.55119997 0 0 0 0.5507,-0.5508 0.55119997,0.55119997 0 0 0 -0.5507,-0.5528 z"
       id="connector58pad" />
    <path
       gorn="0.2.59"
       stroke="none"
       fill="#ffc000"
       d="m 101.3678,49.3491 a 0.55119997,0.55119997 0 0 0 -0.5528,0.5527 0.55119997,0.55119997 0 0 0 0.5528,0.5508 h 6.7715 a 0.55119997,0.55119997 0 0 0 0.5507,-0.5508 0.55119997,0.55119997 0 0 0 -0.5507,-0.5527 z"
       id="connector59pad" />
    <path
       gorn="0.2.60"
       stroke="none"
       fill="#ffc000"
       d="m 92.544869,47.3823 a 1.2153718,0.55119997 0 0 0 -1.218899,0.5508 1.2153718,0.55119997 0 0 0 1.218899,0.5508 h 14.930861 a 1.2153718,0.55119997 0 0 0 1.21427,-0.5508 1.2153718,0.55119997 0 0 0 -1.21427,-0.5508 z"
       id="connector60pad" />
    <path
       gorn="0.2.61"
       stroke="none"
       fill="#ffc000"
       d="m 101.3678,45.4135 a 0.55119997,0.55119997 0 0 0 -0.5528,0.5508 0.55119997,0.55119997 0 0 0 0.5528,0.5508 h 6.7715 a 0.55119997,0.55119997 0 0 0 0.5507,-0.5508 0.55119997,0.55119997 0 0 0 -0.5507,-0.5508 z"
       id="connector61pad" />
    <path
       gorn="0.2.62"
       stroke="none"
       fill="#ffc000"
       d="m 101.3678,43.4448 a 0.55119997,0.55119997 0 0 0 -0.5528,0.5508 0.55119997,0.55119997 0 0 0 0.5528,0.5508 h 6.7715 a 0.55119997,0.55119997 0 0 0 0.5507,-0.5508 0.55119997,0.55119997 0 0 0 -0.5507,-0.5508 z"
       id="connector62pad" />
    <path
       gorn="0.2.63"
       stroke="none"
       fill="#ffc000"
       d="m 101.3678,41.476 a 0.55119997,0.55119997 0 0 0 -0.5528,0.5508 0.55119997,0.55119997 0 0 0 0.5528,0.5508 h 6.7715 a 0.55119997,0.55119997 0 0 0 0.5507,-0.5508 0.55119997,0.55119997 0 0 0 -0.5507,-0.5508 z"
       id="connector63pad" />
    <path
       gorn="0.2.64"
       stroke="none"
       fill="#ffc000"
       d="m 101.3678,39.5073 a 0.55119997,0.55119997 0 0 0 -0.5528,0.5508 0.55119997,0.55119997 0 0 0 0.5528,0.5527 h 6.7715 a 0.55119997,0.55119997 0 0 0 0.5507,-0.5527 0.55119997,0.55119997 0 0 0 -0.5507,-0.5508 z"
       id="connector64pad" />
    <path
       gorn="0.2.65"
       stroke="none"
       fill="#ffc000"
       d="m 101.3678,37.5385 a 0.55119997,0.55119997 0 0 0 -0.5528,0.5508 0.55119997,0.55119997 0 0 0 0.5528,0.5528 h 6.7715 a 0.55119997,0.55119997 0 0 0 0.5507,-0.5528 0.55119997,0.55119997 0 0 0 -0.5507,-0.5508 z"
       id="connector65pad" />
    <path
       gorn="0.2.66"
       stroke="none"
       fill="#ffc000"
       d="m 101.3678,35.5718 a 0.55119997,0.55119997 0 0 0 -0.5528,0.5507 0.55119997,0.55119997 0 0 0 0.5528,0.5508 h 6.7715 a 0.55119997,0.55119997 0 0 0 0.5507,-0.5508 0.55119997,0.55119997 0 0 0 -0.5507,-0.5507 z"
       id="connector66pad" />
    <path
       gorn="0.2.67"
       stroke="none"
       fill="#ffc000"
       d="m 101.3678,33.601 a 0.55119997,0.55119997 0 0 0 -0.5528,0.5528 0.55119997,0.55119997 0 0 0 0.5528,0.5508 h 6.7715 a 0.55119997,0.55119997 0 0 0 0.5507,-0.5508 0.55119997,0.55119997 0 0 0 -0.5507,-0.5528 z"
       id="connector67pad" />
    <path
       gorn="0.2.68"
       stroke="none"
       fill="#ffc000"
       d="m 101.3678,31.6343 a 0.55119997,0.55119997 0 0 0 -0.5528,0.5507 0.55119997,0.55119997 0 0 0 0.5528,0.5508 h 6.7715 a 0.55119997,0.55119997 0 0 0 0.5507,-0.5508 0.55119997,0.55119997 0 0 0 -0.5507,-0.5507 z"
       id="connector68pad" />
    <path
       gorn="0.2.69"
       stroke="none"
       fill="#ffc000"
       d="m 101.3678,29.6655 a 0.55119997,0.55119997 0 0 0 -0.5528,0.5508 0.55119997,0.55119997 0 0 0 0.5528,0.5508 h 6.7715 a 0.55119997,0.55119997 0 0 0 0.5507,-0.5508 0.55119997,0.55119997 0 0 0 -0.5507,-0.5508 z"
       id="connector69pad" />
    <path
       gorn="0.2.70"
       stroke="none"
       fill="#ffc000"
       d="m 101.3678,27.6968 a 0.55119997,0.55119997 0 0 0 -0.5528,0.5507 0.55119997,0.55119997 0 0 0 0.5528,0.5508 h 6.7715 a 0.55119997,0.55119997 0 0 0 0.5507,-0.5508 0.55119997,0.55119997 0 0 0 -0.5507,-0.5507 z"
       id="connector70pad" />
    <path
       gorn="0.2.71"
       stroke="none"
       fill="#ffc000"
       d="m 101.3678,25.728 a 0.55119997,0.55119997 0 0 0 -0.5528,0.5508 0.55119997,0.55119997 0 0 0 0.5528,0.5508 h 6.7715 a 0.55119997,0.55119997 0 0 0 0.5507,-0.5508 0.55119997,0.55119997 0 0 0 -0.5507,-0.5508 z"
       id="connector71pad" />
    <path
       gorn="0.2.72"
       stroke="none"
       fill="#ffc000"
       d="m 96.6822,14.271 a 0.55119997,0.55119997 0 0 0 -0.5508,0.5508 v 6.7714 a 0.55119997,0.55119997 0 0 0 0.5508,0.5528 0.55119997,0.55119997 0 0 0 0.5508,-0.5528 V 14.8218 A 0.55119997,0.55119997 0 0 0 96.6822,14.271 Z"
       id="connector72pad" />
    <path
       gorn="0.2.73"
       stroke="none"
       fill="#ffc000"
       d="m 94.7135,14.271 a 0.55119997,0.55119997 0 0 0 -0.5508,0.5508 v 6.7714 a 0.55119997,0.55119997 0 0 0 0.5508,0.5528 0.55119997,0.55119997 0 0 0 0.5508,-0.5528 V 14.8218 A 0.55119997,0.55119997 0 0 0 94.7135,14.271 Z"
       id="connector73pad" />
    <path
       gorn="0.2.74"
       stroke="none"
       fill="#ffc000"
       d="m 92.7447,14.271 a 0.55119997,0.55119997 0 0 0 -0.5508,0.5508 v 6.7714 a 0.55119997,0.55119997 0 0 0 0.5508,0.5528 0.55119997,0.55119997 0 0 0 0.5508,-0.5528 V 14.8218 A 0.55119997,0.55119997 0 0 0 92.7447,14.271 Z"
       id="connector74pad" />
    <path
       gorn="0.2.75"
       stroke="none"
       fill="#ffc000"
       d="m 90.776,14.271 a 0.55119997,0.55119997 0 0 0 -0.5508,0.5508 v 6.7714 a 0.55119997,0.55119997 0 0 0 0.5508,0.5528 0.55119997,0.55119997 0 0 0 0.5508,-0.5528 V 14.8218 A 0.55119997,0.55119997 0 0 0 90.776,14.271 Z"
       id="connector75pad" />
    <path
       gorn="0.2.76"
       stroke="none"
       fill="#ffc000"
       d="m 88.8072,14.271 a 0.55119997,0.55119997 0 0 0 -0.5508,0.5508 v 6.7714 A 0.55119997,0.55119997 0 0 0 88.8072,22.146 0.55119997,0.55119997 0 0 0 89.36,21.5932 V 14.8218 A 0.55119997,0.55119997 0 0 0 88.8072,14.271 Z"
       id="connector76pad" />
    <path
       gorn="0.2.77"
       stroke="none"
       fill="#ffc000"
       d="m 86.8385,14.271 a 0.55119997,0.55119997 0 0 0 -0.5508,0.5508 v 6.7714 a 0.55119997,0.55119997 0 0 0 0.5508,0.5528 0.55119997,0.55119997 0 0 0 0.5508,-0.5528 V 14.8218 A 0.55119997,0.55119997 0 0 0 86.8385,14.271 Z"
       id="connector77pad" />
    <path
       gorn="0.2.78"
       stroke="none"
       fill="#ffc000"
       d="m 84.8717,14.271 a 0.55119997,0.55119997 0 0 0 -0.5528,0.5508 v 6.7714 a 0.55119997,0.55119997 0 0 0 0.5528,0.5528 0.55119997,0.55119997 0 0 0 0.5508,-0.5528 V 14.8218 A 0.55119997,0.55119997 0 0 0 84.8717,14.271 Z"
       id="connector78pad" />
    <path
       gorn="0.2.79"
       stroke="none"
       fill="#ffc000"
       d="m 82.9029,14.271 a 0.55119997,0.55119997 0 0 0 -0.5527,0.5508 v 6.7714 a 0.55119997,0.55119997 0 0 0 0.5527,0.5528 0.55119997,0.55119997 0 0 0 0.5508,-0.5528 V 14.8218 A 0.55119997,0.55119997 0 0 0 82.9029,14.271 Z"
       id="connector79pad" />
    <path
       gorn="0.2.80"
       stroke="none"
       fill="#ffc000"
       d="m 80.9342,14.271 a 0.55119997,0.55119997 0 0 0 -0.5508,0.5508 v 6.7714 a 0.55119997,0.55119997 0 0 0 0.5508,0.5528 0.55119997,0.55119997 0 0 0 0.5508,-0.5528 V 14.8218 A 0.55119997,0.55119997 0 0 0 80.9342,14.271 Z"
       id="connector80pad" />
    <path
       gorn="0.2.81"
       stroke="none"
       fill="#ffc000"
       d="m 78.9654,14.271 a 0.55119997,0.55119997 0 0 0 -0.5508,0.5508 v 6.7714 a 0.55119997,0.55119997 0 0 0 0.5508,0.5528 0.55119997,0.55119997 0 0 0 0.5508,-0.5528 V 14.8218 A 0.55119997,0.55119997 0 0 0 78.9654,14.271 Z"
       id="connector81pad" />
    <path
       gorn="0.2.82"
       stroke="none"
       fill="#ffc000"
       d="m 76.9967,14.271 a 0.55119997,0.92836387 0 0 0 -0.5508,0.927714 V 26.60356 a 0.55119997,0.92836387 0 0 0 0.5508,0.931028 0.55119997,0.92836387 0 0 0 0.5508,-0.931028 V 15.198714 A 0.55119997,0.92836387 0 0 0 76.9967,14.271 Z"
       id="connector82pad" />
    <path
       gorn="0.2.83"
       stroke="none"
       fill="#ffc000"
       d="m 75.0279,14.271 a 0.55119997,0.55119997 0 0 0 -0.5508,0.5508 v 6.7714 a 0.55119997,0.55119997 0 0 0 0.5508,0.5528 0.55119997,0.55119997 0 0 0 0.5508,-0.5528 V 14.8218 A 0.55119997,0.55119997 0 0 0 75.0279,14.271 Z"
       id="connector83pad" />
    <path
       gorn="0.2.84"
       stroke="none"
       fill="#ffc000"
       d="m 73.0592,14.271 a 0.55119997,0.55119997 0 0 0 -0.5508,0.5508 v 6.7714 a 0.55119997,0.55119997 0 0 0 0.5508,0.5528 0.55119997,0.55119997 0 0 0 0.5527,-0.5528 V 14.8218 A 0.55119997,0.55119997 0 0 0 73.0592,14.271 Z"
       id="connector84pad" />
    <path
       gorn="0.2.85"
       stroke="none"
       fill="#ffc000"
       d="m 71.0904,14.271 a 0.55119997,0.55119997 0 0 0 -0.5508,0.5508 v 6.7714 a 0.55119997,0.55119997 0 0 0 0.5508,0.5528 0.55119997,0.55119997 0 0 0 0.5528,-0.5528 V 14.8218 A 0.55119997,0.55119997 0 0 0 71.0904,14.271 Z"
       id="connector85pad" />
    <path
       gorn="0.2.86"
       stroke="none"
       fill="#ffc000"
       d="m 69.1236,14.271 a 0.55119997,0.55119997 0 0 0 -0.5527,0.5508 v 6.7714 a 0.55119997,0.55119997 0 0 0 0.5527,0.5528 0.55119997,0.55119997 0 0 0 0.5508,-0.5528 V 14.8218 A 0.55119997,0.55119997 0 0 0 69.1236,14.271 Z"
       id="connector86pad" />
    <path
       gorn="0.2.87"
       stroke="none"
       fill="#ffc000"
       d="m 67.1549,14.271 a 0.55119997,0.55119997 0 0 0 -0.5528,0.5508 v 6.7714 a 0.55119997,0.55119997 0 0 0 0.5528,0.5528 0.55119997,0.55119997 0 0 0 0.5508,-0.5528 V 14.8218 A 0.55119997,0.55119997 0 0 0 67.1549,14.271 Z"
       id="connector87pad" />
    <path
       gorn="0.2.88"
       stroke="none"
       fill="#ffc000"
       d="m 65.1861,14.271 a 0.55119997,0.55119997 0 0 0 -0.5508,0.5508 v 6.7714 a 0.55119997,0.55119997 0 0 0 0.5508,0.5528 0.55119997,0.55119997 0 0 0 0.5508,-0.5528 V 14.8218 A 0.55119997,0.55119997 0 0 0 65.1861,14.271 Z"
       id="connector88pad" />
    <path
       gorn="0.2.89"
       stroke="none"
       fill="#ffc000"
       d="m 63.2174,14.271 a 0.55119997,0.55119997 0 0 0 -0.5508,0.5508 v 6.7714 a 0.55119997,0.55119997 0 0 0 0.5508,0.5528 0.55119997,0.55119997 0 0 0 0.5508,-0.5528 V 14.8218 A 0.55119997,0.55119997 0 0 0 63.2174,14.271 Z"
       id="connector89pad" />
    <path
       gorn="0.2.90"
       stroke="none"
       fill="#ffc000"
       d="m 61.2486,14.271 a 0.55119997,0.55119997 0 0 0 -0.5508,0.5508 v 6.7714 a 0.55119997,0.55119997 0 0 0 0.5508,0.5528 0.55119997,0.55119997 0 0 0 0.5508,-0.5528 V 14.8218 A 0.55119997,0.55119997 0 0 0 61.2486,14.271 Z"
       id="connector90pad" />
    <path
       gorn="0.2.91"
       stroke="none"
       fill="#ffc000"
       d="m 59.2799,14.271 a 0.55119997,0.55119997 0 0 0 -0.5508,0.5508 v 6.7714 a 0.55119997,0.55119997 0 0 0 0.5508,0.5528 0.55119997,0.55119997 0 0 0 0.5508,-0.5528 V 14.8218 A 0.55119997,0.55119997 0 0 0 59.2799,14.271 Z"
       id="connector91pad" />
    <path
       gorn="0.2.92"
       stroke="none"
       fill="#ffc000"
       d="m 57.3111,14.271 a 0.55119997,0.55119997 0 0 0 -0.5508,0.5508 v 6.7714 a 0.55119997,0.55119997 0 0 0 0.5508,0.5528 0.55119997,0.55119997 0 0 0 0.5528,-0.5528 V 14.8218 A 0.55119997,0.55119997 0 0 0 57.3111,14.271 Z"
       id="connector92pad" />
    <path
       gorn="0.2.93"
       stroke="none"
       fill="#ffc000"
       d="m 55.3424,14.271002 a 0.55119997,1.1313844 0 0 0 -0.5508,1.130564 v 13.898868 a 0.55119997,1.1313844 0 0 0 0.5508,1.134669 0.55119997,1.1313844 0 0 0 0.5527,-1.134669 V 15.401566 a 0.55119997,1.1313844 0 0 0 -0.5527,-1.130564 z"
       id="connector93pad" />
    <path
       gorn="0.2.94"
       stroke="none"
       fill="#ffc000"
       d="m 53.3756,14.271 a 0.55119997,0.55119997 0 0 0 -0.5528,0.5508 v 6.7714 a 0.55119997,0.55119997 0 0 0 0.5528,0.5528 0.55119997,0.55119997 0 0 0 0.5508,-0.5528 V 14.8218 A 0.55119997,0.55119997 0 0 0 53.3756,14.271 Z"
       id="connector94pad" />
    <path
       gorn="0.2.95"
       stroke="none"
       fill="#ffc000"
       d="m 51.4068,14.271 a 0.55119997,0.55119997 0 0 0 -0.5527,0.5508 v 6.7714 a 0.55119997,0.55119997 0 0 0 0.5527,0.5528 0.55119997,0.55119997 0 0 0 0.5508,-0.5528 V 14.8218 A 0.55119997,0.55119997 0 0 0 51.4068,14.271 Z"
       id="connector95pad" />
    <path
       gorn="0.2.96"
       stroke="none"
       fill="#ffc000"
       d="m 49.4381,14.271 a 0.55119997,0.55119997 0 0 0 -0.5508,0.5508 v 6.7714 a 0.55119997,0.55119997 0 0 0 0.5508,0.5528 0.55119997,0.55119997 0 0 0 0.5508,-0.5528 V 14.8218 A 0.55119997,0.55119997 0 0 0 49.4381,14.271 Z"
       id="connector96pad" />
    <path
       gorn="0.2.97"
       stroke="none"
       fill="#ffc000"
       d="m 47.4693,14.271 a 0.55119997,0.55119997 0 0 0 -0.5508,0.5508 v 6.7714 a 0.55119997,0.55119997 0 0 0 0.5508,0.5528 0.55119997,0.55119997 0 0 0 0.5508,-0.5528 V 14.8218 A 0.55119997,0.55119997 0 0 0 47.4693,14.271 Z"
       id="connector97pad" />
    <path
       gorn="0.2.98"
       stroke="none"
       fill="#ffc000"
       d="m 45.5006,14.271 a 0.55119997,0.55119997 0 0 0 -0.5508,0.5508 v 6.7714 a 0.55119997,0.55119997 0 0 0 0.5508,0.5528 0.55119997,0.55119997 0 0 0 0.5508,-0.5528 V 14.8218 A 0.55119997,0.55119997 0 0 0 45.5006,14.271 Z"
       id="connector98pad" />
    <path
       gorn="0.2.99"
       stroke="none"
       fill="#ffc000"
       d="m 43.5318,14.271 a 0.55119997,0.55119997 0 0 0 -0.5508,0.5508 v 6.7714 a 0.55119997,0.55119997 0 0 0 0.5508,0.5528 0.55119997,0.55119997 0 0 0 0.5508,-0.5528 V 14.8218 A 0.55119997,0.55119997 0 0 0 43.5318,14.271 Z"
       id="connector99pad" />
    <path
       gorn="0.2.100"
       stroke="none"
       fill="#ffc000"
       d="m 41.5631,14.271 a 0.55119997,0.55119997 0 0 0 -0.5508,0.5508 v 6.7714 a 0.55119997,0.55119997 0 0 0 0.5508,0.5528 0.55119997,0.55119997 0 0 0 0.5527,-0.5528 V 14.8218 A 0.55119997,0.55119997 0 0 0 41.5631,14.271 Z"
       id="connector100pad" />
    <path
       gorn="0.2.101"
       stroke="none"
       fill="#ffc000"
       d="m 39.5943,14.271 a 0.55119997,0.55119997 0 0 0 -0.5508,0.5508 v 6.7714 a 0.55119997,0.55119997 0 0 0 0.5508,0.5528 0.55119997,0.55119997 0 0 0 0.5528,-0.5528 V 14.8218 A 0.55119997,0.55119997 0 0 0 39.5943,14.271 Z"
       id="connector101pad" />
    <path
       gorn="0.2.102"
       stroke="none"
       fill="#ffc000"
       d="m 37.6275,14.271 a 0.55119997,0.55119997 0 0 0 -0.5507,0.5508 v 6.7714 a 0.55119997,0.55119997 0 0 0 0.5507,0.5528 0.55119997,0.55119997 0 0 0 0.5508,-0.5528 V 14.8218 A 0.55119997,0.55119997 0 0 0 37.6275,14.271 Z"
       id="connector102pad" />
    <path
       gorn="0.2.103"
       stroke="none"
       fill="#ffc000"
       d="m 35.6588,14.271 a 0.55119997,0.55119997 0 0 0 -0.5528,0.5508 v 6.7714 a 0.55119997,0.55119997 0 0 0 0.5528,0.5528 0.55119997,0.55119997 0 0 0 0.5508,-0.5528 V 14.8218 A 0.55119997,0.55119997 0 0 0 35.6588,14.271 Z"
       id="connector103pad" />
    <path
       gorn="0.2.104"
       stroke="none"
       fill="#ffc000"
       d="m 33.69,14.271 a 0.55119997,0.55119997 0 0 0 -0.5507,0.5508 v 6.7714 A 0.55119997,0.55119997 0 0 0 33.69,22.146 0.55119997,0.55119997 0 0 0 34.2408,21.5932 V 14.8218 A 0.55119997,0.55119997 0 0 0 33.69,14.271 Z"
       id="connector104pad" />
    <path
       gorn="0.2.105"
       stroke="none"
       fill="#ffc000"
       d="m 31.7213,14.271 a 0.55119997,0.55119997 0 0 0 -0.5508,0.5508 v 6.7714 a 0.55119997,0.55119997 0 0 0 0.5508,0.5528 0.55119997,0.55119997 0 0 0 0.5508,-0.5528 V 14.8218 A 0.55119997,0.55119997 0 0 0 31.7213,14.271 Z"
       id="connector105pad" />
    <path
       gorn="0.2.106"
       stroke="none"
       fill="#ffc000"
       d="m 29.7525,14.271 a 0.55119997,0.90394401 0 0 0 -0.5507,0.9033 v 11.1048 a 0.55119997,0.90394401 0 0 0 0.5507,0.9065 0.55119997,0.90394401 0 0 0 0.5508,-0.9065 V 15.1743 A 0.55119997,0.90394401 0 0 0 29.7525,14.271 Z"
       id="connector106pad" />
    <path
       gorn="0.2.107"
       stroke="none"
       fill="#ffc000"
       d="m 27.7838,14.271 a 0.55119997,0.55119997 0 0 0 -0.5508,0.5508 v 6.7714 a 0.55119997,0.55119997 0 0 0 0.5508,0.5528 0.55119997,0.55119997 0 0 0 0.5508,-0.5528 V 14.8218 A 0.55119997,0.55119997 0 0 0 27.7838,14.271 Z"
       id="connector107pad" />
    <path
       gorn="0.2.108"
       stroke="none"
       fill="#ffc000"
       d="m 16.3268,25.728 a 0.55119997,0.55119997 0 0 0 -0.5508,0.5508 0.55119997,0.55119997 0 0 0 0.5508,0.5508 h 6.7714 A 0.55119997,0.55119997 0 0 0 23.651,26.2788 0.55119997,0.55119997 0 0 0 23.0982,25.728 Z"
       id="connector108pad" />
    <path
       gorn="0.2.109"
       stroke="none"
       fill="#ffc000"
       d="m 16.3268,27.6968 a 0.55119997,0.55119997 0 0 0 -0.5508,0.5507 0.55119997,0.55119997 0 0 0 0.5508,0.5508 h 6.7714 a 0.55119997,0.55119997 0 0 0 0.5528,-0.5508 0.55119997,0.55119997 0 0 0 -0.5528,-0.5507 z"
       id="connector109pad" />
    <path
       gorn="0.2.110"
       stroke="none"
       fill="#ffc000"
       d="m 16.3268,29.6655 a 0.55119997,0.55119997 0 0 0 -0.5508,0.5508 0.55119997,0.55119997 0 0 0 0.5508,0.5508 h 6.7714 a 0.55119997,0.55119997 0 0 0 0.5528,-0.5508 0.55119997,0.55119997 0 0 0 -0.5528,-0.5508 z"
       id="connector110pad" />
    <path
       gorn="0.2.111"
       stroke="none"
       fill="#ffc000"
       d="m 16.3268,31.6343 a 0.55119997,0.55119997 0 0 0 -0.5508,0.5507 0.55119997,0.55119997 0 0 0 0.5508,0.5508 h 6.7714 A 0.55119997,0.55119997 0 0 0 23.651,32.185 0.55119997,0.55119997 0 0 0 23.0982,31.6343 Z"
       id="connector111pad" />
    <path
       gorn="0.2.112"
       stroke="none"
       fill="#ffc000"
       d="m 16.3268,33.601 a 0.55119997,0.55119997 0 0 0 -0.5508,0.5528 0.55119997,0.55119997 0 0 0 0.5508,0.5508 h 6.7714 A 0.55119997,0.55119997 0 0 0 23.651,34.1538 0.55119997,0.55119997 0 0 0 23.0982,33.601 Z"
       id="connector112pad" />
    <path
       gorn="0.2.113"
       stroke="none"
       fill="#ffc000"
       d="m 16.3268,35.5718 a 0.55119997,0.55119997 0 0 0 -0.5508,0.5507 0.55119997,0.55119997 0 0 0 0.5508,0.5508 h 6.7714 a 0.55119997,0.55119997 0 0 0 0.5528,-0.5508 0.55119997,0.55119997 0 0 0 -0.5528,-0.5507 z"
       id="connector113pad" />
    <path
       gorn="0.2.114"
       stroke="none"
       fill="#ffc000"
       d="m 16.3268,37.5385 a 0.55119997,0.55119997 0 0 0 -0.5508,0.5508 0.55119997,0.55119997 0 0 0 0.5508,0.5528 h 6.7714 a 0.55119997,0.55119997 0 0 0 0.5528,-0.5528 0.55119997,0.55119997 0 0 0 -0.5528,-0.5508 z"
       id="connector114pad" />
    <path
       gorn="0.2.115"
       stroke="none"
       fill="#ffc000"
       d="m 16.3268,39.5073 a 0.55119997,0.55119997 0 0 0 -0.5508,0.5508 0.55119997,0.55119997 0 0 0 0.5508,0.5527 h 6.7714 a 0.55119997,0.55119997 0 0 0 0.5528,-0.5527 0.55119997,0.55119997 0 0 0 -0.5528,-0.5508 z"
       id="connector115pad" />
    <path
       gorn="0.2.116"
       stroke="none"
       fill="#ffc000"
       d="m 16.3268,41.476 a 0.55119997,0.55119997 0 0 0 -0.5508,0.5508 0.55119997,0.55119997 0 0 0 0.5508,0.5508 h 6.7714 A 0.55119997,0.55119997 0 0 0 23.651,42.0268 0.55119997,0.55119997 0 0 0 23.0982,41.476 Z"
       id="connector116pad" />
    <path
       gorn="0.2.117"
       stroke="none"
       fill="#ffc000"
       d="m 16.3268,43.4448 a 0.55119997,0.55119997 0 0 0 -0.5508,0.5508 0.55119997,0.55119997 0 0 0 0.5508,0.5508 h 6.7714 a 0.55119997,0.55119997 0 0 0 0.5528,-0.5508 0.55119997,0.55119997 0 0 0 -0.5528,-0.5508 z"
       id="connector117pad" />
    <path
       gorn="0.2.118"
       stroke="none"
       fill="#ffc000"
       d="m 16.3268,45.4135 a 0.55119997,0.55119997 0 0 0 -0.5508,0.5508 0.55119997,0.55119997 0 0 0 0.5508,0.5508 h 6.7714 a 0.55119997,0.55119997 0 0 0 0.5528,-0.5508 0.55119997,0.55119997 0 0 0 -0.5528,-0.5508 z"
       id="connector118pad" />
    <path
       gorn="0.2.119"
       stroke="none"
       fill="#ffc000"
       d="m 17.0028,47.3823 a 1.2276676,0.55119997 0 0 0 -1.2268,0.5508 1.2276676,0.55119997 0 0 0 1.2268,0.5508 h 15.0817 a 1.2276676,0.55119997 0 0 0 1.2312,-0.5508 1.2276676,0.55119997 0 0 0 -1.2312,-0.5508 z"
       id="connector119pad" />
    <path
       gorn="0.2.120"
       stroke="none"
       fill="#ffc000"
       d="m 16.3268,49.3491 a 0.55119997,0.55119997 0 0 0 -0.5508,0.5527 0.55119997,0.55119997 0 0 0 0.5508,0.5508 h 6.7714 a 0.55119997,0.55119997 0 0 0 0.5528,-0.5508 0.55119997,0.55119997 0 0 0 -0.5528,-0.5527 z"
       id="connector120pad" />
    <path
       gorn="0.2.121"
       stroke="none"
       fill="#ffc000"
       d="m 16.3268,51.3178 a 0.55119997,0.55119997 0 0 0 -0.5508,0.5528 0.55119997,0.55119997 0 0 0 0.5508,0.5508 h 6.7714 a 0.55119997,0.55119997 0 0 0 0.5528,-0.5508 0.55119997,0.55119997 0 0 0 -0.5528,-0.5528 z"
       id="connector121pad" />
    <path
       gorn="0.2.122"
       stroke="none"
       fill="#ffc000"
       d="m 16.3268,53.2866 a 0.55119997,0.55119997 0 0 0 -0.5508,0.5508 0.55119997,0.55119997 0 0 0 0.5508,0.5527 h 6.7714 a 0.55119997,0.55119997 0 0 0 0.5528,-0.5527 0.55119997,0.55119997 0 0 0 -0.5528,-0.5508 z"
       id="connector122pad" />
    <path
       gorn="0.2.123"
       stroke="none"
       fill="#ffc000"
       d="m 16.3268,55.2553 a 0.55119997,0.55119997 0 0 0 -0.5508,0.5508 0.55119997,0.55119997 0 0 0 0.5508,0.5528 h 6.7714 a 0.55119997,0.55119997 0 0 0 0.5528,-0.5528 0.55119997,0.55119997 0 0 0 -0.5528,-0.5508 z"
       id="connector123pad" />
    <path
       gorn="0.2.124"
       stroke="none"
       fill="#ffc000"
       d="m 16.3268,57.2241 a 0.55119997,0.55119997 0 0 0 -0.5508,0.5508 0.55119997,0.55119997 0 0 0 0.5508,0.5508 h 6.7714 a 0.55119997,0.55119997 0 0 0 0.5528,-0.5508 0.55119997,0.55119997 0 0 0 -0.5528,-0.5508 z"
       id="connector124pad" />
    <path
       gorn="0.2.125"
       stroke="none"
       fill="#ffc000"
       d="m 16.3268,59.1928 a 0.55119997,0.55119997 0 0 0 -0.5508,0.5508 0.55119997,0.55119997 0 0 0 0.5508,0.5508 h 6.7714 a 0.55119997,0.55119997 0 0 0 0.5528,-0.5508 0.55119997,0.55119997 0 0 0 -0.5528,-0.5508 z"
       id="connector125pad" />
    <path
       gorn="0.2.126"
       stroke="none"
       fill="#ffc000"
       d="m 16.3268,61.1616 a 0.55119997,0.55119997 0 0 0 -0.5508,0.5508 0.55119997,0.55119997 0 0 0 0.5508,0.5508 h 6.7714 a 0.55119997,0.55119997 0 0 0 0.5528,-0.5508 0.55119997,0.55119997 0 0 0 -0.5528,-0.5508 z"
       id="connector126pad" />
    <path
       gorn="0.2.127"
       stroke="none"
       fill="#ffc000"
       d="m 16.3268,63.1303 a 0.55119997,0.55119997 0 0 0 -0.5508,0.5508 0.55119997,0.55119997 0 0 0 0.5508,0.5508 h 6.7714 a 0.55119997,0.55119997 0 0 0 0.5528,-0.5508 0.55119997,0.55119997 0 0 0 -0.5528,-0.5508 z"
       id="connector127pad" />
    <path
       gorn="0.2.128"
       stroke="none"
       fill="#ffc000"
       d="m 16.3268,65.0971 a 0.55119997,0.55119997 0 0 0 -0.5508,0.5528 0.55119997,0.55119997 0 0 0 0.5508,0.5508 h 6.7714 a 0.55119997,0.55119997 0 0 0 0.5528,-0.5508 0.55119997,0.55119997 0 0 0 -0.5528,-0.5528 z"
       id="connector128pad" />
    <path
       gorn="0.2.129"
       stroke="none"
       fill="#ffc000"
       d="m 16.8787,67.0659 a 1.1034557,0.55119997 0 0 0 -1.1027,0.5527 1.1034557,0.55119997 0 0 0 1.1027,0.5508 h 13.5557 a 1.1034557,0.55119997 0 0 0 1.1067,-0.5508 1.1034557,0.55119997 0 0 0 -1.1067,-0.5527 z"
       id="connector129pad" />
    <path
       gorn="0.2.130"
       stroke="none"
       fill="#ffc000"
       d="m 16.3268,69.0346 a 0.55119997,0.55119997 0 0 0 -0.5508,0.5508 0.55119997,0.55119997 0 0 0 0.5508,0.5528 h 6.7714 a 0.55119997,0.55119997 0 0 0 0.5528,-0.5528 0.55119997,0.55119997 0 0 0 -0.5528,-0.5508 z"
       id="connector130pad" />
    <path
       gorn="0.2.131"
       stroke="none"
       fill="#ffc000"
       d="m 16.3268,71.0034 a 0.55119997,0.55119997 0 0 0 -0.5508,0.5508 0.55119997,0.55119997 0 0 0 0.5508,0.5527 h 6.7714 a 0.55119997,0.55119997 0 0 0 0.5528,-0.5527 0.55119997,0.55119997 0 0 0 -0.5528,-0.5508 z"
       id="connector131pad" />
    <path
       gorn="0.2.132"
       stroke="none"
       fill="#ffc000"
       d="m 16.3268,72.9721 a 0.55119997,0.55119997 0 0 0 -0.5508,0.5508 0.55119997,0.55119997 0 0 0 0.5508,0.5508 h 6.7714 a 0.55119997,0.55119997 0 0 0 0.5528,-0.5508 0.55119997,0.55119997 0 0 0 -0.5528,-0.5508 z"
       id="connector132pad" />
    <path
       gorn="0.2.133"
       stroke="none"
       fill="#ffc000"
       d="m 16.3268,74.9409 a 0.55119997,0.55119997 0 0 0 -0.5508,0.5508 0.55119997,0.55119997 0 0 0 0.5508,0.5508 h 6.7714 a 0.55119997,0.55119997 0 0 0 0.5528,-0.5508 0.55119997,0.55119997 0 0 0 -0.5528,-0.5508 z"
       id="connector133pad" />
    <path
       gorn="0.2.134"
       stroke="none"
       fill="#ffc000"
       d="m 16.3268,76.9096 a 0.55119997,0.55119997 0 0 0 -0.5508,0.5508 0.55119997,0.55119997 0 0 0 0.5508,0.5508 h 6.7714 a 0.55119997,0.55119997 0 0 0 0.5528,-0.5508 0.55119997,0.55119997 0 0 0 -0.5528,-0.5508 z"
       id="connector134pad" />
    <path
       gorn="0.2.135"
       stroke="none"
       fill="#ffc000"
       d="m 16.3268,78.8784 a 0.55119997,0.55119997 0 0 0 -0.5508,0.5508 0.55119997,0.55119997 0 0 0 0.5508,0.5508 h 6.7714 a 0.55119997,0.55119997 0 0 0 0.5528,-0.5508 0.55119997,0.55119997 0 0 0 -0.5528,-0.5508 z"
       id="connector135pad" />
    <path
       gorn="0.2.136"
       stroke="none"
       fill="#ffc000"
       d="m 16.3268,80.8452 a 0.55119997,0.55119997 0 0 0 -0.5508,0.5527 0.55119997,0.55119997 0 0 0 0.5508,0.5508 h 6.7714 a 0.55119997,0.55119997 0 0 0 0.5528,-0.5508 0.55119997,0.55119997 0 0 0 -0.5528,-0.5527 z"
       id="connector136pad" />
    <path
       gorn="0.2.137"
       stroke="none"
       fill="#ffc000"
       d="m 16.3268,82.8139 a 0.55119997,0.55119997 0 0 0 -0.5508,0.5528 0.55119997,0.55119997 0 0 0 0.5508,0.5508 h 6.7714 a 0.55119997,0.55119997 0 0 0 0.5528,-0.5508 0.55119997,0.55119997 0 0 0 -0.5528,-0.5528 z"
       id="connector137pad" />
    <path
       gorn="0.2.138"
       stroke="none"
       fill="#ffc000"
       d="m 16.3268,84.7827 a 0.55119997,0.55119997 0 0 0 -0.5508,0.5508 0.55119997,0.55119997 0 0 0 0.5508,0.5508 h 6.7714 a 0.55119997,0.55119997 0 0 0 0.5528,-0.5508 0.55119997,0.55119997 0 0 0 -0.5528,-0.5508 z"
       id="connector138pad" />
    <path
       gorn="0.2.139"
       stroke="none"
       fill="#ffc000"
       d="m 16.3268,86.7514 a 0.55119997,0.55119997 0 0 0 -0.5508,0.5508 0.55119997,0.55119997 0 0 0 0.5508,0.5528 h 6.7714 a 0.55119997,0.55119997 0 0 0 0.5528,-0.5528 0.55119997,0.55119997 0 0 0 -0.5528,-0.5508 z"
       id="connector139pad" />
    <path
       gorn="0.2.140"
       stroke="none"
       fill="#ffc000"
       d="m 16.3268,88.7202 a 0.55119997,0.55119997 0 0 0 -0.5508,0.5508 0.55119997,0.55119997 0 0 0 0.5508,0.5508 h 6.7714 A 0.55119997,0.55119997 0 0 0 23.651,89.271 0.55119997,0.55119997 0 0 0 23.0982,88.7202 Z"
       id="connector140pad" />
    <path
       gorn="0.2.141"
       stroke="none"
       fill="#ffc000"
       d="m 16.3268,90.6889 a 0.55119997,0.55119997 0 0 0 -0.5508,0.5508 0.55119997,0.55119997 0 0 0 0.5508,0.5508 h 6.7714 a 0.55119997,0.55119997 0 0 0 0.5528,-0.5508 0.55119997,0.55119997 0 0 0 -0.5528,-0.5508 z"
       id="connector141pad" />
    <path
       gorn="0.2.142"
       stroke="none"
       fill="#ffc000"
       d="m 16.3268,92.6577 a 0.55119997,0.55119997 0 0 0 -0.5508,0.5508 0.55119997,0.55119997 0 0 0 0.5508,0.5508 h 6.7714 a 0.55119997,0.55119997 0 0 0 0.5528,-0.5508 0.55119997,0.55119997 0 0 0 -0.5528,-0.5508 z"
       id="connector142pad" />
    <path
       gorn="0.2.143"
       stroke="none"
       fill="#ffc000"
       d="m 16.3268,94.6264 a 0.55119997,0.55119997 0 0 0 -0.5508,0.5508 0.55119997,0.55119997 0 0 0 0.5508,0.5508 h 6.7714 a 0.55119997,0.55119997 0 0 0 0.5528,-0.5508 0.55119997,0.55119997 0 0 0 -0.5528,-0.5508 z"
       id="connector143pad" />
    <path
       gorn="0.2.144"
       stroke="none"
       fill="#ffc000"
       d="M 27.7841,26.2791 H 96.6826 V 95.1776 H 27.7841 Z"
       id="connector144pin" />
  </g>
  <g
     gorn="0.3"
     id="silkscreen">
    <g
       transform="translate(-3987.767,-2989.272)"
       id="g6">
      <g
         gorn="0.3.0.0"
         id="g5">
        <g
           gorn="0.3.0.0.0"
           id="g4">
          <g
             gorn="0.3.0.0.0.0"
             id="g3">
            <g
               gorn="0.3.0.0.0.0.0"
               id="g2">
              <g
                 gorn="0.3.0.0.0.0.0.0"
                 style="display:inline"
                 id="g1">
                <path
                   gorn="0.3.0.0.0.0.0.0.0"
                   stroke="none"
                   fill="#000000"
                   d="m 4011.9238,3011.623 a 0.30003001,0.30003001 0 0 0 -0.3008,0.3008 v 76.1524 a 0.30000001,0.30000001 0 0 0 0.3008,0.3008 h 76.1524 a 0.30003001,0.30003001 0 0 0 0.3008,-0.3008 v -76.1524 a 0.30003001,0.30003001 0 0 0 -0.3008,-0.3008 z m 0.3008,0.6016 h 75.5527 v 75.5527 h -75.5527 z"
                   id="gge901" />
              </g>
            </g>
          </g>
        </g>
      </g>
    </g>
    <path
       gorn="0.3.1"
       stroke="none"
       style="display:inline"
       fill="#000000"
       d="m 21.2873,100.0989 c -0.8601,0 -1.5742,0.714 -1.5742,1.5742 0,0.8602 0.7141,1.5742 1.5742,1.5743 0.8602,-1e-4 1.5743,-0.7141 1.5743,-1.5743 0,-0.8602 -0.7141,-1.5742 -1.5743,-1.5742 z"
       id="gge916" />
    <path
       gorn="0.3.2"
       stroke="none"
       style="display:inline"
       fill="#000000"
       d="m 26.7329,94.6538 c -0.8601,0 -1.5742,0.714 -1.5742,1.5742 0,0.8602 0.7141,1.5742 1.5742,1.5743 0.8602,-1e-4 1.5743,-0.7141 1.5743,-1.5743 0,-0.8602 -0.7141,-1.5742 -1.5743,-1.5742 z"
       id="gge919" />
  </g>
</svg>
