<?xml version='1.0' encoding='UTF-8' standalone='no'?>
<!-- Created with Fritzing (https://fritzing.org/) -->
<svg xmlns="http://www.w3.org/2000/svg" x="0in" id="svg486" y="0in" width="30mm" height="20mm"  viewBox="0 0 85.039191 56.692906" version="1.2" gorn="0">
    <desc >
        <referenceFile >Módulo-Fonte-PARTE.svg</referenceFile>
    </desc>
    <defs id="defs486" />
    <g id="copper1"  gorn="0.2">
        <g id="copper0"  gorn="0.2.0">
            <circle r="2.0880001" id="connector0pin" stroke-width="1.44" fill="none"  cy="10.43149" cx="4.7320623" stroke="#ffbf00" gorn="0.2.0.0"/>
            <circle r="2.0880001" id="connector1pin" stroke-width="1.44" fill="none"  cy="17.631491" cx="4.7320623" stroke="#ffbf00" gorn="0.2.0.1"/>
            <circle r="2.0880001" id="connector2pin" stroke-width="1.44" fill="none"  cy="24.831491" cx="4.7320623" stroke="#ffbf00" gorn="0.2.0.2"/>
            <circle r="2.0880001" id="connector3pin" stroke-width="1.44" fill="none"  cy="32.03149" cx="4.7320623" stroke="#ffbf00" gorn="0.2.0.3"/>
            <circle r="2.0880001" id="connector4pin" stroke-width="1.44" fill="none"  cy="39.231491" cx="4.7320623" stroke="#ffbf00" gorn="0.2.0.4"/>
            <circle r="2.0880001" id="connector5pin" stroke-width="1.44" fill="none"  cy="46.431492" cx="4.7320623" stroke="#ffbf00" gorn="0.2.0.5"/>
        </g>
    </g>
    <g id="silkscreen"  gorn="0.3">
        <path id="rect263" fill="black"  d="M 0,0 V 56.693359 H 85.039062 V 0 Z M 0.57617187,0.57617187 H 84.462891 V 56.117187 H 0.57617187 Z" stroke="none" gorn="0.3.0"/>
        <path id="3V0" fill="black"  d="m 11.500943,32.482534 q 0,0.189516 -0.06601,0.342832 -0.06601,0.151187 -0.189516,0.259786 -0.123504,0.108599 -0.304502,0.168222 -0.180998,0.05749 -0.408843,0.05749 -0.13841,0 -0.259786,-0.02342 -0.119245,-0.02129 -0.212939,-0.05111 -0.093693,-0.03194 -0.155445,-0.06388 -0.061752,-0.03407 -0.078787,-0.04898 -0.014906,-0.01491 -0.023423,-0.02981 -0.00852,-0.0149 -0.014906,-0.0362 -0.00639,-0.02129 -0.010647,-0.05111 -0.00213,-0.03194 -0.00213,-0.07666 0,-0.07666 0.014906,-0.106469 0.014906,-0.02981 0.042588,-0.02981 0.019164,0 0.074529,0.03407 0.057493,0.03407 0.1447986,0.07453 0.08943,0.03833 0.206551,0.0724 0.119245,0.03407 0.264044,0.03407 0.14054,0 0.247009,-0.0362 0.10647,-0.0362 0.178869,-0.102211 0.0724,-0.06601 0.108599,-0.155445 0.0362,-0.09156 0.0362,-0.198033 0,-0.117117 -0.04685,-0.21081 -0.04472,-0.09369 -0.134152,-0.161834 -0.0873,-0.06814 -0.217197,-0.10434 -0.127764,-0.0362 -0.291727,-0.0362 h -0.261915 q -0.01703,0 -0.03407,-0.0064 -0.01491,-0.0085 -0.02768,-0.02555 -0.01065,-0.01703 -0.01917,-0.04472 -0.0064,-0.02768 -0.0064,-0.0724 0,-0.04046 0.0064,-0.06601 0.0064,-0.02768 0.01704,-0.04259 0.01278,-0.01703 0.02768,-0.02342 0.01491,-0.0085 0.03407,-0.0085 h 0.240621 q 0.14054,0 0.251268,-0.0362 0.112857,-0.0362 0.189516,-0.10434 0.07879,-0.06814 0.119245,-0.161834 0.04259,-0.09582 0.04259,-0.212939 0,-0.08517 -0.02768,-0.161833 -0.02768,-0.07879 -0.08305,-0.136281 -0.05536,-0.05749 -0.142669,-0.08943 -0.08518,-0.03407 -0.198033,-0.03407 -0.123505,0 -0.227845,0.03833 -0.102211,0.0362 -0.183128,0.07879 -0.08092,0.04259 -0.1341512,0.08092 -0.053235,0.0362 -0.074529,0.0362 -0.014906,0 -0.027682,-0.0043 -0.010647,-0.0064 -0.019164,-0.02129 -0.00639,-0.01704 -0.010647,-0.04472 -0.00213,-0.02981 -0.00213,-0.07666 0,-0.03194 0.00213,-0.05536 0.00213,-0.02555 0.00852,-0.04259 0.00639,-0.01916 0.014906,-0.03407 0.00852,-0.01491 0.027682,-0.03407 0.021294,-0.02129 0.083046,-0.05962 0.061752,-0.03833 0.1511868,-0.07453 0.09156,-0.03833 0.20868,-0.06388 0.119246,-0.02555 0.255527,-0.02555 0.191645,0 0.336443,0.04898 0.144799,0.04898 0.240621,0.13841 0.09795,0.08944 0.144799,0.215069 0.04898,0.123504 0.04898,0.274691 0,0.129893 -0.03407,0.24275 -0.03407,0.110729 -0.100082,0.198034 -0.06601,0.08517 -0.161833,0.146927 -0.09582,0.05962 -0.221457,0.08305 v 0.0043 q 0.142669,0.01491 0.259786,0.0724 0.119246,0.05536 0.204421,0.140539 0.08518,0.08518 0.132022,0.200163 0.04898,0.112858 0.04898,0.24275 z m 1.74397,0.723993 q -0.0085,0.02342 -0.02342,0.03833 -0.01491,0.01491 -0.04259,0.02342 -0.02555,0.0085 -0.06814,0.01065 -0.04046,0.0043 -0.102211,0.0043 -0.04685,0 -0.08305,-0.0021 -0.03407,0 -0.05962,-0.0043 -0.02555,-0.0043 -0.04472,-0.0085 -0.01703,-0.0064 -0.02981,-0.0149 -0.01278,-0.0085 -0.02129,-0.01917 -0.0064,-0.01278 -0.01278,-0.02981 l -0.900732,-2.559527 q -0.01703,-0.04685 -0.01916,-0.07453 0,-0.02981 0.01916,-0.04472 0.01917,-0.01491 0.06175,-0.01916 0.04259,-0.0043 0.114987,-0.0043 0.05962,0 0.09369,0.0043 0.0362,0.0021 0.05536,0.01065 0.01916,0.0085 0.02768,0.02342 0.01065,0.01278 0.01916,0.03407 l 0.790004,2.318906 h 0.0021 l 0.76871,-2.314647 q 0.0064,-0.02342 0.01491,-0.03833 0.0085,-0.01491 0.02981,-0.02342 0.02129,-0.0085 0.05962,-0.01065 0.03833,-0.0043 0.102211,-0.0043 0.06601,0 0.10434,0.0064 0.03833,0.0043 0.0511,0.01916 0.01491,0.01491 0.01065,0.04472 -0.0021,0.02768 -0.01916,0.07453 z m 3.053545,-1.320222 q 0,0.317279 -0.0511,0.579194 -0.04898,0.261915 -0.166093,0.451431 -0.114987,0.187386 -0.302373,0.291726 -0.187386,0.102211 -0.462078,0.102211 -0.259785,0 -0.438654,-0.09156 -0.176739,-0.09369 -0.285338,-0.272562 -0.108599,-0.180998 -0.155446,-0.442913 -0.04472,-0.264044 -0.04472,-0.604746 0,-0.31515 0.05111,-0.577065 0.05111,-0.264044 0.166092,-0.451431 0.114987,-0.189515 0.302373,-0.291726 0.187387,-0.10434 0.459948,-0.10434 0.261915,0 0.438655,0.09369 0.178868,0.09156 0.287467,0.272562 0.108599,0.178869 0.153316,0.442913 0.04685,0.261915 0.04685,0.602617 z m -0.374773,0.02555 q 0,-0.206551 -0.01491,-0.370514 -0.01491,-0.163963 -0.04472,-0.289597 -0.02768,-0.125634 -0.07453,-0.215068 -0.04472,-0.09156 -0.108599,-0.149057 -0.06388,-0.05962 -0.146928,-0.08518 -0.08092,-0.02768 -0.183127,-0.02768 -0.180999,0 -0.293856,0.08518 -0.112858,0.08517 -0.178869,0.234232 -0.06388,0.149058 -0.0873,0.34922 -0.02342,0.200163 -0.02342,0.430137 0,0.308762 0.03194,0.525959 0.03194,0.215069 0.100081,0.35135 0.07027,0.13628 0.176739,0.198033 0.108599,0.06175 0.261915,0.06175 0.119246,0 0.20868,-0.03833 0.09156,-0.03833 0.155446,-0.108599 0.06601,-0.0724 0.108599,-0.17248 0.04259,-0.100082 0.06814,-0.221457 0.02555,-0.121375 0.03407,-0.261915 0.01065,-0.142669 0.01065,-0.295985 z" stroke="none" gorn="0.3.1"/>
        <path id="3v3" fill="black"  d="m 11.368513,39.672636 q 0,0.189516 -0.06601,0.342832 -0.06601,0.151186 -0.189516,0.259785 -0.123504,0.108599 -0.304502,0.168222 -0.180998,0.05749 -0.408843,0.05749 -0.13841,0 -0.259786,-0.02342 -0.119246,-0.02129 -0.2129387,-0.0511 -0.093693,-0.03194 -0.1554454,-0.06388 -0.061752,-0.03407 -0.078787,-0.04898 -0.014906,-0.0149 -0.023423,-0.02981 -0.00852,-0.01491 -0.014906,-0.0362 -0.00639,-0.02129 -0.010647,-0.0511 -0.00213,-0.03194 -0.00213,-0.07666 0,-0.07666 0.014906,-0.10647 0.014906,-0.02981 0.042588,-0.02981 0.019165,0 0.074529,0.03407 0.057493,0.03407 0.1447985,0.07453 0.089434,0.03833 0.2065512,0.0724 0.119245,0.03407 0.264044,0.03407 0.14054,0 0.247009,-0.0362 0.10647,-0.0362 0.178869,-0.102211 0.0724,-0.06601 0.108599,-0.155445 0.0362,-0.09156 0.0362,-0.198034 0,-0.117116 -0.04685,-0.210809 -0.04472,-0.09369 -0.134152,-0.161834 -0.08731,-0.06814 -0.217198,-0.10434 -0.127763,-0.0362 -0.291726,-0.0362 h -0.261915 q -0.017035,0 -0.03407,-0.0064 -0.014906,-0.0085 -0.027682,-0.02555 -0.010647,-0.01704 -0.019165,-0.04472 -0.00639,-0.02768 -0.00639,-0.0724 0,-0.04046 0.00639,-0.06601 0.00639,-0.02768 0.017035,-0.04259 0.012776,-0.01703 0.027682,-0.02342 0.014906,-0.0085 0.034071,-0.0085 h 0.240621 q 0.140539,0 0.251268,-0.0362 0.112857,-0.0362 0.189515,-0.10434 0.07879,-0.06814 0.119246,-0.161834 0.04259,-0.09582 0.04259,-0.212939 0,-0.08517 -0.02768,-0.161834 -0.02768,-0.07879 -0.08305,-0.13628 -0.05536,-0.05749 -0.142669,-0.08944 -0.08518,-0.03407 -0.198034,-0.03407 -0.123504,0 -0.227844,0.03833 -0.102211,0.0362 -0.1831278,0.07879 -0.080917,0.04259 -0.1341515,0.08092 -0.053235,0.0362 -0.074529,0.0362 -0.014906,0 -0.027682,-0.0043 -0.010647,-0.0064 -0.019165,-0.02129 -0.00639,-0.01703 -0.010647,-0.04472 -0.00213,-0.02981 -0.00213,-0.07666 0,-0.03194 0.00213,-0.05536 0.00213,-0.02555 0.00852,-0.04259 0.00639,-0.01917 0.014906,-0.03407 0.00852,-0.01491 0.027682,-0.03407 0.021294,-0.02129 0.083046,-0.05962 0.061752,-0.03833 0.1511869,-0.07453 0.09156,-0.03833 0.20868,-0.06388 0.119246,-0.02555 0.255527,-0.02555 0.191645,0 0.336443,0.04898 0.144799,0.04898 0.240621,0.13841 0.09795,0.08943 0.144799,0.215068 0.04898,0.123505 0.04898,0.274692 0,0.129892 -0.03407,0.24275 -0.03407,0.110728 -0.100082,0.198033 -0.06601,0.08518 -0.161833,0.146928 -0.09582,0.05962 -0.221457,0.08305 v 0.0043 q 0.142669,0.01491 0.259786,0.0724 0.119245,0.05536 0.204421,0.14054 0.08518,0.08518 0.132022,0.200163 0.04898,0.112857 0.04898,0.24275 z m 1.74397,0.723993 q -0.0085,0.02342 -0.02342,0.03833 -0.01491,0.0149 -0.04259,0.02342 -0.02555,0.0085 -0.06814,0.01065 -0.04046,0.0043 -0.102211,0.0043 -0.04685,0 -0.08305,-0.0021 -0.03407,0 -0.05962,-0.0043 -0.02555,-0.0043 -0.04472,-0.0085 -0.01703,-0.0064 -0.02981,-0.01491 -0.01278,-0.0085 -0.02129,-0.01916 -0.0064,-0.01278 -0.01278,-0.02981 l -0.900732,-2.559526 q -0.01703,-0.04685 -0.01916,-0.07453 0,-0.02981 0.01916,-0.04472 0.01916,-0.01491 0.06175,-0.01917 0.04259,-0.0043 0.114987,-0.0043 0.05962,0 0.09369,0.0043 0.0362,0.0021 0.05536,0.01065 0.01916,0.0085 0.02768,0.02342 0.01065,0.01278 0.01916,0.03407 l 0.790004,2.318905 h 0.0021 l 0.76871,-2.314646 q 0.0064,-0.02342 0.01491,-0.03833 0.0085,-0.01491 0.02981,-0.02342 0.02129,-0.0085 0.05962,-0.01065 0.03833,-0.0043 0.102211,-0.0043 0.06601,0 0.10434,0.0064 0.03833,0.0043 0.0511,0.01916 0.01491,0.01491 0.01065,0.04472 -0.0021,0.02768 -0.01916,0.07453 z m 2.940687,-0.723993 q 0,0.189516 -0.06601,0.342832 -0.06601,0.151186 -0.189516,0.259785 -0.123504,0.108599 -0.304502,0.168222 -0.180998,0.05749 -0.408843,0.05749 -0.13841,0 -0.259786,-0.02342 -0.119245,-0.02129 -0.212939,-0.0511 -0.09369,-0.03194 -0.155445,-0.06388 -0.06175,-0.03407 -0.07879,-0.04898 -0.01491,-0.0149 -0.02342,-0.02981 -0.0085,-0.01491 -0.0149,-0.0362 -0.0064,-0.02129 -0.01065,-0.0511 -0.0021,-0.03194 -0.0021,-0.07666 0,-0.07666 0.01491,-0.10647 0.01491,-0.02981 0.04259,-0.02981 0.01916,0 0.07453,0.03407 0.05749,0.03407 0.144799,0.07453 0.08943,0.03833 0.206551,0.0724 0.119245,0.03407 0.264044,0.03407 0.14054,0 0.247009,-0.0362 0.10647,-0.0362 0.178869,-0.102211 0.0724,-0.06601 0.108599,-0.155445 0.0362,-0.09156 0.0362,-0.198034 0,-0.117116 -0.04685,-0.210809 -0.04472,-0.09369 -0.134152,-0.161834 -0.08731,-0.06814 -0.217197,-0.10434 -0.127764,-0.0362 -0.291727,-0.0362 H 14.69249 q -0.01703,0 -0.03407,-0.0064 -0.01491,-0.0085 -0.02768,-0.02555 -0.01065,-0.01704 -0.01916,-0.04472 -0.0064,-0.02768 -0.0064,-0.0724 0,-0.04046 0.0064,-0.06601 0.0064,-0.02768 0.01704,-0.04259 0.01278,-0.01703 0.02768,-0.02342 0.01491,-0.0085 0.03407,-0.0085 h 0.240621 q 0.14054,0 0.251268,-0.0362 0.112858,-0.0362 0.189516,-0.10434 0.07879,-0.06814 0.119245,-0.161834 0.04259,-0.09582 0.04259,-0.212939 0,-0.08517 -0.02768,-0.161834 -0.02768,-0.07879 -0.08305,-0.13628 -0.05536,-0.05749 -0.142669,-0.08944 -0.08518,-0.03407 -0.198033,-0.03407 -0.123505,0 -0.227845,0.03833 -0.102211,0.0362 -0.183128,0.07879 -0.08092,0.04259 -0.134151,0.08092 -0.05324,0.0362 -0.07453,0.0362 -0.01491,0 -0.02768,-0.0043 -0.01065,-0.0064 -0.01916,-0.02129 -0.0064,-0.01703 -0.01065,-0.04472 -0.0021,-0.02981 -0.0021,-0.07666 0,-0.03194 0.0021,-0.05536 0.0021,-0.02555 0.0085,-0.04259 0.0064,-0.01917 0.01491,-0.03407 0.0085,-0.01491 0.02768,-0.03407 0.02129,-0.02129 0.08305,-0.05962 0.06175,-0.03833 0.151187,-0.07453 0.09156,-0.03833 0.20868,-0.06388 0.119246,-0.02555 0.255527,-0.02555 0.191645,0 0.336443,0.04898 0.144799,0.04898 0.240621,0.13841 0.09795,0.08943 0.144799,0.215068 0.04898,0.123505 0.04898,0.274692 0,0.129892 -0.03407,0.24275 -0.03407,0.110728 -0.100082,0.198033 -0.06601,0.08518 -0.161833,0.146928 -0.09582,0.05962 -0.221457,0.08305 v 0.0043 q 0.142669,0.01491 0.259786,0.0724 0.119246,0.05536 0.204421,0.14054 0.08518,0.08518 0.132022,0.200163 0.04898,0.112857 0.04898,0.24275 z" stroke="none" gorn="0.3.2"/>
        <path id="1v8" fill="black"  d="m 11.534657,26.048712 q 0,0.04046 -0.0064,0.06814 -0.0064,0.02768 -0.01703,0.04472 -0.01065,0.01703 -0.02555,0.02555 -0.01278,0.0064 -0.02768,0.0064 h -1.439467 q -0.01491,0 -0.027682,-0.0064 -0.012776,-0.0085 -0.025553,-0.02555 -0.010647,-0.01703 -0.017035,-0.04472 -0.00639,-0.02768 -0.00639,-0.06814 0,-0.03833 0.00639,-0.06601 0.00639,-0.02768 0.014906,-0.04472 0.010647,-0.01916 0.023423,-0.02768 0.014906,-0.01065 0.031941,-0.01065 h 0.574935 v -2.095319 l -0.532347,0.317279 q -0.04046,0.02129 -0.066012,0.02555 -0.023423,0.0043 -0.038329,-0.0085 -0.014906,-0.01491 -0.021294,-0.04685 -0.00426,-0.03194 -0.00426,-0.08092 0,-0.0362 0.00213,-0.06175 0.00426,-0.02555 0.010647,-0.04259 0.00639,-0.01704 0.017035,-0.02981 0.012776,-0.01278 0.031941,-0.02555 l 0.6345579,-0.406713 q 0.0085,-0.0064 0.02129,-0.01065 0.01278,-0.0043 0.03194,-0.0085 0.01917,-0.0043 0.04472,-0.0043 0.02555,-0.0021 0.06388,-0.0021 0.05111,0 0.08518,0.0043 0.03407,0.0043 0.05323,0.01278 0.01917,0.0064 0.02555,0.01917 0.0064,0.01065 0.0064,0.02342 v 2.421116 h 0.498277 q 0.01704,0 0.03194,0.01065 0.01491,0.0085 0.02342,0.02768 0.01065,0.01703 0.01491,0.04472 0.0064,0.02768 0.0064,0.06601 z m 2.133649,-1.829146 q 0,0.0085 -0.0021,0.01916 0,0.0085 -0.0021,0.01917 -0.0021,0.01065 -0.0064,0.02342 -0.0021,0.01278 -0.0064,0.02768 l -0.653723,1.820628 q -0.0085,0.02342 -0.02342,0.03833 -0.01278,0.01491 -0.04046,0.02342 -0.02768,0.0085 -0.07027,0.01065 -0.04259,0.0043 -0.106469,0.0043 -0.06388,0 -0.10647,-0.0043 -0.04259,-0.0043 -0.07027,-0.01278 -0.02555,-0.0085 -0.04046,-0.02342 -0.01491,-0.01491 -0.02342,-0.0362 L 11.864713,24.309 q -0.0085,-0.02555 -0.01491,-0.04472 -0.0043,-0.01916 -0.0064,-0.02768 0,-0.01065 0,-0.01703 0,-0.01703 0.0085,-0.02981 0.0085,-0.01278 0.02768,-0.01916 0.02129,-0.0085 0.05323,-0.01065 0.03407,-0.0021 0.08305,-0.0021 0.06175,0 0.09795,0.0043 0.03833,0.0021 0.05749,0.01065 0.02129,0.0085 0.02981,0.02129 0.01065,0.01278 0.01917,0.03194 l 0.540865,1.580007 0.0085,0.02555 0.0064,-0.02555 0.534477,-1.580007 q 0.0043,-0.01917 0.01491,-0.03194 0.01065,-0.01278 0.02981,-0.02129 0.02129,-0.0085 0.05536,-0.01065 0.0362,-0.0043 0.09369,-0.0043 0.04898,0 0.08092,0.0021 0.03194,0.0021 0.04898,0.01065 0.01916,0.0085 0.02555,0.02129 0.0085,0.01065 0.0085,0.02768 z m 2.103837,1.266987 q 0,0.178868 -0.06388,0.319408 -0.06388,0.13841 -0.185257,0.234233 -0.119246,0.09582 -0.295985,0.144798 -0.17674,0.04898 -0.404584,0.04898 -0.212939,0 -0.381161,-0.04472 -0.168222,-0.04472 -0.285338,-0.132022 -0.117117,-0.08731 -0.178869,-0.215068 -0.06175,-0.127764 -0.06175,-0.291727 0,-0.129892 0.04259,-0.238491 0.04259,-0.108599 0.121375,-0.200163 0.08092,-0.09156 0.198033,-0.170351 0.117116,-0.08092 0.264044,-0.153316 -0.127763,-0.06601 -0.225715,-0.13841 -0.09795,-0.07453 -0.166092,-0.159705 -0.06814,-0.08731 -0.104341,-0.185257 -0.03407,-0.09795 -0.03407,-0.212939 0,-0.144798 0.05111,-0.270432 0.05323,-0.127763 0.157574,-0.221457 0.10647,-0.09369 0.268304,-0.146927 0.163963,-0.05536 0.38116,-0.05536 0.20868,0 0.359867,0.05111 0.153316,0.04898 0.251268,0.136281 0.100081,0.08518 0.146928,0.202292 0.04685,0.117116 0.04685,0.251268 0,0.108599 -0.0362,0.20868 -0.03407,0.100081 -0.102211,0.189516 -0.06814,0.08943 -0.168222,0.168221 -0.09795,0.07666 -0.225715,0.144799 0.151187,0.07453 0.268303,0.153316 0.119246,0.07879 0.198033,0.170351 0.08092,0.08943 0.121376,0.191645 0.04259,0.100081 0.04259,0.221457 z m -0.459949,-1.413915 q 0,-0.08943 -0.03194,-0.161834 -0.02981,-0.0724 -0.08943,-0.123504 -0.05962,-0.05111 -0.149057,-0.07666 -0.08731,-0.02768 -0.200163,-0.02768 -0.229974,0 -0.34922,0.10434 -0.117116,0.10434 -0.117116,0.285338 0,0.08305 0.02768,0.155445 0.02981,0.07027 0.08943,0.134152 0.06175,0.06388 0.153316,0.125634 0.09369,0.05962 0.221457,0.125634 0.215068,-0.110728 0.330055,-0.24488 0.114987,-0.134151 0.114987,-0.295985 z m 0.08943,1.452244 q 0,-0.09795 -0.0362,-0.17674 -0.0362,-0.08092 -0.110728,-0.149057 -0.0724,-0.07027 -0.183128,-0.134151 -0.108599,-0.06601 -0.253397,-0.136281 -0.134152,0.06601 -0.236362,0.132022 -0.100082,0.06601 -0.166093,0.136281 -0.06388,0.07027 -0.09795,0.149057 -0.03194,0.07666 -0.03194,0.170351 0,0.206551 0.140539,0.319409 0.142669,0.112857 0.423749,0.112857 0.272562,0 0.410972,-0.112857 0.14054,-0.114987 0.14054,-0.310891 z" stroke="none" gorn="0.3.3"/>
        <path id="1v2" fill="black"  d="m 11.388267,18.830412 q 0,0.04046 -0.0064,0.06814 -0.0064,0.02768 -0.01703,0.04472 -0.01065,0.01703 -0.02555,0.02555 -0.01278,0.0064 -0.02768,0.0064 H 9.8721419 q -0.014906,0 -0.027682,-0.0064 -0.012776,-0.0085 -0.025553,-0.02555 -0.010647,-0.01703 -0.017035,-0.04472 -0.00639,-0.02768 -0.00639,-0.06814 0,-0.03833 0.00639,-0.06601 0.00639,-0.02768 0.014906,-0.04472 0.010647,-0.01916 0.023423,-0.02768 0.014906,-0.01065 0.031941,-0.01065 h 0.5749351 v -2.095319 l -0.5323474,0.317279 q -0.040458,0.02129 -0.066011,0.02555 -0.023423,0.0043 -0.038329,-0.0085 -0.014906,-0.01491 -0.021294,-0.04685 -0.00426,-0.03194 -0.00426,-0.08092 0,-0.0362 0.00213,-0.06175 0.00426,-0.02555 0.010647,-0.04259 0.00639,-0.01703 0.017035,-0.02981 0.012776,-0.01278 0.031941,-0.02555 l 0.6345578,-0.406714 q 0.0085,-0.0064 0.02129,-0.01065 0.01278,-0.0043 0.03194,-0.0085 0.01916,-0.0043 0.04472,-0.0043 0.02555,-0.0021 0.06388,-0.0021 0.0511,0 0.08517,0.0043 0.03407,0.0043 0.05323,0.01278 0.01917,0.0064 0.02555,0.01916 0.0064,0.01065 0.0064,0.02342 v 2.421116 h 0.498277 q 0.01703,0 0.03194,0.01065 0.01491,0.0085 0.02342,0.02768 0.01065,0.01704 0.01491,0.04472 0.0064,0.02768 0.0064,0.06601 z m 2.133649,-1.829146 q 0,0.0085 -0.0021,0.01916 0,0.0085 -0.0021,0.01916 -0.0021,0.01065 -0.0064,0.02342 -0.0021,0.01278 -0.0064,0.02768 l -0.653723,1.820628 q -0.0085,0.02342 -0.02342,0.03833 -0.01278,0.0149 -0.04046,0.02342 -0.02768,0.0085 -0.07027,0.01065 -0.04259,0.0043 -0.106469,0.0043 -0.06388,0 -0.10647,-0.0043 -0.04259,-0.0043 -0.07027,-0.01278 -0.02555,-0.0085 -0.04046,-0.02342 -0.01491,-0.01491 -0.02342,-0.0362 L 11.718323,17.0907 q -0.0085,-0.02555 -0.01491,-0.04472 -0.0043,-0.01916 -0.0064,-0.02768 0,-0.01065 0,-0.01703 0,-0.01703 0.0085,-0.02981 0.0085,-0.01278 0.02768,-0.01916 0.02129,-0.0085 0.05323,-0.01065 0.03407,-0.0021 0.08305,-0.0021 0.06175,0 0.09795,0.0043 0.03833,0.0021 0.05749,0.01065 0.02129,0.0085 0.02981,0.02129 0.01065,0.01278 0.01916,0.03194 l 0.540865,1.580007 0.0085,0.02555 0.0064,-0.02555 0.534477,-1.580007 q 0.0043,-0.01916 0.01491,-0.03194 0.01065,-0.01278 0.02981,-0.02129 0.02129,-0.0085 0.05537,-0.01065 0.0362,-0.0043 0.09369,-0.0043 0.04898,0 0.08092,0.0021 0.03194,0.0021 0.04898,0.01065 0.01916,0.0085 0.02555,0.02129 0.0085,0.01065 0.0085,0.02768 z m 2.039955,1.816369 q 0,0.03833 -0.0064,0.06814 -0.0043,0.02981 -0.01491,0.0511 -0.0085,0.01917 -0.02555,0.02981 -0.01491,0.0085 -0.03407,0.0085 H 13.95844 q -0.02981,0 -0.05323,-0.0064 -0.02129,-0.0085 -0.03833,-0.02555 -0.01491,-0.01703 -0.02342,-0.04898 -0.0064,-0.03194 -0.0064,-0.07879 0,-0.04259 0.0021,-0.07453 0.0043,-0.03194 0.01491,-0.05536 0.01065,-0.02555 0.02555,-0.04898 0.01703,-0.02555 0.04259,-0.05324 l 0.534477,-0.566417 q 0.185257,-0.195904 0.295985,-0.351349 0.112857,-0.155446 0.17248,-0.283209 0.06175,-0.127764 0.08092,-0.232104 0.01916,-0.10434 0.01916,-0.195904 0,-0.09156 -0.02981,-0.17248 -0.02981,-0.08305 -0.0873,-0.144799 -0.05536,-0.06175 -0.140539,-0.09795 -0.08518,-0.0362 -0.195904,-0.0362 -0.129893,0 -0.234233,0.0362 -0.102211,0.0362 -0.180998,0.07879 -0.07666,0.04259 -0.129893,0.07879 -0.0511,0.0362 -0.07666,0.0362 -0.01491,0 -0.02768,-0.0085 -0.01065,-0.0085 -0.01916,-0.02768 -0.0064,-0.01916 -0.01065,-0.0511 -0.0043,-0.03194 -0.0043,-0.07666 0,-0.03194 0.0021,-0.05536 0.0021,-0.02342 0.0064,-0.04046 0.0064,-0.01703 0.01491,-0.03194 0.0085,-0.0149 0.03407,-0.0362 0.02555,-0.02342 0.0873,-0.06175 0.06388,-0.03833 0.157575,-0.07453 0.09582,-0.03833 0.20868,-0.06388 0.114987,-0.02555 0.240621,-0.02555 0.200163,0 0.34922,0.05749 0.151187,0.05536 0.249139,0.153316 0.100081,0.09795 0.149057,0.227845 0.04898,0.129893 0.04898,0.27682 0,0.132023 -0.02342,0.264045 -0.02342,0.129893 -0.100082,0.283209 -0.07453,0.151186 -0.217197,0.338573 -0.14267,0.185256 -0.379032,0.428007 l -0.436525,0.455689 h 1.198847 q 0.01703,0 0.03194,0.01065 0.01704,0.0085 0.02768,0.02768 0.01278,0.01917 0.01703,0.04898 0.0064,0.02768 0.0064,0.06601 z" stroke="none" gorn="0.3.4"/>
        <path id="GND" fill="black"  d="m 11.891716,45.466251 q 0,0.04046 -0.0043,0.0724 -0.0043,0.02981 -0.01278,0.05111 -0.0085,0.01916 -0.02129,0.02768 -0.01278,0.0085 -0.02768,0.0085 -0.02555,0 -0.08517,-0.04046 -0.05962,-0.04046 -0.159705,-0.08943 -0.100081,-0.04898 -0.240621,-0.08943 -0.13841,-0.04046 -0.330055,-0.04046 -0.227845,0 -0.408843,0.08305 -0.180998,0.08305 -0.306632,0.229974 -0.125634,0.146928 -0.193774,0.34922 -0.06601,0.202292 -0.06601,0.438654 0,0.264044 0.0724,0.468466 0.07453,0.204421 0.204421,0.344961 0.129893,0.14054 0.308762,0.212939 0.180998,0.0724 0.396066,0.0724 0.127763,0 0.257656,-0.02981 0.132022,-0.03194 0.24488,-0.09369 v -0.80278 h -0.638817 q -0.0362,0 -0.05536,-0.0362 -0.01703,-0.0362 -0.01703,-0.112858 0,-0.04046 0.0043,-0.06814 0.0043,-0.02981 0.01278,-0.04685 0.01065,-0.01916 0.02342,-0.02768 0.01278,-0.0085 0.03194,-0.0085 h 0.875179 q 0.02342,0 0.04685,0.0085 0.02342,0.0085 0.04259,0.02555 0.01916,0.01703 0.02981,0.04685 0.01065,0.02981 0.01065,0.06814 v 1.049789 q 0,0.05536 -0.01916,0.09582 -0.01916,0.04046 -0.08092,0.0724 -0.06175,0.02981 -0.159704,0.06601 -0.09795,0.0362 -0.202292,0.06175 -0.104341,0.02555 -0.21081,0.03833 -0.10647,0.01278 -0.21081,0.01278 -0.319408,0 -0.570676,-0.09795 -0.251268,-0.100082 -0.425878,-0.283209 -0.1724806,-0.183128 -0.2640443,-0.438654 -0.091564,-0.255527 -0.091564,-0.570677 0,-0.327926 0.097952,-0.5941 0.1000813,-0.266173 0.2789501,-0.45356 0.180998,-0.187386 0.432266,-0.289597 0.253397,-0.10434 0.560029,-0.10434 0.157575,0 0.295986,0.02768 0.13841,0.02768 0.244879,0.06601 0.108599,0.0362 0.180999,0.08092 0.07453,0.04259 0.10221,0.07027 0.02768,0.02768 0.03833,0.06388 0.01065,0.0362 0.01065,0.10434 z m 2.763948,2.229471 q 0,0.04259 -0.01491,0.0724 -0.01278,0.02981 -0.0362,0.04898 -0.02129,0.01917 -0.04898,0.02768 -0.02768,0.0085 -0.05537,0.0085 h -0.117116 q -0.05536,0 -0.09795,-0.01065 -0.04046,-0.01278 -0.07879,-0.04259 -0.0362,-0.03194 -0.07453,-0.08518 -0.0362,-0.05323 -0.08092,-0.136281 l -0.868791,-1.56723 q -0.06814,-0.121376 -0.13841,-0.253398 -0.06814,-0.134151 -0.127763,-0.259785 h -0.0043 q 0.0043,0.153316 0.0064,0.31302 0.0021,0.159704 0.0021,0.317279 v 1.663053 q 0,0.01491 -0.0085,0.02981 -0.0085,0.01278 -0.02981,0.02129 -0.01916,0.0064 -0.05323,0.01065 -0.03194,0.0064 -0.08305,0.0064 -0.05111,0 -0.08518,-0.0064 -0.03194,-0.0043 -0.05111,-0.01065 -0.01916,-0.0085 -0.02768,-0.02129 -0.0085,-0.01491 -0.0085,-0.02981 v -2.542491 q 0,-0.08518 0.04685,-0.121375 0.04685,-0.0362 0.102211,-0.0362 h 0.17461 q 0.06175,0 0.102211,0.01065 0.04259,0.01065 0.07453,0.0362 0.03407,0.02342 0.06388,0.06814 0.03194,0.04259 0.06814,0.108599 l 0.668628,1.209494 q 0.06175,0.110728 0.119246,0.217197 0.05749,0.10434 0.110728,0.206551 0.05324,0.102211 0.10434,0.202292 0.05324,0.09795 0.10434,0.198033 h 0.0021 q -0.0043,-0.168221 -0.0064,-0.34922 0,-0.183127 0,-0.351349 v -1.494831 q 0,-0.01491 0.0085,-0.02768 0.0085,-0.01278 0.02768,-0.02129 0.02129,-0.01065 0.05324,-0.01491 0.03407,-0.0043 0.0873,-0.0043 0.04685,0 0.08092,0.0043 0.03407,0.0043 0.05323,0.01491 0.01916,0.0085 0.02768,0.02129 0.0085,0.01278 0.0085,0.02768 z m 2.851253,-1.266987 q 0,0.357738 -0.09156,0.626041 -0.09156,0.266173 -0.268303,0.442913 -0.17461,0.17461 -0.430137,0.261915 -0.255527,0.0873 -0.609005,0.0873 h -0.583453 q -0.04898,0 -0.09369,-0.03194 -0.04259,-0.03407 -0.04259,-0.117117 v -2.457315 q 0,-0.08305 0.04259,-0.114987 0.04472,-0.03407 0.09369,-0.03407 h 0.623911 q 0.357738,0 0.604747,0.09369 0.247009,0.09156 0.413101,0.266174 0.168222,0.172481 0.253398,0.41949 0.08731,0.247009 0.08731,0.5579 z m -0.38542,0.01491 q 0,-0.223586 -0.05536,-0.415231 -0.05536,-0.193775 -0.17461,-0.334314 -0.117116,-0.14054 -0.298114,-0.219328 -0.180998,-0.07879 -0.466337,-0.07879 h -0.372643 v 2.144295 h 0.376902 q 0.264044,0 0.445043,-0.06601 0.180998,-0.06601 0.302373,-0.202292 0.121375,-0.136281 0.180998,-0.340702 0.06175,-0.206551 0.06175,-0.48763 z" stroke="none" gorn="0.3.5"/>
        <path id="+5v In" fill="black"  d="m 11.22185,10.461052 q 0,0.04046 -0.0064,0.07027 -0.0064,0.02768 -0.01703,0.04685 -0.01065,0.01917 -0.02555,0.02768 -0.01491,0.0085 -0.03194,0.0085 h -0.69844 v 0.775098 q 0,0.01703 -0.0085,0.02981 -0.0085,0.01065 -0.02768,0.01917 -0.01704,0.0085 -0.04685,0.01491 -0.02981,0.0043 -0.07453,0.0043 -0.04259,0 -0.07453,-0.0043 -0.02981,-0.0064 -0.04898,-0.01491 -0.01703,-0.0085 -0.02555,-0.01917 -0.0085,-0.01278 -0.0085,-0.02981 V 10.614368 H 9.4289039 q -0.019165,0 -0.03407,-0.0085 -0.012776,-0.0085 -0.023423,-0.02768 -0.010647,-0.01916 -0.017035,-0.04685 -0.00639,-0.02981 -0.00639,-0.07027 0,-0.03833 0.00639,-0.06601 0.00639,-0.02981 0.017035,-0.04898 0.010647,-0.01916 0.023423,-0.02768 0.014906,-0.0085 0.031941,-0.0085 H 10.127344 V 9.5347672 q 0,-0.017035 0.0085,-0.029811 0.0085,-0.014906 0.02555,-0.023423 0.01916,-0.010647 0.04898,-0.014906 0.03194,-0.00639 0.07453,-0.00639 0.04472,0 0.07453,0.00639 0.02981,0.00426 0.04685,0.014906 0.01916,0.00852 0.02768,0.023423 0.0085,0.012776 0.0085,0.029811 v 0.7750978 h 0.70057 q 0.01703,0 0.02981,0.0085 0.01491,0.0085 0.02555,0.02768 0.01278,0.01916 0.01703,0.04898 0.0064,0.02768 0.0064,0.06601 z m 2.103837,0.340702 q 0,0.221457 -0.07453,0.393937 -0.07453,0.172481 -0.210809,0.291726 -0.136281,0.117117 -0.325797,0.178869 -0.187386,0.06175 -0.41736,0.06175 -0.127764,0 -0.242751,-0.01917 -0.114987,-0.01703 -0.204421,-0.04259 -0.08943,-0.02768 -0.146928,-0.05323 -0.05749,-0.02555 -0.07453,-0.04046 -0.01491,-0.01491 -0.02129,-0.02768 -0.0064,-0.01278 -0.01278,-0.02981 -0.0043,-0.01917 -0.0064,-0.04685 -0.0021,-0.02768 -0.0021,-0.06601 0,-0.0362 0.0021,-0.06388 0.0043,-0.02981 0.01278,-0.04685 0.0085,-0.01916 0.01917,-0.02768 0.01278,-0.0085 0.02768,-0.0085 0.02129,0 0.06601,0.02768 0.04472,0.02555 0.119246,0.05749 0.07666,0.02981 0.187386,0.05749 0.112858,0.02768 0.266174,0.02768 0.142669,0 0.261915,-0.03407 0.119246,-0.03407 0.204421,-0.10647 0.0873,-0.0724 0.136281,-0.180998 0.04898,-0.110728 0.04898,-0.268303 0,-0.132022 -0.04259,-0.232103 -0.04046,-0.102211 -0.127763,-0.168222 -0.08518,-0.06814 -0.217198,-0.100081 -0.132022,-0.03407 -0.315149,-0.03407 -0.129893,0 -0.223586,0.01278 -0.09369,0.01278 -0.17461,0.01278 -0.05962,0 -0.08518,-0.02768 -0.02555,-0.02768 -0.02555,-0.106469 V 9.0705602 q 0,-0.07027 0.03194,-0.1043401 0.03407,-0.03407 0.09582,-0.03407 h 1.22014 q 0.01703,0 0.03194,0.010647 0.01703,0.00852 0.02768,0.027682 0.01065,0.019165 0.01491,0.048976 0.0064,0.029811 0.0064,0.07027 0,0.076658 -0.02129,0.1192458 -0.02129,0.042588 -0.05962,0.042588 h -1.028495 v 0.7729687 q 0.07453,-0.01065 0.151187,-0.01278 0.07879,-0.0021 0.180998,-0.0021 0.236362,0 0.413101,0.05749 0.17674,0.05536 0.293856,0.159704 0.119246,0.10221 0.178869,0.249138 0.06175,0.146928 0.06175,0.325797 z M 15.4785,9.7136359 q 0,0.00852 -0.0021,0.019165 0,0.00852 -0.0021,0.019165 -0.0021,0.010647 -0.0064,0.023423 -0.0021,0.012776 -0.0064,0.027682 l -0.653723,1.8206278 q -0.0085,0.02342 -0.02342,0.03833 -0.01278,0.01491 -0.04046,0.02342 -0.02768,0.0085 -0.07027,0.01065 -0.04259,0.0043 -0.10647,0.0043 -0.06388,0 -0.106469,-0.0043 -0.04259,-0.0043 -0.07027,-0.01278 -0.02555,-0.0085 -0.04046,-0.02342 -0.01491,-0.01491 -0.02342,-0.0362 L 13.674907,9.8030702 q -0.0085,-0.025553 -0.01491,-0.044717 -0.0043,-0.019165 -0.0064,-0.027682 0,-0.010647 0,-0.017035 0,-0.017035 0.0085,-0.029811 0.0085,-0.012776 0.02768,-0.019165 0.02129,-0.00852 0.05324,-0.010647 0.03407,-0.00213 0.08305,-0.00213 0.06175,0 0.09795,0.00426 0.03833,0.00213 0.05749,0.010647 0.02129,0.00852 0.02981,0.021294 0.01065,0.012776 0.01916,0.031941 l 0.540865,1.5800069 0.0085,0.02555 0.0064,-0.02555 0.534477,-1.5800069 q 0.0043,-0.019165 0.01491,-0.031941 0.01065,-0.012776 0.02981,-0.021294 0.02129,-0.00852 0.05536,-0.010647 0.0362,-0.00426 0.09369,-0.00426 0.04898,0 0.08092,0.00213 0.03194,0.00213 0.04898,0.010647 0.01916,0.00852 0.02555,0.021294 0.0085,0.010647 0.0085,0.027682 z m 1.790817,1.9185801 q 0,0.01703 -0.0085,0.02981 -0.0085,0.01278 -0.02981,0.02129 -0.02129,0.0064 -0.05749,0.01065 -0.03407,0.0064 -0.08731,0.0064 -0.0511,0 -0.08731,-0.0064 -0.0362,-0.0043 -0.05749,-0.01065 -0.02129,-0.0085 -0.02981,-0.02129 -0.0085,-0.01278 -0.0085,-0.02981 V 8.987514 q 0,-0.017035 0.0085,-0.029811 0.01065,-0.012776 0.03194,-0.019165 0.02342,-0.00852 0.05749,-0.012776 0.0362,-0.00639 0.08517,-0.00639 0.05324,0 0.08731,0.00639 0.0362,0.00426 0.05749,0.012776 0.02129,0.00639 0.02981,0.019165 0.0085,0.012776 0.0085,0.029811 z m 2.342328,0.0021 q 0,0.01703 -0.0085,0.02981 -0.0085,0.01065 -0.02768,0.01916 -0.01916,0.0085 -0.05323,0.01278 -0.03407,0.0043 -0.08518,0.0043 -0.05324,0 -0.08731,-0.0043 -0.03407,-0.0043 -0.05324,-0.01278 -0.01916,-0.0085 -0.02768,-0.01916 -0.0085,-0.01278 -0.0085,-0.02981 v -1.122188 q 0,-0.163963 -0.02555,-0.264044 -0.02555,-0.100082 -0.07453,-0.172481 -0.04898,-0.0724 -0.127764,-0.1107281 -0.07666,-0.038329 -0.178869,-0.038329 -0.132022,0 -0.264044,0.093693 -0.132022,0.09369 -0.276821,0.274691 v 1.339386 q 0,0.01703 -0.0085,0.02981 -0.0085,0.01065 -0.02768,0.01916 -0.01917,0.0085 -0.05324,0.01278 -0.03407,0.0043 -0.0873,0.0043 -0.0511,0 -0.08518,-0.0043 -0.03407,-0.0043 -0.05536,-0.01278 -0.01916,-0.0085 -0.02768,-0.01916 -0.0064,-0.01278 -0.0064,-0.02981 V 9.7178947 q 0,-0.017035 0.0064,-0.027682 0.0064,-0.012776 0.02555,-0.021294 0.01916,-0.010647 0.04898,-0.012776 0.02981,-0.00426 0.07879,-0.00426 0.04685,0 0.07666,0.00426 0.03194,0.00213 0.04898,0.012776 0.01703,0.00852 0.02342,0.021294 0.0085,0.010647 0.0085,0.027682 V 9.971292 q 0.161834,-0.1809981 0.321538,-0.2640443 0.161834,-0.085176 0.325797,-0.085176 0.191645,0 0.321537,0.066011 0.132023,0.063882 0.212939,0.1724806 0.08092,0.1085988 0.114987,0.2555272 0.0362,0.144798 0.0362,0.349219 z" stroke="none" gorn="0.3.6"/>
    </g>
</svg>
