<?xml version='1.0' encoding='UTF-8' standalone='no'?>
<!-- Created with Inkscape (http://www.inkscape.org/) -->
<svg xmlns="http://www.w3.org/2000/svg" id="svg1" width="32mm" version="1.1"  viewBox="0 0 32 22" gorn="0" height="22mm">
    <desc >
        <referenceFile >PAD-noMask-30x20.svg</referenceFile>
    </desc>
    <defs id="defs1" />
    <g id="copper1"  gorn="0.2">
        <path id="connector0pin" fill="#ffc000" d="M 0.99999998,1 V 21 H 30.999999 V 1 Z"  gorn="0.2.0" stroke="none" style="stroke-width:3.06186"/>
        <path id="connector1pin" fill="#ffc000" d="M 0.99999998,1 V 3.5 H 4.75 V 1 Z"  gorn="0.2.1" stroke="none" style="stroke-width:3.06186"/>
        <path id="connector2pin" fill="#ffc000" d="M 1.0000001,3.5 V 6 H 4.75 V 3.5 Z"  gorn="0.2.2" stroke="none" style="stroke-width:3.06186"/>
        <path id="connector3pin" fill="#ffc000" d="M 1.0000001,6 V 8.5 H 4.75 V 6 Z"  gorn="0.2.3" stroke="none" style="stroke-width:3.06186"/>
        <path id="connector4pin" fill="#ffc000" d="M 1.0000001,8.5 V 11 H 4.75 V 8.5 Z"  gorn="0.2.4" stroke="none" style="stroke-width:3.06186"/>
        <path id="connector5pin" fill="#ffc000" d="m 1.0000001,11 v 2.5 H 4.75 V 11 Z"  gorn="0.2.5" stroke="none" style="stroke-width:3.06186"/>
        <path id="connector6pin" fill="#ffc000" d="M 1.0000001,13.5 V 16 H 4.75 v -2.5 z"  gorn="0.2.6" stroke="none" style="stroke-width:3.06186"/>
        <path id="connector7pin" fill="#ffc000" d="m 1.0000001,16 v 2.5 H 4.75 V 16 Z"  gorn="0.2.7" stroke="none" style="stroke-width:3.06186"/>
        <path id="connector8pin" fill="#ffc000" d="M 0.99999998,18.5 V 21 H 4.75 v -2.5 z"  gorn="0.2.8" stroke="none" style="stroke-width:3.06186"/>
        <path id="connector9pin" fill="#ffc000" d="M 4.75,18.5 V 21 h 3.7499996 v -2.5 z"  gorn="0.2.9" stroke="none" style="stroke-width:3.06186"/>
        <path id="connector10pin" fill="#ffc000" d="M 8.4999996,18.5 V 21 H 12.25 v -2.5 z"  gorn="0.2.10" stroke="none" style="stroke-width:3.06186"/>
        <path id="connector11pin" fill="#ffc000" d="M 12.25,18.5 V 21 H 16 v -2.5 z"  gorn="0.2.11" stroke="none" style="stroke-width:3.06186"/>
        <path id="connector12pin" fill="#ffc000" d="M 16,18.5 V 21 h 3.75 v -2.5 z"  gorn="0.2.12" stroke="none" style="stroke-width:3.06186"/>
        <path id="connector13pin" fill="#ffc000" d="M 19.75,18.5 V 21 h 3.75 v -2.5 z"  gorn="0.2.13" stroke="none" style="stroke-width:3.06186"/>
        <path id="connector14pin" fill="#ffc000" d="M 23.5,18.5 V 21 h 3.75 v -2.5 z"  gorn="0.2.14" stroke="none" style="stroke-width:3.06186"/>
        <path id="connector15pin" fill="#ffc000" d="M 27.25,18.5 V 21 H 31 v -2.5 z"  gorn="0.2.15" stroke="none" style="stroke-width:3.06186"/>
        <path id="connector16pin" fill="#ffc000" d="m 27.25,16 v 2.5 H 31 V 16 Z"  gorn="0.2.16" stroke="none" style="stroke-width:3.06186"/>
        <path id="connector17pin" fill="#ffc000" d="M 27.25,13.5 V 16 H 31 v -2.5 z"  gorn="0.2.17" stroke="none" style="stroke-width:3.06186"/>
        <path id="connector18pin" fill="#ffc000" d="m 27.25,11 v 2.5 H 31 V 11 Z"  gorn="0.2.18" stroke="none" style="stroke-width:3.06186"/>
        <path id="connector19pin" fill="#ffc000" d="M 27.25,8.5 V 11 H 31 V 8.5 Z"  gorn="0.2.19" stroke="none" style="stroke-width:3.06186"/>
        <path id="connector20pin" fill="#ffc000" d="M 27.25,6 V 8.5 H 31 V 6 Z"  gorn="0.2.20" stroke="none" style="stroke-width:3.06186"/>
        <path id="connector21pin" fill="#ffc000" d="M 27.25,3.5 V 6 H 31 V 3.5 Z"  gorn="0.2.21" stroke="none" style="stroke-width:3.06186"/>
        <path id="connector22pin" fill="#ffc000" d="M 27.25,1 V 3.5 H 31 V 1 Z"  gorn="0.2.22" stroke="none" style="stroke-width:3.06186"/>
        <path id="connector23pin" fill="#ffc000" d="m 23.5,1 v 2.5 h 3.75 V 1 Z"  gorn="0.2.23" stroke="none" style="stroke-width:3.06186"/>
        <path id="connector24pin" fill="#ffc000" d="M 19.75,1 V 3.5 H 23.5 V 1 Z"  gorn="0.2.24" stroke="none" style="stroke-width:3.06186"/>
        <path id="connector25pin" fill="#ffc000" d="m 16,1 v 2.5 h 3.75 V 1 Z"  gorn="0.2.25" stroke="none" style="stroke-width:3.06186"/>
        <path id="connector26pin" fill="#ffc000" d="M 12.25,0.99999997 V 3.5 H 16 V 0.99999997 Z"  gorn="0.2.26" stroke="none" style="stroke-width:3.06186"/>
        <path id="connector27pin" fill="#ffc000" d="M 8.5,0.99999997 V 3.5 h 3.75 V 0.99999997 Z"  gorn="0.2.27" stroke="none" style="stroke-width:3.06186"/>
        <path id="connector28pin" fill="#ffc000" d="M 4.75,1 V 3.5 H 8.5 V 1 Z"  gorn="0.2.28" stroke="none" style="stroke-width:3.06186"/>
    </g>
</svg>
