<?xml version='1.0' encoding='UTF-8' standalone='no'?>
<svg xmlns="http://www.w3.org/2000/svg" viewBox="0 0 10.499448 13.027287" version="1.1" width="2.6670001mm" gorn="0" height="3.309mm"  id="svg5">
    <desc >
        <referenceFile >COAXIAL-BWIPX-4-001E.svg</referenceFile>
    </desc>
    <g transform="translate(-4035.1,-3030.4)" >
        <g >
            <g >
                <defs  id="defs5"/>
                <g transform="translate(-9.9004745,-15.1336)" >
                    <g >
                        <g gorn="0.1.0.0.1.0.0"  id="silkscreen">
                            <path d="m 4051.8906,3045.5332 a 0.5,0.5 0 0 0 -0.5,0.5 0.5,0.5 0 0 0 0.5,0.5 h 2.6094 v 0.4844 a 0.5,0.5 0 0 0 0.5,0.5 0.5,0.5 0 0 0 0.5,-0.5 v -0.9844 a 0.50005,0.50005 0 0 0 -0.5,-0.5 z" stroke="none" fill="#000000" gorn="0.1.0.0.1.0.0.0"  id="gge46"/>
                            <path d="m 4055,3054.5508 a 0.5,0.5 0 0 0 -0.5,0.5 v 0.4824 h -2.4121 a 0.5,0.5 0 0 0 -0.5,0.5 0.5,0.5 0 0 0 0.5,0.5 H 4055 a 0.50005,0.50005 0 0 0 0.5,-0.5 v -0.9824 a 0.5,0.5 0 0 0 -0.5,-0.5 z" stroke="none" fill="#000000" gorn="0.1.0.0.1.0.0.1"  id="gge61"/>
                            <path d="m 4045.5,3054.5547 a 0.5,0.5 0 0 0 -0.5,0.5 v 0.9785 a 0.50005,0.50005 0 0 0 0.5,0.5 h 2.4121 a 0.5,0.5 0 0 0 0.5,-0.5 0.5,0.5 0 0 0 -0.5,-0.5 H 4046 v -0.4785 a 0.5,0.5 0 0 0 -0.5,-0.5 z" stroke="none" fill="#000000" gorn="0.1.0.0.1.0.0.2"  id="gge64"/>
                            <path d="m 4045.5,3045.5332 a 0.50005,0.50005 0 0 0 -0.5,0.5 v 0.9805 a 0.5,0.5 0 0 0 0.5,0.5 0.5,0.5 0 0 0 0.5,-0.5 v -0.4805 h 2 a 0.5,0.5 0 0 0 0.5,-0.5 0.5,0.5 0 0 0 -0.5,-0.5 z" stroke="none" fill="#000000" gorn="0.1.0.0.1.0.0.3"  id="gge67"/>
                            <path d="m 4049.9824,3056.5586 c -0.5463,0 -1,0.4536 -1,1 0,0.5464 0.4537,1 1,1 0.5464,0 1,-0.4536 1,-1 0,-0.5464 -0.4536,-1 -1,-1 z" stroke="none" fill="#000000" gorn="0.1.0.0.1.0.0.4"  id="gge70"/>
                        </g>
                    </g>
                </g>
                <g transform="translate(-9.9004745,-15.1336)" >
                    <g >
                        <g gorn="0.1.0.0.2.0.0"  id="copper1">
                            <path d="m 4051.1811,3055.8565 h -2.3622 v -5.9056 h 2.3622 z" stroke="none" fill="#ffc000" gorn="0.1.0.0.2.0.0.0"  id="connector2pad"/>
                            <path d="m 4054.9213,3054.1438 h -2.2835 v -6.2204 h 2.2835 z" stroke="none" fill="#ffc000" gorn="0.1.0.0.2.0.0.1"  id="connector1pad"/>
                            <path d="m 4047.3622,3054.1438 h -2.2835 v -6.2204 h 2.2835 z" stroke="none" fill="#ffc000" gorn="0.1.0.0.2.0.0.2"  id="connector0pad"/>
                            <path d="m 4050.9843,3048.0809 h -1.9686 v -1.9685 h 1.9686 z" stroke="none" fill="#ffc000" gorn="0.1.0.0.2.0.0.3"  id="connector3pin"/>
                        </g>
                    </g>
                </g>
            </g>
        </g>
    </g>
</svg>
