<?xml version='1.0' encoding='UTF-8' standalone='no'?>
<!-- Creator: CorelDRAW 2018 -->
<svg xmlns="http://www.w3.org/2000/svg" width="44.542667mm" version="1.0" xmlns:xml="http://www.w3.org/XML/1998/namespace" viewBox="0 0 3994.7579 896.8388"  text-rendering="geometricPrecision" fill-rule="evenodd" height="10mm" image-rendering="optimizeQuality" clip-rule="evenodd" shape-rendering="geometricPrecision" xml:space="preserve" id="svg5" gorn="0">
    <desc >
        <referenceFile >Logo-MegaDriver-2025-1mmPCB.svg</referenceFile>
    </desc>
    <defs  id="defs5"/>
    <g  id="silkscreen" gorn="0.2">
        <path  stroke="none" fill="#000000" style="stroke-width:1" d="M 258.83685,509.9709 V 65.64723 h 116.10981 c 21.36496,0 40.44712,5.042247 57.22418,15.106695 16.55657,9.924148 30.11763,24.398345 40.67206,43.386955 l 2.06011,4.11798 2.0601,-4.11798 C 487.51085,105.15227 501.0786,90.678073 517.63518,80.753925 534.41223,70.696157 553.50106,65.64723 574.85936,65.64723 h 116.10976 v 50.67415 c 2.68147,-3.30953 5.53,-6.4743 8.54553,-9.49653 27.41394,-27.442839 66.69181,-41.17762 117.80695,-41.17762 h 201.6922 v 50.97037 c 2.7527,-3.41644 5.6814,-6.6792 8.7882,-9.79275 27.4118,-27.442839 66.6918,-41.17762 117.807,-41.17762 h 201.6943 v 308.52148 l 87.5512,-240.83864 1.3073,-3.21155 c 10.2894,-20.63446 23.6679,-36.442714 40.1086,-47.409155 l -0.04,-0.05793 c 17.0087,-11.336155 36.5318,-17.004229 58.5426,-17.004229 24.267,0 44.9683,5.71484 62.0839,17.124495 17.3026,11.549955 29.866,28.293599 37.6275,50.206449 l 103.7202,275.37051 V 65.64723 h 201.6944 c 51.1151,0 90.393,13.737008 117.8068,41.17762 3.1069,3.10687 6.0356,6.37631 8.7861,9.79275 V 65.64723 h 230.36 c 20.5944,0 40.309,4.2427 59.1417,12.723661 18.1134,8.153561 35.171,20.249169 51.133,36.268999 5.9531,5.97987 11.3695,12.1936 16.2381,18.64341 V 65.809811 h 151.479 l -0.056,-0.162581 h 449.6154 l 132.2966,-0.05568 3.4632,-0.0245 h 50.2867 349.5387 c 20.5922,0 40.3068,4.24048 59.1418,12.723661 18.1133,8.153561 35.171,20.249169 51.1307,36.268989 16.0733,16.12229 28.1911,33.99509 36.3157,53.565 8.2004,19.74361 12.314,40.897 12.314,63.41341 0,21.94179 -2.9577,41.61859 -8.8507,59.03928 -6.2829,18.55877 -15.8996,34.32918 -28.8193,47.30004 v 0.12027 c -9.3784,9.38073 -18.0554,17.71246 -26.053,25.00412 l -0.686,0.62136 81.451,176.71479 h -71.5313 l 0.04,0.0802 h -106.1322 -17.4296 -22.2358 -21.2269 -96.6669 v -0.0802 h -38.8992 v 0.0802 h -211.1353 c -46.5361,-1.61245 -82.6648,-15.28933 -108.3638,-41.01727 -27.3315,-27.37825 -41.0173,-66.65611 -41.0173,-117.80687 V 263.83834 l -78.8497,209.49608 c -7.8439,21.92621 -20.434,38.69437 -37.7656,50.26436 l 0.04,0.0579 c -14.973,9.98205 -32.8235,15.57218 -53.5093,16.76147 h -16.3316 c -18.8283,-1.19152 -35.7389,-6.77942 -50.7187,-16.76147 l 0.04,-0.0579 c -16.3004,-10.87513 -29.6566,-26.69229 -40.044,-47.40916 l -1.4254,-3.20931 L 2612.38,169.14696 v 371.2712 h -189.0198 -20.855 -120.5974 -4.2583 -22.14 -28.7391 -89.1547 -71.1283 v -50.72984 c -2.7504,3.41644 -5.6814,6.68811 -8.786,9.79274 -25.3248,25.35379 -60.7764,39.00839 -106.3348,40.9371 h -817.2319 c -45.5562,-1.92648 -81.01,-15.58109 -106.3327,-40.9371 -3.1068,-3.11131 -6.0355,-6.3763 -8.7882,-9.79274 v 50.72984 H 805.8474 c -45.55627,-1.92648 -81.00788,-15.58109 -106.33275,-40.9371 -3.01326,-3.02 -5.8618,-6.18699 -8.54553,-9.4943 v 19.98414 30.44726 H 619.35094 501.45721 494.42613 454.89881 447.85659 329.96286 289.27966 258.8324 V 509.9709 Z m 101.57548,0 h 57.00146 V 381.75436 l 57.13955,128.21654 h 0.22049 L 531.9067,381.75436 V 509.9709 h 57.00145 V 167.6325 c -9.49875,0 -15.82828,3.16477 -18.99973,9.49876 l -95.24594,204.6231 -95.2504,-204.6231 c -3.16477,-6.33622 -9.49877,-9.49876 -18.99975,-9.49876 z m 627.9181,-128.29672 h -42.79674 v -0.0824 H 831.36814 c -9.49874,0 -14.29374,-4.71263 -14.29374,-14.12453 h 128.45702 v -57.0037 H 760.07293 v 71.21063 c 0,37.91931 19.00194,56.91905 57.00147,56.91905 H 988.32823 V 381.67418 Z M 289.28411,509.9709 V 96.09448 h 85.66478 c 31.75236,0 55.53823,14.2938 71.37766,42.79453 l 28.58091,57.08387 28.58091,-57.08387 c 15.83721,-28.50073 39.62976,-42.79453 71.37767,-42.79453 h 85.66478 V 509.9709 H 603.52933 V 153.09595 h -14.2871 c -19.07991,0 -33.37594,9.50098 -42.87693,28.58313 L 474.90969,338.63689 403.45407,181.67908 c -9.49876,-19.07992 -23.7881,-28.58313 -42.87025,-28.58313 H 346.29003 V 509.9709 H 289.28856 Z M 688.94692,224.63396 c 0,-85.66477 42.79454,-128.53948 128.37688,-128.53948 h 171.24716 v 57.00147 H 817.3238 c -47.58067,0 -71.37767,23.79478 -71.37767,71.45561 v 157.2028 c 0,47.66083 23.7948,71.45561 71.37767,71.45561 h 171.24716 v 57.00147 H 817.3238 c -85.58461,0 -128.37688,-42.87471 -128.37688,-128.53726 z m 71.12821,71.21509 v -71.21509 c 0,-37.91931 19.00194,-56.92128 57.00147,-56.92128 h 171.25383 v 57.00146 H 831.37041 c -9.49874,0 -14.29381,4.71486 -14.29381,14.12676 h 128.45709 v 57.00815 z M 1017.232,224.63396 c 0,-85.66477 42.7968,-128.53948 128.377,-128.53948 h 171.2471 v 57.00147 H 1145.609 c -47.5807,0 -71.3755,23.79478 -71.3755,71.45561 v 157.2028 c 0,47.66083 23.7925,71.45561 71.3755,71.45561 h 114.2457 V 295.84682 h -99.8784 v -57.00815 h 156.8776 v 271.37054 h -171.2472 c -85.5823,0 -128.3769,-42.8747 -128.3769,-128.53726 V 238.83867 224.63174 Z m 71.1283,0.0802 c 0,-37.99949 19.0865,-57.00146 57.1685,-57.00146 h 171.3273 v 57.00146 h -157.2006 c -9.5009,0 -14.296,4.79281 -14.296,14.2938 V 367.3002 c 0,9.49877 4.7928,14.29381 14.4542,14.29381 h 28.9105 v -14.12454 h -28.5809 v -57.00369 h 85.5824 v 128.12968 h -100.119 c -38.1621,0 -57.2487,-18.99974 -57.2487,-57.00145 V 224.71636 Z m 979.9133,-0.0802 v 157.04022 c 0,85.66478 -42.79,128.53726 -128.3768,128.53726 H 1768.6496 V 239.08811 h 57.0015 v 214.12186 h 114.2457 c 47.5873,0 71.3776,-23.79478 71.3776,-71.45561 v -157.2028 c 0,-47.66083 -23.7881,-71.45561 -71.3776,-71.45561 H 1768.6496 V 96.09448 h 171.2472 c 85.589,0 128.3768,42.87693 128.3768,128.53948 z m -71.1282,0.0802 v 156.87763 c 0,38.00172 -19.0799,57.00146 -57.2486,57.00146 h -100.119 V 238.8409 h 57.0015 v 142.75087 h 28.9105 c 9.6614,0 14.4542,-4.7928 14.4542,-14.29379 V 239.00571 c 0,-9.49876 -4.7928,-14.2938 -14.2938,-14.2938 h -157.2028 v -57.00146 h 171.4142 c 38.0818,0 57.0838,19.00198 57.0838,57.00146 z m 428.1636,6.90414 c 0,37.43157 -9.5857,65.69177 -28.748,84.93205 -19.16,19.16232 -35.4004,32.07307 -48.7142,38.73222 l 77.4622,154.68613 h -57.0015 l -99.8784,-199.83475 h 28.5007 c 16.8083,0 32.886,-7.71036 48.3134,-23.14445 15.3473,-15.34501 23.0643,-33.85701 23.0643,-55.37343 0,-21.27811 -7.7148,-39.62976 -23.0643,-55.21752 -15.4252,-15.50759 -31.5051,-23.30481 -48.3134,-23.30481 h -199.995 V 96.092253 h 199.9149 c 32.6364,0 62.1996,13.316087 88.7471,39.952697 26.4696,26.55198 39.71,58.46247 39.71,95.57333 z m -71.616,0.16258 c 0,17.70132 -6.256,32.8058 -18.7593,45.30897 -12.5855,12.50318 -25.3359,18.75922 -38.329,18.75922 H 2153.9384 V 509.9709 h -57.0014 v -271.13 h 185.4585 c 9.501,0 14.2871,-2.35409 14.2871,-7.06004 0,-4.71485 -4.7861,-7.06672 -14.2871,-7.06672 H 2096.937 v -57.00146 h 199.6677 c 12.9931,0 25.8259,6.33621 38.329,19.00197 12.5033,12.66575 18.7593,27.69005 18.7593,45.06621 z m -0.167,278.43058 h -57.0839 l -71.3754,-142.7442 v 142.7442 h -57.0015 V 310.37669 h 85.5891 z m 100.2837,0 V 96.254833 h 57.0037 V 510.21144 Z m 71.1282,0 V 96.254833 h 57.0015 V 510.21144 Z M 2787.0458,153.09372 V 96.092253 h 244.9766 L 2894.0622,462.62855 c -11.1224,31.74568 -34.9172,47.58066 -71.3755,47.58066 -31.6655,0 -55.4558,-15.83498 -71.371,-47.58066 L 2618.1438,96.092253 h 57.0883 l 128.4526,347.616727 c 4.7126,6.334 11.1291,9.49876 19.002,9.49876 9.4988,0 15.9152,-3.16476 19.0866,-9.49876 l 114.1655,-290.61526 h -168.8953 z m 0,14.61673 h 145.1004 l -99.9563,261.70251 c -1.5411,6.33622 -4.7081,9.50099 -9.4987,9.50099 -4.7082,0 -7.8707,-3.16477 -9.501,-9.50099 L 2689.5259,96.090027 h 57.0816 l 40.4405,102.553193 v -30.935 z m 35.6432,123.58409 26.2268,-66.58263 h -52.3691 z m 209.0974,-66.74521 c 0,-85.66478 42.7945,-128.537257 128.3769,-128.537257 h 171.2471 v 57.001467 h -171.2471 c -47.5806,0 -71.3777,23.79478 -71.3777,71.45561 v 157.2028 c 0,47.66083 23.7948,71.45561 71.3777,71.45561 h 171.2471 v 57.00147 h -171.2471 c -85.5846,0 -128.3769,-42.87693 -128.3769,-128.53948 z m 71.1282,71.21732 v -71.21732 c 0,-37.91931 19.002,-56.91905 57.0015,-56.91905 h 171.2538 v 57.00146 h -156.96 c -9.4988,0 -14.2938,4.71263 -14.2938,14.12453 h 128.457 v 57.01038 z m 0,14.61449 h 185.4585 v 49.37796 7.62351 h -128.457 c 0,9.41413 4.7928,14.12676 14.2938,14.12676 h 156.96 v 57.00146 h -171.2538 c -37.9995,0 -57.0015,-19.00197 -57.0015,-56.92128 z m 585.5311,-78.84526 c 0,37.43156 -9.5878,65.68954 -28.7479,84.93204 -19.1601,19.1601 -33.2891,32.07308 -42.5473,38.73222 l 71.2952,154.68836 h -57.0014 l -83.7205,-177.01767 c -3.8151,-8.28052 -2.8418,-13.31609 2.8441,-15.26707 23.1378,-5.02888 42.3847,-15.2626 57.8121,-30.69446 15.345,-15.34723 23.0643,-33.857 23.0643,-55.37342 0,-21.28034 -7.717,-39.62977 -23.1445,-55.21752 -15.3472,-15.50759 -31.5051,-23.30482 -48.3133,-23.30482 H 3417.073 V 509.8885 h -57.0038 V 359.7591 238.7585 96.014307 h 199.9173 c 32.6364,0 62.1973,13.313853 88.7471,39.952693 26.4695,26.54976 39.7099,58.46247 39.7099,95.57333 z m -71.6182,0.32071 c 0,17.78149 -6.2538,32.88597 -18.8394,45.47154 -12.5031,12.50318 -33.8636,22.57431 -64.0682,30.21119 -6.9843,1.86411 -8.8507,6.32953 -5.6836,13.31384 l 88.5912,189.35605 h -57.1684 L 3488.2034,367.46502 V 510.20921 H 3431.202 V 167.63028 h 128.5395 c 12.9931,0 25.7435,6.33398 38.2489,18.99974 12.5855,12.75038 18.8393,27.77246 18.8393,45.22879 z m -128.6263,-7.22708 v 30.45171 c 10.8016,-1.8708 25.4985,-5.11797 43.9348,-9.50099 18.4319,-4.46319 27.6834,-11.45196 27.6834,-20.95072 z M 1499.0408,453.20552 h 168.8953 L 1553.7705,162.59248 c -3.1648,-6.33622 -9.501,-9.50099 -19.0019,-9.50099 -7.9576,0 -14.2872,3.16477 -19.08,9.50099 l -128.4593,347.6145 h -57.0816 l 133.2454,-366.53629 c 15.835,-31.74569 39.6298,-47.580663 71.3777,-47.580663 36.4583,0 60.253,15.834973 71.2952,47.580663 l 138.0405,366.53629 H 1499.043 v -57.00146 z m 0,-14.61674 v -30.93276 l -40.436,102.55096 h -57.0816 l 123.6642,-333.32293 c 1.6236,-6.33622 4.7928,-9.49876 9.5812,-9.49876 4.7126,0 7.8773,3.16477 9.4987,9.49876 l 99.8784,261.7025 h -145.1072 z m 35.73,-123.58409 -26.2268,66.58263 h 52.3756 z" id="SilkLOGO" gorn="0.2.0"/>
        <path  stroke="none" fill="#000000" style="stroke-width:1" d="m 2726.8061,837.23605 13.5721,-2.1826 c 0.7528,5.4342 2.8842,9.59447 6.3697,12.50534 3.4832,2.8842 8.374,4.34293 14.6122,4.34293 6.3184,0 10.9954,-1.27393 14.0667,-3.84847 3.0423,-2.5456 4.5767,-5.5656 4.5767,-9.02213 0,-3.09354 -1.3786,-5.53667 -4.1068,-7.30727 -1.9264,-1.22047 -6.6057,-2.755 -14.0422,-4.65473 -10.0354,-2.52334 -16.9797,-4.70594 -20.8794,-6.55447 -3.8752,-1.8708 -6.8128,-4.41867 -8.8128,-7.6948 -2.0044,-3.25167 -3.0156,-6.86407 -3.0156,-10.815 0,-3.61467 0.8308,-6.94427 2.4677,-10.01101 1.6637,-3.069 3.8997,-5.61686 6.7327,-7.64133 2.1314,-1.5612 5.0444,-2.8886 8.7103,-3.97987 3.6904,-1.08906 7.6191,-1.637 11.8306,-1.637 6.3429,0 11.9085,0.90647 16.6902,2.7528 4.8129,1.8218 8.3496,4.3184 10.6369,7.4386 2.2605,3.147 3.8462,7.3318 4.7081,12.58334 l -13.4185,1.8708 c -0.5991,-4.21147 -2.3674,-7.51214 -5.2761,-9.87954 -2.9131,-2.36526 -7.0177,-3.53453 -12.3517,-3.53453 -6.265,0 -10.7616,1.04013 -13.4408,3.12027 -2.6793,2.08233 -4.0312,4.52333 -4.0312,7.3072 0,1.7684 0.5479,3.3786 1.6637,4.81067 1.118,1.45653 2.8597,2.67926 5.2516,3.63913 1.3808,0.51893 5.383,1.6904 12.0911,3.5122 9.6704,2.5724 16.4319,4.7038 20.2804,6.34293 3.8485,1.63694 6.8641,4.05567 9.0467,7.17587 2.2093,3.14474 3.3006,7.04667 3.3006,11.72367 0,4.55007 -1.3251,8.83954 -4.0022,12.87067 -2.6748,4.02887 -6.5233,7.15133 -11.5433,9.36067 -5.0444,2.20926 -10.737,3.3006 -17.0822,3.3006 -10.5032,0 -18.5409,-2.1826 -24.0531,-6.52774 -5.5099,-4.3652 -9.0221,-10.815 -10.5544,-19.36947 z M 582.67662,864.07752 v -10.2716 c -5.12243,7.98433 -12.66575,11.98427 -22.62107,11.98427 -6.44981,0 -12.37624,-1.76387 -17.75924,-5.32507 -5.4075,-3.53893 -9.59453,-8.50773 -12.58335,-14.8484 -2.96655,-6.3696 -4.44538,-13.67687 -4.44538,-21.944 0,-8.06221 1.35188,-15.36507 4.03113,-21.94627 2.70375,-6.55001 6.73488,-11.59447 12.11342,-15.07774 5.35628,-3.51 11.39184,-5.2538 18.0176,-5.2538 4.88857,0 9.23149,1.04227 13.02654,3.09347 3.79727,2.05786 6.88855,4.7594 9.28049,8.06226 v -40.17093 h 13.73255 v 111.69781 z m -43.36914,-40.37807 c 0,10.34953 2.18261,18.07327 6.57676,23.19567 4.36742,5.1202 9.5433,7.6658 15.49646,7.6658 6.0066,0 11.10452,-2.44313 15.31604,-7.33173 4.18703,-4.88854 6.2939,-12.34727 6.2939,-22.38501 0,-11.02433 -2.13137,-19.1356 -6.4253,-24.30927 -4.26274,-5.17367 -9.53661,-7.75047 -15.80824,-7.75047 -6.10906,0 -11.20476,2.47214 -15.31383,7.43867 -4.08013,4.96654 -6.13579,12.79274 -6.13579,23.47634 z m 72.72284,-0.10467 c 0,-14.9486 4.16253,-26.0242 12.50545,-33.22674 6.942,-5.97986 15.44522,-8.97313 25.45399,-8.97313 11.1023,0 20.20236,3.64133 27.27356,10.92187 7.04447,7.2538 10.58113,17.316 10.58113,30.13327 0,10.39853 -1.559,18.5632 -4.6792,24.5186 -3.12027,5.95534 -7.67027,10.58334 -13.65013,13.8862 -5.95317,3.3006 -12.47869,4.93754 -19.52536,4.93754 -11.33615,0 -20.48524,-3.6102 -27.48074,-10.86394 -6.99768,-7.2538 -10.48092,-17.7058 -10.48092,-31.33367 z m 14.04218,0.0267 c 0,10.34953 2.26277,18.09553 6.7861,23.22014 4.55005,5.14693 10.24484,7.71926 17.13339,7.71926 6.81059,0 12.48089,-2.57233 17.02873,-7.7482 4.52333,-5.17367 6.78606,-13.05327 6.78606,-23.6322 0,-9.98427 -2.29173,-17.54987 -6.83733,-22.67234 -4.55447,-5.14693 -10.22032,-7.72373 -16.97969,-7.72373 -6.88855,0 -12.58334,2.55013 -17.13339,7.67473 -4.5211,5.1202 -6.7861,12.84394 -6.7861,23.16454 z m 77.86749,-55.64068 v -15.59893 h 13.7304 v 15.59893 z m 0,96.09888 v -80.96327 h 13.7304 v 80.96327 z m 34.6588,0 v -80.96327 h 12.325 v 11.49206 c 5.92867,-8.815 14.50981,-13.2092 25.71461,-13.2092 4.88853,0 9.36067,0.8842 13.44073,2.62807 4.0846,1.7394 7.1514,4.0556 9.18034,6.88627 2.02673,2.8374 3.45653,6.216 4.265,10.11573 0.4922,2.5456 0.75053,6.9954 0.75053,13.33834 v 49.712 h -13.72813 v -49.1908 c 0,-5.588 -0.51894,-9.775 -1.58574,-12.5344 -1.0646,-2.7572 -2.96206,-4.96654 -5.66806,-6.62801 -2.70154,-1.63913 -5.90194,-2.47213 -9.54107,-2.47213 -5.82174,0 -10.83947,1.84853 -15.07994,5.56567 -4.23606,3.6926 -6.34293,10.73927 -6.34293,21.0866 v 44.17307 h -13.72807 z m 84.23941,6.70821 13.26267,1.87073 c 0.5456,4.10913 2.1046,7.09567 4.65467,8.99547 3.40307,2.52333 8.0578,3.7928 13.9642,3.7928 6.34067,0 11.25594,-1.26947 14.71247,-3.7928 3.45873,-2.5234 5.79947,-6.0868 7.01994,-10.6346 0.7016,-2.78174 1.04006,-8.63241 0.98886,-17.54987 -6.0066,7.06893 -13.46753,10.60566 -22.41173,10.60566 -11.12901,0 -19.75914,-4.0022 -25.84367,-12.03546 -6.10907,-8.01107 -9.15134,-17.63007 -9.15134,-28.83707 0,-7.72147 1.40307,-14.84614 4.187,-21.37167 2.78174,-6.52774 6.83734,-11.54327 12.1424,-15.10894 5.305,-3.5612 11.54547,-5.32953 18.71907,-5.32953 9.54107,0 17.42074,3.90193 23.60994,11.7036 v -9.98427 h 12.6346 v 69.91448 c 0,12.61226 -1.27167,21.52973 -3.84847,26.78133 -2.54566,5.2516 -6.63246,9.40967 -12.16693,12.4542 -5.5656,3.04227 -12.40074,4.57674 -20.5142,4.57674 -9.64794,0 -17.42067,-2.15807 -23.34934,-6.4988 -5.95313,-4.3162 -8.815,-10.84394 -8.60787,-19.552 z m 11.23594,-48.56954 c 0,10.5812 2.10467,18.30486 6.3162,23.16453 4.2382,4.86407 9.51654,7.3072 15.86167,7.3072 6.3206,0 11.59893,-2.41866 15.8862,-7.25153 4.2672,-4.83514 6.39854,-12.42747 6.39854,-22.77694 0,-9.87967 -2.21154,-17.3428 -6.60347,-22.3628 -4.39634,-5.01554 -9.6992,-7.5144 -15.8884,-7.5144 -6.10907,0 -11.28047,2.47213 -15.57214,7.4142 -4.265,4.93753 -6.3964,12.26927 -6.3964,22.022 z m 135.95142,41.85913 -24.46294,-80.96327 h 14.35167 l 12.92194,46.721 4.579,17.39394 c 0.1826,-0.85747 1.58573,-6.4186 4.187,-16.68794 l 12.81947,-47.427 h 14.0643 l 12.1936,47.01054 3.98,15.414 4.6524,-15.6234 13.991,-46.80114 h 13.3384 l -25.4051,80.96327 h -14.1958 l -12.8461,-48.43587 -3.2494,-13.85953 -16.38064,62.2954 h -14.53433 z m 98.10114,0 V 752.37964 h 13.7281 v 40.19767 c 6.3674,-7.4632 14.4007,-11.18247 24.1288,-11.18247 5.9532,0 11.1268,1.17147 15.5454,3.53887 4.3942,2.36527 7.5412,5.61467 9.4409,9.77273 1.8953,4.16027 2.8329,10.22034 2.8329,18.12221 v 51.2466 h -13.728 v -51.19534 c 0,-6.83733 -1.4811,-11.82833 -4.4209,-14.9508 -2.9621,-3.118 -7.1247,-4.6792 -12.5321,-4.6792 -4.0312,0 -7.8284,1.04227 -11.3896,3.14693 -3.5612,2.10687 -6.0846,4.96427 -7.6191,8.57894 -1.5033,3.59013 -2.2583,8.55447 -2.2583,14.8996 v 44.19987 h -13.7281 z m 139.6462,-10.13793 c -5.0957,4.34067 -10.011,7.38293 -14.7147,9.178 -4.7059,1.79287 -9.7504,2.6748 -15.1579,2.6748 -8.8952,0 -15.7303,-2.15587 -20.5142,-6.49653 -4.7861,-4.3184 -7.1758,-9.85734 -7.1758,-16.59001 0,-3.95093 0.9086,-7.5656 2.7037,-10.84166 1.8173,-3.2784 4.1848,-5.87747 7.0957,-7.85067 2.9354,-1.97773 6.2137,-3.48327 9.8818,-4.50107 2.7015,-0.70153 6.7838,-1.37413 12.2203,-2.0534 11.0778,-1.29847 19.267,-2.8864 24.4897,-4.7038 0.053,-1.873 0.078,-3.069 0.078,-3.5634 0,-5.56567 -1.2984,-9.48987 -3.8997,-11.7794 -3.5078,-3.09347 -8.7371,-4.6302 -15.6502,-4.6302 -6.4764,0 -11.2582,1.147 -14.3272,3.40753 -3.0934,2.2628 -5.3562,6.26714 -6.8417,12.03994 l -13.4141,-1.87527 c 1.2227,-5.7416 3.2249,-10.39854 6.0311,-13.933 2.8085,-3.53447 6.8641,-6.24267 12.1691,-8.16247 5.2784,-1.89973 11.4408,-2.86187 18.4096,-2.86187 6.9174,0 12.5566,0.8062 16.8995,2.4454 4.3139,1.63694 7.5121,3.66807 9.5411,6.13574 2.0266,2.47213 3.4565,5.58793 4.2894,9.36073 0.441,2.34067 0.6748,6.55447 0.6748,12.61227 v 18.20027 c 0,12.71027 0.2851,20.748 0.8575,24.15334 0.5479,3.40746 1.6949,6.65686 3.3563,9.77713 h -14.3517 c -1.3786,-2.8864 -2.2627,-6.26493 -2.6547,-10.13793 z m -1.0935,-30.42274 c -4.991,2.02667 -12.4787,3.74607 -22.4629,5.14914 -5.6659,0.8062 -9.6725,1.71713 -12.0132,2.72826 -2.3385,1.01554 -4.1336,2.4966 -5.4098,4.42307 -1.2716,1.94873 -1.922,4.10907 -1.922,6.4988 0,3.6124 1.3786,6.65474 4.1581,9.0734 2.7817,2.4164 6.8395,3.63914 12.1691,3.63914 5.2761,0 9.982,-1.14474 14.1178,-3.45654 4.1069,-2.28726 7.1492,-5.4342 9.0734,-9.41413 1.481,-3.09347 2.2071,-7.64134 2.2071,-13.65014 l 0.078,-4.991 z m 64.7675,28.31587 1.873,12.1134 c -3.8485,0.8062 -7.3072,1.22494 -10.3228,1.22494 -4.9642,0 -8.815,-0.78174 -11.57,-2.36747 -2.7282,-1.58573 -4.6547,-3.63913 -5.7705,-6.21373 -1.1202,-2.57234 -1.6637,-7.98207 -1.6637,-16.22247 v -46.64528 h -10.1401 v -10.60786 h 10.1401 V 763.0922 l 13.7282,-8.2382 v 28.26021 h 13.7258 v 10.60786 h -13.7258 v 47.42474 c 0,3.92647 0.2338,6.44981 0.7282,7.56561 0.4655,1.1158 1.2472,2.00446 2.3363,2.67926 1.0957,0.65034 2.6547,0.9866 4.6814,0.9866 1.5056,0 3.51,-0.1826 5.9777,-0.5456 z m 71.2262,9.97754 h 2.2116 v 0 h 7.1491 7.2538 17.8906 v -10.73927 -10.737 -10.73927 -7.1736 -17.89074 -7.22927 -24.98627 l 55.9258,89.49322 h 1.4298 v 0 h 7.1736 7.1514 17.8884 v -10.73927 -7.1736 -14.30047 -10.815 -14.24707 -7.22934 -10.76373 -7.15133 -17.88621 -7.17806 -14.32721 h -7.1514 7.1514 -7.1514 -7.1513 -7.2538 -14.2983 v 82.42655 L 1377.176,739.9967 h -7.1514 7.1514 -7.1514 -7.2538 -7.1513 -12.9486 V 861.81019 Z M 1476.3662,746.3953 v -7.22926 25.29807 h 7.2294 -7.2294 7.2294 7.227 7.2538 18.0443 v -7.22934 7.22934 -7.22934 -18.071 h -7.2271 7.2271 -7.2271 -7.256 -7.227 -18.0444 v 7.22933 z m 0,115.72669 h 7.2294 -7.2294 7.2294 7.227 7.2538 18.0443 v -7.25374 7.25374 -7.25374 -7.22933 -7.22707 -18.07327 -7.22927 -18.04433 -3.66587 3.66587 -3.66587 l 0.2339,-14.47867 h -11.0489 7.2293 -7.2293 -7.2293 -7.2538 -14.4542 v 83.19935 z m 89.364,-73.89428 0.078,-10.21367 h -11.0511 7.2293 -7.2293 -7.3295 -7.3072 -11.5678 v 84.03001 h 4.265 v 0 h 7.305 7.3072 18.227 v -14.639 -7.305 -18.27813 -7.22927 -14.63687 c 3.7438,-6.65467 9.4096,-9.69694 16.9797,-9.1268 10.7103,0.85966 16.0421,5.1202 15.9887,12.79047 v 58.4224 h 7.3072 -7.3072 7.3072 7.3318 7.305 14.561 v -10.97093 -7.305 -7.32954 -7.30946 -18.20021 -3.66586 3.66586 -7.30726 1.8218 1.8196 -3.6414 c -0.677,-21.52754 -14.2002,-31.22454 -40.6141,-29.09314 -11.0733,1.19373 -20.6679,5.77053 -28.7814,13.69913 z m 101.217,-16.29827 h -6.942 -13.7816 v 13.85727 h 20.7236 v 76.10148 h 6.942 -6.942 6.942 6.8395 6.942 13.7772 v -10.37407 -6.91527 -17.28927 -6.942 -13.85507 -6.94426 -13.77707 h 6.9442 13.777 v -13.85727 h -6.942 6.942 -6.942 -13.7815 v -17.29154 0 h -34.5006 v 17.29154 z m 107.9295,3.35187 c -28.0286,1.3274 -43.9148,15.36947 -47.6074,42.12194 l 0.08,5.9532 c 3.795,17.8104 12.0377,29.19554 24.699,34.11087 12.688,4.91307 26.2602,5.82173 40.7656,2.70147 14.4831,-3.1202 23.9752,-13.77707 28.4472,-31.95501 v 0 h -6.6302 6.6302 -6.6302 -6.6324 -6.6302 -12.4786 c 0.9643,10.66134 -0.9889,17.49647 -5.824,20.48974 -4.8618,2.991 -9.7482,3.3006 -14.6635,0.88413 -4.942,-2.41866 -7.1759,-12.84613 -6.7081,-31.27794 v 0 h 9.9063 9.9041 6.6324 16.5098 6.628 10.7392 c -1.4031,-27.77247 -17.1334,-42.12193 -47.1374,-43.03287 z m 0.441,9.28273 c 8.4498,1.069 12.7147,7.90634 12.8194,20.48967 h -6.6324 -6.6302 -13.1825 c 0.2606,-13.1802 4.8107,-20.01973 13.6235,-20.48967 z m 89.5957,3.66587 0.082,-10.21367 h -11.0533 7.2293 -7.2293 -7.3318 -7.305 -11.57 v 84.03008 h 4.265 v 0 h 7.3072 7.305 18.2292 v -14.639 -7.30507 -18.27813 -7.22927 -14.6368 c 3.7438,-6.65474 9.4119,-9.69701 16.9775,-9.12687 10.7125,0.85973 16.0421,5.1202 15.9908,12.79047 v 58.4224 h 7.3051 -7.3051 7.3051 7.334 7.305 14.5611 v -10.97086 -7.30501 -7.32953 -7.30947 -18.20027 -3.66586 3.66586 -7.30726 1.8218 1.8196 -3.6414 c -0.6748,-21.52754 -14.198,-31.22448 -40.612,-29.09314 -11.0756,1.1938 -20.6678,5.77053 -28.7836,13.6992 z m 250.1503,36.63654 c 0,24.36267 -16.2515,36.55847 -48.7522,36.55847 H 1944.4201 V 739.5335 h 121.8914 c 32.5007,0 48.7522,12.19134 48.7522,36.58301 z m -67.0571,6.08453 c 16.2515,0 24.3872,-6.08453 24.3872,-18.276 v -24.3894 c 0,-12.16907 -8.138,-18.28034 -24.3872,-18.28034 h -60.919 v 60.94574 z m 79.2239,-6.08453 v -48.74994 c 0,-24.3894 16.2493,-36.58301 48.75,-36.58301 h 73.1392 c 32.4986,0 48.7478,12.19134 48.7478,36.58301 v 48.74994 c 0,24.36267 -16.2515,36.55847 -48.7478,36.55847 h -73.1392 c -32.5007,0 -48.75,-12.1958 -48.75,-36.55847 z m 42.6654,-36.58307 v 24.3894 c 0,12.1914 8.1113,18.27594 24.3627,18.27594 h 36.5585 c 16.247,0 24.3872,-6.08454 24.3872,-18.27594 v -24.3894 c 0,-12.16914 -8.1402,-18.28041 -24.3872,-18.28041 h -36.5585 c -16.2514,0 -24.3627,6.11127 -24.3627,18.28041 z m 140.1429,73.13934 V 739.53124 h 42.6632 c 8.1134,0 15.0309,2.85966 20.7235,8.55226 l 59.1017,59.09935 c 3.6658,3.66813 5.4832,3.45653 5.4832,-0.5946 v -67.05701 h 42.6698 v 121.89148 h -42.6698 c -8.1358,0 -14.7392,-2.8374 -19.8127,-8.53 l -59.409,-58.50254 c -4.0556,-4.0556 -6.0867,-4.0556 -6.0867,0 v 67.03254 z m 182.806,-106.65335 c 0,-4.16033 1.4832,-7.72153 4.4231,-10.73927 2.9353,-2.98886 6.55,-4.4966 10.815,-4.4966 4.1581,0 7.7483,1.50774 10.7371,4.4966 2.991,3.01774 4.4988,6.57894 4.4988,10.73927 0,1.01334 -0.1024,2.0534 -0.3096,3.069 0.2072,12.16687 -5.775,22.33374 -17.9664,30.44721 2.6236,-5.27607 3.5345,-11.36067 2.7283,-18.28034 -4.1581,-0.10247 -7.697,-1.58573 -10.5811,-4.4966 -2.8886,-2.8864 -4.3452,-6.47653 -4.3452,-10.73707 z m 57.9034,15.2336 -15.238,-30.46947 h 127.9737 l 15.2337,30.46947 h -27.4295 v 91.41975 h -54.8322 v -91.41975 z m 259.5155,-4.677 v -15.60333 h 13.7281 v 15.60333 z m 0,96.09895 v -80.96774 h 13.7281 v 80.96774 z m 34.6565,0 v -80.96774 h 12.3274 v 11.49426 c 5.9264,-8.81726 14.5075,-13.20913 25.7145,-13.20913 4.8886,0 9.3607,0.88193 13.4408,2.62353 4.0823,1.74387 7.1513,4.05567 9.178,6.8908 2.0267,2.83294 3.4565,6.21594 4.2672,10.11567 0.4922,2.5456 0.7506,6.9932 0.7506,13.33614 v 49.71427 h -13.7303 v -49.19541 c 0,-5.58786 -0.519,-9.77486 -1.5858,-12.53206 -1.0646,-2.75501 -2.9598,-4.96434 -5.6658,-6.63021 -2.7015,-1.63693 -5.8997,-2.46993 -9.5411,-2.46993 -5.8239,0 -10.8417,1.84633 -15.0777,5.56567 -4.2405,3.69033 -6.3452,10.737 -6.3452,21.08433 v 44.17534 h -13.7303 z m 139.6485,-29.6432 13.4163,1.8708 c -1.4832,9.23146 -5.2248,16.43627 -11.2849,21.65893 -6.0578,5.22487 -13.5209,7.82614 -22.3337,7.82614 -11.0489,0 -19.9418,-3.6124 -26.65,-10.84394 -6.735,-7.22487 -10.0868,-17.57213 -10.0868,-31.04414 0,-8.73486 1.4566,-16.35166 4.343,-22.90613 2.8841,-6.52554 7.2783,-11.4386 13.2092,-14.6858 5.9019,-3.2806 12.3205,-4.91527 19.2892,-4.91527 8.766,0 15.9642,2.20933 21.5298,6.65467 5.5901,4.4454 9.1758,10.766 10.737,18.92627 l -13.2626,2.02886 c -1.2694,-5.4342 -3.5078,-9.51653 -6.7572,-12.27153 -3.2226,-2.73267 -7.1246,-4.10907 -11.7013,-4.10907 -6.9153,0 -12.5321,2.46767 -16.8751,7.40973 -4.3117,4.96654 -6.472,12.76821 -6.472,23.47854 0,10.8662 2.0824,18.74587 6.2404,23.65894 4.1848,4.91527 9.619,7.3852 16.3004,7.3852 5.4098,0 9.9042,-1.6392 13.4943,-4.94207 3.6147,-3.27607 5.9019,-8.34287 6.864,-15.1846 z m 80.342,3.4342 14.2002,1.8708 c -2.2138,8.24267 -6.3474,14.66573 -12.3784,19.2158 -6.0311,4.55 -13.7281,6.83733 -23.1155,6.83733 -11.8017,0 -21.1624,-3.6392 -28.0821,-10.91746 -6.9153,-7.25381 -10.3696,-17.47414 -10.3696,-30.60094 0,-13.5722 3.4833,-24.12887 10.4743,-31.61654 6.9954,-7.5166 16.0688,-11.2582 27.2268,-11.2582 10.7861,0 19.6033,3.66367 26.4384,11.0244 6.8373,7.35847 10.2716,17.70574 10.2716,31.04414 0,0.80847 -0.025,2.02893 -0.078,3.6414 h -60.2954 c 0.5212,8.864 3.0178,15.6768 7.5412,20.38273 4.501,4.70821 10.1379,7.07341 16.8728,7.07341 5.0199,0 9.3094,-1.32734 12.8461,-3.97987 3.5612,-2.65033 6.3696,-6.88634 8.4498,-12.71027 z m -44.9282,-21.99747 h 45.084 c -0.599,-6.8106 -2.3406,-11.90634 -5.1736,-15.31387 -4.3451,-5.27607 -10.011,-7.9286 -16.9552,-7.9286 -6.2895,0 -11.5678,2.10466 -15.8595,6.3184 -4.2628,4.21153 -6.628,9.85507 -7.0957,16.92627 z m 187.9819,35.09974 v 13.10673 h -73.9477 c -0.1047,-3.3006 0.4432,-6.47653 1.6146,-9.54553 1.8976,-5.01554 4.9398,-9.98201 9.1268,-14.84167 4.1848,-4.86407 10.167,-10.48087 17.9396,-16.84827 12.089,-9.96207 20.3071,-17.83947 24.5944,-23.66347 4.3184,-5.82174 6.4765,-11.33614 6.4765,-16.53427 0,-5.432 -1.9487,-10.011 -5.8507,-13.7548 -3.8998,-3.72154 -8.9954,-5.59234 -15.2626,-5.59234 -6.6324,0 -11.933,1.97767 -15.9107,5.9286 -3.9799,3.92647 -5.9821,9.38741 -6.0311,16.38067 l -14.0421,-1.40313 c 0.9643,-10.5032 4.6013,-18.5142 10.8929,-24.02414 6.3206,-5.51 14.7682,-8.26713 25.405,-8.26713 10.7126,0 19.2113,2.96427 25.454,8.91747 6.2628,5.95313 9.3852,13.33606 9.3852,22.1244 0,4.47207 -0.9109,8.86847 -2.7594,13.18467 -1.8196,4.34067 -4.8618,8.89293 -9.1001,13.6746 -4.2628,4.7572 -11.3095,11.3362 -21.1356,19.6568 -8.2404,6.91527 -13.5455,11.59674 -15.8862,14.0666 -2.3407,2.47214 -4.2627,4.93981 -5.7995,7.43647 h 54.8367 z m 14.8461,-42.01501 c 0,-13.18027 1.3497,-23.8438 4.0556,-31.9038 2.7283,-8.08454 6.7594,-14.29827 12.1135,-18.64121 5.334,-4.34066 12.0666,-6.49873 20.1779,-6.49873 5.9798,0 11.2314,1.1982 15.7815,3.6124 4.5255,2.41867 8.2694,5.90193 11.1825,10.45193 2.9131,4.5256 5.1982,10.06447 6.8641,16.58554 1.6904,6.52773 2.5233,15.345 2.5233,26.39387 0,13.10227 -1.3519,23.71014 -4.0267,31.7724 -2.6815,8.08674 -6.7081,14.29827 -12.0689,18.66787 -5.3296,4.36747 -12.0889,6.55227 -20.2536,6.55227 -10.737,0 -19.189,-3.8218 -25.3248,-11.49207 -7.3585,-9.36067 -11.0221,-24.51853 -11.0221,-45.50047 z m 14.0377,0.0513 c 0,18.38067 2.1314,30.60094 6.4231,36.63427 4.2894,6.05781 9.5945,9.07341 15.8862,9.07341 6.2916,0 11.5944,-3.04227 15.8862,-9.10014 4.2894,-6.08233 6.4253,-18.27813 6.4253,-36.60754 0,-18.38507 -2.1359,-30.60093 -6.4253,-36.6342 -4.2628,-6.06007 -9.619,-9.0756 -16.0422,-9.0756 -6.2894,0 -11.3361,2.6792 -15.1066,8.00653 -4.706,6.78834 -7.0467,19.37167 -7.0467,37.70327 z m 72.7251,-0.0513 c 0,-13.18027 1.3497,-23.8438 4.0557,-31.9038 2.7282,-8.08454 6.7593,-14.29827 12.1156,-18.64121 5.3318,-4.34066 12.0644,-6.49873 20.1756,-6.49873 5.9799,0 11.2315,1.1982 15.7816,3.6124 4.5256,2.41867 8.2694,5.90193 11.1825,10.45193 2.9131,4.5256 5.2003,10.06447 6.864,16.58554 1.6904,6.52773 2.5234,15.345 2.5234,26.39387 0,13.10227 -1.3519,23.71014 -4.0267,31.7724 -2.6815,8.08674 -6.7082,14.29827 -12.0688,18.66787 -5.3296,4.36747 -12.089,6.55227 -20.2537,6.55227 -10.7371,0 -19.1891,-3.8218 -25.3226,-11.49207 -7.3563,-9.36067 -11.0243,-24.51853 -11.0243,-45.50047 z m 14.0377,0.0513 c 0,18.38067 2.1336,30.60094 6.423,36.63427 4.2895,6.05781 9.5946,9.07341 15.8862,9.07341 6.2917,0 11.599,-3.04227 15.8862,-9.10014 4.294,-6.08233 6.4254,-18.27813 6.4254,-36.60754 0,-18.38507 -2.1314,-30.60093 -6.4254,-36.6342 -4.2627,-6.06007 -9.619,-9.0756 -16.042,-9.0756 -6.2895,0 -11.3362,2.6792 -15.1068,8.00653 -4.7059,6.78834 -7.0466,19.37167 -7.0466,37.70327 z m 72.7251,25.42734 13.7281,-1.8708 c 1.5834,7.80167 4.236,13.41627 8.0065,16.85054 3.7706,3.4298 8.3986,5.14693 13.8818,5.14693 6.5033,0 11.9887,-2.23607 16.4095,-6.7082 4.4188,-4.4676 6.6326,-10.00874 6.6326,-16.61447 0,-6.2894 -2.058,-11.492 -6.1894,-15.59894 -4.1068,-4.08453 -9.3361,-6.13353 -15.7035,-6.13353 -2.6013,0 -5.824,0.51893 -9.6992,1.53007 l 1.5345,-12.01101 c 0.9109,0.10467 1.6659,0.15594 2.2138,0.15594 5.8752,0 11.1246,-1.53227 15.8305,-4.57454 4.6815,-3.04233 7.0177,-7.72373 7.0177,-14.04213 0,-5.02 -1.7127,-9.17807 -5.1202,-12.47867 -3.4075,-3.3006 -7.8016,-4.942 -13.1846,-4.942 -5.3541,0 -9.8017,1.6926 -13.3629,5.06893 -3.5612,3.383 -5.8485,8.45201 -6.8641,15.21141 l -13.728,-2.49667 c 1.6904,-9.20474 5.4832,-16.35167 11.4386,-21.42287 5.9286,-5.06893 13.3383,-7.59227 22.1778,-7.59227 6.0846,0 11.6992,1.3006 16.8216,3.9264 5.147,2.59907 9.0712,6.16254 11.7794,10.65914 2.7282,4.52553 4.0801,9.3094 4.0801,14.3806 0,4.81067 -1.2984,9.17807 -3.8752,13.1268 -2.5991,3.95313 -6.4498,7.10014 -11.5144,9.4408 6.6035,1.5056 11.7237,4.677 15.3896,9.48767 3.6392,4.78613 5.461,10.81727 5.461,18.0198 0,9.7482 -3.5612,18.04207 -10.6613,24.83041 -7.1224,6.78386 -16.1179,10.16246 -26.9864,10.16246 -9.8016,0 -17.9418,-2.9376 -24.4161,-8.78833 -6.4965,-5.85067 -10.1914,-13.41627 -11.1001,-22.72347 z" id="SilkNintenDONT" gorn="0.2.1"/>
        <path  stroke="none" fill="#000000" style="stroke-width:1" d="M 227.87736,1.2538808 3751.4649,0 l 60.0505,135.21423 182.443,-0.62806 0.3608,11.10453 c 5.5099,169.71488 -39.3582,306.15403 -131.4415,405.54022 -91.7805,99.06329 -230.0726,160.79518 -411.7183,181.46085 l -0.3854,0.0467 c -965.281,-2.54567 -1930.9384,-0.0267 -2896.25959,-0.0267 l -0.657,-0.0891 C 536.16722,730.20847 518.35009,727.4 500.47505,724.17733 357.7509,698.44276 222.33845,647.3633 128.42657,557.58944 33.746326,467.08284 -18.616002,337.93757 6.0941345,156.92218 7.4927798,146.67509 9.1787261,136.08059 11.147519,125.14086 l 1.636949,-9.06892 164.207162,-6.03778 43.0796,-108.775825 z M 3652.6333,355.65003 l 294.1898,1.24052 c 1.3073,-4.34293 2.5657,-8.71926 3.7683,-13.13569 l -290.8045,0.0267 v -22.84602 l 296.5193,-0.0289 c 11.3808,-50.05278 16.5834,-104.57544 15.4476,-163.3987 L 3796.7071,158.1115 3736.6366,22.848247 235.68126,24.097673 192.82215,132.32785 32.06038,138.23646 c -1.209338,7.24489 -2.311774,14.48978 -3.298397,21.73022 -8.109023,59.39119 -7.576736,112.87376 0.24944,160.96888 l 254.107267,-0.0289 v 22.84602 l -249.746524,0.0267 c 0.955444,4.3652 1.975474,8.6814 3.055639,12.95306 l 245.394695,1.24942 -0.0913,22.84602 -238.802349,-1.21825 c 20.456299,64.56039 55.656272,117.79798 101.268129,161.40542 90.32842,86.34626 221.59615,135.66183 360.31144,160.67264 16.97973,3.06007 34.26012,5.7794 51.74318,8.17807 l 2892.7697,0.0247 c 175.8529,-20.06873 309.2275,-79.31515 397.1016,-174.16018 41.0039,-44.25553 72.1839,-96.39292 93.2437,-156.02687 l -286.8269,-1.20488 0.091,-22.84602 z" id="SilkFRAME" gorn="0.2.2"/>
    </g>
    <g  id="copper1" gorn="0.3">
        <path  stroke="none" fill="#ffc000" style="stroke-width:1" d="m 435.32002,596.93633 -11.34506,-22.68788 h 120.24338 l 11.34505,22.68788 h -45.37801 v 68.06814 H 469.3552 v -68.06814 h -34.03296 z m 129.32344,68.06814 v -90.75824 h 31.76793 v 90.75824 z m 95.28826,-34.03298 h -45.37804 l -11.34506,-22.6901 h 56.7231 v -34.03294 h 20.42506 l 11.34507,22.68788 v 68.06814 h -31.77013 z m 40.83013,34.03298 v -90.75824 h 115.71342 l 11.34507,22.68787 h -95.28828 v 11.34506 h 65.78534 v 22.6901 h -65.78534 v 11.34283 h 95.28828 v 22.69016 H 700.76185 Z m 205.54297,-68.06814 -11.34507,-22.68788 h 95.28828 l 11.34507,22.68788 h -20.42294 v 68.06814 h -40.83021 v -68.06814 h -34.03293 z m 199.65428,68.06814 c -8.1691,-15.12005 -12.7192,-24.20016 -13.61,-27.22016 h 40.8301 c 1.8196,9.06006 6.3496,18.14012 13.6102,27.22016 z m -95.2882,0 v -38.11978 c 0,-12.38958 7.55,-18.6033 22.6879,-18.6033 h 63.518 c 6.0423,0 9.1202,-1.95543 9.1959,-5.88634 -0.076,-3.63915 -3.1536,-5.45872 -9.1959,-5.45872 h -86.2082 l -11.34497,-22.68788 h 111.16327 c 18.1601,0 27.2201,7.56782 27.2201,22.68788 v 11.34506 c 0,15.14009 -9.06,22.6901 -27.2201,22.6901 h -62.1617 c -3.931,0 -5.9064,1.97325 -5.9064,5.90415 v 28.12883 z m 140.6485,-27.22016 v -63.53586 h 31.7679 v 54.45804 c 0,9.07782 6.04,13.60783 18.14,13.60783 h 27.2202 c 12.1,0 18.1579,-4.53001 18.1579,-13.60783 v -54.45804 h 20.4251 l 11.345,22.68788 v 40.84798 c 0,18.14012 -12.1,27.22016 -36.3001,27.22016 h -54.4581 c -24.1979,0 -36.2979,-9.08004 -36.2979,-27.22016 z m 136.1184,27.22016 v -90.75824 h 115.7134 l 11.345,22.68787 h -95.2882 v 11.34506 h 65.7853 v 22.6901 h -65.7853 v 11.34283 h 95.2882 v 22.69016 h -127.0584 z m 194.1978,-27.22016 v -36.29793 c 0,-18.16011 12.1001,-27.23793 36.298,-27.23793 h 79.4132 l 11.345,22.68788 h -77.1482 c -12.1,0 -18.14,4.55005 -18.14,13.61006 v 18.1601 c 0,9.07782 6.04,13.60783 18.14,13.60783 h 45.3781 v -11.34283 h -27.2179 l -11.3451,-22.6901 h 70.3331 v 56.72308 h -90.7582 c -24.1979,0 -36.298,-9.08004 -36.298,-27.22016 z m 231.4045,27.22016 -24.8371,-49.67642 c -1.5879,-3.1759 -3.2137,-3.1759 -4.8796,0 l -13.3963,26.98627 h 11.3451 l 11.345,22.69015 h -74.8632 l 40.8281,-81.6782 c 3.04,-6.04 7.57,-9.07782 13.6301,-9.07782 h 27.2201 c 6.04,0 10.5878,3.03782 13.6078,9.07782 l 40.8302,81.6782 z m 78.7161,-81.6782 c 1.9755,-6.04 5.9821,-9.07782 12.0221,-9.07782 h 18.1601 c 6.0401,0 10.0467,3.03782 12.0221,9.07782 l 15.198,43.11522 15.1959,-43.11522 c 1.9754,-6.04 5.982,-9.07782 12.022,-9.07782 h 18.1602 c 6.04,0 10.0466,3.03782 12.022,9.07782 l 28.806,81.6782 h -31.748 l -15.4296,-45.14641 c -1.8196,-4.4721 -3.6392,-4.39415 -5.4409,0.23162 l -12.9308,37.20889 c -1.6659,5.13133 -5.5367,7.7059 -11.5789,7.7059 h -18.1579 c -6.04,0 -9.893,-2.57457 -11.5588,-7.7059 l -12.9309,-37.20889 c -1.8195,-4.62577 -3.6391,-4.70372 -5.4409,-0.23162 l -15.4296,45.14641 h -31.768 z m 152.6906,81.6782 v -90.75824 h 115.7134 l 11.345,22.68787 h -95.2882 v 11.34506 h 65.7853 v 22.6901 h -65.7853 v 11.34283 h 95.2882 v 22.69016 h -127.0584 z m 223.0037,-81.6782 c 1.9755,-6.04 5.9822,-9.07782 12.0222,-9.07782 h 18.16 c 6.04,0 10.0466,3.03782 12.0222,9.07782 l 15.198,43.11522 15.1957,-43.11522 c 1.9755,-6.04 5.9821,-9.07782 12.0222,-9.07782 h 18.1601 c 6.04,0 10.0466,3.03782 12.0221,9.07782 l 28.8058,81.6782 h -31.7479 l -15.4296,-45.14641 c -1.8196,-4.4721 -3.6392,-4.39415 -5.4409,0.23162 l -12.9309,37.20889 c -1.6658,5.13133 -5.5366,7.7059 -11.5788,7.7059 h -18.1579 c -6.04,0 -9.8929,-2.57457 -11.5589,-7.7059 l -12.9308,-37.20889 c -1.8195,-4.62577 -3.6391,-4.70372 -5.4408,-0.23162 l -15.4296,45.14641 h -31.768 z m 152.6906,81.6782 v -90.75824 h 115.7134 l 11.3451,22.68787 h -95.2883 v 11.34506 h 65.7853 v 22.6901 h -65.7853 v 11.34283 h 95.2883 v 22.69016 h -127.0585 z m 147.4635,-68.06814 -11.345,-22.68788 h 120.2433 l 11.3451,22.68788 h -45.378 v 68.06814 h -40.8302 v -68.06814 h -34.033 z m 224.6095,68.06814 -24.8371,-49.67642 c -1.588,-3.1759 -3.2138,-3.1759 -4.8797,0 l -13.3962,26.98627 h 11.345 l 11.3451,22.69015 h -74.8631 l 40.8279,-81.6782 c 3.0401,-6.04 7.5701,-9.07782 13.6301,-9.07782 h 27.2201 c 6.0401,0 10.5879,3.03782 13.6079,9.07782 l 40.8302,81.6782 z m 49.9102,-22.69015 v -68.06587 h 31.768 v 58.98804 c 0,6.05782 4.53,9.07783 13.61,9.07783 h 81.6783 v 22.69015 h -95.2883 c -21.178,0 -31.768,-7.57004 -31.768,-22.69015 z m 205.5429,22.69015 v -22.69015 h 74.8631 c 6.0579,0 9.118,-1.95544 9.1959,-5.90416 -0.078,-3.6191 -3.138,-5.43867 -9.1959,-5.43867 h -74.8631 v -22.6901 h 74.8631 c 6.0579,0 9.118,-1.95543 9.1959,-5.88634 -0.078,-3.63915 -3.138,-5.45872 -9.1959,-5.45872 h -74.8631 l -11.345,-22.68788 h 95.2882 c 21.1802,0 31.7702,9.07782 31.7702,27.23793 v 2.265 c 0,6.42753 -1.3363,11.71253 -3.9888,15.87505 2.6525,4.16253 3.9888,9.44754 3.9888,15.89288 v 2.265 c 0,18.14012 -10.59,27.22016 -31.7702,27.22016 z m 220.0595,0 -24.8371,-49.67642 c -1.588,-3.1759 -3.2138,-3.1759 -4.8797,0 l -13.3962,26.98627 h 11.345 l 11.345,22.69015 h -74.8631 l 40.828,-81.6782 c 3.0401,-6.04 7.5701,-9.07782 13.6301,-9.07782 h 27.2201 c 6.04,0 10.5879,3.03782 13.6079,9.07782 l 40.8302,81.6782 z m 49.9102,0 v -90.75824 h 31.7679 c 6.04,0 11.1914,2.12914 15.4297,6.36739 l 44.0039,44.00384 c 2.7304,2.73047 4.0846,2.5768 4.0846,-0.44321 v -49.92802 h 31.7701 v 90.75824 h -31.7701 c -6.0579,0 -10.9754,-2.1091 -14.7504,-6.34957 l -44.2378,-43.55847 c -3.02,-3.02 -4.53,-3.02 -4.53,0 v 49.90804 z m 263.1747,-27.22016 c 0,18.14012 -12.1001,27.22016 -36.3003,27.22016 h -90.7582 v -90.75824 h 90.7582 c 24.2002,0 36.3003,9.07782 36.3003,27.23792 v 36.29793 z m -49.9282,4.53001 c 12.1001,0 18.1579,-4.53001 18.1579,-13.60783 v -18.1601 c 0,-9.06001 -6.0578,-13.61006 -18.1579,-13.61006 h -45.3601 v 45.37799 z" id="CopperTRUE" gorn="0.3.0"/>
        <path  stroke="none" fill="#ffc000" style="stroke-width:1" d="M 289.28188,509.9709 V 96.09448 h 85.66478 c 31.75236,0 55.53823,14.2938 71.37766,42.79453 l 28.58092,57.08387 28.5809,-57.08387 c 15.83721,-28.50073 39.62976,-42.79453 71.37767,-42.79453 h 85.66478 V 509.9709 H 603.5271 V 153.09595 H 589.24 c -19.07991,0 -33.37594,9.50098 -42.87693,28.58313 L 474.90746,338.63689 403.45185,181.67908 c -9.49877,-19.07992 -23.78811,-28.58313 -42.87026,-28.58313 H 346.2878 V 509.9709 h -57.00146 z m 71.12823,0.24276 V 167.63473 c 9.49875,0 15.83497,3.16477 18.99974,9.49875 l 95.2504,204.62311 95.24595,-204.62311 c 3.16922,-6.33621 9.49874,-9.49875 18.99973,-9.49875 V 510.21366 H 531.90446 V 381.75659 L 474.66248,510.21366 417.41379,381.75659 V 510.21366 H 360.41233 Z M 688.94465,224.63619 c 0,-85.66478 42.79454,-128.539483 128.37695,-128.539483 H 988.56876 V 153.09817 H 817.3216 c -47.58067,0 -71.37767,23.79479 -71.37767,71.45561 v 157.20281 c 0,47.66082 23.79473,71.45561 71.37767,71.45561 h 171.24716 v 57.00146 H 817.3216 c -85.58461,0 -128.37695,-42.8747 -128.37695,-128.53725 z m 71.12828,71.21508 v -71.21508 c 0,-37.91931 19.00194,-56.92129 57.00147,-56.92129 h 171.25383 v 57.00146 H 831.36814 c -9.49874,0 -14.29374,4.71487 -14.29374,14.12677 h 128.45702 v 57.00814 z m 0,14.61451 h 185.45849 v 57.00369 H 817.0744 c 0,9.41413 4.7928,14.12454 14.29374,14.12454 h 156.96009 v 57.00145 H 817.0744 c -37.99953,0 -57.00147,-18.99974 -57.00147,-56.91905 z m 257.15687,-85.82959 c 0,-85.66478 42.7968,-128.539483 128.3769,-128.539483 h 171.2472 v 57.001463 h -171.2472 c -47.5807,0 -71.3754,23.79479 -71.3754,71.45561 v 157.20281 c 0,47.66082 23.7925,71.45561 71.3754,71.45561 h 114.2457 V 295.84905 h -99.8783 V 238.8409 h 156.8776 v 271.37054 h -171.2472 c -85.5823,0 -128.3769,-42.87471 -128.3769,-128.53726 V 224.63396 Z m 71.1282,0.0802 c 0,-37.99948 19.0866,-57.00146 57.1686,-57.00146 h 171.3273 v 57.00146 h -157.2006 c -9.501,0 -14.296,4.79282 -14.296,14.29381 v 128.29226 c 0,9.49876 4.7928,14.2938 14.4542,14.2938 h 28.9104 V 367.4717 h -28.5808 V 310.468 h 85.5824 v 128.12969 h -100.119 c -38.1621,0 -57.2487,-18.99974 -57.2487,-57.00146 V 224.71859 Z m 979.9134,-0.0802 v 157.04022 c 0,85.66478 -42.79,128.53725 -128.3768,128.53725 H 1768.6474 V 239.09034 h 57.0015 V 453.2122 h 114.2457 c 47.5872,0 71.3776,-23.79479 71.3776,-71.45561 V 224.55378 c 0,-47.66082 -23.7881,-71.45561 -71.3776,-71.45561 H 1768.6474 V 96.096707 h 171.2472 c 85.589,0 128.3768,42.876933 128.3768,128.539483 z m -71.1282,0.0802 v 156.87765 c 0,38.00171 -19.0799,57.00145 -57.2486,57.00145 h -100.119 V 238.84313 h 57.0014 v 142.75088 h 28.9106 c 9.6614,0 14.4542,-4.79282 14.4542,-14.29381 V 239.00794 c 0,-9.49876 -4.7928,-14.2938 -14.2938,-14.2938 h -157.2029 v -57.00146 h 171.4143 c 38.0818,0 57.0838,19.00197 57.0838,57.00146 z m 428.1636,6.90415 c 0,37.43157 -9.5857,65.69177 -28.748,84.93205 -19.1601,19.16232 -35.4004,32.07306 -48.7142,38.73222 l 77.4622,154.68612 h -57.0015 l -99.8784,-199.83474 h 28.5007 c 16.8082,0 32.8859,-7.71036 48.3134,-23.14445 15.3472,-15.34501 23.0643,-33.85701 23.0643,-55.37343 0,-21.27811 -7.7148,-39.62976 -23.0643,-55.21752 -15.4252,-15.50759 -31.5052,-23.30481 -48.3134,-23.30481 h -199.9951 v -57.0015 h 199.9149 c 32.6365,0 62.1997,13.31608 88.7472,39.9527 26.4696,26.55198 39.71,58.46247 39.71,95.57333 z m -71.616,0.16258 c 0,17.70132 -6.256,32.80579 -18.7593,45.30897 -12.5856,12.50317 -25.3359,18.75921 -38.329,18.75921 h -142.6663 v 214.12186 h -57.0014 v -271.13 h 185.4585 c 9.501,0 14.2871,-2.35409 14.2871,-7.06004 0,-4.71486 -4.7861,-7.06673 -14.2871,-7.06673 H 2096.9348 V 167.7149 h 199.6677 c 12.9931,0 25.8258,6.33622 38.329,19.00198 12.5033,12.66575 18.7593,27.69005 18.7593,45.06621 z m -0.167,278.43057 h -57.0839 L 2225.0644,367.46947 V 510.21366 H 2168.063 V 310.37892 h 85.5891 z m 100.2837,0 V 96.25706 h 57.0037 v 413.9566 z m 71.1282,0 V 96.25706 h 57.0014 v 413.9566 z M 2787.0435,153.09595 V 96.09448 h 244.9767 L 2894.06,462.63078 c -11.1224,31.74568 -34.9172,47.58066 -71.3755,47.58066 -31.6655,0 -55.4558,-15.83498 -71.371,-47.58066 L 2618.1416,96.09448 h 57.0883 l 128.4526,347.61673 c 4.7126,6.33399 11.1291,9.49876 19.002,9.49876 9.4987,0 15.9151,-3.16477 19.0866,-9.49876 l 114.1655,-290.61526 h -168.8953 z m 0,14.61673 h 145.1005 l -99.9563,261.70251 c -1.5412,6.33622 -4.7082,9.50098 -9.4987,9.50098 -4.7082,0 -7.8708,-3.16476 -9.5011,-9.50098 L 2689.5237,96.092253 h 57.0816 l 40.4405,102.553197 v -30.935 z m 35.6432,123.58409 26.2268,-66.58263 h -52.369 z m 209.0975,-66.74521 c 0,-85.66478 42.7945,-128.537253 128.3769,-128.537253 h 171.2471 v 57.001463 h -171.2471 c -47.5807,0 -71.3777,23.79478 -71.3777,71.45561 v 157.2028 c 0,47.66083 23.7948,71.45561 71.3777,71.45561 h 171.2471 v 57.00147 h -171.2471 c -85.5846,0 -128.3769,-42.87693 -128.3769,-128.53949 z m 71.1281,71.21731 v -71.21731 c 0,-37.91931 19.0021,-56.91906 57.0015,-56.91906 h 171.2539 v 57.00146 h -156.9601 c -9.4987,0 -14.2938,4.71264 -14.2938,14.12454 h 128.4571 v 57.01037 z m 0,14.6145 h 185.4586 v 57.00147 h -128.4571 c 0,9.41413 4.7929,14.12676 14.2938,14.12676 h 156.9601 v 57.00146 h -171.2539 c -37.9994,0 -57.0015,-19.00197 -57.0015,-56.92129 z m 585.5312,-78.84526 c 0,37.43156 -9.5878,65.68954 -28.748,84.93204 -19.16,19.1601 -33.289,32.07307 -42.5473,38.73222 l 71.2953,154.68835 h -57.0014 l -83.7205,-177.01767 c -3.8151,-8.28051 -2.8419,-13.31609 2.8441,-15.26706 23.1377,-5.02889 42.3846,-15.2626 57.812,-30.69446 15.3451,-15.34723 23.0644,-33.85701 23.0644,-55.37342 0,-21.28034 -7.7171,-39.62977 -23.1445,-55.21753 -15.3473,-15.50758 -31.5051,-23.30481 -48.3134,-23.30481 H 3417.0708 V 509.89072 H 3360.067 V 96.014307 h 199.9172 c 32.6365,0 62.1973,13.313853 88.7471,39.952693 26.4696,26.54976 39.71,58.46247 39.71,95.57333 z m -71.6182,0.3207 c 0,17.7815 -6.2538,32.88597 -18.8394,45.47155 -12.5032,12.50318 -33.8636,22.57431 -64.0682,30.21118 -6.9843,1.86412 -8.8507,6.32954 -5.6836,13.31385 l 88.5912,189.35605 h -57.1684 l -71.4557,-142.7442 v 142.7442 h -57.0015 V 167.6325 h 128.5396 c 12.9931,0 25.7434,6.33399 38.2488,18.99975 12.5856,12.75038 18.8394,27.77245 18.8394,45.22879 z m -128.6263,-7.22707 v 30.45171 c 10.8016,-1.8708 25.4985,-5.11798 43.9348,-9.50099 18.4319,-4.46319 27.6834,-11.45197 27.6834,-20.95072 z m -1989.1605,228.576 h 168.8953 L 1553.7683,162.5947 c -3.1648,-6.33621 -9.501,-9.50098 -19.002,-9.50098 -7.9575,0 -14.2871,3.16477 -19.0799,9.50098 l -128.4593,347.61451 h -57.0816 l 133.2454,-366.5363 c 15.8349,-31.74568 39.6297,-47.580657 71.3777,-47.580657 36.4583,0 60.253,15.834977 71.2952,47.580657 l 138.0405,366.5363 h -245.0635 v -57.00147 z m 0,-14.61673 v -30.93277 l -40.436,102.55097 h -57.0816 l 123.6643,-333.32293 c 1.6236,-6.33622 4.7928,-9.49876 9.5811,-9.49876 4.7127,0 7.8774,3.16476 9.4987,9.49876 l 99.8785,261.7025 h -145.1072 z m 35.7301,-123.58409 -26.2268,66.58263 h 52.3756 z" id="CopperLOGO" gorn="0.3.1"/>
    </g>
</svg>
