<?xml version='1.0' encoding='UTF-8' standalone='no'?>
<!-- Created with Fritzing (https://fritzing.org/) -->
<svg xmlns="http://www.w3.org/2000/svg" y="0in" width="11mm" viewBox="0 0 31.181103 31.181103" x="0in" id="svg9097" height="11mm" gorn="0" version="1.2" >
    <desc >
        <referenceFile >capacitor-11mm.svg</referenceFile>
    </desc>
    <defs id="defs9101" />
    <g transform="matrix(0,1.2941177,-1.294039,0,26.769367,9.068199)" >
        <g >
            <g id="silkscreen" gorn="0.2.0.0" stroke-width="0.772751" >
                <g transform="matrix(0,0.75000003,-0.75000003,0,17.087245,-3.4072452)" >
                    <g >
                        <path id="path9464" gorn="0.2.0.0.0.0.0" d="M 15.964844,0.00195313 C 7.1461882,0.05592423 -0.00195366,7.2332278 -0.00195313,16.064453 -0.00195352,24.895681 7.146185,32.071052 15.964844,32.125 V 30.990234 C 7.7591419,30.936541 1.1347654,24.282918 1.1347656,16.064453 1.1347652,7.8459883 7.7591418,1.1904337 15.964844,1.1367188 Z" stroke="none" style="stroke-width:0.679306"  fill="#000000"/>
                    </g>
                </g>
                <path id="path9464-2" gorn="0.2.0.0.1" d="M 17.08578,8.7121451 C 17.045302,15.326137 11.662324,20.687244 5.0389047,20.687244 c -6.6234213,0 -12.0049498,-5.361104 -12.0454108,-11.9750989 h 0.8510746 c 0.04027,6.1542769 5.0304872,11.1225599 11.1943362,11.1225599 6.1638493,0 11.1555153,-4.968283 11.1958013,-11.1225599 z" stroke="none" style="stroke-width:0.679306"  fill="#000000"/>
                <g transform="rotate(90)" >
                    <g >
                        <rect y="-17.087244" width="0.85039371" x="8.2148027" id="rect9835" height="24.094488" gorn="0.2.0.0.2.0.0" stroke="none" style="stroke-width:0.679306"  fill="#000000"/>
                    </g>
                </g>
                <g transform="rotate(90)" >
                    <g >
                        <rect y="-16.414766" width="0.85039371" x="6.3944468" id="rect9835-3" height="23.053679" gorn="0.2.0.0.3.0.0" stroke="none" style="stroke-width:0.679306"  fill="#000000"/>
                    </g>
                </g>
                <g transform="rotate(90)" >
                    <g >
                        <rect y="-16.146526" width="0.85039371" x="4.2574759" id="rect9835-3-1" height="21.867771" gorn="0.2.0.0.4.0.0" stroke="none" style="stroke-width:0.679305"  fill="#000000"/>
                    </g>
                </g>
                <g transform="rotate(90)" >
                    <g >
                        <rect y="-1.3254032" width="0.85039371" x="2.1664259" id="rect9835-3-1-1" height="6.4433351" gorn="0.2.0.0.5.0.0" stroke="none" style="stroke-width:0.679306"  fill="#000000"/>
                    </g>
                </g>
                <g transform="rotate(90)" >
                    <g >
                        <rect y="-15.219352" width="0.85039371" x="2.1664259" id="rect9835-3-1-1-3" height="7.5995231" gorn="0.2.0.0.6.0.0" stroke="none" style="stroke-width:0.679306"  fill="#000000"/>
                    </g>
                </g>
                <g transform="rotate(90)" >
                    <g >
                        <rect y="-3.0033329" width="0.85039371" x="-0.54269588" id="rect9835-3-1-1-0" height="5.8501697" gorn="0.2.0.0.7.0.0" stroke="none" style="stroke-width:0.679305"  fill="#000000"/>
                    </g>
                </g>
                <g transform="rotate(90)" >
                    <g >
                        <rect y="-12.661635" width="0.85039371" x="-0.35961327" id="rect9835-3-1-1-0-4" height="3.7284517" gorn="0.2.0.0.8.0.0" stroke="none" style="stroke-width:0.679305"  fill="#000000"/>
                    </g>
                </g>
                <path id="path13275" gorn="0.2.0.0.9" d="m 1.0998285,12.506148 q 0,0.114847 -0.019316,0.199454 -0.019316,0.07858 -0.051549,0.132969 -0.032209,0.05439 -0.077312,0.07858 -0.045102,0.02417 -0.096628,0.02417 h -2.1130938 v 2.200059 q 0,0.04836 -0.025763,0.08461 -0.025763,0.03022 -0.083758,0.05439 -0.051549,0.02417 -0.1417304,0.04231 -0.090205,0.01201 -0.2254887,0.01201 -0.1288372,0 -0.2254885,-0.01201 -0.090205,-0.01812 -0.1481768,-0.04231 -0.051549,-0.02417 -0.077312,-0.05439 -0.025763,-0.03627 -0.025763,-0.08461 v -2.200059 h -2.113094 q -0.057972,0 -0.1030744,-0.02417 -0.038656,-0.02417 -0.070865,-0.07858 -0.032209,-0.05439 -0.051549,-0.132969 -0.019316,-0.08463 -0.019316,-0.199454 0,-0.108798 0.019316,-0.187379 0.019316,-0.08461 0.051549,-0.139017 0.032209,-0.05439 0.070865,-0.07858 0.045102,-0.02417 0.096628,-0.02417 h 2.1195359 V 9.8769576 q 0,-0.04836 0.025763,-0.08463 0.025763,-0.04232 0.077312,-0.06649 0.057972,-0.03022 0.1481768,-0.04231 0.096628,-0.01812 0.2254885,-0.01812 0.1352839,0 0.2254886,0.01812 0.090205,0.01201 0.1417303,0.04231 0.057972,0.02417 0.083758,0.06649 0.025763,0.03627 0.025763,0.08463 v 2.2000584 h 2.119536 q 0.051549,0 0.090205,0.02417 0.045102,0.02417 0.077312,0.07858 0.038656,0.05439 0.051549,0.139017 0.019316,0.07858 0.019316,0.18738 z" stroke="none" style="stroke-width:0.772751"  fill="#000000"/>
                <path id="rect13656" gorn="0.2.0.0.10" d="M -6.1554316,8.3832203 -0.47390026,-2.1094226 0.50334062,-1.5078335 -5.1781907,8.9848093 Z" stroke="none" style="stroke-width:0.772751"  fill="#000000"/>
                <path id="rect13656-2" gorn="0.2.0.0.11" d="M -2.5932465,8.2175563 3.5732759,-3.4085454 4.6339367,-2.7419702 -1.5325856,8.8841314 Z" stroke="none" style="stroke-width:0.772751"  fill="#000000"/>
                <path id="rect13656-2-8" gorn="0.2.0.0.12" d="M 0.79984447,8.7530281 3.830191,3.3568944 4.3514199,3.6662783 1.3210734,9.0624119 Z" stroke="none" style="stroke-width:0.772751"  fill="#000000"/>
                <path id="rect13656-2-8-1" gorn="0.2.0.0.13" d="M 5.9887718,-0.14369816 7.6548539,-2.9618833 7.9414252,-2.8003045 6.275343,0.01788066 Z" stroke="none" style="stroke-width:0.772753"  fill="#000000"/>
                <path id="rect13656-2-9" gorn="0.2.0.0.14" d="M 4.2020229,8.3989707 9.6781043,-2.1014057 10.620007,-1.4993732 5.1439259,9.0010031 Z" stroke="none" style="stroke-width:0.772751"  fill="#000000"/>
                <path id="rect13656-2-9-9" gorn="0.2.0.0.15" d="M 8.1339732,8.3297433 12.661635,-0.35961327 13.440407,0.13858554 8.9127452,8.827942 Z" stroke="none" style="stroke-width:0.772751"  fill="#000000"/>
                <path id="rect13656-2-9-9-0" gorn="0.2.0.0.16" d="m 12.067651,8.6301903 3.151701,-5.6133705 0.542103,0.3218391 -3.151701,5.6133704 z" stroke="none" style="stroke-width:0.772748"  fill="#000000"/>
            </g>
        </g>
    </g>
    <g transform="rotate(-90,10.247245,6.8399998)" >
        <g >
            <g id="copper0" gorn="0.3.0.0" style="display:inline" >
                <g id="copper1" gorn="0.3.0.0.0" >
                    <circle r="2.0880001" id="connector1pin" cy="2.7711487" gorn="0.3.0.0.0.0" stroke-width="1.44" cx="1.496693" stroke="#ffbf00"  fill="none"/>
                    <ellipse rx="2.0880001" ry="2.0877166" id="connector0pin" cy="21.309448" gorn="0.3.0.0.0.1" stroke-width="1.44" cx="1.4978269" stroke="#ffbf00"  fill="none"/>
                    <circle r="2.0880001" id="circle9075" cy="2.7711487" gorn="0.3.0.0.0.2" stroke-width="1.44" cx="1.496693" stroke="#ffbf00"  fill="none"/>
                    <ellipse rx="2.0880001" ry="2.0877166" id="circle9077" cy="21.309448" gorn="0.3.0.0.0.3" stroke-width="1.44" cx="1.4978269" stroke="#ffbf00"  fill="none"/>
                </g>
            </g>
        </g>
    </g>
</svg>
