<?xml version='1.0' encoding='UTF-8' standalone='no'?>
<!-- Created with Fritzing (https://fritzing.org/) -->
<svg xmlns="http://www.w3.org/2000/svg" viewBox="0 0 115.389 251.419" height="3.49192in" id="svg400" gorn="0" width="1.60262in" version="1.2" x="0in"  y="0in">
    <desc >
        <referenceFile >Playtronic-VGA-PCB.svg</referenceFile>
    </desc>
    <defs id="defs400" />
    <g id="silkscreen" gorn="0.2" >
        <path id="path1" gorn="0.2.0" fill="black" stroke="none" d="m 16.32889,19.834682 v 5.50266 h 0.747229 v -2.32647 h 0.903367 l 1.54465,2.32647 h 0.836451 l -1.566949,-2.33819 c 1.09854,-0.07032 1.410809,-0.427789 1.410809,-1.54121 0,-1.25407 -0.401496,-1.62326 -1.912679,-1.62326 h -1.97402 z m 0.747229,0.615314 h 1.27141 c 0.897792,0 1.132001,0.181664 1.132001,1.0138 0,0.861439 -0.24536,0.996222 -1.132001,0.996222 h -1.27141 v -2.01002 z m 5.57076,-0.720796 c -1.50561,0 -1.87923,1.62912 -1.87923,2.79528 0,1.15445 0.356886,2.91834 1.90711,2.91834 1.46658,0 1.862501,-1.5881 1.862501,-2.85388 0,-1.23649 -0.384768,-2.85388 -1.89038,-2.85388 z m 0,0.568433 c 0.892215,0 1.159881,1.03724 1.159881,2.29131 0,1.27165 -0.278817,2.29717 -1.13757,2.29717 -0.91452,0 -1.16546,-1.11928 -1.16546,-2.32647 0,-1.21891 0.250935,-2.26201 1.143149,-2.26201 z m -6.31242,6.73915 v 5.50266 h 0.74723 v -2.32647 h 0.903368 l 1.54465,2.32647 h 0.83645 l -1.566949,-2.33819 c 1.098539,-0.07032 1.410809,-0.427789 1.410809,-1.54121 0,-1.25407 -0.401497,-1.62326 -1.91268,-1.62326 h -1.974019 z m 0.74723,0.615314 H 18.3531 c 0.89779,0 1.131999,0.181664 1.131999,1.0138 0,0.861439 -0.245359,0.996222 -1.131999,0.996222 h -1.27141 v -2.01002 z m 3.959201,0.544992 v 0.562572 h 0.457259 c 0.373615,0 0.680314,-0.07032 0.920096,-0.222685 v 3.41646 h -1.4387 v 0.586013 h 3.46291 v -0.586013 h -1.310439 v -4.91665 h -0.64128 v 0.205105 c 0,0.673915 -0.250934,0.961061 -1.048349,0.961061 h -0.407074 z m -4.700861,6.03593 v 5.50266 h 0.747231 v -2.32647 h 0.903366 l 1.544651,2.32647 h 0.836451 l -1.566951,-2.33819 c 1.09854,-0.07032 1.410811,-0.427789 1.410811,-1.54121 0,-1.25407 -0.401497,-1.62326 -1.91268,-1.62326 h -1.974021 z m 0.747231,0.615314 h 1.27141 c 0.897791,0 1.132,0.181664 1.132,1.0138 0,0.861439 -0.245359,0.996222 -1.132,0.996222 h -1.27141 v -2.01002 z m 3.76961,0.814558 h 0.663585 v -0.697355 c 0.312275,-0.169944 0.630126,-0.246125 1.120839,-0.246125 0.708196,0 1.237951,0.240265 1.237951,1.04896 0,1.00208 -0.74723,1.9104 -2.983341,3.40474 v 0.568433 h 3.76961 v -0.586013 h -2.83278 c 1.94614,-1.35955 2.749141,-2.26787 2.749141,-3.35199 0,-1.29509 -0.836452,-1.66428 -1.9573,-1.66428 -0.652432,0 -1.30486,0.117203 -1.77328,0.480531 v 1.04896 z m -4.516841,5.77223 v 5.50266 h 0.747231 v -2.32647 h 0.903366 l 1.544651,2.32647 h 0.836451 l -1.566951,-2.33819 c 1.09854,-0.07032 1.410811,-0.427789 1.410811,-1.54121 0,-1.25407 -0.401497,-1.62326 -1.91268,-1.62326 h -1.974021 z m 0.747231,0.615314 h 1.27141 c 0.897791,0 1.132,0.181664 1.132,1.0138 0,0.861439 -0.245359,0.996222 -1.132,0.996222 h -1.27141 v -2.01002 z m 3.76961,0.814558 h 0.663585 v -0.697355 c 0.239783,-0.134783 0.574363,-0.246125 1.120839,-0.246125 0.847605,0 1.237951,0.293007 1.237951,0.996222 0,0.673915 -0.345733,0.89074 -1.198911,0.89074 h -0.691465 v 0.562572 h 0.691465 c 0.869909,0 1.265831,0.152363 1.265831,0.966921 0,0.849719 -0.485142,1.11928 -1.265831,1.11928 -0.853179,0 -1.193339,-0.310587 -1.193339,-1.00208 V 45.320385 H 20.82341 v 0.140643 c 0,1.17789 0.663585,1.5881 1.84019,1.5881 1.070659,0 1.99075,-0.334027 1.99075,-1.71702 0,-0.761817 -0.351309,-1.11928 -0.830875,-1.28923 0.434955,-0.181664 0.741653,-0.515691 0.741653,-1.18375 0,-1.0431 -0.62455,-1.52363 -1.951721,-1.52363 -0.7305,0 -1.293709,0.158224 -1.750969,0.474671 v 1.05482 z m -4.516841,5.77223 v 5.50266 h 0.747231 v -2.32647 h 0.903366 l 1.544651,2.32647 h 0.836451 l -1.566951,-2.33819 c 1.09854,-0.07032 1.410811,-0.427789 1.410811,-1.54121 0,-1.25407 -0.401497,-1.62326 -1.91268,-1.62326 h -1.974021 z m 0.747231,0.615314 h 1.27141 c 0.897791,0 1.132,0.181664 1.132,1.0138 0,0.861439 -0.245359,0.996222 -1.132,0.996222 h -1.27141 v -2.01002 z m 6.513169,-0.615314 -2.949879,3.4985 v 0.603593 h 2.88297 v 1.40057 h 0.685889 v -1.40057 h 0.540905 v -0.586013 h -0.540905 v -3.51608 h -0.618973 z m -2.26399,3.51608 2.19708,-2.6019 v 2.6019 z m -4.9964,3.68602 v 5.50266 h 0.747231 v -2.32647 h 0.903366 l 1.544651,2.32647 h 0.836451 l -1.566951,-2.33819 c 1.09854,-0.07032 1.41081,-0.427789 1.41081,-1.54121 0,-1.25407 -0.401496,-1.62326 -1.91268,-1.62326 h -1.97402 z m 0.747231,0.615314 h 1.271409 c 0.897791,0 1.132,0.181664 1.132,1.0138 0,0.861439 -0.245358,0.996222 -1.132,0.996222 H 17.08727 v -2.01002 z m 4.316089,-0.615314 -0.451684,2.61362 0.535329,0.117203 c 0.356886,-0.363328 0.752806,-0.509831 1.27141,-0.509831 0.797417,0 1.171031,0.310587 1.171031,1.34783 0,1.10756 -0.47399,1.44159 -1.288131,1.44159 -0.786264,0 -1.171029,-0.316447 -1.171029,-1.00208 v -0.134783 h -0.658008 v 0.140643 c 0,1.16617 0.658008,1.5881 1.81789,1.5881 1.221219,0 2.00748,-0.46881 2.00748,-2.03933 0,-1.37127 -0.591092,-1.94556 -1.75097,-1.94556 -0.446107,0 -0.819722,0.09962 -1.154301,0.287146 l 0.250936,-1.32439 h 2.4759 v -0.586013 h -3.05583 z m -5.06332,7.2021 v 5.50266 h 0.747231 v -2.32647 h 0.903366 l 1.544651,2.32647 h 0.836451 l -1.566951,-2.33819 c 1.09854,-0.07032 1.41081,-0.427789 1.41081,-1.54121 0,-1.25407 -0.401496,-1.62326 -1.91268,-1.62326 h -1.97402 z m 0.747231,0.615314 h 1.271409 c 0.897791,0 1.132,0.181664 1.132,1.0138 0,0.861439 -0.245358,0.996222 -1.132,0.996222 H 17.08727 v -2.01002 z m 6.814289,0.814558 h 0.658008 v -1.05482 c -0.301122,-0.281286 -0.925673,-0.474671 -1.63944,-0.474671 -1.53349,0 -2.0967,0.925901 -2.0967,3.00039 0,2.18583 0.618974,2.70738 1.8848,2.70738 1.03162,0 1.9573,-0.351608 1.9573,-1.92212 0,-1.14273 -0.479565,-1.76976 -1.67848,-1.76976 -0.540905,0 -1.0372,0.140643 -1.461,0.392629 0.06692,-1.19547 0.434955,-1.8225 1.39966,-1.8225 0.440531,0 0.847604,0.111342 0.970283,0.222685 v 0.720796 z m -1.01489,1.03138 c 0.79184,0 1.09854,0.43365 1.09854,1.22477 0,1.01966 -0.524176,1.33025 -1.23237,1.33025 -0.847604,0 -1.21007,-0.410209 -1.23237,-2.15067 0.418227,-0.257846 0.881062,-0.404349 1.3662,-0.40435 z m -6.54662,4.74085 v 5.50266 h 0.74723 v -2.32647 h 0.903367 l 1.54465,2.32647 h 0.836452 l -1.566951,-2.33819 c 1.09854,-0.07032 1.41081,-0.427789 1.41081,-1.54121 0,-1.25407 -0.401497,-1.62326 -1.91268,-1.62326 h -1.97402 z m 0.74723,0.615314 h 1.27141 c 0.897792,0 1.132001,0.181664 1.132001,1.0138 0,0.861439 -0.245359,0.996222 -1.132001,0.996222 h -1.27141 v -2.01002 z m 3.725,-0.615314 v 0.586013 h 3.044681 l -2.308611,4.91665 h 0.775111 l 2.28072,-4.94009 v -0.562572 h -3.78634 z m -4.46665,7.2021 v 5.50266 h 0.74723 v -2.32647 h 0.903367 l 1.54465,2.32647 h 0.836451 l -1.566949,-2.33819 c 1.098539,-0.07032 1.410809,-0.427789 1.410809,-1.54121 0,-1.25407 -0.401497,-1.62326 -1.91268,-1.62326 h -1.974019 z m 0.74723,0.615314 h 1.27141 c 0.897791,0 1.132,0.181664 1.132,1.0138 0,0.861439 -0.245359,0.996222 -1.132,0.996222 h -1.27141 v -2.01002 z m 3.61905,3.35785 c 0,1.15445 0.992589,1.62912 2.00748,1.62912 1.00374,0 1.99075,-0.474671 1.99075,-1.62912 0,-0.720796 -0.384767,-1.14859 -0.936824,-1.35369 0.540904,-0.216825 0.853179,-0.644614 0.853179,-1.23649 0,-0.966921 -0.85318,-1.48847 -1.90711,-1.48847 -1.06508,0 -1.91268,0.527412 -1.91268,1.48847 0,0.597733 0.306699,1.01966 0.847604,1.23649 -0.557634,0.205105 -0.936825,0.627034 -0.936825,1.35369 z m 2.00748,-1.03724 c 0.697043,0 1.30486,0.246125 1.30486,0.996222 0,0.767677 -0.646856,1.07826 -1.30486,1.07826 -0.663585,0 -1.30486,-0.310587 -1.30486,-1.07826 0,-0.750097 0.602245,-0.996222 1.30486,-0.996222 z m 0,-2.45539 c 0.680314,0 1.232371,0.293007 1.232371,0.949341 0,0.644614 -0.518601,0.937621 -1.232371,0.937621 -0.713772,0 -1.23795,-0.293007 -1.23795,-0.937621 0,-0.656335 0.552058,-0.949341 1.23795,-0.949341 z m -6.36818,6.71571 v 5.50266 h 0.747231 v -2.32647 h 0.903366 l 1.544651,2.32647 h 0.836451 l -1.566951,-2.33819 c 1.09854,-0.07032 1.41081,-0.427789 1.41081,-1.54121 0,-1.25407 -0.401496,-1.62326 -1.91268,-1.62326 h -1.97402 z m 0.747231,0.615314 h 1.271409 c 0.897791,0 1.132,0.181664 1.132,1.0138 0,0.861439 -0.245358,0.996222 -1.132,0.996222 H 17.09844 v -2.01002 z m 4.86815,4.88735 h 0.836451 c 1.36063,-1.28923 1.856919,-2.31475 1.856919,-3.6743 0,-1.34197 -0.473989,-1.93384 -1.92941,-1.93384 -1.31044,0 -2.02421,0.474671 -2.02421,1.9104 0,1.40057 0.68589,1.99244 1.711941,1.99244 0.490718,0 0.89779,-0.134783 1.20449,-0.293007 -0.295547,0.597733 -0.80857,1.23063 -1.656171,1.99244 z m 0.663585,-2.29131 c -0.819723,0 -1.232371,-0.398489 -1.232371,-1.37713 0,-1.06654 0.47399,-1.35369 1.31044,-1.35369 0.981437,0 1.27698,0.404349 1.27698,1.39471 0,0.328167 -0.03346,0.644614 -0.111526,0.961061 -0.33458,0.228545 -0.758383,0.375048 -1.24352,0.375048 z m -4.304941,6.38168 v 0.586013 h 1.07066 v 1.26579 c -0.334579,0.369188 -0.79184,0.697355 -1.42754,0.697355 -0.68589,0 -0.964707,-0.375048 -0.964707,-2.20341 0,-1.86938 0.301122,-2.20341 1.271411,-2.20341 0.524175,0 0.886637,0.09962 1.08739,0.216825 v 0.761817 h 0.691465 v -1.14859 c -0.301122,-0.263706 -0.853179,-0.474671 -1.806729,-0.474671 -1.500041,0 -1.990751,0.527412 -1.990751,2.8363 0,2.29131 0.485142,2.84802 1.527921,2.84802 0.830874,0 1.36063,-0.351608 1.67848,-0.709076 L 19.59109,97.3349 h 0.507447 v -3.10587 h -1.77328 z m 4.33839,-2.49642 c -1.50561,0 -1.87923,1.62912 -1.87923,2.79528 0,1.15445 0.356886,2.91834 1.90711,2.91834 1.46658,0 1.862501,-1.5881 1.862501,-2.85388 0,-1.23649 -0.384769,-2.85388 -1.890381,-2.85388 z m 0,0.568433 c 0.892215,0 1.159881,1.03724 1.159881,2.29131 0,1.27165 -0.278817,2.29717 -1.13757,2.29717 -0.914521,0 -1.165461,-1.11928 -1.165461,-2.32647 0,-1.21891 0.250935,-2.26201 1.14315,-2.26201 z m -4.33839,9.130084 v 0.58601 h 1.07066 v 1.26579 c -0.334579,0.36919 -0.79184,0.69735 -1.42754,0.69735 -0.68589,0 -0.964707,-0.37504 -0.964707,-2.20341 0,-1.869376 0.301122,-2.203406 1.271411,-2.203406 0.524175,0 0.886637,0.09962 1.08739,0.216825 v 0.761821 h 0.691465 v -1.148594 c -0.301122,-0.263706 -0.853179,-0.474671 -1.806729,-0.474671 -1.500041,0 -1.990751,0.527412 -1.990751,2.836295 0,2.29131 0.485142,2.84802 1.527921,2.84802 0.830874,0 1.36063,-0.3516 1.67848,-0.70907 l 0.128256,0.62703 h 0.507447 v -3.10587 h -1.77328 z m 2.72683,-1.23063 v 0.56257 h 0.45726 c 0.373615,0 0.680314,-0.0703 0.920096,-0.22269 v 3.41646 h -1.438699 v 0.58602 h 3.462909 v -0.58602 h -1.31044 v -4.916647 h -0.641279 v 0.205105 c 0,0.673915 -0.250935,0.961062 -1.04835,0.961062 h -0.407073 z m -2.72683,8.43273 v 0.58601 h 1.07066 v 1.26579 c -0.334579,0.36919 -0.79184,0.69735 -1.42754,0.69735 -0.68589,0 -0.964707,-0.37504 -0.964707,-2.20341 0,-1.86938 0.301122,-2.20341 1.27141,-2.20341 0.524176,0 0.886638,0.0996 1.087391,0.21683 v 0.76182 h 0.691465 v -1.14859 c -0.301122,-0.26371 -0.85318,-0.47468 -1.80673,-0.47468 -1.50004,0 -1.99075,0.52742 -1.99075,2.8363 0,2.29131 0.485142,2.84802 1.527921,2.84802 0.830874,0 1.36063,-0.3516 1.67848,-0.70907 l 0.128255,0.62703 h 0.507448 v -3.10587 h -1.77328 z m 2.53724,-0.96692 h 0.663586 v -0.69736 c 0.312275,-0.16994 0.630126,-0.24613 1.120839,-0.24613 0.708195,0 1.237951,0.24027 1.237951,1.04896 0,1.00208 -0.747231,1.9104 -2.98334,3.40474 v 0.56844 h 3.76961 v -0.58601 h -2.83278 c 1.94614,-1.35956 2.749139,-2.26788 2.749139,-3.35199 0,-1.2951 -0.83645,-1.66429 -1.957299,-1.66429 -0.652432,0 -1.30486,0.11721 -1.77328,0.48054 v 1.04896 z m -2.53724,8.16316 v 0.58601 h 1.07066 v 1.26579 c -0.334579,0.36919 -0.79184,0.69735 -1.42754,0.69735 -0.68589,0 -0.964707,-0.37504 -0.964707,-2.20341 0,-1.86938 0.301122,-2.20341 1.27141,-2.20341 0.524176,0 0.886638,0.0996 1.087391,0.21683 v 0.76181 h 0.691465 v -1.14859 c -0.301122,-0.2637 -0.85318,-0.47467 -1.80673,-0.47467 -1.50004,0 -1.99075,0.52742 -1.99075,2.8363 0,2.29131 0.485142,2.84802 1.527921,2.84802 0.830874,0 1.36063,-0.3516 1.67848,-0.70907 l 0.128255,0.62703 h 0.507448 v -3.10587 h -1.77328 z m 2.53724,-0.96693 h 0.663586 v -0.69735 c 0.239783,-0.13478 0.574362,-0.24613 1.120839,-0.24613 0.847604,0 1.237951,0.29301 1.237951,0.99623 0,0.67391 -0.345733,0.89074 -1.19891,0.89074 h -0.691466 v 0.56257 h 0.691466 c 0.869909,0 1.265829,0.15236 1.265829,0.96692 0,0.84972 -0.485141,1.11928 -1.265829,1.11928 -0.85318,0 -1.193341,-0.31059 -1.193341,-1.00208 v -0.13478 h -0.663585 v 0.14064 c 0,1.17789 0.663585,1.5881 1.84019,1.5881 1.070661,0 1.990751,-0.33403 1.990751,-1.71702 0,-0.76182 -0.35131,-1.11928 -0.830875,-1.28923 0.434954,-0.18167 0.741653,-0.51569 0.741653,-1.18375 0,-1.0431 -0.62455,-1.52363 -1.95172,-1.52363 -0.730502,0 -1.29371,0.15822 -1.75097,0.47467 v 1.05482 z m -2.53724,8.16316 v 0.58602 h 1.07066 v 1.26579 c -0.334579,0.36918 -0.79184,0.69735 -1.42754,0.69735 -0.68589,0 -0.964707,-0.37505 -0.964707,-2.20341 0,-1.86938 0.301122,-2.20341 1.27141,-2.20341 0.524176,0 0.886638,0.0996 1.087391,0.21683 v 0.76181 h 0.691465 v -1.14859 c -0.301122,-0.2637 -0.85318,-0.47467 -1.80673,-0.47467 -1.50004,0 -1.99075,0.52741 -1.99075,2.8363 0,2.29131 0.485142,2.84802 1.527921,2.84802 0.830874,0 1.36063,-0.35161 1.67848,-0.70907 l 0.128255,0.62703 h 0.507448 v -3.10587 h -1.77328 z m 5.28079,-2.39679 -2.94988,3.4985 v 0.6036 h 2.88297 v 1.40057 h 0.68589 v -1.40057 h 0.540905 v -0.58602 h -0.540905 v -3.51608 H 23.60603 Z m -2.26399,3.51608 2.19708,-2.6019 v 2.6019 z m -3.0168,6.07695 v 0.58602 h 1.07066 v 1.26579 c -0.334579,0.36919 -0.79184,0.69735 -1.42754,0.69735 -0.68589,0 -0.964707,-0.37505 -0.964707,-2.20341 0,-1.86938 0.301122,-2.20341 1.271411,-2.20341 0.524175,0 0.886637,0.0996 1.08739,0.21683 v 0.76181 h 0.691465 v -1.14859 c -0.301122,-0.2637 -0.853179,-0.47467 -1.806729,-0.47467 -1.500041,0 -1.990751,0.52741 -1.990751,2.8363 0,2.29131 0.485142,2.84802 1.527921,2.84802 0.830874,0 1.36063,-0.35161 1.67848,-0.70907 l 0.128256,0.62703 h 0.507447 v -3.10587 h -1.77328 z m 3.08372,-2.39679 -0.451684,2.61362 0.535329,0.11721 c 0.356886,-0.36333 0.752806,-0.50983 1.27141,-0.50983 0.797417,0 1.171031,0.31058 1.171031,1.34783 0,1.10756 -0.47399,1.44159 -1.288131,1.44159 -0.786264,0 -1.171029,-0.31645 -1.171029,-1.00208 v -0.13479 h -0.658008 v 0.14065 c 0,1.16617 0.658008,1.5881 1.817889,1.5881 1.22122,0 2.007481,-0.46881 2.007481,-2.03933 0,-1.37127 -0.591092,-1.94556 -1.75097,-1.94556 -0.446107,0 -0.819723,0.0996 -1.154301,0.28714 l 0.250936,-1.32439 h 2.4759 v -0.58601 h -3.05583 z m -3.08372,9.59303 v 0.58602 h 1.07066 v 1.26579 c -0.334579,0.36919 -0.79184,0.69735 -1.42754,0.69735 -0.68589,0 -0.964707,-0.37505 -0.964707,-2.20341 0,-1.86938 0.301122,-2.20341 1.27141,-2.20341 0.524176,0 0.886638,0.0996 1.087391,0.21683 v 0.76181 h 0.691465 v -1.14859 c -0.301122,-0.2637 -0.85318,-0.47467 -1.80673,-0.47467 -1.50004,0 -1.99075,0.52741 -1.99075,2.8363 0,2.29131 0.485142,2.84802 1.527921,2.84802 0.830874,0 1.36063,-0.35161 1.67848,-0.70907 l 0.128255,0.62703 h 0.507448 v -3.10587 h -1.77328 z m 5.58192,-0.96692 h 0.658008 v -1.05482 c -0.301122,-0.28128 -0.925672,-0.47467 -1.63944,-0.47467 -1.53349,0 -2.0967,0.9259 -2.0967,3.00039 0,2.18583 0.618975,2.70738 1.8848,2.70738 1.031621,0 1.957301,-0.35161 1.957301,-1.92212 0,-1.14273 -0.479565,-1.76976 -1.67848,-1.76976 -0.540906,0 -1.037201,0.14064 -1.461001,0.39263 0.06692,-1.19547 0.434955,-1.8225 1.39966,-1.8225 0.440531,0 0.847604,0.11134 0.970283,0.22269 v 0.72079 z m -1.01489,1.03138 c 0.79184,0 1.09854,0.43365 1.09854,1.22477 0,1.01966 -0.524176,1.33025 -1.23237,1.33025 -0.847604,0 -1.21007,-0.41021 -1.23237,-2.15067 0.418226,-0.25784 0.881062,-0.40435 1.3662,-0.40435 z m -4.56702,7.13764 v 0.58602 h 1.07066 v 1.26579 c -0.334579,0.36918 -0.79184,0.69735 -1.42754,0.69735 -0.68589,0 -0.964707,-0.37505 -0.964707,-2.20341 0,-1.86938 0.301123,-2.20341 1.27141,-2.20341 0.524176,0 0.886638,0.0996 1.087391,0.21683 v 0.76181 h 0.691465 v -1.14859 c -0.301122,-0.2637 -0.853179,-0.47467 -1.806729,-0.47467 -1.500041,0 -1.990751,0.52741 -1.990751,2.8363 0,2.29131 0.485142,2.84802 1.527921,2.84802 0.830874,0 1.36063,-0.35161 1.67848,-0.70907 l 0.128256,0.62703 h 0.507446 v -3.10587 h -1.773279 z m 2.49262,-2.39679 v 0.58602 h 3.04468 l -2.30861,4.91665 h 0.775111 l 2.280721,-4.94009 v -0.56258 h -3.786341 z m -2.49262,9.59303 v 0.58602 h 1.07066 v 1.26579 c -0.334579,0.36918 -0.79184,0.69735 -1.42754,0.69735 -0.68589,0 -0.964707,-0.37505 -0.964707,-2.20341 0,-1.86938 0.301123,-2.20341 1.27141,-2.20341 0.524176,0 0.886638,0.0996 1.087391,0.21683 v 0.76181 h 0.691465 v -1.14859 c -0.301122,-0.2637 -0.853179,-0.47467 -1.806729,-0.47467 -1.500041,0 -1.990751,0.52741 -1.990751,2.8363 0,2.29131 0.485142,2.84802 1.527921,2.84802 0.830874,0 1.36063,-0.35161 1.67848,-0.70907 l 0.128256,0.62703 h 0.507446 v -3.10587 h -1.773279 z m 2.38667,1.58224 c 0,1.15445 0.99259,1.62912 2.00748,1.62912 1.00374,0 1.99075,-0.47467 1.99075,-1.62912 0,-0.72079 -0.384768,-1.14859 -0.936825,-1.35369 0.540906,-0.21682 0.853181,-0.64461 0.853181,-1.23649 0,-0.96692 -0.853181,-1.48847 -1.90711,-1.48847 -1.065081,0 -1.912681,0.52742 -1.912681,1.48847 0,0.59774 0.3067,1.01966 0.847604,1.23649 -0.557634,0.20511 -0.936824,0.62704 -0.936824,1.35369 z m 2.00748,-1.03724 c 0.697043,0 1.304861,0.24613 1.304861,0.99623 0,0.76767 -0.646856,1.07826 -1.304861,1.07826 -0.663584,0 -1.304859,-0.31059 -1.304859,-1.07826 0,-0.7501 0.602245,-0.99623 1.304859,-0.99623 z m 0,-2.45539 c 0.680315,0 1.232371,0.29301 1.232371,0.94934 0,0.64462 -0.518601,0.93763 -1.232371,0.93763 -0.713772,0 -1.237949,-0.29301 -1.237949,-0.93763 0,-0.65633 0.552057,-0.94934 1.237949,-0.94934 z m -4.388579,9.1125 v 0.58602 h 1.070659 v 1.26579 c -0.33458,0.36918 -0.791839,0.69735 -1.427539,0.69735 -0.68589,0 -0.964707,-0.37505 -0.964707,-2.20341 0,-1.86938 0.301121,-2.20341 1.271409,-2.20341 0.524177,0 0.886639,0.0996 1.08739,0.21683 v 0.76181 h 0.691467 v -1.14859 c -0.301122,-0.2637 -0.853181,-0.47467 -1.806731,-0.47467 -1.500039,0 -1.990749,0.52741 -1.990749,2.8363 0,2.29131 0.485142,2.84802 1.527919,2.84802 0.830876,0 1.36063,-0.35161 1.67848,-0.70907 l 0.128256,0.62703 h 0.507447 v -3.10587 h -1.77328 z m 3.635769,3.10587 h 0.836451 c 1.36063,-1.28923 1.856921,-2.31475 1.856921,-3.6743 0,-1.34197 -0.47399,-1.93384 -1.92941,-1.93384 -1.31044,0 -2.02421,0.47467 -2.02421,1.9104 0,1.40057 0.68589,1.99244 1.711939,1.99244 0.490718,0 0.897792,-0.13478 1.20449,-0.293 -0.295545,0.59773 -0.808568,1.23063 -1.65617,1.99244 z m 0.663585,-2.29131 c -0.819721,0 -1.232369,-0.39849 -1.232369,-1.37713 0,-1.06654 0.473988,-1.35369 1.310439,-1.35369 0.981436,0 1.27698,0.40435 1.27698,1.39471 0,0.32817 -0.03346,0.64462 -0.111527,0.96106 -0.334579,0.22855 -0.758382,0.37505 -1.24352,0.37505 z m -6.278959,3.98489 v 5.50266 h 2.07998 c 1.293709,0 1.806729,-0.39849 1.806729,-1.47089 0,-0.82627 -0.312275,-1.23649 -0.741653,-1.42987 0.340158,-0.19338 0.568787,-0.58015 0.568787,-1.25993 0,-0.97278 -0.468413,-1.34197 -1.723089,-1.34197 h -1.98518 z m 0.74723,2.91834 h 1.260249 c 0.752806,0 1.143151,0.14065 1.143151,0.97865 0,0.76181 -0.301122,0.9845 -1.143151,0.9845 H 17.09844 v -1.969 z m 0,-2.30303 h 1.210069 c 0.797418,0 1.070661,0.20511 1.070661,0.87902 0,0.7208 -0.295546,0.87902 -1.020471,0.87902 H 17.09287 v -1.7639 z m 5.57076,-0.72079 c -1.505611,0 -1.87923,1.62912 -1.87923,2.79528 0,1.15445 0.356885,2.91834 1.907109,2.91834 1.466581,0 1.862501,-1.5881 1.862501,-2.85388 0,-1.23649 -0.384769,-2.85388 -1.89038,-2.85388 z m 0,0.56843 c 0.892215,0 1.15988,1.03724 1.15988,2.29131 0,1.27165 -0.278817,2.29717 -1.13757,2.29717 -0.914521,0 -1.165461,-1.11928 -1.165461,-2.32647 0,-1.21891 0.250935,-2.26201 1.143151,-2.26201 z m -6.31242,6.73915 v 5.50266 h 2.079979 c 1.293711,0 1.806731,-0.39849 1.806731,-1.47089 0,-0.82628 -0.312276,-1.23649 -0.741654,-1.42987 0.340157,-0.19338 0.568787,-0.58015 0.568787,-1.25993 0,-0.97278 -0.468412,-1.34197 -1.72309,-1.34197 h -1.98518 z m 0.747229,2.91834 h 1.260251 c 0.752806,0 1.14315,0.14064 1.14315,0.97864 0,0.76182 -0.301122,0.9845 -1.14315,0.9845 h -1.260251 v -1.969 z m 0,-2.30303 h 1.210071 c 0.797416,0 1.07066,0.20511 1.07066,0.87902 0,0.7208 -0.295547,0.87902 -1.02047,0.87902 h -1.26583 v -1.7639 z m 3.9592,0.54499 v 0.56257 h 0.45726 c 0.373616,0 0.680314,-0.0703 0.920097,-0.22268 v 3.41646 h -1.438701 v 0.58601 h 3.462911 v -0.58601 h -1.31044 v -4.91665 h -0.64128 v 0.2051 c 0,0.67392 -0.250934,0.96107 -1.048349,0.96107 h -0.407073 z m -4.70086,6.03593 v 5.50266 h 2.07998 c 1.29371,0 1.806731,-0.39849 1.806731,-1.47089 0,-0.82628 -0.312275,-1.23649 -0.741653,-1.42987 0.340156,-0.19338 0.568787,-0.58015 0.568787,-1.25993 0,-0.97278 -0.468414,-1.34197 -1.72309,-1.34197 h -1.985181 z m 0.747231,2.91834 h 1.26025 c 0.752805,0 1.143149,0.14065 1.143149,0.97864 0,0.76182 -0.301122,0.98451 -1.143149,0.98451 h -1.26025 v -1.969 z m 0,-2.30303 h 1.210069 c 0.797417,0 1.07066,0.20511 1.07066,0.87902 0,0.7208 -0.295545,0.87902 -1.02047,0.87902 h -1.26583 v -1.7639 z m 3.76961,0.81456 h 0.663584 v -0.69735 c 0.312275,-0.16995 0.630128,-0.24613 1.120841,-0.24613 0.708194,0 1.23795,0.24027 1.23795,1.04896 0,1.00208 -0.74723,1.9104 -2.983341,3.40474 v 0.56843 h 3.76961 v -0.58601 h -2.832779 c 1.946139,-1.35955 2.74914,-2.26787 2.74914,-3.35199 0,-1.29509 -0.836451,-1.66428 -1.9573,-1.66428 -0.652432,0 -1.30486,0.1172 -1.77328,0.48053 v 1.04896 z m -4.516841,5.77223 v 5.50266 h 2.07998 c 1.29371,0 1.806731,-0.39849 1.806731,-1.47089 0,-0.82628 -0.312275,-1.23649 -0.741653,-1.42987 0.340156,-0.19338 0.568787,-0.58015 0.568787,-1.25993 0,-0.97278 -0.468414,-1.34197 -1.72309,-1.34197 h -1.985181 z m 0.747231,2.91834 h 1.26025 c 0.752805,0 1.143149,0.14064 1.143149,0.97864 0,0.76182 -0.301122,0.9845 -1.143149,0.9845 h -1.26025 v -1.969 z m 0,-2.30303 h 1.210069 c 0.797417,0 1.07066,0.20511 1.07066,0.87902 0,0.7208 -0.295545,0.87902 -1.02047,0.87902 h -1.26583 v -1.7639 z m 3.76961,0.81456 h 0.663584 v -0.69736 c 0.239784,-0.13478 0.574364,-0.24612 1.120841,-0.24612 0.847604,0 1.23795,0.29301 1.23795,0.99622 0,0.67392 -0.345733,0.89074 -1.19891,0.89074 h -0.691466 v 0.56257 h 0.691466 c 0.869908,0 1.26583,0.15237 1.26583,0.96692 0,0.84972 -0.485142,1.11928 -1.26583,1.11928 -0.85318,0 -1.19334,-0.31058 -1.19334,-1.00208 v -0.13478 H 20.84573 v 0.14064 c 0,1.17789 0.663585,1.5881 1.84019,1.5881 1.070659,0 1.99075,-0.33402 1.99075,-1.71702 0,-0.76181 -0.351309,-1.11928 -0.830875,-1.28923 0.434955,-0.18166 0.741653,-0.51569 0.741653,-1.18375 0,-1.0431 -0.62455,-1.52363 -1.95172,-1.52363 -0.730501,0 -1.29371,0.15823 -1.75097,0.47467 v 1.05482 z m -4.516841,5.77223 v 5.50266 h 2.07998 c 1.29371,0 1.806731,-0.39849 1.806731,-1.47089 0,-0.82628 -0.312275,-1.23649 -0.741653,-1.42987 0.340156,-0.19339 0.568787,-0.58015 0.568787,-1.25993 0,-0.97278 -0.468414,-1.34197 -1.72309,-1.34197 h -1.985181 z m 0.747231,2.91834 h 1.26025 c 0.752805,0 1.143149,0.14064 1.143149,0.97864 0,0.76182 -0.301122,0.9845 -1.143149,0.9845 h -1.26025 v -1.969 z m 0,-2.30303 h 1.210069 c 0.797417,0 1.07066,0.2051 1.07066,0.87902 0,0.72079 -0.295545,0.87902 -1.02047,0.87902 h -1.26583 v -1.7639 z m 6.513169,-0.61532 -2.94988,3.4985 v 0.6036 h 2.88297 v 1.40057 h 0.685891 v -1.40057 h 0.540904 v -0.58602 H 24.24173 v -3.51608 h -0.618974 z m -2.263989,3.51608 2.197079,-2.6019 v 2.6019 z m -4.996401,3.68602 v 5.50266 h 2.079981 c 1.293709,0 1.806729,-0.39848 1.806729,-1.47089 0,-0.82627 -0.312274,-1.23649 -0.741652,-1.42987 0.340157,-0.19338 0.568787,-0.58015 0.568787,-1.25993 0,-0.97278 -0.468414,-1.34197 -1.723091,-1.34197 h -1.98518 z m 0.747231,2.91834 h 1.260249 c 0.752806,0 1.143151,0.14065 1.143151,0.97865 0,0.76181 -0.301123,0.9845 -1.143151,0.9845 H 17.10959 v -1.969 z m 0,-2.30303 h 1.210069 c 0.797418,0 1.07066,0.20511 1.07066,0.87902 0,0.7208 -0.295545,0.87902 -1.02047,0.87902 h -1.26583 v -1.7639 z m 4.316089,-0.61531 -0.451684,2.61362 0.53533,0.1172 c 0.356885,-0.36332 0.752806,-0.50983 1.271409,-0.50983 0.797417,0 1.171031,0.31059 1.171031,1.34783 0,1.10756 -0.47399,1.44159 -1.288131,1.44159 -0.786263,0 -1.171029,-0.31644 -1.171029,-1.00208 v -0.13478 h -0.658008 v 0.14064 c 0,1.16617 0.658008,1.5881 1.81789,1.5881 1.221219,0 2.00748,-0.46881 2.00748,-2.03933 0,-1.37127 -0.591092,-1.94556 -1.75097,-1.94556 -0.446107,0 -0.819722,0.0996 -1.1543,0.28715 l 0.250935,-1.32439 h 2.4759 v -0.58601 h -3.05583 z m -5.06332,7.2021 v 5.50266 h 2.079981 c 1.293709,0 1.806729,-0.39849 1.806729,-1.47089 0,-0.82628 -0.312274,-1.23649 -0.741652,-1.42987 0.340157,-0.19338 0.568787,-0.58015 0.568787,-1.25993 0,-0.97278 -0.468414,-1.34197 -1.723091,-1.34197 h -1.98518 z m 0.747231,2.91834 h 1.260249 c 0.752806,0 1.143151,0.14064 1.143151,0.97864 0,0.76182 -0.301123,0.9845 -1.143151,0.9845 H 17.10959 v -1.969 z m 0,-2.30303 h 1.210069 c 0.797418,0 1.07066,0.20511 1.07066,0.87902 0,0.7208 -0.295545,0.87902 -1.02047,0.87902 h -1.26583 v -1.7639 z m 6.81429,0.81456 h 0.658007 v -1.05482 c -0.301122,-0.28129 -0.925673,-0.47467 -1.63944,-0.47467 -1.53349,0 -2.096699,0.9259 -2.096699,3.00039 0,2.18583 0.618973,2.70738 1.884799,2.70738 1.03162,0 1.9573,-0.35161 1.9573,-1.92212 0,-1.14273 -0.479565,-1.76976 -1.67848,-1.76976 -0.540905,0 -1.0372,0.14064 -1.461,0.39263 0.06692,-1.19547 0.434955,-1.8225 1.39966,-1.8225 0.440531,0 0.847604,0.11134 0.970283,0.22268 v 0.7208 z m -1.014891,1.03138 c 0.79184,0 1.09854,0.43365 1.09854,1.22477 0,1.01966 -0.524176,1.33025 -1.23237,1.33025 -0.847604,0 -1.21007,-0.41021 -1.232369,-2.15067 0.418226,-0.25785 0.881062,-0.40435 1.366199,-0.40435 z m -6.54662,4.74085 v 5.50266 h 2.07998 c 1.29371,0 1.80673,-0.39849 1.80673,-1.47089 0,-0.82628 -0.312275,-1.23649 -0.741653,-1.42987 0.340157,-0.19339 0.568788,-0.58015 0.568788,-1.25993 0,-0.97278 -0.468414,-1.34197 -1.72309,-1.34197 h -1.985181 z m 0.747231,2.91834 h 1.260249 c 0.752806,0 1.14315,0.14064 1.14315,0.97864 0,0.76182 -0.301122,0.9845 -1.14315,0.9845 H 17.1096 v -1.969 z m 0,-2.30303 h 1.210069 c 0.797417,0 1.07066,0.2051 1.07066,0.87902 0,0.72079 -0.295545,0.87902 -1.02047,0.87902 h -1.26583 v -1.7639 z m 3.724999,-0.61532 v 0.58602 h 3.044681 l -2.308611,4.91665 h 0.775111 l 2.28072,-4.94009 v -0.56257 h -3.78634 z m -4.466649,7.2021 v 5.50266 h 2.079979 c 1.293711,0 1.806731,-0.39848 1.806731,-1.47089 0,-0.82627 -0.312276,-1.23649 -0.741654,-1.42987 0.340157,-0.19338 0.568787,-0.58015 0.568787,-1.25993 0,-0.97278 -0.468412,-1.34197 -1.72309,-1.34197 h -1.98518 z m 0.747229,2.91834 h 1.260251 c 0.752806,0 1.14315,0.14065 1.14315,0.97865 0,0.76181 -0.301122,0.9845 -1.14315,0.9845 h -1.260251 v -1.969 z m 0,-2.30303 h 1.210071 c 0.797416,0 1.07066,0.20511 1.07066,0.87902 0,0.7208 -0.295547,0.87902 -1.02047,0.87902 h -1.265831 v -1.7639 z m 3.619051,3.35785 c 0,1.15445 0.992588,1.62912 2.007479,1.62912 1.00374,0 1.99075,-0.47467 1.99075,-1.62912 0,-0.72079 -0.384767,-1.14859 -0.936824,-1.35369 0.540904,-0.21682 0.853179,-0.64461 0.853179,-1.23649 0,-0.96692 -0.85318,-1.48847 -1.90711,-1.48847 -1.06508,0 -1.91268,0.52742 -1.91268,1.48847 0,0.59774 0.306699,1.01966 0.847604,1.23649 -0.557634,0.20511 -0.936825,0.62704 -0.936825,1.35369 z m 2.007479,-1.03724 c 0.697043,0 1.30486,0.24613 1.30486,0.99623 0,0.76767 -0.646856,1.07826 -1.30486,1.07826 -0.663584,0 -1.30486,-0.31059 -1.30486,-1.07826 0,-0.7501 0.602245,-0.99623 1.30486,-0.99623 z m 0,-2.45539 c 0.680315,0 1.232371,0.29301 1.232371,0.94935 0,0.64461 -0.518601,0.93762 -1.232371,0.93762 -0.713772,0 -1.23795,-0.29301 -1.23795,-0.93762 0,-0.65634 0.552058,-0.94935 1.23795,-0.94935 z m -6.36818,6.71571 v 5.50266 h 2.079981 c 1.293709,0 1.806729,-0.39848 1.806729,-1.47089 0,-0.82627 -0.312275,-1.23649 -0.741652,-1.42987 0.340157,-0.19338 0.568787,-0.58015 0.568787,-1.25993 0,-0.97278 -0.468414,-1.34197 -1.723091,-1.34197 h -1.98518 z m 0.747231,2.91834 h 1.260249 c 0.752806,0 1.143151,0.14065 1.143151,0.97865 0,0.76181 -0.301123,0.9845 -1.143151,0.9845 H 17.12076 v -1.969 z m 0,-2.30303 h 1.210069 c 0.797418,0 1.07066,0.20511 1.07066,0.87902 0,0.7208 -0.295545,0.87902 -1.02047,0.87902 h -1.26583 v -1.7639 z m 4.86815,4.88735 h 0.836451 c 1.36063,-1.28923 1.856919,-2.31475 1.856919,-3.6743 0,-1.34197 -0.473988,-1.93384 -1.92941,-1.93384 -1.31044,0 -2.02421,0.47468 -2.02421,1.9104 0,1.40057 0.68589,1.99244 1.711941,1.99244 0.490718,0 0.89779,-0.13478 1.20449,-0.293 -0.295547,0.59773 -0.80857,1.23063 -1.656171,1.99244 z m 0.663585,-2.29131 c -0.819723,0 -1.232371,-0.39848 -1.232371,-1.37713 0,-1.06654 0.47399,-1.35369 1.31044,-1.35369 0.981437,0 1.276981,0.40435 1.276981,1.39471 0,0.32817 -0.03346,0.64462 -0.111527,0.96107 -0.33458,0.22854 -0.758382,0.37504 -1.24352,0.37504 z" fill-rule="nonzero" />
        <path id="path3" gorn="0.2.1" fill="black" stroke="none" d="m 31.277023,38.389833 h 5.50126 v -0.783537 h -2.32397 v -0.952709 l 2.32397,-1.62346 v -0.881478 l -2.33733,1.64424 c -0.06975,-1.15453 -0.427397,-1.48397 -1.54041,-1.48397 -1.25251,0 -1.62352,0.419964 -1.62352,2.0093 v 2.07162 z m 0.615868,-0.783537 v -1.33706 c 0,-0.945288 0.182534,-1.19014 1.01507,-1.19014 0.860731,0 0.994293,0.259695 0.994293,1.19014 v 1.33706 h -2.00936 z m 0.811759,-7.084469 v -0.72863 h -1.05662 c -0.322032,0.468935 -0.47637,1.08478 -0.47637,1.84754 0,1.19014 0.378425,2.169561 1.49886,2.169561 0.587672,0 0.958676,-0.286406 1.19018,-0.868124 0.244863,-0.546101 0.322032,-1.288089 0.482306,-1.847539 0.154338,-0.538682 0.342808,-0.713791 0.777626,-0.713791 0.664841,0 1.11301,0.370993 1.11301,1.421641 0,1.07736 -0.468949,1.28067 -0.994292,1.28067 h -0.08459 v 0.741984 h 0.08459 c 0.903768,0 1.64429,-0.342797 1.64429,-1.988519 0,-1.512171 -0.623288,-2.22596 -1.77786,-2.22596 -0.74201,0 -1.09966,0.335376 -1.32968,1.05659 -0.371005,1.141169 -0.27306,2.37287 -1.14121,2.37287 -0.574315,0 -0.819179,-0.574298 -0.819179,-1.35783 0,-0.44816 0.06975,-0.832507 0.231507,-1.161951 h 0.657421 z m -1.42763,-1.61011 h 5.50126 v -4.011171 h -0.644064 v 3.22615 h -1.91735 v -3.10743 h -0.623288 v 3.10743 h -1.67249 v -3.2128 h -0.644064 v 3.99633 z m 0,-4.578051 h 0.644064 v -1.72141 h 4.85868 V 21.82872 h -4.85868 V 20.11325 H 31.27702 v 4.22041 z m 7.20046,21.875199 h 5.50126 v -0.783537 h -1.83425 v -1.15453 c 0,-1.69321 -0.399201,-2.141369 -1.82683,-2.141369 -1.42763,0 -1.84018,0.448158 -1.84018,2.141369 v 1.93955 z m 0.644064,-0.783537 v -1.21092 c 0,-1.043229 0.231507,-1.31628 1.20354,-1.31628 0.973517,0 1.196121,0.273051 1.196121,1.31628 v 1.21092 h -2.401141 z m 0.783562,-7.084469 v -0.72863 h -1.05662 c -0.322032,0.468935 -0.47637,1.08478 -0.47637,1.84754 0,1.19014 0.378426,2.169561 1.498861,2.169561 0.587672,0 0.958675,-0.286406 1.19018,-0.868124 0.244862,-0.546101 0.322032,-1.288089 0.482305,-1.847539 0.154338,-0.538682 0.342808,-0.713791 0.777626,-0.713791 0.664842,0 1.11301,0.370993 1.11301,1.421641 0,1.07736 -0.468949,1.28067 -0.994293,1.28067 h -0.08459 v 0.741984 h 0.08459 c 0.903768,0 1.64429,-0.342797 1.64429,-1.988519 0,-1.512171 -0.623288,-2.22596 -1.77786,-2.22596 -0.74201,0 -1.09966,0.335376 -1.32968,1.05659 -0.371005,1.141169 -0.273059,2.37287 -1.14121,2.37287 -0.574315,0 -0.819179,-0.574298 -0.819179,-1.35783 0,-0.44816 0.06975,-0.832507 0.231507,-1.161951 h 0.657421 z m -1.42763,-3.199441 5.501261,1.84012 v -0.734564 l -1.077401,-0.342797 v -2.218541 l 1.077401,-0.335377 v -0.7776 l -5.501261,1.805989 v 0.762761 z m 0.917125,-0.370993 2.919069,-0.902254 v 1.84754 l -2.919069,-0.945289 z m -0.917125,-2.5272 5.501261,-1.80599 v -0.762761 l -5.501261,-1.84161 v 0.777602 l 4.55,1.442419 -4.55,1.37267 v 0.819153 z m 0,-4.99059 h 5.501261 v -4.01117 h -0.644064 v 3.22615 h -1.917351 v -3.10743 h -0.623288 v 3.10743 h -1.67249 v -3.2128 H 38.47748 v 3.99633 z m 0,-6.23713 3.794641,-0.126137 v -0.657399 l -3.794641,-0.118718 v 0.903738 z m 4.94178,0.160269 c 0.406621,0 0.615868,-0.195884 0.615868,-0.615848 0,-0.419964 -0.210731,-0.615848 -0.615868,-0.615848 -0.399201,0 -0.595092,0.195884 -0.595092,0.615848 0,0.419964 0.195891,0.615848 0.595092,0.615848 z m 2.628201,13.334962 c -0.26564,0.314602 -0.476371,0.896318 -0.476371,1.88909 0,1.58191 0.532764,2.09982 2.8419,2.09982 2.295781,0 2.87009,-0.510486 2.87009,-2.02265 0,-1.25247 -0.399201,-1.95291 -1.58938,-1.95291 h -0.139498 v 0.700434 h 0.139498 c 0.685617,0 0.94532,0.419964 0.94532,1.21834 0,0.966065 -0.371005,1.274731 -2.21861,1.274731 -1.86244,0 -2.20525,-0.314602 -2.20525,-1.33706 0,-0.517907 0.08459,-0.917094 0.216667,-1.141171 h 0.762786 v -0.728628 h -1.14863 z m -0.448175,-2.77948 c 0,1.65166 0.182534,2.07162 2.83448,2.07162 2.65343,0 2.82112,-0.419964 2.82112,-2.07162 0,-1.65166 -0.167693,-2.07162 -2.82112,-2.07162 -2.65343,0 -2.83448,0.419965 -2.83448,2.07162 z m 0.636644,0 c 0,-1.07736 0.111301,-1.30886 2.19783,-1.30886 2.07911,0 2.19041,0.231499 2.19041,1.30886 0,1.07736 -0.111301,1.30144 -2.19041,1.30144 -2.08653,0 -2.19783,-0.22408 -2.19783,-1.30144 z m -0.559475,-2.58953 h 5.50126 v -0.71379 h -4.382309 l 2.42192,-1.31628 v -0.273051 l -2.414501,-1.30886 h 4.37489 v -0.70637 h -5.50126 v 0.693014 l 2.55548,1.463191 -2.555479,1.476549 v 0.685594 z m 0,-4.94904 h 5.50126 V 23.40915 h -1.83425 v -1.15453 c 0,-1.69321 -0.399201,-2.14137 -1.82683,-2.14137 -1.42763,0 -1.84018,0.448159 -1.84018,2.14137 v 1.939551 z m 0.644064,-0.783536 v -1.21092 c 0,-1.04323 0.231507,-1.31628 1.20354,-1.31628 0.973517,0 1.196121,0.273051 1.196121,1.31628 v 1.21092 h -2.401141 z m 6.556401,22.796753 h 5.501259 v -2.1844 c 0,-1.35783 -0.399201,-1.89651 -1.47066,-1.89651 -0.826599,0 -1.23916,0.329441 -1.42763,0.777601 -0.195891,-0.357637 -0.581736,-0.595072 -1.25993,-0.595072 -0.973517,0 -1.34452,0.48971 -1.34452,1.81341 v 2.08498 z m 2.919069,-0.783536 v -1.3237 c 0,-0.790956 0.139498,-1.2035 0.979453,-1.2035 0.762786,0 0.986874,0.314602 0.986874,1.2035 v 1.3237 h -1.96633 z m -2.303199,0 v -1.27473 c 0,-0.839927 0.203311,-1.12633 0.881507,-1.12633 0.721232,0 0.881506,0.307182 0.881506,1.07143 v 1.32964 h -1.76301 z m -0.615869,-4.03937 h 5.50126 v -3.87761 h -0.644064 v 3.08666 h -4.8572 v 0.790957 z m 0,-6.24306 5.50126,1.84012 v -0.734565 l -1.0774,-0.342797 v -2.21854 l 1.0774,-0.335377 v -0.777601 l -5.50126,1.80599 v 0.762761 z m 0.917124,-0.370993 2.919071,-0.902254 v 1.84754 l -2.919071,-0.945289 z m -0.917124,-2.71567 h 5.50126 v -0.71379 h -4.36747 l 4.36747,-2.72309 v -0.587652 h -5.50126 v 0.71379 h 4.10925 l -4.10925,2.512361 v 0.798376 z m 0,-8.18261 3.086761,2.59695 h -3.08676 v 0.783537 h 5.50126 v -0.783537 h -1.54635 l -1.60274,-1.4068 3.15057,-1.21092 v -0.839927 l -3.79464,1.48397 -1.70811,-1.49881 v 0.875543 z m 0,-2.85516 3.79464,-0.126137 v -0.657399 l -3.79464,-0.118718 v 0.903738 z m 4.94178,0.160269 c 0.406621,0 0.615868,-0.195884 0.615868,-0.615848 0,-0.419964 -0.210731,-0.615848 -0.615868,-0.615848 -0.399201,0 -0.595092,0.195884 -0.595092,0.615848 0,0.419964 0.195891,0.615848 0.595092,0.615848 z m 3.6863,17.163591 v -0.728629 h -1.05662 c -0.322032,0.468935 -0.47637,1.08478 -0.47637,1.84754 0,1.19014 0.378426,2.16956 1.498861,2.16956 0.587671,0 0.958675,-0.286406 1.190179,-0.868123 0.244863,-0.546101 0.322032,-1.28809 0.482307,-1.84754 0.154338,-0.538681 0.342807,-0.71379 0.777625,-0.71379 0.664842,0 1.11301,0.370993 1.11301,1.42164 0,1.07736 -0.468949,1.28067 -0.994293,1.28067 h -0.08459 v 0.741985 h 0.08459 c 0.903769,0 1.644291,-0.342796 1.644291,-1.98852 0,-1.51217 -0.623288,-2.22596 -1.77786,-2.22596 -0.74201,0 -1.09966,0.335377 -1.32968,1.05659 -0.371005,1.14117 -0.27306,2.37287 -1.14121,2.37287 -0.574315,0 -0.819179,-0.574296 -0.819179,-1.357829 0,-0.44816 0.06975,-0.832508 0.231507,-1.161951 h 0.657421 z m -1.42763,-1.18272 2.56142,-1.98852 h 2.93984 v -0.783536 h -2.93984 l -2.56142,-1.97368 v 0.847347 l 1.98117,1.51959 -1.98117,1.50475 v 0.875544 z m 0,-5.10337 h 5.50126 v -0.71379 h -4.36747 l 4.36747,-2.72309 v -0.587652 h -5.50126 v 0.71379 h 4.10925 l -4.10925,2.51236 v 0.798376 z m 0.371005,-8.70052 c -0.265639,0.314602 -0.47637,0.896318 -0.47637,1.88909 0,1.58191 0.532763,2.09982 2.8419,2.09982 2.29578,0 2.87009,-0.510486 2.87009,-2.02265 0,-1.25247 -0.399201,-1.95291 -1.58938,-1.95291 h -0.139498 v 0.700434 h 0.139498 c 0.685617,0 0.94532,0.419964 0.94532,1.21834 0,0.966065 -0.371005,1.27473 -2.21861,1.27473 -1.86244,0 -2.20525,-0.314602 -2.20525,-1.33706 0,-0.517906 0.08459,-0.917093 0.216667,-1.141169 h 0.762786 v -0.72863 h -1.148629 z m -0.371005,-2.33725 3.79464,-0.126137 v -0.657399 l -3.79464,-0.118718 v 0.903738 z m 4.94178,0.160269 c 0.406621,0 0.615868,-0.195884 0.615868,-0.615848 0,-0.419964 -0.210731,-0.615848 -0.615868,-0.615848 -0.3992,0 -0.595092,0.195884 -0.595092,0.615848 0,0.419964 0.195892,0.615848 0.595092,0.615848 z m 2.6282,18.249858 c -0.265639,0.314602 -0.47637,0.896318 -0.47637,1.88909 0,1.58191 0.532763,2.09982 2.8419,2.09982 2.29578,0 2.87009,-0.510486 2.87009,-2.02265 0,-1.25247 -0.399201,-1.95291 -1.58938,-1.95291 H 71.15409 v 0.700435 h 0.139498 c 0.685616,0 0.94532,0.419963 0.94532,1.21834 0,0.966065 -0.371005,1.274729 -2.21861,1.274729 -1.86244,0 -2.205251,-0.314602 -2.205251,-1.33706 0,-0.517905 0.08459,-0.917094 0.216667,-1.141169 h 0.762787 v -0.72863 h -1.14863 z m -0.371004,-0.924514 h 5.50126 v -3.87761 h -0.644065 v 3.08666 h -4.8572 v 0.790956 z m -0.07717,-6.59328 c 0,1.65166 0.182534,2.07162 2.83448,2.07162 2.65343,0 2.821121,-0.419964 2.821121,-2.07162 0,-1.65166 -0.167695,-2.07162 -2.821121,-2.07162 -2.65343,0 -2.83448,0.419964 -2.83448,2.07162 z m 0.636644,0 c 0,-1.07736 0.111301,-1.30886 2.19783,-1.30886 2.07911,0 2.19041,0.231499 2.19041,1.30886 0,1.07736 -0.111301,1.30144 -2.19041,1.30144 -2.08653,0 -2.19783,-0.22408 -2.19783,-1.30144 z m -0.18847,-6.69864 c -0.265639,0.314602 -0.47637,0.896318 -0.47637,1.88909 0,1.58191 0.532763,2.09982 2.8419,2.09982 2.29578,0 2.87009,-0.510486 2.87009,-2.02265 0,-1.25247 -0.399201,-1.95291 -1.58938,-1.95291 h -0.139498 v 0.700434 h 0.139498 c 0.685617,0 0.94532,0.419964 0.94532,1.21834 0,0.966065 -0.371005,1.27473 -2.21861,1.27473 -1.86244,0 -2.205251,-0.314602 -2.205251,-1.33706 0,-0.517906 0.08459,-0.917094 0.216667,-1.14117 H 68.7945 v -0.728629 h -1.14863 z m -0.371005,-4.22041 3.08676,2.59695 h -3.08676 v 0.783536 h 5.50126 v -0.783536 h -1.54635 l -1.602739,-1.4068 3.150569,-1.21092 V 20.12809 l -3.794639,1.48397 -1.70811,-1.49881 v 0.875543 z m 7.20046,21.845537 h 5.501261 v -0.783536 h -2.56142 v -2.33132 h 2.56142 v -0.783536 h -5.501261 v 0.783537 h 2.31655 v 2.33132 h -2.31655 z m 1.42763,-7.86801 v -0.728629 h -1.05662 c -0.322032,0.468935 -0.47637,1.08478 -0.47637,1.84754 0,1.19014 0.378425,2.16956 1.49886,2.16956 0.587672,0 0.958676,-0.286406 1.19018,-0.868123 0.244863,-0.546101 0.322032,-1.28809 0.482306,-1.84754 0.154338,-0.538681 0.342808,-0.71379 0.777626,-0.71379 0.664841,0 1.11301,0.370993 1.11301,1.42164 0,1.077361 -0.46895,1.28067 -0.994293,1.28067 h -0.08459 v 0.741986 h 0.08459 c 0.903768,0 1.64429,-0.342798 1.64429,-1.98852 0,-1.512171 -0.623288,-2.22596 -1.77786,-2.22596 -0.74201,0 -1.09966,0.335377 -1.32968,1.05659 -0.371005,1.141169 -0.27306,2.37287 -1.14121,2.37287 -0.574315,0 -0.819179,-0.574298 -0.819179,-1.35783 0,-0.448159 0.06975,-0.832507 0.231507,-1.16195 h 0.657421 z m 0.399201,-1.35783 2.91165,-1.73625 2.1919,1.41422 v -0.798376 l -5.10354,-3.28996 v 0.790956 l 2.32397,1.49733 -2.32397,1.32964 v 0.790957 z m 0,-5.14493 h 3.67443 v -0.749405 h -2.51244 c -0.371004,-0.252275 -0.602512,-0.664819 -0.602512,-1.33706 0,-0.538681 0.154339,-0.811732 0.81918,-0.811732 h 2.295778 v -0.741985 h -2.33139 c -1.09966,0 -1.40685,0.468935 -1.40685,1.30144 0,0.798376 0.273061,1.34448 0.664841,1.63088 h -0.602512 v 0.70637 z m 1.26735,-7.66471 V 20.11325 h -0.790982 c -0.237443,0.22408 -0.574315,0.700434 -0.574315,1.79857 0,1.35041 0.510503,1.90393 1.93961,1.90393 1.42169,0 1.93219,-0.553521 1.93219,-1.89651 0,-1.08478 -0.329452,-1.80599 -1.1976,-1.80599 h -0.133562 v 0.664819 h 0.09795 c 0.455594,0 0.629224,0.433319 0.629224,1.11298 0,0.860703 -0.27306,1.19014 -1.3371,1.19014 -1.05662,0 -1.32226,-0.329441 -1.32226,-1.21834 0,-0.566877 0.118722,-0.896318 0.244864,-1.06401 h 0.510503 z m 4.10628,22.28776 5.50126,-1.80599 v -0.762761 l -5.50126,-1.84161 v 0.777601 l 4.55,1.44242 -4.55,1.37267 v 0.819152 z m 1.42763,-8.12029 v -0.728629 h -1.05662 c -0.322032,0.468935 -0.47637,1.08478 -0.47637,1.84754 0,1.19014 0.378425,2.16956 1.49886,2.16956 0.587672,0 0.958676,-0.286406 1.19018,-0.868123 0.244863,-0.546101 0.322032,-1.28809 0.482306,-1.84754 0.154338,-0.538681 0.342808,-0.71379 0.777626,-0.71379 0.664841,0 1.11301,0.370993 1.11301,1.421641 0,1.07736 -0.46895,1.280669 -0.994293,1.280669 h -0.08459 v 0.741986 h 0.08459 c 0.903768,0 1.64429,-0.342798 1.64429,-1.98852 0,-1.512171 -0.623288,-2.225961 -1.77786,-2.225961 -0.74201,0 -1.09966,0.335378 -1.32968,1.05659 -0.371005,1.141171 -0.27306,2.37287 -1.14121,2.37287 -0.574315,0 -0.819179,-0.574297 -0.819179,-1.35783 0,-0.448158 0.06975,-0.832507 0.231507,-1.161949 h 0.657421 z m 0.399201,-1.35783 2.91165,-1.73625 2.1919,1.41422 v -0.798376 l -5.10354,-3.28996 v 0.790956 l 2.32397,1.49733 -2.32397,1.32964 v 0.790957 z m 0,-5.14493 h 3.67443 v -0.749405 h -2.51244 c -0.371005,-0.252275 -0.602512,-0.664819 -0.602512,-1.33706 0,-0.538681 0.154338,-0.811732 0.819179,-0.811732 h 2.29578 v -0.741985 h -2.33139 c -1.09966,0 -1.40685,0.468935 -1.40685,1.30144 0,0.798376 0.27306,1.34448 0.664842,1.63088 h -0.602514 v 0.70637 z m 1.26735,-7.66471 V 20.11325 h -0.790982 c -0.237443,0.22408 -0.574315,0.700434 -0.574315,1.79857 0,1.35041 0.510503,1.90393 1.93961,1.90393 1.42169,0 1.93219,-0.553521 1.93219,-1.89651 0,-1.08478 -0.329452,-1.80599 -1.1976,-1.80599 h -0.133562 v 0.664819 h 0.09795 c 0.455594,0 0.629224,0.433319 0.629224,1.11298 0,0.860703 -0.27306,1.19014 -1.3371,1.19014 -1.05662,0 -1.32226,-0.329441 -1.32226,-1.21834 0,-0.566877 0.118722,-0.896318 0.244863,-1.06401 h 0.510503 z" fill-rule="nonzero" />
        <rect height="249.20599" id="rect9" gorn="0.2.2" width="112.81" fill="none" stroke="#000000" x="1.3167499"  y="1.14299" stroke-width="0.576"/>
        <path id="path452" gorn="0.2.3" fill="black" d="m 6.7101609,5.8443627 q 0,0.066797 -0.00703,0.1195316 -0.00703,0.049219 -0.021094,0.084375 -0.014063,0.031641 -0.035156,0.045703 -0.021094,0.014063 -0.045703,0.014063 -0.042188,0 -0.1406254,-0.066797 Q 6.3621131,5.9744412 6.1968783,5.8935816 6.0316434,5.812722 5.7996116,5.7459249 5.5710953,5.6791279 5.2546882,5.6791279 q -0.3761729,0 -0.6750019,0.1371097 Q 4.2808574,5.9533474 4.0734349,6.1959262 3.8660125,6.4385049 3.7535122,6.7724902 3.6445275,7.1064755 3.6445275,7.496711 q 0,0.4359387 0.1195316,0.7734396 0.1230472,0.3375009 0.3375009,0.5695328 0.2144537,0.2320319 0.509767,0.3515635 0.298829,0.1195316 0.6539081,0.1195316 0.2109381,0 0.4253918,-0.049219 0.2179693,-0.052734 0.404298,-0.1546879 V 7.7814774 H 5.0402345 q -0.059766,0 -0.091407,-0.059766 -0.028125,-0.059766 -0.028125,-0.1863286 0,-0.066797 0.00703,-0.1125003 0.00703,-0.049219 0.021094,-0.077344 0.017578,-0.031641 0.038672,-0.045703 0.021094,-0.014062 0.052735,-0.014062 h 1.4449258 q 0.038672,0 0.077344,0.014062 0.038672,0.014063 0.070313,0.042188 0.031641,0.028125 0.049219,0.077344 0.017578,0.049219 0.017578,0.1125003 v 1.7332079 q 0,0.091406 -0.031641,0.1582036 Q 6.6363313,9.4900763 6.5343782,9.5428109 6.4324248,9.5920299 6.2707056,9.6517955 6.1089864,9.7115615 5.9367203,9.753749 5.7644542,9.795937 5.5886725,9.81703 5.4128907,9.838124 5.2406246,9.838124 4.7132794,9.838124 4.2984345,9.6764048 3.8835907,9.5111697 3.5953086,9.2088251 3.3105422,8.9064805 3.1593699,8.4846043 3.0081976,8.0627282 3.0081976,7.5424142 q 0,-0.5414077 0.1617192,-0.980862 Q 3.3351516,6.1220978 3.630465,5.812722 3.9292939,5.5033461 4.3441388,5.3345957 4.7624993,5.1623296 5.2687507,5.1623296 q 0.260157,0 0.4886732,0.045703 0.2285163,0.045703 0.404298,0.1089847 0.1792974,0.059766 0.298829,0.1335941 0.1230472,0.070313 0.1687504,0.1160159 0.045703,0.045703 0.063282,0.1054691 0.017578,0.059766 0.017578,0.1722663 z m 4.5632941,3.6808695 q 0,0.070313 -0.02461,0.1195316 -0.02109,0.049219 -0.05976,0.08086 -0.03516,0.031641 -0.08086,0.045703 -0.0457,0.014063 -0.09141,0.014063 h -0.19336 q -0.09141,0 -0.16172,-0.017578 -0.0668,-0.021094 -0.130078,-0.070313 Q 10.47189,9.6447638 10.408609,9.5568729 10.348843,9.468982 10.275015,9.3318723 L 8.8406356,6.7443652 Q 8.7281353,6.543974 8.6121194,6.3260046 8.4996191,6.1045197 8.4011813,5.8970972 H 8.39415 q 0.00703,0.2531257 0.010547,0.5167983 0.00352,0.2636726 0.00352,0.5238296 v 2.7457107 q 0,0.024609 -0.014063,0.049219 -0.014062,0.021094 -0.049219,0.035156 -0.031641,0.010547 -0.087891,0.017578 -0.052734,0.010547 -0.1371098,0.010547 -0.084375,0 -0.1406254,-0.010547 -0.052735,-0.00703 -0.084375,-0.017578 -0.031641,-0.014062 -0.045703,-0.035156 -0.014063,-0.024609 -0.014063,-0.049219 V 5.4857679 q 0,-0.1406253 0.077344,-0.2003911 0.077344,-0.059766 0.1687504,-0.059766 h 0.2882821 q 0.1019534,0 0.1687505,0.017578 0.070313,0.017578 0.1230472,0.059766 0.05625,0.038672 0.105469,0.1125004 0.052734,0.070313 0.1125003,0.1792973 L 9.9832206,7.591633 q 0.1019534,0.182813 0.1968754,0.3585948 0.09492,0.1722661 0.182813,0.3410165 0.08789,0.1687505 0.172267,0.3339853 0.08789,0.1617192 0.172266,0.326954 h 0.0035 q -0.007,-0.2777351 -0.01055,-0.576564 0,-0.3023446 0,-0.5800798 V 5.3275644 q 0,-0.02461 0.01406,-0.045703 0.01406,-0.021094 0.0457,-0.035156 0.03516,-0.017578 0.08789,-0.024609 0.05625,-0.00703 0.144141,-0.00703 0.07734,0 0.133594,0.00703 0.05625,0.00703 0.08789,0.024609 0.03164,0.014063 0.0457,0.035156 0.01406,0.021094 0.01406,0.045703 z m 4.707434,-2.0918026 q 0,0.5906266 -0.151172,1.0335966 -0.151172,0.4394543 -0.44297,0.731252 -0.288282,0.288282 -0.710158,0.432423 -0.421876,0.1441411 -1.005472,0.1441411 h -0.963283 q -0.08086,0 -0.154688,-0.052735 -0.07031,-0.05625 -0.07031,-0.1933599 v -4.057042 q 0,-0.1371097 0.07031,-0.1898443 0.07383,-0.05625 0.154688,-0.05625 h 1.030081 q 0.590626,0 0.99844,0.1546879 0.407813,0.1511723 0.682033,0.4394543 0.277735,0.2847665 0.41836,0.6925801 0.144141,0.4078136 0.144141,0.9210962 z M 15.34456,7.458039 q 0,-0.3691416 -0.09141,-0.6855488 Q 15.161747,6.4525675 14.964871,6.2205356 14.771511,5.9885037 14.472682,5.8584252 14.173853,5.7283467 13.702758,5.7283467 h -0.615236 v 3.5402442 h 0.622267 q 0.435939,0 0.734768,-0.1089847 0.298829,-0.1089847 0.49922,-0.3339853 Q 15.144168,8.6006203 15.242606,8.2631193 15.34456,7.9221028 15.34456,7.458039 Z" stroke="none" />
        <path id="path453" gorn="0.2.4" fill="black" d="m 5.131641,16.869393 q -0.014063,0.03867 -0.038672,0.06328 -0.02461,0.02461 -0.070313,0.03867 -0.042188,0.01406 -0.1125003,0.01758 -0.066797,0.007 -0.1687505,0.007 -0.077344,0 -0.1371097,-0.0035 -0.05625,0 -0.098438,-0.007 -0.042188,-0.007 -0.073828,-0.01406 -0.028125,-0.01055 -0.049219,-0.02461 -0.021094,-0.01406 -0.035156,-0.03164 -0.010547,-0.02109 -0.021094,-0.04922 L 2.8394472,12.640085 q -0.028125,-0.07734 -0.031641,-0.123048 0,-0.04922 0.031641,-0.07383 0.031641,-0.02461 0.1019534,-0.03164 0.070313,-0.007 0.1898442,-0.007 0.098438,0 0.154688,0.007 0.059766,0.0035 0.091407,0.01758 0.031641,0.01406 0.045703,0.03867 0.017578,0.02109 0.031641,0.05625 l 1.3043005,3.828526 h 0.00352 L 6.0316434,12.5311 q 0.010547,-0.03867 0.024609,-0.06328 0.014063,-0.02461 0.049219,-0.03867 0.035156,-0.01406 0.098438,-0.01758 0.063282,-0.007 0.1687505,-0.007 0.1089847,0 0.1722661,0.01055 0.063281,0.007 0.084375,0.03164 0.02461,0.02461 0.017578,0.07383 -0.00352,0.0457 -0.031641,0.123047 z m 4.819935,-1.599614 q 0,0.38672 -0.1019534,0.713674 -0.1019534,0.323439 -0.3058602,0.558986 -0.2003912,0.235548 -0.5062514,0.369142 -0.3023446,0.130078 -0.7031269,0.130078 -0.3902355,0 -0.6820331,-0.116016 Q 7.3640689,16.809627 7.170709,16.588142 6.9773491,16.366657 6.882427,16.05025 6.787505,15.733843 6.787505,15.333061 q 0,-0.38672 0.098438,-0.710159 0.1019534,-0.326954 0.3023446,-0.562501 0.2039068,-0.235548 0.5062514,-0.365626 0.3023446,-0.130079 0.7066426,-0.130079 0.3902354,0 0.6785174,0.116016 0.2917977,0.116016 0.4851576,0.337501 0.1933599,0.221485 0.2882821,0.537892 0.098438,0.316408 0.098437,0.713674 z m -0.6117204,0.03867 q 0,-0.256641 -0.049219,-0.485157 Q 9.2449335,14.594777 9.1359488,14.422511 9.0269641,14.250245 8.8406355,14.151807 8.6543068,14.049854 8.3765717,14.049854 q -0.2566413,0 -0.44297,0.09141 -0.182813,0.09141 -0.3023445,0.260157 -0.1195316,0.165234 -0.1792974,0.393751 -0.05625,0.228516 -0.05625,0.49922 0,0.260157 0.045703,0.488673 0.049219,0.228516 0.1582035,0.400782 0.1125004,0.168751 0.298829,0.270704 0.1863286,0.09844 0.4640638,0.09844 0.2531257,0 0.4394543,-0.09141 0.1863286,-0.09141 0.3058602,-0.256641 0.1195316,-0.165235 0.1757818,-0.393751 0.05625,-0.228516 0.05625,-0.502736 z m 4.1765734,1.57852 q 0,0.02812 -0.01406,0.04922 -0.01055,0.01758 -0.04219,0.03164 -0.03164,0.01406 -0.08437,0.02109 -0.04922,0.007 -0.123047,0.007 -0.08086,0 -0.133594,-0.007 -0.04922,-0.007 -0.08086,-0.02109 -0.02813,-0.01406 -0.03867,-0.03164 -0.01055,-0.02109 -0.01055,-0.04922 v -0.41836 q -0.270704,0.298829 -0.534376,0.435938 -0.263673,0.13711 -0.534377,0.13711 -0.316407,0 -0.534376,-0.105469 -0.214454,-0.105469 -0.348048,-0.284766 -0.133594,-0.182813 -0.19336,-0.421876 -0.05625,-0.242579 -0.05625,-0.587111 V 13.7229 q 0,-0.02812 0.01055,-0.0457 0.01406,-0.02109 0.04922,-0.03516 0.03516,-0.01758 0.09141,-0.02109 0.05625,-0.007 0.140626,-0.007 0.08437,0 0.140625,0.007 0.05625,0.0035 0.08789,0.02109 0.03516,0.01406 0.04922,0.03516 0.01406,0.01758 0.01406,0.0457 v 1.842193 q 0,0.277735 0.03867,0.446485 0.04219,0.165235 0.123047,0.284767 0.08438,0.116016 0.210939,0.182813 0.126562,0.06328 0.295313,0.06328 0.217969,0 0.432423,-0.154688 0.217969,-0.154688 0.460548,-0.453517 V 13.7229 q 0,-0.02812 0.01055,-0.0457 0.01406,-0.02109 0.04922,-0.03516 0.03516,-0.01758 0.08789,-0.02109 0.05625,-0.007 0.144141,-0.007 0.08437,0 0.140625,0.007 0.05625,0.0035 0.08789,0.02109 0.03164,0.01406 0.0457,0.03516 0.01758,0.01758 0.01758,0.0457 z m 2.717587,-0.232032 q 0,0.101954 -0.01406,0.16172 -0.01406,0.05976 -0.04219,0.08789 -0.02813,0.02812 -0.08438,0.05274 -0.05625,0.02461 -0.130078,0.03867 -0.07031,0.01758 -0.151173,0.02812 -0.08086,0.01055 -0.161719,0.01055 -0.246094,0 -0.421876,-0.06328 -0.175782,-0.0668 -0.288282,-0.196875 -0.1125,-0.133594 -0.165235,-0.333985 -0.04922,-0.203907 -0.04922,-0.478127 v -1.849224 h -0.44297 q -0.05273,0 -0.08437,-0.05625 -0.03164,-0.05625 -0.03164,-0.182813 0,-0.0668 0.007,-0.1125 0.01055,-0.0457 0.02461,-0.07383 0.01406,-0.03164 0.03516,-0.04219 0.02461,-0.01406 0.05273,-0.01406 h 0.439454 v -0.752346 q 0,-0.02461 0.01055,-0.0457 0.01406,-0.02109 0.0457,-0.03516 0.03516,-0.01758 0.09141,-0.02461 0.05625,-0.007 0.140625,-0.007 0.08789,0 0.144141,0.007 0.05625,0.007 0.08789,0.02461 0.03164,0.01406 0.0457,0.03516 0.01406,0.02109 0.01406,0.0457 v 0.752346 H 16.118 q 0.02813,0 0.04922,0.01406 0.02109,0.01055 0.03516,0.04219 0.01758,0.02812 0.02461,0.07383 0.007,0.0457 0.007,0.1125 0,0.126563 -0.03164,0.182813 -0.03164,0.05625 -0.08438,0.05625 h -0.812112 v 1.764849 q 0,0.326954 0.09492,0.495705 0.09844,0.165234 0.348048,0.165234 0.08086,0 0.144141,-0.01406 0.06328,-0.01758 0.1125,-0.03516 0.04922,-0.01758 0.08438,-0.03164 0.03516,-0.01758 0.06328,-0.01758 0.01758,0 0.03164,0.01055 0.01758,0.007 0.02461,0.03164 0.01055,0.02461 0.01758,0.0668 0.007,0.04219 0.007,0.105469 z" stroke="none" />
    </g>
    <g id="copper0" gorn="0.3" >
        <g id="copper1" gorn="0.3.0" >
            <circle id="connector0pin" gorn="0.3.0.0" r="2.0880001" fill="none" cy="7.9703298" stroke="#ffbf00" cx="19.427799"  stroke-width="1.44"/>
            <circle id="connector1pin" gorn="0.3.0.1" r="2.0880001" fill="none" cy="15.17033" stroke="#ffbf00" cx="19.427799"  stroke-width="1.44"/>
            <g transform="rotate(-90)" >
                <g >
                    <circle id="connector2pin" gorn="0.3.0.2.0.0" r="1.7121201" fill="none" cy="33.896599" stroke="#ffbf00" cx="-15.3705"  stroke-width="1.44"/>
                </g>
            </g>
            <g transform="rotate(-90)" >
                <g >
                    <circle id="connector3pin" gorn="0.3.0.3.0.0" r="1.7121201" fill="none" cy="41.0966" stroke="#ffbf00" cx="-15.3705"  stroke-width="1.44"/>
                </g>
            </g>
            <g transform="rotate(-90)" >
                <g >
                    <circle id="connector4pin" gorn="0.3.0.4.0.0" r="1.7121201" fill="none" cy="48.2966" stroke="#ffbf00" cx="-15.3705"  stroke-width="1.44"/>
                </g>
            </g>
            <g transform="rotate(-90)" >
                <g >
                    <circle id="connector5pin" gorn="0.3.0.5.0.0" r="1.7121201" fill="none" cy="55.496601" stroke="#ffbf00" cx="-15.3705"  stroke-width="1.44"/>
                </g>
            </g>
            <g transform="rotate(-90)" >
                <g >
                    <circle id="connector6pin" gorn="0.3.0.6.0.0" r="1.7121201" fill="none" cy="62.696602" stroke="#ffbf00" cx="-15.3705"  stroke-width="1.44"/>
                </g>
            </g>
            <g transform="rotate(-90)" >
                <g >
                    <circle id="connector7pin" gorn="0.3.0.7.0.0" r="1.7121201" fill="none" cy="69.896599" stroke="#ffbf00" cx="-15.3705"  stroke-width="1.44"/>
                </g>
            </g>
            <g transform="rotate(-90)" >
                <g >
                    <circle id="connector8pin" gorn="0.3.0.8.0.0" r="2.0880001" fill="none" cy="77.040298" stroke="#ffbf00" cx="-15.3705"  stroke-width="1.44"/>
                </g>
            </g>
            <g transform="rotate(-90)" >
                <g >
                    <circle id="connector9pin" gorn="0.3.0.9.0.0" r="2.0880001" fill="none" cy="84.240303" stroke="#ffbf00" cx="-15.3705"  stroke-width="1.44"/>
                </g>
            </g>
            <circle id="connector10pin" gorn="0.3.0.10" r="2.0880001" fill="none" cy="22.623501" stroke="#ffbf00" cx="12.23384"  stroke-width="1.44"/>
            <circle id="connector11pin" gorn="0.3.0.11" r="2.0880001" fill="none" cy="29.8235" stroke="#ffbf00" cx="12.23384"  stroke-width="1.44"/>
            <circle id="connector12pin" gorn="0.3.0.12" r="2.0880001" fill="none" cy="37.023502" stroke="#ffbf00" cx="12.23384"  stroke-width="1.44"/>
            <circle id="connector13pin" gorn="0.3.0.13" r="2.0880001" fill="none" cy="44.223499" stroke="#ffbf00" cx="12.23384"  stroke-width="1.44"/>
            <circle id="connector14pin" gorn="0.3.0.14" r="2.0880001" fill="none" cy="51.4235" stroke="#ffbf00" cx="12.23384"  stroke-width="1.44"/>
            <circle id="connector15pin" gorn="0.3.0.15" r="2.0880001" fill="none" cy="58.623501" stroke="#ffbf00" cx="12.23384"  stroke-width="1.44"/>
            <circle id="connector16pin" gorn="0.3.0.16" r="2.0880001" fill="none" cy="65.823502" stroke="#ffbf00" cx="12.23384"  stroke-width="1.44"/>
            <circle id="connector17pin" gorn="0.3.0.17" r="2.0880001" fill="none" cy="73.023499" stroke="#ffbf00" cx="12.23384"  stroke-width="1.44"/>
            <circle id="connector18pin" gorn="0.3.0.18" r="2.0880001" fill="none" cy="80.223503" stroke="#ffbf00" cx="12.23384"  stroke-width="1.44"/>
            <circle id="connector19pin" gorn="0.3.0.19" r="2.0880001" fill="none" cy="87.4235" stroke="#ffbf00" cx="12.23384"  stroke-width="1.44"/>
            <circle id="connector20pin" gorn="0.3.0.20" r="2.0880001" fill="none" cy="94.623505" stroke="#ffbf00" cx="12.23384"  stroke-width="1.44"/>
            <circle id="connector21pin" gorn="0.3.0.21" r="2.0880001" fill="none" cy="101.8235" stroke="#ffbf00" cx="12.23384"  stroke-width="1.44"/>
            <circle id="connector22pin" gorn="0.3.0.22" r="2.0880001" fill="none" cy="109.02351" stroke="#ffbf00" cx="12.23384"  stroke-width="1.44"/>
            <circle id="connector23pin" gorn="0.3.0.23" r="2.0880001" fill="none" cy="116.2235" stroke="#ffbf00" cx="12.23384"  stroke-width="1.44"/>
            <circle id="connector24pin" gorn="0.3.0.24" r="2.0880001" fill="none" cy="123.4235" stroke="#ffbf00" cx="12.23384"  stroke-width="1.44"/>
            <circle id="connector25pin" gorn="0.3.0.25" r="2.0880001" fill="none" cy="130.6235" stroke="#ffbf00" cx="12.23384"  stroke-width="1.44"/>
            <circle id="connector26pin" gorn="0.3.0.26" r="2.0880001" fill="none" cy="137.8235" stroke="#ffbf00" cx="12.23384"  stroke-width="1.44"/>
            <circle id="connector27pin" gorn="0.3.0.27" r="2.0880001" fill="none" cy="145.0235" stroke="#ffbf00" cx="12.23384"  stroke-width="1.44"/>
            <circle id="connector28pin" gorn="0.3.0.28" r="2.0880001" fill="none" cy="152.2235" stroke="#ffbf00" cx="12.23384"  stroke-width="1.44"/>
            <circle id="connector29pin" gorn="0.3.0.29" r="2.0880001" fill="none" cy="159.42349" stroke="#ffbf00" cx="12.23384"  stroke-width="1.44"/>
            <circle id="connector30pin" gorn="0.3.0.30" r="2.0880001" fill="none" cy="166.62349" stroke="#ffbf00" cx="12.23384"  stroke-width="1.44"/>
            <circle id="connector31pin" gorn="0.3.0.31" r="2.0880001" fill="none" cy="173.8235" stroke="#ffbf00" cx="12.23384"  stroke-width="1.44"/>
            <circle id="connector32pin" gorn="0.3.0.32" r="2.0880001" fill="none" cy="181.0235" stroke="#ffbf00" cx="12.23384"  stroke-width="1.44"/>
            <circle id="connector33pin" gorn="0.3.0.33" r="2.0880001" fill="none" cy="188.2235" stroke="#ffbf00" cx="12.23384"  stroke-width="1.44"/>
            <circle id="connector34pin" gorn="0.3.0.34" r="2.0880001" fill="none" cy="195.42349" stroke="#ffbf00" cx="12.23384"  stroke-width="1.44"/>
            <circle id="connector35pin" gorn="0.3.0.35" r="2.0880001" fill="none" cy="202.62349" stroke="#ffbf00" cx="12.23384"  stroke-width="1.44"/>
            <circle id="connector36pin" gorn="0.3.0.36" r="2.0880001" fill="none" cy="209.8235" stroke="#ffbf00" cx="12.23384"  stroke-width="1.44"/>
            <circle id="connector37pin" gorn="0.3.0.37" r="2.0880001" fill="none" cy="217.0235" stroke="#ffbf00" cx="12.23384"  stroke-width="1.44"/>
            <circle id="connector38pin" gorn="0.3.0.38" r="2.0880001" fill="none" cy="224.2235" stroke="#ffbf00" cx="12.23384"  stroke-width="1.44"/>
            <circle id="connector39pin" gorn="0.3.0.39" r="2.0880001" fill="none" cy="231.42349" stroke="#ffbf00" cx="12.23384"  stroke-width="1.44"/>
        </g>
    </g>
</svg>
