<?xml version='1.0' encoding='UTF-8' standalone='no'?>
<!-- Created with Fritzing (https://fritzing.org/) -->
<svg xmlns="http://www.w3.org/2000/svg" gorn="0"  width="52mm" id="svg2747" height="19mm" version="1.2" viewBox="0 0 147.40159 53.858271" x="0in" y="0in">
    <desc >
        <referenceFile >AY-3-8910-PCB.svg</referenceFile>
    </desc>
    <defs  id="defs2751"/>
    <g transform="translate(1.412794,3.385137)" >
        <g >
            <g >
                <g gorn="0.2.0.0.0"  id="copper1" partID="885631070">
                    <g gorn="0.2.0.0.0.0"  id="copper0">
                        <circle stroke="#f7bd13" cy="44.424" gorn="0.2.0.0.0.0.0" r="2.052" stroke-width="1.224"  fill="none" id="connector0pad" cx="3.888" connectorname="1"/>
                        <circle stroke="#f7bd13" cy="44.424" gorn="0.2.0.0.0.0.1" r="2.052" stroke-width="1.224"  fill="none" id="connector1pad" cx="11.088" connectorname="2"/>
                        <circle stroke="#f7bd13" cy="44.424" gorn="0.2.0.0.0.0.2" r="2.052" stroke-width="1.224"  fill="none" id="connector2pad" cx="18.288" connectorname="3"/>
                        <circle stroke="#f7bd13" cy="44.424" gorn="0.2.0.0.0.0.3" r="2.052" stroke-width="1.224"  fill="none" id="connector3pad" cx="25.488001" connectorname="4"/>
                        <circle stroke="#f7bd13" cy="44.424" gorn="0.2.0.0.0.0.4" r="2.052" stroke-width="1.224"  fill="none" id="connector4pad" cx="32.688" connectorname="5"/>
                        <circle stroke="#f7bd13" cy="44.424" gorn="0.2.0.0.0.0.5" r="2.052" stroke-width="1.224"  fill="none" id="connector5pad" cx="39.888" connectorname="6"/>
                        <circle stroke="#f7bd13" cy="44.424" gorn="0.2.0.0.0.0.6" r="2.052" stroke-width="1.224"  fill="none" id="connector6pad" cx="47.088001" connectorname="7"/>
                        <circle stroke="#f7bd13" cy="44.424" gorn="0.2.0.0.0.0.7" r="2.052" stroke-width="1.224"  fill="none" id="connector7pad" cx="54.287998" connectorname="8"/>
                        <circle stroke="#f7bd13" cy="44.424" gorn="0.2.0.0.0.0.8" r="2.052" stroke-width="1.224"  fill="none" id="connector8pad" cx="61.487999" connectorname="9"/>
                        <circle stroke="#f7bd13" cy="44.424" gorn="0.2.0.0.0.0.9" r="2.052" stroke-width="1.224"  fill="none" id="connector9pad" cx="68.688004" connectorname="10"/>
                        <circle stroke="#f7bd13" cy="44.424" gorn="0.2.0.0.0.0.10" r="2.052" stroke-width="1.224"  fill="none" id="connector10pad" cx="75.888" connectorname="11"/>
                        <circle stroke="#f7bd13" cy="44.424" gorn="0.2.0.0.0.0.11" r="2.052" stroke-width="1.224"  fill="none" id="connector11pad" cx="83.087997" connectorname="12"/>
                        <circle stroke="#f7bd13" cy="44.424" gorn="0.2.0.0.0.0.12" r="2.052" stroke-width="1.224"  fill="none" id="connector12pad" cx="90.288002" connectorname="13"/>
                        <circle stroke="#f7bd13" cy="44.424" gorn="0.2.0.0.0.0.13" r="2.052" stroke-width="1.224"  fill="none" id="connector13pad" cx="97.487999" connectorname="14"/>
                        <circle stroke="#f7bd13" cy="44.424" gorn="0.2.0.0.0.0.14" r="2.052" stroke-width="1.224"  fill="none" id="connector14pad" cx="104.688" connectorname="15"/>
                        <circle stroke="#f7bd13" cy="44.424" gorn="0.2.0.0.0.0.15" r="2.052" stroke-width="1.224"  fill="none" id="connector15pad" cx="111.888" connectorname="16"/>
                        <circle stroke="#f7bd13" cy="44.424" gorn="0.2.0.0.0.0.16" r="2.052" stroke-width="1.224"  fill="none" id="connector16pad" cx="119.088" connectorname="17"/>
                        <circle stroke="#f7bd13" cy="44.424" gorn="0.2.0.0.0.0.17" r="2.052" stroke-width="1.224"  fill="none" id="connector17pad" cx="126.288" connectorname="18"/>
                        <circle stroke="#f7bd13" cy="44.424" gorn="0.2.0.0.0.0.18" r="2.052" stroke-width="1.224"  fill="none" id="connector18pad" cx="133.48801" connectorname="19"/>
                        <circle stroke="#f7bd13" cy="44.424" gorn="0.2.0.0.0.0.19" r="2.052" stroke-width="1.224"  fill="none" id="connector19pad" cx="140.688" connectorname="20"/>
                        <circle stroke="#f7bd13" cy="2.664" gorn="0.2.0.0.0.0.20" r="2.052" stroke-width="1.224"  fill="none" id="connector20pad" cx="140.688" connectorname="21"/>
                        <circle stroke="#f7bd13" cy="2.664" gorn="0.2.0.0.0.0.21" r="2.052" stroke-width="1.224"  fill="none" id="connector21pad" cx="133.48801" connectorname="22"/>
                        <circle stroke="#f7bd13" cy="2.664" gorn="0.2.0.0.0.0.22" r="2.052" stroke-width="1.224"  fill="none" id="connector22pad" cx="126.288" connectorname="23"/>
                        <circle stroke="#f7bd13" cy="2.664" gorn="0.2.0.0.0.0.23" r="2.052" stroke-width="1.224"  fill="none" id="connector23pad" cx="119.088" connectorname="24"/>
                        <circle stroke="#f7bd13" cy="2.664" gorn="0.2.0.0.0.0.24" r="2.052" stroke-width="1.224"  fill="none" id="connector24pad" cx="111.888" connectorname="25"/>
                        <circle stroke="#f7bd13" cy="2.664" gorn="0.2.0.0.0.0.25" r="2.052" stroke-width="1.224"  fill="none" id="connector25pad" cx="104.688" connectorname="26"/>
                        <circle stroke="#f7bd13" cy="2.664" gorn="0.2.0.0.0.0.26" r="2.052" stroke-width="1.224"  fill="none" id="connector26pad" cx="97.487999" connectorname="27"/>
                        <circle stroke="#f7bd13" cy="2.664" gorn="0.2.0.0.0.0.27" r="2.052" stroke-width="1.224"  fill="none" id="connector27pad" cx="90.288002" connectorname="28"/>
                        <circle stroke="#f7bd13" cy="2.664" gorn="0.2.0.0.0.0.28" r="2.1115301" stroke-width="1.10494"  fill="none" id="connector29pad" cx="75.888" connectorname="30"/>
                        <circle stroke="#f7bd13" cy="2.664" gorn="0.2.0.0.0.0.29" r="2.1115301" stroke-width="1.10494"  fill="none" id="connector30pad" cx="68.688004" connectorname="31"/>
                        <circle stroke="#f7bd13" cy="2.664" gorn="0.2.0.0.0.0.30" r="2.1115301" stroke-width="1.10494"  fill="none" id="connector31pad" cx="61.487999" connectorname="32"/>
                        <circle stroke="#f7bd13" cy="2.664" gorn="0.2.0.0.0.0.31" r="2.1115301" stroke-width="1.10494"  fill="none" id="connector32pad" cx="54.287998" connectorname="33"/>
                        <circle stroke="#f7bd13" cy="2.664" gorn="0.2.0.0.0.0.32" r="2.1115301" stroke-width="1.10494"  fill="none" id="connector33pad" cx="47.088001" connectorname="34"/>
                        <circle stroke="#f7bd13" cy="2.664" gorn="0.2.0.0.0.0.33" r="2.1115301" stroke-width="1.10494"  fill="none" id="connector34pad" cx="39.888" connectorname="35"/>
                        <circle stroke="#f7bd13" cy="2.664" gorn="0.2.0.0.0.0.34" r="2.1115301" stroke-width="1.10494"  fill="none" id="connector35pad" cx="32.688" connectorname="36"/>
                        <circle stroke="#f7bd13" cy="2.664" gorn="0.2.0.0.0.0.35" r="2.1115301" stroke-width="1.10494"  fill="none" id="connector36pad" cx="25.488001" connectorname="37"/>
                        <circle stroke="#f7bd13" cy="2.664" gorn="0.2.0.0.0.0.36" r="2.1115301" stroke-width="1.10494"  fill="none" id="connector37pad" cx="18.288" connectorname="38"/>
                        <circle stroke="#f7bd13" cy="2.664" gorn="0.2.0.0.0.0.37" r="2.1115301" stroke-width="1.10494"  fill="none" id="connector38pad" cx="11.088" connectorname="39"/>
                        <circle stroke="#f7bd13" cy="2.664" gorn="0.2.0.0.0.0.38" r="2.1115301" stroke-width="1.10494"  fill="none" id="connector39pad" cx="3.888" connectorname="40"/>
                        <circle stroke="#f7bd13" cy="2.664" gorn="0.2.0.0.0.0.39" r="2.1115301" stroke-width="1.10494"  fill="none" id="connector28pad" cx="83.087997" connectorname="29"/>
                    </g>
                </g>
            </g>
        </g>
    </g>
    <g gorn="0.3"  id="silkscreen">
        <path stroke="none" gorn="0.3.0" style="color:#000000;-inkscape-" stroke-width="0.999998"  fill="#000000" id="path2855" d="m 0,19.229186 c 4.2466662,0 7.6992191,3.452553 7.6992191,7.699219 0,4.246666 -3.4525529,7.700684 -7.6992191,7.700684 v -0.999023 c 3.7062266,0 6.6987308,-2.995434 6.6987308,-6.701661 0,-3.706227 -2.9925042,-6.698731 -6.6987308,-6.698731 z"/>
        <rect stroke="none" gorn="0.3.1" fill-opacity="1" style="stroke-linecap:round;stroke-linejoin:round;stroke-miterlimit:4;stroke-dasharray:none;" stroke-width="0.850395"  fill="#000000" width="147.40158" id="rect7687" stroke-opacity="1" height="1.417323" x="0" y="0"/>
        <rect stroke="none" gorn="0.3.2" fill-opacity="1" style="stroke-linecap:round;stroke-linejoin:round;stroke-miterlimit:4;stroke-dasharray:none;" stroke-width="0.850395"  fill="#000000" width="147.40158" id="rect7687-0" stroke-opacity="1" height="1.417323" x="0" y="52.440952"/>
        <path stroke="none" gorn="0.3.3"  fill="#000000" id="path8274" d="M 8.1354337,40.535437 A 2.834646,2.848819 0 0 1 5.300788,43.384256 2.834646,2.848819 0 0 1 2.466142,40.535437 2.834646,2.848819 0 0 1 5.300788,37.686618 2.834646,2.848819 0 0 1 8.1354337,40.535437 Z"/>
        <rect stroke="none" gorn="0.3.4" fill-opacity="1" style="stroke-linecap:round;stroke-linejoin:round;stroke-miterlimit:4;stroke-dasharray:none;" stroke-width="0.850392"  fill="#000000" width="1.417323" id="rect7813" stroke-opacity="1" height="53.858273" x="145.98427" y="0"/>
        <rect stroke="none" gorn="0.3.5" fill-opacity="1" style="stroke-linecap:round;stroke-linejoin:round;stroke-miterlimit:4;stroke-dasharray:none;" stroke-width="0.850395"  fill="#000000" width="1.417323" id="rect8087" stroke-opacity="1" height="20.229673" x="0" y="-3.3087225e-24"/>
        <rect stroke="none" gorn="0.3.6" fill-opacity="1" style="stroke-linecap:round;stroke-linejoin:round;stroke-miterlimit:4;stroke-dasharray:none;" stroke-width="0.850395"  fill="#000000" width="1.417323" id="rect8087-3" stroke-opacity="1" height="20.229673" x="0" y="33.628601"/>
        <g transform="translate(7.7414169,-1.0402408)" >
            <g >
                <g >
                    <g gorn="0.3.7.0.0.0"  id="g27017">
                        <g transform="matrix(1.3795577,0,0,2.1396911,-17.946502,-34.286157)" >
                            <g >
                                <g >
                                    <g gorn="0.3.7.0.0.0.0.0.0.0" stroke-width="0.582041"  id="SOUND_TXT">
                                        <path stroke="none" gorn="0.3.7.0.0.0.0.0.0.0.0" style="stroke-width:0.629797"  fill="#000000" id="path13451" d="m 54.589637,24.126571 q 0,0.282358 -0.105192,0.49551 -0.105192,0.213153 -0.285126,0.3571 -0.179934,0.141179 -0.420769,0.213152 -0.240834,0.07197 -0.514887,0.07197 -0.185471,0 -0.346027,-0.03045 -0.157788,-0.03045 -0.279589,-0.07197 -0.121802,-0.04429 -0.204848,-0.09135 -0.08028,-0.04706 -0.116265,-0.08305 -0.03599,-0.03599 -0.0526,-0.102423 -0.01384,-0.06921 -0.01384,-0.196544 0,-0.08581 0.0055,-0.143947 0.0055,-0.05813 0.01661,-0.09412 0.01384,-0.03599 0.03322,-0.04983 0.02215,-0.01661 0.04983,-0.01661 0.03876,0 0.10796,0.04706 0.07197,0.04429 0.182702,0.09965 0.110729,0.05537 0.26298,0.102424 0.15502,0.04429 0.3571,0.04429 0.132874,0 0.238066,-0.03045 0.105192,-0.03322 0.177166,-0.09135 0.07474,-0.05813 0.113497,-0.143947 0.03875,-0.08581 0.03875,-0.191007 0,-0.121801 -0.06644,-0.207616 -0.06644,-0.08858 -0.174397,-0.155019 -0.105192,-0.06921 -0.240834,-0.127338 -0.135643,-0.0609 -0.27959,-0.127338 -0.143947,-0.06644 -0.279589,-0.149484 -0.135643,-0.08581 -0.243603,-0.202079 -0.105192,-0.119033 -0.171629,-0.27959 -0.06644,-0.160556 -0.06644,-0.384781 0,-0.257444 0.09412,-0.451219 0.09689,-0.196543 0.257444,-0.323881 0.163324,-0.130106 0.382013,-0.193775 0.221457,-0.06367 0.467828,-0.06367 0.127338,0 0.254675,0.01938 0.127338,0.01938 0.238067,0.0526 0.110728,0.03322 0.196543,0.07474 0.08582,0.04152 0.113497,0.06921 0.02768,0.02768 0.03599,0.04706 0.01107,0.01938 0.01661,0.0526 0.0083,0.03045 0.01107,0.08028 0.0028,0.04706 0.0028,0.119033 0,0.08028 -0.0055,0.135642 -0.0028,0.05536 -0.01384,0.09135 -0.0083,0.03599 -0.02768,0.0526 -0.01661,0.01661 -0.04706,0.01661 -0.03045,0 -0.09689,-0.03876 -0.06644,-0.03875 -0.163324,-0.08305 -0.09689,-0.04706 -0.224226,-0.08305 -0.127338,-0.03875 -0.279589,-0.03875 -0.119033,0 -0.207616,0.03045 -0.08858,0.02768 -0.149484,0.08028 -0.05813,0.04983 -0.08858,0.121801 -0.02768,0.07197 -0.02768,0.152252 0,0.119033 0.06367,0.207616 0.06644,0.08581 0.174398,0.15502 0.110728,0.06644 0.249139,0.127337 0.13841,0.05813 0.282358,0.12457 0.143947,0.06644 0.282357,0.152252 0.138411,0.08305 0.246371,0.202079 0.107961,0.116265 0.174398,0.276821 0.06644,0.157789 0.06644,0.373709 z"/>
                                        <g transform="matrix(0.45351638,0,0,0.45351638,19.558448,12.483276)" >
                                            <g >
                                                <g >
                                                    <path stroke="none" gorn="0.3.7.0.0.0.0.0.0.0.1.0.0.0"  fill="#000000" id="path18577" d="m 82.042969,20.003906 c -0.511063,0.02482 -1.380081,0.123206 -1.783203,0.285143 -0.472035,0.191256 -0.869935,0.466124 -1.191407,0.824219 -0.32147,0.358095 -0.563791,0.793914 -0.726562,1.306641 -0.162771,0.508656 -0.244141,1.081829 -0.244141,1.720703 0,0.695843 0.076,1.297983 0.226563,1.806641 0.154631,0.508656 0.384258,0.928201 0.689453,1.257812 0.305194,0.32961 0.684868,0.575512 1.140625,0.738281 0.425638,0.146903 0.918432,0.225406 1.476562,0.236329 v -1.326172 c -0.313437,-0.01697 -0.580107,-0.0796 -0.798828,-0.185547 -0.260433,-0.130217 -0.466462,-0.316391 -0.621093,-0.560547 -0.154634,-0.244154 -0.264973,-0.537089 -0.330079,-0.878906 -0.06511,-0.345887 -0.09766,-0.734674 -0.09766,-1.166016 0,-0.370302 0.03255,-0.72117 0.09766,-1.050781 0.06918,-0.333679 0.184886,-0.624822 0.347657,-0.873047 0.162769,-0.248219 0.376123,-0.445297 0.640625,-0.591797 0.211863,-0.120599 0.87842,-0.194736 1.173828,-0.218737 z"/>
                                                </g>
                                            </g>
                                        </g>
                                        <g transform="matrix(0.45351638,0,0,0.45351638,19.558448,12.483276)" >
                                            <g >
                                                <g >
                                                    <path stroke="none" gorn="0.3.7.0.0.0.0.0.0.0.2.0.0.0"  fill="#000000" id="path18600" d="m 82.042969,20.003906 v 1.324219 c 0.309416,0.01828 0.572919,0.08286 0.791015,0.195313 0.260432,0.130216 0.468416,0.316391 0.623047,0.560546 0.158704,0.240087 0.270832,0.531231 0.335938,0.873047 0.06511,0.337749 0.09766,0.713842 0.09766,1.128907 0,0.378441 -0.03434,0.736471 -0.103516,1.074218 -0.06511,0.33368 -0.179025,0.626613 -0.341797,0.878906 -0.162771,0.252288 -0.376124,0.45311 -0.640624,0.59961 -0.21188,0.117354 -0.878396,0.191484 -1.173833,0.214831 v 1.326172 c 0.509076,-0.02403 1.376725,-0.120416 1.777348,-0.279284 0.476103,-0.191256 0.875796,-0.464171 1.197266,-0.822266 0.321471,-0.362164 0.563791,-0.801564 0.726562,-1.318359 C 85.494801,25.24297 85.576172,24.65515 85.576172,24 c 0,-0.683636 -0.07958,-1.274872 -0.238281,-1.775391 -0.154632,-0.504589 -0.388003,-0.922343 -0.697266,-1.251953 -0.305194,-0.329609 -0.686658,-0.573721 -1.146484,-0.732422 -0.422277,-0.147043 -0.906629,-0.225526 -1.451172,-0.236328 z"/>
                                                </g>
                                            </g>
                                        </g>
                                        <path stroke="none" gorn="0.3.7.0.0.0.0.0.0.0.3" style="stroke-width:0.629797"  fill="#000000" id="path13455" d="m 61.903255,23.866359 q 0,0.329418 -0.09689,0.58963 -0.09689,0.260212 -0.285126,0.440145 -0.188238,0.179934 -0.46506,0.274053 -0.276821,0.09412 -0.636689,0.09412 -0.337722,0 -0.606238,-0.08305 -0.268517,-0.08581 -0.453987,-0.257443 -0.185471,-0.17163 -0.285126,-0.426305 -0.09689,-0.257444 -0.09689,-0.600702 v -2.178584 q 0,-0.02768 0.01661,-0.04983 0.01661,-0.02215 0.05813,-0.03599 0.04429,-0.01384 0.113497,-0.02215 0.06921,-0.0083 0.177165,-0.0083 0.105193,0 0.174398,0.0083 0.06921,0.0083 0.110728,0.02215 0.04152,0.01384 0.05813,0.03599 0.01938,0.02215 0.01938,0.04983 v 2.114915 q 0,0.213152 0.0526,0.37094 0.0526,0.15502 0.149484,0.257444 0.09966,0.102424 0.235298,0.15502 0.138411,0.04983 0.307272,0.04983 0.171629,0 0.307271,-0.0526 0.135643,-0.0526 0.229762,-0.152252 0.09412,-0.102424 0.143947,-0.249139 0.0526,-0.149484 0.0526,-0.337722 v -2.156438 q 0,-0.02768 0.01661,-0.04983 0.01661,-0.02215 0.05813,-0.03599 0.04152,-0.01384 0.110728,-0.02215 0.07197,-0.0083 0.177166,-0.0083 0.105192,0 0.171629,0.0083 0.06921,0.0083 0.110729,0.02215 0.04152,0.01384 0.05813,0.03599 0.01661,0.02215 0.01661,0.04983 z"/>
                                        <path stroke="none" gorn="0.3.7.0.0.0.0.0.0.0.4" style="stroke-width:0.629797"  fill="#000000" id="path13457" d="m 65.634806,24.945962 q 0,0.06367 -0.02215,0.113497 -0.02215,0.04983 -0.0609,0.08305 -0.03599,0.03322 -0.08858,0.04983 -0.04983,0.01384 -0.102424,0.01384 h -0.31004 q -0.09689,0 -0.168861,-0.01938 -0.0692,-0.01938 -0.130106,-0.06921 -0.05813,-0.0526 -0.113497,-0.13841 -0.05536,-0.08858 -0.124569,-0.226994 l -0.891365,-1.674768 q -0.07751,-0.149484 -0.157788,-0.321113 -0.08028,-0.174398 -0.143947,-0.337722 h -0.0055 q 0.01107,0.199311 0.01661,0.398622 0.0055,0.196544 0.0055,0.406928 v 1.87408 q 0,0.02768 -0.01661,0.04983 -0.01384,0.02214 -0.0526,0.03875 -0.03599,0.01384 -0.09966,0.02215 -0.06367,0.0083 -0.163324,0.0083 -0.09689,0 -0.160557,-0.0083 -0.06367,-0.0083 -0.09966,-0.02215 -0.03599,-0.01661 -0.04983,-0.03875 -0.01384,-0.02215 -0.01384,-0.04983 V 21.87878 q 0,-0.130106 0.07474,-0.193775 0.07751,-0.06644 0.188238,-0.06644 h 0.390318 q 0.105192,0 0.177166,0.01938 0.07197,0.01661 0.127338,0.05813 0.05813,0.04152 0.10796,0.116265 0.04983,0.07197 0.102424,0.179934 l 0.697589,1.309365 q 0.0609,0.119033 0.119034,0.235298 0.0609,0.113497 0.116264,0.229762 0.05536,0.113496 0.107961,0.224225 0.0526,0.110728 0.102424,0.221457 h 0.0028 q -0.0083,-0.193775 -0.01384,-0.404159 -0.0028,-0.210384 -0.0028,-0.401391 v -1.680305 q 0,-0.02768 0.01661,-0.04983 0.01661,-0.02215 0.05536,-0.03875 0.03875,-0.01661 0.102424,-0.02215 0.06367,-0.0083 0.163325,-0.0083 0.09412,0 0.157788,0.0083 0.06367,0.0055 0.09689,0.02215 0.03599,0.01661 0.04983,0.03875 0.01384,0.02215 0.01384,0.04983 z"/>
                                        <g transform="matrix(0.45351638,0,0,0.45351638,19.558448,12.483276)" >
                                            <g >
                                                <g >
                                                    <path stroke="none" gorn="0.3.7.0.0.0.0.0.0.0.5.0.0.0"  fill="#000000" id="path19744" d="m 104.59488,20.174006 0.30031,1.226385 h 0.83528 c 0.49238,0 0.88833,0.06689 1.18945,0.201171 0.3052,0.130217 0.55484,0.314765 0.7461,0.550782 0.19532,0.236018 0.33447,0.514466 0.41992,0.835937 0.0895,0.32147 0.13476,0.668597 0.13476,1.042969 0,0.455757 -0.0506,0.855448 -0.15234,1.197266 -0.0977,0.341817 -0.24771,0.627427 -0.45117,0.859375 -0.1994,0.227878 -0.45083,0.399732 -0.75196,0.513671 -0.30112,0.11394 -0.67184,0.169922 -1.11132,0.169922 l -1.09037,0.02798 -0.16763,1.225834 1.18573,0.01571 c 0.69985,0.0093 1.30205,-0.07405 1.80664,-0.22461 0.50866,-0.154631 0.9409,-0.395162 1.29492,-0.720703 0.35403,-0.32554 0.62336,-0.745086 0.81055,-1.257812 0.19126,-0.516796 0.28711,-1.137 0.28711,-1.861329 0,-0.626666 -0.0867,-1.178193 -0.26172,-1.654296 -0.17498,-0.476104 -0.43178,-0.875796 -0.76953,-1.197266 -0.33368,-0.325541 -0.74785,-0.569651 -1.24023,-0.732422 -0.48832,-0.16684 -1.08313,-0.25 -1.78711,-0.25 z"/>
                                                </g>
                                            </g>
                                        </g>
                                        <g transform="matrix(0.45351638,0,0,0.45351638,19.558448,12.483276)" >
                                            <g >
                                                <g >
                                                    <path stroke="none" gorn="0.3.7.0.0.0.0.0.0.0.6.0.0.0"  fill="#000000" id="path13459" d="m 103.79492,20.142578 c -0.13428,0 -0.2482,0.04165 -0.3418,0.123047 -0.0895,0.07732 -0.13476,0.205719 -0.13476,0.384766 v 6.884765 c 0,0.179054 0.0452,0.309246 0.13476,0.390625 0.0936,0.07732 0.20752,0.115235 0.3418,0.115235 h 1.12305 v -1.269532 -5.371093 -1.257813 z"/>
                                                </g>
                                            </g>
                                        </g>
                                    </g>
                                </g>
                            </g>
                        </g>
                        <g transform="matrix(1.7575939,0,0,1.7575939,-58.896022,-30.746205)" >
                            <g >
                                <g >
                                    <g gorn="0.3.7.0.0.0.1.0.0.0" stroke-width="0.568962"  id="AY-3-8910_TXT">
                                        <g transform="matrix(0.61455404,0,0,0.61455404,15.123768,10.636444)" >
                                            <g >
                                                <g >
                                                    <path stroke="none" gorn="0.3.7.0.0.0.1.0.0.0.0.0.0.0"  fill="#000000" id="path15256" d="m 74.71875,30.226562 c -0.153156,0 -0.276054,0.0038 -0.369141,0.0098 -0.09309,0.003 -0.166647,0.01323 -0.220703,0.03125 -0.05105,0.01501 -0.0873,0.03923 -0.111328,0.07227 -0.02403,0.03003 -0.04644,0.07004 -0.06445,0.121094 l -1.796875,5.169921 c -0.03604,0.105106 -0.05936,0.190847 -0.06836,0.253907 -0.009,0.06306 0.0032,0.1124 0.0332,0.148437 0.03004,0.03304 0.08404,0.0535 0.162109,0.0625 0.07808,0.009 0.186083,0.01367 0.324219,0.01367 0.12913,0 0.232474,-0.0038 0.310547,-0.0098 0.08107,-0.006 0.141547,-0.01624 0.183593,-0.03125 0.04504,-0.01802 0.07769,-0.03938 0.0957,-0.06641 0.02102,-0.03003 0.03682,-0.06733 0.04883,-0.109375 l 0.36914,-1.138672 h 2.18945 l -0.275391,-0.910156 -1.65234,2e-6 0.824219,-2.478516 h 0.0039 l 0.546875,1.644532 h 0.02344 v 0.07031 l 0.253906,0.763672 h -0.253906 v 0.910156 h 0.529297 l 0.392578,1.169922 c 0.01201,0.03904 0.0269,0.07169 0.04492,0.0957 0.01802,0.02403 0.04871,0.04358 0.09375,0.05859 0.04504,0.01198 0.109276,0.01845 0.193359,0.02148 0.08709,0.006 0.208177,0.0098 0.361328,0.0098 0.147145,0 0.263574,-0.0047 0.347656,-0.01367 0.08408,-0.006 0.140796,-0.02466 0.173828,-0.05469 0.03303,-0.03303 0.04611,-0.07952 0.03711,-0.142578 -0.009,-0.06306 -0.03232,-0.149702 -0.06836,-0.257813 l -1.800781,-5.166016 c -0.01802,-0.05706 -0.04134,-0.101733 -0.06836,-0.134765 -0.02403,-0.03303 -0.06495,-0.05725 -0.125,-0.07227 -0.05705,-0.01799 -0.139035,-0.02821 -0.244141,-0.03125 -0.105104,-0.006 -0.246655,-0.0098 -0.423828,-0.0098 z"/>
                                                </g>
                                            </g>
                                        </g>
                                        <path stroke="none" gorn="0.3.7.0.0.0.1.0.0.0.1"  fill="#000000" id="path15253" d="m 64.165429,31.451755 v 1.259537 q 0,0.02768 -0.01938,0.04983 -0.01661,0.02215 -0.05813,0.03599 -0.04152,0.01384 -0.113497,0.02215 -0.0692,0.0083 -0.174397,0.0083 -0.107961,0 -0.177166,-0.0083 -0.0692,-0.0083 -0.113497,-0.02215 -0.04152,-0.01384 -0.05813,-0.03599 -0.01661,-0.02215 -0.01661,-0.04983 v -1.259537 l -0.979948,-1.95159 q -0.0526,-0.102424 -0.0692,-0.157788 -0.01384,-0.05813 0.01661,-0.08582 0.03322,-0.03045 0.119033,-0.03599 0.08581,-0.0083 0.238067,-0.0083 0.127337,0 0.202079,0.0055 0.07751,0.0055 0.121801,0.02215 0.04429,0.01384 0.06367,0.03876 0.02215,0.02491 0.04152,0.06367 l 0.398622,0.880291 q 0.05813,0.127338 0.113497,0.268517 0.05813,0.141179 0.116265,0.296199 h 0.0055 q 0.0526,-0.149484 0.107961,-0.290663 0.05536,-0.141178 0.10796,-0.268516 l 0.393086,-0.874756 q 0.01384,-0.04429 0.03322,-0.06921 0.02215,-0.02768 0.06367,-0.04429 0.04152,-0.01661 0.113496,-0.02215 0.07197,-0.0055 0.191007,-0.0055 0.157788,0 0.243603,0.0083 0.08858,0.0055 0.119033,0.03599 0.03322,0.02768 0.01661,0.08582 -0.01661,0.05813 -0.06644,0.157788 z"/>
                                        <path stroke="none" gorn="0.3.7.0.0.0.1.0.0.0.2"  fill="#000000" id="path15250" d="m 66.540555,31.418536 q 0,0.160557 -0.03045,0.224226 -0.03045,0.06367 -0.09689,0.06367 h -1.151576 q -0.06921,0 -0.09966,-0.06367 -0.03045,-0.06644 -0.03045,-0.224226 0,-0.15502 0.03045,-0.218689 0.03045,-0.06367 0.09966,-0.06367 h 1.151576 q 0.03322,0 0.05536,0.01384 0.02491,0.01384 0.04152,0.04706 0.01661,0.03322 0.02215,0.08858 0.0083,0.05536 0.0083,0.132874 z"/>
                                        <path stroke="none" gorn="0.3.7.0.0.0.1.0.0.0.3"  fill="#000000" id="path15247" d="m 69.333682,31.761795 q 0,0.268516 -0.102424,0.476132 -0.102424,0.207616 -0.285126,0.348795 -0.182702,0.141179 -0.437377,0.215921 -0.254676,0.07197 -0.556411,0.07197 -0.182702,0 -0.343259,-0.02768 -0.160556,-0.02491 -0.285125,-0.06367 -0.121802,-0.03876 -0.20208,-0.08028 -0.08028,-0.04152 -0.105192,-0.06367 -0.02491,-0.02215 -0.03876,-0.04983 -0.01107,-0.02768 -0.02215,-0.06367 -0.0083,-0.03875 -0.01384,-0.09412 -0.0028,-0.05813 -0.0028,-0.13841 0,-0.132875 0.02215,-0.182702 0.02214,-0.0526 0.06644,-0.0526 0.02768,0 0.09412,0.03875 0.0692,0.03599 0.174397,0.08028 0.105192,0.04152 0.246371,0.08028 0.141179,0.03599 0.321113,0.03599 0.152252,0 0.268517,-0.03599 0.116265,-0.03599 0.196543,-0.09966 0.08305,-0.06644 0.121801,-0.157788 0.04152,-0.09412 0.04152,-0.207616 0,-0.12457 -0.04983,-0.224225 -0.04706,-0.09966 -0.143948,-0.168861 -0.09412,-0.07197 -0.240834,-0.110729 -0.143947,-0.03876 -0.34049,-0.03876 h -0.31004 q -0.03599,0 -0.0609,-0.0083 -0.02491,-0.01107 -0.04152,-0.04152 -0.01661,-0.03045 -0.02491,-0.08305 -0.0055,-0.05536 -0.0055,-0.141179 0,-0.08028 0.0055,-0.130106 0.0083,-0.0526 0.02215,-0.08028 0.01661,-0.02768 0.03876,-0.03875 0.02491,-0.01107 0.05813,-0.01107 h 0.312808 q 0.160557,0 0.285126,-0.03599 0.12457,-0.03875 0.207616,-0.10796 0.08581,-0.06921 0.130106,-0.166093 0.04429,-0.09966 0.04429,-0.218688 0,-0.09135 -0.03045,-0.17163 -0.03045,-0.08305 -0.09135,-0.141178 -0.05813,-0.0609 -0.152251,-0.09412 -0.09412,-0.03599 -0.221457,-0.03599 -0.143948,0 -0.271285,0.04429 -0.127338,0.04152 -0.229762,0.09412 -0.09966,0.04983 -0.171629,0.09412 -0.06921,0.04429 -0.102424,0.04429 -0.02215,0 -0.03876,-0.0083 -0.01661,-0.01107 -0.02768,-0.03876 -0.01107,-0.02768 -0.01661,-0.08028 -0.0055,-0.0526 -0.0055,-0.135642 0,-0.06921 0.0028,-0.113497 0.0028,-0.04706 0.01107,-0.07751 0.0083,-0.03045 0.01938,-0.0526 0.01384,-0.02215 0.04152,-0.04706 0.02768,-0.02768 0.113497,-0.08028 0.08581,-0.0526 0.21592,-0.102424 0.130106,-0.04983 0.298967,-0.08305 0.171629,-0.03599 0.370941,-0.03599 0.260212,0 0.459523,0.0609 0.20208,0.0609 0.337722,0.177165 0.138411,0.113497 0.207616,0.282358 0.07197,0.166093 0.07197,0.376477 0,0.163325 -0.04152,0.304503 -0.04152,0.141179 -0.121801,0.251908 -0.08028,0.110728 -0.20208,0.188238 -0.119033,0.07751 -0.276821,0.116265 v 0.0083 q 0.188239,0.02215 0.337722,0.09689 0.149484,0.07197 0.251908,0.182702 0.105192,0.110729 0.160556,0.251908 0.05536,0.13841 0.05536,0.298967 z"/>
                                        <path stroke="none" gorn="0.3.7.0.0.0.1.0.0.0.4"  fill="#000000" id="path15244" d="m 71.14963,31.418536 q 0,0.160557 -0.03045,0.224226 -0.03045,0.06367 -0.09689,0.06367 h -1.151577 q -0.06921,0 -0.09965,-0.06367 -0.03045,-0.06644 -0.03045,-0.224226 0,-0.15502 0.03045,-0.218689 0.03045,-0.06367 0.09965,-0.06367 h 1.151577 q 0.03322,0 0.05536,0.01384 0.02491,0.01384 0.04152,0.04706 0.01661,0.03322 0.02215,0.08858 0.0083,0.05536 0.0083,0.132874 z"/>
                                        <g transform="matrix(0.61455404,0,0,0.61455404,15.123768,10.636444)" >
                                            <g >
                                                <g >
                                                    <path stroke="none" gorn="0.3.7.0.0.0.1.0.0.0.5.0.0.0"  fill="#000000" id="path21381" d="m 93.841797,30.150392 c -0.264938,0.0097 -0.652528,0.04771 -0.861328,0.111374 -0.246242,0.07507 -0.452025,0.18308 -0.617188,0.324219 -0.162159,0.138134 -0.285058,0.303904 -0.36914,0.496093 -0.08108,0.189186 -0.121094,0.400535 -0.121094,0.634766 0,0.16216 0.02137,0.313037 0.06641,0.451172 0.04504,0.138136 0.112131,0.265698 0.199219,0.382812 0.08709,0.114114 0.191333,0.221217 0.314453,0.320313 0.123121,0.09609 0.260912,0.185448 0.414063,0.269531 -0.189187,0.0991 -0.356763,0.205297 -0.503907,0.316406 -0.144142,0.108107 -0.266138,0.223486 -0.365234,0.34961 -0.0961,0.123121 -0.169653,0.259106 -0.220703,0.40625 -0.04805,0.144141 -0.07227,0.299681 -0.07227,0.464843 0,0.243239 0.04287,0.459251 0.126953,0.648438 0.08408,0.186183 0.210741,0.343529 0.378907,0.472656 0.168165,0.126125 0.375755,0.221045 0.625,0.28711 0.245728,0.06513 0.530933,0.09869 0.855468,0.09961 l 0.150385,-0.875047 c -0.257755,-0.01091 -0.606031,-0.07253 -0.744135,-0.183547 -0.150148,-0.12312 -0.224609,-0.300926 -0.224609,-0.535156 0,-0.1051 0.0158,-0.202876 0.04883,-0.292969 0.03604,-0.09309 0.08913,-0.180641 0.158203,-0.261719 0.06906,-0.08408 0.15466,-0.163202 0.259766,-0.238281 0.101463,-0.07247 0.219317,-0.144319 0.351562,-0.216797 l 0.150387,-0.990281 c -0.08327,-0.0479 -0.311625,-0.172538 -0.378902,-0.21675 -0.105104,-0.06907 -0.191749,-0.138864 -0.257813,-0.210938 -0.06606,-0.07207 -0.115405,-0.14939 -0.148437,-0.230468 -0.03003,-0.08108 -0.04492,-0.169534 -0.04492,-0.265625 0,-0.204201 0.06243,-0.362451 0.185547,-0.476563 0.111658,-0.106211 0.426666,-0.163988 0.644527,-0.173876 z"/>
                                                </g>
                                            </g>
                                        </g>
                                        <g transform="matrix(0.61455404,0,0,0.61455404,15.123768,10.636444)" >
                                            <g >
                                                <g >
                                                    <path stroke="none" gorn="0.3.7.0.0.0.1.0.0.0.6.0.0.0"  fill="#000000" id="path15241" d="m 93.841797,30.150391 v 0.867187 c 0.09472,0.0051 0.17923,0.01951 0.251953,0.04297 0.0961,0.03004 0.175222,0.07471 0.238281,0.134765 0.06606,0.05706 0.114504,0.126855 0.144531,0.210938 0.03003,0.08408 0.04492,0.18005 0.04492,0.285156 0,0.180178 -0.06152,0.343091 -0.18164,0.490235 -0.116018,0.145764 -0.281837,0.282072 -0.498047,0.410156 l -0.150387,0.990281 c 0.103333,0.05408 0.349424,0.168049 0.43359,0.220656 0.120122,0.07508 0.218802,0.153298 0.296875,0.234375 0.08108,0.08107 0.139744,0.168622 0.175781,0.261719 0.03904,0.09009 0.05859,0.189672 0.05859,0.300781 0,0.222219 -0.07356,0.397314 -0.220703,0.523438 -0.133333,0.116667 -0.331942,0.178752 -0.59375,0.1875 l -0.150385,0.875047 c 0.290089,-0.0083 0.698596,-0.04498 0.927729,-0.107469 0.264258,-0.07507 0.484934,-0.18308 0.662109,-0.324219 0.180173,-0.144141 0.316158,-0.32014 0.40625,-0.527344 0.09309,-0.207203 0.140625,-0.442772 0.140625,-0.707031 0,-0.165162 -0.02798,-0.317845 -0.08203,-0.458984 -0.05105,-0.141139 -0.125513,-0.273363 -0.22461,-0.396485 -0.0991,-0.126119 -0.221093,-0.243451 -0.365234,-0.351562 -0.144141,-0.108109 -0.309008,-0.210549 -0.492188,-0.306641 0.156154,-0.08708 0.296801,-0.183956 0.419922,-0.289062 0.123121,-0.108106 0.226465,-0.221678 0.310547,-0.341797 0.08409,-0.120117 0.148319,-0.246776 0.19336,-0.378906 0.04805,-0.135132 0.07227,-0.272924 0.07227,-0.414063 0,-0.213209 -0.03535,-0.405906 -0.107422,-0.580078 -0.06907,-0.177173 -0.177073,-0.328954 -0.324218,-0.455078 -0.147144,-0.126123 -0.337133,-0.2239 -0.56836,-0.292969 -0.226822,-0.06864 -0.499588,-0.103093 -0.818359,-0.103515 z"/>
                                                </g>
                                            </g>
                                        </g>
                                        <g transform="matrix(0.61455404,0,0,0.61455404,15.123768,10.636444)" >
                                            <g >
                                                <g >
                                                    <path stroke="none" gorn="0.3.7.0.0.0.1.0.0.0.7.0.0.0"  fill="#000000" id="path15238" d="m 98.449219,30.150391 c -0.336331,0 -0.633421,0.04934 -0.888672,0.148437 -0.255251,0.0991 -0.467504,0.237792 -0.638672,0.417969 -0.171166,0.177173 -0.299631,0.390476 -0.386719,0.636719 -0.08709,0.243238 -0.130859,0.509494 -0.130859,0.800781 0,0.276271 0.02979,0.524925 0.08984,0.744141 0.06306,0.219214 0.161741,0.405443 0.296875,0.558593 0.135132,0.153153 0.31113,0.268532 0.527343,0.34961 0.216212,0.08108 0.479759,0.123047 0.789063,0.123047 0.04094,0 0.07971,-0.0022 0.11914,-0.0039 l 0.152345,-0.898437 c -0.09062,-0.0081 -0.324754,-0.03111 -0.394532,-0.0586 -0.0991,-0.03904 -0.179128,-0.09575 -0.242187,-0.173828 -0.06007,-0.08108 -0.106692,-0.182617 -0.136719,-0.302734 -0.02702,-0.123122 -0.03906,-0.264673 -0.03906,-0.423829 0,-0.147145 0.0158,-0.281176 0.04883,-0.404297 0.03303,-0.123118 0.08237,-0.23022 0.148438,-0.320312 0.06907,-0.09009 0.155711,-0.158986 0.257812,-0.207031 0.1021,-0.05105 0.222143,-0.07617 0.363282,-0.07617 0.144137,0 0.270795,0.02602 0.378906,0.08008 0.108103,0.05405 0.19941,0.146264 0.271484,0.275391 0.07206,0.129126 0.126073,0.301366 0.16211,0.517578 0.03604,0.216213 0.05273,0.485326 0.05273,0.80664 -0.120117,0.08708 -0.257908,0.156882 -0.414062,0.210938 -0.143288,0.04776 -0.295342,0.0731 -0.457032,0.07617 l -0.152345,0.898437 c 0.144283,-0.01478 0.428788,-0.05238 0.550783,-0.09179 0.195192,-0.06606 0.361865,-0.141428 0.5,-0.228515 -0.006,0.222218 -0.03489,0.433568 -0.08594,0.634765 -0.05105,0.201199 -0.13017,0.378101 -0.238281,0.53125 -0.108107,0.153148 -0.249657,0.275142 -0.423828,0.365235 -0.174171,0.09009 -0.386424,0.134765 -0.638672,0.134765 -0.147145,0 -0.280273,-0.01023 -0.400391,-0.03125 -0.120121,-0.02102 -0.23008,-0.04524 -0.326172,-0.07227 -0.09309,-0.02702 -0.172217,-0.05124 -0.238281,-0.07227 -0.06606,-0.02102 -0.116307,-0.03125 -0.152343,-0.03125 -0.02702,0 -0.05124,0.0056 -0.07227,0.01758 -0.01802,0.009 -0.03382,0.02947 -0.04883,0.0625 -0.01205,0.03302 -0.02138,0.08056 -0.02734,0.140625 -0.003,0.06006 -0.0059,0.139185 -0.0059,0.238282 0,0.10811 0.0084,0.191898 0.02344,0.251953 0.01501,0.06005 0.03923,0.107593 0.07227,0.140625 0.03303,0.03003 0.08613,0.05982 0.158203,0.08984 0.07507,0.03004 0.164425,0.05892 0.269531,0.08594 0.105104,0.02702 0.221532,0.04839 0.347656,0.06641 0.129127,0.01802 0.257592,0.02734 0.386719,0.02734 0.36636,0 0.681956,-0.04844 0.949219,-0.144531 0.270265,-0.09609 0.499364,-0.224559 0.685547,-0.386719 0.189186,-0.165163 0.341869,-0.356957 0.458984,-0.576172 0.120118,-0.219216 0.213238,-0.450121 0.279298,-0.693359 0.0691,-0.243239 0.1166,-0.491893 0.14062,-0.744141 0.024,-0.255251 0.0352,-0.501048 0.0352,-0.738281 0,-0.258254 -0.0111,-0.506908 -0.0352,-0.744141 -0.021,-0.237233 -0.0601,-0.457909 -0.11718,-0.662109 -0.0541,-0.204201 -0.13138,-0.387572 -0.23047,-0.552735 -0.0961,-0.168164 -0.218091,-0.310618 -0.365237,-0.427734 -0.144141,-0.117118 -0.317284,-0.208425 -0.521484,-0.271484 -0.201198,-0.06306 -0.436766,-0.09375 -0.707031,-0.09375 z"/>
                                                </g>
                                            </g>
                                        </g>
                                        <path stroke="none" gorn="0.3.7.0.0.0.1.0.0.0.8"  fill="#000000" id="path15235" d="m 79.672958,32.534126 q 0,0.07751 -0.0083,0.132874 -0.0083,0.0526 -0.02491,0.08581 -0.01384,0.03045 -0.03322,0.04429 -0.01938,0.01384 -0.04429,0.01384 h -1.976504 q -0.02214,0 -0.04152,-0.01384 -0.01938,-0.01384 -0.03599,-0.04429 -0.01384,-0.03322 -0.02215,-0.08581 -0.0083,-0.05536 -0.0083,-0.132874 0,-0.08028 0.0055,-0.132874 0.0083,-0.05536 0.02215,-0.08858 0.01661,-0.03322 0.03599,-0.04706 0.01938,-0.01661 0.04429,-0.01661 h 0.66714 v -2.330835 l -0.575789,0.318344 q -0.06367,0.03045 -0.105192,0.03875 -0.03875,0.0055 -0.06367,-0.01661 -0.02215,-0.02491 -0.03045,-0.08305 -0.0083,-0.05813 -0.0083,-0.163325 0,-0.06644 0.0028,-0.10796 0.0028,-0.04429 0.01384,-0.07474 0.01107,-0.03045 0.03045,-0.04983 0.01938,-0.01938 0.0526,-0.04152 l 0.769563,-0.498278 q 0.01384,-0.01107 0.03322,-0.01661 0.02214,-0.0083 0.05536,-0.01107 0.03322,-0.0055 0.08581,-0.0055 0.05536,-0.0028 0.141179,-0.0028 0.105192,0 0.16886,0.0055 0.06644,0.0028 0.09966,0.01384 0.03322,0.0083 0.04429,0.02491 0.01107,0.01661 0.01107,0.04152 V 32.249 h 0.584093 q 0.02491,0 0.04429,0.01661 0.02214,0.01384 0.03599,0.04706 0.01661,0.03322 0.02214,0.08858 0.0083,0.0526 0.0083,0.132874 z"/>
                                        <g transform="matrix(0.61455404,0,0,0.61455404,15.123768,10.636444)" >
                                            <g >
                                                <g >
                                                    <path stroke="none" gorn="0.3.7.0.0.0.1.0.0.0.9.0.0.0"  fill="#000000" id="path21633" d="m 107.90039,30.150391 c -0.32121,0.01708 -0.80625,0.08968 -1.04101,0.210931 -0.27027,0.141139 -0.49095,0.345115 -0.66211,0.609375 -0.16817,0.264259 -0.29303,0.584519 -0.3711,0.962891 -0.0751,0.375369 -0.11133,0.793405 -0.11133,1.255859 0,0.46846 0.0298,0.889353 0.0898,1.261719 0.0631,0.369364 0.17107,0.683153 0.32422,0.941406 0.15315,0.255251 0.35983,0.451708 0.62109,0.589844 0.25037,0.129503 0.77317,0.193828 1.15041,0.199223 l -0.20705,-0.941411 c -0.11675,-0.01029 -0.22029,-0.03973 -0.30859,-0.08984 -0.11111,-0.06607 -0.20137,-0.178734 -0.27344,-0.337891 -0.0691,-0.162159 -0.12127,-0.378172 -0.1543,-0.648438 -0.033,-0.273269 -0.0488,-0.616843 -0.0488,-1.03125 0,-0.339333 0.014,-0.637327 0.041,-0.892578 0.027,-0.25525 0.0726,-0.469457 0.13867,-0.640625 0.0691,-0.171169 0.16128,-0.298729 0.27539,-0.382812 0.0915,-0.06804 0.20191,-0.108168 0.33008,-0.123047 z"/>
                                                </g>
                                            </g>
                                        </g>
                                        <g transform="matrix(0.61455404,0,0,0.61455404,15.123768,10.636444)" >
                                            <g >
                                                <g >
                                                    <path stroke="none" gorn="0.3.7.0.0.0.1.0.0.0.10.0.0.0"  fill="#000000" id="path15232" d="m 107.90039,30.150391 -0.20707,0.943356 c 0.065,0.0059 0.33384,0.01494 0.39066,0.03321 0.0841,0.02703 0.15855,0.07456 0.22461,0.140625 0.0661,0.06306 0.12293,0.147749 0.16797,0.25586 0.048,0.108106 0.0852,0.240331 0.11524,0.396484 0.033,0.156153 0.0572,0.341478 0.0723,0.554687 0.015,0.210207 0.0234,0.452245 0.0234,0.728516 0,0.228225 -0.006,0.437768 -0.0176,0.626953 -0.009,0.189186 -0.0286,0.359618 -0.0586,0.509766 -0.027,0.150148 -0.0643,0.282372 -0.10938,0.396484 -0.045,0.114118 -0.10085,0.208135 -0.16992,0.283203 -0.0661,0.07507 -0.14428,0.13088 -0.23437,0.169922 -0.0593,0.02373 -0.33329,0.04267 -0.40432,0.05077 l 0.20705,0.941412 c 0.32481,-0.01671 0.60277,-0.08527 0.83594,-0.207032 0.27327,-0.141138 0.49394,-0.345116 0.66211,-0.609375 0.17116,-0.26426 0.29406,-0.583615 0.36914,-0.958984 0.0751,-0.375368 0.11328,-0.796261 0.11328,-1.261719 0,-0.468461 -0.0298,-0.886496 -0.0898,-1.255859 -0.0601,-0.372366 -0.16717,-0.686156 -0.32032,-0.941406 -0.15315,-0.258255 -0.36074,-0.454712 -0.625,-0.589844 -0.2508,-0.132612 -0.56719,-0.201728 -0.94531,-0.207031 z"/>
                                                </g>
                                            </g>
                                        </g>
                                    </g>
                                </g>
                            </g>
                        </g>
                        <g transform="matrix(1.2740632,0,0,1.2740632,-27.723403,-7.0296731)" >
                            <g >
                                <g >
                                    <g gorn="0.3.7.0.0.0.2.0.0.0" stroke-width="0.784891"  id="g26981">
                                        <g transform="matrix(0.32371822,0,0,0.32371822,21.97839,40.089645)" >
                                            <g >
                                                <g >
                                                    <g gorn="0.3.7.0.0.0.2.0.0.0.0.0.0.0" stroke-width="2.42462"  id="GI_TXT">
                                                        <path stroke="none" gorn="0.3.7.0.0.0.2.0.0.0.0.0.0.0.0"  fill="#000000" id="path15454" d="m 133.21772,-2.4626114 c 1.55072,-3.7113941 1.55199,-29.8644886 0.002,-32.8365926 l -1.0759,-2.0625 h 5.35552 c 4.16541,0 5.15553,0.2 4.45553,0.9 -0.64539,0.645383 -0.9,5.561877 -0.9,17.378446 0,14.2808744 0.16553,16.6613574 1.24124,17.8500017 1.19215,1.31731591 1.01571,1.37155591 -4.46173,1.37155591 h -5.70297 z"/>
                                                        <path stroke="none" gorn="0.3.7.0.0.0.2.0.0.0.0.0.0.0.1"  fill="#000000" id="path15334" d="m 111.78149,-1.0007067 c -4.43486,-1.3840247 -9.18009,-5.5075716 -11.24389,-9.7707973 -1.334944,-2.757631 -1.590392,-4.363002 -1.342263,-8.435496 0.168547,-2.766337 0.896443,-6.24726 1.617553,-7.735386 3.99494,-8.244252 14.03071,-12.930619 24.80731,-11.584172 l 4.18425,0.522789 v 3.340293 3.340293 l -2.4375,-1.271143 c -1.44141,-0.751688 -4.27643,-1.295914 -6.9375,-1.33176 -8.73452,-0.117659 -14.625,5.673076 -14.625,14.377353 0,2.111659 0.35897,4.789478 0.79771,5.950707 1.84493,4.883006 8.21382,9.1880762 13.63979,9.2198537 l 2.8125,0.016471 v -6.2081217 c 0,-4.404982 -0.3391,-6.692261 -1.16753,-7.874999 l -1.16752,-1.66688 h 4.56429 4.5643 l -0.20927,9.9375 -0.20927,9.93750111 -7.125,0.1482128 c -4.44517,0.092468 -8.40303,-0.2506328 -10.52296,-0.91221861 z"/>
                                                    </g>
                                                </g>
                                            </g>
                                        </g>
                                        <g transform="matrix(1.0532405,0,0,1.0532405,-16.795716,-4.8429844)" >
                                            <g >
                                                <g >
                                                    <g gorn="0.3.7.0.0.0.2.0.0.0.1.0.0.0" stroke-width="0.745216"  id="0426_CDA_TXT">
                                                        <g transform="matrix(0.75000009,0,0,0.75000009,9.3225403,3.9068264)" >
                                                            <g >
                                                                <g >
                                                                    <path stroke="none" gorn="0.3.7.0.0.0.2.0.0.0.1.0.0.0.0.0.0.0"  fill="#000000" id="path24964" d="m 98.296875,41.355516 c -0.269401,0.01265 -0.50329,0.06873 -0.699219,0.169922 -0.221457,0.115649 -0.402713,0.283464 -0.542968,0.5 -0.137799,0.216535 -0.238762,0.479022 -0.302735,0.789062 -0.06152,0.30758 -0.0918,0.650359 -0.0918,1.029297 0,0.383859 0.025,0.728085 0.07422,1.033203 0.05167,0.302659 0.140133,0.55987 0.265625,0.771485 0.125492,0.209153 0.295691,0.371185 0.509766,0.484374 0.208897,0.10805 0.472385,0.163403 0.789062,0.166016 v -0.773437 c -0.102895,-0.0069 -0.192831,-0.03264 -0.269531,-0.07617 -0.09104,-0.05413 -0.165552,-0.144977 -0.224609,-0.275391 -0.0566,-0.132874 -0.09793,-0.311746 -0.125,-0.533203 -0.02707,-0.223918 -0.04102,-0.504183 -0.04102,-0.84375 0,-0.278052 0.01106,-0.521315 0.0332,-0.730469 0.02214,-0.209154 0.0611,-0.385134 0.115234,-0.52539 0.0566,-0.140257 0.131106,-0.243603 0.22461,-0.3125 0.07889,-0.05866 0.311692,-0.09508 0.423837,-0.105518 l -1.2e-5,-0.769527 -0.136716,0.002 c 0.0081,-0.303044 4.14e-4,0 -0.0019,-2e-6 z"/>
                                                                </g>
                                                            </g>
                                                        </g>
                                                        <g transform="matrix(0.75000009,0,0,0.75000009,9.3225403,3.9068264)" >
                                                            <g >
                                                                <g >
                                                                    <path stroke="none" gorn="0.3.7.0.0.0.2.0.0.0.1.0.0.0.1.0.0.0"  fill="#000000" id="path18022" d="m 98.435547,41.353516 v 0.769531 c 0.05923,0.0042 0.114911,0.01483 0.166015,0.03125 0.0689,0.02215 0.131414,0.05915 0.185547,0.113281 0.05414,0.05167 0.09981,0.122351 0.136719,0.210938 0.03937,0.08858 0.0711,0.196266 0.0957,0.324218 0.02707,0.127953 0.04629,0.280374 0.05859,0.455078 0.0123,0.172245 0.01758,0.371279 0.01758,0.597657 0,0.187009 -0.0038,0.358652 -0.01367,0.513672 -0.0074,0.155019 -0.02422,0.292983 -0.04883,0.416015 -0.02215,0.123032 -0.05098,0.230715 -0.08789,0.324219 -0.03691,0.09351 -0.08403,0.172864 -0.140624,0.234375 -0.05413,0.06151 -0.117585,0.106681 -0.191407,0.138672 -0.05316,0.02126 -0.113088,0.03506 -0.177734,0.04102 l -0.221594,0.0075 0.08488,0.767966 0.136717,-0.002 c 0.272675,-0.01229 0.506475,-0.0702 0.701172,-0.171875 0.223918,-0.11565 0.405173,-0.281512 0.542969,-0.498047 0.14026,-0.216536 0.241223,-0.477577 0.302734,-0.785156 0.06151,-0.307579 0.0918,-0.653758 0.0918,-1.035156 0,-0.38386 -0.025,-0.72664 -0.0742,-1.029297 C 99.950811,42.47223 99.863893,42.215017 99.7384,42.005863 99.612891,41.794248 99.4432,41.634169 99.226664,41.523442 99.017368,41.412803 98.753,41.356013 98.435603,41.35352 Z"/>
                                                                </g>
                                                            </g>
                                                        </g>
                                                        <g transform="matrix(0.75000009,0,0,0.75000009,9.3225403,3.9068264)" >
                                                            <g >
                                                                <g >
                                                                    <path stroke="none" gorn="0.3.7.0.0.0.2.0.0.0.1.0.0.0.2.0.0.0"  fill="#000000" id="path18019" d="m 102.70312,41.416016 c -0.11565,0 -0.21372,0.0029 -0.29492,0.0078 -0.0812,0.0049 -0.14899,0.01309 -0.20312,0.02539 -0.0517,0.0098 -0.0935,0.02379 -0.12305,0.04102 -0.0295,0.01476 -0.0502,0.03255 -0.0625,0.05469 l -1.48437,2.617187 c -0.0246,0.04676 -0.0453,0.09098 -0.0625,0.132813 -0.0148,0.04182 -0.0273,0.08606 -0.0371,0.132812 -0.007,0.04675 -0.0127,0.09915 -0.0176,0.158204 -0.002,0.0566 -0.004,0.124387 -0.004,0.203124 0,0.09596 0.004,0.173365 0.0117,0.232422 0.01,0.05659 0.0238,0.100822 0.041,0.132813 0.0197,0.02953 0.0413,0.04875 0.0684,0.05859 0.0271,0.0074 0.0593,0.01172 0.0937,0.01172 h 1.82636 v -0.77539 h -1.26582 l 1.25782,-2.195313 h 0.008 v 1.521485 0.673828 0.77539 0.863282 c 0,0.0246 0.007,0.04672 0.0195,0.06641 0.0148,0.01723 0.0378,0.03262 0.0723,0.04492 0.0369,0.01234 0.0855,0.0205 0.14453,0.02539 0.0615,0.0074 0.13603,0.01172 0.22461,0.01172 0.0935,0 0.16945,-0.0043 0.22851,-0.01172 0.0591,-0.0049 0.10763,-0.01309 0.14453,-0.02539 0.0369,-0.0123 0.0634,-0.0277 0.0781,-0.04492 0.0148,-0.01969 0.0215,-0.0418 0.0215,-0.06641 v -0.863282 h 0.42578 c 0.0443,0 0.077,-0.03173 0.10157,-0.0957 0.0271,-0.06644 0.041,-0.161617 0.041,-0.287109 0,-0.140253 -0.0134,-0.241724 -0.043,-0.300781 -0.0271,-0.06152 -0.0602,-0.0918 -0.0996,-0.0918 h -0.42578 v -2.875 c 0,-0.02707 -0.0125,-0.05062 -0.0371,-0.07031 -0.0246,-0.01969 -0.0631,-0.03457 -0.11718,-0.04687 -0.0517,-0.0148 -0.12236,-0.02636 -0.21094,-0.03125 -0.0886,-0.0074 -0.19482,-0.0098 -0.32032,-0.0098 z"/>
                                                                </g>
                                                            </g>
                                                        </g>
                                                        <path stroke="none" gorn="0.3.7.0.0.0.2.0.0.0.1.0.0.0.3"  fill="#000000" id="path18016" d="m 90.053317,38.271028 q 0,0.08028 -0.0083,0.13841 -0.0055,0.05537 -0.01938,0.09135 -0.01384,0.03599 -0.03599,0.0526 -0.02215,0.01384 -0.04983,0.01384 h -2.05955 q -0.0609,0 -0.105193,-0.01107 -0.04429,-0.01107 -0.07197,-0.04152 -0.02768,-0.03322 -0.04152,-0.09412 -0.01107,-0.0609 -0.01107,-0.157788 0,-0.09135 0.0083,-0.15502 0.0083,-0.06644 0.03045,-0.116265 0.02215,-0.0526 0.05536,-0.09966 0.03599,-0.04983 0.09135,-0.10796 l 0.62008,-0.664371 q 0.18547,-0.193775 0.298967,-0.351563 0.113497,-0.160556 0.177165,-0.290662 0.06367,-0.132875 0.08581,-0.243603 0.02491,-0.110729 0.02491,-0.210384 0,-0.09135 -0.03045,-0.171629 -0.02768,-0.08305 -0.08581,-0.143948 -0.05536,-0.0609 -0.141179,-0.09412 -0.08581,-0.03599 -0.202079,-0.03599 -0.163325,0 -0.290663,0.04152 -0.124569,0.04152 -0.221457,0.09412 -0.09412,0.04983 -0.157788,0.09412 -0.06367,0.04152 -0.09966,0.04152 -0.02491,0 -0.04429,-0.01661 -0.01661,-0.01661 -0.02768,-0.05536 -0.01107,-0.03876 -0.01938,-0.102424 -0.0055,-0.06644 -0.0055,-0.160556 0,-0.06367 0.0028,-0.105193 0.0055,-0.04429 0.01384,-0.07474 0.0083,-0.03322 0.02215,-0.05537 0.01384,-0.02491 0.04706,-0.05813 0.03599,-0.03322 0.127337,-0.08305 0.09412,-0.0526 0.229762,-0.09966 0.135643,-0.04983 0.298967,-0.08305 0.163325,-0.03322 0.34049,-0.03322 0.27959,0 0.487206,0.07197 0.210384,0.0692 0.348795,0.196543 0.13841,0.124569 0.204847,0.298967 0.06921,0.171629 0.06921,0.37094 0,0.174398 -0.03322,0.343259 -0.03322,0.168861 -0.138411,0.365404 -0.105192,0.193775 -0.296198,0.431841 -0.191007,0.235298 -0.506583,0.548106 l -0.418,0.429073 h 1.411788 q 0.02768,0 0.04983,0.01661 0.02491,0.01661 0.04152,0.0526 0.01661,0.03322 0.02491,0.09135 0.0083,0.05536 0.0083,0.132875 z"/>
                                                        <g transform="matrix(0.75000009,0,0,0.75000009,9.3225403,3.9068264)" >
                                                            <g >
                                                                <g >
                                                                    <path stroke="none" gorn="0.3.7.0.0.0.2.0.0.0.1.0.0.0.4.0.0.0"  fill="#000000" id="path18013" d="m 110.24414,41.357422 c -0.27221,0.0046 -0.50989,0.04337 -0.71289,0.117187 -0.21407,0.07874 -0.39822,0.184978 -0.55078,0.320313 -0.1501,0.132874 -0.27318,0.289123 -0.36914,0.46875 -0.096,0.177165 -0.17048,0.365649 -0.22461,0.5625 -0.0517,0.196851 -0.0877,0.39733 -0.10742,0.601562 -0.0172,0.204232 -0.0254,0.398929 -0.0254,0.585938 0,0.223917 0.008,0.435454 0.0254,0.634766 0.0172,0.199311 0.0475,0.384903 0.0918,0.554687 0.0468,0.169784 0.10927,0.321697 0.18555,0.457031 0.0763,0.135335 0.17435,0.251692 0.29492,0.347656 0.12057,0.09351 0.26287,0.163682 0.42774,0.212891 0.16486,0.05167 0.35862,0.07813 0.58008,0.07813 0.27313,0 0.5135,-0.04134 0.72265,-0.125 0.20916,-0.08612 0.38658,-0.203924 0.5293,-0.351562 0.14271,-0.150099 0.25039,-0.327018 0.32422,-0.53125 0.0738,-0.206694 0.11133,-0.430733 0.11133,-0.671875 -1e-5,-0.214075 -0.0265,-0.407327 -0.0781,-0.582032 -0.0517,-0.174704 -0.13341,-0.324233 -0.24414,-0.447265 -0.10827,-0.123033 -0.24768,-0.218721 -0.41992,-0.285156 -0.17225,-0.06644 -0.37995,-0.09961 -0.6211,-0.09961 -0.10826,0 -0.21067,0.01012 -0.30664,0.02734 -0.0399,0.0061 -0.8781,0.02936 -0.91593,0.03721 l -0.17984,0.719036 c 0.0658,-0.01207 1.11346,-0.04531 1.18171,-0.04531 0.11565,0 0.21372,0.01828 0.29492,0.05273 0.0812,0.03199 0.14611,0.08005 0.19531,0.146484 0.0492,0.06398 0.0853,0.144269 0.10743,0.240234 0.0221,0.0935 0.0332,0.202633 0.0332,0.328126 0,0.12057 -0.0154,0.23259 -0.0449,0.335937 -0.0295,0.10089 -0.0723,0.189349 -0.12891,0.265625 -0.0566,0.07628 -0.12676,0.135903 -0.21289,0.177734 -0.0837,0.04183 -0.18368,0.0625 -0.29687,0.0625 -0.11565,0 -0.2161,-0.02067 -0.30469,-0.0625 -0.0861,-0.04429 -0.15969,-0.117356 -0.21875,-0.220703 -0.0566,-0.103346 -0.0994,-0.243264 -0.12891,-0.417969 -0.0295,-0.177165 -0.0449,-0.396868 -0.0449,-0.660156 V 43.4707 c -0.006,0.0038 -0.0117,0.0079 -0.0176,0.01172 0.001,-0.0935 0.007,-0.184855 0.0176,-0.273438 -0.0327,-0.05088 0.0244,-0.161172 0.0254,-0.167968 0.006,-0.03047 0.0125,-0.06 0.0195,-0.08984 0.0394,-0.167323 0.10138,-0.313961 0.1875,-0.439453 0.0861,-0.12795 0.19814,-0.228912 0.33594,-0.302735 0.1378,-0.07382 0.30655,-0.111328 0.50586,-0.111328 0.11811,0 0.22196,0.0087 0.31055,0.02344 0.091,0.01476 0.16989,0.03109 0.23632,0.05078 0.0664,0.01968 0.12317,0.03941 0.16993,0.05664 0.0467,0.01476 0.0837,0.02148 0.11328,0.02148 0.0246,0 0.0472,-0.0072 0.0645,-0.01953 0.0172,-0.0123 0.0292,-0.03153 0.0391,-0.05859 0.01,-0.02953 0.0171,-0.06798 0.0195,-0.117187 0.005,-0.05167 0.008,-0.117075 0.008,-0.19336 0,-0.04921 -0.001,-0.09055 -0.004,-0.125 -0.002,-0.03445 -0.008,-0.06184 -0.0156,-0.08398 -0.005,-0.02461 -0.0117,-0.04672 -0.0215,-0.06641 -0.01,-0.01968 -0.0252,-0.03797 -0.0449,-0.05273 -0.0172,-0.01723 -0.0547,-0.03645 -0.11133,-0.05859 -0.0566,-0.02214 -0.12388,-0.04137 -0.20508,-0.05859 -0.0812,-0.01723 -0.17161,-0.03118 -0.26758,-0.04102 -0.0935,-0.0123 -0.18579,-0.01758 -0.27929,-0.01758 -0.0185,0 -0.0365,-3.08e-4 -0.0547,0 z"/>
                                                                </g>
                                                            </g>
                                                        </g>
                                                        <path stroke="none" gorn="0.3.7.0.0.0.2.0.0.0.1.0.0.0.5"  fill="#000000" id="path18010" d="m 97.303267,38.024657 q 0,0.06921 -0.0055,0.119033 -0.0028,0.04706 -0.01107,0.08305 -0.0083,0.03322 -0.02215,0.05813 -0.01384,0.02491 -0.04429,0.05813 -0.03045,0.03045 -0.119033,0.08028 -0.08581,0.04983 -0.213152,0.09689 -0.12457,0.04429 -0.287894,0.07474 -0.160557,0.03045 -0.348795,0.03045 -0.368173,0 -0.664371,-0.113497 -0.296199,-0.113497 -0.503815,-0.337722 -0.207616,-0.226993 -0.318345,-0.564715 -0.110728,-0.337722 -0.110728,-0.786173 0,-0.456755 0.121801,-0.811086 0.121802,-0.354331 0.34049,-0.595166 0.218689,-0.240834 0.523193,-0.365404 0.307271,-0.12457 0.675444,-0.12457 0.149483,0 0.287894,0.02491 0.13841,0.02491 0.254675,0.06644 0.119034,0.03876 0.213153,0.09135 0.09412,0.0526 0.130106,0.09135 0.03875,0.03599 0.0526,0.0609 0.01384,0.02491 0.02215,0.06367 0.0083,0.03876 0.01107,0.09135 0.0055,0.0526 0.0055,0.130106 0,0.08305 -0.0055,0.141179 -0.0055,0.05813 -0.01938,0.09412 -0.01384,0.03599 -0.03322,0.0526 -0.01938,0.01661 -0.04429,0.01661 -0.04152,0 -0.105192,-0.04706 -0.06367,-0.04983 -0.166093,-0.10796 -0.09966,-0.0609 -0.240834,-0.107961 -0.138411,-0.04983 -0.332186,-0.04983 -0.213152,0 -0.382013,0.08858 -0.166093,0.08582 -0.285126,0.249139 -0.116265,0.160557 -0.177166,0.390318 -0.0609,0.229762 -0.0609,0.517656 0,0.315577 0.06367,0.548106 0.06644,0.229762 0.185471,0.379246 0.121801,0.149483 0.290662,0.224225 0.171629,0.07197 0.384782,0.07197 0.193774,0 0.334953,-0.04429 0.141179,-0.04706 0.240835,-0.102424 0.102424,-0.05536 0.166093,-0.09966 0.06644,-0.04429 0.102423,-0.04429 0.02768,0 0.04429,0.01107 0.01661,0.01107 0.02768,0.04429 0.01107,0.03322 0.01661,0.09412 0.0055,0.05813 0.0055,0.157788 z"/>
                                                        <g transform="matrix(0.75000009,0,0,0.75000009,9.3225403,3.9068264)" >
                                                            <g >
                                                                <g >
                                                                    <path stroke="none" gorn="0.3.7.0.0.0.2.0.0.0.1.0.0.0.6.0.0.0"  fill="#000000" id="path23834" d="m 118.70713,41.443231 -0.10127,0.85347 c 0.0571,0.01594 1.5289,0.0018 1.57773,0.02361 0.18455,0.07874 0.33357,0.189315 0.44922,0.332032 0.11811,0.142716 0.20419,0.311469 0.25586,0.505859 0.0541,0.19439 0.0801,0.404481 0.0801,0.630859 0,0.275591 -0.0303,0.515963 -0.0918,0.722657 -0.059,0.206693 -0.1504,0.381228 -0.27343,0.521484 -0.12058,0.137796 -0.27104,0.241649 -0.45313,0.310547 -0.0401,0.01516 -1.71339,0.04259 -1.75754,0.05441 l 0.16258,0.810262 c 0.0857,-0.01071 0.68917,0.03065 1.11267,0.0084 0.47617,-0.02507 0.77654,-0.114566 0.85729,-0.13866 0.30758,-0.09351 0.56913,-0.238696 0.7832,-0.435547 0.21407,-0.196851 0.37705,-0.45168 0.49024,-0.761719 0.11565,-0.3125 0.17383,-0.687007 0.17383,-1.125 0,-0.378937 -0.0524,-0.712105 -0.15821,-1 -0.1058,-0.287894 -0.26061,-0.530219 -0.46484,-0.724609 -0.20177,-0.196851 -0.45226,-0.342981 -0.75,-0.441406 -0.17034,-0.0582 -0.36243,-0.100375 -0.57617,-0.125 z"/>
                                                                </g>
                                                            </g>
                                                        </g>
                                                        <g transform="matrix(0.75000009,0,0,0.75000009,9.3225403,3.9068264)" >
                                                            <g >
                                                                <g >
                                                                    <path stroke="none" gorn="0.3.7.0.0.0.2.0.0.0.1.0.0.0.7.0.0.0"  fill="#000000" id="path18007" d="m 118.29297,41.4375 c -0.0812,0 -0.15044,0.02501 -0.20703,0.07422 -0.0541,0.04675 -0.0801,0.124153 -0.0801,0.232422 v 4.164062 c 0,0.108271 0.0259,0.187119 0.0801,0.236328 0.0566,0.04676 0.12583,0.06836 0.20703,0.06836 h 0.66797 V 41.4375 Z"/>
                                                                </g>
                                                            </g>
                                                        </g>
                                                        <g transform="matrix(0.75000009,0,0,0.75000009,9.3225403,3.9068264)" >
                                                            <g >
                                                                <g >
                                                                    <path stroke="none" gorn="0.3.7.0.0.0.2.0.0.0.1.0.0.0.8.0.0.0"  fill="#000000" id="path18004" d="m 124.32422,41.416016 c -0.1255,0 -0.22647,0.0029 -0.30274,0.0078 -0.0763,0.0025 -0.13737,0.01063 -0.18164,0.02539 -0.0419,0.0123 -0.0721,0.03153 -0.0918,0.05859 -0.0197,0.02461 -0.036,0.05778 -0.0508,0.09961 l -1.47266,4.238281 c -0.0298,0.08613 -0.0495,0.153407 -0.0566,0.205078 -0.007,0.05167 0.003,0.09352 0.0273,0.123047 0.0246,0.02707 0.0688,0.0434 0.13281,0.05078 0.064,0.0074 0.15244,0.01172 0.26563,0.01172 0.10578,0 0.18991,-0.0029 0.25391,-0.0078 0.0665,-0.0049 0.11794,-0.01309 0.15234,-0.02539 0.0369,-0.01476 0.0614,-0.03254 0.0762,-0.05469 0.0172,-0.02461 0.0311,-0.05539 0.041,-0.08984 L 123.41992,45.125 h 0.77344 l 0.79501,-0.746094 h -1.35556 l 0.67578,-2.029297 h 0.004 l 0.67578,2.029297 h -0.45312 L 123.41992,45.125 h 1.79306 l 0.32227,0.958984 c 0.01,0.03198 0.0223,0.05844 0.0371,0.07813 0.0147,0.01969 0.0393,0.03653 0.0762,0.04883 0.0369,0.0098 0.0913,0.01509 0.16015,0.01758 0.0714,0.0049 0.16943,0.0078 0.29493,0.0078 0.12057,0 0.21431,-0.0043 0.2832,-0.01172 0.0688,-0.0049 0.11742,-0.02032 0.14453,-0.04492 0.0268,-0.02707 0.0364,-0.06552 0.0293,-0.117188 -0.007,-0.05167 -0.0252,-0.122351 -0.0547,-0.210938 l -1.47656,-4.232421 c -0.0148,-0.04676 -0.0326,-0.08426 -0.0547,-0.111329 -0.0196,-0.02707 -0.0543,-0.04629 -0.10352,-0.05859 -0.0467,-0.01474 -0.11308,-0.0229 -0.19921,-0.02539 -0.0861,-0.0049 -0.20249,-0.0078 -0.34766,-0.0078 z"/>
                                                                </g>
                                                            </g>
                                                        </g>
                                                    </g>
                                                </g>
                                            </g>
                                        </g>
                                    </g>
                                </g>
                            </g>
                        </g>
                    </g>
                </g>
            </g>
        </g>
    </g>
</svg>
