<?xml version="1.0" encoding="UTF-8" standalone="no"?>
<svg
   width="16.1mm"
   viewBox="0 0 63.385829 63.431866"
   id="svg8"
   height="16.112mm"
   version="1.1"
   gorn="0"
   xmlns="http://www.w3.org/2000/svg"
   xmlns:svg="http://www.w3.org/2000/svg">
  <defs
     id="defs5">
    <defs
       id="defs8" />
  </defs>
  <g
     id="silkscreen"
     gorn="0.1.0.0.0.0.1"
     transform="translate(-3959.2,-2978.6)">
    <path
       stroke="none"
       fill="#000000"
       id="gge67"
       gorn="0.1.0.0.0.0.1.0"
       d="m 4007.3538,2981.1898 a 0.5,0.5 0 0 0 -0.5,0.5 0.5,0.5 0 0 0 0.5,0.5 h 7.6446 v 4.9473 a 0.5,0.5 0 0 0 0.5,0.5 0.5,0.5 0 0 0 0.5,-0.5 v -5.9473 z" />
    <path
       stroke="none"
       fill="#000000"
       id="path11"
       gorn="0.1.0.0.0.0.1.1"
       d="m 3966.2874,3041.0316 a 0.5,0.5 0 0 0 -0.5,0.5 0.5,0.5 0 0 0 0.5,0.5 h 49.211 a 0.5,0.5 0 0 0 0.5,-0.5 0.5,0.5 0 0 0 -0.5,-0.5 z" />
    <path
       stroke="none"
       fill="#000000"
       id="gge66"
       gorn="0.1.0.0.0.0.1.2"
       d="m 4015.4984,3010.1117 a 0.5,0.5 0 0 0 -0.5,0.5 v 30.9199 a 0.5,0.5 0 0 0 0.5,0.5 0.5,0.5 0 0 0 0.5,-0.5 v -30.9199 a 0.5,0.5 0 0 0 -0.5,-0.5 z" />
    <path
       stroke="none"
       fill="#000000"
       id="gge64"
       gorn="0.1.0.0.0.0.1.3"
       d="m 4007.3538,2981.1898 a 0.5,0.5 0 0 0 -0.5,0.5 0.5,0.5 0 0 0 0.5,0.5 h 3.5391 a 0.5,0.5 0 0 0 0.5,-0.5 0.5,0.5 0 0 0 -0.5,-0.5 z" />
    <path
       stroke="none"
       fill="#000000"
       id="gge63"
       gorn="0.1.0.0.0.0.1.4"
       d="m 3997.512,2981.1898 a 0.5,0.5 0 0 0 -0.5,0.5 0.5,0.5 0 0 0 0.5,0.5 h 4.4786 a 0.5,0.5 0 0 0 0.5,-0.5 0.5,0.5 0 0 0 -0.5,-0.5 z" />
    <path
       stroke="none"
       fill="#000000"
       id="gge62"
       gorn="0.1.0.0.0.0.1.5"
       d="m 3989.637,2981.1898 a 0.5,0.5 0 0 0 -0.5,0.5 0.5,0.5 0 0 0 0.5,0.5 h 2.5118 a 0.5,0.5 0 0 0 0.5,-0.5 0.5,0.5 0 0 0 -0.5,-0.5 z" />
    <path
       stroke="none"
       fill="#000000"
       id="gge61"
       gorn="0.1.0.0.0.0.1.6"
       d="m 3979.7952,2981.1898 a 0.5,0.5 0 0 0 -0.5,0.5 0.5,0.5 0 0 0 0.5,0.5 h 4.4786 a 0.5,0.5 0 0 0 0.5,-0.5 0.5,0.5 0 0 0 -0.5,-0.5 z" />
    <path
       stroke="none"
       fill="#000000"
       id="gge60"
       gorn="0.1.0.0.0.0.1.7"
       d="m 3966.2874,2981.1898 a 0.50005,0.50005 0 0 0 -0.5,0.5 v 5.4473 a 0.5,0.5 0 0 0 0.5,0.5 0.5,0.5 0 0 0 0.5,-0.5 v -4.9473 h 7.6446 a 0.5,0.5 0 0 0 0.5,-0.5 0.5,0.5 0 0 0 -0.5,-0.5 z" />
    <path
       stroke="none"
       fill="#000000"
       id="gge59"
       gorn="0.1.0.0.0.0.1.8"
       d="m 3966.2874,3010.1117 a 0.5,0.5 0 0 0 -0.5,0.5 v 30.9199 a 0.5,0.5 0 0 0 0.5,0.5 0.5,0.5 0 0 0 0.5,-0.5 v -30.9199 a 0.5,0.5 0 0 0 -0.5,-0.5 z" />
  </g>
  <g
     id="copper1"
     gorn="0.1.0.0.0.0.2"
     transform="translate(-3959.2,-2978.6)">
    <path
       stroke="none"
       id="nonconn3"
       fill="#ffc000"
       gorn="0.1.0.0.0.0.2.0"
       d="m 4022.5858,3009.7016 h -8.0708 v -21.6536 h 8.0708 z" />
    <path
       stroke="none"
       id="nonconn2"
       fill="#ffc000"
       gorn="0.1.0.0.0.0.2.1"
       d="M 3967.2708,3009.7016 H 3959.2 v -21.6536 h 8.0708 z" />
    <circle
       stroke="none"
       id="nonconn0"
       fill="#000000"
       cy="3001.8276"
       fill-opacity="1"
       cx="3981.2468"
       r="4.7244096" />
    <circle
       stroke="none"
       id="nonconn1"
       fill="#000000"
       cy="3001.8276"
       fill-opacity="1"
       cx="4000.5388"
       r="4.7244096" />
    <path
       stroke="none"
       fill="#ffc000"
       id="connector5pad"
       gorn="0.1.0.0.0.0.2.4"
       d="m 4006.4441,2990.4102 h -3.5434 v -11.811 h 3.5434 z" />
    <path
       stroke="none"
       fill="#ffc000"
       id="connector4pad"
       gorn="0.1.0.0.0.0.2.5"
       d="m 3996.6016,2990.4102 h -3.5434 v -11.811 h 3.5434 z" />
    <path
       stroke="none"
       id="connector3pad"
       fill="#ffc000"
       gorn="0.1.0.0.0.0.2.6"
       d="m 3988.7276,2990.4102 h -3.5434 v -11.811 h 3.5434 z" />
    <path
       stroke="none"
       id="connector2pad"
       fill="#ffc000"
       gorn="0.1.0.0.0.0.2.7"
       d="m 3978.8851,2990.4102 h -3.5434 v -11.811 h 3.5434 z" />
  </g>
</svg>
