<?xml version='1.0' encoding='UTF-8'?>
<!DOCTYPE svg>
<!-- Creator: CorelDRAW 2018 -->
<svg xmlns="http://www.w3.org/2000/svg" height="11.953mm" fill-rule="evenodd" xml:space="preserve" image-rendering="optimizeQuality" version="1.0" shape-rendering="geometricPrecision" xmlns:xml="http://www.w3.org/XML/1998/namespace" viewBox="0 0 2181.6 1195.3" text-rendering="geometricPrecision" clip-rule="evenodd"  width="21.816mm">
    <desc >
        <referenceFile >logo-taito.svg</referenceFile>
    </desc>
    <g id="copper1" gorn="0.1" >
        <metadata id="CorelCorpID_0Corel-Layer" />
        <g id="_555897680" gorn="0.1.1" >
            <polygon fill="#FFC000" points="321.33,207.09 647.53,269.2 646.68,347.75 527.63,327.49 526.18,552.37 438.56,531.53 442.62,533.06 435.64,308.02 317.48,281.41 " />
            <polygon fill="#FFC000" points="644.1,585.3 746.76,288.15 870.82,312.08 805.89,421.82 724.55,605.23 " />
            <polygon fill="#FFC000" points="746.76,288.15 870.82,312.08 951.55,662.25 856.42,634.69 805.89,421.82 " />
            <polygon fill="#FFC000" points="757.46,446.69 775.58,487.07 852.31,498.92 883.19,575.33 844.2,588.9 742.93,564.49 714.12,546.06 " />
            <polygon fill="#FFC000" points="1143.4,355.83 1143.4,686.75 1084.51,698.57 1073.46,674.75 1073.46,358.95 1073.46,358.95 1142.28,343.5 " />
            <polygon fill="#FFC000" points="1313.1,641.47 1313.1,406.83 1200.71,421.23 1200.71,337.55 1516.25,275.63 1516.25,362.18 1408.7,383.41 1408.7,621.37 1321.96,639.52 " />
            <polygon fill="#FFC000" points="1560.24,389.98 1561.94,363.59 1568.36,335.41 1575.61,316.72 1591.94,288.66 1618.48,259.51 1647.18,239.1 1695.8,220.26 1727.6,216.17 1727.6,322.36 1707.06,325.74 1680.03,339.75 1665.88,355.62 1659.2,370.01 1656.14,386.77 1659.6,413.11 1672.83,437.41 1687.46,450.77 1721.17,462.27 1735.55,461.99 1735.55,562.9 1723.96,563.21 1697.58,560.09 1673.85,553.43 1670.47,549.32 1650.85,543.01 1630.65,529.99 1614.22,516.01 1593.99,492.78 1588.25,484.42 1578.01,466.34 1570.37,448.28 1564.58,428.34 1561.41,409.16 " />
            <polygon fill="#FFC000" points="1685.33,222.35 1701.94,218.63 1715.49,216.81 1731.13,216.06 1743.08,216.46 1758.92,218.37 1771.96,221.16 1782.45,224.26 1801.19,231.83 1813.41,238.33 1829.24,248.86 1840.57,258.14 1849.21,266.37 1861.8,280.69 1875.53,300.71 1885.92,321.17 1893.71,343.31 1897.62,361.1 1899.46,376.29 1899.93,397.63 1897.19,422.53 1891.57,444.63 1884.96,461.68 1874.14,481.92 1861.52,499.58 1843.76,518.38 1830.93,529.02 1828.84,531.66 1813.62,540.5 1787.88,552.71 1759.44,560.55 1729.26,563.32 1694.79,559.93 1664.49,550.56 1663.48,549.2 1698.82,457.77 1721.1,462.38 1742.22,460.6 1763.93,452.28 1786.07,431.95 1795.1,415.12 1798.92,398.7 1797.83,378.53 1788.42,355.66 1776.16,341.47 1759.74,330.23 1746.91,325.18 1729.9,322.41 1705.01,325.73 1688.92,332.45 " />
            <polygon fill="#FFC000" points="105.72,88.35 1084.79,274.36 2081.72,94.1 2049.33,138.65 1084.79,300.7 129.69,119.05 " />
            <polygon fill="#FFC000" points="199.46,537.97 216.52,513.49 1084.79,748.29 1953.54,525.4 1989.41,522.4 1986.19,535.78 1084.79,771.47 " />
            <polygon fill="#FFC000" points="2081.72,94.1 1987.8,529.09 1953.54,525.4 2044.72,139.2 " />
            <polygon fill="#FFC000" points="101.55,99.2 199.46,537.97 216.52,513.49 129.69,119.05 " />
            <polygon fill="#FFC000" points="105.72,88.35 101.55,99.2 124.96,120.87 139.83,112.33 123.78,97.15 122.61,96.72 " />
            <polygon fill="#FFC000" points="24.05,23.06 58.38,53.96 1084.79,250.42 2117.42,65.68 1914.48,60.77 1085.72,222.21 261.28,52.43 " />
            <polygon fill="#FFC000" points="24.05,23.06 2154.42,23.06 2125.79,65.68 1925.27,65.57 1914.48,60.77 261.28,60.77 " />
            <polygon fill="#FFC000" points="2117.42,65.68 2002.82,569.3 1081.85,802.83 172.26,556.46 144.43,581.54 1089.24,835.73 2029.14,598.66 2154.42,23.19 " />
            <polygon fill="#FFC000" points="24.05,23.06 144.43,581.54 172.26,556.46 67.12,55.41 " />
            <polygon fill="#FFC000" points="1026.18,355.83 1026.18,686.75 1085.8,697.9 1090.28,674.75 1090.28,358.95 1090.28,358.95 1026.18,343.22 " />
        </g>
    </g>
    <g id="silkscreen" gorn="0.2" >
        <metadata id="CorelCorpID_1Corel-Layer" />
        <g id="_555888848" gorn="0.2.1" >
            <polygon fill="black" points="300.76,60.77 1913.48,60.77 1084.72,222.21 " />
            <polygon fill="black" points="66.12,55.41 1083.79,250.42 2116.42,65.68 2091.92,92.05 1083.79,274.36 102.64,93.77 " />
            <polygon fill="black" points="66.12,55.41 171.26,556.46 1080.85,802.83 2001.82,569.3 2116.42,65.68 2112.66,68.19 2080.72,94.1 1985.19,535.78 1083.79,771.47 198.46,537.97 100.55,99.2 118.57,81.16 " />
            <polygon fill="black" points="1655.14,386.77 1658.6,413.11 1657.69,413.69 1671.83,437.41 1684.13,448.64 1720.1,462.38 1721.58,462.84 1741.22,460.6 1744.79,460.92 1762.93,452.28 1785.07,431.95 1794.11,415.12 1797.92,398.7 1796.83,378.53 1787.42,355.66 1776.71,343.26 1758.74,330.23 1758.99,329.86 1745.91,325.18 1728.91,322.41 1706.06,325.74 1679.03,339.75 1666.02,354.34 1658.2,370.01 " />
            <polygon fill="black" points="774.58,487.07 804.89,421.82 822.12,494.41 " />
            <polygon fill="black" points="646.53,269.2 656.01,219.34 128.69,119.05 215.52,513.49 532.5,599.21 544.7,551.59 524.91,553.09 441.62,533.06 442.13,523.52 434.64,308.02 316.48,281.41 320.33,207.09 " />
            <polygon fill="black" points="1714.49,216.81 1710.88,195.34 1083.79,300.7 1083.79,300.7 606.24,209.87 582.1,256.93 646.53,269.2 745.76,288.15 869.82,312.08 1035.08,345.9 1083.79,358.95 1141.46,343.5 1199.71,337.55 1515.26,275.63 1590.94,288.66 1610.59,267.08 1623.75,255.06 1640.13,243.4 1659.45,233.96 1670.49,229.68 1700.94,218.63 " />
            <polygon fill="black" points="646.53,269.2 645.68,347.75 526.63,327.49 525.18,552.37 532.5,599.21 1083.79,748.29 1092.8,700.04 1035.08,684.58 950.55,662.25 855.42,634.69 843.21,588.9 741.94,564.49 723.55,605.23 643.1,585.3 754.06,269.25 745.19,267.77 " />
            <polygon fill="black" points="859.02,294.38 869.82,312.08 870.85,316.55 950.55,662.25 950.68,677.27 1037.9,705.36 1025.18,686.75 1026.12,343.5 " />
            <polygon fill="black" points="1083.79,358.95 1141.46,343.5 1142.4,686.75 1083.79,697.63 1069.57,744.44 1083.79,748.29 1418.18,662.5 1407.7,621.37 1312.1,641.47 1314.35,635.88 1312.1,406.83 1199.71,421.23 1199.71,337.55 1218.26,306.21 1060.07,320.99 " />
            <polygon fill="black" points="1462.18,263.33 1515.26,275.63 1610.59,267.08 1590.94,288.66 1570.99,326.07 1560.94,363.59 1559.97,378.64 1560.41,409.16 1569.37,448.28 1582.13,475.38 1613.22,516.01 1629.65,529.99 1663.49,550.56 1702.4,560.78 1734.55,562.9 1772.66,556.63 1776.25,570.63 1381.72,671.85 1372.66,628.74 1407.7,621.37 1407.7,383.41 1515.26,362.18 1515.26,275.63 1470.28,265.21 " />
            <polygon fill="black" points="1638.89,207.44 1667.97,202.55 2043.72,139.2 1952.54,525.4 1753.68,576.42 1752.27,561.12 1772.66,556.63 1799.75,546.6 1820.23,536.08 1829.93,529.02 1842.76,518.38 1866.83,490.75 1878.55,471.8 1883.96,461.68 1893.38,433.58 1898.93,397.63 1896.62,361.1 1892.71,343.31 1884.92,321.17 1874.53,300.71 1860.8,280.69 1848.21,266.37 1833.91,253.5 1820.33,243.59 1790.82,228.04 1757.92,218.37 1726.6,216.17 1685.72,224.15 1646.18,239.1 1649.93,210.11 " />
            <polygon fill="black" points="23.05,0.01 2153.04,0.01 2153.04,23.06 23.05,23.06 " />
            <polygon fill="black" points="-0,0.01 2178.47,0.01 2153.04,23.06 0.52,27.92 " />
            <polygon fill="black" points="23.05,23.06 148.9,606.88 124,600.9 0.52,27.92 " />
            <polygon fill="black" points="143.43,581.54 1093.42,837.08 1080.85,861.46 137.44,603.8 " />
            <polygon fill="black" points="1088.24,835.73 2053.05,592.38 2047.94,617.49 1080.85,861.46 " />
            <polygon fill="black" points="2028.14,598.66 2155.02,2.2 2178.47,0.01 2050.69,603.46 " />
        </g>
        <g id="_555887264" gorn="0.2.2" >
            <polygon fill="black" fill-rule="nonzero" points="1995.12,1190.29 1995.12,891.6 2034.75,891.6 2034.75,1155.25 2181.6,1155.25 2181.6,1190.29 " />
            <polygon fill="black" fill-rule="nonzero" points="1887.56,1190.29 1887.56,891.6 1927.19,891.6 1927.19,1190.29 " />
            <path fill="black" d="M1589.7 1094.35l37.12 -3.34c1.74,15.01 5.84,27.32 12.31,36.98 6.47,9.6 16.48,17.39 30.04,23.37 13.55,5.91 28.85,8.9 45.82,8.9 15.08,0 28.36,-2.23 39.91,-6.75 11.54,-4.52 20.09,-10.7 25.72,-18.56 5.63,-7.86 8.49,-16.41 8.49,-25.59 0,-9.31 -2.72,-17.45 -8.14,-24.47 -5.42,-6.96 -14.39,-12.8 -26.91,-17.59 -7.99,-3.06 -25.73,-7.93 -53.19,-14.53 -27.46,-6.61 -46.65,-12.8 -57.64,-18.64 -14.25,-7.51 -24.82,-16.83 -31.78,-27.88 -7.02,-11.05 -10.49,-23.5 -10.49,-37.2 0,-15.15 4.31,-29.27 12.86,-42.34 8.55,-13.14 21,-23.08 37.48,-29.9 16.4,-6.81 34.69,-10.22 54.79,-10.22 22.11,0 41.64,3.55 58.54,10.71 16.89,7.09 29.9,17.59 39.01,31.5 9.1,13.83 13.97,29.55 14.67,47.07l-37.96 2.92c-2.02,-18.84 -8.91,-33.1 -20.66,-42.69 -11.74,-9.67 -29.13,-14.47 -52.07,-14.47 -23.92,0 -41.37,4.38 -52.29,13.14 -10.92,8.76 -16.41,19.33 -16.41,31.71 0,10.71 3.9,19.54 11.61,26.49 7.65,6.89 27.47,14.05 59.59,21.28 32.12,7.3 54.16,13.62 66.12,19.05 17.32,7.99 30.18,18.08 38.45,30.38 8.28,12.24 12.38,26.35 12.38,42.34 0,15.93 -4.52,30.81 -13.63,44.85 -9.11,14.04 -22.11,24.96 -39.14,32.75 -17.04,7.79 -36.16,11.68 -57.51,11.68 -26.97,0 -49.57,-3.96 -67.78,-11.82 -18.29,-7.85 -32.55,-19.67 -42.91,-35.53 -10.43,-15.78 -15.85,-33.65 -16.4,-53.6z" fill-rule="nonzero" />
            <polygon fill="black" fill-rule="nonzero" points="1345.24,1067.65 1479.35,1067.65 1424.96,929.49 1443.64,891.6 1449.66,891.6 1571.27,1190.29 1526.28,1190.29 1491.73,1099.77 1348.92,1099.77 " />
            <polygon fill="black" fill-rule="nonzero" points="1323.67,1106.75 1405.64,893.07 1431.45,921.48 1360.2,1115.82 " />
            <polygon fill="black" fill-rule="nonzero" points="1291.62,1190.29 1326.35,1099.77 1365.95,1099.77 1333.55,1190.29 " />
            <polygon fill="black" fill-rule="nonzero" points="1063.56,973.04 1063.56,1190.29 1023.93,1190.29 1023.93,891.6 1063.56,891.6 " />
            <path fill="black" d="M1023.93 1023.42l82.05 0 42.41 0c18.08,0 32.12,-1.87 42.27,-5.63 10.16,-3.68 17.87,-9.66 23.08,-17.93 5.29,-8.21 7.93,-17.11 7.93,-26.77 0,-14.12 -5.08,-25.8 -15.3,-34.91 -10.22,-9.1 -26.35,-13.63 -48.39,-13.63l-134.05 0 0 -32.95 132.38 0c26.63,0 46.87,2.71 60.7,8.06 13.84,5.35 24.89,14.81 33.17,28.37 8.27,13.56 12.37,28.58 12.37,44.99 0,21.21 -6.88,39.07 -20.58,53.6 -13.69,14.54 -34.83,23.71 -63.48,27.68 10.5,5 18.43,10.01 23.85,14.87 11.54,10.57 22.46,23.85 32.68,39.78l51.66 81.34 -49.36 0 -39.5 -62.15c-11.47,-18.01 -21,-31.71 -28.44,-41.23 -7.5,-9.53 -14.18,-16.14 -20.09,-19.96 -5.84,-3.75 -11.86,-6.51 -18.01,-7.93 -4.42,-1.01 -11.75,-1.39 -21.97,-1.39l-85.38 0 0 -34.21z" fill-rule="nonzero" />
            <polygon fill="black" fill-rule="nonzero" points="782.6,1190.29 743.17,1190.29 743.17,891.6 782.6,891.6 " />
            <path fill="black" d="M760.17 1155.25l97.03 0c12.79,0 21.76,-0.52 26.97,-1.46 9.04,-1.62 16.69,-4.31 22.81,-8.13 6.12,-3.83 11.12,-9.39 15.09,-16.69 3.96,-7.3 5.91,-15.71 5.91,-25.24 0,-11.19 -2.85,-20.86 -8.63,-29.13 -5.7,-8.27 -13.62,-14.04 -23.77,-17.39 -10.09,-3.33 -24.69,-5 -43.67,-5l-45.97 0 -42.71 0 0.51 -35.04 83.65 0c17.52,0 30.1,-1.21 37.69,-3.48 10.07,-3.01 17.66,-7.99 22.73,-14.95 5.08,-6.95 7.65,-15.64 7.65,-26.14 0,-9.94 -2.36,-18.7 -7.16,-26.21 -4.73,-7.58 -11.54,-12.8 -20.37,-15.58 -8.83,-2.78 -23.99,-4.17 -45.4,-4.17l-88.48 0 8.84 -35.04 92.36 0c22.8,0 41.1,2.98 54.93,9.04 13.77,6.03 24.54,15.36 32.33,27.95 7.86,12.51 11.75,25.66 11.75,39.42 0,12.72 -3.47,24.75 -10.36,36.02 -6.88,11.26 -17.31,20.37 -31.29,27.32 18.08,5.28 31.99,14.33 41.65,27.12 9.74,12.72 14.6,27.81 14.6,45.19 0,14.05 -2.99,27.05 -8.9,39.08 -5.91,12.02 -13.21,21.27 -21.9,27.81 -8.69,6.47 -19.61,11.41 -32.68,14.74 -13.14,3.34 -29.21,5 -48.25,5l-91.86 0 -5.1 -35.04z" fill-rule="nonzero" />
            <path fill="black" d="M445.18 886.87c23.73,1.39 45.32,7.89 64.86,19.47 22.1,13.14 39,31.49 50.61,55.07 11.62,23.5 17.46,50.19 17.46,80.02 0,30.25 -6.12,57.37 -18.36,81.21 -12.24,23.92 -29.55,42 -51.94,54.24 -19.55,10.71 -40.43,16.73 -62.63,18.11l0 -33.9c25.2,-2.15 46.24,-12.44 63.26,-30.87 19.19,-20.86 28.78,-50.48 28.78,-88.86 0,-24.26 -4.1,-45.47 -12.3,-63.55 -8.21,-18.08 -20.24,-32.12 -36.02,-42.06 -13.25,-8.31 -27.81,-13.17 -43.72,-14.55l0 -34.33z" fill-rule="nonzero" />
            <path fill="black" d="M292.34 1044.91c0,-49.51 13.35,-88.3 39.98,-116.32 23.89,-25.14 53.99,-38.97 90.35,-41.55l0 34.48c-22.49,2.56 -42.23,11.91 -59.2,28.06 -20.16,19.2 -30.25,51.18 -30.25,96.03 0,35.94 9.67,64.24 29,84.89 16.54,17.67 36.69,27.8 60.45,30.36l0 33.97c-23.12,-1.74 -44.05,-8.39 -62.89,-19.9 -22.11,-13.56 -38.93,-32.06 -50.34,-55.55 -11.4,-23.44 -17.1,-48.26 -17.1,-74.47z" fill-rule="nonzero" />
            <polygon fill="black" fill-rule="nonzero" points="3.16,1155.49 3.16,909.63 42.8,913.88 42.8,1155.25 " />
            <path fill="black" d="M3.16 1190.29l0 -41.89 39.64 0 0 6.85 63.69 0c19.67,0 35.11,-1.81 46.3,-5.49 11.19,-3.69 20.1,-8.83 26.77,-15.51 9.32,-9.38 16.62,-22.04 21.83,-37.89 5.22,-15.85 7.86,-35.04 7.86,-57.64 0,-31.28 -5.14,-55.34 -15.37,-72.17 -10.22,-16.83 -22.66,-28.09 -37.33,-33.79 -10.57,-4.1 -27.61,-6.12 -51.11,-6.12l-62.64 0 0 1.04 -39.64 0 0 -36.08 102.91 0c23.22,0 40.95,1.39 53.19,4.24 17.1,3.97 31.7,11.12 43.8,21.41 15.78,13.36 27.53,30.32 35.32,51.04 7.86,20.72 11.75,44.43 11.75,71.06 0,22.66 -2.64,42.76 -7.92,60.28 -5.29,17.52 -12.1,32.05 -20.38,43.53 -8.34,11.47 -17.38,20.5 -27.25,27.04 -9.8,6.6 -21.69,11.61 -35.6,15.02 -13.98,3.4 -29.97,5.07 -48.04,5.07l-107.78 0z" fill-rule="nonzero" />
            <polygon fill="black" points="413.01,887.04 451.76,887.04 451.76,921.2 413.01,921.2 " />
            <polygon fill="black" points="418.11,1160.6 456.85,1160.6 456.85,1194.77 418.11,1194.77 " />
            <polygon fill="black" points="1405.64,891.6 1446.92,891.6 1446.92,934.83 1405.64,934.83 " />
        </g>
    </g>
</svg>
