<?xml version='1.0' encoding='UTF-8' standalone='no'?>
<svg xmlns="http://www.w3.org/2000/svg" id="svg31"  viewBox="0 0 21.204319 21.204351" version="1.1" height="5.3860002mm" width="5.3860002mm" gorn="0">
    <desc >
        <referenceFile >ht7333-a.svg</referenceFile>
    </desc>
    <g transform="translate(-4027.3,-3024.5)" >
        <g >
            <g >
                <g >
                    <g >
                        <defs id="defs35" />
                        <g transform="translate(-9.9540275,-14.897307)" >
                            <g >
                                <g >
                                    <g >
                                        <g id="silkscreen"  gorn="0.1.0.0.0.0.1.0.0.0.0">
                                            <path stroke="#000000" id="gge43" fill="none" d="m 4052.7657,3040.8413 h -10.4424 v 4.5229" style="stroke-linecap:round"  gorn="0.1.0.0.0.0.1.0.0.0.0.0" stroke-width="0.6"/>
                                            <path stroke="#000000" id="gge46" fill="none" d="m 4052.7657,3059.1577 h -10.4424 v -4.5229" style="stroke-linecap:round"  gorn="0.1.0.0.0.0.1.0.0.0.0.1" stroke-width="0.6"/>
                                        </g>
                                    </g>
                                </g>
                            </g>
                        </g>
                        <g transform="translate(-9.9540189,-14.897324)" >
                            <g >
                                <g >
                                    <g >
                                        <g id="copper1" style="fill:#ffc000;fill-opacity:1"  gorn="0.1.0.0.0.0.2.0.0.0.0">
                                            <path stroke="#000000" id="connector0pad" d="m 4052.2394,3057.2278 h 6.2008 v -2.6456 h -6.2008 z"  gorn="0.1.0.0.0.0.2.0.0.0.0.0" stroke-width="0"/>
                                            <path stroke="#000000" id="connector1pad" d="m 4051.5204,3048.0802 0.087,0.1526 0.079,0.1564 0.072,0.3122 h 6.6824 v 2.5984 h -6.6824 l -0.072,0.3124 -0.079,0.1564 -0.087,0.1526 -0.093,0.1483 -0.1004,0.1438 -0.107,0.1389 -0.1134,0.1337 -0.1196,0.1283 -0.1254,0.1225 -0.1311,0.1166 -0.1363,0.1102 -0.1414,0.1037 -0.1461,0.097 -0.1505,0.09 -0.1545,0.083 -0.1583,0.075 -0.1616,0.068 -0.1646,0.06 -0.1673,0.053 -0.1695,0.045 -0.1715,0.037 -0.173,0.029 -0.1742,0.021 -0.1749,0.012 -0.1753,0 h -7.3 l -0.1753,-0 -0.1749,-0.012 -0.1742,-0.021 -0.173,-0.029 -0.1715,-0.037 -0.1695,-0.045 -0.1673,-0.053 -0.1646,-0.06 -0.1616,-0.068 -0.1583,-0.075 -0.1545,-0.083 -0.1505,-0.09 -0.1461,-0.097 -0.1414,-0.1037 -0.1363,-0.1102 -0.1311,-0.1166 -0.1254,-0.1225 -0.1196,-0.1283 -0.1134,-0.1337 -0.107,-0.1389 -0.1004,-0.1438 -0.094,-0.1483 -0.086,-0.1526 -0.079,-0.1564 -0.072,-0.16 -0.064,-0.1631 -0.056,-0.166 -0.049,-0.1685 -0.041,-0.1706 -0.033,-0.1722 -0.025,-0.1737 -0.016,-0.1746 -0.01,-0.1751 v -0.1754 l 0.01,-0.1751 0.016,-0.1746 0.025,-0.1737 0.033,-0.1722 0.041,-0.1706 0.049,-0.1685 0.056,-0.166 0.064,-0.1631 0.072,-0.16 0.079,-0.1564 0.086,-0.1526 0.094,-0.1483 0.1004,-0.1438 0.107,-0.1389 0.1134,-0.1337 0.1196,-0.1283 0.1254,-0.1225 0.1311,-0.1166 0.1363,-0.1102 0.1414,-0.1037 0.1461,-0.097 0.1505,-0.09 0.1545,-0.083 0.1583,-0.076 0.1616,-0.068 0.1646,-0.06 0.1673,-0.053 0.1695,-0.045 0.1715,-0.037 0.173,-0.029 0.1742,-0.021 0.1749,-0.012 0.1753,-0 h 7.3 l 0.1753,0 0.1749,0.012 0.1742,0.021 0.173,0.029 0.1715,0.037 0.1695,0.045 0.1673,0.053 0.1646,0.06 0.1616,0.068 0.1583,0.076 0.1545,0.083 0.1505,0.09 0.1461,0.097 0.1414,0.1037 0.1363,0.1102 0.1311,0.1166 0.1254,0.1225 0.1196,0.1283 0.1134,0.1337 0.107,0.1389 0.1004,0.1438 z"  gorn="0.1.0.0.0.0.2.0.0.0.0.1" stroke-width="0"/>
                                            <path stroke="#000000" id="connector2pad" d="m 4052.2394,3045.4168 h 6.2008 v -2.6456 h -6.2008 z"  gorn="0.1.0.0.0.0.2.0.0.0.0.2" stroke-width="0"/>
                                        </g>
                                    </g>
                                </g>
                            </g>
                        </g>
                    </g>
                </g>
            </g>
        </g>
    </g>
</svg>
