<?xml version="1.0" encoding="UTF-8" standalone="no"?>
<svg
   height="10.898mm"
   id="svg259"
   version="1.1"
   gorn="0"
   viewBox="0 0 385.25858 41.18929"
   width="101.933mm"
   xmlns="http://www.w3.org/2000/svg"
   xmlns:svg="http://www.w3.org/2000/svg">
  <desc
     id="desc1">
    <referenceFile>SNES-Cart-Edge.svg</referenceFile>
  </desc>
  <defs
     id="defs259" />
  <g
     id="copper1"
     style="display:inline">
    <path
       fill="#ffff00"
       id="connector31pin"
       stroke="none"
       d="m 355.86328,0 v 0.3984375 h -0.0312 V 18.613281 36.357422 h -2.4082 -2.40625 V 18.613281 0.3984375 h -0.0606 V 0 Z"
       gorn="0.3.0"
       stroke-width="0" />
    <path
       fill="#ffff00"
       id="connector32pin"
       stroke="none"
       d="m 346.42578,0 v 0.3984375 h -0.11133 V 18.613281 36.357422 h -2.4082 -2.38672 V 0 Z"
       gorn="0.3.1"
       stroke-width="0" />
    <path
       fill="#ffff00"
       id="connector33pin"
       stroke="none"
       d="m 336.98828,0 v 0.3984375 h -0.19336 v 18.2304685 17.75 l -2.31055,-0.09375 -2.33007,-0.09375 -0.0723,-14.208984 V 0 Z"
       gorn="0.3.2"
       stroke-width="0" />
    <path
       fill="#ffff00"
       id="connector34pin"
       stroke="none"
       d="m 327.54883,0 v 36.357422 h -2.32813 -2.4082 V 18.613281 0.3984375 h -0.16992 V 0 Z"
       gorn="0.3.3"
       stroke-width="0" />
    <path
       fill="#ffff00"
       id="connector35pin"
       stroke="none"
       d="m 300.43053,0 v 0.3984375 h -0.0586 V 18.4375 36.005859 h -3.28905 -3.28906 V 18.4375 0.3984375 h -0.1582 V 0 Z"
       gorn="0.3.4"
       stroke-width="0" />
    <path
       fill="#ffff00"
       id="connector36pin"
       stroke="none"
       d="m 289.10241,0 v 0.3984375 h -0.0117 V 18.4375 36.005859 h -2.4082 -2.40626 V 18.4375 0.3984375 h -0.0801 V 0 Z"
       gorn="0.3.5"
       stroke-width="0" />
    <path
       fill="#ffff00"
       id="connector37pin"
       stroke="none"
       d="m 279.66491,0 v 0.3984375 h -0.0918 V 18.4375 36.005859 h -2.4082 -2.40625 V 0 Z"
       gorn="0.3.6"
       stroke-width="0" />
    <path
       fill="#ffff00"
       id="connector38pin"
       stroke="none"
       d="m 270.22155,0 v 0.3984375 h -0.16797 V 18.4375 36.005859 h -2.40821 -2.33007 V 0 Z"
       gorn="0.3.7"
       stroke-width="0" />
    <path
       fill="#ffff00"
       id="connector39pin"
       stroke="none"
       d="m 260.78405,0 v 36.005859 h -2.30469 -2.4082 V 18.613281 0.75 H 255.8778 V 0 Z"
       gorn="0.3.8"
       stroke-width="0" />
    <path
       fill="#ffff00"
       id="connector40pin"
       stroke="none"
       d="m 251.34459,0 v 36.005859 h -2.38476 -2.40625 V 18.613281 0.75 h -0.11524 V 0 Z"
       gorn="0.3.9"
       stroke-width="0" />
    <path
       fill="#ffff00"
       id="connector41pin"
       stroke="none"
       d="m 241.90709,0 v 0.75 h -0.0566 v 17.863281 17.392578 h -2.4082 -2.4082 V 18.613281 0.75 h -0.0332 V 0 Z"
       gorn="0.3.10"
       stroke-width="0" />
    <path
       fill="#ffff00"
       id="connector42pin"
       stroke="none"
       d="m 232.46959,0 v 0.75 h -0.13867 v 17.863281 17.392578 h -2.4082 -2.35938 V 0 Z"
       gorn="0.3.11"
       stroke-width="0" />
    <path
       fill="#ffff00"
       id="connector43pin"
       stroke="none"
       d="m 223.03014,0 v 0.75 h -0.21875 v 17.863281 17.392578 h -2.23047 -2.23242 V 18.613281 0.75 h -0.22461 V 0 Z"
       gorn="0.3.12"
       stroke-width="0" />
    <path
       fill="#ffff00"
       id="connector44pin"
       stroke="none"
       d="m 213.58678,0 v 36.005859 h -2.34961 -2.4082 V 18.613281 0.75 h -0.14844 V 0 Z"
       gorn="0.3.13"
       stroke-width="0" />
    <path
       fill="#ffff00"
       id="connector45pin"
       stroke="none"
       d="m 204.14928,0 v 0.75 h -0.0234 v 17.863281 17.392578 h -2.40625 -2.4082 V 18.613281 0.75 h -0.0684 V 0 Z"
       gorn="0.3.14"
       stroke-width="0" />
    <path
       fill="#ffff00"
       id="connector46pin"
       stroke="none"
       d="m 194.71178,0 v 0.75 h -0.10351 v 17.863281 17.392578 h -2.40821 -2.39648 V 0 Z"
       gorn="0.3.15"
       stroke-width="0" />
    <path
       fill="#ffff00"
       id="connector47pin"
       stroke="none"
       d="m 185.27233,0 v 0.75 h -0.1836 v 17.863281 17.392578 h -2.4082 -2.31445 V 0 Z"
       gorn="0.3.16"
       stroke-width="0" />
    <path
       fill="#ffff00"
       id="connector48pin"
       stroke="none"
       d="m 175.83483,0 v 36.005859 h -2.32031 -2.40821 V 18.613281 0.75 h -0.17773 V 0 Z"
       gorn="0.3.17"
       stroke-width="0" />
    <path
       fill="#ffff00"
       id="connector49pin"
       stroke="none"
       d="m 166.39147,0 v 36.005859 h -2.39453 -2.40821 V 18.613281 0.75 h -0.10351 V 0 Z"
       gorn="0.3.18"
       stroke-width="0" />
    <path
       fill="#ffff00"
       id="connector50pin"
       stroke="none"
       d="m 156.95202,0 v 0.75 h -0.0664 v 17.863281 17.392578 h -2.4082 -2.40821 V 18.613281 0.75 h -0.0234 V 0 Z"
       gorn="0.3.19"
       stroke-width="0" />
    <path
       fill="#ffff00"
       id="connector51pin"
       stroke="none"
       d="m 147.51452,0 v 0.75 h -0.14844 v 17.863281 17.392578 h -2.4082 -2.34961 V 0 Z"
       gorn="0.3.20"
       stroke-width="0" />
    <path
       fill="#ffff00"
       id="connector52pin"
       stroke="none"
       d="m 138.07702,0 v 0.75 h -0.23047 v 17.863281 17.392578 h -2.23047 -2.23242 V 18.613281 0.75 h -0.21289 V 0 Z"
       gorn="0.3.21"
       stroke-width="0" />
    <path
       fill="#ffff00"
       id="connector53pin"
       stroke="none"
       d="m 128.63756,0 v 36.005859 h -2.36523 -2.40625 V 18.613281 0.75 h -0.13477 V 0 Z"
       gorn="0.3.22"
       stroke-width="0" />
    <path
       fill="#ffff00"
       id="connector54pin"
       stroke="none"
       d="m 119.20006,0 v 0.75 h -0.0371 v 17.863281 17.392578 h -2.4082 -2.4082 V 18.613281 0.75 h -0.0527 V 0 Z"
       gorn="0.3.23"
       stroke-width="0" />
    <path
       fill="#ffff00"
       id="connector55pin"
       stroke="none"
       d="m 109.7567,0 v 0.75 h -0.11328 v 17.863281 17.392578 h -2.4082 -2.38477 V 0 Z"
       gorn="0.3.24"
       stroke-width="0" />
    <path
       fill="#ffff00"
       id="connector56pin"
       stroke="none"
       d="m 100.3192,0 v 0.75 h -0.19531 v 17.863281 17.392578 h -2.408193 -2.30274 V 0 Z"
       gorn="0.3.25"
       stroke-width="0" />
    <path
       fill="#ffff00"
       id="connector57pin"
       stroke="none"
       d="m 90.879757,0 v 36.005859 h -3.38672 -3.4082 V 0 Z"
       gorn="0.3.26"
       stroke-width="0" />
    <path
       fill="#ffff00"
       id="connector58pin"
       stroke="none"
       d="m 63.218754,0 v 0.75 h -0.002 v 18.041016 17.566406 h -2.4082 -2.4082 V 18.791016 0.75 h -0.0899 V 0 Z"
       gorn="0.3.27"
       stroke-width="0" />
    <path
       fill="#ffff00"
       id="connector59pin"
       stroke="none"
       d="m 53.779294,0 v 0.75 h -0.082 v 18.041016 17.566406 h -2.4082 -2.40821 V 18.966797 1.1035156 h -0.008 V 0 Z"
       gorn="0.3.28"
       stroke-width="0" />
    <path
       fill="#ffff00"
       id="connector60pin"
       stroke="none"
       d="m 44.341794,0 v 1.1035156 h -0.16406 V 18.966797 36.357422 h -2.40625 -2.33594 V 0 Z"
       gorn="0.3.29"
       stroke-width="0" />
    <path
       fill="#ffff00"
       id="connector61pin"
       stroke="none"
       d="m 34.902344,0 v 1.1035156 h -0.24219 V 18.966797 36.357422 h -2.23242 -2.23047 V 18.966797 1.1035156 h -0.20117 V 0 Z"
       gorn="0.3.30"
       stroke-width="0" />
  </g>
  <g
     id="copper0"
     style="display:inline">
    <path
       fill="#ffc000"
       id="connector0pin"
       stroke="none"
       d="m 355.86328,2.5e-7 v 0.398437 h -0.0312 V 18.613281 36.357422 h -2.4082 -2.40625 V 18.613281 0.39843725 h -0.0606 V 2.5e-7 Z"
       gorn="0.2.0"
       stroke-width="0" />
    <path
       fill="#ffc000"
       id="connector1pin"
       stroke="none"
       d="m 346.42578,2.5e-7 v 0.398437 h -0.11133 V 18.613281 36.357422 h -2.4082 -2.38672 V 2.5e-7 Z"
       gorn="0.2.1"
       stroke-width="0" />
    <path
       fill="#ffc000"
       id="connector2pin"
       stroke="none"
       d="m 336.98828,2.5e-7 v 0.398437 h -0.19336 v 18.23046875 17.75 l -2.31055,-0.09375 -2.33007,-0.09375 -0.0723,-14.208984 V 2.5e-7 Z"
       gorn="0.2.2"
       stroke-width="0" />
    <path
       fill="#ffc000"
       id="connector3pin"
       stroke="none"
       d="M 327.54883,2.5e-7 V 36.357422 h -2.32813 -2.4082 V 18.613281 0.39843725 h -0.16992 V 2.5e-7 Z"
       gorn="0.2.3"
       stroke-width="0" />
    <path
       fill="#ffc000"
       id="connector4pin"
       stroke="none"
       d="m 300.42968,0.09627719 v 0.398437 h -0.0586 V 18.533777 36.102136 h -3.28905 -3.28906 V 18.533777 0.49471419 h -0.1582 v -0.398437 z"
       gorn="0.2.4"
       stroke-width="0" />
    <path
       fill="#ffc000"
       id="connector5pin"
       stroke="none"
       d="m 289.10156,0.09627719 v 0.398437 h -0.0117 V 18.533777 36.102136 h -2.4082 -2.40626 V 18.533777 0.49471419 h -0.0801 v -0.398437 z"
       gorn="0.2.5"
       stroke-width="0" />
    <path
       fill="#ffc000"
       id="connector6pin"
       stroke="none"
       d="m 279.66406,0.09627719 v 0.398437 h -0.0918 V 18.533777 36.102136 h -2.4082 -2.40625 V 0.09627719 Z"
       gorn="0.2.6"
       stroke-width="0" />
    <path
       fill="#ffc000"
       id="connector7pin"
       stroke="none"
       d="m 270.2207,0.09627719 v 0.398437 h -0.16797 V 18.533777 36.102136 h -2.40821 -2.33007 V 0.09627719 Z"
       gorn="0.2.7"
       stroke-width="0" />
    <path
       fill="#ffc000"
       id="connector8pin"
       stroke="none"
       d="M 260.7832,0.09627719 V 36.102136 h -2.30469 -2.4082 V 18.709558 0.84627715 h -0.19336 V 0.09627719 Z"
       gorn="0.2.8"
       stroke-width="0" />
    <path
       fill="#ffc000"
       id="connector9pin"
       stroke="none"
       d="M 251.34374,0.09627719 V 36.102136 h -2.38476 -2.40625 V 18.709558 0.84627715 h -0.11524 V 0.09627719 Z"
       gorn="0.2.9"
       stroke-width="0" />
    <path
       fill="#ffc000"
       id="connector10pin"
       stroke="none"
       d="m 241.90624,0.09627719 v 0.74999996 h -0.0566 V 18.709558 36.102136 h -2.4082 -2.4082 V 18.709558 0.84627715 h -0.0332 V 0.09627719 Z"
       gorn="0.2.10"
       stroke-width="0" />
    <path
       fill="#ffc000"
       id="connector11pin"
       stroke="none"
       d="m 232.46874,0.09627719 v 0.74999996 h -0.13867 V 18.709558 36.102136 h -2.4082 -2.35938 V 0.09627719 Z"
       gorn="0.2.11"
       stroke-width="0" />
    <path
       fill="#ffc000"
       id="connector12pin"
       stroke="none"
       d="m 223.02929,0.09627719 v 0.74999996 h -0.21875 V 18.709558 36.102136 h -2.23047 -2.23242 V 18.709558 0.84627715 h -0.22461 V 0.09627719 Z"
       gorn="0.2.12"
       stroke-width="0" />
    <path
       fill="#ffc000"
       id="connector13pin"
       stroke="none"
       d="M 213.58593,0.09627719 V 36.102136 h -2.34961 -2.4082 V 18.709558 0.84627715 h -0.14844 V 0.09627719 Z"
       gorn="0.2.13"
       stroke-width="0" />
    <path
       fill="#ffc000"
       id="connector14pin"
       stroke="none"
       d="m 204.14843,0.09627719 v 0.74999996 h -0.0234 V 18.709558 36.102136 h -2.40625 -2.4082 V 18.709558 0.84627715 h -0.0684 V 0.09627719 Z"
       gorn="0.2.14"
       stroke-width="0" />
    <path
       fill="#ffc000"
       id="connector15pin"
       stroke="none"
       d="m 194.71093,0.09627719 v 0.74999996 h -0.10351 V 18.709558 36.102136 h -2.40821 -2.39648 V 0.09627719 Z"
       gorn="0.2.15"
       stroke-width="0" />
    <path
       fill="#ffc000"
       id="connector16pin"
       stroke="none"
       d="m 185.27148,0.09627719 v 0.74999996 h -0.1836 V 18.709558 36.102136 h -2.4082 -2.31445 V 0.09627719 Z"
       gorn="0.2.16"
       stroke-width="0" />
    <path
       fill="#ffc000"
       id="connector17pin"
       stroke="none"
       d="M 175.83398,0.09627719 V 36.102136 h -2.32031 -2.40821 V 18.709558 0.84627715 h -0.17773 V 0.09627719 Z"
       gorn="0.2.17"
       stroke-width="0" />
    <path
       fill="#ffc000"
       id="connector18pin"
       stroke="none"
       d="M 166.39062,0.09627719 V 36.102136 h -2.39453 -2.40821 V 18.709558 0.84627715 h -0.10351 V 0.09627719 Z"
       gorn="0.2.18"
       stroke-width="0" />
    <path
       fill="#ffc000"
       id="connector19pin"
       stroke="none"
       d="m 156.95117,0.09627719 v 0.74999996 h -0.0664 V 18.709558 36.102136 h -2.4082 -2.40821 V 18.709558 0.84627715 h -0.0234 V 0.09627719 Z"
       gorn="0.2.19"
       stroke-width="0" />
    <path
       fill="#ffc000"
       id="connector20pin"
       stroke="none"
       d="m 147.51367,0.09627719 v 0.74999996 h -0.14844 V 18.709558 36.102136 h -2.4082 -2.34961 V 0.09627719 Z"
       gorn="0.2.20"
       stroke-width="0" />
    <path
       fill="#ffc000"
       id="connector21pin"
       stroke="none"
       d="M 138.07617,0.09627719 V 0.84627715 H 137.8457 V 18.709558 36.102136 h -2.23047 -2.23242 V 18.709558 0.84627715 h -0.21289 V 0.09627719 Z"
       gorn="0.2.21"
       stroke-width="0" />
    <path
       fill="#ffc000"
       id="connector22pin"
       stroke="none"
       d="M 128.63671,0.09627719 V 36.102136 h -2.36523 -2.40625 V 18.709558 0.84627715 h -0.13477 V 0.09627719 Z"
       gorn="0.2.22"
       stroke-width="0" />
    <path
       fill="#ffc000"
       id="connector23pin"
       stroke="none"
       d="m 119.19921,0.09627719 v 0.74999996 h -0.0371 V 18.709558 36.102136 h -2.4082 -2.4082 V 18.709558 0.84627715 h -0.0527 V 0.09627719 Z"
       gorn="0.2.23"
       stroke-width="0" />
    <path
       fill="#ffc000"
       id="connector24pin"
       stroke="none"
       d="m 109.75585,0.09627719 v 0.74999996 h -0.11328 V 18.709558 36.102136 h -2.4082 -2.38477 V 0.09627719 Z"
       gorn="0.2.24"
       stroke-width="0" />
    <path
       fill="#ffc000"
       id="connector25pin"
       stroke="none"
       d="m 100.31835,0.09627719 v 0.74999996 h -0.19531 V 18.709558 36.102136 h -2.408196 -2.30274 V 0.09627719 Z"
       gorn="0.2.25"
       stroke-width="0" />
    <path
       fill="#ffc000"
       id="connector26pin"
       stroke="none"
       d="M 90.878904,0.09627719 V 36.102136 h -3.38672 -3.4082 V 0.09627719 Z"
       gorn="0.2.26"
       stroke-width="0" />
    <path
       fill="#ffc000"
       id="connector27pin"
       stroke="none"
       d="m 63.218754,2.5e-7 v 0.75 h -0.002 V 18.791015 36.357422 h -2.4082 -2.4082 V 18.791015 0.75000025 h -0.0899 v -0.75 z"
       gorn="0.2.27"
       stroke-width="0" />
    <path
       fill="#ffc000"
       id="connector28pin"
       stroke="none"
       d="m 53.779294,2.5e-7 v 0.75 h -0.082 V 18.791015 36.357422 h -2.4082 -2.40821 V 18.966797 1.1035153 h -0.008 V 2.5e-7 Z"
       gorn="0.2.28"
       stroke-width="0" />
    <path
       fill="#ffc000"
       id="connector29pin"
       stroke="none"
       d="M 44.341794,2.5e-7 V 1.1035153 h -0.16406 V 18.966797 36.357422 h -2.40625 -2.33594 V 2.5e-7 Z"
       gorn="0.2.29"
       stroke-width="0" />
    <path
       fill="#ffc000"
       id="connector30pin"
       stroke="none"
       d="M 34.902344,2.5e-7 V 1.1035153 h -0.24219 V 18.966797 36.357422 h -2.23242 -2.23047 V 18.966797 1.1035153 h -0.20117 V 2.5e-7 Z"
       gorn="0.2.30"
       stroke-width="0" />
  </g>
  <g
     id="silkscreen"
     gorn="0.4"
     style="display:inline">
    <g
       id="silkscreen0"
       gorn="0.4.0">
      <path
         fill="#000000"
         id="NOconnector62pin"
         stroke="none"
         d="M 22.503906,0.3984375 V 19.390625 38.242187 l 1.19336,1.232422 1.195312,1.234375 h 20.902344 20.898437 l 1.232422,-1.193359 1.234375,-1.197266 V 19.425781 0.3984375 h -3.05664 -3.056641 V 18.613281 36.357422 H 60.638672 58.230469 V 18.613281 0.3984375 h -2.171875 -2.169922 l -0.09375,18.1269535 -0.08984,17.666015 -2.330078,0.09375 -2.310547,0.09375 v -17.75 V 0.3984375 H 46.712891 44.361328 V 18.613281 36.357422 H 41.953125 39.544922 V 18.613281 0.3984375 H 37.193359 34.841797 V 18.613281 36.357422 h -2.40625 -2.408203 V 18.613281 0.3984375 h -3.761719 z m 0.236328,0.23632812 h 3.525391 3.525391 V 18.613281 36.59375 h 2.644531 2.642578 V 18.613281 0.63476562 h 2.115234 2.115235 V 18.613281 36.59375 h 2.644531 2.644531 V 18.613281 0.63476562 h 2.115235 2.115234 V 18.628906 36.625 l 2.556641,-0.103516 2.554687,-0.103515 0.0918,-17.892578 0.0918,-17.89062538 H 56.0586 57.994147 V 18.613281 36.59375 h 2.644531 2.644531 V 18.613281 0.63476562 h 2.820313 2.820312 V 19.425781 38.21875 l -1.162109,1.126953 -1.164063,1.126953 H 45.794922 24.992187 l -1.125,-1.162109 -1.126953,-1.164063 V 19.390625 Z"
         gorn="0.4.0.0"
         stroke-width="0" />
      <path
         fill="#000000"
         id="NOconnector63pin"
         stroke="none"
         d="M 22.740234,0.63476562 V 19.390625 38.146484 l 1.126953,1.164063 1.125,1.162109 h 20.802735 20.802734 l 1.164063,-1.126953 1.162109,-1.126953 V 19.425781 0.63476562 H 66.103516 63.283203 V 18.613281 36.59375 H 60.638672 57.994141 V 18.613281 0.63476562 H 56.058594 54.123047 L 54.03125,18.525391 53.939453,36.417969 51.384766,36.521484 48.828125,36.625 V 18.628906 0.63476562 H 46.712891 44.597656 V 18.613281 36.59375 H 41.953125 39.308594 V 18.613281 0.63476562 H 37.193359 35.078125 V 18.613281 36.59375 H 32.435547 29.791016 V 18.613281 0.63476562 h -3.525391 z"
         gorn="0.4.0.1"
         stroke-width="0" />
      <path
         fill="#000000"
         id="NOconnector65pin"
         stroke="none"
         d="M 119.69141,0.55273437 V 18.396484 36.242187 h -2.64453 -2.64454 V 18.4375 0.63476562 h -2.11523 -2.11523 V 18.4375 36.242187 h -2.64454 -2.64453 V 18.4375 0.63476562 h -2.11523 -2.11524 V 18.4375 36.242187 H 98.009766 95.365234 V 18.4375 0.63476562 H 93.25 91.134766 V 18.4375 36.242187 H 87.609375 84.083984 V 18.4375 0.63476562 H 81.96875 79.853516 V 19.564453 38.494141 l 0.947265,0.990234 0.947266,0.988281 H 192.80078 303.85352 l 0.81445,-0.767578 0.8164,-0.765625 V 19.962891 0.98632813 h -2.29101 -2.29297 V 18.613281 36.242187 h -3.70117 -3.70117 V 18.613281 0.98632813 h -1.93946 -1.93945 V 18.613281 36.242187 h -2.64258 -2.64453 V 18.613281 0.98632813 h -2.11523 -2.11524 V 18.613281 36.242187 h -2.64453 -2.64453 V 18.613281 0.98632813 h -2.11523 -2.11524 V 18.613281 36.242187 h -2.64453 -2.64453 V 18.613281 0.98632813 h -2.11524 -2.11523 V 18.613281 36.242187 h -2.64258 -2.64453 V 18.613281 0.98632813 h -2.11523 -2.11524 V 18.613281 36.242187 h -2.46875 -2.4668 V 18.613281 0.98632813 h -2.11523 -2.11523 V 18.613281 36.242187 h -2.64454 -2.64453 V 18.613281 0.98632813 h -2.11523 -2.11524 V 18.613281 36.242187 h -2.64453 -2.64453 V 18.613281 0.98632813 h -2.11523 -2.11524 V 18.613281 36.242187 h -2.64453 -2.64258 V 18.613281 0.98632813 h -2.11523 -2.11523 V 18.613281 36.242187 h -2.64454 -2.64453 V 18.613281 0.98632813 h -1.93945 -1.93945 V 18.613281 36.242187 h -2.64258 -2.64453 V 18.613281 0.98632813 h -2.11524 -2.11523 V 18.613281 36.242187 h -2.64453 -2.64453 V 18.613281 0.98632813 h -2.11524 -2.11523 V 18.613281 36.242187 h -2.64453 -2.64258 V 18.613281 0.98632813 h -2.11524 -2.11523 V 18.613281 36.242187 h -2.64453 -2.64453 V 18.613281 0.98632813 h -2.11524 -2.11523 V 18.613281 36.242187 h -2.46875 -2.4668 V 18.613281 0.98632813 h -2.11523 -2.11524 V 18.613281 36.242187 H 154.76953 152.125 V 18.613281 0.98632813 h -2.11523 -2.11524 V 18.613281 36.242187 H 145.25 142.60547 V 18.613281 0.98632813 H 140.49023 138.375 V 18.613281 36.242187 h -2.64258 -2.64453 V 18.613281 0.98632813 h -2.11523 -2.11524 V 18.613281 36.242187 h -2.64453 -2.64453 V 18.615234 0.98632813 l -1.14453,-0.003906 c -0.63018,-0.00265 -1.50317,-0.10183 -1.93945,-0.21875001 z"
         gorn="0.4.0.2"
         stroke-width="0" />
      <path
         fill="#000000"
         id="NOconnector67pin"
         stroke="none"
         d="M 316.41406,0.98632813 V 19.914062 38.839844 l 0.76563,0.816406 0.76758,0.816406 h 21.1621 21.16211 l 1.16407,-1.126953 1.16211,-1.126953 V 19.779297 1.3398437 h -3.34961 -3.34961 V 18.966797 36.59375 h -2.4668 -2.46875 V 18.966797 1.3398437 h -2.11523 -2.11524 V 18.966797 36.59375 h -2.64453 -2.64258 V 18.966797 1.3398437 h -2.11523 -2.11524 V 18.966797 36.59375 h -2.64453 -2.64453 V 18.791016 0.98632813 h -2.11523 -2.11524 V 18.791016 36.59375 h -2.64453 -2.64453 V 18.791016 0.98632813 h -2.99609 z"
         gorn="0.4.0.3"
         stroke-width="0" />
      <path
         fill="#000000"
         id="NOconnector68pin"
         stroke="none"
         d="M 384.78516,0.39648438 V 41.189453 h 0.47265 V 0.39648438 Z"
         gorn="0.4.0.4"
         stroke-width="0" />
      <path
         fill="#000000"
         id="NOconnector69pin"
         stroke="none"
         d="M 0,0.39648438 V 41.189453 H 0.47265625 V 0.39648438 Z"
         gorn="0.4.0.5"
         stroke-width="0" />
    </g>
  </g>
</svg>
