<?xml version='1.0' encoding='UTF-8' standalone='no'?>
<!-- Created with Fritzing (https://fritzing.org/) -->
<svg xmlns="http://www.w3.org/2000/svg" x="0in" y="0in" version="1.2" id="svg7" viewBox="0 0 25.511811 25.511812" gorn="0" width="9mm"  height="9mm">
    <desc >
        <referenceFile >Capacitor-Eletrolitico-Medio-470-220.svg</referenceFile>
    </desc>
    <defs id="defs7" />
    <g id="silkscreen" gorn="0.2" >
        <path d="M 12.634278 1.838379 C 12.522075 1.8390969 12.409576 1.8430081 12.297364 1.8471681 L 12.297364 2.4287111 L 23.600099 13.731446 C 23.640869 13.164454 23.646029 12.509256 23.613282 11.938477 L 13.549805 1.8735352 C 13.245188 1.8499874 12.940127 1.8364221 12.634278 1.838379 z M 14.730469 2.0273438 L 23.469728 10.766602 C 23.07297 8.6281804 22.027435 6.6320814 20.471192 5.0654299 C 18.865972 3.4494736 16.851641 2.4254159 14.730469 2.0273438 z M 12.297364 3.4570314 L 12.297364 5.2631838 L 16.322755 9.2885747 A 3.5433069 3.5433069 0 0 1 17.008302 9.2124028 A 3.5433069 3.5433069 0 0 1 18.297364 9.4570317 L 12.297364 3.4570314 z M 12.297364 6.2915042 L 12.297364 8.0976566 L 14.482911 10.283204 A 3.5433069 3.5433069 0 0 1 15.537598 9.5317387 L 12.297364 6.2915042 z M 12.297364 9.125977 L 12.297364 10.932129 L 13.520508 12.155274 A 3.5433069 3.5433069 0 0 1 14.021485 10.850098 L 12.297364 9.125977 z M 20.30713 11.466797 A 3.5433069 3.5433069 0 0 1 20.551759 12.75586 A 3.5433069 3.5433069 0 0 1 20.475587 13.441407 L 23.131349 16.097169 C 23.281704 15.627016 23.398754 15.141977 23.485841 14.645508 L 20.30713 11.466797 z M 12.297364 11.96045 L 12.297364 13.768067 L 19.705079 21.175782 C 20.033329 20.902984 20.344197 20.610169 20.638185 20.30127 L 16.606934 16.27002 A 3.5433069 3.5433069 0 0 1 13.492676 13.155762 L 12.297364 11.96045 z M 20.232423 14.226563 A 3.5433069 3.5433069 0 0 1 19.480958 15.281251 L 22.274415 18.076173 C 22.493122 17.682754 22.68741 17.273556 22.857423 16.851563 L 20.232423 14.226563 z M 12.297364 14.794923 L 12.297364 16.60254 L 18.020509 22.325685 C 18.403633 22.112849 18.77215 21.878002 19.125001 21.62256 L 12.297364 14.794923 z M 18.914063 15.742677 A 3.5433069 3.5433069 0 0 1 17.607423 16.242188 L 21.121583 19.756349 C 21.396746 19.425755 21.652473 19.078549 21.887696 18.716309 L 18.914063 15.742677 z M 12.297364 17.629395 L 12.297364 19.437013 L 16.041505 23.181153 C 16.487967 23.037996 16.921725 22.868863 17.340821 22.672853 L 12.297364 17.629395 z M 12.297364 20.465333 L 12.297364 23.666017 C 12.946791 23.682147 13.657687 23.673596 14.015626 23.629396 C 14.431218 23.578023 14.839239 23.502252 15.23877 23.406739 L 12.297364 20.465333 z " fill="black" id="path8" gorn="0.2.0" stroke="none" />
        <path d="M 12.755859,0 C 5.7167947,2.8122968e-7 2.8122968e-7,5.7167947 0,12.755859 c 0,7.039065 5.7167945,12.755859 12.755859,12.75586 7.039065,0 12.75586,-5.716795 12.75586,-12.75586 C 25.511718,5.7167945 19.794924,0 12.755859,0 Z m 0,0.98242188 c 6.507915,-10e-9 11.773438,5.26552252 11.773438,11.77343712 0,6.507915 -5.265523,11.773438 -11.773438,11.773438 -6.5079146,0 -11.77343713,-5.265523 -11.77343712,-11.773438 C 0.98242214,6.2479446 6.2479446,0.98242214 12.755859,0.98242188 Z" fill="black" id="path7" gorn="0.2.1" stroke="none" />
    </g>
    <g id="copper1" gorn="0.3" >
        <g transform="translate(5.6959374)" >
            <g >
                <g id="copper0" gorn="0.3.0.0.0" >
                    <g transform="rotate(-90)" >
                        <g >
                            <circle cy="2.8080001" cx="-12.755906" fill="none" r="2.0880001" id="connector1pin" gorn="0.3.0.0.0.0.0.0" stroke-width="1.44" stroke="#ffbf00" />
                        </g>
                    </g>
                    <g transform="rotate(-90)" >
                        <g >
                            <circle cy="11.311937" cx="-12.755906" fill="none" r="2.0880001" id="connector0pin" gorn="0.3.0.0.0.1.0.0" stroke-width="1.44" stroke="#ffbf00" />
                        </g>
                    </g>
                </g>
            </g>
        </g>
    </g>
</svg>
