<?xml version="1.0" encoding="UTF-8" standalone="no"?>
<svg
   height="7.4000001mm"
   width="73.703003mm"
   viewBox="0 0 737.03003 73.999999"
   id="edge18x2x4"
   version="1.1"
   xmlns="http://www.w3.org/2000/svg"
   xmlns:svg="http://www.w3.org/2000/svg">
  <defs
     id="defs1097" />
  <g
     gorn="0.2.0"
     id="copper1"
     transform="translate(17.515012)"
     style="display:inline">
    <rect
       id="connector0pad"
       width="10"
       height="10"
       x="6"
       y="10"
       fill="#FFFF00"
       stroke="none"
        />
    <rect
       id="connector1pad"
       width="10"
       height="10"
       x="46.004986"
       y="10"
       fill="#FFFF00"
       stroke="none"

       style="display:inline" />
    <rect
       id="connector2pad"
       width="10"
       height="10"
       x="86.00499"
       y="10"
       fill="#FFFF00"
       stroke="none"

       style="display:inline" />
    <rect
       id="connector3pad"
       width="10"
       height="10"
       x="126.00499"
       y="10"
       fill="#FFFF00"
       stroke="none"

       style="display:inline" />
    <rect
       id="connector4pad"
       width="10"
       height="10"
       x="166.00499"
       y="10"
       fill="#FFFF00"
       stroke="none"

       style="display:inline" />
    <rect
       id="connector5pad"
       width="10"
       height="10"
       x="206.00499"
       y="10"
       fill="#FFFF00"
       stroke="none"

       style="display:inline" />
    <rect
       id="connector6pad"
       width="10"
       height="10"
       x="246.00499"
       y="10"
       fill="#FFFF00"
       stroke="none"

       style="display:inline" />
    <rect
       id="connector7pad"
       width="10"
       height="10"
       x="286.00497"
       y="10"
       fill="#FFFF00"
       stroke="none"

       style="display:inline" />
    <rect
       id="connector8pad"
       width="10"
       height="10"
       x="326.00497"
       y="10"
       fill="#FFFF00"
       stroke="none"

       style="display:inline" />
    <rect
       id="connector9pad"
       width="10"
       height="10"
       x="366.00497"
       y="10"
       fill="#FFFF00"
       stroke="none"

       style="display:inline" />
    <rect
       id="connector10pad"
       width="10"
       height="10"
       x="406.00497"
       y="10"
       fill="#FFFF00"
       stroke="none"

       style="display:inline" />
    <rect
       id="connector11pad"
       width="10"
       height="10"
       x="446.00497"
       y="10"
       fill="#FFFF00"
       stroke="none"

       style="display:inline" />
    <rect
       id="connector12pad"
       width="10"
       height="10"
       x="486.00497"
       y="10"
       fill="#FFFF00"
       stroke="none"

       style="display:inline" />
    <rect
       id="connector13pad"
       width="10"
       height="10"
       x="526.005"
       y="10"
       fill="#FFFF00"
       stroke="none"

       style="display:inline" />
    <rect
       id="connector14pad"
       width="10"
       height="10"
       x="566.005"
       y="10"
       fill="#FFFF00"
       stroke="none"

       style="display:inline" />
    <rect
       id="connector15pad"
       width="10"
       height="10"
       x="606.005"
       y="10"
       fill="#FFFF00"
       stroke="none"

       style="display:inline" />
    <rect
       id="connector16pad"
       width="10"
       height="10"
       x="646.005"
       y="10"
       fill="#FFFF00"
       stroke="none"

       style="display:inline" />
    <rect
       id="connector17pad"
       width="10"
       height="10"
       x="686.005"
       y="10"
       fill="#FFFF00"
       stroke="none"

       style="display:inline" />
    <path
       fill="#f7bd13"
       d="M 0,74 V 11 a 11,11 0 0 1 22,0 v 63 z"
       stroke="none"
       stroke-width="1.67874"
       gorn="0.2.0.0"
       id="nonconn0" />
    <path
       fill="#f7bd13"
       d="M 39.999999,74 V 11 a 11,11 0 0 1 22,0 v 63 z"
       stroke="none"
       stroke-width="1.67874"
       gorn="0.2.0.1"
       id="nonconn1" />
    <path
       fill="#f7bd13"
       d="M 79.999998,74 V 11 A 11.000001,11.000001 0 0 1 102,11 v 63 z"
       stroke="none"
       stroke-width="1.68302"
       gorn="0.2.0.2"
       id="nonconn2" />
    <path
       fill="#f7bd13"
       d="M 120,74 V 11 a 11,11 0 0 1 22,0 v 63 z"
       stroke="none"
       stroke-width="1.67874"
       gorn="0.2.0.3"
       id="nonconn3" />
    <path
       fill="#f7bd13"
       d="M 160,74 V 11 a 11,11 0 0 1 22,0 v 63 z"
       stroke="none"
       gorn="0.2.0.4"
       id="nonconn4" />
    <path
       fill="#f7bd13"
       d="M 200,74 V 11 a 11,11 0 0 1 22,0 v 63 z"
       stroke="none"
       gorn="0.2.0.5"
       id="nonconn5" />
    <path
       fill="#f7bd13"
       d="M 240,74 V 11 a 11,11 0 0 1 22,0 v 63 z"
       stroke="none"
       gorn="0.2.0.6"
       id="nonconn6" />
    <path
       fill="#f7bd13"
       d="M 280,74 V 11 a 11,11 0 0 1 22,0 v 63 z"
       stroke="none"
       gorn="0.2.0.7"
       id="nonconn7" />
    <path
       fill="#f7bd13"
       d="M 320,74 V 11 a 11,11 0 0 1 22,0 v 63 z"
       stroke="none"
       gorn="0.2.0.8"
       id="nonconn8" />
    <path
       fill="#f7bd13"
       d="M 360,74 V 11 a 11,11 0 0 1 22,0 v 63 z"
       stroke="none"
       gorn="0.2.0.9"
       id="nonconn9" />
    <path
       fill="#f7bd13"
       d="M 400,74 V 11 a 11,11 0 0 1 22,0 v 63 z"
       stroke="none"
       gorn="0.2.0.10"
       id="nonconn10" />
    <path
       fill="#f7bd13"
       d="M 440,74 V 11 a 11,11 0 0 1 22,0 v 63 z"
       stroke="none"
       gorn="0.2.0.11"
       id="nonconn11" />
    <path
       fill="#f7bd13"
       d="M 480,74 V 11 a 11,11 0 0 1 22,0 v 63 z"
       stroke="none"
       gorn="0.2.0.12"
       id="nonconn12" />
    <path
       fill="#f7bd13"
       d="M 520,74 V 11 a 11,11 0 0 1 22,0 v 63 z"
       stroke="none"
       gorn="0.2.0.13"
       id="nonconn13" />
    <path
       fill="#f7bd13"
       d="M 560,74 V 11 a 11,11 0 0 1 22,0 v 63 z"
       stroke="none"
       gorn="0.2.0.14"
       id="nonconn14" />
    <path
       fill="#f7bd13"
       d="M 600,74 V 11 a 11,11 0 0 1 22,0 v 63 z"
       stroke="none"
       gorn="0.2.0.15"
       id="nonconn15" />
    <path
       fill="#f7bd13"
       d="M 640,74 V 11 a 11,11 0 0 1 22,0 v 63 z"
       stroke="none"
       gorn="0.2.0.16"
       id="nonconn16" />
    <path
       fill="#f7bd13"
       d="M 680,74 V 11 a 11,11 0 0 1 22,0 v 63 z"
       stroke="none"
       gorn="0.2.0.17"
       id="nonconn17" />
  </g>
  <g
     gorn="0.3.0"
     id="copper0"
     transform="translate(17.515012)"
     style="display:inline">
    <rect
       id="connector18pad"
       width="10"
       height="10"
       x="6"
       y="10"
       fill="#FFFF00"
       stroke="none"
        />
    <rect
       id="connector19pad"
       width="10"
       height="10"
       x="46.004986"
       y="10"
       fill="#FFFF00"
       stroke="none"

       style="display:inline" />
    <rect
       id="connector20pad"
       width="10"
       height="10"
       x="86.00499"
       y="10"
       fill="#FFFF00"
       stroke="none"

       style="display:inline" />
    <rect
       id="connector21pad"
       width="10"
       height="10"
       x="126.00499"
       y="10"
       fill="#FFFF00"
       stroke="none"

       style="display:inline" />
    <rect
       id="connector22pad"
       width="10"
       height="10"
       x="166.00499"
       y="10"
       fill="#FFFF00"
       stroke="none"

       style="display:inline" />
    <rect
       id="connector23pad"
       width="10"
       height="10"
       x="206.00499"
       y="10"
       fill="#FFFF00"
       stroke="none"

       style="display:inline" />
    <rect
       id="connector24pad"
       width="10"
       height="10"
       x="246.00499"
       y="10"
       fill="#FFFF00"
       stroke="none"

       style="display:inline" />
    <rect
       id="connector25pad"
       width="10"
       height="10"
       x="286.00497"
       y="10"
       fill="#FFFF00"
       stroke="none"

       style="display:inline" />
    <rect
       id="connector26pad"
       width="10"
       height="10"
       x="326.00497"
       y="10"
       fill="#FFFF00"
       stroke="none"

       style="display:inline" />
    <rect
       id="connector27pad"
       width="10"
       height="10"
       x="366.00497"
       y="10"
       fill="#FFFF00"
       stroke="none"

       style="display:inline" />
    <rect
       id="connector28pad"
       width="10"
       height="10"
       x="406.00497"
       y="10"
       fill="#FFFF00"
       stroke="none"

       style="display:inline" />
    <rect
       id="connector29pad"
       width="10"
       height="10"
       x="446.00497"
       y="10"
       fill="#FFFF00"
       stroke="none"

       style="display:inline" />
    <rect
       id="connector30pad"
       width="10"
       height="10"
       x="486.00497"
       y="10"
       fill="#FFFF00"
       stroke="none"

       style="display:inline" />
    <rect
       id="connector31pad"
       width="10"
       height="10"
       x="526.005"
       y="10"
       fill="#FFFF00"
       stroke="none"

       style="display:inline" />
    <rect
       id="connector32pad"
       width="10"
       height="10"
       x="566.005"
       y="10"
       fill="#FFFF00"
       stroke="none"

       style="display:inline" />
    <rect
       id="connector33pad"
       width="10"
       height="10"
       x="606.005"
       y="10"
       fill="#FFFF00"
       stroke="none"

       style="display:inline" />
    <rect
       id="connector34pad"
       width="10"
       height="10"
       x="646.005"
       y="10"
       fill="#FFFF00"
       stroke="none"

       style="display:inline" />
    <rect
       id="connector35pad"
       width="10"
       height="10"
       x="686.005"
       y="10"
       fill="#FFFF00"
       stroke="none"

       style="display:inline" />
    <path
       fill="#f7bd13"
       d="M 0,74 V 11 a 11,11 0 0 1 22,0 v 63 z"
       stroke="none"
       stroke-width="1.67874"
       gorn="0.3.0.0"
       id="nonconn18" />
    <path
       fill="#f7bd13"
       d="M 39.999999,74 V 11 a 11,11 0 0 1 22,0 v 63 z"
       stroke="none"
       stroke-width="1.67874"
       gorn="0.3.0.1"
       id="nonconn19" />
    <path
       fill="#f7bd13"
       d="M 79.999998,74 V 11 A 11.000001,11.000001 0 0 1 102,11 v 63 z"
       stroke="none"
       stroke-width="1.68302"
       gorn="0.3.0.2"
       id="nonconn20" />
    <path
       fill="#f7bd13"
       d="M 120,74 V 11 a 11,11 0 0 1 22,0 v 63 z"
       stroke="none"
       stroke-width="1.67874"
       gorn="0.3.0.3"
       id="nonconn21" />
    <path
       fill="#f7bd13"
       d="M 160,74 V 11 a 11,11 0 0 1 22,0 v 63 z"
       stroke="none"
       gorn="0.3.0.4"
       id="nonconn22" />
    <path
       fill="#f7bd13"
       d="M 200,74 V 11 a 11,11 0 0 1 22,0 v 63 z"
       stroke="none"
       gorn="0.3.0.5"
       id="nonconn23" />
    <path
       fill="#f7bd13"
       d="M 240,74 V 11 a 11,11 0 0 1 22,0 v 63 z"
       stroke="none"
       gorn="0.3.0.6"
       id="nonconn24" />
    <path
       fill="#f7bd13"
       d="M 280,74 V 11 a 11,11 0 0 1 22,0 v 63 z"
       stroke="none"
       gorn="0.3.0.7"
       id="nonconn25" />
    <path
       fill="#f7bd13"
       d="M 320,74 V 11 a 11,11 0 0 1 22,0 v 63 z"
       stroke="none"
       gorn="0.3.0.8"
       id="nonconn26" />
    <path
       fill="#f7bd13"
       d="M 360,74 V 11 a 11,11 0 0 1 22,0 v 63 z"
       stroke="none"
       gorn="0.3.0.9"
       id="nonconn27" />
    <path
       fill="#f7bd13"
       d="M 400,74 V 11 a 11,11 0 0 1 22,0 v 63 z"
       stroke="none"
       gorn="0.3.0.10"
       id="nonconn28" />
    <path
       fill="#f7bd13"
       d="M 440,74 V 11 a 11,11 0 0 1 22,0 v 63 z"
       stroke="none"
       gorn="0.3.0.11"
       id="nonconn29" />
    <path
       fill="#f7bd13"
       d="M 480,74 V 11 a 11,11 0 0 1 22,0 v 63 z"
       stroke="none"
       gorn="0.3.0.12"
       id="nonconn30" />
    <path
       fill="#f7bd13"
       d="M 520,74 V 11 a 11,11 0 0 1 22,0 v 63 z"
       stroke="none"
       gorn="0.3.0.13"
       id="nonconn31" />
    <path
       fill="#f7bd13"
       d="M 560,74 V 11 a 11,11 0 0 1 22,0 v 63 z"
       stroke="none"
       gorn="0.3.0.14"
       id="nonconn32" />
    <path
       fill="#f7bd13"
       d="M 600,74 V 11 a 11,11 0 0 1 22,0 v 63 z"
       stroke="none"
       gorn="0.3.0.15"
       id="nonconn33" />
    <path
       fill="#f7bd13"
       d="M 640,74 V 11 a 11,11 0 0 1 22,0 v 63 z"
       stroke="none"
       gorn="0.3.0.16"
       id="nonconn34" />
    <path
       fill="#f7bd13"
       d="M 680,74 V 11 a 11,11 0 0 1 22,0 v 63 z"
       stroke="none"
       gorn="0.3.0.17"
       id="nonconn35" />
  </g>
  <g
     gorn="0.4.0"
     id="silkscreen"
     transform="translate(17.371556)"
     style="display:inline">
    <path
       fill="#000000"
       d="m -17.371556,0 v 73.999999 h 5 V 0 Z"
       stroke="none"
       style="stroke-width:1"
       gorn="0.4.0.0"
       id="path2" />
    <path
       fill="#000000"
       d="m 714.65847,0 v 73.999995 h 5 V 0 Z"
       stroke="none"
       style="stroke-width:1"
       gorn="0.4.0.1"
       id="path2-5" />
  </g>
</svg>
