<?xml version="1.0" encoding="UTF-8" standalone="no"?>
<!-- Creator: CorelDRAW 2018 -->

<svg
   xml:space="preserve"
   width="125.999mm"
   height="44.9998mm"
   version="1.0"
   shape-rendering="geometricPrecision"
   text-rendering="geometricPrecision"
   image-rendering="optimizeQuality"
   fill-rule="evenodd"
   clip-rule="evenodd"
   viewBox="0 0 7937.92 2834.97"
   id="svg839"
   xmlns="http://www.w3.org/2000/svg"
   xmlns:svg="http://www.w3.org/2000/svg"><defs
     id="defs843" /><g
     id="copper1"><path
       fill="#ffc000"
       d="m 1818.1201,333.75434 -40.65,9.45 c -37.3,8.67 -73.97,20.87 -110.29,32.96 -20.6,6.84 -41.13,13.68 -60.68,19.65 -55.27,16.89 -124.9,39.26 -196.05,62.11 -116.93,37.55 -238.03,76.46 -333.76,102.6 -23.78,6.5 -53.82,16.4 -84.04002,26.35 -27.96,9.22 -56.14,18.51 -90.39,27.95 -11.95,3.3 -25.75,7.43 -40.1,11.84 l -43.43,13.78 h -0.49 L 311.03,798.09438 l -15.36,-65.78 c -3.25,-13.92 -24.54,-92.59004 -43.53,-151.21004 -8.42,-26.02 -8.41,-39.74 -11.15,-42.32 -0.84,-0.79 -28.17,12.68 -59.54,25.52 -17.21,7.05 -34.83,14.27 -51.33,19.86 -13.58,4.61 -9.93,3.4 -10.75,3.67 -23.4,7.74 -56.38,18.36 -56.38,18.5 V 1873.8144 c 43.53,2.72 80.84,14.77 125.75,63.36 8.35,9.03 15.66,18.5 21.92,28.28 l 0.11,-0.07 c 27.22,42.51 36.61,92.19 30.18,139.41 -6.39,46.99 -28.66,91.98 -64.76,125.36 -8.68,8.02 -18.04,15.32 -28.03,21.72 l 0.07,0.11 c -33.01,21.14 -57.99,27.5 -85.2,29.05 v 48.63 c 0,16.42 45.23,13.97 70.94,31.25 11.37,7.65 20.49,13.77 24.19,16.56 159.08,116.91 320.58,232.75 478.13003,351.45 15.61005,11.79 34.35005,43.03 45.66005,43.03 H 3762.2101 v -85.93 c 0,-86.83 60.59,-146.66 138.05,-172.36 26.96,-8.94 56.09,-13.63 85.08,-13.65 29.37,-0.01 58.98,4.74 86.51,14.67 76.39,27.54 136.01,91.19 136.01,197.94 v 59.33 l 3037.59,0.05 c 12.57,0 -4.69,-6.27 0.35,-10.26 h 0.25 c 5.89,-4.66 2.51,-2.31 7.19,-5.84 l 602.76,-441.94 0.04,0.06 7.39,-5.96 -0.09,-0.12 c 3.81,-3.08 7.68,-6.21 11.71,-9.29 v -17.63 c -46.69,-1.86 -87.11,-13.45 -134.9,-68.11 -34.69,-39.7 -49.86,-86.88 -49.86,-133.18 0,-30.59 6.88,-61.15 19.29,-89.01 12.39,-27.82 30.55,-52.93 53.1,-72.62 30.83,-26.93 69.38,-43.94 112.61,-44.96 l -0.03,-1250.82006 h -0.25 c 0,-2.85 -1.19,-8.3 -2.94,-14.08 l 0.23,-0.07 c -0.32,-1.17 0.6,-0.86 1.46,-0.44 l 0.52,-0.16 c -4.27,-4.28 -14.23,1.35 -38.66,-4.76 -45.86,-11.48 -98.58,-22.28 -110.21,-22.96 -12.19,-0.71 -1.46,37.51 -13.64,70.36 l -0.08,-0.03 c -3.85,10.41004 -7.66,20.63004 -12.87,33.58004 -2.72,6.75 -5.74,13.47 -8.64,19.93 -4.19,9.33 -8.01,17.84 -10.54,28.65 l -11.63,49.6 -50.88,-1.12 c -33.35,-0.73 -59.12,-9.8 -84.17,-18.62 l 0.03,-0.08 c -7.03,-2.47 -14,-4.93 -20.99,-6.98 -457.57,-152.52004 -936.22,-287.27004 -1398.97,-429.28004 l 31.59,-65.72 c 4.35,-9.05 19.85,-64.32 33.43,-118.54 8.1,-32.33 15.08,-62.479996 17.7,-78.599996 h -351.48 c -33.61,0 -70.97,13.35 -105.46,34.51 -38.09,23.369996 -71.27,55.209996 -91.66,88.809996 -11.72,19.3 -18.4,38.01 -22.23,57.85 -4.39,22.71 -5.44,47.21 -5.76,75.22 l 0.03,12.97 c 0.54,73.4 1.31,177.43 -137.16,177.43 h -450.8 v -63 h 450.8 c 82.91,0 73.87,-81.25 74.38,-127.88 0.72,-63.74 4.89,-112.02 37.09,-165.06 49.89,-82.199996 157.15,-153.82999583 250.77,-153.82999583 h 356.95 c 27.9,0 58.64,23.74999983 58.64,53.16999983 0,33.74 -47.72,211.329996 -58.64,234.049996 l 1328.5,407.64004 c 28.31,8.33 56.83,22.51 88.65,23.21 5.46,-23.3 13.63,-36.58 22.13,-57.68 23.27,-57.73004 47.06,-145.69004 88.36,-143.28004 25.28,1.47 179.47,34.58 191.83,48.05 8.57,9.35 17.32,39.72 17.32,57.17 l 0.03,1313.77006 h -58.6 c -104.48,0 -169.7,146.59 -92.05,235.48 48.31,55.26 89.57,46.42 150.65,46.42 v 117 c -15.54,4.17 -31.19,19.35 -44.89,29.68 l -602.02,441.45 c -10.14,7.69 -34.66,28.89 -45.68,28.89 l -3100.59,-0.05 v -122.33 c 0,-209.31 -319.64,-181.43 -319.64,-26.6 v 148.93 H 681.96008 c -10.74,0 -76.12005,-50.31 -89.08005,-59.98 L 120.27,2427.7244 c -18.84,-14.19 -120.23,-76.61 -120.23,-98.02 v -111.71 c 49.09,0 75.08,6.2 114.24,-18.88 72.91,-46.68 89.34,-153.48 28.45,-219.34 -45.67,-49.4 -83.77,-43.68 -142.73,-43.68 V 606.36434 c 0,-49.23 68.77,-67.74 109.95,-81.72 67.82,-23 136.79,-66.77 174.11,-31.61 16.48,15.52 67.67,202.68004 72.89,225.02004 L 799.78008,580.41434 c 28.63,-9.08 59.91,-18.98 85.75,-26.11 60.07,-16.56 116.13002,-38.32 174.67002,-54.3 148.12,-40.45 367.68,-115.2 528.09,-164.22 57.56,-17.57 116.19,-40.14 175.15,-53.85 -11.66,-49.97 -58.6,-191.759996 -58.6,-228.739996 0,-25.9 30.09,-53.16999983 58.6,-53.16999983 l 522.11,-0.03 c 27.6,0 48.16,22.57999983 56.43,44.69999983 6.32,16.95 10.88,64.339996 12.29,83.479996 4.4,58.38 24.94,95.22 96.4,95.22 h 255.72 v 43 h -664.8 l -223.48,67.37 z M 3386.9401,0.01434417 h 257.13 c 69.8,0 75.01,87.14999983 80.61,121.66999583 6.99,43.27 5,41.78 32.41,68.66 15.5,15.21 36.1,30.75 62.74,33.08 v 0.01 h -75 -43.64 -314.25 V 63.024344 0.02434417 Z M 7873.8801,607.78434 c 0.93,0.47 1.73,1 0.69,-0.16 l -0.12,0.11 -0.09,-0.09 -0.47,0.14 z m -1673.27,-544.769996 -0.01,0.08 c 0.49,-0.04 1.17,-0.08 0.64,-0.08 z"
       id="nonconn1" /><circle
       style="clip-rule:evenodd;fill:#000000;fill-opacity:1;fill-rule:evenodd;stroke:none;stroke-width:7.15048;stroke-linecap:round;stroke-linejoin:round;image-rendering:optimizeQuality;shape-rendering:geometricPrecision;text-rendering:geometricPrecision"
       id="connector0pin"
       cx="5115.6235"
       cy="478.85266"
       r="31.499931" /><circle
       style="fill:#000000;fill-opacity:1;stroke:none;stroke-width:14.301;stroke-linecap:round;stroke-linejoin:round"
       id="connector1pin"
       cx="3525.2383"
       cy="118.49201"
       r="62.999863" /><circle
       style="fill:#000000;fill-opacity:1;stroke:none;stroke-width:14.301;stroke-linecap:round;stroke-linejoin:round"
       id="connector2pin"
       cx="1838.799"
       cy="105.60414"
       r="62.999863" /></g><g
     id="copper0"><path
       fill="#ffc000"
       d="m 2023.5069,282.23874 -184.0126,46.65296 -61.5472,14.31667 c -37.2976,8.66427 -73.9764,20.86644 -110.2838,32.96548 -20.6086,6.83858 -41.1243,13.68748 -60.6808,19.64932 -55.2656,16.88501 -124.8995,39.25738 -196.0394,62.11455 -116.9263,37.54516 -238.0301,76.45185 -333.76,102.59938 -23.7854,6.4982 -53.8216,16.40022 -84.03305,26.35381 -27.9629,9.22126 -56.1424,18.5044 -90.38689,27.94227 -11.95462,3.31098 -25.74525,7.42651 -40.10318,11.83085 l -43.4348,13.78031 h -0.4951 L 569.10632,718.0308 H 357.44031 L 800.26693,580.39271 c 28.63335,-9.07685 59.90723,-18.97887 85.74531,-26.11658 60.06195,-16.56526 116.12186,-38.32907 174.65726,-54.3064 148.1177,-40.44356 367.6744,-115.20382 528.0768,-164.21882 57.5555,-17.55546 116.194,-40.12382 175.1523,-53.84224 -11.6658,-49.96395 -58.6076,-191.758821 -58.6076,-228.73668 0,-25.889659 30.098,-53.16147445 58.6076,-53.16147445 l 522.1047,-0.03094381 0.052,0.04125842 c 27.5916,0 48.1589,22.56835584 56.4209,44.69318384 6.3229,16.936581 10.8819,64.332196 12.295,83.465786 4.4147,58.37035 24.9408,95.22443 96.4107,95.22443 h 255.7196 c 15.0078,0 27.3956,-7.40589 39.1955,-14.02786 93.5122,-52.32599 -2.7746,-209.33491063 157.9373,-209.33491063 h 740.5164 c 69.7989,0 75.0078,87.13778263 80.6086,121.66077063 6.983,43.28008 4.9923,41.77415 32.4085,68.65401 15.5029,15.22435 36.1115,30.75815 62.7644,33.07893 h 601.9707 c 129.3554,0 117.5968,-13.23363 163.8578,33.24398 21.8154,21.88759 190.191,190.12911 203.7753,190.12911 h 692.5535 c 82.8985,0 73.8629,-81.24814 74.3787,-127.88047 0.7117,-63.74426 4.8891,-112.02693 37.0913,-165.06463 C 5643.8507,71.666076 5751.1123,0.04145936 5844.7277,0.04145936 h 356.9472 c 27.901,0 58.6385,23.73390564 58.6385,53.16147464 0,33.739072 -47.7154,211.335946 -58.6385,234.038386 L 7530.1444,694.8642 c 27.8185,8.18979 55.8536,22.02168 87.0037,23.15628 H 7399.7266 C 6976.6524,580.47523 6538.3436,456.21518 6113.4437,325.81794 l 31.5834,-65.72466 c 4.3424,-9.04591 19.8556,-64.32188 33.4296,-118.54575 8.097,-32.33629 15.08,-62.485882 17.6999,-78.607609 h -351.4702 c -33.6153,0 -70.9645,13.347099 -105.4565,34.502353 -38.0815,23.362576 -71.2739,55.203766 -91.6556,88.798436 -11.7174,19.29862 -18.3909,38.00932 -22.2177,57.85462 -4.394,22.70244 -5.4461,47.19963 -5.7555,75.22441 l 0.021,12.96546 c 0.5364,73.39873 1.31,177.42152 -137.1636,177.42152 H 4789.905 c -23.2388,0 -61.4648,-28.38579 -102.1456,-66.32291 -8.3548,-7.78753 -17.1841,-16.16298 -26.23,-24.78599 7.1996,-6.97268 11.6761,-16.74061 11.6761,-27.55031 0,-21.17589 -17.1738,-38.34971 -38.3497,-38.34971 -11.2429,0 -21.3409,4.83755 -28.3548,12.53225 -31.0367,-30.44871 -57.1017,-56.51372 -64.8995,-64.33219 -16.8541,-16.93658 -17.3182,-16.91595 -50.3353,-15.93607 -20.5776,0.60856 -46.9727,1.39247 -68.9841,1.39247 h -601.9706 l -5.4152,-0.23723 c -11.903,-1.03146 -23.0531,-3.5276 -33.4606,-7.09645 H 3376.649 c -2.6818,-28.73649 -27.0449,-51.41831 -56.4415,-51.41831 v 0 c -20.9903,0 -39.4225,11.56268 -49.2007,28.64366 V 149.71669 h -353.76 v 101.56792 c -9.9227,-16.5962 -28.0764,-27.7566 -48.6953,-27.7566 v 0 c -30.7788,0 -56.0392,24.85819 -56.689,55.50289 h -20.2579 -44.456 -352.6873 -358.4944 -12.4291 v 3.15626 l -0.041,0.0619 z M 3328.7376,153.66719 Z m 0,0 c 31.1811,0 56.6891,-25.51834 56.6891,-56.689073 V 70.91311 c 0,-31.191365 -25.5183,-56.709698 -56.6891,-56.709698 v 0 c -31.181,0 -56.689,25.518333 -56.689,56.709698 v 26.065007 c 0,31.181053 25.5183,56.689073 56.689,56.689073 z m -456.5863,-4.07427 z m 0,0 c 31.1811,0 56.6891,-25.51834 56.6891,-56.689072 V 66.838841 c 0,-31.191365 -25.5183,-56.709698 -56.6891,-56.709698 v 0 c -31.181,0 -56.689,25.518333 -56.689,56.709698 v 26.065007 c 0,31.181052 25.5183,56.689072 56.689,56.689072 z m 3328.8634,-86.570483 -0.01,0.0722 c 0.4848,-0.04126 1.1656,-0.0722 0.6395,-0.0722 z"
       id="nonconn0"
       stroke="none" /></g></svg>
