<?xml version="1.0" encoding="UTF-8" standalone="no"?>
<svg
   xml:space="preserve"
   width="113.8mm"
   height="8.455mm"
   version="1.0"
   shape-rendering="geometricPrecision"
   text-rendering="geometricPrecision"
   image-rendering="optimizeQuality"
   fill-rule="evenodd"
   clip-rule="evenodd"
   viewBox="0 0 11380 845.5"
   id="svg149"
   sodipodi:docname="jamma_nino_v2.0_4d85b9bfdc61f0a6fed5803b30c3e8ce_3_pcb.svg"
   inkscape:version="1.1.2 (0a00cf5339, 2022-02-04)"
   xmlns:inkscape="http://www.inkscape.org/namespaces/inkscape"
   xmlns:sodipodi="http://sodipodi.sourceforge.net/DTD/sodipodi-0.dtd"
   xmlns="http://www.w3.org/2000/svg"
   xmlns:svg="http://www.w3.org/2000/svg"><defs
     id="defs153" /><sodipodi:namedview
     id="namedview151"
     pagecolor="#ffffff"
     bordercolor="#666666"
     borderopacity="1.0"
     inkscape:pageshadow="2"
     inkscape:pageopacity="0.0"
     inkscape:pagecheckerboard="0"
     inkscape:document-units="mm"
     showgrid="false"
     inkscape:zoom="12.502311"
     inkscape:cx="326.25968"
     inkscape:cy="19.556385"
     inkscape:window-width="1920"
     inkscape:window-height="1019"
     inkscape:window-x="0"
     inkscape:window-y="0"
     inkscape:window-maximized="1"
     inkscape:current-layer="copper1" /><g
     id="copper1"
     style="display:inline"><g
       id="g4855"
       inkscape:label="pads1"
       transform="translate(-3647.1084,2613.9847)"><path
         id="connector27pad-0"
         style="display:inline;fill:#ffc000"
         d="m 3827.1084,-1873.0047 v -740 h 220 v 740 z" /><path
         id="connector26pad-3"
         style="display:inline;fill:#ffc000"
         d="m 4227.1084,-1873.0047 v -740 h 220 v 740 z" /><path
         id="connector25pad-9"
         style="display:inline;fill:#ffc000"
         d="m 4627.1084,-1873.0047 v -740 h 220 v 740 z" /><path
         id="connector24pad-1"
         style="display:inline;fill:#ffc000"
         d="m 5027.1084,-1873.0047 v -740 h 220 v 740 z" /><path
         id="connector23pad-9"
         style="display:inline;fill:#ffc000"
         d="m 5427.0984,-1873.0047 v -740 h 220 v 740 z" /><path
         id="connector22pad-6"
         style="display:inline;fill:#ffc000"
         d="m 5827.0984,-1873.0047 v -740 h 220 v 740 z" /><path
         id="connector21pad-9"
         style="display:inline;fill:#ffc000"
         d="m 6227.0984,-1873.0047 v -740 h 220 v 740 z" /><path
         id="connector20pad-3"
         style="display:inline;fill:#ffc000"
         d="m 6627.0984,-1873.0047 v -740 h 220 v 740 z" /><path
         id="connector19pad-3"
         style="display:inline;fill:#ffc000"
         d="m 7027.0984,-1873.0047 v -740 h 220 v 740 z" /><path
         id="connector18pad-8"
         style="display:inline;fill:#ffc000"
         d="m 7427.0984,-1873.0047 v -740 h 220 v 740 z" /><path
         id="connector17pad-0"
         style="display:inline;fill:#ffc000"
         d="m 7827.0984,-1873.0047 v -740 h 220 v 740 z" /><path
         id="connector16pad-5"
         style="display:inline;fill:#ffc000"
         d="m 8227.0884,-1873.0047 v -740 h 220 v 740 z" /><path
         id="connector15pad-6"
         style="display:inline;fill:#ffc000"
         d="m 8627.0884,-1873.0047 v -740 h 220 v 740 z" /><path
         id="connector14pad-6"
         style="display:inline;fill:#ffc000"
         d="m 9027.0884,-1873.0047 v -740 h 220 v 740 z" /><path
         id="connector13pad-4"
         style="display:inline;fill:#ffc000"
         d="m 9427.0884,-1873.0047 v -740 h 220 v 740 z" /><path
         id="connector12pad-0"
         style="display:inline;fill:#ffc000"
         d="m 9827.0884,-1873.0047 v -740 h 219.9996 v 740 z" /><path
         id="connector11pad-0"
         style="display:inline;fill:#ffc000"
         d="m 10227.088,-1873.0047 v -740 h 220 v 740 z" /><path
         id="connector10pad-4"
         style="display:inline;fill:#ffc000"
         d="m 10627.078,-1873.0047 v -740 h 220 v 740 z" /><path
         id="connector9pad-6"
         style="display:inline;fill:#ffc000"
         d="m 11027.078,-1873.0047 v -740 h 220 v 740 z" /><path
         id="connector8pad-2"
         style="display:inline;fill:#ffc000"
         d="m 11427.078,-1873.0047 v -740 h 220 v 740 z" /><path
         id="connector7pad-6"
         style="display:inline;fill:#ffc000"
         d="m 11827.078,-1873.0047 v -740 h 220 v 740 z" /><polygon
         id="connector6pad-7"
         width="0"
         height="0"
         dx="0"
         dy="0"
         x="0"
         y="0"
         style="display:inline"
         transform="translate(3647.1084,-2613.9847)" /><path
         id="connector5pad-5"
         style="display:inline;fill:#ffc000"
         d="m 12622.286,-2613.0047 h 220 v 740 h -220 z" /><path
         id="connector4pad-6"
         style="display:inline;fill:#ffc000"
         d="m 13027.078,-1873.0047 v -740 h 220 v 740 z" /><path
         id="connector3pad-9"
         style="display:inline;fill:#ffc000"
         d="m 13427.068,-1873.0047 v -740 h 620 v 740 z" /><path
         id="connector2pad-8"
         style="display:inline;fill:#ffc000"
         d="m 14047.068,-1873.0047 c -204.733,141.4274 -411.503,133.8408 -620,0 v -740 h 620 z"
         sodipodi:nodetypes="ccccc" /><path
         id="connector1pad-7"
         style="display:inline;fill:#ffc000"
         d="m 14227.068,-1873.0047 v -740 h 620 v 740 z" /><path
         id="connector0pad-2"
         style="display:inline;fill:#ffc000"
         d="m 14847.068,-1873.0047 c -205.242,143.7146 -411.973,137.2297 -620,0 v -740 h 620 z"
         sodipodi:nodetypes="ccccc" /></g><path
       id="connector27pad"
       style="fill:#ffc000;stroke-width:1"
       d="M 179.99999,752.5788 V 559.99998 h 220 V 752.5788 Z" /><path
       id="connector26pad"
       style="fill:#ffc000;stroke-width:1"
       d="M 579.99999,752.5788 V 559.99998 h 220 V 752.5788 Z" /><path
       id="connector25pad"
       style="fill:#ffc000;stroke-width:1"
       d="M 979.99999,752.5788 V 559.99998 H 1200 V 752.5788 Z" /><path
       id="connector24pad"
       style="fill:#ffc000;stroke-width:1"
       d="M 1380,752.5788 V 559.99998 h 220 V 752.5788 Z" /><path
       id="connector23pad"
       style="fill:#ffc000;stroke-width:1"
       d="M 1779.99,752.5788 V 559.99998 h 220 V 752.5788 Z" /><path
       id="connector22pad"
       style="fill:#ffc000;stroke-width:1"
       d="M 2179.99,752.5788 V 559.99998 h 220 V 752.5788 Z" /><path
       id="connector21pad"
       style="fill:#ffc000;stroke-width:1"
       d="M 2579.99,752.5788 V 559.99998 h 220 V 752.5788 Z" /><path
       id="connector20pad"
       style="fill:#ffc000;stroke-width:1"
       d="M 2979.99,752.5788 V 559.99998 h 220 V 752.5788 Z" /><path
       id="connector19pad"
       style="fill:#ffc000;stroke-width:1"
       d="M 3379.99,752.5788 V 559.99998 h 220 V 752.5788 Z" /><path
       id="connector18pad"
       style="fill:#ffc000;stroke-width:1"
       d="M 3779.99,752.5788 V 559.99998 h 220 V 752.5788 Z" /><path
       id="connector17pad"
       style="fill:#ffc000;stroke-width:1"
       d="M 4179.99,752.5788 V 559.99998 h 220 V 752.5788 Z" /><path
       id="connector16pad"
       style="fill:#ffc000;stroke-width:1"
       d="M 4579.98,752.5788 V 559.99998 h 220 V 752.5788 Z" /><path
       id="connector15pad"
       style="fill:#ffc000;stroke-width:1"
       d="M 4979.98,752.5788 V 559.99998 h 220 V 752.5788 Z" /><path
       id="connector14pad"
       style="fill:#ffc000;stroke-width:1"
       d="M 5379.98,752.5788 V 559.99998 h 220 V 752.5788 Z" /><path
       id="connector13pad"
       style="fill:#ffc000;stroke-width:1"
       d="M 5779.98,752.5788 V 559.99998 h 220 V 752.5788 Z" /><path
       id="connector12pad"
       style="fill:#ffc000;stroke-width:1"
       d="M 6179.98,752.5788 V 559.99998 h 220 V 752.5788 Z" /><path
       id="connector11pad"
       style="fill:#ffc000;stroke-width:1"
       d="M 6579.98,752.5788 V 559.99998 h 220 V 752.5788 Z" /><path
       id="connector10pad"
       style="fill:#ffc000;stroke-width:1"
       d="M 6979.97,752.5788 V 559.99998 h 220 V 752.5788 Z" /><path
       id="connector9pad"
       style="fill:#ffc000;stroke-width:1"
       d="M 7379.97,752.5788 V 559.99998 h 220 V 752.5788 Z" /><path
       id="connector8pad"
       style="fill:#ffc000;stroke-width:1"
       d="M 7779.97,752.5788 V 559.99998 h 220 V 752.5788 Z" /><path
       id="connector7pad"
       style="fill:#ffc000;stroke-width:1"
       d="M 8179.97,752.5788 V 559.99998 h 220 V 752.5788 Z" /><polygon
       id="connector6pad"
       width="0"
       height="0"
       dx="0"
       dy="0"
       x="0"
       y="0"
       transform="matrix(1,0,0,0.26024165,1.7770822e-6,559.74494)"
       style="stroke-width:1.96025" /><path
       id="connector5pad"
       fill="none"
       width="none"
       height="none"
       x="0"
       y="0"
       stroke="none" /><path
       id="connector4pad"
       fill="none"
       stroke="none"
       width="0"
       height="0"
       x="0"
       y="0" /><path
       id="connector3pad"
       fill="none"
       width="0"
       height="0"
       stroke="none"
       x="0"
       y="0" /><path
       id="connector2pad"
       width="0"
       height="0"
       x="0"
       y="0"
       fill="none"
       stroke="none" /><path
       id="connector1pad"
       fill="none"
       stroke="none"
       width="0"
       height="0"
       x="0"
       y="0" /><path
       id="connector0pad"
       fill="none"
       stroke="none"
       width="0"
       height="0"
       x="0"
       y="0" /><circle
       id="connector28pin"
       cx="10889.96"
       cy="735.49994"
       fill="#000000"
       stroke="#ffc000"
       stroke-width="50"
       r="85" /><circle
       id="connector29pin"
       cx="10089.96"
       cy="735.49994"
       fill="#000000"
       stroke="#ffc000"
       stroke-width="50"
       r="85" /><circle
       id="connector30pin"
       cx="9489.9697"
       cy="735.49994"
       fill="#000000"
       stroke="#ffc000"
       stroke-width="50"
       r="85" /><circle
       id="connector31pin"
       cx="9085.1777"
       cy="735.49994"
       fill="#000000"
       stroke="#ffc000"
       stroke-width="50"
       r="85" /><path
       id="nonconn64"
       width="0"
       height="0"
       dx="0"
       dy="0"
       x="0"
       y="0"
       d="" /><path
       id="nonconn63"
       fill="#ffc000"
       d="m 8399.97,735.5 c 0,60.75 -49.25,110 -110,110 -60.75,0 -110,-49.25 -110,-110 z" /><path
       id="nonconn62"
       fill="#ffc000"
       d="m 7999.97,735.5 c 0,60.75 -49.25,110 -110,110 -60.75,0 -110,-49.25 -110,-110 z" /><path
       id="nonconn61"
       fill="#ffc000"
       d="m 7599.97,735.5 c 0,60.75 -49.25,110 -110,110 -60.75,0 -110,-49.25 -110,-110 z" /><path
       id="nonconn60"
       fill="#ffc000"
       d="m 7199.97,735.5 c 0,60.75 -49.25,110 -110,110 -60.75,0 -110,-49.25 -110,-110 z" /><path
       id="nonconn59"
       fill="#ffc000"
       d="m 6799.98,735.5 c 0,60.75 -49.25,110 -110,110 -60.75,0 -110,-49.25 -110,-110 z" /><path
       id="nonconn58"
       fill="#ffc000"
       d="m 6399.98,735.5 c 0,60.75 -49.25,110 -110,110 -60.75,0 -110,-49.25 -110,-110 z" /><path
       id="nonconn57"
       fill="#ffc000"
       d="m 5999.98,735.5 c 0,60.75 -49.25,110 -110,110 -60.75,0 -110,-49.25 -110,-110 z" /><path
       id="nonconn56"
       fill="#ffc000"
       d="m 5599.98,735.5 c 0,60.75 -49.25,110 -110,110 -60.75,0 -110,-49.25 -110,-110 z" /><path
       id="nonconn55"
       fill="#ffc000"
       d="m 5199.98,735.5 c 0,60.75 -49.25,110 -110,110 -60.75,0 -110,-49.25 -110,-110 z" /><path
       id="nonconn54"
       fill="#ffc000"
       d="m 4799.98,735.5 c 0,60.75 -49.25,110 -110,110 -60.75,0 -110,-49.25 -110,-110 z" /><path
       id="nonconn53"
       fill="#ffc000"
       d="m 4399.99,735.5 c 0,60.75 -49.25,110 -110,110 -60.75,0 -110,-49.25 -110,-110 z" /><path
       id="nonconn52"
       fill="#ffc000"
       d="m 3599.99,735.5 c 0,60.75 -49.25,110 -110,110 -60.75,0 -110,-49.25 -110,-110 z" /><path
       id="nonconn51"
       fill="#ffc000"
       d="m 3999.99,735.5 c 0,60.75 -49.25,110 -110,110 -60.75,0 -110,-49.25 -110,-110 z" /><path
       id="nonconn50"
       fill="#ffc000"
       d="m 3199.99,735.5 c 0,60.75 -49.25,110 -110,110 -60.75,0 -110,-49.25 -110,-110 z" /><path
       id="nonconn49"
       fill="#ffc000"
       d="m 2799.99,735.5 c 0,60.75 -49.25,110 -110,110 -60.75,0 -110,-49.25 -110,-110 z" /><path
       id="nonconn48"
       fill="#ffc000"
       d="m 2399.99,735.5 c 0,60.75 -49.25,110 -110,110 -60.75,0 -110,-49.25 -110,-110 z" /><path
       id="nonconn47"
       fill="#ffc000"
       d="m 1999.99,735.5 c 0,60.75 -49.25,110 -110,110 -60.75,0 -110,-49.25 -110,-110 z" /><path
       id="nonconn46"
       fill="#ffc000"
       d="m 1600,735.5 c 0,60.75 -49.25,110 -110,110 -60.75,0 -110,-49.25 -110,-110 z" /><path
       id="nonconn45"
       fill="#ffc000"
       d="m 1200,735.5 c 0,60.75 -49.25,110 -110,110 -60.75,0 -110,-49.25 -110,-110 z" /><path
       id="nonconn44"
       fill="#ffc000"
       d="m 800,735.5 c 0,60.75 -49.25,110 -110,110 -60.75,0 -110,-49.25 -110,-110 z" /><path
       id="nonconn43"
       fill="#ffc000"
       d="m 400,735.5 c 0,60.75 -49.25,110 -110,110 -60.75,0 -110,-49.25 -110,-110 z" /></g><g
     id="copper0"
     style="display:inline"><g
       id="g5042"
       inkscape:label="pads2"
       transform="translate(-2597.1094,1857.6466)"><polygon
         id="connector59pad-8"
         fill="#ffc000"
         points="180,740.98 180,0.98 400,0.98 400,740.98 "
         style="display:inline"
         transform="translate(2597.1094,-1857.6466)" /><polygon
         id="connector58pad-2"
         fill="#ffc000"
         points="580,740.98 580,0.98 800,0.98 800,740.98 "
         style="display:inline"
         transform="translate(2597.1094,-1857.6466)" /><polygon
         id="connector57pad-9"
         fill="#ffc000"
         points="980,740.98 980,0.98 1200,0.98 1200,740.98 "
         style="display:inline"
         transform="translate(2597.1094,-1857.6466)" /><polygon
         id="connector56pad-9"
         fill="#ffc000"
         points="1380,740.98 1380,0.98 1600,0.98 1600,740.98 "
         style="display:inline"
         transform="translate(2597.1094,-1857.6466)" /><polygon
         id="connector55pad-6"
         fill="#ffc000"
         points="1779.99,740.98 1779.99,0.98 1999.99,0.98 1999.99,740.98 "
         style="display:inline"
         transform="translate(2597.1094,-1857.6466)" /><polygon
         id="connector54pad-0"
         fill="#ffc000"
         points="2179.99,740.98 2179.99,0.98 2399.99,0.98 2399.99,740.98 "
         style="display:inline"
         transform="translate(2597.1094,-1857.6466)" /><polygon
         id="connector53pad-2"
         fill="#ffc000"
         points="2579.99,740.98 2579.99,0.98 2799.99,0.98 2799.99,740.98 "
         style="display:inline"
         transform="translate(2597.1094,-1857.6466)" /><polygon
         id="connector52pad-7"
         fill="#ffc000"
         points="2979.99,740.98 2979.99,0.98 3199.99,0.98 3199.99,740.98 "
         style="display:inline"
         transform="translate(2597.1094,-1857.6466)" /><polygon
         id="connector51pad-6"
         fill="#ffc000"
         points="3379.99,740.98 3379.99,0.98 3599.99,0.98 3599.99,740.98 "
         style="display:inline"
         transform="translate(2597.1094,-1857.6466)" /><polygon
         id="connector50pad-1"
         fill="#ffc000"
         points="3779.99,740.98 3779.99,0.98 3999.99,0.98 3999.99,740.98 "
         style="display:inline"
         transform="translate(2597.1094,-1857.6466)" /><polygon
         id="connector49pad-3"
         fill="#ffc000"
         points="4179.99,740.98 4179.99,0.98 4399.99,0.98 4399.99,740.98 "
         style="display:inline"
         transform="translate(2597.1094,-1857.6466)" /><polygon
         id="connector48pad-2"
         fill="#ffc000"
         points="4579.98,740.98 4579.98,0.98 4799.98,0.98 4799.98,740.98 "
         style="display:inline"
         transform="translate(2597.1094,-1857.6466)" /><polygon
         id="connector47pad-1"
         fill="#ffc000"
         points="4979.98,740.98 4979.98,0.98 5199.98,0.98 5199.98,740.98 "
         style="display:inline"
         transform="translate(2597.1094,-1857.6466)" /><polygon
         id="connector46pad-5"
         fill="#ffc000"
         points="5379.98,740.98 5379.98,0.98 5599.98,0.98 5599.98,740.98 "
         style="display:inline"
         transform="translate(2597.1094,-1857.6466)" /><polygon
         id="connector45pad-9"
         fill="#ffc000"
         points="5779.98,740.98 5779.98,0.98 5999.98,0.98 5999.98,740.98 "
         style="display:inline"
         transform="translate(2597.1094,-1857.6466)" /><polygon
         id="connector44pad-9"
         fill="#ffc000"
         points="6179.98,740.98 6179.98,0.98 6399.98,0.98 6399.98,740.98 "
         style="display:inline"
         transform="translate(2597.1094,-1857.6466)" /><polygon
         id="connector43pad-1"
         fill="#ffc000"
         points="6579.98,740.98 6579.98,0.98 6799.98,0.98 6799.98,740.98 "
         style="display:inline"
         transform="translate(2597.1094,-1857.6466)" /><polygon
         id="connector42pad-4"
         fill="#ffc000"
         points="6979.97,740.98 6979.97,0.98 7199.97,0.98 7199.97,740.98 "
         style="display:inline"
         transform="translate(2597.1094,-1857.6466)" /><polygon
         id="connector41pad-9"
         fill="#ffc000"
         points="7379.97,740.98 7379.97,0.98 7599.97,0.98 7599.97,740.98 "
         style="display:inline"
         transform="translate(2597.1094,-1857.6466)" /><polygon
         id="connector40pad-1"
         fill="#ffc000"
         points="7779.97,740.98 7779.97,0.98 7999.97,0.98 7999.97,740.98 "
         style="display:inline"
         transform="translate(2597.1094,-1857.6466)" /><polygon
         id="connector39pad-0"
         fill="#ffc000"
         points="8179.97,740.98 8179.97,0.98 8399.97,0.98 8399.97,740.98 "
         style="display:inline"
         transform="translate(2597.1094,-1857.6466)" /><polygon
         id="connector38pad-7"
         width="0"
         height="0"
         dx="0"
         dy="0"
         x="0"
         y="0"
         style="display:inline"
         transform="translate(2597.1094,-1857.6466)" /><polygon
         id="connector37pad-5"
         fill="#ffc000"
         points="8979.97,740.98 8979.97,0.98 9199.97,0.98 9199.97,740.98 "
         style="display:inline"
         transform="translate(2597.1094,-1857.6466)" /><polygon
         id="connector36pad-8"
         fill="#ffc000"
         points="9379.97,740.98 9379.97,0.98 9599.97,0.98 9599.97,740.98 "
         style="display:inline"
         transform="translate(2597.1094,-1857.6466)" /><polygon
         id="connector35pad-7"
         fill="#ffc000"
         points="9779.96,740.98 9779.96,0.98 10399.96,0.98 10399.96,740.98 "
         style="display:inline"
         transform="translate(2597.1094,-1857.6466)" /><path
         id="connector34pad-0"
         style="display:inline;fill:#ffc000"
         d="m 12997.069,-1116.6666 c -194.554,135.66593 -400.313,145.82576 -620,0 v -740 h 620 z"
         sodipodi:nodetypes="ccccc" /><polygon
         id="connector33pad-4"
         fill="#ffc000"
         points="10579.96,740.98 10579.96,0.98 11199.96,0.98 11199.96,740.98 "
         style="display:inline"
         transform="translate(2597.1094,-1857.6466)" /><path
         id="connector32pad-8"
         style="display:inline;fill:#ffc000"
         d="m 13177.069,-1116.6666 v -740 h 620 v 740 c -195.365,141.01279 -402.531,134.7895 -620,0 z"
         sodipodi:nodetypes="ccccc" /></g><polygon
       id="connector59pad"
       fill="#ffc000"
       points="180,0.98 400,0.98 400,740.98 180,740.98 "
       transform="matrix(1,0,0,0.26017216,0,559.74501)"
       style="stroke-width:1.96051" /><polygon
       id="connector58pad"
       fill="#ffc000"
       points="580,0.98 800,0.98 800,740.98 580,740.98 "
       transform="matrix(1,0,0,0.26017216,0,559.74501)"
       style="stroke-width:1.96051" /><polygon
       id="connector57pad"
       fill="#ffc000"
       points="980,0.98 1200,0.98 1200,740.98 980,740.98 "
       transform="matrix(1,0,0,0.26017216,0,559.74501)"
       style="stroke-width:1.96051" /><polygon
       id="connector56pad"
       fill="#ffc000"
       points="1380,0.98 1600,0.98 1600,740.98 1380,740.98 "
       transform="matrix(1,0,0,0.26017216,0,559.74501)"
       style="stroke-width:1.96051" /><polygon
       id="connector55pad"
       fill="#ffc000"
       points="1779.99,0.98 1999.99,0.98 1999.99,740.98 1779.99,740.98 "
       transform="matrix(1,0,0,0.26017216,0,559.74501)"
       style="stroke-width:1.96051" /><polygon
       id="connector54pad"
       fill="#ffc000"
       points="2179.99,0.98 2399.99,0.98 2399.99,740.98 2179.99,740.98 "
       transform="matrix(1,0,0,0.26017216,0,559.74501)"
       style="stroke-width:1.96051" /><polygon
       id="connector53pad"
       fill="#ffc000"
       points="2579.99,0.98 2799.99,0.98 2799.99,740.98 2579.99,740.98 "
       transform="matrix(1,0,0,0.26017216,0,559.74501)"
       style="stroke-width:1.96051" /><polygon
       id="connector52pad"
       fill="#ffc000"
       points="2979.99,0.98 3199.99,0.98 3199.99,740.98 2979.99,740.98 "
       transform="matrix(1,0,0,0.26017216,0,559.74501)"
       style="stroke-width:1.96051" /><polygon
       id="connector51pad"
       fill="#ffc000"
       points="3379.99,0.98 3599.99,0.98 3599.99,740.98 3379.99,740.98 "
       transform="matrix(1,0,0,0.26017216,0,559.74501)"
       style="stroke-width:1.96051" /><polygon
       id="connector50pad"
       fill="#ffc000"
       points="3779.99,0.98 3999.99,0.98 3999.99,740.98 3779.99,740.98 "
       transform="matrix(1,0,0,0.26017216,0,559.74501)"
       style="stroke-width:1.96051" /><polygon
       id="connector49pad"
       fill="#ffc000"
       points="4179.99,0.98 4399.99,0.98 4399.99,740.98 4179.99,740.98 "
       transform="matrix(1,0,0,0.26017216,0,559.74501)"
       style="stroke-width:1.96051" /><polygon
       id="connector48pad"
       fill="#ffc000"
       points="4579.98,0.98 4799.98,0.98 4799.98,740.98 4579.98,740.98 "
       transform="matrix(1,0,0,0.26017216,0,559.74501)"
       style="stroke-width:1.96051" /><polygon
       id="connector47pad"
       fill="#ffc000"
       points="4979.98,0.98 5199.98,0.98 5199.98,740.98 4979.98,740.98 "
       transform="matrix(1,0,0,0.26017216,0,559.74501)"
       style="stroke-width:1.96051" /><polygon
       id="connector46pad"
       fill="#ffc000"
       points="5379.98,0.98 5599.98,0.98 5599.98,740.98 5379.98,740.98 "
       transform="matrix(1,0,0,0.26017216,0,559.74501)"
       style="stroke-width:1.96051" /><polygon
       id="connector45pad"
       fill="#ffc000"
       points="5779.98,0.98 5999.98,0.98 5999.98,740.98 5779.98,740.98 "
       transform="matrix(1,0,0,0.26017216,0,559.74501)"
       style="stroke-width:1.96051" /><polygon
       id="connector44pad"
       fill="#ffc000"
       points="6179.98,0.98 6399.98,0.98 6399.98,740.98 6179.98,740.98 "
       transform="matrix(1,0,0,0.26017216,0,559.74501)"
       style="stroke-width:1.96051" /><polygon
       id="connector43pad"
       fill="#ffc000"
       points="6579.98,0.98 6799.98,0.98 6799.98,740.98 6579.98,740.98 "
       transform="matrix(1,0,0,0.26017216,0,559.74501)"
       style="stroke-width:1.96051" /><polygon
       id="connector42pad"
       fill="#ffc000"
       points="6979.97,0.98 7199.97,0.98 7199.97,740.98 6979.97,740.98 "
       transform="matrix(1,0,0,0.26017216,0,559.74501)"
       style="stroke-width:1.96051" /><polygon
       id="connector41pad"
       fill="#ffc000"
       points="7379.97,0.98 7599.97,0.98 7599.97,740.98 7379.97,740.98 "
       transform="matrix(1,0,0,0.26017216,0,559.74501)"
       style="stroke-width:1.96051" /><polygon
       id="connector40pad"
       fill="#ffc000"
       points="7779.97,0.98 7999.97,0.98 7999.97,740.98 7779.97,740.98 "
       transform="matrix(1,0,0,0.26017216,0,559.74501)"
       style="stroke-width:1.96051" /><polygon
       id="connector39pad"
       fill="#ffc000"
       points="8179.97,0.98 8399.97,0.98 8399.97,740.98 8179.97,740.98 "
       transform="matrix(1,0,0,0.26017216,0,559.74501)"
       style="stroke-width:1.96051" /><polygon
       id="connector38pad"
       width="0"
       height="0"
       dx="0"
       dy="0"
       x="0"
       y="0" /><path
       id="connector37pad"
       width="0"
       height="0"
       fill="none"
       stroke="none"
       x="0"
       y="0" /><path
       id="connector36pad"
       fill="0"
       width="0"
       height="0"
       stroke="0"
       x="0"
       y="0" /><path
       id="connector35pad"
       fill="none"
       height="0"
       width="0" /><path
       id="connector34pad"
       fill="none"
       width="0"
       height="0"
       x="0"
       y="0"
       stroke="0" /><path
       id="connector33pad"
       fill="none"
       width="0"
       height="0"
       x="0"
       y="0"
       stroke="none" /><path
       id="connector32pad"
       x="0"
       y="0"
       width="0"
       height="0"
       fill="none"
       stroke="none" /><circle
       id="connector63pin"
       cx="9089.9697"
       cy="735.49994"
       fill="#000000"
       stroke="#ffc000"
       stroke-width="50"
       r="85" /><circle
       id="connector62pin"
       cx="9489.9697"
       cy="735.49994"
       fill="#000000"
       stroke="#ffc000"
       stroke-width="50"
       r="85" /><circle
       id="connector61pin"
       cx="10089.96"
       cy="735.49994"
       fill="#000000"
       stroke="#ffc000"
       stroke-width="50"
       r="85" /><circle
       id="connector60pin"
       cx="10889.96"
       cy="735.49994"
       fill="#000000"
       stroke="#ffc000"
       stroke-width="50"
       r="85" /><path
       id="nonconn28"
       width="0"
       height="0"
       dx="0"
       dy="0"
       x="0"
       y="0"
       d="" /><path
       id="nonconn27"
       fill="#ffc000"
       d="m 8399.97,735.5 c 0,60.75 -49.25,110 -110,110 -60.75,0 -110,-49.25 -110,-110 z" /><path
       id="nonconn26"
       fill="#ffc000"
       d="m 7999.97,735.5 c 0,60.75 -49.25,110 -110,110 -60.75,0 -110,-49.25 -110,-110 z" /><path
       id="nonconn25"
       fill="#ffc000"
       d="m 7599.97,735.5 c 0,60.75 -49.25,110 -110,110 -60.75,0 -110,-49.25 -110,-110 z" /><path
       id="nonconn24"
       fill="#ffc000"
       d="m 7199.97,735.5 c 0,60.75 -49.25,110 -110,110 -60.75,0 -110,-49.25 -110,-110 z" /><path
       id="nonconn23"
       fill="#ffc000"
       d="m 6799.98,735.5 c 0,60.75 -49.25,110 -110,110 -60.75,0 -110,-49.25 -110,-110 z" /><path
       id="nonconn22"
       fill="#ffc000"
       d="m 6399.98,735.5 c 0,60.75 -49.25,110 -110,110 -60.75,0 -110,-49.25 -110,-110 z" /><path
       id="nonconn21"
       fill="#ffc000"
       d="m 5999.98,735.5 c 0,60.75 -49.25,110 -110,110 -60.75,0 -110,-49.25 -110,-110 z" /><path
       id="nonconn20"
       fill="#ffc000"
       d="m 5599.98,735.5 c 0,60.75 -49.25,110 -110,110 -60.75,0 -110,-49.25 -110,-110 z" /><path
       id="nonconn19"
       fill="#ffc000"
       d="m 5199.98,735.5 c 0,60.75 -49.25,110 -110,110 -60.75,0 -110,-49.25 -110,-110 z" /><path
       id="nonconn18"
       fill="#ffc000"
       d="m 4799.98,735.5 c 0,60.75 -49.25,110 -110,110 -60.75,0 -110,-49.25 -110,-110 z" /><path
       id="nonconn17"
       fill="#ffc000"
       d="m 4399.99,735.5 c 0,60.75 -49.25,110 -110,110 -60.75,0 -110,-49.25 -110,-110 z" /><path
       id="nonconn16"
       fill="#ffc000"
       d="m 3599.99,735.5 c 0,60.75 -49.25,110 -110,110 -60.75,0 -110,-49.25 -110,-110 z" /><path
       id="nonconn15"
       fill="#ffc000"
       d="m 3999.99,735.5 c 0,60.75 -49.25,110 -110,110 -60.75,0 -110,-49.25 -110,-110 z" /><path
       id="nonconn14"
       fill="#ffc000"
       d="m 3199.99,735.5 c 0,60.75 -49.25,110 -110,110 -60.75,0 -110,-49.25 -110,-110 z" /><path
       id="nonconn13"
       fill="#ffc000"
       d="m 2799.99,735.5 c 0,60.75 -49.25,110 -110,110 -60.75,0 -110,-49.25 -110,-110 z" /><path
       id="nonconn12"
       fill="#ffc000"
       d="m 2399.99,735.5 c 0,60.75 -49.25,110 -110,110 -60.75,0 -110,-49.25 -110,-110 z" /><path
       id="nonconn11"
       fill="#ffc000"
       d="m 1999.99,735.5 c 0,60.75 -49.25,110 -110,110 -60.75,0 -110,-49.25 -110,-110 z" /><path
       id="nonconn10"
       fill="#ffc000"
       d="m 1600,735.5 c 0,60.75 -49.25,110 -110,110 -60.75,0 -110,-49.25 -110,-110 z" /><path
       id="nonconn9"
       fill="#ffc000"
       d="m 1200,735.5 c 0,60.75 -49.25,110 -110,110 -60.75,0 -110,-49.25 -110,-110 z" /><path
       id="nonconn8"
       fill="#ffc000"
       d="m 800,735.5 c 0,60.75 -49.25,110 -110,110 -60.75,0 -110,-49.25 -110,-110 z" /><path
       id="nonconn6"
       fill="#ffc000"
       d="m 400,735.5 c 0,60.75 -49.25,110 -110,110 -60.75,0 -110,-49.25 -110,-110 z" /></g><g
     id="silkscreen"
     inkscape:groupmode="layer"
     style="display:inline"><path
       id="cilque1"
       fill="#000000"
       d="m 8870,0 h 20 v 655.5 10 h -0.38 c -3.63,48.62 -33.04,92.29 -65.16,124.41 -34.43,34.38 -81.97,55.59 -134.46,55.59 -52.49,0 -100.03,-21.21 -134.42,-55.59 -32.16,-32.12 -61.57,-75.79 -65.2,-124.41 H 8490 V 655.5 0 h 20 v 655.5 c 0,47.1 28.99,89.58 59.68,120.27 30.75,30.77 73.31,49.73 120.32,49.73 47.01,0 89.57,-18.96 120.34,-49.71 C 8841.01,745.08 8870,702.6 8870,655.5 Z" /><path
       id="cilque2"
       fill="#000000"
       fill-rule="nonzero"
       d="m 11379.99,23.87 h -20 V 0.98 h 20 z m 0,822.61 v -21.55 h -20 v 21.55 z m 0,-44.44 h -20 v -22.88 h 20 z m 0,-45.77 h -20 v -22.89 h 20 z m 0,-45.78 h -20 V 687.6 h 20 z m 0,-45.77 h -20 v -22.89 h 20 z m 0,-45.78 h -20 v -22.89 h 20 z m 0,-45.78 h -20 v -22.88 h 20 z m 0,-45.77 h -20 V 504.5 h 20 z m 0,-45.78 h -20 v -22.88 h 20 z m 0,-45.77 h -20 v -22.89 h 20 z m 0,-45.78 h -20 v -22.89 h 20 z m 0,-45.77 h -20 V 321.4 h 20 z m 0,-45.78 h -20 v -22.89 h 20 z m 0,-45.78 h -20 v -22.87 h 20 z m 0,-45.76 h -20 v -22.89 h 20 z m 0,-45.78 h -20 v -22.88 h 20 z m 0,-45.77 h -20 V 92.53 h 20 z m 0,-45.78 h -20 V 46.76 h 20 z" /><path
       id="cilque2-0"
       fill="#000000"
       fill-rule="nonzero"
       d="M 20,22.89 H 0 V 0 H 20 Z M 20,845.5 V 823.95 H 0 v 21.55 z m 0,-44.44 H 0 v -22.88 h 20 z m 0,-45.77 H 0 V 732.4 h 20 z m 0,-45.78 H 0 v -22.89 h 20 z m 0,-45.77 H 0 v -22.89 h 20 z m 0,-45.78 H 0 v -22.89 h 20 z m 0,-45.78 H 0 V 549.3 h 20 z m 0,-45.77 H 0 v -22.89 h 20 z m 0,-45.78 H 0 v -22.88 h 20 z m 0,-45.77 H 0 v -22.89 h 20 z m 0,-45.78 H 0 v -22.89 h 20 z m 0,-45.77 H 0 v -22.89 h 20 z m 0,-45.78 H 0 v -22.89 h 20 z m 0,-45.78 H 0 v -22.87 h 20 z m 0,-45.76 H 0 V 183.1 h 20 z m 0,-45.78 H 0 v -22.88 h 20 z m 0,-45.77 H 0 V 91.55 H 20 Z M 20,68.66 H 0 V 45.78 h 20 z"
       style="display:inline" /></g></svg>
