<?xml version='1.0' encoding='UTF-8' standalone='no'?>
<!-- Created with Fritzing (https://fritzing.org/) -->
<svg xmlns="http://www.w3.org/2000/svg"  version="1.2" y="0in" height="0.590551in" baseProfile="tiny" x="0in" viewBox="0 0 433.071 590.551" width="0.433071in">
    <desc >
        <referenceFile >microSD.svg</referenceFile>
    </desc>
    <g  id="silkscreen" gorn="0.1">
        <path  fill="black" id="path901" gorn="0.1.0" d="M51.2598,200.114l0,-166.185c0,-18.6575,15.2835,-33.9252,33.9646,-33.9252l313.878,0c12.8307,0,24.0591,7.20079,29.8346,17.7559l0,0,0.00393701,0.00787402,0.0354331,0.0629921c0.11811,0.220472,0.23622,0.440945,0.350394,0.665354l0.0314961,0.0551181c0.110236,0.220472,0.220472,0.440945,0.326772,0.661417l0.0433071,0.0826772c0.106299,0.224409,0.212598,0.448819,0.314961,0.677165l0.023622,0.0511811c0.106299,0.232283,0.208661,0.468504,0.311024,0.700787l0.019685,0.0511811c0.102362,0.244094,0.204724,0.484252,0.299213,0.728346l0.019685,0.0433071c0.0944882,0.240157,0.185039,0.476378,0.271654,0.716535l0.0275591,0.0748031c0.0866142,0.232283,0.169291,0.468504,0.248031,0.704724l0.0275591,0.0708661c0.0787402,0.240157,0.15748,0.480315,0.23622,0.720472l0.019685,0.0629921c0.0748031,0.248031,0.149606,0.496063,0.220472,0.744094l0.011811,0.0433071c0.0748031,0.26378,0.145669,0.523622,0.216535,0.787402l0.00393701,0.011811c0.0669291,0.26378,0.129921,0.527559,0.192913,0.795276l0.00787402,0.0275591c0.0590551,0.26378,0.11811,0.527559,0.173228,0.795276l0.00787402,0.0275591c0.0511811,0.259843,0.102362,0.523622,0.149606,0.787402l0.011811,0.0511811c0.0472441,0.267717,0.0905512,0.53937,0.133858,0.811024l0,0c0.0433071,0.279528,0.0826772,0.555118,0.11811,0.834646l0,0.011811,0.00393701,0.00787402c0.0314961,0.275591,0.0669291,0.551181,0.0944882,0.830709l0.00393701,0.023622c0.0275591,0.275591,0.0511811,0.555118,0.0708661,0.830709l0.00393701,0.019685c0.019685,0.275591,0.0393701,0.551181,0.0511811,0.826772l0.00393701,0.0433071c0.011811,0.279528,0.023622,0.559055,0.0314961,0.838583l0,0.015748c0.00787402,0.287402,0.011811,0.57874,0.011811,0.866142l0,0,0,166.185,0,51.0276,0,305.484c0,18.6614,-15.2835,33.9252,-33.9685,33.9252l-365.138,0c-18.6811,0,-33.9646,-15.2638,-33.9646,-33.9252l0,-168.295,28.7638,-27.6142,0.232283,-40.563c0.0354331,-6.22047,-5.09449,-11.3071,-11.3228,-11.3071l-17.6732,0,0,-57.7047,51.2598,-51.0276zm9.84252,-166.185l0,166.185,0,4.05512,-2.92126,2.90551,-48.3386,48.1181,0,43.811,7.83071,0,0.0669291,0,0.0393701,0.0393701c5.77953,0.0354331,11.0472,2.3937,14.8268,6.16535,3.84252,3.8189,6.23228,9.09055,6.23228,14.8819l0,0.0629921,-0.0393701,0.0393701,-0.232283,40.563,-0.023622,4.1811,-2.97244,2.85433,-25.7283,24.7008,0,164.134c0,6.63386,2.70472,12.6535,7.05512,17,4.37402,4.37008,10.4173,7.08268,17.0669,7.08268l365.138,0c6.64961,0,12.6969,-2.7126,17.0709,-7.08268,4.35039,-4.34646,7.05512,-10.3661,7.05512,-17l0,-305.484,0,-51.0276,0,-166.185,0.0393701,0,-0.00787402,-0.535433,-0.00393701,0,-0.00787402,-0.244094,-0.0314961,-0.0866142,0,-0.015748,0.0275591,0,-0.00787402,-0.185039,-0.015748,-0.122047,-0.023622,-0.389764,-0.0314961,-0.224409,-0.0708661,-0.830709,0.00787402,0,-0.0511811,-0.437008,-0.102362,-0.732283,0,0,-0.0511811,-0.318898,-0.015748,-0.0826772,-0.0590551,-0.307087,-0.0590551,-0.240157,-0.173228,-0.795276,0.015748,-0.00393701,-0.141732,-0.586614,0.00393701,0,-0.106299,-0.385827,-0.015748,0.00393701,-0.161417,-0.53937,0,0,-0.015748,-0.0511811,-0.00393701,0,-0.019685,-0.0629921,0,0,-0.19685,-0.606299,0.00393701,0,-0.149606,-0.425197,-0.00393701,0,-0.00393701,-0.00787402,-0.00787402,0.00393701,-0.0275591,-0.0748031,0.00787402,-0.00393701,-0.240157,-0.633858,0.00393701,0,-0.208661,-0.503937,-0.0511811,-0.153543,-0.0984252,-0.224409,-0.0275591,0.011811,-0.023622,-0.0511811,-0.314961,-0.677165,0,0,-0.00787402,-0.015748,-0.00787402,-0.015748,-0.153543,-0.307087,-0.228346,-0.437008,-0.00787402,0.00393701,-0.0354331,-0.0629921,-0.0629921,-0.141732,-0.015748,-0.0275591,0,0,-0.0433071,-0.0984252c-2.0748,-3.73622,-5.14961,-6.88976,-8.85039,-9.09055l0,-0.0354331c-3.55512,-2.11417,-7.75984,-3.33465,-12.2913,-3.33465l-313.878,0c-6.64173,0,-12.6929,2.7126,-17.0669,7.08268,-4.34646,4.34646,-7.05512,10.3661,-7.05512,17z"/>
    </g>
    <g stroke="none"  fill="#d4aa00" id="copper1" gorn="0.2" fill-opacity="1">
        <rect stroke="none"  fill="#d4aa00" y="43.311" height="116.512" id="connector0pad" gorn="0.2.0" fill-opacity="1" x="74.7126" width="31.4961"/>
        <rect stroke="none"  fill="#d4aa00" y="43.311" height="116.512" id="connector1pad" gorn="0.2.1" fill-opacity="1" x="118.004" width="31.4961"/>
        <rect stroke="none"  fill="#d4aa00" y="43.311" height="116.512" id="connector2pad" gorn="0.2.2" fill-opacity="1" x="161.311" width="31.4961"/>
        <rect stroke="none"  fill="#d4aa00" y="31.5157" height="128.307" id="connector3pad" gorn="0.2.3" fill-opacity="1" x="204.618" width="31.4961"/>
        <rect stroke="none"  fill="#d4aa00" y="43.311" height="116.512" id="connector4pad" gorn="0.2.4" fill-opacity="1" x="247.925" width="31.4961"/>
        <rect stroke="none"  fill="#d4aa00" y="31.5157" height="128.307" id="connector5pad" gorn="0.2.5" fill-opacity="1" x="291.232" width="31.4961"/>
        <rect stroke="none"  fill="#d4aa00" y="43.311" height="116.512" id="connector6pad" gorn="0.2.6" fill-opacity="1" x="334.539" width="31.4961"/>
        <rect stroke="none"  fill="#d4aa00" y="43.311" height="116.512" id="connector7pad" gorn="0.2.7" fill-opacity="1" x="377.846" width="31.4961"/>
    </g>
</svg>
