<?xml version="1.0" encoding="UTF-8" standalone="no"?>
<svg
   viewBox="0 0 33.150589 26.984252"
   version="1.1"
   width="8.4200001mm"
   height="6.8540001mm"
   id="svg2"
   gorn="0"
   xmlns="http://www.w3.org/2000/svg"
   xmlns:svg="http://www.w3.org/2000/svg">
  <defs
     id="defs3">
    <defs
       id="defs2" />
  </defs>
  <desc
     id="desc1">
    <referenceFile>IND-SMD-L7.0-W6.6-0630CDMCCDS_2024-03-30.svg</referenceFile>
  </desc>
  <g
     id="silkscreen"
     gorn="0.1.0.0.1"
     transform="translate(-3961.4,-2986)">
    <path
       d="m 3991.7537,2985.9993 c 0.069,0 0.1354,0.013 0.1953,0.039 -0.06,-0.025 -0.1262,-0.039 -0.1953,-0.039 z m 0.1953,0.039 c 0.06,0.025 0.1134,0.062 0.1587,0.1078 -0.045,-0.045 -0.099,-0.082 -0.1587,-0.1078 z m 0.1587,0.1078 c 0.045,0.045 0.082,0.099 0.1078,0.1587 -0.025,-0.06 -0.062,-0.1134 -0.1078,-0.1587 z m 0.1078,0.1587 c 0.025,0.06 0.039,0.1262 0.039,0.1953 1e-4,-0.069 -0.013,-0.1354 -0.039,-0.1953 z m 0.039,0.1953 c 3e-4,0.2766 -0.224,0.5008 -0.5005,0.5005 h -0.4985 v 4.6938 c -2e-4,0.2757 0.2228,0.4997 0.4985,0.5005 0.2765,3e-4 0.5008,-0.224 0.5005,-0.5005 z"
       id="path9"
       gorn="0.1.0.0.1.0"
       fill="black"
       stroke="none" />
    <path
       d="m 3964.1955,2985.9993 c 0.2765,-2e-4 0.5008,0.224 0.5005,0.5005 v 0.5005 h 27.0577 c 0.2765,3e-4 0.5008,-0.2239 0.5005,-0.5005 3e-4,-0.2765 -0.224,-0.5007 -0.5005,-0.5005 z m -0.1953,0.039 c -0.06,0.025 -0.1134,0.062 -0.1587,0.1078 0.045,-0.045 0.099,-0.082 0.1587,-0.1078 z m -0.1587,0.1078 c -0.045,0.045 -0.082,0.099 -0.1078,0.1587 0.025,-0.06 0.062,-0.1134 0.1078,-0.1587 z"
       fill="#000000"
       id="path6"
       stroke="none"
       gorn="0.1.0.0.1.1" />
    <path
       d="m 3964.696,3011.9848 v 0.5005 c -8e-4,0.2758 -0.2247,0.4988 -0.5005,0.4985 h 27.5582 c -0.2749,-9e-4 -0.4976,-0.2235 -0.4985,-0.4985 v -0.5005 z m -0.9603,0.6938 c 0.025,0.06 0.061,0.1136 0.1058,0.1587 -0.045,-0.045 -0.08,-0.099 -0.1058,-0.1587 z m 0.1058,0.1587 c 0.045,0.045 0.099,0.083 0.1587,0.1078 -0.06,-0.025 -0.1134,-0.063 -0.1587,-0.1078 z m 28.372,-0.1587 c -0.025,0.06 -0.061,0.1136 -0.1058,0.1587 0.045,-0.045 0.08,-0.099 0.1058,-0.1587 z m -0.1058,0.1587 c -0.045,0.045 -0.099,0.083 -0.1587,0.1078 0.06,-0.025 0.1134,-0.063 0.1587,-0.1078 z"
       fill="#000000"
       id="path5"
       stroke="none"
       gorn="0.1.0.0.1.2" />
    <path
       d="m 3964.1955,2985.9993 c -0.2765,-2e-4 -0.5008,0.224 -0.5005,0.5005 v 5.1943 c -3e-4,0.2765 0.224,0.5008 0.5005,0.5005 0.2765,3e-4 0.5008,-0.224 0.5005,-0.5005 v -5.1943 c 3e-4,-0.2765 -0.224,-0.5007 -0.5005,-0.5005 z"
       fill="#000000"
       id="path4"
       stroke="none"
       gorn="0.1.0.0.1.3" />
    <path
       d="m 3964.1955,3006.7906 c -0.2765,-3e-4 -0.5008,0.2239 -0.5005,0.5005 v 5.1942 c 9e-4,0.2758 0.2248,0.4988 0.5005,0.4985 0.2758,3e-4 0.4997,-0.2227 0.5005,-0.4985 v -5.1942 c 3e-4,-0.2766 -0.224,-0.5008 -0.5005,-0.5005 z"
       fill="#000000"
       id="path3"
       stroke="none"
       gorn="0.1.0.0.1.4" />
    <path
       d="m 3991.7537,3006.7906 a 0.5,0.5 0 0 0 -0.4985,0.5005 v 5.1942 a 0.5,0.5 0 0 0 0.4985,0.4985 0.5,0.5 0 0 0 0.5005,-0.4985 v -5.1942 a 0.5,0.5 0 0 0 -0.5005,-0.5005 z"
       fill="#000000"
       id="path2"
       stroke="none"
       gorn="0.1.0.0.1.5" />
  </g>
  <g
     id="copper1"
     gorn="0.1.0.0.2"
     transform="translate(-3961.4,-2986)">
    <path
       d="m 3961.4,2992.6035 v 13.7781 h 9.2512 v -13.7781 z"
       fill="#ffc000"
       id="connector0pin"
       stroke="none"
       gorn="0.1.0.0.2.0" />
    <path
       d="m 3985.298,2992.6035 v 13.7781 h 9.2512 v -13.7781 z"
       fill="#ffc000"
       id="connector1pin"
       stroke="none"
       gorn="0.1.0.0.2.1" />
  </g>
</svg>
