<?xml version='1.0' encoding='UTF-8' standalone='no'?>
<svg xmlns="http://www.w3.org/2000/svg"  style="clip-rule:evenodd;fill-rule:evenodd;image-rendering:optimizeQuality;shape-rendering:geometricPrecision;text-rendering:geometricPrecision" viewBox="0 0 946.50002 690.00001" width="9.4650002mm" gorn="0" xml:space="preserve" id="svg1196" height="6.9000001mm" xmlns:xml="http://www.w3.org/XML/1998/namespace" version="1.0">
    <desc >
        <referenceFile >74HCC04.svg</referenceFile>
    </desc>
    <defs  id="defs1200"/>
    <g  style="clip-rule:evenodd;fill-rule:evenodd;image-rendering:optimizeQuality;shape-rendering:geometricPrecision;text-rendering:geometricPrecision" gorn="0.2" id="copper1">
        <rect  style="fill:#f7bd13" width="60.080002" gorn="0.2.0" height="195" id="connector13pin" x="62.230011" y="0.0099999998"/>
        <rect  style="fill:#f7bd13" width="60.080002" gorn="0.2.1" height="195" id="connector12pin" x="189.29007" y="0.0099999998"/>
        <rect  style="fill:#f7bd13" width="60.080002" gorn="0.2.2" height="195" id="connector11pin" x="316.20999" y="0.0099999998"/>
        <rect  style="fill:#f7bd13" width="60.080002" gorn="0.2.3" height="195" id="connector10pin" x="443.27005" y="0.0099999998"/>
        <rect  style="fill:#f7bd13" width="60.080002" gorn="0.2.4" height="195" id="connector9pin" x="570.32007" y="0.0099999998"/>
        <rect  style="fill:#f7bd13" width="60.080002" gorn="0.2.5" height="195" id="connector8pin" x="697.22998" y="0.0099999998"/>
        <rect  style="fill:#f7bd13" width="60.080002" gorn="0.2.6" height="195" id="connector7pin" x="824.19019" y="0.0099999998"/>
        <rect  style="fill:#f7bd13" width="60.080002" gorn="0.2.7" height="195" id="connector0pin" x="62.230011" y="495.00024"/>
        <rect  style="fill:#f7bd13" width="60.080002" gorn="0.2.8" height="195" id="connector1pin" x="189.29007" y="495.00024"/>
        <rect  style="fill:#f7bd13" width="60.080002" gorn="0.2.9" height="195" id="connector2pin" x="316.20999" y="495.00024"/>
        <rect  style="fill:#f7bd13" width="60.080002" gorn="0.2.10" height="195" id="connector3pin" x="443.27005" y="495.00024"/>
        <rect  style="fill:#f7bd13" width="60.080002" gorn="0.2.11" height="195" id="connector4pin" x="570.32007" y="495.00024"/>
        <rect  style="fill:#f7bd13" width="60.080002" gorn="0.2.12" height="195" id="connector5pin" x="697.22998" y="495.00024"/>
        <rect  style="fill:#f7bd13" width="60.080002" gorn="0.2.13" height="195" id="connector6pin" x="824.19019" y="495.00024"/>
    </g>
    <g  gorn="0.3" id="silkscreen">
        <path  gorn="0.3.0" stroke-width="4.97894" fill="#000000" id="path161" d="m 3.3178435,201.51939 v 56.72135 58.44994 h 5.5304627 c 8.5283948,0 15.7950568,2.74027 23.6207608,8.92427 19.970229,15.78072 10.742799,42.13246 -16.69476,47.63628 L 4.454948,375.5426 3.8863957,433.26893 3.2661569,490.95507 28.799321,491.39726 H 142.09628 v -0.44219 l 19.74427,0.44219 h 131.12882 l 19.69257,-0.44219 v 0.44219 h 77.52985 v -0.28139 h 23.87921 23.87919 v 0.28139 h 200.23376 v -0.28139 h 23.93088 23.87919 v 0.28139 h 77.47817 v -0.28139 h 23.82751 23.8275 v 0.28139 h 77.47817 v -0.28139 h 30.65013 30.70183 V 345.43324 201.51939 Z m 721.2860365,1.80897 0.62025,49.92765 0.62023,49.92767 15.29923,0.56278 15.3509,0.52259 v 10.69304 c 0,8.61332 0.74239,10.69305 3.66976,10.69305 2.00137,0 13.41841,-4.52801 25.37811,-10.09004 l 21.76004,-10.13026 6.66757,3.13556 c 6.46734,3.01888 6.94713,2.98826 13.23176,-0.68339 4.37886,-2.55828 9.84781,-3.81895 16.79814,-3.81895 h 10.389 v -50.32965 -50.32964 h 45.48417 45.53586 V 345.43324 487.49793 H 837.28062 729.204 v -48.52068 -48.60108 h -11.26768 c -8.96869,0 -11.81506,-0.72278 -13.74862,-3.57774 -2.85932,-4.22188 -12.92242,-4.79856 -19.27909,-1.12558 -3.75935,2.17224 -6.9031,1.23459 -27.75569,-8.1203 -12.92046,-5.79635 -24.4805,-10.49202 -25.73991,-10.49202 -1.30129,0 -2.3259,4.97556 -2.3259,11.61762 v 11.69802 h -13.64525 c -13.35839,0 -13.67195,0.1466 -13.74862,4.98473 -0.043,2.71972 -0.032,23.21121 0.0517,45.54591 0.0838,22.33472 -0.44011,41.9682 -1.24048,43.61636 -1.3063,2.69001 -7.47886,2.97476 -60.3699,2.97476 h -58.9227 v -48.52068 c 0,-37.53342 -0.64377,-48.60541 -2.84275,-48.76188 -1.56442,-0.11132 -7.13613,-0.36571 -12.3531,-0.52259 -5.35005,-0.16088 -11.40019,-1.62339 -13.852,-3.37674 -5.01175,-3.58408 -9.52078,-3.87903 -17.05657,-1.16579 -4.61111,1.66021 -8.39286,0.52507 -27.34219,-8.12028 -12.07315,-5.50819 -23.02647,-9.96944 -24.34438,-9.96944 -1.4321,0 -2.37757,4.6321 -2.37757,11.61762 v 11.69802 h -14.73068 -14.83404 v 48.60108 48.52068 h -57.99235 -58.04404 v -48.52068 -48.60108 h -12.45645 c -10.10642,0 -12.90621,-0.65495 -14.88572,-3.57774 -2.88099,-4.25384 -13.99097,-4.8992 -18.03862,-1.04518 -2.25422,2.14633 -6.36252,0.82516 -25.84328,-8.12029 -12.7514,-5.85535 -24.47943,-10.57243 -26.05003,-10.57243 -2.00092,0 -2.84277,3.53555 -2.84277,11.81863 v 11.81861 l -10.85417,-0.3216 c -5.94482,-0.1612 -12.04958,-0.20847 -13.59357,-0.12059 -2.13473,0.1215 -2.95046,11.66208 -3.41131,48.23928 l -0.56856,48.11868 -49.567413,0.44219 -49.4640456,0.48239 v -53.90739 -53.9074 l 9.0968356,-1.88938 C 36.194037,373.74194 51.101436,355.94556 47.613221,341.2525 44.239412,327.04129 31.754717,316.96204 11.79444,312.30894 8.0553287,311.4373 7.8735666,307.68687 8.4348137,257.83875 l 0.5685523,-53.58581 107.508064,-0.40198 107.50805,-0.4824 v 50.36985 50.32965 h 15.86779 15.81608 l 0.67193,11.65783 0.67192,11.61762 24.29268,-10.85384 c 24.27619,-10.81987 24.33773,-10.8367 31.47713,-7.91927 6.68397,2.73128 7.54399,2.72948 13.23176,-0.32161 3.34637,-1.79508 10.70104,-3.68627 16.33296,-4.18073 l 10.23393,-0.88438 0.20676,-10.81365 c 0.11828,-5.9339 0.37395,-28.33683 0.56854,-49.84725 l 0.36182,-39.11401 h 59.1811 59.12944 v 50.32964 50.32965 h 15.81608 15.8678 l 0.62022,11.65783 0.72362,11.61762 24.18931,-10.77344 24.13763,-10.77344 6.97769,3.17576 c 6.79066,3.07971 7.15972,3.02543 13.852,-0.88439 4.4447,-2.59673 10.1291,-4.01994 16.07452,-4.01994 5.81007,0 9.21829,-0.83081 9.25189,-2.25117 0.0291,-1.23622 0.23318,-23.67936 0.51687,-49.88745 l 0.56856,-47.6765 61.97219,-0.44218 z m -496.03597,0.0805 h 59.18111 c 37.89842,0 59.15505,0.61692 59.18113,1.76876 0.0223,0.98899 0.073,22.65233 0.10336,48.11869 l 0.10338,46.26951 -6.61588,0.56279 c -4.98581,0.4116 -7.50686,-0.58423 -10.38901,-4.06014 -4.79101,-5.77805 -15.5802,-6.26388 -20.3128,-0.92458 -3.16697,3.57286 -3.77419,3.4532 -26.87703,-7.15551 -12.98979,-5.9648 -24.33791,-10.89402 -25.22304,-10.89402 -0.88509,0 -1.90161,5.07468 -2.27421,11.25583 l -0.67193,11.21563 -13.0767,0.56279 -13.12838,0.52259 v -48.6011 z m 248.09551,0 h 59.12944 59.18113 v 48.52067 48.56087 h -6.56422 c -4.49148,0 -7.78707,-1.42669 -10.3373,-4.50232 -4.71496,-5.68631 -15.51622,-6.13905 -20.20945,-0.84419 -3.16695,3.57286 -3.72245,3.4532 -26.82534,-7.15551 -12.98973,-5.9648 -24.38958,-10.89402 -25.27471,-10.89402 -0.8851,0 -1.9533,5.07468 -2.3259,11.25583 l -0.62024,11.21563 -13.12839,0.56279 -13.02502,0.52259 v -48.6011 z m 252.54058,0 h 60.3699 60.31823 l -0.62024,48.11868 -0.56855,48.03828 -7.08107,0.56279 c -5.48403,0.42238 -7.89658,-0.49322 -10.85416,-4.06014 -4.66035,-5.62049 -15.56282,-6.27329 -20.0544,-1.20598 -2.83845,3.20229 -4.23906,2.83078 -26.61858,-7.19569 -12.9733,-5.81229 -24.48837,-10.57244 -25.58486,-10.57244 -1.09653,0 -2.01578,5.26962 -2.01578,11.69802 v 11.69802 h -12.09465 c -6.67489,0 -12.81089,-0.54666 -13.64525,-1.20597 -0.83436,-0.65933 -1.55059,-22.5176 -1.55059,-48.56088 z m -468.74548,78.95161 9.76876,4.54255 c 5.38756,2.49495 15.08025,6.79257 21.50162,9.56745 l 11.68116,5.06512 -20.00271,9.32626 c -10.99946,5.15623 -20.69216,9.40666 -21.50161,9.40666 -0.80949,0 -1.44722,-8.54807 -1.44722,-18.97412 z m 502.34175,0.16081 c 0.96102,0 5.52602,2.02986 10.13057,4.50233 4.60449,2.47243 8.91329,4.46213 9.562,4.46213 0.64873,0 5.92353,2.38077 11.68117,5.26612 l 10.44069,5.26612 -15.50598,7.07509 c -8.53012,3.90287 -17.73418,8.04186 -20.46788,9.16548 -2.73366,1.1236 -5.54603,2.00996 -6.25406,2.00996 -0.70806,0 -1.34387,-8.46916 -1.34387,-18.85353 0,-10.38434 0.79634,-18.8937 1.75736,-18.8937 z m -252.59226,0.56279 c 29.74077,13.31906 39.08367,17.97453 38.14469,19.17511 -0.63087,0.80659 -9.21177,5.18409 -19.02066,9.72825 -9.80888,4.54419 -18.55382,8.28108 -19.38246,8.28108 -0.82866,0 -1.44722,-8.57162 -1.44722,-19.01432 0,-10.44271 0.76699,-18.59049 1.70565,-18.17012 z m -192.3774,12.05977 c 6.28965,-0.77248 11.3267,6.07709 5.89226,10.37145 -1.50185,1.18679 -3.38399,2.17076 -4.13492,2.17076 -5.42476,0 -9.05859,-9.4701 -4.49673,-11.69802 0.92333,-0.45095 1.84085,-0.73384 2.73939,-0.84419 z m 248.35396,0.1206 c 2.00247,-0.10902 4.18725,0.73445 6.20239,2.65316 2.11503,2.01386 2.30265,3.74585 0.67191,5.78871 -3.336,4.17921 -6.62229,4.54944 -10.80249,1.24618 -2.78551,-2.20117 -3.12689,-3.71875 -1.34385,-6.35151 1.42639,-2.10608 3.26955,-3.22751 5.27204,-3.33654 z m 255.43501,0.72359 c 5.19491,0 7.35395,7.84479 2.79108,10.13024 -4.27635,2.14193 -5.49029,1.95072 -8.89009,-1.28637 -3.76855,-3.58821 -0.14358,-8.84387 6.09901,-8.84387 z m -679.5233,76.01705 5.16864,2.61296 c 2.81602,1.43329 12.1238,5.69087 20.67464,9.44687 12.61754,5.54232 14.91681,7.21269 12.45646,9.00467 -1.66735,1.21442 -10.92349,5.60479 -20.62294,9.76845 l -17.6768,7.59769 v -19.21531 z m 494.12357,0.16081 5.01361,2.53256 c 2.73368,1.39066 11.95135,5.62015 20.57125,9.40666 18.02907,7.91975 18.55267,6.87808 -9.09683,18.97412 -8.91487,3.90004 -16.63655,7.07342 -17.10825,7.07509 -0.4717,0.002 -0.49857,-8.51656 -0.10339,-18.97411 z m -249.6978,0.2412 c 0.48482,0 10.32217,4.35522 21.86342,9.68804 l 20.98476,9.72827 -15.60934,7.11531 c -8.58433,3.92787 -17.88925,8.08201 -20.62296,9.20564 -2.73369,1.12363 -5.54603,2.00997 -6.25408,2.00997 -0.70806,0 -1.24046,-8.46918 -1.24046,-18.85352 0,-10.38433 0.39386,-18.89371 0.87866,-18.89371 z m -189.01778,14.39137 c 4.65784,0 8.62598,4.48484 6.9777,7.87907 -1.78393,3.67354 -9.72456,3.80442 -11.47444,0.201 -1.80265,-3.71214 0.62242,-8.08007 4.49674,-8.08007 z m 496.44949,0 c 4.35759,0 8.20963,4.59714 6.61588,7.87907 -0.78128,1.60884 -3.75483,2.93455 -6.61588,2.93455 -2.86108,0 -5.88631,-1.32571 -6.66757,-2.93455 -1.59377,-3.28193 2.30995,-7.87907 6.66757,-7.87907 z m -250.62816,0.12055 c 1.96058,-0.0802 4.10404,0.81188 5.99563,2.61296 2.26003,2.1519 2.26003,3.19464 0,5.34652 -6.18404,5.88814 -15.32259,1.76205 -10.95754,-4.94452 1.25606,-1.92983 3.00129,-2.93476 4.96191,-3.01496 z m -330.79403,7.07511 h 11.37104 11.42272 v 10.69303 c 0,5.87554 0.83147,11.07477 1.86073,11.57743 1.02922,0.50267 12.37542,-4.01429 25.17135,-10.00965 21.6694,-10.15289 23.51324,-10.66074 27.2905,-7.9595 5.65695,4.04547 15.50804,3.69584 18.96898,-0.68339 2.1195,-2.68191 5.33175,-3.61792 12.55984,-3.61792 h 9.71707 v 46.75189 46.75191 h -59.18113 -59.1811 v -46.75191 z m 245.76962,0 h 11.37104 11.37105 v 10.69303 c 0,5.87554 0.81196,11.03534 1.75734,11.49703 0.94537,0.4617 11.86077,-3.87969 24.29269,-9.64786 20.6521,-9.58215 23.01027,-10.25971 27.23883,-7.91928 6.56298,3.63254 14.45498,3.20247 17.78017,-1.005 2.19545,-2.77797 5.33105,-3.61792 13.69695,-3.61792 h 10.85416 v 46.75189 46.75191 h -59.18111 -59.18112 v -46.75191 z m 248.04384,0 h 11.37105 11.37103 v 10.81362 c 0,8.68859 0.6876,10.77345 3.61807,10.77345 2.00134,0 13.33077,-4.48684 25.11966,-9.96945 20.23582,-9.41097 21.67723,-9.85643 26.41184,-7.2359 6.88231,3.80927 14.67223,3.53562 19.33077,-0.7638 2.62027,-2.41824 6.72769,-3.61792 12.50815,-3.61792 h 8.57998 v 46.75189 46.75191 h -59.18113 -59.12942 v -46.75191 z" stroke="#000000"/>
    </g>
</svg>
