<?xml version="1.0" encoding="UTF-8" standalone="no"?>
<!-- Created with Fritzing (https://fritzing.org/) -->

<svg
   xml:space="preserve"
   y="0in"
   x="0in"
   viewBox="0 0 128.80052 20.698591"
   height="7.302mm"
   id="svg3895"
   gorn="0"
   version="1.2"
   width="45.438mm"
   xmlns="http://www.w3.org/2000/svg"
   xmlns:svg="http://www.w3.org/2000/svg"><desc
     id="desc1">
        <referenceFile>MICROv1.0.2bJAN2024.svg</referenceFile>
    </desc><defs
     id="defs3895" /><g
     id="copper1"><path
       d="m 85.760695,15.183112 c -0.244416,0 -0.476673,0.032 -0.694337,0.09521 -0.217663,0.06322 -0.405167,0.159454 -0.566894,0.28711 -0.159296,0.127656 -0.288693,0.287163 -0.382325,0.480469 -0.09485,0.194523 -0.14209,0.419733 -0.14209,0.673828 0,0.222484 0.03248,0.413489 0.09815,0.572754 0.06688,0.160482 0.152271,0.297838 0.259277,0.414551 0.104576,0.116714 0.225378,0.216158 0.360352,0.298829 0.13376,0.0851 0.272528,0.158469 0.416016,0.224121 0.143487,0.06687 0.282256,0.127927 0.416016,0.1875 0.134975,0.05957 0.25724,0.123562 0.361816,0.19043 0.107008,0.06808 0.193614,0.142445 0.259278,0.22998 0.06566,0.0851 0.09814,0.190186 0.09814,0.310547 0,0.10334 -0.01943,0.198827 -0.05713,0.282715 -0.04013,0.0851 -0.0955,0.155262 -0.168457,0.212403 -0.07296,0.05836 -0.16081,0.101691 -0.266601,0.1333 -0.10336,0.0304 -0.221949,0.04687 -0.354493,0.04687 -0.201854,0 -0.378274,-0.02411 -0.530273,-0.07031 -0.153216,-0.04498 -0.286069,-0.09617 -0.395508,-0.150879 -0.109439,-0.05471 -0.199004,-0.105896 -0.269532,-0.150879 -0.07053,-0.0462 -0.124902,-0.06738 -0.162598,-0.06738 -0.02797,0 -0.05257,0.0062 -0.07324,0.02197 -0.01946,0.01459 -0.03618,0.03945 -0.04834,0.07471 -0.01216,0.03647 -0.02175,0.08373 -0.02783,0.14209 -0.0061,0.05836 -0.0073,0.127548 -0.0073,0.213867 0,0.12644 0.0062,0.221707 0.02197,0.288574 0.01581,0.06687 0.04091,0.118801 0.07617,0.155274 0.0377,0.03526 0.09431,0.07856 0.175781,0.125977 0.08147,0.04741 0.184304,0.09221 0.304688,0.134765 0.120383,0.04377 0.260617,0.08093 0.41748,0.111328 0.159296,0.03039 0.327864,0.04541 0.512696,0.04541 0.272383,0 0.528028,-0.0352 0.767578,-0.106934 0.239552,-0.07173 0.446987,-0.178058 0.626954,-0.317871 0.178751,-0.142245 0.319013,-0.318481 0.424804,-0.528809 0.10336,-0.212759 0.155274,-0.457441 0.155274,-0.738282 l 0.0015,0.0029 c 0,-0.213974 -0.03248,-0.401272 -0.09814,-0.558106 -0.06688,-0.159265 -0.153734,-0.294907 -0.260742,-0.411621 -0.108224,-0.116712 -0.231733,-0.216405 -0.369141,-0.300293 -0.136191,-0.0851 -0.276923,-0.159935 -0.42041,-0.225586 -0.143488,-0.06444 -0.284219,-0.127678 -0.42041,-0.186035 -0.137407,-0.05957 -0.260919,-0.123314 -0.369141,-0.188965 -0.108224,-0.06808 -0.196295,-0.14391 -0.260743,-0.231446 -0.06445,-0.0851 -0.09668,-0.189688 -0.09668,-0.307617 0,-0.07903 0.0133,-0.153856 0.04248,-0.225586 0.02797,-0.07173 0.07493,-0.132044 0.133301,-0.183105 0.05837,-0.04985 0.13071,-0.09069 0.218262,-0.118653 0.08877,-0.02918 0.19113,-0.04395 0.309082,-0.04395 0.152,0 0.289552,0.01797 0.416016,0.05566 0.126463,0.03526 0.236705,0.0766 0.333984,0.121582 0.09606,0.0462 0.177501,0.08975 0.243164,0.127441 0.06688,0.03769 0.114371,0.05713 0.143555,0.05713 0.0304,0 0.055,-0.0093 0.07324,-0.02637 0.01581,-0.01459 0.03129,-0.04092 0.04102,-0.07617 0.0097,-0.03647 0.01686,-0.08152 0.02051,-0.13623 0.0049,-0.05593 0.0059,-0.123124 0.0059,-0.202149 0,-0.07173 -0.002,-0.131296 -0.0044,-0.178711 -0.0036,-0.04863 -0.0074,-0.08826 -0.01465,-0.118652 -0.0073,-0.03283 -0.01517,-0.05818 -0.0249,-0.07764 -0.0097,-0.01824 -0.02745,-0.0421 -0.0542,-0.06885 -0.02797,-0.02918 -0.08455,-0.06292 -0.168457,-0.105468 -0.08633,-0.04012 -0.18353,-0.07582 -0.292969,-0.109864 -0.10944,-0.03161 -0.228029,-0.0594 -0.354493,-0.07764 -0.126462,-0.01945 -0.252682,-0.0293 -0.377929,-0.0293 z m -3.24756,0.06592 c -0.104576,0 -0.19168,0.0047 -0.262207,0.01318 -0.07053,0.0085 -0.125649,0.01764 -0.166993,0.03223 -0.04013,0.01459 -0.06915,0.03207 -0.08496,0.05273 -0.01702,0.02188 -0.02637,0.04796 -0.02637,0.07471 v 3.210939 c 0,0.187228 -0.0251,0.355334 -0.07617,0.502442 -0.05107,0.145892 -0.124381,0.269697 -0.216797,0.370605 -0.09363,0.09969 -0.207798,0.174773 -0.342773,0.227051 -0.13376,0.05228 -0.286792,0.0791 -0.457032,0.0791 -0.167807,0 -0.319375,-0.02365 -0.455566,-0.07471 -0.136191,-0.04985 -0.252818,-0.127607 -0.350098,-0.228516 -0.0985,-0.100909 -0.173298,-0.230852 -0.225586,-0.385254 -0.05229,-0.155618 -0.0791,-0.338022 -0.0791,-0.550782 v -3.149415 c 0,-0.02675 -0.0081,-0.05282 -0.02637,-0.07471 -0.01824,-0.02188 -0.04801,-0.03936 -0.08936,-0.05273 -0.04134,-0.01459 -0.09475,-0.02518 -0.164063,-0.03369 -0.0681,-0.0085 -0.15567,-0.01172 -0.257813,-0.01172 -0.107007,0 -0.195327,0.0032 -0.262207,0.01172 -0.06931,0.0085 -0.125897,0.0191 -0.168457,0.03369 -0.04256,0.01459 -0.07062,0.03207 -0.08643,0.05273 -0.01702,0.02188 -0.02637,0.04796 -0.02637,0.07471 v 3.241701 c 0,0.340414 0.04921,0.63653 0.146485,0.890625 0.09728,0.255311 0.23826,0.467 0.421875,0.637207 0.183615,0.170208 0.407774,0.296972 0.675293,0.38086 0.265086,0.08267 0.567946,0.124512 0.902344,0.124512 0.356287,0 0.671475,-0.04555 0.946289,-0.139161 0.274816,-0.09361 0.505608,-0.229973 0.692872,-0.408691 0.187263,-0.178718 0.325811,-0.395827 0.421875,-0.654786 0.09728,-0.256527 0.14502,-0.550151 0.14502,-0.875977 l 0.0029,-0.0015 v -3.196291 c 0,-0.02675 -0.0093,-0.05282 -0.02637,-0.07471 -0.01459,-0.02188 -0.04362,-0.03936 -0.08496,-0.05273 -0.04013,-0.01459 -0.09572,-0.02372 -0.162598,-0.03223 -0.06688,-0.0085 -0.151773,-0.01318 -0.256347,-0.01318 z m 22.425305,0 c -0.10336,0 -0.19022,0.0047 -0.26075,0.01318 -0.0693,0.0085 -0.12565,0.01764 -0.16699,0.03223 -0.0413,0.01459 -0.0711,0.03207 -0.0893,0.05273 -0.0182,0.02188 -0.0264,0.04796 -0.0264,0.07471 v 4.841311 c 0,0.120361 0.0303,0.207248 0.0923,0.260742 0.062,0.05349 0.13707,0.08057 0.22706,0.08057 h 2.44189 c 0.0267,0 0.0511,-0.0079 0.0718,-0.0249 0.0219,-0.01581 0.0394,-0.04288 0.0527,-0.08057 0.0134,-0.03526 0.0235,-0.08324 0.0308,-0.139161 0.007,-0.05592 0.0103,-0.125086 0.0103,-0.206543 0,-0.08267 -0.003,-0.152082 -0.0103,-0.208007 -0.007,-0.05714 -0.0162,-0.102189 -0.0308,-0.136231 -0.0146,-0.03647 -0.0321,-0.06037 -0.0527,-0.07617 -0.0195,-0.01459 -0.045,-0.02197 -0.0718,-0.02197 h -1.67432 v -4.289064 c 0,-0.02675 -0.008,-0.05282 -0.0264,-0.07471 -0.0182,-0.02188 -0.048,-0.03936 -0.0894,-0.05273 -0.0401,-0.01459 -0.096,-0.02372 -0.16406,-0.03223 -0.0681,-0.0085 -0.15667,-0.01318 -0.26367,-0.01318 z m 5.47266,0 c -0.10336,0 -0.19022,0.0047 -0.26075,0.01318 -0.0693,0.0085 -0.12565,0.01764 -0.16699,0.03223 -0.0413,0.01459 -0.0697,0.03207 -0.0879,0.05273 -0.0182,0.02188 -0.0278,0.04796 -0.0278,0.07471 v 4.841311 c 0,0.120361 0.0303,0.207248 0.0923,0.260742 0.062,0.05349 0.13854,0.08057 0.22852,0.08057 h 2.44189 c 0.0268,0 0.0511,-0.0079 0.0718,-0.0249 0.0219,-0.01581 0.0379,-0.04288 0.0513,-0.08057 0.0134,-0.03526 0.0249,-0.08324 0.0322,-0.139161 0.007,-0.05592 0.009,-0.125086 0.009,-0.206543 0,-0.08267 -0.001,-0.152082 -0.009,-0.208007 -0.007,-0.05714 -0.0176,-0.102189 -0.0322,-0.136231 -0.0146,-0.03647 -0.0306,-0.06037 -0.0513,-0.07617 -0.0195,-0.01459 -0.045,-0.02197 -0.0718,-0.02197 h -1.67431 v -4.289064 c 0,-0.02675 -0.01,-0.05282 -0.0278,-0.07471 -0.0182,-0.02188 -0.0465,-0.03936 -0.0879,-0.05273 -0.0401,-0.01459 -0.096,-0.02372 -0.16406,-0.03223 -0.0681,-0.0085 -0.15813,-0.01318 -0.26513,-0.01318 z m 13.63623,0 c -0.14105,0 -0.25447,0.0022 -0.33838,0.0059 -0.0851,0.0036 -0.15083,0.01349 -0.20068,0.0293 -0.0486,0.01459 -0.0848,0.03674 -0.10547,0.06592 -0.0219,0.02796 -0.0413,0.06659 -0.0571,0.112793 l -1.64062,4.729982 c -0.0328,0.09726 -0.0545,0.173089 -0.063,0.231446 -0.009,0.05714 0.001,0.10194 0.0293,0.134765 0.0268,0.03161 0.0762,0.05008 0.14795,0.05859 0.0718,0.0085 0.16944,0.01318 0.2959,0.01318 0.11795,0 0.21415,-0.0039 0.28711,-0.0088 0.073,-0.0061 0.12955,-0.01642 0.16846,-0.03223 0.0401,-0.01581 0.0694,-0.03478 0.0864,-0.06152 0.0182,-0.02553 0.033,-0.05778 0.0439,-0.09668 l 0.33545,-1.042969 h 2.00976 l 0.3501,1.070801 c 0.0109,0.03404 0.024,0.06576 0.041,0.08643 0.0158,0.0231 0.0436,0.03911 0.085,0.05127 0.0426,0.01337 0.10114,0.02272 0.18018,0.02637 0.0766,0.0049 0.18828,0.0059 0.32812,0.0059 0.13376,0 0.23955,-0.003 0.31494,-0.01025 0.0778,-0.0073 0.1322,-0.02477 0.1626,-0.05273 0.0292,-0.02918 0.0407,-0.07323 0.0322,-0.130372 -0.009,-0.05714 -0.0287,-0.135899 -0.0615,-0.234375 h 0.003 l -1.64795,-4.725588 c -0.0158,-0.05228 -0.037,-0.09412 -0.0601,-0.124511 -0.0243,-0.02918 -0.0622,-0.05158 -0.11572,-0.06738 -0.0535,-0.01581 -0.12684,-0.02565 -0.22412,-0.0293 -0.0961,-0.0049 -0.22499,-0.0059 -0.38672,-0.0059 z m -57.927268,0.0015 c -0.104575,0 -0.191431,0.0032 -0.260743,0.01172 -0.06931,0.0085 -0.122967,0.0191 -0.165527,0.03369 -0.04377,0.01459 -0.07404,0.03207 -0.09229,0.05273 -0.01824,0.02188 -0.02637,0.04796 -0.02637,0.07471 v 5.03467 c 0,0.02675 0.0081,0.05136 0.02637,0.07324 0.01824,0.02188 0.04801,0.03961 0.08935,0.0542 0.04013,0.01337 0.09647,0.02372 0.166993,0.03223 0.07053,0.0085 0.156166,0.01318 0.260742,0.01318 0.107008,0 0.19436,-0.0047 0.263672,-0.01318 0.06688,-0.0085 0.122718,-0.02007 0.164062,-0.03223 0.04134,-0.01459 0.07112,-0.03353 0.08936,-0.0542 0.01824,-0.02188 0.02637,-0.0465 0.02637,-0.07324 h 0.0015 v -5.03467 c 0,-0.02675 -0.0081,-0.05282 -0.02637,-0.07471 -0.01824,-0.02188 -0.04801,-0.03936 -0.08936,-0.05273 -0.04013,-0.01459 -0.09597,-0.02518 -0.164062,-0.03369 -0.0681,-0.0085 -0.156665,-0.01172 -0.263672,-0.01172 z m 31.457532,0 c -0.104576,0 -0.189966,0.0032 -0.259278,0.01172 -0.06931,0.0085 -0.124432,0.0191 -0.166992,0.03369 -0.04378,0.01459 -0.07258,0.03207 -0.09082,0.05273 -0.01824,0.02188 -0.02783,0.04796 -0.02783,0.07471 v 5.03467 c 0,0.02675 0.0096,0.05136 0.02783,0.07324 0.01824,0.02188 0.04655,0.03961 0.08789,0.0542 0.04134,0.01337 0.09793,0.02372 0.168458,0.03223 0.07053,0.0085 0.157382,0.01318 0.260742,0.01318 0.107008,0 0.195576,-0.0047 0.263672,-0.01318 0.06688,-0.0085 0.124183,-0.02007 0.165527,-0.03223 0.04134,-0.01459 0.06965,-0.03353 0.08789,-0.0542 0.01824,-0.02188 0.02637,-0.0465 0.02637,-0.07324 v -5.03467 c 0,-0.02675 -0.0081,-0.05282 -0.02637,-0.07471 -0.01824,-0.02188 -0.04655,-0.03936 -0.08789,-0.05273 -0.04013,-0.01459 -0.09743,-0.02518 -0.165527,-0.03369 -0.0681,-0.0085 -0.156664,-0.01172 -0.263672,-0.01172 z m 3.635746,0 c -0.14106,0 -0.25448,0.0022 -0.33838,0.0059 -0.0851,0.0036 -0.15205,0.01349 -0.20069,0.0293 -0.0486,0.01459 -0.0848,0.03674 -0.10546,0.06592 -0.0219,0.02796 -0.0413,0.06513 -0.0571,0.111328 l -1.640629,4.731447 c -0.03283,0.09726 -0.05448,0.171624 -0.06299,0.229981 -0.0085,0.05714 0.0013,0.103404 0.0293,0.13623 0.02675,0.03161 0.07621,0.05008 0.147949,0.05859 0.07174,0.0085 0.169435,0.01318 0.295899,0.01318 0.117952,0 0.21415,-0.0039 0.287109,-0.0088 0.07174,-0.0061 0.129546,-0.01642 0.168457,-0.03223 0.04013,-0.01581 0.0694,-0.03478 0.08643,-0.06152 0.01824,-0.02553 0.033,-0.05924 0.04395,-0.09814 l 0.336914,-1.041504 h 2.00977 l 0.35009,1.070801 c 0.011,0.03404 0.024,0.06429 0.041,0.08496 0.017,0.0231 0.0451,0.04058 0.0864,0.05273 0.0426,0.01337 0.10113,0.02272 0.18017,0.02637 0.0778,0.0049 0.18707,0.0059 0.32813,0.0059 0.13375,0 0.24101,-0.003 0.3164,-0.01025 0.0778,-0.0073 0.13074,-0.02477 0.16114,-0.05273 0.0292,-0.02918 0.0422,-0.07323 0.0337,-0.130371 -0.009,-0.05714 -0.0302,-0.135898 -0.063,-0.234375 h -0.001 l -1.64648,-4.727053 c -0.0158,-0.05228 -0.037,-0.09265 -0.0601,-0.123046 -0.0243,-0.02918 -0.0622,-0.05158 -0.11572,-0.06738 -0.0535,-0.01581 -0.12684,-0.02565 -0.22412,-0.0293 -0.0961,-0.0049 -0.22499,-0.0059 -0.38672,-0.0059 z m -29.466811,0.0073 c -0.0985,0 -0.179933,0.003 -0.243164,0.01025 -0.06323,0.0073 -0.114897,0.01814 -0.153809,0.03516 -0.0377,0.01702 -0.06476,0.03793 -0.08057,0.05859 -0.01702,0.02188 -0.02637,0.0465 -0.02637,0.07324 v 2.501954 c 0,0.190874 0.0037,0.390011 0.0073,0.599121 0.0036,0.207896 0.01053,0.408744 0.01904,0.602051 h -0.0044 c -0.04864,-0.110634 -0.100305,-0.218955 -0.153809,-0.32959 -0.05229,-0.109419 -0.106413,-0.222383 -0.161133,-0.335449 -0.0535,-0.114282 -0.110338,-0.228491 -0.169922,-0.342774 -0.05958,-0.114282 -0.117912,-0.230703 -0.178711,-0.348633 l -1.035644,-1.949707 c -0.05229,-0.106988 -0.103704,-0.197801 -0.152344,-0.269532 -0.04986,-0.07295 -0.103734,-0.13005 -0.159668,-0.171387 -0.05594,-0.04133 -0.118686,-0.07112 -0.19043,-0.08935 -0.07174,-0.01824 -0.159096,-0.02637 -0.263672,-0.02637 h -0.581543 c -0.110656,0 -0.204145,0.03224 -0.278321,0.09668 -0.07539,0.06443 -0.112793,0.161169 -0.112793,0.290039 v 4.791506 c 0,0.02675 0.0059,0.05014 0.02051,0.07324 0.01216,0.02067 0.03823,0.03961 0.07471,0.0542 0.03405,0.01581 0.08325,0.02811 0.146485,0.03662 0.06323,0.0085 0.141489,0.01172 0.238769,0.01172 0.09849,0 0.181397,-0.0032 0.244629,-0.01172 0.06323,-0.0085 0.112934,-0.02082 0.149414,-0.03662 0.03648,-0.01581 0.06329,-0.03353 0.0791,-0.0542 0.01459,-0.02188 0.02197,-0.0465 0.02197,-0.07324 v -2.790529 c 0,-0.207896 -0.0012,-0.410707 -0.0073,-0.606445 -0.0061,-0.196955 -0.01542,-0.395092 -0.02637,-0.593262 h 0.0088 c 0.06323,0.161697 0.133612,0.329553 0.213868,0.500976 0.07904,0.171423 0.156551,0.33093 0.234375,0.480469 l 1.322754,2.493165 c 0.0681,0.137382 0.131315,0.24913 0.186035,0.33545 0.05472,0.08753 0.110587,0.155481 0.171387,0.206543 0.05837,0.05106 0.123799,0.08602 0.191895,0.105469 0.07053,0.01824 0.153208,0.02783 0.250488,0.02783 h 0.462891 c 0.05229,0 0.101521,-0.0062 0.153809,-0.02197 0.05107,-0.01581 0.09536,-0.03895 0.131836,-0.07178 0.03769,-0.03404 0.06893,-0.0732 0.09082,-0.123047 0.02067,-0.05106 0.03076,-0.108167 0.03076,-0.171387 h 0.0029 v -4.790041 c 0,-0.02796 -0.0059,-0.05136 -0.02051,-0.07324 -0.01216,-0.02188 -0.03773,-0.04157 -0.07178,-0.05859 -0.03526,-0.01702 -0.08325,-0.02786 -0.146484,-0.03516 -0.06323,-0.0073 -0.140992,-0.01025 -0.23584,-0.01025 z m 20.856453,0.01611 c -0.08998,0 -0.165035,0.02707 -0.22705,0.08057 -0.06202,0.05349 -0.09229,0.140382 -0.09229,0.260743 v 4.84131 c 0,0.02675 0.0079,0.05282 0.0249,0.07471 0.01581,0.02188 0.04508,0.03815 0.08643,0.05273 0.04013,0.01337 0.095,0.02518 0.165527,0.03369 0.07053,0.0085 0.157631,0.01172 0.262207,0.01172 0.105792,0 0.193863,-0.0032 0.260742,-0.01172 0.0681,-0.0085 0.122719,-0.02153 0.164063,-0.03369 0.04134,-0.01459 0.07112,-0.03232 0.08935,-0.0542 0.01824,-0.02067 0.02637,-0.0465 0.02637,-0.07324 v -2.036133 h 0.339844 c 0.115519,0 0.217137,0.01748 0.304687,0.05273 0.08877,0.03647 0.167495,0.08915 0.234375,0.159668 0.06688,0.0693 0.129851,0.156435 0.184571,0.262207 0.05472,0.104555 0.110089,0.225402 0.168457,0.360352 l 0.480469,1.193848 c 0.01216,0.03161 0.02521,0.05918 0.04101,0.0835 0.01702,0.0231 0.04459,0.04132 0.0835,0.05713 0.03891,0.01581 0.09475,0.02615 0.164062,0.03223 0.06931,0.0061 0.159871,0.0088 0.275391,0.0088 0.136191,0 0.244939,-0.0039 0.325195,-0.0088 0.08026,-0.0049 0.137616,-0.01567 0.180176,-0.02783 0.04134,-0.01459 0.06816,-0.03207 0.0791,-0.05273 0.01216,-0.02067 0.01611,-0.04553 0.01611,-0.07471 l -0.0015,-0.0044 c 0,-0.02918 -0.0059,-0.06684 -0.02051,-0.114258 -0.01216,-0.04863 -0.03922,-0.12396 -0.08057,-0.228516 L 95.68648,19.066414 c -0.05229,-0.12644 -0.106413,-0.240151 -0.161133,-0.339844 -0.05594,-0.100907 -0.113766,-0.189042 -0.175781,-0.268066 -0.06202,-0.07903 -0.128693,-0.145975 -0.199219,-0.200684 -0.07053,-0.05471 -0.143866,-0.101472 -0.224121,-0.13916 0.164159,-0.05349 0.310806,-0.12144 0.440918,-0.206543 0.128895,-0.08389 0.237643,-0.183331 0.325195,-0.298829 0.08877,-0.115498 0.154476,-0.246935 0.200684,-0.394043 0.04499,-0.145892 0.06592,-0.308826 0.06592,-0.486328 0,-0.211542 -0.02905,-0.399588 -0.09228,-0.5625 -0.06323,-0.162913 -0.15476,-0.30273 -0.273926,-0.421875 -0.120384,-0.119146 -0.266533,-0.217095 -0.437989,-0.29004 -0.171454,-0.07416 -0.363133,-0.126344 -0.577148,-0.156738 -0.07539,-0.0073 -0.15904,-0.01418 -0.249024,-0.01904 -0.08877,-0.0061 -0.204399,-0.0088 -0.344238,-0.0088 z m 19.842778,0.0015 c -0.0268,0 -0.0509,0.0062 -0.0703,0.02197 -0.017,0.01581 -0.0337,0.03945 -0.0483,0.07471 -0.0122,0.03404 -0.0235,0.08055 -0.0308,0.137695 -0.007,0.05714 -0.0102,0.128016 -0.0102,0.209473 0,0.08024 0.003,0.147937 0.0102,0.205078 0.006,0.05593 0.0186,0.100724 0.0308,0.134766 0.0134,0.03404 0.0301,0.0589 0.0483,0.07471 0.0195,0.01702 0.0436,0.02637 0.0703,0.02637 h 1.33301 v 4.296388 c 0,0.02675 0.008,0.05282 0.0264,0.07471 0.0182,0.02188 0.048,0.03815 0.0894,0.05273 0.0401,0.01337 0.0965,0.02518 0.167,0.03369 0.0705,0.0085 0.15738,0.01172 0.26074,0.01172 0.10458,0 0.19168,-0.0032 0.26221,-0.01172 0.0705,-0.0085 0.12565,-0.02153 0.16699,-0.03369 0.0413,-0.01459 0.0711,-0.03207 0.0893,-0.05273 0.0182,-0.02188 0.0264,-0.04796 0.0264,-0.07471 v -4.296388 h 1.33301 c 0.0231,0 0.0465,-0.0094 0.0659,-0.02637 0.0219,-0.01459 0.0394,-0.03945 0.0527,-0.07471 0.0146,-0.03404 0.0249,-0.07884 0.0322,-0.134766 0.007,-0.05836 0.009,-0.124838 0.009,-0.205078 0,-0.08146 -0.002,-0.152332 -0.009,-0.209473 -0.007,-0.05714 -0.0176,-0.103654 -0.0322,-0.137695 -0.0146,-0.03526 -0.0321,-0.0589 -0.0527,-0.07471 -0.0207,-0.01581 -0.0416,-0.02197 -0.0659,-0.02197 z m 4.87061,0 c -0.0912,0 -0.1665,0.02561 -0.22851,0.0791 -0.062,0.05349 -0.0923,0.141848 -0.0923,0.262208 v 4.646486 c 0,0.120361 0.0303,0.207248 0.0923,0.260742 0.062,0.05349 0.13731,0.08057 0.22851,0.08057 h 1.27149 c 0.47302,0 0.87998,-0.05168 1.22168,-0.153809 0.34169,-0.103339 0.63349,-0.264561 0.87304,-0.483399 0.23834,-0.221268 0.42164,-0.503365 0.54932,-0.851074 0.12755,-0.347337 0.1903,-0.765845 0.19043,-1.253907 v -0.0015 c -1.2e-4,-0.422441 -0.058,-0.792962 -0.17578,-1.114746 -0.11796,-0.320962 -0.29238,-0.591221 -0.51856,-0.810059 -0.22617,-0.217623 -0.50446,-0.383018 -0.83642,-0.493653 -0.32954,-0.111851 -0.73305,-0.166992 -1.2085,-0.166992 z m -43.614274,0.0015 c -0.0912,0 -0.1665,0.02561 -0.228516,0.0791 -0.06202,0.05349 -0.09229,0.141846 -0.09229,0.262207 v 4.646487 c 0,0.120361 0.03027,0.207248 0.09229,0.260742 0.06202,0.05349 0.137317,0.08057 0.228516,0.08057 h 1.271485 c 0.473023,0 0.879985,-0.05168 1.22168,-0.153808 0.341695,-0.103341 0.633496,-0.266026 0.873047,-0.484864 0.238336,-0.221268 0.421637,-0.503365 0.549317,-0.851074 0.12768,-0.34771 0.19043,-0.765169 0.19043,-1.253907 l 0.0015,0.0015 c 0,-0.423087 -0.05929,-0.794033 -0.177246,-1.116212 -0.119167,-0.320962 -0.29238,-0.59122 -0.518555,-0.810059 -0.226175,-0.217622 -0.504459,-0.383017 -0.836426,-0.493652 -0.329535,-0.111851 -0.733043,-0.166992 -1.208496,-0.166992 z m 14.033209,0 c -0.02675,0 -0.05232,0.0062 -0.07178,0.02197 -0.01824,0.01581 -0.03375,0.03945 -0.04834,0.07471 -0.01216,0.03404 -0.02347,0.08056 -0.03076,0.137696 -0.0073,0.05714 -0.0088,0.126551 -0.0088,0.208008 0,0.08024 0.0015,0.149402 0.0088,0.206543 0.0061,0.05592 0.0186,0.100724 0.03076,0.134765 0.01337,0.03404 0.0301,0.0589 0.04834,0.07471 0.01946,0.01702 0.04503,0.02637 0.07178,0.02637 h 1.331543 v 4.296388 c 0,0.02675 0.0096,0.05136 0.02783,0.07324 0.01824,0.02188 0.04655,0.03961 0.08789,0.0542 0.04134,0.01337 0.09793,0.02372 0.168457,0.03223 0.07053,0.0085 0.157383,0.01318 0.260742,0.01318 0.104576,0 0.19168,-0.0047 0.262207,-0.01318 0.07053,-0.0085 0.125649,-0.02007 0.166993,-0.03223 0.04134,-0.01459 0.07111,-0.03353 0.08935,-0.0542 0.01824,-0.02188 0.02637,-0.0465 0.02637,-0.07324 v -4.296388 h 1.333009 c 0.0231,0 0.04793,-0.0093 0.06738,-0.02637 0.02189,-0.01459 0.03789,-0.03945 0.05127,-0.07471 0.01459,-0.03404 0.02493,-0.07884 0.03223,-0.134765 0.0073,-0.05836 0.0088,-0.126303 0.0088,-0.206543 0,-0.08146 -0.003,-0.150867 -0.01025,-0.208008 -0.0073,-0.05714 -0.01763,-0.103654 -0.03223,-0.137696 -0.01459,-0.03526 -0.0306,-0.0589 -0.05127,-0.07471 -0.02067,-0.0158 -0.04306,-0.02197 -0.06738,-0.02197 z m 5.629397,0.824707 h 0.486328 c 0.122816,0 0.219511,0.0032 0.290039,0.01172 0.07053,0.0085 0.13278,0.02032 0.1875,0.03369 0.181184,0.04985 0.312323,0.135987 0.392578,0.256348 0.08026,0.119145 0.118653,0.267562 0.118653,0.443848 h 0.0015 c 0,0.115498 -0.01943,0.219613 -0.05713,0.312012 -0.0377,0.09361 -0.09624,0.174583 -0.172852,0.240234 -0.07782,0.06687 -0.174768,0.120265 -0.291504,0.156738 -0.11552,0.03769 -0.248401,0.05566 -0.402832,0.05566 h -0.552246 z m 24.707528,0.0249 h 0.54785 c 0.33319,0 0.60016,0.04602 0.80567,0.134766 0.20307,0.08753 0.37086,0.212805 0.50097,0.37207 0.13133,0.15805 0.22582,0.344631 0.28418,0.561036 0.0596,0.217622 0.0894,0.45171 0.0894,0.70459 v 0.0015 c 0,0.306373 -0.0342,0.575884 -0.10107,0.805664 -0.0681,0.22978 -0.16825,0.422746 -0.30323,0.577149 -0.13741,0.154402 -0.30791,0.27179 -0.50976,0.347168 -0.20186,0.07781 -0.4533,0.114258 -0.75,0.114258 h -0.56397 z m -43.61281,0.0015 h 0.547852 c 0.333183,0 0.598696,0.04602 0.8042,0.134766 0.204286,0.08753 0.37233,0.212805 0.502441,0.37207 0.130112,0.15805 0.224348,0.34463 0.282715,0.561036 0.05958,0.217622 0.08936,0.45171 0.08936,0.70459 l 0.0015,0.0015 c 0,0.306372 -0.03419,0.575884 -0.101075,0.805664 -0.06809,0.22978 -0.169712,0.422746 -0.304687,0.577149 -0.137408,0.154402 -0.306446,0.270325 -0.508301,0.345703 -0.201856,0.07781 -0.453297,0.115723 -0.75,0.115723 H 74.45942 Z m 49.56887,0.159668 h 0.004 l 0.75,2.267579 h -1.4956 z m -22.8296,0.0015 h 0.003 0.001 l 0.74854,2.267579 h -1.49561 z m 26.63966,3.092286 c -0.23347,0 -0.39488,0.04455 -0.48487,0.133301 -0.0888,0.08753 -0.13476,0.260813 -0.13476,0.518555 0,0.241937 0.0445,0.406118 0.1333,0.493653 0.0876,0.0851 0.24772,0.128906 0.47754,0.128906 0.23104,0 0.39024,-0.04309 0.479,-0.131836 0.09,-0.08753 0.1333,-0.260066 0.1333,-0.51416 v -0.0015 c 0,-0.244369 -0.0428,-0.410512 -0.13037,-0.498047 -0.0875,-0.0851 -0.24575,-0.128907 -0.47314,-0.128907 z"
       id="path10"
       fill="#ffc000"
       stroke="none" /><path
       d="m 43.571713,15.348639 c -0.06058,0 -0.111887,0.0037 -0.152344,0.0088 -0.04044,0.0051 -0.0729,0.01182 -0.09815,0.02197 -0.02273,0.01009 -0.03972,0.02292 -0.0498,0.03809 -0.0077,0.01517 -0.01025,0.03253 -0.01025,0.05273 v 5.062502 c 0,0.02021 0.0027,0.03759 0.01025,0.05273 0.0076,0.01515 0.02268,0.02798 0.04541,0.03809 0.02278,0.0076 0.05255,0.01396 0.08789,0.01904 0.03531,0.0051 0.07837,0.0073 0.128907,0.0073 0.05303,0 0.09461,-0.0023 0.127441,-0.0073 0.03537,-0.005 0.06516,-0.01147 0.08789,-0.01904 0.02273,-0.01009 0.03972,-0.02292 0.0498,-0.03809 0.01007,-0.01515 0.01465,-0.03253 0.01465,-0.05273 v -0.416016 c 0.09847,0.103564 0.19134,0.191882 0.279785,0.265137 0.08839,0.07325 0.176692,0.132173 0.265137,0.180176 0.0884,0.04799 0.180056,0.08234 0.270996,0.102539 0.09346,0.02273 0.193132,0.03369 0.301758,0.03369 0.234915,0 0.445083,-0.04343 0.626954,-0.131836 0.18187,-0.08842 0.333254,-0.217074 0.457031,-0.38379 0.126253,-0.166717 0.222453,-0.365667 0.285645,-0.600586 0.06568,-0.237443 0.09814,-0.505729 0.09814,-0.80127 0,-0.247547 -0.0271,-0.480839 -0.07764,-0.703125 -0.05052,-0.222288 -0.130556,-0.415889 -0.2417,-0.580078 -0.108621,-0.166716 -0.25092,-0.299926 -0.427734,-0.398438 -0.174303,-0.09851 -0.386734,-0.147949 -0.634278,-0.147949 -0.101024,0 -0.194704,0.01059 -0.285645,0.03076 -0.09094,0.02021 -0.182982,0.05268 -0.273925,0.09814 -0.09089,0.04294 -0.185215,0.100651 -0.281251,0.171387 -0.09345,0.07072 -0.188992,0.157177 -0.290039,0.260742 v -2.041993 c 0,-0.02021 -0.006,-0.03758 -0.01611,-0.05273 -0.01007,-0.01515 -0.02561,-0.02798 -0.04834,-0.03809 -0.02275,-0.01007 -0.05623,-0.01691 -0.09668,-0.02197 -0.04037,-0.0051 -0.09061,-0.0088 -0.153808,-0.0088 z m -24.386729,0.304688 c -0.373848,0 -0.701065,0.06039 -0.981446,0.18164 -0.280388,0.118715 -0.513276,0.288944 -0.700195,0.511231 -0.186948,0.219761 -0.328433,0.486985 -0.421875,0.802735 -0.09344,0.31575 -0.139161,0.666746 -0.139161,1.053223 0,0.404158 0.04305,0.763033 0.128907,1.073731 0.08589,0.310696 0.215356,0.569641 0.389648,0.779297 0.176827,0.209658 0.40022,0.369327 0.667969,0.480469 0.270286,0.10862 0.589222,0.162598 0.958009,0.162598 0.373849,0 0.69959,-0.05853 0.97998,-0.177247 0.28039,-0.121242 0.514337,-0.293338 0.698731,-0.515625 0.186946,-0.224813 0.326968,-0.494715 0.42041,-0.812988 0.09344,-0.318276 0.139161,-0.675687 0.139161,-1.072267 0,-0.396582 -0.04339,-0.749042 -0.131836,-1.054687 -0.08589,-0.308171 -0.219084,-0.566306 -0.398438,-0.773438 -0.176817,-0.209658 -0.397282,-0.367457 -0.665039,-0.476075 -0.267752,-0.108621 -0.583603,-0.162597 -0.944825,-0.162597 z m 15.687018,0 c -0.323333,0 -0.596572,0.06226 -0.818848,0.186035 -0.222291,0.121242 -0.401191,0.292278 -0.537598,0.51709 -0.136436,0.222287 -0.2353,0.490975 -0.295898,0.804199 -0.0606,0.310699 -0.09229,0.651543 -0.09229,1.025391 0,0.40416 0.02755,0.763438 0.08057,1.076661 0.05557,0.310697 0.148028,0.573379 0.276856,0.788086 0.128826,0.212186 0.298641,0.373722 0.508301,0.484864 0.212184,0.10862 0.472589,0.162598 0.780762,0.162598 0.325851,0 0.599492,-0.06039 0.821777,-0.181641 0.222292,-0.12377 0.401192,-0.294802 0.537598,-0.51709 0.13892,-0.224814 0.23633,-0.494968 0.294434,-0.805665 0.0606,-0.310696 0.09229,-0.651948 0.09229,-1.02832 0,-0.40416 -0.02789,-0.761567 -0.0835,-1.072266 -0.05305,-0.313223 -0.145115,-0.577367 -0.273926,-0.789551 -0.12884,-0.21471 -0.299049,-0.376247 -0.511231,-0.484864 -0.209655,-0.111149 -0.468601,-0.165527 -0.779297,-0.165527 z m 5.737795,0 c -0.149032,0 -0.29133,0.01364 -0.427734,0.04394 -0.133863,0.03032 -0.256929,0.06878 -0.370606,0.114258 -0.111147,0.04294 -0.204017,0.08637 -0.279785,0.131836 -0.07321,0.04547 -0.126374,0.08354 -0.156738,0.111328 -0.03036,0.02526 -0.04998,0.04676 -0.06006,0.06445 -0.0099,0.01769 -0.02016,0.03546 -0.02783,0.05566 -0.0047,0.02021 -0.0072,0.04547 -0.01025,0.07324 -0.0031,0.02779 -0.0044,0.06026 -0.0044,0.09815 0,0.05303 0.0012,0.09833 0.0059,0.136231 0.005,0.0379 0.01135,0.06809 0.01904,0.09082 0.01009,0.02273 0.02255,0.03824 0.03516,0.04834 0.01517,0.01009 0.03068,0.01611 0.04834,0.01611 0.03034,0 0.0771,-0.02152 0.137695,-0.06445 0.06314,-0.04294 0.140512,-0.08864 0.231446,-0.13916 0.09347,-0.05052 0.199552,-0.09914 0.320801,-0.14209 0.12377,-0.04295 0.263395,-0.06299 0.41748,-0.06299 0.131354,0 0.247595,0.02004 0.348633,0.06299 0.101024,0.04294 0.184798,0.10252 0.250489,0.175781 0.06824,0.07325 0.11847,0.157834 0.153808,0.256348 0.03533,0.09598 0.0542,0.197534 0.0542,0.306152 0,0.108619 -0.01246,0.226326 -0.03516,0.350098 -0.02276,0.123771 -0.07029,0.260064 -0.143554,0.411621 -0.07072,0.151562 -0.173738,0.320974 -0.307618,0.505372 -0.131353,0.184396 -0.30758,0.393097 -0.527344,0.625488 l -0.949219,1.007813 c -0.03021,0.03284 -0.05736,0.06345 -0.07764,0.09375 -0.01773,0.02779 -0.03131,0.05758 -0.04395,0.08789 -0.013,0.02779 -0.02175,0.06026 -0.02637,0.09814 -0.0031,0.03788 -0.0044,0.08278 -0.0044,0.133301 0,0.05556 0.0027,0.101264 0.01025,0.13916 0.01007,0.0379 0.02336,0.06769 0.04102,0.08789 0.02018,0.02021 0.04362,0.03385 0.06885,0.04395 0.02786,0.0076 0.06134,0.01318 0.09668,0.01318 h 2.708498 c 0.02273,0 0.04238,-0.0045 0.06006,-0.01465 0.02028,-0.01256 0.03533,-0.03147 0.04541,-0.0542 0.013,-0.02526 0.02029,-0.05545 0.0249,-0.09082 0.0077,-0.03537 0.01318,-0.07465 0.01318,-0.120117 h 0.0029 c 0,-0.04548 -0.0041,-0.08581 -0.01172,-0.118653 -0.005,-0.03537 -0.01413,-0.06369 -0.0293,-0.08643 -0.01272,-0.02273 -0.02963,-0.03971 -0.0498,-0.0498 -0.01776,-0.01256 -0.03695,-0.01904 -0.05713,-0.01904 H 39.96966 l 0.776368,-0.811524 c 0.280389,-0.287963 0.506057,-0.541958 0.675293,-0.761719 0.169213,-0.22229 0.298274,-0.421242 0.386719,-0.600586 0.09097,-0.181874 0.149494,-0.351284 0.177246,-0.505371 0.02776,-0.156609 0.04395,-0.312137 0.04395,-0.468751 0,-0.174292 -0.02979,-0.338101 -0.08789,-0.492187 -0.0581,-0.154085 -0.147877,-0.291034 -0.266602,-0.407227 -0.116188,-0.116187 -0.263037,-0.205322 -0.442383,-0.270996 -0.176826,-0.06821 -0.385113,-0.102539 -0.622559,-0.102539 z m -29.796398,0.01025 c -0.320802,0 -0.612206,0.05958 -0.8774421,0.175781 -0.2626991,0.116187 -0.4887767,0.284548 -0.6782229,0.506836 -0.1894535,0.21976 -0.3362966,0.488855 -0.442383,0.807129 -0.1035802,0.318276 -0.1567383,0.680228 -0.1567383,1.086915 0,0.396581 0.047528,0.747577 0.1435547,1.053223 0.098512,0.30312 0.2381381,0.558982 0.4174807,0.766113 0.1818766,0.207133 0.3996632,0.364124 0.6547854,0.470215 0.2576465,0.106094 0.5459835,0.158204 0.8642585,0.158204 0.184402,0 0.352751,-0.01738 0.506836,-0.05273 0.156612,-0.03283 0.294368,-0.07504 0.413086,-0.123047 0.121226,-0.05052 0.223827,-0.0989 0.304688,-0.149414 0.08083,-0.05305 0.132946,-0.09193 0.158203,-0.117187 0.02526,-0.02526 0.04265,-0.04678 0.05273,-0.06445 0.01037,-0.01769 0.02009,-0.04025 0.0249,-0.06299 0.0072,-0.02273 0.01181,-0.04879 0.01465,-0.0791 0.0029,-0.03031 0.0044,-0.06359 0.0044,-0.104004 h -0.0029 c 0,-0.0581 -9.71e-4,-0.108603 -0.0059,-0.146485 -0.0023,-0.0379 -0.007,-0.06476 -0.01465,-0.08496 -0.0076,-0.02272 -0.01819,-0.03928 -0.03076,-0.04687 -0.01272,-0.0076 -0.0292,-0.01025 -0.04687,-0.01025 -0.03788,0 -0.08813,0.02379 -0.153808,0.07178 -0.06568,0.04799 -0.151322,0.10197 -0.254883,0.162597 -0.101053,0.05809 -0.224106,0.1102 -0.370606,0.158204 -0.143989,0.048 -0.315259,0.07324 -0.509766,0.07324 -0.229865,0 -0.433368,-0.04075 -0.615234,-0.121582 C 10.030935,19.90737 9.8762151,19.78512 9.7499217,19.625984 9.6261235,19.46432 9.529532,19.264307 9.4613474,19.026863 c -0.065682,-0.239968 -0.098145,-0.515474 -0.098145,-0.826172 0,-0.313223 0.034358,-0.589534 0.1025391,-0.832032 0.070725,-0.245018 0.1681306,-0.450387 0.2944337,-0.619629 0.1262983,-0.169239 0.2802144,-0.297907 0.4570314,-0.383789 0.17934,-0.08842 0.37749,-0.133301 0.594727,-0.133301 0.199557,0 0.369783,0.02565 0.511231,0.07617 0.143987,0.04799 0.264761,0.10197 0.363281,0.162598 0.100996,0.05809 0.182903,0.112067 0.246094,0.162597 0.06317,0.04799 0.112604,0.07178 0.147949,0.07178 0.02026,0 0.03723,-0.0045 0.0498,-0.01465 0.01517,-0.01256 0.02654,-0.03 0.03662,-0.05273 0.01037,-0.02527 0.01863,-0.05547 0.02344,-0.09082 0.0048,-0.03535 0.0059,-0.07692 0.0059,-0.127442 0,-0.04547 -9.71e-4,-0.08581 -0.0059,-0.118652 -0.0023,-0.03284 -0.0085,-0.06076 -0.01611,-0.0835 -0.0051,-0.02526 -0.01335,-0.04676 -0.02344,-0.06445 -0.01009,-0.01769 -0.03204,-0.04333 -0.06738,-0.07617 -0.0328,-0.03535 -0.09466,-0.08025 -0.183106,-0.133301 -0.0884,-0.05305 -0.188092,-0.09875 -0.301758,-0.13916 -0.113676,-0.04043 -0.238199,-0.0729 -0.37207,-0.09815 -0.13388,-0.02779 -0.271629,-0.04248 -0.413086,-0.04248 z m 18.336921,0.02783 c -0.04542,0 -0.08392,-0.0011 -0.114258,0.0015 -0.03026,0 -0.05634,0.0037 -0.0791,0.0088 -0.02276,0.005 -0.04048,0.0096 -0.05566,0.01465 -0.01517,0.005 -0.028,0.01294 -0.03809,0.02051 l -1.13086,0.722168 c -0.02276,0.01515 -0.04049,0.03026 -0.05566,0.04541 -0.01256,0.01517 -0.02309,0.03399 -0.03076,0.0542 -0.0077,0.02022 -0.01273,0.04439 -0.01758,0.07471 -0.0029,0.03031 -0.0044,0.06839 -0.0044,0.111329 0,0.05809 9.71e-4,0.105658 0.0059,0.143554 0.0076,0.0379 0.02187,0.06435 0.03955,0.08203 0.01766,0.01517 0.03964,0.02118 0.06738,0.01611 0.03026,-0.0051 0.0677,-0.02015 0.115723,-0.04541 l 0.947754,-0.56543 v 3.728029 h -1.022461 c -0.02016,0 -0.03947,0.0064 -0.05713,0.01904 -0.01517,0.01007 -0.02844,0.02707 -0.04102,0.0498 -0.0099,0.02021 -0.01868,0.04626 -0.02637,0.0791 -0.0077,0.03284 -0.01172,0.07171 -0.01172,0.117188 0,0.04801 0.004,0.0902 0.01172,0.123046 0.0076,0.03284 0.01808,0.0589 0.03076,0.0791 0.01517,0.0202 0.03025,0.03385 0.04541,0.04395 0.01517,0.0076 0.03068,0.01318 0.04834,0.01318 h 2.562013 c 0.01768,0 0.03464,-0.0056 0.0498,-0.01318 0.01777,-0.01007 0.03137,-0.02374 0.04395,-0.04395 0.01256,-0.02022 0.02308,-0.04626 0.03076,-0.0791 0.0077,-0.03283 0.01172,-0.07504 0.01172,-0.123046 0,-0.04548 -0.0027,-0.08434 -0.01025,-0.117188 -0.005,-0.03284 -0.01222,-0.0589 -0.0249,-0.0791 -0.01009,-0.02273 -0.02627,-0.03971 -0.04395,-0.0498 -0.01776,-0.01256 -0.03697,-0.01904 -0.05713,-0.01904 h -0.886231 v -4.308107 c 0,-0.01515 -0.0027,-0.02693 -0.01025,-0.03955 -0.0076,-0.01515 -0.02265,-0.02756 -0.04541,-0.03516 -0.02276,-0.01007 -0.05624,-0.01837 -0.09668,-0.02344 -0.04045,-0.0051 -0.09029,-0.0059 -0.150879,-0.0059 z m -21.8349696,0.01025 c -0.058116,0 -0.109415,0.0027 -0.1523438,0.01025 -0.040438,0.0051 -0.074796,0.01335 -0.1025391,0.02344 -0.025347,0.0076 -0.04307,0.01999 -0.055664,0.03516 -0.010073,0.01515 -0.017578,0.03253 -0.017578,0.05274 v 4.706544 c 0,0.0202 0.00747,0.03611 0.017578,0.05127 0.01009,0.01515 0.026009,0.02798 0.05127,0.03809 0.02526,0.0076 0.059616,0.01396 0.1025391,0.01904 0.04298,0.0076 0.096147,0.01172 0.1567383,0.01172 0.063126,0 0.1133723,-0.0041 0.1538087,-0.01172 0.042922,-0.005 0.077293,-0.01148 0.1025391,-0.01904 0.02526,-0.01009 0.042655,-0.02292 0.052734,-0.03809 0.010073,-0.01515 0.016113,-0.03107 0.016113,-0.05127 v -4.706544 c 0,-0.02021 -0.00611,-0.03758 -0.016113,-0.05274 -0.010073,-0.01515 -0.027474,-0.02756 -0.052734,-0.03516 -0.02526,-0.01007 -0.059617,-0.01837 -0.1025391,-0.02344 -0.04038,-0.0076 -0.090626,-0.01025 -0.1538087,-0.01025 z m -6.69287378,0.02344 c -0.0681747,0 -0.1304328,0.02045 -0.18603523,0.06592 -0.0556044,0.04546 -0.0834961,0.12389 -0.0834961,0.229981 v 4.50879 c 0,0.02021 0.004045,0.0361 0.0117188,0.05127 0.0100903,0.01515 0.0255776,0.02798 0.0483399,0.03809 0.0252547,0.0076 0.0577133,0.01396 0.0981446,0.01904 0.0404401,0.0076 0.0917477,0.01172 0.15234382,0.01172 0.063142,0 0.11630705,-0.0041 0.15673834,-0.01172 0.0404402,-0.005 0.0728988,-0.01148 0.0981446,-0.01904 0.0252582,-0.01007 0.0426528,-0.02292 0.0527344,-0.03809 0.0100721,-0.01515 0.0161133,-0.03106 0.0161133,-0.05127 v -4.271486 h 0.004395 l 1.6713874,4.289065 c 0.00512,0.01515 0.012364,0.02985 0.024902,0.04248 0.015171,0.01256 0.034799,0.02358 0.060059,0.03369 0.025361,0.0076 0.05884,0.01396 0.09668,0.01904 0.03794,0.0051 0.081748,0.0073 0.1347657,0.0073 0.05052,0 0.092102,-0.0023 0.1274414,-0.0073 0.037926,-0.0025 0.07142,-0.0071 0.09668,-0.01465 0.027845,-0.01007 0.047479,-0.02105 0.060059,-0.03369 0.015082,-0.01256 0.026008,-0.02918 0.033691,-0.04687 l 1.7475593,-4.289065 h 0.00732 v 4.271486 c 0,0.02021 0.00611,0.03611 0.016113,0.05127 0.010073,0.01515 0.025579,0.02798 0.04834,0.03809 0.02526,0.0076 0.05772,0.01396 0.098145,0.01904 0.042936,0.0076 0.094237,0.01172 0.1523438,0.01172 0.063201,0 0.1115784,-0.0041 0.1494142,-0.01172 0.040424,-0.005 0.074351,-0.01148 0.099609,-0.01904 0.02526,-0.01007 0.042653,-0.02292 0.052734,-0.03809 0.010073,-0.01515 0.014648,-0.03106 0.014648,-0.05127 v -4.50879 c 0,-0.05305 -0.00539,-0.09793 -0.020508,-0.133301 -0.015171,-0.0379 -0.037728,-0.06955 -0.062988,-0.09229 -0.022762,-0.02526 -0.051084,-0.04264 -0.086426,-0.05274 -0.03284,-0.01256 -0.067528,-0.01758 -0.1054688,-0.01758 H 4.995037 c -0.063142,0 -0.1189755,0.0069 -0.1669923,0.02197 -0.04802,0.01272 -0.092877,0.03455 -0.1333008,0.06738 -0.037941,0.03031 -0.074093,0.07146 -0.1069336,0.124511 -0.032842,0.05305 -0.061612,0.119045 -0.089355,0.194825 l -1.478028,3.537599 h -0.017578 l -1.420899,-3.550783 c -0.022659,-0.0682 -0.051689,-0.126724 -0.082031,-0.177246 -0.030344,-0.05052 -0.067372,-0.09169 -0.112793,-0.124512 -0.045509,-0.03284 -0.097605,-0.05661 -0.1582032,-0.07178 -0.0606,-0.01515 -0.1315417,-0.02197 -0.2124024,-0.02197 z m 12.70166538,0 c -0.05815,0 -0.113977,0.01965 -0.166992,0.06006 -0.05052,0.0379 -0.07764,0.105101 -0.07764,0.203613 v 4.541017 c 0,0.0202 0.0061,0.03612 0.01611,0.05127 0.01007,0.01515 0.02749,0.02798 0.05274,0.03809 0.02526,0.0076 0.05772,0.01396 0.09814,0.01904 0.04289,0.0076 0.09794,0.01172 0.161133,0.01172 0.06314,0 0.113372,-0.0041 0.153809,-0.01172 0.04292,-0.005 0.07538,-0.01148 0.09814,-0.01904 0.02526,-0.01007 0.04412,-0.02292 0.0542,-0.03809 0.01256,-0.01515 0.01904,-0.03107 0.01904,-0.05127 v -2.088868 h 0.435059 c 0.149036,0 0.276236,0.02338 0.382325,0.06885 0.106137,0.04294 0.198588,0.105199 0.276855,0.186035 0.07826,0.07831 0.145087,0.171572 0.200684,0.282715 0.05814,0.108622 0.113977,0.230465 0.166992,0.361817 l 0.451172,1.155762 c 0.01024,0.03031 0.02111,0.0545 0.03369,0.07471 0.01517,0.02021 0.0348,0.03572 0.06006,0.04834 0.02526,0.01007 0.05919,0.01837 0.09961,0.02344 0.04294,0.0051 0.09692,0.0073 0.162597,0.0073 0.07582,0 0.136217,-0.0023 0.181641,-0.0073 0.04552,-0.0051 0.08169,-0.01335 0.106934,-0.02344 0.02516,-0.01007 0.04065,-0.02292 0.04834,-0.03809 0.0077,-0.01515 0.01172,-0.03106 0.01172,-0.05127 0,-0.0202 -0.0061,-0.04813 -0.01611,-0.0835 -0.01007,-0.0379 -0.03204,-0.103896 -0.06738,-0.194824 l -0.439453,-1.078125 c -0.05052,-0.12377 -0.10037,-0.23547 -0.150879,-0.333985 -0.05052,-0.09851 -0.104499,-0.184961 -0.162598,-0.260742 -0.05556,-0.07578 -0.117418,-0.141776 -0.183105,-0.194825 -0.06565,-0.05557 -0.138866,-0.0994 -0.219727,-0.134765 0.143991,-0.05052 0.274914,-0.112783 0.391113,-0.186035 0.116188,-0.07325 0.216936,-0.159298 0.300294,-0.257813 0.08337,-0.101038 0.144569,-0.216878 0.1875,-0.345703 0.04542,-0.131352 0.06885,-0.279656 0.06885,-0.443848 0,-0.169242 -0.02713,-0.322496 -0.07764,-0.461426 -0.04799,-0.141462 -0.119746,-0.266382 -0.218262,-0.375 -0.09853,-0.108619 -0.221175,-0.198802 -0.367676,-0.269532 -0.143989,-0.07074 -0.311523,-0.120983 -0.500977,-0.153808 -0.06568,-0.0076 -0.139305,-0.01543 -0.222656,-0.02051 -0.08083,-0.0076 -0.183851,-0.01025 -0.307618,-0.01025 z m 21.509774,0.462891 c 0.121214,0 0.229165,0.01551 0.325196,0.04834 0.09853,0.03031 0.184973,0.08014 0.260742,0.150879 0.07582,0.0682 0.141807,0.15652 0.194824,0.265136 0.05562,0.106094 0.100473,0.233289 0.133301,0.382325 0.03534,0.149032 0.06144,0.321124 0.0791,0.515625 0.01766,0.194502 0.0249,0.414159 0.0249,0.65918 0,0.181874 -0.0065,0.358103 -0.01904,0.527344 -0.01009,0.166714 -0.02969,0.321837 -0.06006,0.46582 -0.03037,0.14399 -0.07109,0.275324 -0.121582,0.394044 -0.05055,0.118731 -0.115087,0.220269 -0.193359,0.306152 -0.07578,0.08336 -0.166769,0.149355 -0.275391,0.194824 -0.106092,0.04546 -0.230611,0.06885 -0.37207,0.06885 -0.181871,0 -0.335527,-0.03808 -0.464356,-0.111328 -0.126296,-0.07325 -0.231585,-0.189899 -0.314941,-0.351563 -0.08078,-0.161663 -0.142241,-0.371828 -0.180176,-0.626953 -0.03794,-0.257652 -0.05566,-0.5683 -0.05566,-0.934571 0,-0.272807 0.01322,-0.530137 0.04102,-0.767578 0.02779,-0.237444 0.08097,-0.442808 0.156739,-0.619629 0.07831,-0.17682 0.183991,-0.316442 0.317871,-0.417481 0.13388,-0.101039 0.308253,-0.149414 0.522949,-0.149414 z m -15.687018,0.02051 c 0.282914,0 0.521411,0.04943 0.713379,0.147949 0.191983,0.09851 0.343366,0.236266 0.457032,0.413086 0.116174,0.174295 0.198078,0.38259 0.246094,0.622559 0.05052,0.237442 0.07764,0.495578 0.07764,0.773438 0,0.26523 -0.02713,0.515485 -0.07764,0.75293 -0.05052,0.237441 -0.133221,0.446546 -0.251954,0.628418 -0.11873,0.179346 -0.275718,0.323108 -0.470215,0.429199 -0.194506,0.106094 -0.433808,0.158203 -0.719238,0.158203 -0.287966,0 -0.530199,-0.04757 -0.722168,-0.143554 -0.189456,-0.09851 -0.338971,-0.234398 -0.452637,-0.408692 -0.113645,-0.176821 -0.196615,-0.387387 -0.244629,-0.629883 -0.04802,-0.242496 -0.07031,-0.507447 -0.07031,-0.79541 0,-0.260177 0.02419,-0.50776 0.07471,-0.742676 0.05303,-0.237443 0.140553,-0.444277 0.259278,-0.621094 0.121242,-0.17682 0.276771,-0.317248 0.46875,-0.42334 0.191969,-0.106092 0.429,-0.161133 0.711914,-0.161133 z m -5.414065,0.0542 h 0.549317 c 0.128869,0 0.232281,0.0027 0.310547,0.01025 0.08079,0.0076 0.153607,0.02039 0.216797,0.03809 0.202101,0.0581 0.346276,0.156163 0.432129,0.290039 0.08586,0.131355 0.128906,0.291424 0.128906,0.483399 0,0.118717 -0.02255,0.228552 -0.06299,0.32959 -0.0379,0.101038 -0.09828,0.189356 -0.181641,0.265136 -0.08336,0.07325 -0.185717,0.132836 -0.312011,0.175782 -0.123785,0.04043 -0.273547,0.06006 -0.445313,0.06006 h -0.635743 z m 10.160161,0.742676 c -0.05732,3.4e-5 -0.106455,0.002 -0.146485,0.0044 -0.03794,0.0025 -0.07142,0.009 -0.09668,0.01904 -0.02276,0.0076 -0.03972,0.01853 -0.04981,0.03369 -0.01007,0.01517 -0.01465,0.03106 -0.01465,0.05127 v 0.03076 c 0.0029,0.01007 0.0084,0.02561 0.01318,0.04834 0.0076,0.02275 0.01482,0.05173 0.0249,0.08203 l 1.160157,3.237306 c 0.01007,0.02526 0.02335,0.04824 0.04102,0.06592 0.01768,0.01767 0.04291,0.03092 0.07324,0.04102 0.03284,0.01007 0.07253,0.01837 0.123047,0.02344 0.05052,0.0051 0.114665,0.0073 0.19043,0.0073 0.07579,0 0.141372,-0.0023 0.191894,-0.0073 0.05052,-0.0025 0.0902,-0.009 0.123047,-0.01904 0.03284,-0.01007 0.05808,-0.0248 0.07324,-0.04248 0.01768,-0.01769 0.03093,-0.04108 0.04102,-0.06885 l 1.163087,-3.237306 c 0.0048,-0.01767 0.0089,-0.03465 0.01172,-0.0498 0.0048,-0.01515 0.0075,-0.02984 0.01025,-0.04248 0.0029,-0.01256 0.0044,-0.02358 0.0044,-0.03369 0.0029,-0.01256 0.0044,-0.02505 0.0044,-0.03516 0,-0.0202 -0.0046,-0.03572 -0.01465,-0.04834 -0.0076,-0.01515 -0.02558,-0.02653 -0.04834,-0.03662 -0.02018,-0.01009 -0.04703,-0.01654 -0.08496,-0.01904 -0.03784,-0.0025 -0.08692,-0.0044 -0.14502,-0.0044 -0.06823,0 -0.122602,0.0037 -0.165527,0.0088 -0.04042,0.0025 -0.07582,0.006 -0.101074,0.01611 -0.02276,0.01007 -0.03868,0.0244 -0.05127,0.03955 -0.01286,0.01517 -0.02303,0.0344 -0.02783,0.05713 l -0.949219,2.809571 -0.01172,0.04687 -0.01611,-0.04687 -0.960938,-2.809571 c -0.01007,-0.02275 -0.02248,-0.04198 -0.03516,-0.05713 -0.01007,-0.01515 -0.02748,-0.02944 -0.05274,-0.03955 -0.02276,-0.01009 -0.05712,-0.01361 -0.102539,-0.01611 -0.04256,-0.0051 -0.100464,-0.0087 -0.172851,-0.0088 z m 21.001473,0.484863 c 0.161662,0 0.295675,0.03742 0.404297,0.115723 0.108605,0.07578 0.195057,0.178387 0.260742,0.304688 0.0657,0.126297 0.112449,0.272334 0.137696,0.436523 0.02776,0.164191 0.04248,0.332543 0.04248,0.506837 0,0.159137 -0.01699,0.316533 -0.0498,0.473144 -0.03026,0.154088 -0.08157,0.295575 -0.152344,0.421875 -0.0682,0.123772 -0.158382,0.223049 -0.269532,0.298829 -0.111134,0.07578 -0.244756,0.114258 -0.401367,0.114258 -0.169237,0 -0.331182,-0.05398 -0.487793,-0.162598 -0.156611,-0.111148 -0.32041,-0.272276 -0.492188,-0.481934 v -1.36084 c 0.09855,-0.126299 0.189536,-0.231585 0.275391,-0.314942 0.08839,-0.08336 0.174024,-0.150565 0.254883,-0.203613 0.08088,-0.05305 0.159038,-0.09006 0.237305,-0.112793 0.07828,-0.02273 0.159375,-0.03516 0.240234,-0.03516 z m -13.012212,2.288087 c -0.156639,0 -0.266061,0.02874 -0.32666,0.08936 -0.0581,0.0581 -0.08643,0.178075 -0.08643,0.357422 0,0.174292 0.02833,0.291997 0.08643,0.350098 0.0581,0.0581 0.161914,0.08643 0.313476,0.08643 0.156611,0 0.265628,-0.02832 0.323731,-0.08643 0.0606,-0.06063 0.08935,-0.181005 0.08935,-0.360352 0,-0.174291 -0.02686,-0.290533 -0.08496,-0.348633 -0.0581,-0.0581 -0.163382,-0.08789 -0.314941,-0.08789 z m 5.891604,0 c -0.156636,0 -0.264594,0.02874 -0.325196,0.08936 -0.0581,0.0581 -0.08789,0.178078 -0.08789,0.357422 0,0.174295 0.02979,0.291997 0.08789,0.350098 0.0581,0.0581 0.163381,0.08643 0.314942,0.08643 0.156601,0 0.262704,-0.02832 0.320801,-0.08643 0.0606,-0.06063 0.09228,-0.181005 0.09228,-0.360352 0,-0.174291 -0.02979,-0.290533 -0.08789,-0.348633 -0.05809,-0.0581 -0.163379,-0.08789 -0.314941,-0.08789 z"
       id="path9"
       fill="#ffc000"
       stroke="none" /><path
       d="m 118.14694,0.70898466 -2.84912,0.14941412 c -0.0259,0.007728 -0.0533,0.0125784 -0.0791,0.0205078 l 3.20948,-0.16699225 z m -37.645037,0.00293 C 78.054723,0.81524472 75.851417,1.4193802 74.239694,3.0131848 l -0.514161,0.027832 c -6.97e-4,7.654e-4 -0.0022,6.989e-4 -0.0029,0.00146 l 0.512695,-0.026367 c -0.42233,0.4182728 -0.812538,0.8884808 -1.145508,1.4545904 L 72.566842,5.3598654 72.432076,4.3374041 c -0.05595,-0.4259118 -0.18694,-0.8286278 -0.38086,-1.2070317 l 0.376465,-0.019043 c -4.57e-4,-9.929e-4 -0.001,-0.00194 -0.0015,-0.00293 l -0.376465,0.019043 C 72.022161,3.0737172 72.005717,3.0158543 71.975044,2.9633801 71.132386,1.5195695 69.433989,1.0664067 67.775336,1.0664067 l -21.001474,-0.00732 c -0.04204,0 -0.106153,0.027003 -0.137695,0.060059 L 43.122005,4.7827168 43.020931,1.2480474 c -0.0027,-0.1118179 -0.07982,-0.1889649 -0.188965,-0.1889649 h -4.218751 c -0.125333,0 -0.204504,0.093218 -0.1875,0.2211915 L 39.404231,8.6572301 35.950128,12.259282 34.458916,1.2290044 c -0.01439,-0.10889 -0.083,-0.1699219 -0.19043,-0.1699219 h -5.355471 -0.0059 c -0.03094,-0.0011 -0.112805,0.034853 -0.146484,0.084961 l -5.567874,8.2397494 h -3.955079 l 2.604493,-8.0698274 c 0.04359,-0.1349217 -0.04453,-0.2563478 -0.181641,-0.2563478 h -3.802736 c -0.08294,0 -0.154732,0.051364 -0.181641,0.1347657 L 16.694749,4.2363298 16.321213,3.3720717 c -0.2163,-0.5016298 -0.533535,-0.9503555 -0.950684,-1.3154302 -0.82285,-0.7208263 -1.894624,-0.9998666 -3.01172,-0.997559 -2.6371421,0.00486 -5.2743242,0 -7.910159,0 -0.082686,0 -0.1547851,0.052547 -0.1816407,0.1362305 h -0.00146 l -3.54345846,10.984868 -0.004395,0.0073 c -0.0453316,0.120148 0.0375849,0.241273 0.18457038,0.250488 h 0.0146485 c 1.34773896,9e-6 2.69438976,0.0012 4.04150556,0 0.076973,-4.06e-4 0.1600178,-0.0594 0.1801758,-0.125976 v -0.0029 l 0.6093753,-1.88379 4.809084,0.03076 c 1.387098,-0.06434 2.781988,-0.5546192 3.902345,-1.3886725 l 0.889161,-0.6621097 -1.220216,3.7763692 c -0.04354,0.134766 0.04464,0.254882 0.181641,0.254882 h 10.87354 c 0.06616,0 0.118089,-0.02746 0.156738,-0.08496 h 0.0015 l 5.252932,-7.7753933 1.038574,7.6904333 c 0.01424,0.102898 0.09132,0.169921 0.188965,0.169921 h 8.390629 c 0.04372,0 0.104611,-0.02534 0.13916,-0.06152 l 8.270511,-8.6191441 h 2.721681 l -2.871095,8.4257851 c -0.04134,0.122845 0.05468,0.256347 0.178711,0.256347 h 3.802736 c 0.08234,0 0.154778,-0.05153 0.18164,-0.130371 l 2.913576,-8.5502963 h 3.695802 l -2.723145,8.4345733 c -0.04367,0.135172 0.04225,0.251954 0.183105,0.251954 h 4.064943 c 0.06233,0 0.152786,-0.0654 0.174317,-0.131836 l 1.434082,-4.4501974 0.0015,0.00439 1.308106,-4.0576188 0.0791,-0.2460939 h 2.980958 c 0.160154,0 0.377261,0.00733 0.602051,0.05127 0.224695,0.04392 0.470032,0.1145213 0.665039,0.3237306 0.27835,0.2977677 0.223382,0.6715741 0.175782,0.9008793 -0.100727,0.4843516 -0.194204,1.0100534 -0.350098,1.5175787 -0.102207,0.3311376 -0.245536,0.7219333 -0.553711,1.0268559 -0.350554,0.344057 -0.805314,0.4482585 -1.204102,0.4819338 l -0.01611,0.00146 -3.685548,0.00146 3.021974,4.491213 c 0.03775,0.05551 0.09454,0.08496 0.162597,0.08496 h 4.078127 c 0.164892,0 0.251423,-0.156766 0.161133,-0.298829 v -0.0015 L 68.223578,9.6474648 68.727485,9.5449257 c 0.820951,-0.1677138 1.672462,-0.6352741 2.330567,-1.2465825 l 0.558106,0.4160158 0.03662,-0.1347657 c -0.01272,0.2287272 -0.01369,0.4577561 0,0.687012 v 0.00146 c 0.07762,1.3474759 0.710649,2.1291549 1.643555,2.6469739 0.931734,0.517167 2.177273,0.724957 3.364748,0.760254 h 0.0015 2.731935 c 2.157358,-0.0287 4.726953,-1.161708 6.234378,-2.8813487 l 0.60498,0.3427737 -0.663574,2.052247 v 0.0015 c -0.0446,0.137072 0.04177,0.256347 0.181641,0.256347 h 3.801271 c 0.08644,0 0.15392,-0.04923 0.183105,-0.13916 l 2.033204,-6.303225 2.557618,6.303225 c 0.0365,0.09021 0.107033,0.13916 0.194825,0.13916 h 4.334474 c 0.08602,0 0.153697,-0.0486 0.183106,-0.137695 l 3.474611,-10.7666059 0.37939,-0.020508 0.003,-0.013184 -0.37793,0.020508 0.0659,-0.2050782 c 0.0447,-0.1373459 -0.0408,-0.2548829 -0.18164,-0.2548829 h -3.80127 c -0.08789,0 -0.154058,0.048189 -0.183105,0.1376953 l -0.175782,0.546387 -0.379394,0.020508 -0.0044,0.011719 0.379395,-0.020508 -1.766603,5.4697288 -2.134278,-5.2661154 0.373535,-0.019043 -0.0044,-0.010254 -0.373535,0.019043 -0.304688,-0.7514652 C 93.992463,1.1190061 93.91708,1.0678715 93.830522,1.0678715 h -4.533693 c -0.08788,0 -0.154059,0.048189 -0.183106,0.1376954 l -0.336914,1.044434 -0.379395,0.020508 -0.0015,0.00732 0.377929,-0.019043 -0.555176,1.7197272 -0.685547,-0.049805 C 87.426198,3.2849878 87.183113,2.7756098 86.849074,2.3583994 l 0.416016,-0.020508 c -0.0018,-0.00264 -0.0026,-0.00615 -0.0044,-0.00879 L 86.84175,2.3510752 C 86.552242,1.9919053 86.19714,1.6990216 85.779738,1.467774 84.875875,0.96701924 83.708558,0.75090676 82.562939,0.7368167 Z m 37.951187,0 c -3.09905,0.13960321 -5.8187,1.06194175 -7.40772,3.83789215 -0.851,1.4857221 -1.29895,3.0125713 -1.20117,4.7138691 0.0781,1.3469874 0.6656,2.1279644 1.54541,2.6440444 0.87987,0.516113 2.07609,0.728291 3.27686,0.763184 h 2.72607 c 3.0185,-0.03848 5.64333,-1.699474 7.0254,-4.3886741 0.072,-0.1415768 -0.0135,-0.2739259 -0.16114,-0.2739259 h -4.45605 c -0.0482,0 -0.12468,0.042536 -0.15381,0.089355 h -0.001 c -0.4006,0.6395683 -0.82051,1.1088098 -1.35644,1.4003912 -0.53594,0.2915815 -1.16171,0.3905441 -1.9292,0.3618166 -0.56069,-0.021407 -1.25742,-0.1728702 -1.63477,-0.7851566 -0.52432,-0.85048 -0.20045,-1.9579247 0.0732,-2.6660167 v -0.00146 c 0.35345,-0.9120052 0.77855,-1.6618782 1.41358,-2.182618 0.63503,-0.5207397 1.46869,-0.7807763 2.52832,-0.7485355 0.56811,0.017487 1.03442,0.1087555 1.37256,0.4189455 0.33814,0.31019 0.4585,0.7812098 0.4585,1.3593756 0.003,0.1134257 0.0759,0.1860352 0.18017,0.1860352 h 4.53809 c 0.10111,0 0.17276,-0.067774 0.18017,-0.1757813 0.0835,-1.1713917 -0.11447,-2.3067693 -0.8789,-3.1508802 -0.95584,-1.0526088 -2.56435,-1.3577931 -4.02393,-1.37548885 z m -13.0752,0.35742205 c -0.0899,0 -0.1552,0.048158 -0.18164,0.1347656 v 0.00146 l -0.0586,0.1860352 -0.37647,0.019043 -0.004,0.014648 0.37793,-0.020508 -3.35157,10.9189493 c -0.0114,0.03718 -0.001,0.08015 0.0117,0.101075 0.0131,0.02089 0.007,0.02051 0.0352,0.02051 h 0.85107 l -0.001,0.0015 h 2.95019 c 0.0864,0 0.15707,-0.05155 0.18457,-0.137695 l 3.54493,-10.9848677 c 0.0174,-0.053368 0.002,-0.097605 -0.0147,-0.1391602 l 0.36914,-0.019043 c -9.5e-4,-0.0053 -0.005,-0.0094 -0.006,-0.014648 l -0.36621,0.019043 c -0.03,-0.058567 -0.0821,-0.1010742 -0.1626,-0.1010742 z M 80.739208,3.4790053 c 0.608903,0.01829 1.441218,0.1389764 1.864747,0.8393558 0.288781,0.4774792 0.288861,1.0476634 0.208008,1.5791022 -0.08085,0.5314388 -0.253442,1.0391809 -0.398438,1.4135748 -0.348908,0.9006333 -0.881785,1.5725872 -1.576172,1.995118 -0.694209,0.4224214 -1.5324,0.5918032 -2.477052,0.5566408 C 77.796732,9.8426732 77.099934,9.6868485 76.72407,9.0747107 76.201459,8.2244403 76.523484,7.1186017 76.797312,6.4101588 77.15077,5.4981222 77.575809,4.7464419 78.210887,4.2260759 78.845966,3.7057101 79.679665,3.4467672 80.739208,3.4790053 Z M 7.9598819,3.5551772 h 2.9824231 c 0.36807,0 0.695115,0.00284 0.972657,0.2329103 0.13877,0.1150343 0.23295,0.2874554 0.270996,0.4643556 0.03805,0.1769004 0.03359,0.3626512 0.0073,0.5771487 -0.04851,0.4002158 -0.198789,0.8876042 -0.325195,1.2319341 -0.343251,0.932093 -1.144238,1.6054694 -2.1826184,1.6054694 l -3.0483411,0.00146 1.2436528,-3.867189 z"
       id="path8"
       fill="#ffc000"
       stroke="none" /><path
       d="m 126.60055,9.3178749 c -0.9572,0 -1.76532,0.7069581 -1.86767,1.6186531 v 0.448242 c 0.0467,0.46766 0.21604,0.800422 0.53906,1.122071 0.92759,0.924209 2.5143,0.556031 3,-0.563965 0.23129,-0.532638 0.22624,-0.946413 0.0205,-1.491212 -0.22397,-0.5922224 -0.96152,-1.1337891 -1.6919,-1.1337891 z m -0.0937,0.3808595 c 0.0529,-0.00122 0.1059,0.00111 0.15821,0.00586 0.73237,0.066422 1.40185,0.6876702 1.40185,1.4545902 0,0.789228 -0.66386,1.485352 -1.46484,1.485352 h -0.001 c -0.84481,0 -1.49853,-0.631064 -1.49853,-1.388672 0,-0.5071 0.0928,-0.785773 0.44824,-1.139649 0.24012,-0.2386534 0.51731,-0.3660677 0.79834,-0.404297 0.0527,-0.00717 0.10527,-0.011958 0.1582,-0.013184 z m -0.0718,0.4145506 c -0.062,-3.57e-4 -0.12293,3.05e-4 -0.18311,0.0015 -0.16049,0.0031 -0.31101,0.01025 -0.43213,0.01025 v 2.066895 h 0.48926 v -0.839355 h 0.25928 c 0.017,0.212812 0.30314,0.594928 0.36035,0.839355 h 0.58447 l -0.45556,-0.936035 c 0.32137,-0.02675 0.562,-0.396817 0.38672,-0.8042 -0.12223,-0.283304 -0.5755,-0.33588 -1.00928,-0.338379 z m -0.12744,0.333985 c 0.34206,0 0.65185,-0.01373 0.65185,0.355957 0,0.137416 -0.20307,0.225586 -0.35889,0.225586 h -0.29296 z"
       id="path6"
       fill="#ffc000"
       stroke="none" /></g><g
     id="silkscreen"><path
       d="m 118.47799,0 c -1.5373,0.06455628 -3.02626,0.33858769 -4.35937,0.91992225 l 4.02832,-0.21093759 0.28125,0.00293 -4.35938,0.22705087 c -1.4624,0.64814728 -2.73205,1.67546458 -3.63867,3.25927868 -0.90242,1.5754971 -1.39991,3.2553837 -1.29346,5.1064474 0.0897,1.5488037 0.84974,2.6013007 1.89404,3.2138687 1.04431,0.612566 2.34755,0.824492 3.61524,0.861328 h 0.006 0.0102 2.7378 0.001 c 3.27512,-0.04175 6.15136,-1.865351 7.64649,-4.7753923 0.29738,-0.5829198 -0.13862,-1.3051763 -0.79102,-1.3051763 h -4.45605 c -0.31413,0 -0.59287,0.161355 -0.75586,0.42334 -0.3652,0.5828103 -0.70128,0.9390357 -1.09424,1.1528325 -0.39317,0.2139084 -0.87047,0.3013391 -1.56445,0.2753907 -0.45832,-0.017498 -0.86103,-0.1292527 -1.05762,-0.4482424 -0.28061,-0.4551515 -0.11047,-1.4195274 0.1289,-2.0390633 0.33116,-0.8544981 0.70801,-1.4855036 1.20264,-1.891114 0.49459,-0.4055734 1.11854,-0.6159037 2.05664,-0.5874026 0.49832,0.015339 0.77614,0.1050391 0.91553,0.2329102 0.13939,0.1278711 0.22998,0.3520142 0.22998,0.8364262 v 0.013184 0.00439 c 0.0118,0.4769279 0.40515,0.8774417 0.88916,0.8774417 h 4.53809 c 0.46795,0 0.85471,-0.3754552 0.88623,-0.8364261 0.0914,-1.2841717 -0.12525,-2.6410539 -1.06055,-3.6738296 V 1.637696 C 123.94543,0.34905006 122.12426,0.04807198 120.57565,0.02929689 L 118.85592,0.00878907 V 0 h -0.3706 z M 80.475536,0.00292969 c -2.804639,0.11782948 -5.466842,0.8960321 -7.262698,3.06445441 l 1.026856,-0.054199 c 1.611725,-1.5938062 3.815027,-2.19793998 6.262209,-2.30127045 l 2.061036,0.0249023 c 1.14562,0.0140901 2.312935,0.23020204 3.216799,0.7309573 0.417403,0.2312478 0.772504,0.524131 1.062012,0.8833012 l 0.808594,-0.04248 C 87.263414,1.6858902 86.743031,1.1896468 86.123976,0.84668003 85.072248,0.26400642 83.798511,0.04292035 82.571728,0.02783204 L 80.501903,0.00292969 H 80.48286 Z M 17.857835,0.34863295 c -0.3913,0 -0.736459,0.25809047 -0.855469,0.62695338 L 16.557053,2.3554697 C 16.352402,2.0533246 16.119442,1.7699293 15.837815,1.5234381 14.853763,0.6613976 13.594336,0.34758284 12.357345,0.3500978 c -2.6354016,0.004861 -5.2719858,0 -7.908695,0 -0.3915509,0 -0.7378699,0.25740748 -0.8569339,0.62841822 L 0.05558186,11.937017 c -0.21245896,0.563109 0.2128285,1.170048 0.8027347,1.207031 l -0.027832,-0.0029 0.0351563,0.0059 h 0.0351563 c 1.35318835,0 2.70525875,0.0012 4.05908365,0 h 0.00146 0.00146 c 0.3851041,-0.002 0.7379712,-0.246632 0.8540043,-0.629883 l 0.4453126,-1.379883 4.2963887,0.02783 h 0.01904 l 0.0073,-0.0015 c 1.200209,-0.05495 2.390585,-0.403175 3.448244,-0.9917 l -0.578614,1.79297 c -0.184867,0.572737 0.253233,1.180664 0.855469,1.180664 h 10.87354 c 0.298636,0 0.579968,-0.152 0.745605,-0.398438 l 4.211428,-6.2343771 0.789551,5.8505881 h 0.0015 c 0.06115,0.441764 0.44107,0.782227 0.890625,0.782227 h 8.390629 c 0.250555,0 0.482118,-0.103464 0.651855,-0.28125 l 8.059574,-8.3994174 h 1.429688 l -2.551759,7.4897494 c -0.194353,0.574935 0.241698,1.192383 0.84961,1.192383 h 3.802736 c 0.384606,0 0.728621,-0.24714 0.852539,-0.61084 l 2.749513,-8.0698276 h 2.21631 l -2.424318,7.5087916 c -0.184934,0.572404 0.256029,1.177735 0.856934,1.177735 h 4.064943 c 0.392445,0 0.728619,-0.253747 0.848145,-0.622559 L 62.6059,9.4687538 64.817815,12.755865 v 0.0015 c 0.168965,0.248431 0.451798,0.395508 0.748535,0.395508 h 4.078127 c 0.6936,0 1.130574,-0.803707 0.758789,-1.388672 l -1.053223,-1.664063 c 0.561674,-0.1774761 1.106491,-0.4446144 1.595216,-0.7954107 9.5e-5,0.0016 -9.5e-5,0.00279 0,0.00439 0.0904,1.5650872 0.914138,2.6190752 2.006837,3.2255872 1.09287,0.606607 2.438764,0.812787 3.692872,0.84961 h 0.0059 0.01025 2.737794 0.0015 c 1.952236,-0.02504 4.102736,-0.832349 5.736331,-2.157716 l -0.240235,0.744141 c -0.186236,0.572865 0.251233,1.185059 0.85547,1.185059 h 3.801271 c 0.39266,0 0.737767,-0.262685 0.856934,-0.629883 l 1.435547,-4.4487323 1.823731,4.4970723 c 0.138682,0.342438 0.4735,0.581543 0.85254,0.581543 h 4.334474 c 0.392659,0 0.737767,-0.262684 0.856934,-0.629883 L 103.25826,1.5439459 c 0.004,-0.013552 -7.7e-4,-0.027429 0.003,-0.041016 l -0.74707,0.039551 -3.474611,10.7666059 c -0.02941,0.0891 -0.09708,0.137695 -0.183106,0.137695 h -4.334474 c -0.08779,0 -0.158328,-0.04895 -0.194825,-0.13916 l -2.557618,-6.303225 -2.033204,6.303225 c -0.02918,0.08993 -0.09666,0.13916 -0.183105,0.13916 h -3.801271 c -0.139871,0 -0.226245,-0.119275 -0.181641,-0.256347 v -0.0015 l 0.663574,-2.052247 -0.60498,-0.3427737 c -1.507427,1.7196427 -4.077018,2.8526527 -6.234378,2.8813487 h -2.731935 -0.0015 c -1.187476,-0.0353 -2.433013,-0.243086 -3.364748,-0.760254 -0.932907,-0.517819 -1.565931,-1.299496 -1.643555,-2.6469739 v -0.00146 c -0.01369,-0.2292561 -0.01272,-0.4582846 0,-0.687012 L 71.616158,8.714359 71.058052,8.2983432 c -0.658106,0.611309 -1.509615,1.0788685 -2.330567,1.2465825 L 68.223578,9.6474648 69.80561,12.14356 v 0.0015 c 0.09029,0.142063 0.0038,0.298829 -0.161133,0.298829 H 65.56635 c -0.06806,0 -0.124843,-0.02945 -0.162597,-0.08496 l -3.021974,-4.491213 3.685548,-0.00146 0.01611,-0.00146 C 66.482229,7.831074 66.936989,7.7268728 67.287543,7.3828155 67.595719,7.0778926 67.739047,6.6870975 67.841254,6.3559596 67.997148,5.8484338 68.090624,5.322733 68.191352,4.8383809 68.238952,4.6090755 68.29392,4.2352696 68.01557,3.9375016 67.820563,3.7282921 67.575226,3.6576912 67.350531,3.613771 67.12574,3.5698323 66.908634,3.5625014 66.74848,3.5625014 h -2.980958 l -0.0791,0.2460939 -1.308106,4.0576188 -0.0015,-0.00439 -1.434082,4.4501974 c -0.02153,0.06643 -0.111984,0.131836 -0.174317,0.131836 h -4.064943 c -0.140851,0 -0.226777,-0.116782 -0.183105,-0.251954 l 2.723145,-8.4345733 h -3.695802 l -2.913576,8.5502963 c -0.02686,0.07884 -0.09931,0.130371 -0.18164,0.130371 h -3.802736 c -0.124034,0 -0.22005,-0.133501 -0.178711,-0.256347 l 2.871095,-8.4257851 h -2.721681 l -8.270511,8.6191441 c -0.03455,0.03619 -0.09544,0.06152 -0.13916,0.06152 h -8.390629 c -0.09764,0 -0.17472,-0.06702 -0.188965,-0.169921 L 30.594657,4.5761737 25.341725,12.351567 h -0.0015 c -0.03865,0.0575 -0.09058,0.08496 -0.156738,0.08496 h -10.87354 c -0.137003,0 -0.225182,-0.120116 -0.181641,-0.254882 L 15.348557,8.4052768 14.459396,9.0673865 C 13.339038,9.9014407 11.94415,10.391721 10.557051,10.456059 l -4.809084,-0.03076 -0.6093753,1.88379 v 0.0029 c -0.020158,0.06658 -0.1032027,0.12557 -0.1801758,0.125976 -1.3471171,0.0012 -2.6937653,9e-6 -4.04150556,0 h -0.0146485 c -0.1469856,-0.0092 -0.229902,-0.13034 -0.18457038,-0.250488 l 0.004395,-0.0073 L 4.2655445,1.195313 h 0.00146 c 0.026856,-0.083683 0.098954,-0.1362305 0.1816407,-0.1362305 2.6358374,0 5.2730143,0.00486 7.910159,0 1.117097,-0.00231 2.188869,0.2767319 3.01172,0.997559 0.417149,0.365075 0.734384,0.8137999 0.950684,1.3154302 l 0.373536,0.8642581 0.981445,-3.0439465 c 0.02691,-0.083402 0.09871,-0.1347657 0.181641,-0.1347657 h 3.802736 c 0.137116,0 0.225232,0.1214259 0.181641,0.2563478 l -2.604493,8.0698274 h 3.955079 l 5.567874,-8.2397494 c 0.03368,-0.050108 0.115544,-0.086058 0.146484,-0.084961 h 0.0059 5.355471 c 0.107432,0 0.176036,0.061032 0.19043,0.1699219 L 35.950128,12.259282 39.404231,8.6572301 38.425715,1.280274 c -0.017,-0.1279738 0.06217,-0.2211915 0.1875,-0.2211915 h 4.218751 c 0.109141,0 0.186216,0.077147 0.188965,0.1889649 l 0.101074,3.5346694 3.514162,-3.6635757 c 0.03154,-0.033055 0.09566,-0.060059 0.137695,-0.060059 l 21.001474,0.00732 c 1.658655,0 3.357049,0.4531614 4.199708,1.8969734 0.03067,0.052474 0.04712,0.1103371 0.07471,0.1640626 l 0.754394,-0.039551 C 72.735956,2.9257799 72.677857,2.7608175 72.587349,2.6059581 71.569545,0.8622538 69.565119,0.35746568 67.775336,0.35742202 L 46.773862,0.3500978 c -0.249796,0 -0.480077,0.10129729 -0.65039,0.27978527 L 43.78265,3.0717786 43.729916,1.2304692 C 43.718072,0.74899349 43.318664,0.3500978 42.831966,0.3500978 h -4.218751 c -0.541033,0 -0.961174,0.49295707 -0.890626,1.0239262 L 38.65716,8.4126011 36.455499,10.708012 35.162041,1.1352544 v -0.00146 C 35.10284,0.69141154 34.717497,0.3500978 34.268486,0.3500978 h -5.336428 c -0.31197,-0.0110607 -0.589646,0.1446045 -0.760254,0.39843766 L 22.816333,8.6748082 H 20.210375 L 22.51604,1.5322272 C 22.700857,0.95964984 22.265127,0.34863295 21.660571,0.34863295 Z m 71.438994,0.0102539 c -0.391214,0 -0.737629,0.25933176 -0.856934,0.62695338 l -0.42041,1.30371146 0.757324,-0.039551 0.336914,-1.044434 c 0.02905,-0.089506 0.09522,-0.1376954 0.183106,-0.1376954 h 4.533693 c 0.08656,0 0.16194,0.051135 0.197754,0.1391602 l 0.304688,0.7514652 0.748535,-0.039551 -0.396973,-0.97851603 C 94.545236,0.59807458 94.210903,0.35888686 93.830522,0.35888686 Z m 9.304691,0.001465 c -0.391215,0 -0.73763,0.25933411 -0.856934,0.62695338 l -0.259277,0.80566441 0.757324,-0.039551 0.175782,-0.546387 c 0.02905,-0.089506 0.09522,-0.1376953 0.183105,-0.1376953 h 3.80127 c 0.1408,0 0.22633,0.1175368 0.18164,0.2548829 l -0.0659,0.2050782 0.74414,-0.039551 c 0.14267,-0.55625312 -0.27554,-1.12939499 -0.85986,-1.12939499 z m 6.77637,0 c -0.39404,0 -0.74525,0.26182657 -0.85986,0.63720729 l -0.1333,0.4335939 0.75293,-0.039551 0.0586,-0.1860352 v -0.00146 c 0.0264,-0.086608 0.0917,-0.1347656 0.18164,-0.1347656 h 3.80127 c 0.0805,0 0.13262,0.042508 0.1626,0.1010742 l 0.7207,-0.038086 c -0.0665,-0.41981531 -0.42529,-0.77197299 -0.8833,-0.77197299 z m 13.0752,0.35156264 2.11377,0.0263672 c 1.45959,0.0176958 3.06809,0.32287895 4.02393,1.37548885 0.76443,0.8441117 0.96242,1.9794873 0.8789,3.1508802 -0.007,0.1080075 -0.0791,0.1757813 -0.18017,0.1757813 h -4.53809 c -0.10426,0 -0.17701,-0.072609 -0.18017,-0.1860352 0,-0.5781664 -0.12036,-1.0491852 -0.4585,-1.3593756 -0.33814,-0.3101903 -0.80445,-0.4014586 -1.37256,-0.4189455 -1.05963,-0.032241 -1.89329,0.2277953 -2.52832,0.7485355 -0.63503,0.5207403 -1.06013,1.2706119 -1.41358,2.182618 v 0.00146 c -0.27369,0.7080927 -0.59757,1.8155359 -0.0732,2.6660167 0.37735,0.612287 1.07408,0.7637499 1.63477,0.7851566 0.76749,0.028728 1.39326,-0.070235 1.9292,-0.3618166 0.53593,-0.2915817 0.95584,-0.7608223 1.35644,-1.4003912 h 0.001 c 0.0291,-0.046819 0.10557,-0.089355 0.15381,-0.089355 h 4.45605 c 0.14763,0 0.23317,0.132349 0.16114,0.2739259 -1.38207,2.6892031 -4.00689,4.3501921 -7.0254,4.3886741 h -2.72607 c -1.20077,-0.03489 -2.39699,-0.247071 -3.27686,-0.763184 -0.87982,-0.516081 -1.46729,-1.297056 -1.54541,-2.6440444 -0.0978,-1.7012995 0.35017,-3.2281456 1.20117,-4.7138691 1.58902,-2.7759531 4.30867,-3.6982888 7.40772,-3.83789215 z M 110.061,1.148438 l -0.71631,0.036621 c 0.017,0.041555 0.032,0.085792 0.0147,0.1391602 l -3.54493,10.9848677 c -0.0275,0.08615 -0.0981,0.137695 -0.18457,0.137695 h -2.95019 l 0.001,-0.0015 h -0.85107 c -0.0285,0 -0.022,3.81e-4 -0.0352,-0.02051 -0.0131,-0.02093 -0.0231,-0.0639 -0.0117,-0.101075 l 3.35157,-10.9189493 -0.7544,0.039551 -3.27393,10.6713915 c -0.0725,0.23637 -0.0378,0.483359 0.0879,0.684082 0.0167,0.02673 0.0497,0.04259 0.0703,0.06738 l -0.28565,0.288574 h 4.65088 c 0.39266,0 0.74145,-0.260371 0.85987,-0.631348 l 3.54492,-10.9819379 -0.001,0.00146 c 0.0431,-0.1325239 0.0459,-0.2668423 0.0278,-0.3955079 z M 98.238239,1.7651374 97.480914,1.8046882 96.396929,5.1621115 95.085894,1.9292 94.337358,1.9687508 96.471636,7.2348662 Z M 88.773879,2.25879 88.016555,2.2983408 87.881789,2.7158214 C 87.815616,2.5739498 87.734713,2.446738 87.654738,2.3173837 l -0.805664,0.041016 c 0.334039,0.4172108 0.577124,0.9265877 0.684082,1.5703131 l 0.685547,0.049805 z m -14.53858,0.7573245 -1.026856,0.054199 C 73.116641,3.1812992 73.039256,3.3137565 72.952096,3.4321303 72.914548,3.315097 72.85358,3.205096 72.805611,3.0908216 l -0.754395,0.039551 c 0.19392,0.3784043 0.324912,0.7811195 0.38086,1.2070317 l 0.134766,1.0224613 0.522949,-0.8891605 c 0.33297,-0.5661102 0.723178,-1.0363171 1.145508,-1.4545904 z m 6.503909,0.4628908 c -1.059544,-0.032238 -1.893241,0.2267043 -2.528321,0.7470706 -0.635079,0.5203665 -1.060116,1.2720454 -1.413575,2.1840829 -0.273828,0.7084436 -0.595853,1.8142807 -0.07324,2.6645519 0.375864,0.6121384 1.072661,0.7679625 1.636231,0.7880862 0.944653,0.035163 1.782843,-0.134219 2.477052,-0.5566408 C 81.53174,8.8836249 82.064617,8.2116723 82.413525,7.3110381 82.558521,6.9366438 82.73111,6.4289026 82.811963,5.8974633 82.892816,5.366024 82.892736,4.7958408 82.603955,4.3183611 82.180426,3.617981 81.348111,3.4972952 80.739208,3.4790053 Z m -72.7793261,0.076172 -0.079102,0.2460939 -1.2436528,3.867189 3.0483411,-0.00146 c 1.0383814,0 1.8393674,-0.6733755 2.1826184,-1.6054694 0.126406,-0.3443302 0.276689,-0.8317179 0.325195,-1.2319341 0.02626,-0.2144977 0.03072,-0.4002481 -0.0073,-0.5771487 C 12.147912,4.0755427 12.053732,3.9031219 11.914962,3.7880875 11.63742,3.5580186 11.310375,3.5551772 10.942305,3.5551772 Z M 80.717236,4.18799 c 0.524402,0.015752 1.064188,0.1392483 1.280273,0.4965822 0.150192,0.2483313 0.18236,0.6583295 0.114258,1.1059575 -0.0681,0.4476279 -0.224203,0.9163912 -0.358887,1.2641606 C 81.447584,7.8427514 81.019168,8.3668135 80.469677,8.7011754 79.920186,9.0355373 79.231409,9.1854028 78.385203,9.1538123 77.927433,9.1374664 77.523283,9.0229901 77.327586,8.7041051 77.047672,8.2486939 77.218675,7.2842173 77.457957,6.6650418 77.789083,5.8106861 78.164583,5.1791442 78.659129,4.7739277 79.153716,4.3686762 79.778903,4.1594399 80.717236,4.18799 Z M 8.476972,4.2641619 h 2.465333 c 0.32991,0 0.498943,0.05284 0.52002,0.070312 0.01054,0.00874 0.01801,0.00807 0.03076,0.067383 0.01276,0.059311 0.01762,0.1734494 -0.0029,0.3413088 v 0.00146 c -0.03423,0.2828384 -0.175254,0.7674897 -0.28711,1.0722661 -0.264745,0.7189113 -0.768451,1.1411138 -1.5175784,1.1411137 l -2.0756845,0.00146 z m 55.806175,0.00732 h 2.465333 c 0.134118,0 0.313777,0.00837 0.46582,0.038086 0.152043,0.029719 0.263748,0.090964 0.282715,0.1113281 h 0.0015 c 0.01248,0.013314 0.03116,0.116861 -0.0015,0.2739259 -0.103528,0.4978297 -0.194214,1.0027364 -0.332519,1.4531256 -0.08982,0.291008 -0.214066,0.5713677 -0.375,0.7309573 -0.178342,0.1746298 -0.442568,0.2507236 -0.760255,0.2783205 l -2.67627,0.00146 z"
       id="path7"
       style="stroke:none;stroke-opacity:1;fill:#000000;fill-opacity:1" /></g></svg>
