<?xml version='1.0' encoding='UTF-8' standalone='no'?>
<svg xmlns="http://www.w3.org/2000/svg" height="3.3mm" gorn="0" version="1.1" id="svg2"  width="4.6999998mm" viewBox="0 0 18.504701 12.992754">
    <desc >
        <referenceFile >Capacitor-CASE-B-3528.svg</referenceFile>
    </desc>
    <g transform="translate(-380.9,-283.7)" >
        <g >
            <g >
                <defs id="defs2" />
                <g gorn="0.1.0.0.1" id="silkscreen" >
                    <path fill="#000000" gorn="0.1.0.0.1.0" d="m 382.67207,283.7 h 1.40999 v 1.96831 h -2.39491 v 9.05556 h 2.55918 l -0.006,1.96911 h -1.56868 l -1.77213,-1.77214 v -9.4487 z" id="path8"  stroke="none"/>
                    <path fill="#000000" gorn="0.1.0.0.1.1" d="m 387.37701,283.7 v 12.99275 h 0.34292 V 283.7 Z" id="path2"  stroke="none"/>
                    <path fill="black" gorn="0.1.0.0.1.2" d="m 382.67207,283.7 c -0.0528,4e-5 -0.10339,0.0213 -0.14038,0.059 l -1.57275,1.57479 c -0.0372,0.0365 -0.0584,0.0862 -0.059,0.13835 v 9.4487 c 5.8e-4,0.0521 0.0218,0.10186 0.059,0.13835 l 1.57275,1.57479 c 0.037,0.0377 0.0876,0.059 0.14038,0.059 h 1.56868 v -0.39471 h -1.48729 l -1.45881,-1.45678 v -9.28797 l 1.45881,-1.45881 h 1.3286 V 283.7 Z m 5.04786,0 v 0.39471 h 11.29001 v 12.20356 h -11.3099 v 0.39471 h 11.50726 c 0.10911,2.7e-4 0.19762,-0.0882 0.19735,-0.19736 v -12.59826 c 2.7e-4,-0.10911 -0.0882,-0.19763 -0.19735,-0.19736 z" id="rep4"  stroke="none"/>
                    <path fill="#000000" gorn="0.1.0.0.1.3" d="m 384.83691,284.43794 h 1.9686 v 0.49215 h -1.9686 z" id="rect3"  stroke="none"/>
                    <path fill="#000000" gorn="0.1.0.0.1.4" d="m 385.57514,283.69971 h 0.49214 v 1.9686 h -0.49214 z" id="rect3-7"  stroke="none"/>
                    <path fill="#000000" gorn="0.1.0.0.1.5" d="m 384.83691,295.46261 h 1.9686 v 0.49215 h -1.9686 z" id="rect3-3"  stroke="none"/>
                    <path fill="#000000" gorn="0.1.0.0.1.6" d="m 385.57514,294.72438 h 0.49214 v 1.9686 h -0.49214 z" id="rect3-7-5"  stroke="none"/>
                </g>
                <g gorn="0.1.0.0.2" id="copper1" >
                    <path fill="#ffc000" gorn="0.1.0.0.2.0" d="m 386.80551,294.72387 h -5.11836 v -9.05556 h 5.11836 z" id="connector1pad"  stroke="none"/>
                    <path fill="#ffc000" gorn="0.1.0.0.2.1" d="m 398.61651,294.72387 h -5.11836 v -9.05556 h 5.11836 z" id="connector0pad"  stroke="none"/>
                </g>
            </g>
        </g>
    </g>
</svg>
