<?xml version="1.0" encoding="UTF-8" standalone="no"?>
<!-- Created with Inkscape (http://www.inkscape.org/) -->

<svg
   id="svg1"
   gorn="0"
   viewBox="0 0 30 12"
   version="1.1"
   width="30mm"
   height="12mm"
   xmlns="http://www.w3.org/2000/svg"
   xmlns:svg="http://www.w3.org/2000/svg">
  <desc
     id="desc1">
    <referenceFile>Conector-Controle-SNES-PCB.svg</referenceFile>
  </desc>
  <defs
     id="defs1" />
  <g
     id="silkscreen"
     gorn="0.2">
    <path
       id="path63"
       gorn="0.2.30"
       d="M 0,0 H 2 V 0.25 H 0 Z"
       fill="#000000"
       stroke="none" />
    <path
       id="path64"
       gorn="0.2.31"
       d="m 28,0 h 2 v 0.25 h -2 z"
       fill="#000000"
       stroke="none" />
    <path
       d="m 20.199801,6.3396647 c -0.01156,0 -0.02088,5.435e-4 -0.02842,0.00155 -0.0075,4.996e-4 -0.01355,0.00159 -0.01757,0.0031 -0.0045,0.00151 -0.0073,0.00317 -0.0088,0.00568 -0.0015,0.00251 -0.0026,0.00578 -0.0026,0.0093 0,0.00754 0.0049,0.017934 0.01447,0.031006 0.0096,0.013072 0.02049,0.030029 0.03256,0.050643 0.01156,0.020111 0.02197,0.044737 0.03152,0.073897 0.0096,0.028658 0.01447,0.062056 0.01447,0.1007691 0,0.045752 -0.0082,0.086791 -0.02429,0.1229899 -0.01659,0.036199 -0.04067,0.066846 -0.07235,0.091984 -0.03218,0.024635 -0.07211,0.043786 -0.119372,0.057361 -0.04776,0.013072 -0.102491,0.019637 -0.164331,0.019637 -0.06234,0 -0.117616,-0.00658 -0.165882,-0.020154 -0.04877,-0.014077 -0.08982,-0.033773 -0.123506,-0.058911 -0.03368,-0.025138 -0.05887,-0.05524 -0.07597,-0.090434 -0.0176,-0.035696 -0.02687,-0.075618 -0.02687,-0.1188558 0,-0.039719 0.0054,-0.073648 0.0155,-0.1018026 0.0096,-0.028658 0.01997,-0.052739 0.03204,-0.072347 0.01156,-0.020111 0.0225,-0.036523 0.03256,-0.049093 0.0096,-0.012569 0.01447,-0.0219 0.01447,-0.028939 0,-0.00402 -0.0011,-0.00731 -0.0031,-0.00982 -0.0025,-0.00302 -0.0058,-0.00574 -0.01034,-0.00775 -0.005,-0.00201 -0.01105,-0.00364 -0.01809,-0.00465 -0.007,-0.00101 -0.01578,-0.00155 -0.02584,-0.00155 -0.009,0 -0.01672,5.435e-4 -0.02325,0.00155 -0.0065,4.995e-4 -0.01201,0.00159 -0.01654,0.0031 -0.005,0.00101 -0.0094,0.00264 -0.01292,0.00465 -0.0035,0.00201 -0.0084,0.0064 -0.01499,0.013436 -0.007,0.00654 -0.0158,0.018576 -0.02635,0.036174 -0.01056,0.017597 -0.01986,0.037837 -0.02791,0.060461 -0.008,0.022625 -0.01461,0.047251 -0.01964,0.073897 -0.0055,0.026647 -0.0083,0.054011 -0.0083,0.082166 0,0.063851 0.0115,0.1223927 0.03462,0.1751832 0.02313,0.052288 0.05653,0.097168 0.100769,0.1348754 0.04374,0.037707 0.09737,0.067251 0.160714,0.088367 0.06335,0.020613 0.135579,0.030489 0.216524,0.030489 0.07893,0 0.148972,-0.00932 0.209807,-0.028422 0.06033,-0.019608 0.110701,-0.047503 0.151928,-0.083199 0.04123,-0.036199 0.07242,-0.079445 0.09353,-0.1302246 0.02112,-0.051282 0.03204,-0.108734 0.03204,-0.1720825 0,-0.036702 -0.0038,-0.0701 -0.01085,-0.100769 -0.0065,-0.031172 -0.01422,-0.058535 -0.02377,-0.082166 -0.01005,-0.024133 -0.02043,-0.044373 -0.03049,-0.060461 -0.01056,-0.016088 -0.01823,-0.027012 -0.02326,-0.032039 -0.005,-0.00503 -0.0094,-0.00833 -0.01292,-0.010335 -0.0035,-0.00201 -0.0074,-0.00364 -0.01188,-0.00465 -0.0045,-0.00151 -0.01,-0.0026 -0.01602,-0.0031 -0.006,-5.034e-4 -0.01314,-5.168e-4 -0.02119,-5.168e-4 z M 19.38383,7.2507202 c -0.0035,0 -0.0068,0.00109 -0.0098,0.0031 -0.003,0.00201 -0.0052,0.00529 -0.0072,0.00982 -0.0025,0.00452 -0.0047,0.010559 -0.0057,0.018603 -9.91e-4,0.00804 -0.001,0.017878 -0.001,0.028939 0,0.012569 4.2e-5,0.022445 0.001,0.030489 9.92e-4,0.00754 0.0032,0.014093 0.0057,0.01912 0.002,0.00453 0.0042,0.00781 0.0072,0.00982 0.003,0.00201 0.0063,0.0031 0.0098,0.0031 h 0.529683 0.124024 c 0.04274,-5.034e-4 0.0843,-0.00158 0.124023,-0.00258 v 0.00103 c -0.02363,0.012067 -0.04715,0.024121 -0.07028,0.03669 -0.02363,0.012066 -0.0477,0.024638 -0.07183,0.037207 -0.02413,0.012569 -0.04823,0.025699 -0.07286,0.039274 -0.02514,0.013575 -0.05086,0.027278 -0.077,0.041858 L 19.441191,7.764384 c -0.01559,0.00855 -0.02819,0.01623 -0.03824,0.023771 -0.01056,0.00704 -0.01876,0.014693 -0.02429,0.022738 -0.006,0.00754 -0.0104,0.0163 -0.01292,0.026355 -0.0025,0.00955 -0.0036,0.021593 -0.0036,0.036174 v 0.062012 c 0,0.013072 0.0044,0.025113 0.01292,0.036173 0.0085,0.011061 0.02278,0.016536 0.04289,0.016536 h 0.900204 c 0.0035,0 0.0073,-0.00109 0.01085,-0.0031 0.003,-0.00201 0.0052,-0.00529 0.0072,-0.00982 0.0015,-0.00453 0.0031,-0.010545 0.0041,-0.018087 0.0015,-0.00804 0.0021,-0.017906 0.0021,-0.029972 0,-0.012066 -5.42e-4,-0.021914 -0.0021,-0.029456 -9.92e-4,-0.00804 -0.0026,-0.014079 -0.0041,-0.018604 -0.002,-0.00503 -0.0042,-0.00884 -0.0072,-0.010852 -0.0035,-0.00201 -0.0073,-0.0031 -0.01085,-0.0031 h -0.588595 c -0.0372,0 -0.07495,5.301e-4 -0.112655,0.00103 -0.03771,5.034e-4 -0.07439,0.00106 -0.110587,0.00207 v -0.00155 c 0.02966,-0.014078 0.06031,-0.02887 0.09198,-0.044958 0.03117,-0.016591 0.06074,-0.033004 0.0894,-0.049093 l 0.555005,-0.3079916 c 0.01961,-0.010558 0.03601,-0.019875 0.04858,-0.028422 0.01257,-0.00905 0.02243,-0.017808 0.02997,-0.026355 0.007,-0.00905 0.01197,-0.018353 0.01499,-0.027905 0.0025,-0.010056 0.0041,-0.021552 0.0041,-0.034623 v -0.041858 c 0,-0.00654 -0.0011,-0.012584 -0.0031,-0.01912 -0.002,-0.00654 -0.0053,-0.012542 -0.0098,-0.01757 -0.0045,-0.00553 -0.01053,-0.0099 -0.01757,-0.012919 -0.007,-0.00352 -0.01526,-0.00517 -0.02532,-0.00517 z"
       fill="black"
       stroke="none"
       id="path134" />
    <path
       d="m 23.899833,6.3396647 c -0.01156,0 -0.02088,5.435e-4 -0.02842,0.00155 -0.0075,4.996e-4 -0.01355,0.00159 -0.01757,0.0031 -0.0045,0.00151 -0.0073,0.00317 -0.0088,0.00568 -0.0015,0.00251 -0.0026,0.00578 -0.0026,0.0093 0,0.00754 0.0049,0.017934 0.01447,0.031006 0.0096,0.013072 0.02049,0.03003 0.03256,0.050643 0.01156,0.020111 0.02197,0.044737 0.03152,0.073897 0.0096,0.028657 0.01447,0.062056 0.01447,0.1007691 0,0.045751 -0.0082,0.086791 -0.02429,0.1229899 -0.01659,0.036199 -0.04067,0.066846 -0.07235,0.091984 -0.03218,0.024635 -0.07211,0.043786 -0.119373,0.057361 -0.04776,0.013072 -0.102491,0.019637 -0.164331,0.019637 -0.06234,0 -0.117616,-0.0071 -0.165881,-0.020671 -0.04877,-0.014077 -0.08982,-0.033256 -0.123507,-0.058394 -0.03369,-0.025138 -0.05939,-0.05524 -0.07648,-0.090434 -0.0176,-0.035696 -0.02635,-0.075618 -0.02635,-0.1188558 0,-0.039718 0.0054,-0.073648 0.0155,-0.1018026 0.0096,-0.028658 0.01997,-0.052739 0.03204,-0.072347 0.01156,-0.02011 0.0225,-0.036524 0.03256,-0.049093 0.0096,-0.012569 0.01447,-0.0219 0.01447,-0.028939 0,-0.00402 -0.0011,-0.00731 -0.0031,-0.00982 -0.0025,-0.00302 -0.0058,-0.00574 -0.01034,-0.00775 -0.005,-0.00201 -0.01156,-0.00364 -0.0186,-0.00465 -0.007,-0.00101 -0.01527,-0.00155 -0.02532,-0.00155 -0.009,0 -0.01672,5.435e-4 -0.02325,0.00155 -0.0065,4.995e-4 -0.01201,0.00159 -0.01654,0.0031 -0.005,0.00101 -0.0094,0.00264 -0.01292,0.00465 -0.0035,0.00201 -0.0084,0.0064 -0.01499,0.013436 -0.007,0.00654 -0.01631,0.018577 -0.02687,0.036174 -0.01056,0.017597 -0.01986,0.037837 -0.02791,0.060461 -0.008,0.022624 -0.01409,0.047251 -0.01912,0.073897 -0.0055,0.026647 -0.0088,0.054011 -0.0088,0.082166 0,0.063851 0.01201,0.122393 0.03514,0.1751832 0.02313,0.052287 0.05653,0.097168 0.100769,0.1348754 0.04374,0.037707 0.09737,0.067251 0.160714,0.088367 0.06335,0.020613 0.135579,0.030489 0.216524,0.030489 0.07893,0 0.148972,-0.00932 0.209806,-0.028422 0.06033,-0.019608 0.110702,-0.047503 0.151929,-0.083199 0.04123,-0.036199 0.07242,-0.079445 0.09353,-0.1302246 0.02112,-0.051282 0.03204,-0.1087343 0.03204,-0.1720825 0,-0.036702 -0.0038,-0.0701 -0.01085,-0.100769 -0.0065,-0.031171 -0.01473,-0.058536 -0.02429,-0.082166 -0.01005,-0.024132 -0.01992,-0.044373 -0.02997,-0.060461 -0.01056,-0.016088 -0.01823,-0.027012 -0.02325,-0.032039 -0.005,-0.00503 -0.0094,-0.00833 -0.01292,-0.010335 -0.0035,-0.00201 -0.0074,-0.00364 -0.01189,-0.00465 -0.0045,-0.00151 -0.01,-0.0026 -0.01602,-0.0031 -0.006,-5.034e-4 -0.01314,-5.168e-4 -0.02119,-5.168e-4 z m -0.815971,0.9110555 c -0.0035,0 -0.0068,0.00109 -0.0098,0.0031 -0.003,0.00201 -0.0052,0.00529 -0.0072,0.00982 -0.0025,0.00452 -0.0047,0.010559 -0.0057,0.018603 -9.92e-4,0.00804 -0.001,0.017878 -0.001,0.028939 0,0.012569 4.2e-5,0.022445 0.001,0.030489 9.91e-4,0.00754 0.0032,0.014093 0.0057,0.01912 0.002,0.00453 0.0042,0.00781 0.0072,0.00982 0.003,0.00201 0.0063,0.0031 0.0098,0.0031 h 0.529684 0.124023 c 0.04274,-5.034e-4 0.08431,-0.00158 0.124024,-0.00258 v 0.00103 c -0.02363,0.012066 -0.04715,0.024121 -0.07028,0.03669 -0.02363,0.012066 -0.0477,0.024638 -0.07183,0.037207 -0.02413,0.012569 -0.04823,0.025699 -0.07286,0.039274 -0.02514,0.013575 -0.05086,0.027278 -0.077,0.041858 L 23.141223,7.764384 c -0.01559,0.00855 -0.02818,0.01623 -0.03824,0.023771 -0.01056,0.00704 -0.01876,0.014693 -0.02429,0.022738 -0.006,0.00754 -0.0104,0.0163 -0.01292,0.026355 -0.0025,0.00955 -0.0036,0.021594 -0.0036,0.036174 v 0.062012 c 0,0.013072 0.0044,0.025113 0.01292,0.036173 0.0085,0.011061 0.02278,0.016536 0.04289,0.016536 h 0.900203 c 0.0035,0 0.0073,-0.00109 0.01085,-0.0031 0.003,-0.00201 0.0052,-0.00529 0.0072,-0.00982 0.0015,-0.00453 0.0031,-0.010546 0.0041,-0.018087 0.0015,-0.00804 0.0021,-0.017906 0.0021,-0.029972 0,-0.012066 -5.42e-4,-0.021914 -0.0021,-0.029456 -9.91e-4,-0.00804 -0.0026,-0.014079 -0.0041,-0.018604 -0.002,-0.00503 -0.0042,-0.00884 -0.0072,-0.010852 -0.0035,-0.00201 -0.0073,-0.0031 -0.01085,-0.0031 h -0.588594 c -0.0372,0 -0.07495,5.301e-4 -0.112655,0.00103 -0.03771,5.034e-4 -0.07439,0.00106 -0.110588,0.00207 v -0.00155 c 0.02966,-0.014078 0.06031,-0.02887 0.09198,-0.044958 0.03117,-0.016591 0.06074,-0.033004 0.0894,-0.049093 l 0.555005,-0.3079916 c 0.01961,-0.010558 0.03601,-0.019875 0.04857,-0.028422 0.01257,-0.00905 0.02243,-0.017808 0.02997,-0.026355 0.007,-0.00905 0.01197,-0.018353 0.01499,-0.027905 0.0025,-0.010056 0.0041,-0.021552 0.0041,-0.034623 v -0.041858 c 0,-0.00654 -0.0011,-0.012584 -0.0031,-0.01912 -0.002,-0.00654 -0.0053,-0.012542 -0.0098,-0.01757 -0.0045,-0.00553 -0.01053,-0.0099 -0.01757,-0.012919 -0.007,-0.00352 -0.01526,-0.00517 -0.02532,-0.00517 z"
       fill="black"
       stroke="none"
       id="path133" />
    <path
       d="m 26.896033,8.3224894 c -0.01604,0 -0.02869,0.00162 -0.03721,0.00413 -0.0085,0.0025 -0.01571,0.00692 -0.02222,0.013436 -0.0065,0.00652 -0.01478,0.018112 -0.0248,0.035657 -0.01053,0.017043 -0.02042,0.038514 -0.02894,0.064079 -0.009,0.025066 -0.01674,0.053721 -0.02325,0.0863 -0.0065,0.032583 -0.0098,0.067809 -0.0098,0.1049031 0,0.072181 0.01265,0.137754 0.03721,0.197404 0.02406,0.059149 0.05821,0.1103548 0.10232,0.1529622 0.04411,0.042107 0.09754,0.074627 0.160197,0.098185 0.06266,0.023058 0.132095,0.034623 0.209289,0.034623 0.07419,0 0.141387,-0.010481 0.201538,-0.032039 0.06015,-0.021553 0.111921,-0.05293 0.15503,-0.093534 0.04311,-0.041104 0.07669,-0.09123 0.100252,-0.1503784 0.02306,-0.05915 0.03462,-0.1263483 0.03462,-0.2015381 0,-0.024564 -0.0016,-0.049351 -0.0047,-0.074414 -0.003,-0.02506 -0.0074,-0.04985 -0.01344,-0.074414 -0.006,-0.024564 -0.0137,-0.048257 -0.02222,-0.071314 -0.0085,-0.023058 -0.01623,-0.041791 -0.02325,-0.056327 -0.0075,-0.014537 -0.0158,-0.023911 -0.02532,-0.028422 -0.0095,-0.00451 -0.02107,-0.00672 -0.03411,-0.00672 h -0.37052 c -0.009,0 -0.01676,0.00111 -0.02377,0.00362 -0.007,0.0025 -0.01253,0.00582 -0.01654,0.010335 -0.004,0.00451 -0.0073,0.00947 -0.0093,0.014986 -0.002,0.00552 -0.0031,0.011023 -0.0031,0.016536 v 0.3090251 c 0,0.00451 0.001,0.00836 0.0031,0.011369 0.002,0.00302 0.0053,0.00576 0.0098,0.00827 0.004,0.002 0.0095,0.00362 0.01654,0.00465 0.0065,9.695e-4 0.01425,0.00155 0.02377,0.00155 0.01805,0 0.03179,-0.00219 0.04031,-0.0062 0.0085,-0.00451 0.01292,-0.011116 0.01292,-0.019637 V 8.4542643 h 0.283187 c 0.01454,0.026566 0.02556,0.055223 0.03307,0.0863 0.007,0.030575 0.01085,0.060875 0.01085,0.09095 0,0.050628 -0.0088,0.097436 -0.02584,0.1400431 -0.01704,0.042107 -0.04185,0.07846 -0.07493,0.1090373 -0.03308,0.030581 -0.07383,0.054805 -0.121956,0.072347 -0.04812,0.017041 -0.103724,0.025321 -0.165881,0.025321 -0.05564,0 -0.106893,-0.00772 -0.154513,-0.023254 -0.04762,-0.016043 -0.08892,-0.039158 -0.123506,-0.06873 -0.03458,-0.029571 -0.06158,-0.065396 -0.08113,-0.1080037 -0.01955,-0.042609 -0.02946,-0.090542 -0.02946,-0.1441773 0,-0.045113 0.0049,-0.084208 0.01447,-0.1167887 0.0095,-0.033085 0.02,-0.061708 0.03152,-0.085266 0.01153,-0.023559 0.022,-0.042292 0.03152,-0.056327 0.0095,-0.014035 0.01447,-0.023957 0.01447,-0.029972 0,-0.00351 -0.0011,-0.00681 -0.0031,-0.00982 -0.002,-0.00301 -0.0053,-0.00523 -0.0098,-0.00723 -0.005,-0.002 -0.01107,-0.00365 -0.01809,-0.00465 -0.0075,-0.001 -0.0158,-0.00155 -0.02532,-0.00155 z"
       fill="black"
       stroke="none"
       id="path132" />
    <path
       d="m 26.785445,7.3463216 c -0.0035,0 -0.0068,0.00162 -0.0098,0.00362 -0.003,0.00201 -0.0057,0.00479 -0.0078,0.0093 -0.0025,0.00451 -0.0042,0.010583 -0.0052,0.018604 -9.7e-4,0.00802 -0.001,0.017911 -0.001,0.028939 0,0.012532 3.6e-5,0.022469 0.001,0.030489 9.69e-4,0.00752 0.0027,0.014108 0.0052,0.01912 0.002,0.00451 0.0048,0.00781 0.0078,0.00982 0.003,0.002 0.0063,0.00258 0.0098,0.00258 h 0.527617 0.124023 c 0.04261,-5.019e-4 0.08391,-5.466e-4 0.123507,-0.00155 v 5.167e-4 c -0.02356,0.01203 -0.0467,0.024159 -0.06976,0.03669 -0.02356,0.01203 -0.04725,0.024158 -0.07131,0.03669 -0.02406,0.012532 -0.04882,0.02574 -0.07338,0.039274 -0.02506,0.013534 -0.05042,0.027838 -0.07648,0.042375 l -0.427364,0.2356446 c -0.01554,0.00852 -0.02821,0.016769 -0.03824,0.024288 -0.01053,0.00702 -0.01826,0.014717 -0.02377,0.022738 -0.006,0.00752 -0.01041,0.015813 -0.01292,0.025838 -0.0025,0.00952 -0.0036,0.021637 -0.0036,0.036173 v 0.062012 c 0,0.013033 0.0044,0.024629 0.01292,0.035657 0.0085,0.011028 0.02233,0.016536 0.04237,0.016536 h 0.898136 c 0.0035,0 0.0068,-5.762e-4 0.01034,-0.00258 0.003,-0.00201 0.0052,-0.00531 0.0072,-0.00982 0.0015,-0.00451 0.0032,-0.010568 0.0041,-0.018087 0.0015,-0.00802 0.0021,-0.017942 0.0021,-0.029972 0,-0.01203 -5.84e-4,-0.021937 -0.0021,-0.029456 -9.69e-4,-0.00802 -0.0027,-0.014609 -0.0041,-0.01912 -0.002,-0.00501 -0.0043,-0.00833 -0.0072,-0.010335 -0.0035,-0.002 -0.0068,-0.00258 -0.01034,-0.00258 h -0.587044 c -0.03709,0 -0.07506,1.69e-5 -0.112655,5.167e-4 -0.0376,5.019e-4 -0.0745,0.00106 -0.110587,0.00207 v -0.00155 c 0.02957,-0.014036 0.0604,-0.028918 0.09198,-0.044958 0.03108,-0.016542 0.06083,-0.033052 0.0894,-0.049093 L 27.641724,7.560262 c 0.01955,-0.010527 0.03553,-0.020417 0.04806,-0.028939 0.01253,-0.00902 0.02246,-0.017317 0.02997,-0.025838 0.007,-0.00902 0.01199,-0.018898 0.01499,-0.028422 0.0025,-0.010026 0.0041,-0.021074 0.0041,-0.034107 v -0.041341 c 0,-0.00652 -0.001,-0.01312 -0.0031,-0.019637 -0.002,-0.00652 -0.0053,-0.012041 -0.0098,-0.017053 -0.0045,-0.00551 -0.01003,-0.00991 -0.01705,-0.012919 -0.007,-0.00351 -0.01581,-0.00568 -0.02584,-0.00568 z"
       fill="black"
       stroke="none"
       id="path131" />
    <path
       d="m 26.779244,6.6662598 c -0.01022,0.045239 -0.0155,0.095651 -0.0155,0.1529622 v 0.2206584 c 0,0.011529 0.0038,0.022546 0.01189,0.033073 0.0075,0.010025 0.02127,0.014986 0.04082,0.014986 h 0.867647 c 0.01955,0 0.03332,-0.00496 0.04134,-0.014986 0.0075,-0.010527 0.01085,-0.021544 0.01085,-0.033073 v -0.206189 c 0,-0.062292 -0.0055,-0.1180617 -0.01705,-0.1674316 H 27.604 c 2.65e-4,7.129e-4 7.48e-4,0.00135 0.001,0.00207 0.01554,0.042607 0.02326,0.09494 0.02326,0.1570964 v 0.1333252 h -0.75706 V 6.8269735 c 0,-0.065269 0.0088,-0.1186365 0.02636,-0.1607137 z"
       fill="black"
       stroke="none"
       id="path130" />
    <path
       d="m 27.235547,6.3396647 c -0.07318,0 -0.138741,0.010454 -0.196887,0.031006 -0.05815,0.02005 -0.107709,0.0498 -0.148312,0.0894 -0.0411,0.039099 -0.07198,0.087581 -0.09353,0.1457275 -0.0064,0.016976 -0.01198,0.03558 -0.01654,0.054777 h 0.119372 c 0.01848,-0.041779 0.04388,-0.076181 0.07648,-0.1033529 0.03308,-0.028071 0.07272,-0.048979 0.118339,-0.062012 0.04511,-0.013033 0.09413,-0.019637 0.146761,-0.019637 0.06617,0 0.123461,0.00768 0.172083,0.022221 0.04812,0.014036 0.08781,0.03499 0.119889,0.063562 0.03008,0.026792 0.05319,0.060085 0.06873,0.099219 h 0.115755 c -0.0035,-0.014486 -0.0073,-0.028507 -0.01189,-0.041858 -0.02055,-0.060152 -0.05139,-0.110825 -0.0925,-0.1519287 -0.04161,-0.041605 -0.09392,-0.073013 -0.15658,-0.094568 -0.06316,-0.021554 -0.136963,-0.032557 -0.221175,-0.032556 z"
       fill="black"
       stroke="none"
       id="path129" />
    <path
       d="m 2.2802542,7.3979981 c -0.00551,0 -0.00993,0.00146 -0.013401,0.00423 -0.00418,0.00207 -0.00779,0.00645 -0.010576,0.012692 -0.00276,0.00554 -0.00423,0.012883 -0.00494,0.023272 -6.936e-4,0.010399 -0.00141,0.023557 -0.00141,0.039493 0,0.018707 7.156e-4,0.034061 0.00212,0.04584 6.936e-4,0.011081 0.00288,0.020574 0.00564,0.027504 0.00276,0.00624 0.00568,0.010644 0.00987,0.014104 0.00418,0.00347 0.00928,0.00637 0.015515,0.00775 l 0.7715097,0.260931 0.012691,0.00282 -0.012691,0.00423 -0.7715097,0.263752 c -0.00622,0.00277 -0.011354,0.00641 -0.015515,0.00987 -0.00418,0.00277 -0.0071,0.00718 -0.00987,0.014104 -0.00276,0.00624 -0.00493,0.015736 -0.00564,0.028209 -0.00142,0.011777 -0.00212,0.027861 -0.00212,0.047955 0,0.015937 7.435e-4,0.029111 0.00141,0.040198 6.938e-4,0.010399 0.00218,0.019164 0.00494,0.026093 0.00205,0.00624 0.00501,0.010631 0.00917,0.013401 0.00418,0.00277 0.00927,0.00423 0.01481,0.00423 h 0.00846 c 0.00276,-6.938e-4 0.00714,-0.00143 0.013401,-0.00282 0.00622,-0.00207 0.013551,-0.00499 0.021862,-0.00775 L 3.2125537,7.9600577 c 0.00693,-0.00277 0.012787,-0.00643 0.01763,-0.011286 0.00489,-0.00484 0.0085,-0.011436 0.011286,-0.019746 0.00276,-0.00901 0.00493,-0.020698 0.00635,-0.034555 0.00142,-0.013857 0.00212,-0.030695 0.00212,-0.051481 0,-0.020786 -7.156e-4,-0.038328 -0.00212,-0.052187 -6.936e-4,-0.013857 -0.00218,-0.025548 -0.00494,-0.034555 -0.00276,-0.00901 -0.00641,-0.014883 -0.011286,-0.019041 -0.00489,-0.00486 -0.011422,-0.00923 -0.019041,-0.011996 L 2.3239777,7.4064608 c -0.00489,-0.00139 -0.00924,-0.00213 -0.013401,-0.00282 -0.00418,-0.00139 -0.00782,-0.00284 -0.011286,-0.00352 -0.00347,-6.937e-4 -0.00641,-0.00141 -0.00917,-0.00141 -0.00347,-6.938e-4 -0.00712,-7.053e-4 -0.00987,-7.053e-4 z"
       fill="#000000"
       stroke="none"
       id="path128"
       style="stroke-width:1.36468" />
    <path
       d="m 6.7923503,8.722465 c -0.00449,2.318e-4 -0.00886,5.637e-4 -0.012402,0.00103 -0.00708,4.658e-4 -0.012242,0.00165 -0.01602,0.0031 -0.00425,0.0014 -0.00737,0.00335 -0.00878,0.00568 -0.00142,0.00236 -0.00207,0.00499 -0.00207,0.00827 0,0.00708 0.00447,0.016663 0.013436,0.028939 0.00897,0.012276 0.019157,0.02818 0.030489,0.047542 0.01086,0.018884 0.021001,0.042375 0.029972,0.069763 0.00897,0.026915 0.013436,0.05821 0.013436,0.094568 0,0.042968 -0.00763,0.081242 -0.022738,0.1152385 -0.015582,0.033996 -0.038466,0.063207 -0.068213,0.086816 -0.030219,0.023139 -0.067236,0.040994 -0.1116211,0.053743 -0.044857,0.012276 -0.096435,0.018604 -0.1545125,0.018604 -0.05855,0 -0.1102171,-0.00637 -0.1555461,-0.01912 -0.045801,-0.013221 -0.085153,-0.031684 -0.1167887,-0.055294 -0.031636,-0.023606 -0.05526,-0.05221 -0.071313,-0.085266 -0.016526,-0.033523 -0.024805,-0.070497 -0.024805,-0.1111043 0,-0.0373 0.00451,-0.069159 0.013953,-0.095601 0.00897,-0.026915 0.019673,-0.049798 0.031006,-0.068213 0.01086,-0.018884 0.021046,-0.034189 0.030489,-0.045992 0.00897,-0.011803 0.012919,-0.020775 0.012919,-0.027389 0,-0.00376 -6.927e-4,-0.00694 -0.00258,-0.0093 -0.00236,-0.00285 -0.00557,-0.00534 -0.00982,-0.00723 -0.00472,-0.00188 -0.010443,-0.00317 -0.017053,-0.00413 -0.00661,-9.133e-4 -0.014845,-0.00103 -0.024288,-0.00103 -0.0085,0 -0.015566,9.39e-5 -0.021704,0.00103 -0.00614,4.658e-4 -0.011253,0.00165 -0.015503,0.0031 -0.00472,9.133e-4 -0.00858,0.0022 -0.011886,0.00413 -0.0033,0.00188 -0.00833,0.00579 -0.014469,0.012402 -0.00661,0.00614 -0.014888,0.018098 -0.024805,0.034623 -0.00992,0.016525 -0.0188,0.03508 -0.026355,0.056327 -0.00755,0.021247 -0.013364,0.044222 -0.018087,0.069246 -0.0052,0.025024 -0.00775,0.051071 -0.00775,0.077515 0,0.059966 0.010835,0.1147525 0.032556,0.1643311 0.02172,0.049103 0.053016,0.091193 0.094568,0.1266072 0.041079,0.035414 0.091401,0.062851 0.1508952,0.082682 0.059494,0.019356 0.1270678,0.028939 0.2030883,0.028939 0.074132,0 0.1402705,-0.00893 0.197404,-0.026872 0.056661,-0.018416 0.1044251,-0.043989 0.1431437,-0.077515 0.038718,-0.033996 0.067502,-0.0753 0.087333,-0.1229899 0.019831,-0.048163 0.029972,-0.1017361 0.029972,-0.1612304 0,-0.034469 -0.00321,-0.066281 -0.00982,-0.095085 -0.00614,-0.029274 -0.013766,-0.054807 -0.022738,-0.076998 -0.00944,-0.022666 -0.018979,-0.041732 -0.028422,-0.056844 -0.00992,-0.015112 -0.016982,-0.024739 -0.021704,-0.029456 -0.00472,-0.00473 -0.00858,-0.00792 -0.011885,-0.00982 -0.0033,-0.00188 -0.00712,-0.00317 -0.011369,-0.00413 -0.00425,-0.00145 -0.00932,-0.00262 -0.014986,-0.0031 -0.00567,-4.658e-4 -0.012599,-5.168e-4 -0.020154,-5.168e-4 -0.00543,0 -0.00998,-2.317e-4 -0.014469,0 z"
       fill="black"
       stroke="none"
       id="path126" />
    <path
       d="m 5.9722453,8.4573649 c -0.00378,0 -0.00647,6.498e-4 -0.0093,0.00258 -0.00284,0.00188 -0.00535,0.00503 -0.00723,0.0093 -0.00189,0.00424 -0.00319,0.010533 -0.00413,0.018087 -9.455e-4,0.00755 -0.00155,0.017136 -0.00155,0.028939 0,0.01133 6.068e-4,0.020869 0.00155,0.028422 9.455e-4,0.00756 0.00225,0.013364 0.00413,0.018087 0.00189,0.00424 0.0044,0.00741 0.00723,0.0093 0.00283,0.00145 0.00552,0.00207 0.0093,0.00207 h 0.9467122 c 0.00378,0 0.00699,-6.702e-4 0.00982,-0.00207 0.00236,-0.00188 0.00431,-0.00503 0.0062,-0.0093 0.00189,-0.00473 0.00371,-0.010533 0.00465,-0.018087 9.455e-4,-0.00755 0.00103,-0.017092 0.00103,-0.028422 0,-0.011803 -9e-5,-0.021385 -0.00103,-0.028939 -9.455e-4,-0.00755 -0.00276,-0.013837 -0.00465,-0.018087 -0.00189,-0.00424 -0.00384,-0.00741 -0.0062,-0.0093 -0.00283,-0.00188 -0.00604,-0.00258 -0.00982,-0.00258 z"
       fill="black"
       stroke="none"
       id="path125" />
    <path
       d="m 6.2497477,7.9524862 c -4.67e-5,0.00283 0,0.0054 0,0.00827 0,0.0543 0.00837,0.1020197 0.025838,0.1426269 0.017471,0.040607 0.042262,0.074416 0.073897,0.1018026 0.031636,0.026914 0.069259,0.047285 0.1131714,0.060978 0.04344,0.013221 0.091204,0.019637 0.1431437,0.019637 0.053828,0 0.1021981,-0.00637 0.1446941,-0.01912 0.042496,-0.012749 0.078256,-0.031908 0.1080037,-0.057878 0.029747,-0.02597 0.052631,-0.058433 0.068213,-0.097152 0.015582,-0.039191 0.023254,-0.085048 0.023254,-0.1374593 0,-0.00754 -6.911e-4,-0.014425 -0.00103,-0.021704 h -0.098185 c 3.335e-4,0.00536 5.168e-4,0.010416 5.168e-4,0.01602 0,0.037302 -0.00642,0.068509 -0.019637,0.093534 -0.013693,0.025025 -0.031596,0.045352 -0.05426,0.060461 -0.023137,0.014638 -0.049924,0.024912 -0.080615,0.031523 -0.030692,0.00614 -0.063761,0.0093 -0.098702,0.0093 -0.036358,0 -0.070078,-0.00381 -0.1007691,-0.011369 -0.030692,-0.00803 -0.056872,-0.02012 -0.079065,-0.036174 -0.022665,-0.016054 -0.040433,-0.035908 -0.05271,-0.060461 -0.012276,-0.025025 -0.018087,-0.054931 -0.018087,-0.0894 0,-0.00466 3.018e-4,-0.00896 5.167e-4,-0.013436 h -0.097668 z"
       fill="black"
       stroke="none"
       id="path124" />
    <path
       d="m 6.5928792,7.6537964 c -0.053356,0 -0.1011645,0.00693 -0.1436605,0.020154 -0.042496,0.012748 -0.078773,0.031908 -0.1085205,0.057878 -0.029747,0.02597 -0.052114,0.058478 -0.067696,0.097669 -0.01416,0.035185 -0.021445,0.076496 -0.022738,0.1229899 h 0.098185 c 0.002,-0.028905 0.00785,-0.054339 0.01912,-0.074931 0.013221,-0.025025 0.03164,-0.044791 0.054777,-0.059428 0.023137,-0.014637 0.049924,-0.024867 0.080615,-0.031006 0.030692,-0.00661 0.0632,-0.00982 0.097669,-0.00982 0.03683,0 0.070594,0.00381 0.1012858,0.011369 0.030692,0.00756 0.057389,0.019086 0.079582,0.03514 0.022193,0.016054 0.0394,0.036987 0.051676,0.062012 0.00956,0.019478 0.014935,0.041749 0.017053,0.066663 h 0.098702 c -0.00253,-0.042467 -0.0104,-0.080725 -0.024805,-0.114205 C 6.9061826,7.7972017 6.8813471,7.7628758 6.8497111,7.7359619 6.818075,7.7085754 6.77998,7.6881598 6.7365397,7.674467 6.6926273,7.660774 6.6448184,7.6537961 6.5928792,7.6537964 Z"
       fill="black"
       stroke="none"
       id="path123" />
    <path
       d="m 6.8218058,7.0181763 c -0.00944,0 -0.017161,6.068e-4 -0.023771,0.00155 -0.00708,4.727e-4 -0.01332,0.00173 -0.01757,0.00362 -0.00472,0.00142 -0.00741,0.00281 -0.0093,0.00517 -0.00189,0.00236 -0.0031,0.00548 -0.0031,0.00878 0,0.00567 0.0039,0.013383 0.012402,0.023771 0.00803,0.00992 0.017517,0.022614 0.027905,0.037724 0.00992,0.014638 0.018889,0.031889 0.027388,0.052193 0.0085,0.020304 0.012919,0.043882 0.012919,0.070797 0,0.028331 -0.00455,0.053772 -0.014469,0.075964 -0.010388,0.02172 -0.02625,0.040184 -0.047026,0.055294 -0.020776,0.01511 -0.046823,0.026596 -0.077515,0.034623 -0.031164,0.00756 -0.066924,0.011369 -0.1080038,0.011369 -0.082159,0 -0.1446173,-0.014695 -0.1875854,-0.044442 -0.04344,-0.030219 -0.065629,-0.073519 -0.065629,-0.1297078 0,-0.027387 0.00438,-0.050965 0.012402,-0.070797 0.00756,-0.020304 0.015878,-0.037511 0.025321,-0.051676 0.00944,-0.014165 0.018328,-0.025652 0.026355,-0.034623 0.00756,-0.00944 0.010852,-0.017722 0.010852,-0.024805 0,-0.00614 -0.00325,-0.011254 -0.010335,-0.015503 -0.00756,-0.00425 -0.020342,-0.00672 -0.038757,-0.00672 -0.0085,0 -0.016038,4.59e-5 -0.021704,5.168e-4 -0.00567,4.691e-4 -0.01022,0.00168 -0.014469,0.0031 -0.00472,0.00142 -0.0091,0.00332 -0.012402,0.00568 -0.0033,0.00189 -0.00725,0.0057 -0.012919,0.011369 -0.00567,0.00567 -0.012643,0.014639 -0.020671,0.027388 -0.00803,0.012277 -0.015566,0.026837 -0.021704,0.042891 -0.00614,0.016054 -0.010692,0.033867 -0.014469,0.053227 -0.00378,0.018888 -0.00568,0.038608 -0.00568,0.058911 0,0.042024 0.00702,0.080948 0.021187,0.1173055 0.013693,0.035886 0.035276,0.067137 0.064079,0.094051 0.028803,0.026442 0.065775,0.047464 0.1111043,0.063045 0.044857,0.01511 0.098431,0.022738 0.1612305,0.022738 0.055245,0 0.1042651,-0.00633 0.1467611,-0.018604 0.042024,-0.012749 0.077695,-0.030651 0.1069702,-0.05426 0.028803,-0.024081 0.05052,-0.053987 0.065629,-0.0894 0.01511,-0.035413 0.022738,-0.076155 0.022738,-0.1219564 0,-0.022192 -0.00195,-0.043303 -0.0062,-0.064079 -0.00425,-0.020776 -0.00993,-0.040407 -0.016536,-0.057878 -0.00708,-0.017943 -0.014755,-0.033377 -0.023254,-0.047542 -0.00897,-0.014165 -0.016555,-0.024306 -0.022221,-0.029972 -0.00614,-0.00614 -0.010086,-0.00995 -0.012919,-0.011369 -0.0033,-0.00189 -0.00707,-0.00371 -0.010852,-0.00465 -0.00425,-0.00141 -0.00932,-0.00211 -0.014986,-0.00258 -0.00614,-4.727e-4 -0.01316,-5.167e-4 -0.021187,-5.167e-4 z"
       fill="black"
       stroke="none"
       id="path122" />
    <path
       d="m 3.1217758,6.3396683 c -0.00944,0 -0.017161,6.068e-4 -0.023771,0.00155 -0.00708,4.727e-4 -0.01332,0.00173 -0.01757,0.00362 -0.00472,0.00142 -0.00741,0.00281 -0.0093,0.00517 -0.00189,0.00236 -0.0031,0.00548 -0.0031,0.00878 0,0.00567 0.0039,0.013383 0.012402,0.023771 0.00803,0.00992 0.017517,0.022614 0.027905,0.037724 0.00992,0.014638 0.018889,0.031889 0.027388,0.052193 0.0085,0.020304 0.012919,0.043882 0.012919,0.070797 0,0.028331 -0.00455,0.053772 -0.014469,0.075964 -0.010388,0.02172 -0.02625,0.040184 -0.047026,0.055294 -0.020776,0.01511 -0.046823,0.026596 -0.077515,0.034623 -0.031164,0.00756 -0.066924,0.011369 -0.1080038,0.011369 -0.082159,0 -0.1446173,-0.014695 -0.1875854,-0.044442 -0.04344,-0.030219 -0.065629,-0.073519 -0.065629,-0.1297078 0,-0.027387 0.00438,-0.050965 0.012402,-0.070797 0.00756,-0.020304 0.015878,-0.037511 0.025321,-0.051676 0.00944,-0.014165 0.018328,-0.025652 0.026355,-0.034623 0.00756,-0.00944 0.010852,-0.017722 0.010852,-0.024805 0,-0.00614 -0.00325,-0.011254 -0.010335,-0.015503 -0.00756,-0.00425 -0.020342,-0.00672 -0.038757,-0.00672 -0.0085,0 -0.016038,4.59e-5 -0.021704,5.168e-4 -0.00567,4.691e-4 -0.01022,0.00168 -0.014469,0.0031 -0.00472,0.00142 -0.0091,0.00332 -0.012402,0.00568 -0.0033,0.00189 -0.00725,0.0057 -0.012919,0.011369 -0.00567,0.00567 -0.012643,0.014639 -0.020671,0.027388 -0.00803,0.012277 -0.015566,0.026837 -0.021704,0.042891 -0.00614,0.016054 -0.010692,0.033867 -0.014469,0.053227 -0.00378,0.018888 -0.00568,0.038608 -0.00568,0.058911 0,0.042024 0.00702,0.080948 0.021187,0.1173055 0.013693,0.035886 0.035276,0.067137 0.064079,0.094051 0.028803,0.026442 0.065775,0.047464 0.1111043,0.063045 0.044857,0.01511 0.098431,0.022738 0.1612305,0.022738 0.055245,0 0.1042651,-0.00633 0.1467611,-0.018604 0.042024,-0.012749 0.077695,-0.030651 0.1069702,-0.05426 0.028803,-0.024081 0.05052,-0.053987 0.065629,-0.0894 0.01511,-0.035413 0.022738,-0.076155 0.022738,-0.1219564 0,-0.022192 -0.00195,-0.043303 -0.0062,-0.064079 -0.00425,-0.020776 -0.00993,-0.040407 -0.016536,-0.057878 -0.00708,-0.017943 -0.014755,-0.033377 -0.023254,-0.047542 -0.00897,-0.014165 -0.016555,-0.024306 -0.022221,-0.029972 -0.00614,-0.00614 -0.010086,-0.00995 -0.012919,-0.011369 -0.0033,-0.00189 -0.00707,-0.00371 -0.010852,-0.00465 -0.00425,-0.00141 -0.00932,-0.00211 -0.014986,-0.00258 -0.00614,-4.727e-4 -0.01316,-5.167e-4 -0.021187,-5.167e-4 z"
       fill="#000000"
       stroke="none"
       id="path122-7" />
    <path
       d="m 3.1215352,6.9000036 c -0.00944,0 -0.017161,6.068e-4 -0.023771,0.00155 -0.00708,4.727e-4 -0.01332,0.00173 -0.01757,0.00362 -0.00472,0.00142 -0.00741,0.00281 -0.0093,0.00517 -0.00189,0.00236 -0.0031,0.00548 -0.0031,0.00878 0,0.00567 0.0039,0.013383 0.012402,0.023771 0.00803,0.00992 0.017517,0.022614 0.027905,0.037724 0.00992,0.014638 0.018889,0.031889 0.027388,0.052193 0.0085,0.020304 0.012919,0.043882 0.012919,0.070797 0,0.028331 -0.00455,0.053772 -0.014469,0.075964 -0.010388,0.02172 -0.02625,0.040184 -0.047026,0.055294 -0.020776,0.01511 -0.046823,0.026596 -0.077515,0.034623 -0.031164,0.00756 -0.066924,0.011369 -0.1080038,0.011369 -0.082159,0 -0.1446173,-0.014695 -0.1875854,-0.044442 C 2.670369,7.2061976 2.64818,7.1628976 2.64818,7.1067088 c 0,-0.027387 0.00438,-0.050965 0.012402,-0.070797 0.00756,-0.020304 0.015878,-0.037511 0.025321,-0.051676 0.00944,-0.014165 0.018328,-0.025652 0.026355,-0.034623 0.00756,-0.00944 0.010852,-0.017722 0.010852,-0.024805 0,-0.00614 -0.00325,-0.011254 -0.010335,-0.015503 -0.00756,-0.00425 -0.020342,-0.00672 -0.038757,-0.00672 -0.0085,0 -0.016038,4.59e-5 -0.021704,5.168e-4 -0.00567,4.691e-4 -0.01022,0.00168 -0.014469,0.0031 -0.00472,0.00142 -0.0091,0.00332 -0.012402,0.00568 -0.0033,0.00189 -0.00725,0.0057 -0.012919,0.011369 -0.00567,0.00567 -0.012643,0.014639 -0.020671,0.027388 -0.00803,0.012277 -0.015566,0.026837 -0.021704,0.042891 C 2.564009,7.0095836 2.559457,7.0273966 2.55568,7.0467566 2.5519,7.0656446 2.55,7.0853646 2.55,7.1056676 c 0,0.042024 0.00702,0.080948 0.021187,0.1173055 0.013693,0.035886 0.035276,0.067137 0.064079,0.094051 0.028803,0.026442 0.065775,0.047464 0.1111043,0.063045 0.044857,0.01511 0.098431,0.022738 0.1612305,0.022738 0.055245,0 0.1042651,-0.00633 0.1467611,-0.018604 0.042024,-0.012749 0.077695,-0.030651 0.1069702,-0.05426 0.028803,-0.024081 0.05052,-0.053987 0.065629,-0.0894 0.01511,-0.035413 0.022738,-0.076155 0.022738,-0.1219564 0,-0.022192 -0.00195,-0.043303 -0.0062,-0.064079 -0.00425,-0.020776 -0.00993,-0.040407 -0.016536,-0.057878 -0.00708,-0.017943 -0.014755,-0.033377 -0.023254,-0.047542 -0.00897,-0.014165 -0.016555,-0.024306 -0.022221,-0.029972 -0.00614,-0.00614 -0.010086,-0.00995 -0.012919,-0.011369 -0.0033,-0.00189 -0.00707,-0.00371 -0.010852,-0.00465 -0.00425,-0.00141 -0.00932,-0.00211 -0.014986,-0.00258 C 3.1365911,6.900044 3.1295711,6.9 3.1215441,6.9 Z"
       fill="#000000"
       stroke="none"
       id="path122-7-6" />
    <path
       d="m 6.917924,6.3396647 c -0.00425,2e-7 -0.00871,0.0013 -0.013436,0.00413 -0.00519,0.00236 -0.01161,0.00678 -0.019637,0.012919 L 6.5484375,6.6161336 6.3174438,6.38514 c -0.00756,-0.00708 -0.013971,-0.012153 -0.019637,-0.014986 -0.00567,-0.0033 -0.011387,-0.00517 -0.017053,-0.00517 -0.00425,0 -0.00797,0.00126 -0.010335,0.00362 -0.00283,0.00189 -0.00479,0.00566 -0.0062,0.010852 -0.00189,0.00472 -0.00263,0.010577 -0.0031,0.018604 -9.455e-4,0.00803 -0.00155,0.018168 -0.00155,0.029972 0,0.011332 6.069e-4,0.020911 0.00155,0.028939 4.728e-4,0.00803 0.00178,0.015566 0.00413,0.021704 0.00189,0.00567 0.00445,0.01022 0.00775,0.014469 0.00283,0.00425 0.00665,0.00862 0.011369,0.012402 l 0.2645834,0.2408121 h -0.576709 c -0.00378,0 -0.00647,6.928e-4 -0.0093,0.00258 -0.00284,0.00189 -0.00535,0.00505 -0.00723,0.0093 -0.00189,0.00425 -0.00319,0.010015 -0.00413,0.01757 -9.455e-4,0.00756 -0.00155,0.017135 -0.00155,0.028939 0,0.011332 6.068e-4,0.020867 0.00155,0.028422 9.455e-4,0.00755 0.00225,0.013882 0.00413,0.018604 0.00189,0.00425 0.0044,0.0069 0.00723,0.00878 0.00283,0.00142 0.00552,0.00258 0.0093,0.00258 h 0.9467122 c 0.00378,0 0.00699,-0.00117 0.00982,-0.00258 0.00236,-0.00189 0.00431,-0.00453 0.0062,-0.00878 0.00189,-0.00472 0.00371,-0.011049 0.00465,-0.018604 9.455e-4,-0.00755 0.00103,-0.01709 0.00103,-0.028422 0,-0.011805 -9e-5,-0.021384 -0.00103,-0.028939 -9.455e-4,-0.00756 -0.00276,-0.01332 -0.00465,-0.01757 -0.00189,-0.00425 -0.00384,-0.00741 -0.0062,-0.0093 -0.00283,-0.00189 -0.00604,-0.00258 -0.00982,-0.00258 H 6.5654907 L 6.917924,6.477124 c 0.00425,-0.00283 0.00806,-0.006 0.011369,-0.0093 0.00284,-0.00378 0.00535,-0.0088 0.00723,-0.014469 0.00141,-0.00567 0.00263,-0.012126 0.0031,-0.020154 9.455e-4,-0.0085 0.00103,-0.019291 0.00103,-0.032039 0,-0.012277 -9e-5,-0.022462 -0.00103,-0.030489 -9.455e-4,-0.00803 -0.00276,-0.013837 -0.00465,-0.018087 -0.00189,-0.00472 -0.00389,-0.00845 -0.00672,-0.010335 -0.00283,-0.00189 -0.00656,-0.00258 -0.010335,-0.00258 z"
       fill="black"
       stroke="none"
       id="path121" />
    <path
       d="m 10.570414,8.7725911 c -0.004,2.318e-4 -0.0081,0.00108 -0.01137,0.00155 -0.0066,9.133e-4 -0.01173,0.00229 -0.0155,0.00465 -0.0042,0.00188 -0.0069,0.00444 -0.0088,0.00775 -0.0024,0.00285 -0.0036,0.0066 -0.0036,0.010852 V 9.1260579 H 9.7384237 c -0.00378,0 -0.00699,6.498e-4 -0.00982,0.00258 -0.00283,0.00188 -0.00479,0.00509 -0.0062,0.00982 -0.00189,0.00473 -0.00319,0.011611 -0.00413,0.019637 -0.00142,0.00755 -0.00258,0.016619 -0.00258,0.028422 0,0.01133 0.00117,0.021429 0.00258,0.029456 9.455e-4,0.00803 0.00225,0.014398 0.00413,0.01912 0.00142,0.00473 0.00337,0.00792 0.0062,0.00982 0.00283,0.00188 0.00604,0.0031 0.00982,0.0031 h 0.8485273 c 0.01842,0 0.0312,-0.00504 0.03876,-0.014469 0.0071,-0.00992 0.01085,-0.020148 0.01085,-0.031006 V 8.7973958 c 0,-0.00424 -0.0012,-0.00802 -0.0031,-0.010852 -0.0024,-0.00328 -0.0056,-0.00586 -0.0098,-0.00775 -0.0047,-0.00236 -0.0099,-0.00374 -0.01602,-0.00465 -0.0066,-9.133e-4 -0.01484,-0.00155 -0.02429,-0.00155 -0.0047,0 -0.0089,-2.317e-4 -0.01292,0 z"
       fill="black"
       stroke="none"
       id="path120" />
    <path
       d="m 10.244336,8.314738 v 0.060461 c 0,0.049582 0.0045,0.094179 0.01344,0.1338419 0.0085,0.039659 0.02129,0.072864 0.03876,0.1002523 0.01747,0.027388 0.03918,0.048408 0.06563,0.063045 0.02644,0.01464 0.05765,0.022221 0.09353,0.022221 0.03069,0 0.0586,-0.00511 0.08268,-0.015503 0.02408,-0.010863 0.04393,-0.025558 0.06046,-0.044442 0.01653,-0.019357 0.02923,-0.042847 0.03772,-0.069763 0.009,-0.027388 0.01344,-0.057944 0.01344,-0.091467 0,-0.038246 -0.0083,-0.074007 -0.02481,-0.1080037 -0.0085,-0.017643 -0.01857,-0.034735 -0.03049,-0.050643 h -0.102836 c 0.01808,0.018948 0.03288,0.037422 0.04341,0.055294 0.01559,0.02597 0.02326,0.054576 0.02326,0.085266 0,0.037773 -0.0096,0.067117 -0.02894,0.088367 -0.01983,0.020775 -0.04601,0.031006 -0.07906,0.031006 -0.01936,0 -0.03653,-0.00328 -0.05116,-0.010335 -0.01511,-0.00756 -0.02786,-0.019043 -0.03824,-0.034623 -0.01086,-0.01558 -0.01909,-0.035303 -0.02429,-0.058911 -0.0057,-0.023606 -0.0083,-0.051607 -0.0083,-0.083716 V 8.314738 Z"
       fill="black"
       stroke="none"
       id="path119" />
    <path
       d="m 9.9626994,8.314738 c -0.00859,0.030327 -0.012919,0.066352 -0.012919,0.1080037 0,0.024552 0.002,0.048784 0.00672,0.072864 0.00425,0.024079 0.00997,0.046358 0.017053,0.066663 0.00661,0.020307 0.014239,0.038162 0.022738,0.053743 0.00803,0.01558 0.015049,0.026459 0.021187,0.033073 0.0061,0.00613 0.01255,0.00999 0.01964,0.011886 0.0066,0.00145 0.0161,0.00258 0.02791,0.00258 0.0071,0 0.0135,-6.107e-4 0.01964,-0.00155 0.0057,-9.133e-4 0.01069,-0.0022 0.01447,-0.00413 0.0038,-0.00236 0.0064,-0.00492 0.0083,-0.00775 0.0019,-0.00285 0.0031,-0.00656 0.0031,-0.010335 0,-0.00567 -0.0037,-0.013991 -0.01033,-0.025321 -0.0071,-0.011803 -0.01419,-0.026416 -0.02222,-0.043408 -0.0085,-0.017471 -0.01613,-0.037284 -0.02274,-0.059945 -0.0071,-0.023139 -0.01085,-0.04923 -0.01085,-0.078031 0,-0.026916 0.0032,-0.049281 0.0098,-0.067696 0.0061,-0.018417 0.01567,-0.033628 0.02842,-0.044958 0.0021,-0.00204 0.0044,-0.00384 0.0067,-0.00568 z"
       fill="black"
       stroke="none"
       id="path118" />
    <path
       d="m 10.17509,8.1710775 c -0.03357,9.776e-4 -0.06337,0.00559 -0.0894,0.013436 -0.02975,0.00897 -0.05458,0.023577 -0.07441,0.043408 -0.020303,0.019831 -0.035604,0.045924 -0.045992,0.078031 -4.007e-4,0.00124 -0.00116,0.00238 -0.00155,0.00362 h 0.1333251 c 0.0095,-0.00617 0.02028,-0.011096 0.03256,-0.014469 0.01889,-0.00521 0.04056,-0.00775 0.06511,-0.00775 h 0.04961 v 0.022221 h 0.08423 v -0.022221 h 0.135392 c 0.0084,0.0075 0.01601,0.014882 0.02325,0.022221 h 0.102836 c -0.01034,-0.013189 -0.02133,-0.025754 -0.03411,-0.037724 h 0.06356 c 0.0057,0 0.01009,-0.00189 0.01292,-0.00517 0.0028,-0.00333 0.0048,-0.00842 0.0062,-0.015503 0.0015,-0.00756 0.0021,-0.017695 0.0021,-0.029972 0,-0.012749 -6.7e-4,-0.022328 -0.0021,-0.028939 -0.0014,-0.00661 -0.0034,-0.011725 -0.0062,-0.015503 -0.0028,-0.00378 -0.0073,-0.00568 -0.01292,-0.00568 h -0.429948 c -0.005,0 -0.0097,-1.397e-4 -0.01447,0 z"
       fill="black"
       stroke="none"
       id="path117" />
    <path
       d="m 9.9993896,7.6388102 c -0.00373,2.286e-4 -0.00727,5.618e-4 -0.010335,0.00103 -0.00614,9.456e-4 -0.011209,0.00281 -0.014986,0.00517 -0.00425,0.00189 -0.00685,0.0044 -0.00827,0.00723 -0.00189,0.00283 -0.0031,0.00604 -0.0031,0.00982 v 0.1632975 h -0.151412 c -0.0033,0 -0.00647,0.00121 -0.0093,0.0031 -0.00284,0.00189 -0.00483,0.00505 -0.00672,0.0093 -0.00236,0.00425 -0.00422,0.010015 -0.00517,0.01757 -9.455e-4,0.00756 -0.00103,0.017135 -0.00103,0.028939 0,0.011332 9e-5,0.020867 0.00103,0.028422 9.455e-4,0.00755 0.00281,0.013364 0.00517,0.018087 0.00189,0.00425 0.00389,0.00741 0.00672,0.0093 0.00283,0.00141 0.006,0.00207 0.0093,0.00207 h 0.151412 v 0.088883 c 0,0.00378 0.00121,0.00703 0.0031,0.010335 0.00142,0.00284 0.00402,0.00535 0.00827,0.00723 0.00378,0.00189 0.00885,0.00375 0.014986,0.00517 0.00614,9.455e-4 0.013767,0.00155 0.022738,0.00155 0.017,0 0.02914,-0.00247 0.03669,-0.00672 0.0076,-0.00425 0.01137,-0.00997 0.01137,-0.017053 v -0.0894 h 0.372587 c 0.03683,0 0.06925,-0.00321 0.09664,-0.00982 0.02692,-0.00708 0.04924,-0.017963 0.06718,-0.033073 0.01747,-0.01511 0.03082,-0.034785 0.03979,-0.058394 0.0085,-0.023609 0.0124,-0.051697 0.0124,-0.084749 0,-0.01086 -6.71e-4,-0.021696 -0.0021,-0.032556 -0.0014,-0.01086 -0.0033,-0.021046 -0.0057,-0.030489 -0.0019,-0.00992 -0.0044,-0.018283 -0.0078,-0.025838 -0.0033,-0.00756 -0.0071,-0.013793 -0.01085,-0.01757 -0.0038,-0.00378 -0.0095,-0.00638 -0.01757,-0.00827 -0.008,-0.00189 -0.01886,-0.00258 -0.03256,-0.00258 -0.0085,0 -0.01553,9.01e-5 -0.02119,0.00103 -0.0057,9.402e-4 -0.01014,0.0022 -0.01344,0.00362 -0.0033,9.455e-4 -0.0053,0.00281 -0.0062,0.00517 -0.0015,0.00189 -0.0021,0.00384 -0.0021,0.0062 0,0.00378 7.37e-4,0.0082 0.0031,0.012919 0.0019,0.00472 0.0044,0.00993 0.0067,0.016536 0.0024,0.00661 0.0049,0.014238 0.0072,0.022738 0.0019,0.0085 0.0026,0.018596 0.0026,0.029456 0,0.033525 -0.01089,0.056542 -0.03307,0.069763 -0.02267,0.012749 -0.05582,0.01912 -0.09973,0.01912 H 10.059851 V 7.6620646 c 0,-0.00708 -0.0038,-0.012804 -0.01137,-0.017053 -0.0076,-0.00425 -0.01969,-0.0062 -0.03669,-0.0062 -0.0045,0 -0.0087,-2.286e-4 -0.012402,0 z"
       fill="black"
       stroke="none"
       id="path116" />
    <path
       d="m 10.521838,7.0434977 c -0.0094,0 -0.01716,6.068e-4 -0.02377,0.00155 -0.0071,4.728e-4 -0.01332,0.00173 -0.01757,0.00362 -0.0047,0.00142 -0.0079,0.00332 -0.0098,0.00568 -0.0019,0.00236 -0.0026,0.00548 -0.0026,0.00879 0,0.00567 0.0039,0.013383 0.0124,0.023771 0.008,0.00992 0.01751,0.022097 0.02791,0.037207 0.0099,0.014638 0.01889,0.032407 0.02739,0.05271 0.0085,0.020304 0.01292,0.043882 0.01292,0.070797 0,0.028331 -0.0051,0.053255 -0.01499,0.075448 -0.01038,0.02172 -0.02573,0.040184 -0.04651,0.055294 -0.02078,0.01511 -0.04682,0.026596 -0.07751,0.034623 -0.03117,0.00756 -0.06692,0.011886 -0.108004,0.011886 -0.08216,0 -0.144617,-0.015211 -0.187586,-0.044958 -0.04344,-0.030219 -0.06563,-0.073002 -0.06563,-0.1291911 0,-0.027387 0.0039,-0.051482 0.01189,-0.071313 0.0076,-0.020304 0.01639,-0.037511 0.02584,-0.051676 0.0094,-0.014165 0.01833,-0.025651 0.02635,-0.034623 0.0076,-0.00944 0.01085,-0.017722 0.01085,-0.024805 0,-0.00614 -0.0033,-0.011253 -0.01033,-0.015503 -0.0076,-0.00425 -0.02034,-0.0062 -0.03876,-0.0062 -0.0085,0 -0.01604,4.59e-5 -0.0217,5.168e-4 -0.0057,4.691e-4 -0.01022,0.00168 -0.01447,0.0031 -0.0047,0.00142 -0.0091,0.00332 -0.0124,0.00568 -0.0033,0.00189 -0.0073,0.0057 -0.01292,0.011369 -0.0057,0.00567 -0.01264,0.014639 -0.020671,0.027388 -0.00803,0.012277 -0.015566,0.02632 -0.021704,0.042375 -0.00614,0.016054 -0.010692,0.033867 -0.014469,0.053227 -0.00378,0.018887 -0.00568,0.038091 -0.00568,0.058394 0,0.042024 0.00702,0.081464 0.021187,0.1178222 0.013693,0.035885 0.035276,0.067137 0.064079,0.094051 0.0288,0.026442 0.06526,0.047464 0.110588,0.063045 0.04486,0.01511 0.09895,0.022738 0.161747,0.022738 0.05525,0 0.104265,-0.00581 0.146761,-0.018087 0.04202,-0.012749 0.07769,-0.031168 0.10697,-0.054777 0.0288,-0.024081 0.05052,-0.05347 0.06563,-0.088883 0.01511,-0.035414 0.02274,-0.076155 0.02274,-0.1219564 0,-0.022192 -0.002,-0.043819 -0.0062,-0.064596 -0.0042,-0.020776 -0.0099,-0.03989 -0.01654,-0.057361 -0.0071,-0.017943 -0.01475,-0.033894 -0.02325,-0.048059 -0.009,-0.014165 -0.01656,-0.024306 -0.02222,-0.029972 -0.0061,-0.00614 -0.01009,-0.00995 -0.01292,-0.011369 -0.0033,-0.00189 -0.0071,-0.00319 -0.01085,-0.00413 -0.0042,-0.00141 -0.0093,-0.00263 -0.01499,-0.0031 -0.0061,-4.728e-4 -0.01316,-5.168e-4 -0.02119,-5.168e-4 z"
       fill="black"
       stroke="none"
       id="path115" />
    <path
       d="m 10.2309,6.3396647 c -0.0458,0 -0.08468,0.00386 -0.116789,0.011886 -0.03258,0.00755 -0.06119,0.020298 -0.08527,0.038241 -0.02408,0.017943 -0.043195,0.041522 -0.057361,0.070797 -0.014637,0.028803 -0.021704,0.064474 -0.021704,0.1069702 0,0.034469 0.00837,0.068839 0.025838,0.1028361 0.016999,0.033997 0.043135,0.067761 0.078549,0.1012858 H 9.6722778 c -0.00378,0 -0.00647,6.927e-4 -0.0093,0.00258 -0.00284,0.00189 -0.00535,0.00505 -0.00723,0.0093 -0.00189,0.00425 -0.00319,0.010015 -0.00413,0.01757 -9.456e-4,0.00756 -0.00155,0.017651 -0.00155,0.029456 0,0.011332 6.068e-4,0.020867 0.00155,0.028422 9.455e-4,0.00755 0.00225,0.013365 0.00413,0.018087 0.00189,0.00425 0.0044,0.00741 0.00723,0.0093 0.00283,0.00142 0.00552,0.00207 0.0093,0.00207 H 10.61899 c 0.0038,0 0.007,-6.487e-4 0.0098,-0.00207 0.0024,-0.00189 0.0043,-0.00505 0.0062,-0.0093 0.0019,-0.00472 0.0037,-0.010532 0.0047,-0.018087 9.13e-4,-0.00755 0.001,-0.01709 0.001,-0.028422 0,-0.011805 -9.4e-5,-0.021901 -0.001,-0.029456 -9.14e-4,-0.00756 -0.0027,-0.013321 -0.0047,-0.01757 -0.0019,-0.00425 -0.0038,-0.00741 -0.0062,-0.0093 -0.0028,-0.00189 -0.006,-0.00258 -0.0098,-0.00258 h -0.445451 c -0.04013,-0.032108 -0.07069,-0.062709 -0.09147,-0.091984 -0.02078,-0.029275 -0.03101,-0.058575 -0.03101,-0.08785 0,-0.022664 0.0039,-0.042429 0.0124,-0.059428 0.0085,-0.017471 0.02064,-0.031515 0.03669,-0.042375 0.01605,-0.01086 0.03517,-0.019655 0.05736,-0.025321 0.02219,-0.00567 0.05149,-0.00827 0.08785,-0.00827 h 0.373621 c 0.0038,0 0.007,-6.928e-4 0.0098,-0.00258 0.0024,-0.00189 0.0043,-0.00505 0.0062,-0.0093 0.0019,-0.00425 0.0037,-0.010015 0.0047,-0.01757 9.13e-4,-0.00756 0.001,-0.017651 0.001,-0.029456 0,-0.011332 -9.4e-5,-0.020867 -0.001,-0.028422 -9.14e-4,-0.00756 -0.0027,-0.01332 -0.0047,-0.01757 -0.0019,-0.00425 -0.0038,-0.00741 -0.0062,-0.0093 -0.0028,-0.00189 -0.006,-0.00258 -0.0098,-0.00258 z"
       fill="black"
       stroke="none"
       id="path114" />
    <path
       d="m 13.35009,8.8950643 v 0.093018 c 0,0.011674 0.0043,0.022926 0.0124,0.03359 0.0076,0.010155 0.02102,0.015503 0.04082,0.015503 h 0.879016 c 0.0198,0 0.03374,-0.00537 0.04186,-0.015503 0.0076,-0.010663 0.01137,-0.021915 0.01137,-0.03359 v -0.093018 h -0.109554 v 0.010852 h -0.766878 v -0.010852 z"
       fill="black"
       stroke="none"
       id="path113" />
    <path
       d="m 13.800708,8.279598 c -0.06317,0.00224 -0.120551,0.012792 -0.172083,0.031006 -0.05889,0.020308 -0.108739,0.050325 -0.149861,0.090434 -0.04163,0.039598 -0.07325,0.088902 -0.09508,0.1477946 -0.02234,0.058892 -0.03359,0.1307145 -0.03359,0.2160075 v 0.1245402 h 0.109037 V 8.7725911 c 0,-0.06803 0.0091,-0.1232438 0.0279,-0.1663981 0.01879,-0.043156 0.04504,-0.079047 0.07855,-0.1069702 0.03351,-0.028432 0.07369,-0.04881 0.11989,-0.062012 0.04569,-0.013199 0.095,-0.020154 0.148311,-0.020154 0.06702,0 0.124903,0.0075 0.17415,0.022221 0.04874,0.014216 0.08947,0.035657 0.121956,0.064595 0.03249,0.02894 0.05661,0.065366 0.07235,0.1085205 0.01574,0.043156 0.02377,0.09621 0.02377,0.1591634 v 0.1178223 h 0.109554 V 8.7798258 c 0,-0.084278 -0.01019,-0.1571513 -0.03101,-0.2180745 -0.02082,-0.060924 -0.05242,-0.1118474 -0.09405,-0.153479 -0.04214,-0.042139 -0.09519,-0.074287 -0.158647,-0.096118 -0.06397,-0.021831 -0.138467,-0.032556 -0.223758,-0.032556 -0.0093,0 -0.01836,-3.204e-4 -0.02739,0 z"
       fill="black"
       stroke="none"
       id="path112" />
    <path
       d="m 13.913363,7.7240763 v 0.070797 c 0,0.053308 0.0048,0.1010141 0.01447,0.1436605 0.0091,0.042647 0.02359,0.079074 0.04237,0.1085205 0.01878,0.029447 0.04236,0.051958 0.0708,0.067696 0.02843,0.015739 0.06167,0.023771 0.100253,0.023771 0.033,0 0.06247,-0.00537 0.08837,-0.016536 0.0259,-0.011677 0.04786,-0.027751 0.06563,-0.048059 0.01777,-0.020816 0.03117,-0.045992 0.04031,-0.074931 0.0096,-0.029447 0.01447,-0.062139 0.01447,-0.098185 0,-0.041123 -0.0086,-0.080235 -0.02635,-0.1167887 -0.01023,-0.021332 -0.0233,-0.041031 -0.03824,-0.059945 h -0.111104 c 0.02244,0.022599 0.03969,0.044404 0.05219,0.065629 0.01676,0.027923 0.02532,0.057951 0.02532,0.09095 0,0.040616 -0.01071,0.072755 -0.03152,0.095601 -0.02132,0.022339 -0.04973,0.03359 -0.08527,0.03359 -0.02081,0 -0.03904,-0.00427 -0.05478,-0.011886 -0.01625,-0.00812 -0.02966,-0.020453 -0.04082,-0.037207 -0.01167,-0.016754 -0.02077,-0.037661 -0.02636,-0.063045 -0.0061,-0.025385 -0.0088,-0.055394 -0.0088,-0.089917 v -0.083716 z"
       fill="black"
       stroke="none"
       id="path111" />
    <path
       d="m 13.612606,7.7240763 c -0.01044,0.03386 -0.0155,0.074323 -0.0155,0.1219564 0,0.0264 0.0021,0.052656 0.0072,0.078548 0.0046,0.025892 0.01047,0.049482 0.01809,0.071314 0.0071,0.021831 0.01567,0.041123 0.0248,0.057878 0.0086,0.016754 0.01614,0.029065 0.02274,0.036174 0.0066,0.0066 0.01357,0.01089 0.02119,0.012919 0.0071,0.00152 0.01728,0.00207 0.02997,0.00207 0.0076,0 0.01459,-5.336e-4 0.02119,-0.00155 0.0061,-0.00102 0.01092,-0.00262 0.01499,-0.00465 0.004,-0.00254 0.0073,-0.00522 0.0093,-0.00827 0.002,-0.00304 0.0031,-0.00679 0.0031,-0.010852 0,-0.00609 -0.0037,-0.015204 -0.01085,-0.027388 -0.0076,-0.012693 -0.01566,-0.028232 -0.02429,-0.046509 -0.0091,-0.018785 -0.01718,-0.040226 -0.02429,-0.064596 -0.0076,-0.024877 -0.01137,-0.052747 -0.01137,-0.083716 0,-0.028938 0.0032,-0.05358 0.01034,-0.07338 0.0066,-0.0198 0.01678,-0.035357 0.03049,-0.047542 0.0049,-0.00471 0.01062,-0.00866 0.01654,-0.012402 z"
       fill="black"
       stroke="none"
       id="path110" />
    <path
       d="m 13.839465,7.5752482 c -0.03619,0.00115 -0.06865,0.00654 -0.09664,0.014986 -0.03198,0.00965 -0.05826,0.025186 -0.07958,0.046509 -0.02136,0.020861 -0.03742,0.048162 -0.04858,0.081649 h 0.151929 c 0.0074,-0.00369 0.01511,-0.00692 0.02377,-0.0093 0.02031,-0.00559 0.04336,-0.00879 0.06976,-0.00879 h 0.05323 v 0.018087 h 0.09095 v -0.018087 h 0.145211 c 0.0066,0.00593 0.01264,0.012259 0.0186,0.018087 h 0.112655 c -0.0098,-0.01187 -0.02034,-0.023666 -0.03204,-0.034623 h 0.06821 c 0.0061,0 0.01091,-0.00162 0.01395,-0.00517 0.003,-0.00355 0.0052,-0.00944 0.0067,-0.017053 0.0016,-0.00812 0.0026,-0.018322 0.0026,-0.031523 0,-0.013708 -0.0011,-0.024415 -0.0026,-0.031523 -0.0015,-0.00711 -0.0037,-0.012475 -0.0067,-0.016536 -0.0031,-0.00406 -0.0079,-0.00672 -0.01395,-0.00672 h -0.461988 c -0.0053,0 -0.01033,-1.648e-4 -0.0155,0 z"
       fill="black"
       stroke="none"
       id="path109" />
    <path
       d="m 13.65033,7.0031901 c -0.004,2.458e-4 -0.0076,5.263e-4 -0.01085,0.00103 -0.0066,0.00102 -0.01195,0.00315 -0.01602,0.00568 -0.0046,0.00203 -0.0072,0.00419 -0.0088,0.00723 -0.002,0.00304 -0.0036,0.00679 -0.0036,0.010852 v 0.1756999 h -0.162781 c -0.0036,0 -0.0068,0.00159 -0.0098,0.00362 -0.0031,0.00203 -0.0057,0.00525 -0.0078,0.00982 -0.0025,0.00457 -0.0042,0.010997 -0.0052,0.01912 -9.82e-4,0.00812 -0.0015,0.018313 -0.0015,0.031006 0,0.012184 5.4e-4,0.022366 0.0015,0.030489 9.82e-4,0.00812 0.0026,0.01456 0.0052,0.019637 0.002,0.00457 0.0047,0.00779 0.0078,0.00982 0.0031,0.00152 0.0063,0.00207 0.0098,0.00207 h 0.162781 v 0.095601 c 0,0.00406 0.0016,0.00781 0.0036,0.011369 0.0015,0.00305 0.0042,0.00572 0.0088,0.00775 0.004,0.00203 0.0094,0.00365 0.01602,0.00517 0.0066,0.00102 0.01464,0.00155 0.02429,0.00155 0.01828,0 0.03167,-0.00215 0.03979,-0.00672 0.0081,-0.00457 0.01189,-0.010988 0.01189,-0.018603 v -0.096118 h 0.401009 c 0.0396,0 0.07391,-0.00323 0.103353,-0.010335 0.02894,-0.00762 0.05306,-0.01941 0.07235,-0.035657 0.01878,-0.016246 0.03273,-0.037144 0.04237,-0.062528 0.0091,-0.025385 0.01395,-0.055928 0.01395,-0.091467 0,-0.011677 -0.0011,-0.023463 -0.0026,-0.03514 -0.0015,-0.011677 -0.0031,-0.022402 -0.0057,-0.032556 -0.002,-0.010661 -0.0047,-0.020299 -0.0083,-0.028422 -0.0036,-0.00812 -0.0078,-0.014025 -0.01189,-0.018087 -0.004,-0.00406 -0.01,-0.00727 -0.0186,-0.0093 -0.0086,-0.00203 -0.02042,-0.00258 -0.03514,-0.00258 -0.0091,0 -0.01665,1.91e-5 -0.02274,0.00103 -0.0061,0.00101 -0.01145,0.00261 -0.01499,0.00413 -0.0036,0.00102 -0.0057,0.00263 -0.0067,0.00517 -0.0016,0.00203 -0.0021,0.0047 -0.0021,0.00723 0,0.00406 0.0011,0.00836 0.0036,0.013436 0.002,0.00508 0.0042,0.010979 0.0067,0.018087 0.0025,0.00711 0.0052,0.015149 0.0078,0.024288 0.002,0.00914 0.0031,0.019846 0.0031,0.031523 0,0.036046 -0.01179,0.061232 -0.03566,0.075448 -0.02437,0.013708 -0.05976,0.020154 -0.10697,0.020154 H 13.715959 V 7.0279948 c 0,-0.00762 -0.0043,-0.013518 -0.0124,-0.018087 -0.0081,-0.00457 -0.02151,-0.00672 -0.03979,-0.00672 -0.0048,0 -0.0094,-2.458e-4 -0.01343,0 z"
       fill="black"
       stroke="none"
       id="path108" />
    <path
       d="m 13.913363,6.5055461 v 0.053743 c 0,0.053308 0.0053,0.101014 0.01499,0.1436604 0.0091,0.042647 0.02307,0.078557 0.04186,0.1080038 0.01878,0.029446 0.04236,0.051957 0.0708,0.067696 0.02843,0.015739 0.06167,0.023771 0.100253,0.023771 0.033,0 0.06247,-0.00537 0.08837,-0.016536 0.0259,-0.011677 0.04786,-0.027751 0.06563,-0.048059 0.01777,-0.020816 0.03117,-0.045992 0.04031,-0.074931 0.0096,-0.029447 0.01447,-0.062139 0.01447,-0.098185 0,-0.041123 -0.0086,-0.079718 -0.02635,-0.116272 -0.0072,-0.014988 -0.01633,-0.029052 -0.02584,-0.042891 h -0.107487 c 0.01473,0.016543 0.02691,0.032335 0.03617,0.048059 0.01676,0.027923 0.02532,0.058467 0.02532,0.091467 0,0.040615 -0.01071,0.072239 -0.03152,0.095085 -0.02132,0.022339 -0.04973,0.03359 -0.08527,0.03359 -0.02081,0 -0.03904,-0.00375 -0.05478,-0.011369 -0.01625,-0.00812 -0.02966,-0.020453 -0.04082,-0.037207 -0.01167,-0.016754 -0.02077,-0.038177 -0.02636,-0.063562 -0.0061,-0.025385 -0.0088,-0.055394 -0.0088,-0.089917 v -0.066146 z"
       fill="black"
       stroke="none"
       id="path107" />
    <path
       d="m 13.607955,6.5055461 c -0.0073,0.030179 -0.01085,0.064602 -0.01085,0.1043864 0,0.0264 0.0021,0.052656 0.0072,0.078548 0.0046,0.025893 0.01047,0.049483 0.01809,0.071313 0.0071,0.021831 0.01567,0.041123 0.0248,0.057878 0.0086,0.016754 0.01614,0.029066 0.02274,0.036174 0.0066,0.0066 0.01357,0.01089 0.02119,0.012919 0.0071,0.00152 0.01728,0.00207 0.02997,0.00207 0.0076,0 0.01459,-5.359e-4 0.02119,-0.00155 0.0061,-0.00102 0.01092,-0.00211 0.01499,-0.00413 0.004,-0.00254 0.0073,-0.00574 0.0093,-0.00878 0.002,-0.00304 0.0031,-0.00627 0.0031,-0.010335 0,-0.00609 -0.0037,-0.015204 -0.01085,-0.027388 -0.0076,-0.012692 -0.01566,-0.028749 -0.02429,-0.047026 -0.0091,-0.018785 -0.01718,-0.040226 -0.02429,-0.064596 -0.0076,-0.024877 -0.01137,-0.052747 -0.01137,-0.083716 0,-0.028938 0.0032,-0.053064 0.01034,-0.072864 0.0058,-0.017287 0.01467,-0.031393 0.02584,-0.042891 z"
       fill="black"
       stroke="none"
       id="path106" />
    <path
       d="m 13.839465,6.3396647 c -0.03615,0.00103 -0.06813,0.00603 -0.09612,0.014469 -0.03198,0.00965 -0.05878,0.025186 -0.0801,0.046509 -0.02183,0.021323 -0.03844,0.049193 -0.04961,0.083716 -0.0016,0.00475 -0.0028,0.00996 -0.0041,0.014986 h 0.131775 c 0.01304,-0.012164 0.02933,-0.020922 0.04909,-0.026355 0.02031,-0.00559 0.04336,-0.00878 0.06976,-0.00878 h 0.05323 v 0.03514 h 0.09095 v -0.03514 h 0.145211 c 0.01318,0.011826 0.02505,0.023657 0.03566,0.03514 h 0.109037 c -0.0131,-0.018196 -0.02826,-0.035558 -0.04548,-0.051676 h 0.06821 c 0.0061,0 0.01091,-0.00162 0.01395,-0.00517 0.003,-0.00355 0.0052,-0.00944 0.0067,-0.017053 0.0016,-0.00812 0.0026,-0.018322 0.0026,-0.031523 0,-0.013708 -0.0011,-0.024415 -0.0026,-0.031523 -0.0015,-0.00711 -0.0037,-0.012475 -0.0067,-0.016536 -0.0031,-0.00406 -0.0079,-0.0062 -0.01395,-0.0062 h -0.461988 c -0.0053,0 -0.01034,-1.469e-4 -0.0155,0 z"
       fill="black"
       stroke="none"
       id="path105" />
    <path
       id="path65"
       gorn="0.2.32"
       d="M 0,2 V 0 h 0.25 v 2 z"
       fill="#000000"
       stroke="none" />
    <path
       id="path"
       gorn="0.2.33"
       d="M 29.75,2 V 0 H 30 v 2 z"
       fill="#000000"
       stroke="none" />
    <path
       d="m 27.858248,0.83250732 c 0.0029,0.0213667 0.0075,0.0420942 0.01344,0.0620117 0.01118,0.0396081 0.02886,0.073892 0.05323,0.1028361 0.02437,0.0294528 0.05545,0.0530152 0.09353,0.07028 0.03758,0.017265 0.08363,0.025838 0.137459,0.025838 0.05027,0 0.0958,-0.0091 0.136426,-0.026872 0.04063,-0.017265 0.07545,-0.042441 0.104386,-0.0754476 0.02844,-0.0324993 0.04987,-0.0721473 0.06511,-0.11937256 0.0041,-0.0125327 0.0073,-0.0258647 0.01033,-0.0392741 h -0.126607 c -0.0022,0.0103503 -0.0044,0.0205296 -0.0078,0.0304891 -0.0086,0.0258976 -0.02043,0.0484003 -0.03617,0.0676961 -0.01574,0.0192959 -0.03555,0.0353462 -0.05891,0.0470256 -0.02336,0.0116794 -0.05067,0.0170532 -0.08165,0.0170532 -0.06043,0 -0.105443,-0.0187503 -0.135909,-0.0563273 -0.02278,-0.0276385 -0.03666,-0.0629147 -0.04186,-0.10593669 z"
       fill="black"
       stroke="none"
       id="path104" />
    <path
       d="m 27.074316,0.83250732 c 0.0018,0.0311039 0.0053,0.0595662 0.01137,0.0837158 0.0081,0.0350382 0.02204,0.0655693 0.04134,0.0914673 0.0193,0.025898 0.04448,0.046778 0.07597,0.062012 0.03097,0.015742 0.06953,0.023771 0.115238,0.023771 0.0391,0 0.07768,-0.010694 0.116272,-0.031006 0.03809,-0.019804 0.07613,-0.050888 0.114722,-0.0940511 v 0.0904338 c 0,0.00406 0.0011,0.00728 0.0031,0.00982 0.0016,0.00305 0.0048,0.00572 0.0088,0.00775 0.0041,0.00254 0.0094,0.00414 0.01705,0.00465 0.0071,0.00101 0.01622,0.00155 0.02739,0.00155 0.01168,0 0.02132,-5.366e-4 0.02842,-0.00155 0.0071,-5.097e-4 0.01299,-0.00212 0.01757,-0.00465 0.0046,-0.00204 0.0072,-0.0047 0.0088,-0.00775 0.0015,-0.00254 0.0026,-0.00576 0.0026,-0.00982 V 0.83250732 h -0.125574 v 0.0201538 c -0.03453,0.0431624 -0.06774,0.0758424 -0.09922,0.0981852 -0.03148,0.0223432 -0.06309,0.0335897 -0.09457,0.0335897 -0.02438,0 -0.0458,-0.004295 -0.06408,-0.0134359 -0.01879,-0.009141 -0.0338,-0.023042 -0.04547,-0.0403076 -0.01168,-0.0172656 -0.02026,-0.0376284 -0.02635,-0.061495 -0.0027,-0.0105422 -0.0046,-0.0231756 -0.0062,-0.0366903 z"
       fill="black"
       stroke="none"
       id="path103" />
    <path
       d="m 26.702763,0.83250732 v 0.14211019 h -0.176217 c -0.0076,0 -0.01352,0.003764 -0.01809,0.0118856 -0.0046,0.008125 -0.0072,0.0215097 -0.0072,0.0397908 0,0.00965 4.85e-4,0.017687 0.0015,0.024288 0.001,0.00661 0.0032,0.011958 0.0057,0.01602 0.002,0.00457 0.0042,0.00726 0.0072,0.00879 0.003,0.00204 0.0068,0.00362 0.01085,0.00362 h 0.1757 v 0.1627808 c 0,0.00356 0.0016,0.00677 0.0036,0.00982 0.002,0.00305 0.0047,0.00572 0.0093,0.00775 0.0046,0.00254 0.01099,0.00415 0.01912,0.00517 0.0081,0.00101 0.01882,0.00155 0.03152,0.00155 0.01218,0 0.02184,-5.341e-4 0.02997,-0.00155 0.0081,-0.00102 0.01505,-0.00262 0.02015,-0.00517 0.0046,-0.00204 0.0078,-0.0047 0.0098,-0.00775 0.0015,-0.00304 0.0026,-0.00626 0.0026,-0.00982 V 1.0790039 h 0.09508 c 0.0041,0 0.0078,-0.00159 0.01137,-0.00362 0.003,-0.00152 0.0057,-0.00422 0.0078,-0.00879 0.002,-0.00406 0.0037,-0.00942 0.0052,-0.01602 0.001,-0.0066 0.0016,-0.01464 0.0016,-0.024288 0,-0.01828 -0.0021,-0.0316658 -0.0067,-0.0397908 -0.0046,-0.008125 -0.01099,-0.0118856 -0.0186,-0.0118856 h -0.0956 V 0.83250732 Z"
       fill="black"
       stroke="none"
       id="path102" />
    <path
       d="m 25.771554,0.83199056 c 0.0029,0.0215071 0.007,0.0424877 0.01292,0.0625285 0.01118,0.0396081 0.02886,0.073892 0.05323,0.1028361 0.02437,0.0294528 0.05545,0.0530152 0.09353,0.07028 0.03758,0.017265 0.08363,0.025838 0.137459,0.025838 0.05027,0 0.0958,-0.0091 0.136426,-0.026872 0.04063,-0.017265 0.07544,-0.042441 0.104386,-0.0754476 0.02843,-0.0324993 0.04987,-0.0721473 0.06511,-0.11937256 0.0041,-0.0125327 0.0079,-0.0258647 0.01085,-0.0392741 h -0.126608 c -0.0022,0.0103503 -0.0049,0.0205296 -0.0083,0.0304891 -0.0086,0.0258976 -0.02043,0.0484003 -0.03617,0.0676961 -0.01575,0.0192959 -0.03555,0.0353462 -0.05891,0.0470256 -0.02336,0.0116794 -0.05015,0.0170532 -0.08113,0.0170532 -0.06043,0 -0.105959,-0.0187503 -0.136425,-0.0563273 -0.02285,-0.0277259 -0.03669,-0.063246 -0.04186,-0.10645345 z"
       fill="black"
       stroke="none"
       id="path101" />
    <path
       d="m 28.900045,0.34984945 c -0.01269,0 -0.02339,5.3499e-4 -0.03152,0.00155 -0.0081,0.001016 -0.01454,0.00262 -0.01912,0.004651 -0.0046,0.002031 -0.0073,0.004179 -0.0093,0.006718 -0.002,0.003047 -0.0031,0.006789 -0.0031,0.0108521 V 0.8242391 c -0.01778,0.0279287 -0.03437,0.0520176 -0.04909,0.0713135 -0.01473,0.0192959 -0.02866,0.0343126 -0.04186,0.045992 -0.0137,0.011677 -0.02657,0.0202414 -0.03876,0.0253215 -0.01219,0.005078 -0.02452,0.007751 -0.03721,0.007751 -0.01066,0 -0.02032,-0.001065 -0.02946,-0.003101 -0.0091,-0.002036 -0.0177,-0.004175 -0.02481,-0.006718 -0.0076,-0.002036 -0.01405,-0.004183 -0.01964,-0.006718 -0.0061,-0.002036 -0.01145,-0.003617 -0.0155,-0.003617 -0.0041,0 -0.0073,0.001589 -0.0093,0.003617 -0.0026,0.002543 -0.0041,0.005244 -0.0057,0.009302 -0.0016,0.004571 -0.0026,0.0104703 -0.0031,0.0180867 -5.08e-4,0.00762 -5.17e-4,0.0172504 -5.17e-4,0.028422 0,0.011679 3.5e-5,0.020788 5.17e-4,0.027389 0,0.00711 4.84e-4,0.012463 0.0015,0.01602 4.68e-4,0.00355 0.0011,0.00676 0.0021,0.00879 0.001,0.00254 0.0031,0.00522 0.0062,0.00775 0.003,0.00254 0.0084,0.0047 0.01602,0.00723 0.0071,0.00253 0.01515,0.0052 0.02429,0.00723 0.0091,0.00203 0.01825,0.00311 0.02687,0.00362 0.0081,0.00101 0.0151,0.00155 0.0217,0.00155 0.01473,0 0.02971,-0.00214 0.04444,-0.0062 0.01422,-0.00356 0.02868,-0.010514 0.04341,-0.020671 0.01473,-0.00965 0.03079,-0.023043 0.04754,-0.040308 0.01625,-0.017265 0.0334,-0.0397584 0.05219,-0.0671793 v 0.0997355 c 0,0.00406 0.0011,0.00728 0.0031,0.00982 0.0016,0.00305 0.0048,0.00572 0.0088,0.00775 0.0041,0.00254 0.0094,0.00414 0.01705,0.00465 0.0071,0.00101 0.01622,0.00155 0.02739,0.00155 0.01168,0 0.02132,-5.366e-4 0.02842,-0.00155 0.0071,-5.097e-4 0.01248,-0.00212 0.01705,-0.00465 0.0046,-0.00204 0.0078,-0.0047 0.0093,-0.00775 0.0015,-0.00254 0.0026,-0.00576 0.0026,-0.00982 V 0.37362061 c 0,-0.004063 -0.0011,-0.007806 -0.0026,-0.0108521 -0.002,-0.002539 -0.0047,-0.004687 -0.0093,-0.006718 -0.0051,-0.002031 -0.01203,-0.003635 -0.02015,-0.004651 -0.0081,-0.001016 -0.0183,-0.00155 -0.03049,-0.00155 z"
       fill="black"
       stroke="none"
       id="path100" />
    <path
       d="m 29.599227,0.34984945 c -0.0132,0 -0.02391,5.4298e-4 -0.03204,0.002067 -0.0081,0.001016 -0.01454,0.00261 -0.01964,0.004134 -0.0051,0.002032 -0.0088,0.004188 -0.01085,0.007235 -0.002,0.003554 -0.0031,0.007297 -0.0031,0.0108521 v 0.41082764 h -0.341065 c -0.0035,0 -0.0068,5.5276e-4 -0.0098,0.002584 -0.0035,0.002539 -0.0067,0.006272 -0.0093,0.0103353 -0.0025,0.00457 -0.0042,0.009935 -0.0052,0.0165365 -0.001,0.007109 -0.0015,0.0156732 -0.0015,0.0253214 0,0.0106639 4.85e-4,0.0192373 0.0015,0.0258382 0.001,0.007113 0.0027,0.0124759 0.0052,0.0165365 0.0026,0.004064 0.0058,0.006746 0.0093,0.008268 0.003,0.002036 0.0063,0.003617 0.0098,0.003617 h 0.341065 V 1.2288656 h -0.360702 c -0.0035,0 -0.0068,0.00107 -0.0098,0.0031 -0.0035,0.00204 -0.0067,0.00524 -0.0093,0.0093 -0.0025,0.00457 -0.0042,0.01046 -0.0052,0.01757 -0.001,0.00711 -0.0021,0.015156 -0.0021,0.024805 0,0.00965 0.001,0.018212 0.0021,0.025321 0.001,0.00761 0.0027,0.013516 0.0052,0.018087 0.0026,0.00457 0.0058,0.0083 0.0093,0.010335 0.003,0.00204 0.0058,0.00258 0.0093,0.00258 h 0.443383 c 0.01168,0 0.02293,-0.00376 0.03359,-0.011886 0.01015,-0.00762 0.0155,-0.021537 0.0155,-0.041341 V 0.37413737 c 0,-0.003554 -0.0011,-0.007297 -0.0031,-0.0108521 -0.002,-0.003047 -0.0057,-0.005204 -0.01085,-0.007235 -0.0051,-0.001523 -0.01204,-0.003119 -0.02067,-0.004134 -0.0086,-0.001523 -0.01882,-0.002067 -0.03101,-0.002067 z"
       fill="black"
       stroke="none"
       id="path99" />
    <path
       d="m 27.583329,0.34984945 c -0.0053,2.7611e-4 -0.0104,0.001043 -0.01447,0.00155 -0.0081,0.001016 -0.01403,0.00262 -0.0186,0.004651 -0.0046,0.002031 -0.0078,0.004179 -0.0098,0.006718 -0.002,0.003047 -0.0031,0.006789 -0.0031,0.0108521 v 0.45113525 h 0.125574 V 0.37362061 c 0,-0.004063 -5.85e-4,-0.007806 -0.0021,-0.0108521 -0.002,-0.002539 -0.0052,-0.004687 -0.0098,-0.006718 -0.0051,-0.002031 -0.01151,-0.003635 -0.01964,-0.004651 -0.0081,-0.001016 -0.01882,-0.00155 -0.03101,-0.00155 -0.0063,0 -0.01179,-2.7612e-4 -0.01705,0 z"
       fill="black"
       stroke="none"
       id="path98" />
    <path
       d="m 27.118241,0.34984945 c -0.005,2.7611e-4 -0.0094,0.001043 -0.01344,0.00155 -0.0081,0.001016 -0.01454,0.00262 -0.01912,0.004651 -0.0046,0.002031 -0.0078,0.004179 -0.0098,0.006718 -0.002,0.003047 -0.0031,0.006789 -0.0031,0.0108521 v 0.41806233 c 0,0.0118977 0.001,0.0220222 0.0015,0.0330729 h 0.126608 c -0.0014,-0.0150946 -0.0026,-0.0311017 -0.0026,-0.0496094 V 0.37362061 c 0,-0.004063 -5.56e-4,-0.007806 -0.0026,-0.0108521 -0.002,-0.002539 -0.0058,-0.004687 -0.01033,-0.006718 -0.0046,-0.002031 -0.01099,-0.003635 -0.01912,-0.004651 -0.0081,-0.001016 -0.01831,-0.00155 -0.03101,-0.00155 h -5.17e-4 c -0.0061,0 -0.01152,-2.7612e-4 -0.01654,0 z"
       fill="black"
       stroke="none"
       id="path97" />
    <path
       d="m 26.627832,0.34158122 c -0.01168,0 -0.02346,5.4336e-4 -0.03514,0.002067 -0.01168,0.001523 -0.0224,0.003662 -0.03256,0.006201 -0.01066,0.002031 -0.01978,0.004714 -0.02791,0.008268 -0.0081,0.003554 -0.01455,0.007823 -0.0186,0.0118856 -0.0041,0.004062 -0.0068,0.009971 -0.0088,0.0186035 -0.002,0.008633 -0.0036,0.0204138 -0.0036,0.03514 0,0.00914 0.001,0.0166441 0.0021,0.0227376 0.001,0.006093 0.0021,0.0109148 0.0036,0.0144694 0.001,0.003554 0.0027,0.005702 0.0052,0.006718 0.002,0.001523 0.0041,0.002584 0.0067,0.002584 0.0041,0 0.0089,-0.001079 0.01395,-0.003617 0.0051,-0.002031 0.01098,-0.004179 0.01809,-0.006718 0.0071,-0.002539 0.01515,-0.005212 0.02429,-0.007751 0.0091,-0.002031 0.01985,-0.003101 0.03152,-0.003101 0.03606,0 0.06123,0.0117903 0.07545,0.0356567 0.01371,0.0243743 0.02067,0.0597451 0.02067,0.10697022 v 0.23306071 h 0.125574 V 0.5736084 c 0,-0.0396082 -0.0037,-0.0739007 -0.01085,-0.10335287 -0.0076,-0.0289444 -0.0194,-0.0530507 -0.03566,-0.072347 -0.01625,-0.0187885 -0.03713,-0.0327265 -0.06253,-0.0423747 -0.02539,-0.00914 -0.05592,-0.0139526 -0.09147,-0.0139526 z"
       fill="black"
       stroke="none"
       id="path96" />
    <path
       d="m 28.141951,0.34003092 c -0.0323,2.729e-5 -0.06267,0.0027 -0.09095,0.007751 -0.02895,0.00457 -0.05465,0.009926 -0.07648,0.0160197 -0.02183,0.006093 -0.04003,0.0119932 -0.05374,0.0180867 -0.0137,0.006601 -0.02122,0.0114136 -0.02377,0.0139526 -0.003,0.003047 -0.0058,0.006255 -0.0072,0.009302 -0.002,0.003047 -0.0036,0.005747 -0.0041,0.009302 -0.001,0.004062 -0.001,0.008349 -0.0016,0.0129191 -5.08e-4,0.005078 -0.001,0.0114854 -0.001,0.0180867 0,0.00914 4.84e-4,0.0161273 0.0015,0.0222209 5.19e-4,0.006602 0.0016,0.0119483 0.0031,0.0155029 0.0015,0.003554 0.0037,0.006227 0.0067,0.007751 0.0026,0.002031 0.0058,0.003101 0.0093,0.003101 0.0061,0 0.0152,-0.002683 0.02739,-0.008268 0.01168,-0.005078 0.02721,-0.0114854 0.04599,-0.0180867 0.01828,-0.006602 0.03972,-0.0125009 0.06511,-0.0180868 0.02539,-0.005078 0.05432,-0.007751 0.08682,-0.007751 0.04113,0 0.07595,0.006408 0.104387,0.0180867 0.02844,0.0116793 0.05148,0.0277741 0.06925,0.0496094 0.01778,0.0218352 0.03063,0.0480803 0.03824,0.0785482 0.0076,0.0304678 0.01137,0.0647513 0.01137,0.1028361 H 27.90269 c -0.01269,0 -0.02342,0.004277 -0.03307,0.0124023 -0.01016,0.008633 -0.0155,0.0225706 -0.0155,0.0423747 v 0.0232544 c 0,0.0192353 0.0015,0.0376102 0.0036,0.0558106 h 0.12454 c -0.0012,-0.0132505 -0.0019,-0.0266899 -0.0016,-0.0413412 h 0.371554 c -5.21e-4,0.0142692 -0.0027,0.0277347 -0.0052,0.0413412 h 0.126607 c 0.0071,-0.0344851 0.01085,-0.0714753 0.01085,-0.11162109 0,-0.0619513 -0.0069,-0.11606337 -0.0217,-0.16278077 -0.01473,-0.0467174 -0.03668,-0.0858131 -0.06563,-0.11678873 -0.02895,-0.0309757 -0.06483,-0.0540215 -0.10697,-0.0697632 -0.04253,-0.0156938 -0.09164,-0.0237223 -0.147795,-0.0237712 z"
       fill="black"
       stroke="none"
       id="path95" />
    <path
       d="m 26.055257,0.34003092 c -0.03249,0 -0.06303,0.002673 -0.09147,0.007751 -0.02895,0.00457 -0.05465,0.009926 -0.07648,0.0160197 -0.02183,0.006093 -0.03951,0.0119932 -0.05323,0.0180867 -0.0137,0.006601 -0.02174,0.0114136 -0.02429,0.0139526 -0.003,0.003047 -0.0052,0.006255 -0.0067,0.009302 -0.002,0.003047 -0.0036,0.005747 -0.0041,0.009302 -0.001,0.004062 -0.0015,0.008349 -0.0021,0.0129191 -5.07e-4,0.005078 -0.001,0.0114854 -0.001,0.0180867 0,0.00914 4.85e-4,0.0161273 0.0016,0.0222209 5.2e-4,0.006602 0.0016,0.0119483 0.0031,0.0155029 0.0015,0.003554 0.0037,0.006227 0.0067,0.007751 0.0026,0.002031 0.0058,0.003101 0.0093,0.003101 0.0061,0 0.0152,-0.002683 0.02739,-0.008268 0.01168,-0.005078 0.0272,-0.0114854 0.04599,-0.0180867 0.01827,-0.006602 0.03972,-0.0125009 0.06511,-0.0180868 0.02539,-0.005078 0.05483,-0.007751 0.08733,-0.007751 0.04113,0 0.07544,0.006408 0.10387,0.0180867 0.02844,0.0116793 0.05148,0.027774 0.06925,0.0496094 0.01778,0.0218353 0.03063,0.0480803 0.03824,0.0785482 0.0076,0.0304678 0.01137,0.0647512 0.01137,0.1028361 h -0.449068 c -0.0127,0 -0.02394,0.004277 -0.03359,0.0124023 -0.01016,0.008633 -0.0155,0.0225706 -0.0155,0.0423747 v 0.0232544 c 0,0.0190954 0.0014,0.0372184 0.0036,0.0552938 h 0.12454 c -0.0012,-0.0131355 -0.0019,-0.0263151 -0.0016,-0.0408244 h 0.371553 c -5.17e-4,0.0142345 -0.0016,0.0277662 -0.0041,0.0413412 h 0.126091 c 0.0071,-0.0344851 0.01085,-0.0714753 0.01085,-0.11162109 0,-0.0619514 -0.0075,-0.11606333 -0.02222,-0.16278077 -0.01472,-0.0467174 -0.03616,-0.0858131 -0.06511,-0.11678873 -0.02895,-0.0309758 -0.06483,-0.0540215 -0.10697,-0.0697632 -0.04266,-0.0157418 -0.09195,-0.0237707 -0.148312,-0.0237712 z"
       fill="black"
       stroke="none"
       id="path94" />
    <rect
       id="rect27"
       width="0.25"
       height="1"
       x="14.875"
       y="0"
       fill="#000000"
       stroke="none" />
    <rect
       id="rect27-2"
       width="0.25"
       height="1"
       x="14.875"
       y="11"
       fill="#000000"
       stroke="none" />
    <rect
       id="rect27-2-7-6"
       width="0.25"
       height="0.25"
       x="5.875"
       y="-15.125"
       fill="#000000"
       stroke="none"
       transform="rotate(90)"
       style="stroke-width:1" />
  </g>
  <g
     id="copper0"
     gorn="0.3.0.0"
     transform="translate(0,1.9999999)">
    <g
       transform="rotate(180,14.625,2)"
       id="g24">
      <g
         id="g23">
        <g
           id="copper1"
           gorn="0.3.0.0.0.0.0">
          <circle
             id="connector0pin"
             gorn="0.3.0.0.0.0.0.0"
             cy="2"
             cx="2"
             fill="none"
             stroke="#ffc000"
             r="1.2"
             stroke-width="0.6" />
          <circle
             id="connector1pin"
             gorn="0.3.0.0.0.0.0.1"
             cy="2"
             cx="5.6999998"
             fill="none"
             stroke="#ffc000"
             r="1.2"
             stroke-width="0.6" />
          <circle
             id="connector2pin"
             gorn="0.3.0.0.0.0.0.2"
             cy="2"
             cx="9.3999996"
             fill="none"
             stroke="#ffc000"
             r="1.2"
             stroke-width="0.6" />
          <circle
             id="connector3pin"
             gorn="0.3.0.0.0.0.0.3"
             cy="2"
             cx="15.4"
             fill="none"
             stroke="#ffc000"
             r="1.2"
             stroke-width="0.6" />
          <circle
             id="connector4pin"
             gorn="0.3.0.0.0.0.0.4"
             cy="2"
             cx="19.1"
             fill="none"
             stroke="#ffc000"
             r="1.2"
             stroke-width="0.6" />
          <circle
             id="connector5pin"
             gorn="0.3.0.0.0.0.0.5"
             cy="2"
             cx="22.799999"
             fill="none"
             stroke="#ffc000"
             r="1.2"
             stroke-width="0.6" />
          <circle
             id="connector6pin"
             gorn="0.3.0.0.0.0.0.6"
             cy="2"
             cx="26.5"
             fill="none"
             stroke="#ffc000"
             r="1.2"
             stroke-width="0.6" />
          <g
             id="pads"
             gorn="0.3.0.0.0.0.0.7">
            <path
               id="nonconn"
               gorn="0.3.0.0.0.0.0.7.0"
               d="M 1.611111,-8.5e-8 H 2.3888889 C 3.0044444,-8.5e-8 3.5,0.44599991 3.5,0.99999992 V 3 C 3.5,3.554 3.0044444,4.0000001 2.3888889,4.0000001 H 1.611111 C 0.99555539,4.0000001 0.5,3.554 0.5,3 V 0.99999992 C 0.5,0.44599991 0.99555539,-8.5e-8 1.611111,-8.5e-8 Z"
               fill="#fff000"
               stroke="none" />
            <path
               id="nonconn-0"
               gorn="0.3.0.0.0.0.0.7.1"
               d="m 5.3111108,-6.5e-8 h 0.7777779 c 0.6155555,0 1.1111111,0.446000005 1.1111111,1.000000005 V 3 c 0,0.5540001 -0.4955556,1.0000001 -1.1111111,1.0000001 H 5.3111108 c -0.6155556,0 -1.111111,-0.446 -1.111111,-1.0000001 V 0.99999994 C 4.1999998,0.44599993 4.6955552,-6.5e-8 5.3111108,-6.5e-8 Z"
               fill="#fff000"
               stroke="none" />
            <path
               id="nonconn-0-4"
               gorn="0.3.0.0.0.0.0.7.2"
               d="m 9.0111108,-8e-8 h 0.7777779 c 0.6155553,0 1.1111103,0.446 1.1111103,1 V 3 c 0,0.5540001 -0.495555,1.0000001 -1.1111103,1.0000001 H 9.0111108 c -0.6155556,0 -1.111111,-0.446 -1.111111,-1.0000001 V 0.99999992 c 0,-0.554 0.4955554,-1 1.111111,-1 z"
               fill="#fff000"
               stroke="none" />
            <path
               id="nonconn-0-4-7"
               gorn="0.3.0.0.0.0.0.7.3"
               d="m 15.011111,-9e-8 h 0.777778 c 0.615556,0 1.111111,0.446 1.111111,1 V 3 c 0,0.5540001 -0.495555,1.0000001 -1.111111,1.0000001 H 15.011111 C 14.395555,4.0000001 13.9,3.5540001 13.9,3 V 0.99999991 c 0,-0.554 0.495555,-1 1.111111,-1 z"
               fill="#fff000"
               stroke="none" />
            <path
               id="nonconn-0-4-7-9"
               gorn="0.3.0.0.0.0.0.7.4"
               d="m 18.711111,-7e-8 h 0.777778 c 0.615556,0 1.111111,0.446 1.111111,1 V 3 c 0,0.5540001 -0.495555,1.0000001 -1.111111,1.0000001 H 18.711111 C 18.095555,4.0000001 17.6,3.5540001 17.6,3 V 0.99999993 c 0,-0.554 0.495555,-0.9999999999999989 1.111111,-1 z"
               fill="#fff000"
               stroke="none" />
            <path
               id="nonconn-0-4-7-9-3"
               gorn="0.3.0.0.0.0.0.7.5"
               d="m 22.41111,-6e-8 h 0.777778 c 0.615556,0 1.111111,0.446 1.111111,1 V 3 c 0,0.554 -0.495555,1.0000001 -1.111111,1.0000001 H 22.41111 C 21.795554,4.0000001 21.299999,3.554 21.299999,3 V 0.99999994 c 0,-0.554 0.495555,-1 1.111111,-1 z"
               fill="#fff000"
               stroke="none" />
            <path
               id="nonconn-0-4-7-9-3-9"
               gorn="0.3.0.0.0.0.0.7.6"
               d="m 26.111111,-6.5e-8 h 0.777778 C 27.504445,-6.5e-8 28,0.44599993 28,0.99999994 V 3 c 0,0.554 -0.495555,1.0000001 -1.111111,1.0000001 H 26.111111 C 25.495555,4.0000001 25,3.554 25,3 V 0.99999994 C 25,0.44599993 25.495555,-6.5e-8 26.111111,-6.5e-8 Z"
               fill="#fff000"
               stroke="none" />
          </g>
        </g>
      </g>
    </g>
  </g>
</svg>
