<?xml version='1.0' encoding='UTF-8' standalone='no'?>
<svg xmlns="http://www.w3.org/2000/svg" viewBox="0 0 35.031989 29.826772" version="1.1"  width="8.8979998mm" height="7.5760002mm" id="svg15" gorn="0">
    <desc >
        <referenceFile >74HC14D.svg</referenceFile>
    </desc>
    <g transform="translate(-4021.5,-3019.5)" >
        <g >
            <g >
                <defs  id="defs15"/>
                <g  id="copper1" gorn="0.1.0.0.1">
                    <path stroke="none" fill="#ffc000"  d="m 4024.0156,3041.3027 a 1.1299,1.1299 0 0 0 -1.1289,1.1309 v 5.7637 a 1.1299,1.1299 0 0 0 1.1289,1.1308 1.1299,1.1299 0 0 0 1.1309,-1.1308 v -5.7637 a 1.1299,1.1299 0 0 0 -1.1309,-1.1309 z" id="connector0pad" gorn="0.1.0.0.1.0"/>
                    <path stroke="none" fill="#ffc000"  d="m 4029.0156,3041.3027 a 1.1299,1.1299 0 0 0 -1.1289,1.1309 v 5.7637 a 1.1299,1.1299 0 0 0 1.1289,1.1308 1.1299,1.1299 0 0 0 1.1309,-1.1308 v -5.7637 a 1.1299,1.1299 0 0 0 -1.1309,-1.1309 z" id="connector1pad" gorn="0.1.0.0.1.1"/>
                    <path stroke="none" fill="#ffc000"  d="m 4034.0156,3041.3027 a 1.1299,1.1299 0 0 0 -1.1289,1.1309 v 5.7637 a 1.1299,1.1299 0 0 0 1.1289,1.1308 1.1299,1.1299 0 0 0 1.1309,-1.1308 v -5.7637 a 1.1299,1.1299 0 0 0 -1.1309,-1.1309 z" id="connector2pad" gorn="0.1.0.0.1.2"/>
                    <path stroke="none" fill="#ffc000"  d="m 4039.0156,3041.3027 a 1.1299,1.1299 0 0 0 -1.1289,1.1309 v 5.7637 a 1.1299,1.1299 0 0 0 1.1289,1.1308 1.1299,1.1299 0 0 0 1.1309,-1.1308 v -5.7637 a 1.1299,1.1299 0 0 0 -1.1309,-1.1309 z" id="connector3pad" gorn="0.1.0.0.1.3"/>
                    <path stroke="none" fill="#ffc000"  d="m 4044.0156,3041.3027 a 1.1299,1.1299 0 0 0 -1.1289,1.1309 v 5.7637 a 1.1299,1.1299 0 0 0 1.1289,1.1308 1.1299,1.1299 0 0 0 1.1309,-1.1308 v -5.7637 a 1.1299,1.1299 0 0 0 -1.1309,-1.1309 z" id="connector4pad" gorn="0.1.0.0.1.4"/>
                    <path stroke="none" fill="#ffc000"  d="m 4049.0156,3041.3027 a 1.1299,1.1299 0 0 0 -1.1289,1.1309 v 5.7637 a 1.1299,1.1299 0 0 0 1.1289,1.1308 1.1299,1.1299 0 0 0 1.1309,-1.1308 v -5.7637 a 1.1299,1.1299 0 0 0 -1.1309,-1.1309 z" id="connector5pad" gorn="0.1.0.0.1.5"/>
                    <path stroke="none" fill="#FFc000"  d="m 4054.0156,3041.3027 a 1.1299,1.1299 0 0 0 -1.1289,1.1309 v 5.7637 a 1.1299,1.1299 0 0 0 1.1289,1.1308 1.1299,1.1299 0 0 0 1.1309,-1.1308 v -5.7637 a 1.1299,1.1299 0 0 0 -1.1309,-1.1309 z" id="connector6pad" gorn="0.1.0.0.1.6"/>
                    <path stroke="none" fill="#ffc000"  d="m 4054.0156,3019.5 a 1.1299,1.1299 0 0 0 -1.1289,1.1289 v 5.7637 a 1.1299,1.1299 0 0 0 1.1289,1.1308 1.1299,1.1299 0 0 0 1.1309,-1.1308 v -5.7637 a 1.1299,1.1299 0 0 0 -1.1309,-1.1289 z" id="connector7pad" gorn="0.1.0.0.1.7"/>
                    <path stroke="none" fill="#ffc000"  d="m 4049.0156,3019.5 a 1.1299,1.1299 0 0 0 -1.1289,1.1289 v 5.7637 a 1.1299,1.1299 0 0 0 1.1289,1.1308 1.1299,1.1299 0 0 0 1.1309,-1.1308 v -5.7637 a 1.1299,1.1299 0 0 0 -1.1309,-1.1289 z" id="connector8pad" gorn="0.1.0.0.1.8"/>
                    <path stroke="none" fill="#ffc000"  d="m 4044.0156,3019.5 a 1.1299,1.1299 0 0 0 -1.1289,1.1289 v 5.7637 a 1.1299,1.1299 0 0 0 1.1289,1.1308 1.1299,1.1299 0 0 0 1.1309,-1.1308 v -5.7637 a 1.1299,1.1299 0 0 0 -1.1309,-1.1289 z" id="connector9pad" gorn="0.1.0.0.1.9"/>
                    <path stroke="none" fill="#ffc000"  d="m 4039.0156,3019.5 a 1.1299,1.1299 0 0 0 -1.1289,1.1289 v 5.7637 a 1.1299,1.1299 0 0 0 1.1289,1.1308 1.1299,1.1299 0 0 0 1.1309,-1.1308 v -5.7637 a 1.1299,1.1299 0 0 0 -1.1309,-1.1289 z" id="connector10pad" gorn="0.1.0.0.1.10"/>
                    <path stroke="none" fill="#ffc000"  d="m 4034.0156,3019.5 a 1.1299,1.1299 0 0 0 -1.1289,1.1289 v 5.7637 a 1.1299,1.1299 0 0 0 1.1289,1.1308 1.1299,1.1299 0 0 0 1.1309,-1.1308 v -5.7637 a 1.1299,1.1299 0 0 0 -1.1309,-1.1289 z" id="connector11pad" gorn="0.1.0.0.1.11"/>
                    <path stroke="none" fill="#ffc000"  d="m 4029.0156,3019.5 a 1.1299,1.1299 0 0 0 -1.1289,1.1289 v 5.7637 a 1.1299,1.1299 0 0 0 1.1289,1.1308 1.1299,1.1299 0 0 0 1.1309,-1.1308 v -5.7637 a 1.1299,1.1299 0 0 0 -1.1309,-1.1289 z" id="connector12pad" gorn="0.1.0.0.1.12"/>
                    <path stroke="none" fill="#FFc000"  d="m 4024.0156,3019.5 a 1.1299,1.1299 0 0 0 -1.1289,1.1289 v 5.7637 a 1.1299,1.1299 0 0 0 1.1289,1.1308 1.1299,1.1299 0 0 0 1.1309,-1.1308 v -5.7637 a 1.1299,1.1299 0 0 0 -1.1309,-1.1289 z" id="connector13pad" gorn="0.1.0.0.1.13"/>
                </g>
                <g  id="silkscreen" gorn="0.1.0.0.2">
                    <path stroke="#000000" fill="none" stroke-width="0.393706"  d="m 4021.6889,3028.4316 v 3.7964 a 1.9685633,1.9685633 0 0 1 0.09,-0.01 1.9685633,1.9685633 0 0 1 1.9674,1.9694 1.9685633,1.9685633 0 0 1 -1.9674,1.9674 1.9685633,1.9685633 0 0 1 -0.09,-0.01 v 4.2583 h 34.6542 v -11.9793 z" id="gge121" gorn="0.1.0.0.2.0"/>
                    <path stroke="none" fill="black"  d="M 4028.8304 3028.6125 L 4028.8223 3030.1384 L 4028.8203 3030.1384 L 4028.8203 3030.531 L 4029.8192 3030.531 L 4029.8314 3031.7151 L 4031.8843 3030.531 L 4032.2383 3030.531 A 0.5171085 0.5171085 0 0 0 4032.7144 3030.8525 A 0.5171085 0.5171085 0 0 0 4033.1904 3030.531 L 4034.2097 3030.531 L 4034.2097 3030.4395 L 4034.2138 3030.4395 L 4034.2036 3028.6145 L 4033.8191 3028.6247 L 4033.8272 3030.1384 L 4033.1904 3030.1384 A 0.5171085 0.5171085 0 0 0 4032.7144 3029.8169 A 0.5171085 0.5171085 0 0 0 4032.2383 3030.1384 L 4031.8517 3030.1384 L 4029.8029 3028.9543 L 4029.8151 3030.1384 L 4029.2048 3030.1384 L 4029.2129 3028.6226 L 4028.8304 3028.6125 z " id="inv1" gorn="0.1.0.0.2.1"/>
                    <path stroke="none" fill="black"  d="m 4023.832,3040.3405 -0.01,-1.5259 v 0 -0.3926 h 0.9989 l 0.012,-1.1841 2.0529,1.1841 h 0.354 a 0.5171085,0.5171085 0 0 1 0.4761,-0.3215 0.5171085,0.5171085 0 0 1 0.476,0.3215 h 1.0193 v 0.091 0 l -0.01,1.825 -0.3845,-0.01 0.01,-1.5137 h -0.6368 a 0.5171085,0.5171085 0 0 1 -0.476,0.3215 0.5171085,0.5171085 0 0 1 -0.4761,-0.3215 h -0.3866 l -2.0488,1.1841 0.012,-1.1841 h -0.6103 l 0.01,1.5158 z" id="inv2" gorn="0.1.0.0.2.2"/>
                    <path stroke="none" fill="black"  d="m 4033.832,3040.3405 -0.01,-1.5259 v 0 -0.3926 h 0.9989 l 0.012,-1.1841 2.0529,1.1841 h 0.354 a 0.5171085,0.5171085 0 0 1 0.4761,-0.3215 0.5171085,0.5171085 0 0 1 0.476,0.3215 h 1.0193 v 0.091 0 l -0.01,1.825 -0.3845,-0.01 0.01,-1.5137 h -0.6368 a 0.5171085,0.5171085 0 0 1 -0.476,0.3215 0.5171085,0.5171085 0 0 1 -0.4761,-0.3215 h -0.3866 l -2.0488,1.1841 0.012,-1.1841 h -0.6103 l 0.01,1.5158 z" id="inv3" gorn="0.1.0.0.2.3"/>
                    <path stroke="none" fill="black"  d="m 4043.832,3040.3405 -0.01,-1.5259 v 0 -0.3926 h 0.9989 l 0.012,-1.1841 2.0529,1.1841 h 0.354 a 0.5171085,0.5171085 0 0 1 0.4761,-0.3215 0.5171085,0.5171085 0 0 1 0.476,0.3215 h 1.0193 v 0.091 0 l -0.01,1.825 -0.3845,-0.01 0.01,-1.5137 h -0.6368 a 0.5171085,0.5171085 0 0 1 -0.476,0.3215 0.5171085,0.5171085 0 0 1 -0.4761,-0.3215 h -0.3866 l -2.0488,1.1841 0.012,-1.1841 h -0.6103 l 0.01,1.5158 z" id="inv4" gorn="0.1.0.0.2.4"/>
                    <path stroke="none" fill="black"  d="m 4038.832,3028.6125 -0.01,1.5259 v 0 0.3926 h 0.9989 l 0.012,1.1841 2.0529,-1.1841 h 0.354 a 0.5171085,0.5171085 0 0 0 0.4761,0.3215 0.5171085,0.5171085 0 0 0 0.476,-0.3215 h 1.0193 v -0.091 0 l -0.01,-1.825 -0.3845,0.01 0.01,1.5137 h -0.6368 a 0.5171085,0.5171085 0 0 0 -0.476,-0.3215 0.5171085,0.5171085 0 0 0 -0.4761,0.3215 h -0.3866 l -2.0488,-1.1841 0.012,1.1841 h -0.6103 l 0.01,-1.5158 z" id="inv5" gorn="0.1.0.0.2.5"/>
                    <path stroke="none" fill="black"  d="m 4048.832,3028.6125 -0.01,1.5259 v 0 0.3926 h 0.9989 l 0.012,1.1841 2.0529,-1.1841 h 0.354 a 0.5171085,0.5171085 0 0 0 0.4761,0.3215 0.5171085,0.5171085 0 0 0 0.476,-0.3215 h 1.0193 v -0.091 0 l -0.01,-1.825 -0.3845,0.01 0.01,1.5137 h -0.6368 a 0.5171085,0.5171085 0 0 0 -0.476,-0.3215 0.5171085,0.5171085 0 0 0 -0.4761,0.3215 h -0.3866 l -2.0488,-1.1841 0.012,1.1841 h -0.6103 l 0.01,-1.5158 z" id="inv6" gorn="0.1.0.0.2.6"/>
                </g>
            </g>
        </g>
    </g>
</svg>
