<?xml version='1.0' encoding='UTF-8' standalone='no'?>
<svg xmlns="http://www.w3.org/2000/svg" height="1.15mm" version="1.1" gorn="0" id="svg34" width="2.49mm" viewBox="0 0 9.8031498 4.5275589" >
    <desc>
        <referenceFile>0402-22pf_c8f3c9b0b8130569f9259cf2240e5b7b_2_pcb.svg</referenceFile>
    </desc>
    <defs id="defs46" />
    <g gorn="0.1" id="copper1" >
        <rect height="2.9488189" gorn="0.1.0" stroke="none" id="connector0pad" width="3.7204723" fill="#ffc000"  x="5.2963619" y="0.78741407"/>
        <rect height="2.9488189" gorn="0.1.1" stroke="none" id="connector1pad" width="3.7204723" fill="#ffc000"  x="0.78635228" y="0.78741407"/>
    </g>
    <g gorn="0.2" id="silkscreen" >
        <g transform="scale(1.0416667)" >
            <path gorn="0.2.0.0" stroke="none" id="rect1159" d="M 0.97070312 0 C 0.44616473 0 7.4014868e-17 0.40670106 0 0.92382812 L 0 3.4238281 C 0 3.9409552 0.44616472 4.3457031 0.97070312 4.3457031 L 4.1386719 4.3457031 L 4.1386719 3.8320312 L 0.97070312 3.8320312 C 0.70343899 3.8320312 0.51367187 3.6452066 0.51367188 3.4238281 L 0.51367188 0.92382812 C 0.51367188 0.70244961 0.70343899 0.51367188 0.97070312 0.51367188 L 4.1386719 0.51367188 L 4.1386719 0 L 0.97070312 0 z M 5.2714844 0 L 5.2714844 0.51367188 L 8.4394531 0.51367188 C 8.7067173 0.51367188 8.8964844 0.70244962 8.8964844 0.92382812 L 8.8964844 3.4238281 C 8.8964844 3.6452066 8.7067173 3.8320312 8.4394531 3.8320312 L 5.2714844 3.8320312 L 5.2714844 4.3457031 L 8.4394531 4.3457031 C 8.9639916 4.3457031 9.4101563 3.9409552 9.4101562 3.4238281 L 9.4101562 0.92382812 C 9.4101562 0.40670105 8.9639916 0 8.4394531 0 L 5.2714844 0 z " fill="black" />
        </g>
    </g>
</svg>
