<?xml version="1.0" encoding="UTF-8" standalone="no"?>
<svg
   height="3.3699999mm"
   gorn="0"
   id="svg7"
   viewBox="0 0 14.109903 13.267716"
   width="3.5840001mm"
   version="1.1"
   xmlns="http://www.w3.org/2000/svg"
   xmlns:svg="http://www.w3.org/2000/svg">
  <defs
     id="defs8">
    <defs
       id="defs7" />
  </defs>
  <desc
     id="desc1">
    <referenceFile>SOT-23-6.svg</referenceFile>
  </desc>
  <g
     gorn="0.1.0.0.1.0.0"
     id="silkscreen"
     transform="translate(-4042.945,-3043.3658)">
    <path
       gorn="0.1.0.0.1.0.0.0"
       stroke-opacity="1"
       d="m 4056.0605,3046.1992 a 0.30000001,0.30000001 0 0 0 -0.3007,0.3008 v 7 a 0.30000001,0.30000001 0 0 0 0.3007,0.3008 0.30000001,0.30000001 0 0 0 0.2989,-0.3008 v -7 a 0.30000001,0.30000001 0 0 0 -0.2989,-0.3008 z"
       fill="#000000"
       fill-opacity="1"
       id="gge37"
       stroke="none" />
    <path
       gorn="0.1.0.0.1.0.0.1"
       stroke-opacity="1"
       d="m 4043.9395,3046.1992 a 0.30000001,0.30000001 0 0 0 -0.2989,0.3008 v 7 a 0.30000001,0.30000001 0 0 0 0.2989,0.3008 0.30000001,0.30000001 0 0 0 0.3007,-0.3008 v -7 a 0.30000001,0.30000001 0 0 0 -0.3007,-0.3008 z"
       fill="#000000"
       fill-opacity="1"
       id="gge40"
       stroke="none" />
    <path
       gorn="0.1.0.0.1.0.0.2"
       stroke-opacity="1"
       d="m 4044.3294,3054.2722 c -0.3762,0 -0.6888,0.3115 -0.6888,0.6878 0,0.3762 0.3115,0.6888 0.6888,0.6888 0.3766,0 0.6892,-0.3115 0.6892,-0.6888 0,-0.3763 -0.3115,-0.6878 -0.6892,-0.6878 z"
       fill="#000000"
       fill-opacity="1"
       id="gge43"
       stroke="none" />
  </g>
  <g
     gorn="0.1.0.0.2.0.0"
     id="copper1"
     transform="translate(-4042.945,-3043.3658)">
    <path
       gorn="0.1.0.0.2.0.0.0"
       d="m 4047.3072,3056.6342 h -2.0944 v -4.2204 h 2.0944 z"
       fill="#ffc000"
       id="connector0pad"
       stroke="none" />
    <path
       gorn="0.1.0.0.2.0.0.1"
       d="m 4051.0472,3056.6342 h -2.0944 v -4.2204 h 2.0944 z"
       fill="#ffc000"
       id="connector1pad"
       stroke="none" />
    <path
       gorn="0.1.0.0.2.0.0.2"
       d="m 4054.7872,3056.6342 h -2.0944 v -4.2204 h 2.0944 z"
       fill="#ffc000"
       id="connector2pad"
       stroke="none" />
    <path
       gorn="0.1.0.0.2.0.0.3"
       d="m 4054.7872,3047.5862 h -2.0944 v -4.2204 h 2.0944 z"
       fill="#ffc000"
       id="connector3pad"
       stroke="none" />
    <path
       gorn="0.1.0.0.2.0.0.4"
       d="m 4051.0472,3047.5862 h -2.0944 v -4.2204 h 2.0944 z"
       fill="#ffc000"
       id="connector4pad"
       stroke="none" />
    <path
       gorn="0.1.0.0.2.0.0.5"
       d="m 4047.3072,3047.5862 h -2.0944 v -4.2204 h 2.0944 z"
       fill="#ffc000"
       id="connector5pad"
       stroke="none" />
  </g>
</svg>
