<?xml version='1.0' encoding='UTF-8' standalone='no'?>
<svg xmlns="http://www.w3.org/2000/svg" id="svg991" height="6.1764mm" shape-rendering="geometricPrecision" xmlns:xml="http://www.w3.org/XML/1998/namespace" fill-rule="evenodd" clip-rule="evenodd" image-rendering="optimizeQuality" version="1.0" width="6.1764mm" text-rendering="geometricPrecision"  xml:space="preserve" gorn="0" viewBox="0 0 31.45 31.45">
    <desc >
        <referenceFile >pad-novo.svg</referenceFile>
    </desc>
    <metadata id="metadata997" >
        <rdf:RDF xmlns:rdf="http://www.w3.org/1999/02/22-rdf-syntax-ns#">
            <cc:Work xmlns:cc="http://creativecommons.org/ns#" xmlns:rdf="http://www.w3.org/1999/02/22-rdf-syntax-ns#" rdf:about="">
                <dc:format xmlns:dc="http://purl.org/dc/elements/1.1/">image/svg+xml</dc:format>
                <dc:type xmlns:dc="http://purl.org/dc/elements/1.1/" rdf:resource="http://purl.org/dc/dcmitype/StillImage" xmlns:rdf="http://www.w3.org/1999/02/22-rdf-syntax-ns#"/>
                <dc:title xmlns:dc="http://purl.org/dc/elements/1.1/"/>
            </cc:Work>
        </rdf:RDF>
    </metadata>
    <defs id="defs995" />
    <g id="silkscreen"  style="display:inline" gorn="0.3">
        <path id="path988" d="m 30.99,15.730001 c 0,-8.4400002 -6.84,-15.2700002 -15.27,-15.2700002 -8.44,0 -15.27000001,6.8399999 -15.27000001,15.2700002 0,8.44 6.84000001,15.27 15.27000001,15.27 8.44,0 15.27,-6.84 15.27,-15.27 z"  stroke-miterlimit="22.9256" style="fill:none;fill-rule:nonzero;stroke:#282829;stroke-width:0.89999998;stroke-linecap:square;stroke-miterlimit:22.92560005" gorn="0.3.0"/>
    </g>
    <g id="copper1"  gorn="0.4">
        <path id="path980" d="m 22.3,25.19 h -5.56 c -0.56,0 -1.02,0.46 -1.02,1.02 0,0.56 0.46,1.019999 1.02,1.019999 h 5.870001 C 22.84,27.229999 23.04,27.159996 23.21,27.03 v 0 c 3.66,-2.43 6.07,-6.59 6.07,-11.31 0,-4.6 -2.29,-8.6599996 -5.79,-11.1099996 -0.46,-0.32 -1.1,-0.21 -1.42,0.25 -0.31,0.45 -0.22,1.0600001 0.21,1.39 v 0 l 0.02001,0.01 v 0 l 0.01999,0.02 0.02001,0.01 c 0.399999,0.28 0.78,0.59 1.139999,0.91 H 9.8099999 c -0.56,0 -1.0199999,0.46 -1.0199999,1.02 0,0.56 0.4599999,1.02 1.0199999,1.02 H 25.25 C 26.05,10.42 26.639999,11.76 26.97,13.2 H 6.9999999 c -0.5599999,0 -1.02,0.46 -1.02,1.02 0,0.56 0.4600001,1.02 1.02,1.02 H 27.239999 c 0.01,0.16 0.01,0.32 0.01,0.49 0,1.21 -0.19,2.38 -0.53,3.470001 H 7.82 c -0.56,0 -1.0200001,0.459999 -1.0200001,1.019999 0,0.56 0.4600001,1.02 1.0200001,1.02 h 18.03 c -0.86,1.58 -2.08,2.94 -3.55,3.96 z"  style="fill:#f7bd13;fill-opacity:1;stroke:none;stroke-width:0.99802476;stroke-miterlimit:4;stroke-dasharray:none;stroke-opacity:1" gorn="0.4.0"/>
        <path id="path982" d="M 9.1399999,6.2500004 H 14.7 c 0.56,0 1.02,-0.46 1.02,-1.02 0,-0.56 -0.46,-1.02 -1.02,-1.02 H 8.8299999 c -0.23,0 -0.43,0.07 -0.6,0.2 v 0 C 4.5699999,6.8400004 2.16,11 2.16,15.72 c 0,4.600001 2.2899999,8.66 5.7899999,11.11 0.46,0.32 1.1,0.209999 1.42,-0.25 0.31,-0.45 0.22,-1.06 -0.2099999,-1.39 v 0 L 9.14,25.18 v 0 L 9.12,25.16001 9.1,25.15001 C 8.7,24.87 8.3199999,24.56 7.9599999,24.239999 H 21.63 c 0.56,0 1.02,-0.459999 1.02,-1.019999 0,-0.56 -0.46,-1.02 -1.02,-1.02 H 6.19 C 5.3899999,21.02 4.8,19.68 4.47,18.24 h 19.969999 c 0.56,0 1.020001,-0.459999 1.020001,-1.02 0,-0.56 -0.460001,-1.02 -1.020001,-1.02 H 4.1999999 c -0.01,-0.16 -0.01,-0.32 -0.01,-0.49 C 4.1899999,14.5 4.38,13.33 4.72,12.24 h 18.9 c 0.56,0 1.02,-0.46 1.02,-1.02 0,-0.56 -0.46,-1.02 -1.02,-1.02 H 5.59 C 6.45,8.6200004 7.6699999,7.2600004 9.1399999,6.2400004 Z"  style="fill:#f7bd13;fill-opacity:1;stroke:none;stroke-width:0.99802476;stroke-miterlimit:4;stroke-dasharray:none;stroke-opacity:1" gorn="0.4.1"/>
        <path id="connector0pad" d="M 2.19,14.7 H 1.17 c -0.56,0 -1.02,0.46 -1.02,1.02 v 0 c 0,0.56 0.46,1.02 1.02,1.02 h 1.02 c 0.56,0 1.0199999,-0.46 1.0199999,-1.02 v 0 C 3.2099999,15.16 2.75,14.7 2.19,14.7 Z"  style="fill:#f7bd13;fill-opacity:1;stroke:none;stroke-width:0.99802476;stroke-miterlimit:4;stroke-dasharray:none;stroke-opacity:1" gorn="0.4.2"/>
        <path id="connector1pad" d="m 30.27,14.7 h -1.02 c -0.56,0 -1.020001,0.46 -1.020001,1.02 v 0 c 0,0.56 0.460001,1.02 1.020001,1.02 h 1.02 c 0.56,0 1.019999,-0.46 1.019999,-1.02 v 0 C 31.289999,15.16 30.83,14.7 30.27,14.7 Z"  style="fill:#f7bd13;fill-opacity:1;stroke:none;stroke-width:0.99802476;stroke-miterlimit:4;stroke-dasharray:none;stroke-opacity:1" gorn="0.4.3"/>
    </g>
</svg>
