<?xml version='1.0' encoding='UTF-8' standalone='no'?>
<svg xmlns="http://www.w3.org/2000/svg" gorn="0"  width="6.8579998mm" id="svg9" height="6.8579998mm" viewBox="0 0 27 26.998919" version="1.1">
    <desc >
        <referenceFile >SOP-8-PCB.svg</referenceFile>
    </desc>
    <g  transform="translate(-3976,-2980.2)">
        <g >
            <g >
                <g >
                    <defs  id="defs9"/>
                    <style type="text/css"  id="style1">
*[layerid="1"] {stroke:#000000;fill:#000000;}
*[layerid="2"] {stroke:#000000;fill:#000000;}
*[layerid="3"] {stroke:#000000;fill:#000000;}
*[layerid="4"] {stroke:#000000;fill:#000000;}
*[layerid="5"] {stroke:#000000;fill:#000000;}
*[layerid="6"] {stroke:#000000;fill:#000000;}
*[layerid="7"] {stroke:#000000;fill:#000000;}
*[layerid="8"] {stroke:#000000;fill:#000000;}
*[layerid="9"] {stroke:#000000;fill:#000000;}
*[layerid="10"] {stroke:#000000;fill:#000000;}
*[layerid="11"] {stroke:#000000;fill:#000000;}
*[layerid="12"] {stroke:#000000;fill:#000000;}
*[layerid="13"] {stroke:#000000;fill:#000000;}
*[layerid="14"] {stroke:#000000;fill:#000000;}
*[layerid="15"] {stroke:#000000;fill:#000000;}
*[layerid="19"] {stroke:#000000;fill:#000000;}
*[layerid="21"] {stroke:#000000;fill:#000000;}
*[layerid="22"] {stroke:#000000;fill:#000000;}
*[layerid="23"] {stroke:#000000;fill:#000000;}
*[layerid="24"] {stroke:#000000;fill:#000000;}
*[layerid="25"] {stroke:#000000;fill:#000000;}
*[layerid="26"] {stroke:#000000;fill:#000000;}
*[layerid="27"] {stroke:#000000;fill:#000000;}
*[layerid="28"] {stroke:#000000;fill:#000000;}
*[layerid="29"] {stroke:#000000;fill:#000000;}
*[layerid="30"] {stroke:#000000;fill:#000000;}
*[layerid="31"] {stroke:#000000;fill:#000000;}
*[layerid="32"] {stroke:#000000;fill:#000000;}
*[layerid="33"] {stroke:#000000;fill:#000000;}
*[layerid="34"] {stroke:#000000;fill:#000000;}
*[layerid="35"] {stroke:#000000;fill:#000000;}
*[layerid="36"] {stroke:#000000;fill:#000000;}
*[layerid="37"] {stroke:#000000;fill:#000000;}
*[layerid="38"] {stroke:#000000;fill:#000000;}
*[layerid="39"] {stroke:#000000;fill:#000000;}
*[layerid="40"] {stroke:#000000;fill:#000000;}
*[layerid="41"] {stroke:#000000;fill:#000000;}
*[layerid="42"] {stroke:#000000;fill:#000000;}
*[layerid="43"] {stroke:#000000;fill:#000000;}
*[layerid="44"] {stroke:#000000;fill:#000000;}
*[layerid="45"] {stroke:#000000;fill:#000000;}
*[layerid="46"] {stroke:#000000;fill:#000000;}
*[layerid="47"] {stroke:#000000;fill:#000000;}
*[layerid="48"] {stroke:#000000;fill:#000000;}
*[layerid="49"] {stroke:#000000;fill:#000000;}
*[layerid="50"] {stroke:#000000;fill:#000000;}
*[layerid="51"] {stroke:#000000;fill:#000000;}
*[layerid="52"] {stroke:#000000;fill:#000000;}
*[layerid="99"] {stroke:#000000;fill:#000000;}
*[layerid="100"] {stroke:#000000;fill:#000000;}
*[layerid="101"] {stroke:#000000;fill:#000000;}
*[layerid="Hole"] {stroke:#000000;fill:#000000;}
*[layerid="DRCError"] {stroke:#000000;fill:#000000;}
*[fill="none"] {fill: none;}
*[stroke="none"] {stroke: none;}
path, polyline, polygon, line {stroke-linecap:round;}
g[c_partid="part_pad"][layerid="1"] ellipse:not([c_etype="pad_outer"]) {fill:#000000;}
g[c_partid="part_pad"][layerid="1"] polygon:not([c_etype="pad_outer"]) {fill:#000000;}
g[c_partid="part_pad"][layerid="1"] polyline:not([c_etype="pad_outer"]) {stroke:#000000;}
g[c_partid="part_pad"][layerid="2"] ellipse:not([c_etype="pad_outer"]) {fill:#000000;}
g[c_partid="part_pad"][layerid="2"] polygon:not([c_etype="pad_outer"]) {fill:#000000;}
g[c_partid="part_pad"][layerid="2"] polyline:not([c_etype="pad_outer"]) {stroke:#000000;}
g[c_partid="part_pad"][layerid="11"] ellipse:not([c_etype="pad_outer"]) {fill:#000000;}
g[c_partid="part_pad"][layerid="11"] polygon:not([c_etype="pad_outer"]) {fill:#000000;}
g[c_partid="part_pad"][layerid="11"] polyline:not([c_etype="pad_outer"]) {stroke:#000000;}
g[c_partid="part_pad"][layerid="11"] circle {fill:#FFFFFF;}
g[c_partid="part_pad"][layerid="11"] > polyline:nth-of-type(2) {stroke:#FFFFFF;}
g[c_partid="part_pad"][layerid="11"][c_shape="ELLIPSE"]  polyline:nth-last-of-type(1) {stroke:#FFFFFF;}
g[c_partid="part_pad"][layerid="11"][c_shape="RECT"]  polyline:nth-last-of-type(1) {stroke:#FFFFFF;}
g[c_partid="part_pad"][layerid="11"][c_shape="POLYGON"]  polyline:nth-last-of-type(1) {stroke:#FFFFFF;}
g[c_partid="part_via"] > * + circle, #gCurParts g[c_partid="part_via"] > * + circle {fill:#FFFFFF;}
g[c_partid="part_pad"] > polygon[c_etype="pad_outer"], #gCurParts g[c_partid="part_pad"] > polygon[c_etype="pad_outer"] {stroke-linejoin: round;stroke-miterlimit: 100;}
g[c_partid="part_hole"] > circle {fill: #FFFFFF;}path, polyline, polygon {stroke-linejoin:round;}
rect, circle, ellipse, polyline, line, polygon, path {shape-rendering:crispEdges;}
</style>
                    <g gorn="0.1.0.0.0.2"  id="silkscreen">
                        <path fill-opacity="1" gorn="0.1.0.0.0.2.0" fill="#000000" style="baseline-shift:baseline;display:inline;overflow:visible;opacity:1;vector-effect:none;stroke-linecap:round;stroke-linejoin:round;shape-rendering:crispEdges;enable-background:accumulate;stop-color:#000000;stop-opacity:1;" stroke="none" stroke-opacity="1"  id="path33" d="m 3982.842,3002.8455 v 0.5005 a 0.5,0.5 0 0 1 -0.5004,0.5005 h 14.0909 a 0.5,0.5 0 0 1 -0.5005,-0.5005 v -0.5005 z"/>
                        <path fill-opacity="1" gorn="0.1.0.0.0.2.1" fill="#000000" style="baseline-shift:baseline;display:inline;overflow:visible;opacity:1;vector-effect:none;stroke-linecap:round;stroke-linejoin:round;shape-rendering:crispEdges;enable-background:accumulate;stop-color:#000000;stop-opacity:1;" stroke="none" stroke-opacity="1"  id="path32" d="m 3991.2507,2983.5523 a 0.5,0.5 0 0 1 0.4984,0.5005 c 0,0.1742 -0.017,0.3415 -0.049,0.5005 h 4.2317 v -0.5005 a 0.5,0.5 0 0 1 0.5005,-0.5005 z"/>
                        <path fill-opacity="1" gorn="0.1.0.0.0.2.2" fill="#000000" style="baseline-shift:baseline;display:inline;overflow:visible;opacity:1;vector-effect:none;stroke-linecap:round;stroke-linejoin:round;shape-rendering:crispEdges;enable-background:accumulate;stop-color:#000000;stop-opacity:1;" stroke="none" stroke-opacity="1"  id="path31" d="m 3982.3416,2983.5523 a 0.5,0.5 0 0 1 0.5004,0.5005 v 0.5005 h 4.4576 c -0.032,-0.159 -0.049,-0.3263 -0.049,-0.5005 a 0.5,0.5 0 0 1 0.4985,-0.5005 z"/>
                        <path fill-opacity="1" gorn="0.1.0.0.0.2.3" fill="#000000" style="baseline-shift:baseline;display:inline;overflow:visible;opacity:1;vector-effect:none;stroke-linecap:round;stroke-linejoin:round;shape-rendering:crispEdges;enable-background:accumulate;stop-color:#000000;stop-opacity:1;" stroke="none" stroke-opacity="1"  id="path30" d="m 3996.4325,2983.5523 a 0.5,0.5 0 0 0 -0.5005,0.5005 v 19.2932 a 0.5,0.5 0 0 0 0.5005,0.5005 0.5,0.5 0 0 0 0.4985,-0.5005 v -19.2932 a 0.5,0.5 0 0 0 -0.4985,-0.5005 z"/>
                        <path fill-opacity="1" gorn="0.1.0.0.0.2.4" fill="#000000" style="baseline-shift:baseline;display:inline;overflow:visible;opacity:1;vector-effect:none;stroke-linecap:round;stroke-linejoin:round;shape-rendering:crispEdges;enable-background:accumulate;stop-color:#000000;stop-opacity:1;" stroke="none" stroke-opacity="1"  id="path29" d="m 3982.3416,2983.5523 a 0.5,0.5 0 0 0 -0.5005,0.5005 v 19.2932 a 0.5,0.5 0 0 0 0.5005,0.5005 0.5,0.5 0 0 0 0.5004,-0.5005 v -19.2932 a 0.5,0.5 0 0 0 -0.5004,-0.5005 z"/>
                        <path fill-opacity="1" gorn="0.1.0.0.0.2.5" fill="#000000" style="baseline-shift:baseline;display:inline;overflow:visible;opacity:1;vector-effect:none;stroke-linecap:round;stroke-linejoin:round;shape-rendering:crispEdges;enable-background:accumulate;stop-color:#000000;stop-opacity:1;" stroke="none" stroke-opacity="1"  id="path28" d="m 3987.7493,2983.5523 a 0.5,0.5 0 0 0 -0.4985,0.5005 c 0,0.7084 0.2829,1.3033 0.7141,1.6866 0.4313,0.3833 0.9875,0.5636 1.5361,0.5636 0.5486,0 1.1027,-0.1803 1.534,-0.5636 0.4312,-0.3833 0.7141,-0.9782 0.7141,-1.6866 a 0.5,0.5 0 0 0 -0.4984,-0.5005 0.5,0.5 0 0 0 -0.5005,0.5005 c 0,0.4584 -0.1535,0.74 -0.3785,0.94 -0.225,0.2 -0.5443,0.3092 -0.8707,0.3092 -0.3264,0 -0.6478,-0.1092 -0.8728,-0.3092 -0.225,-0.2 -0.3784,-0.4816 -0.3784,-0.94 a 0.5,0.5 0 0 0 -0.5005,-0.5005 z"/>
                        <path fill-opacity="1" gorn="0.1.0.0.0.2.6" fill="#000000" style="baseline-shift:baseline;display:inline;overflow:visible;opacity:1;vector-effect:none;stroke-linecap:round;stroke-linejoin:round;shape-rendering:crispEdges;enable-background:accumulate;stop-color:#000000;stop-opacity:1;" stroke="none" stroke-opacity="1"  id="path27" d="m 3983.9997,2984.6998 c -0.5464,0 -0.999,0.4526 -0.999,0.9989 0,0.5464 0.4526,1.001 0.999,1.001 0.5464,0 1.001,-0.4546 1.001,-1.001 0,-0.5463 -0.4546,-0.9989 -1.001,-0.9989 z"/>
                        <path fill-opacity="1" gorn="0.1.0.0.0.2.7" fill="#000000" style="baseline-shift:baseline;display:inline;overflow:visible;vector-effect:none;stroke-linecap:round;stroke-linejoin:round;shape-rendering:crispEdges;enable-background:accumulate;stop-color:#000000" stroke="none" stroke-opacity="1"  id="path27-6" d="m 3980.8401,2981.5524 c -0.5464,0 -0.999,0.4526 -0.999,0.9989 0,0.5464 0.4526,1.001 0.999,1.001 0.5464,0 1.001,-0.4546 1.001,-1.001 0,-0.5463 -0.4546,-0.9989 -1.001,-0.9989 z"/>
                    </g>
                    <g gorn="0.1.0.0.0.3"  id="copper1">
                        <path gorn="0.1.0.0.0.3.0" fill="#ffc000" stroke="none"  id="connector0pad" d="m 3977.001,2985.2003 a 1,1 0 0 0 -1.001,0.9989 1,1 0 0 0 1.001,1.001 h 2.9988 a 1,1 0 0 0 1.001,-1.001 1,1 0 0 0 -1.001,-0.9989 z"/>
                        <path gorn="0.1.0.0.0.3.1" fill="#ffc000" stroke="none"  id="connector1pad" d="m 3977.001,2990.1991 a 1,1 0 0 0 -1.001,1.0009 1,1 0 0 0 1.001,0.999 h 2.9988 a 1,1 0 0 0 1.001,-0.999 1,1 0 0 0 -1.001,-1.0009 z"/>
                        <path gorn="0.1.0.0.0.3.2" fill="#ffc000" stroke="0"  id="connector2pad" stroke-width="1" d="m 3977.001,2995.1999 a 1,1 0 0 0 -1.001,0.9989 1,1 0 0 0 1.001,1.001 h 2.9988 a 1,1 0 0 0 1.001,-1.001 1,1 0 0 0 -1.001,-0.9989 z"/>
                        <path gorn="0.1.0.0.0.3.3" fill="#ffc000" stroke="none"  id="connector3pad" d="m 3977.001,3000.1986 a 1,1 0 0 0 -1.001,1.001 1,1 0 0 0 1.001,0.999 h 2.9988 a 1,1 0 0 0 1.001,-0.999 1,1 0 0 0 -1.001,-1.001 z"/>
                        <path gorn="0.1.0.0.0.3.4" fill="#ffc000" stroke="none"  id="connector4pad" d="m 3999.0001,3000.1986 a 1,1 0 0 0 -1.001,1.001 1,1 0 0 0 1.001,0.999 h 3.0009 a 1,1 0 0 0 0.9989,-0.999 1,1 0 0 0 -0.9989,-1.001 z"/>
                        <path gorn="0.1.0.0.0.3.5" fill="#ffc000" stroke="none"  id="connector5pad" d="m 3999.0001,2995.1999 a 1,1 0 0 0 -1.001,0.9989 1,1 0 0 0 1.001,1.001 h 3.0009 a 1,1 0 0 0 0.9989,-1.001 1,1 0 0 0 -0.9989,-0.9989 z"/>
                        <path gorn="0.1.0.0.0.3.6" fill="#ffc000" stroke="none"  id="connector6pad" d="m 3999.0001,2990.1991 a 1,1 0 0 0 -1.001,1.0009 1,1 0 0 0 1.001,0.999 h 3.0009 a 1,1 0 0 0 0.9989,-0.999 1,1 0 0 0 -0.9989,-1.0009 z"/>
                        <path gorn="0.1.0.0.0.3.7" fill="#ffc000" stroke="none"  id="connector7pad" d="m 3999.0001,2985.2003 a 1,1 0 0 0 -1.001,0.9989 1,1 0 0 0 1.001,1.001 h 3.0009 a 1,1 0 0 0 0.9989,-1.001 1,1 0 0 0 -0.9989,-0.9989 z"/>
                    </g>
                </g>
            </g>
        </g>
    </g>
</svg>
