<?xml version='1.0' encoding='UTF-8' standalone='no'?>
<!-- Creator: CorelDRAW 2018 -->
<svg xmlns="http://www.w3.org/2000/svg" height="7.6751mm" xmlns:xml="http://www.w3.org/XML/1998/namespace" viewBox="0 0 1065.04 178.95" xml:space="preserve" clip-rule="evenodd" fill-rule="evenodd" image-rendering="optimizeQuality" gorn="0" text-rendering="geometricPrecision" width="45.6798mm" shape-rendering="geometricPrecision"  id="svg19433" version="1.0">
    <desc  id="desc2">
        <referenceFile >logo-playtronic-cobre_2466659e35d30fb9406ec9d6c37d3170_4_pcb.svg</referenceFile>
    </desc>
    <defs  id="defs19437"/>
    <g gorn="0.2"  id="copper1">
        <path fill="#FFCC00" gorn="0.2.0" d="M977.46 5.83l17.02 0.21c12.37,0.15 26.47,2.65 35.21,12.28 6.99,7.72 8.7,17.97 7.98,28.07 -0.16,2.34 -2.05,4.15 -4.39,4.15l-37.32 0c-2.42,0 -4.34,-1.94 -4.4,-4.37l0 -0.07c0,-8.74 -3.47,-11.44 -12.24,-11.71 -16.43,-0.5 -23.98,7.72 -29.61,22.25 -2.11,5.46 -4.14,13.98 -0.83,19.35 2.36,3.83 6.88,4.92 11.07,5.08 12.02,0.45 18.14,-3.06 24.44,-13.12 0.79,-1.27 2.26,-2.12 3.75,-2.12l36.65 0c3.29,0 5.43,3.52 3.91,6.5 -11.83,23.03 -34.45,37.36 -60.33,37.69l-22.49 0 -0.04 0c-20.3,-0.59 -41.11,-6.96 -42.49,-30.78 -0.84,-14.61 3.05,-27.79 10.26,-40.38 13.73,-23.99 37.59,-31.96 63.78,-33.06l0.07 -0zm-388.18 67.44c-5.78,5.37 -13.18,9.46 -20.57,10.97l10.74 16.97c1.9,2.99 -0.25,6.94 -3.78,6.94l-33.53 0c-1.5,0 -2.9,-0.72 -3.75,-1.97l-21.54 -32.02 -9.95 30.89c-0.58,1.79 -2.34,3.1 -4.21,3.1l-33.42 0c-3.05,0 -5.22,-2.97 -4.28,-5.88l21.16 -65.57 -24.31 0 -23.28 68.35c-0.62,1.82 -2.33,3.05 -4.25,3.05l-31.28 0c-3.01,0 -5.19,-3.08 -4.22,-5.95l22.29 -65.46 -17.07 0 -67.14 69.99c-0.84,0.88 -2.05,1.41 -3.26,1.41l-68.99 0c-2.25,0 -4.14,-1.67 -4.45,-3.91l-7.52 -55.69 -38.92 57.61c-0.84,1.25 -2.21,1.99 -3.71,1.99l-89.42 0c-3.04,0 -5.2,-2.99 -4.26,-5.9l7.22 -22.39c-9.71,7.23 -21.72,11.45 -33.73,12l-0.07 0 -37.47 -0.24 -4.33 13.43c-0.56,1.85 -2.35,3.1 -4.25,3.11 -11.13,0.01 -22.26,0 -33.39,0l-0.08 0 -0.08 -0.01c-3.03,-0.19 -5.12,-3.18 -4.06,-5.99l29.13 -90.28c0.6,-1.87 2.32,-3.14 4.27,-3.14 21.68,0 43.36,0.04 65.04,0 9.68,-0.02 19.27,2.41 26.7,8.92 3.77,3.3 6.63,7.36 8.57,11.86l5.7 -17.66c0.6,-1.86 2.32,-3.13 4.27,-3.13l31.27 0c3.05,0 5.2,3.01 4.26,5.92l-20.19 62.56 26.98 0 44.92 -66.49c0.84,-1.25 2.31,-2.03 3.72,-1.98l43.99 0c2.29,0 4.16,1.66 4.46,3.93l11.44 84.73 23.27 -24.25 -7.87 -59.29c-0.36,-2.71 1.69,-5.12 4.43,-5.12l34.69 0c2.45,0 4.41,1.96 4.47,4.4l0.63 22.1 24.08 -25.11c0.83,-0.87 2.04,-1.39 3.24,-1.39l172.71 0.06c14.18,0 29.41,3.93 37.06,17.04 2.25,3.85 3.56,8.06 4.13,12.4 13.79,-23.45 37.44,-31.27 63.38,-32.36l0.07 -0 17.01 0.21c19.51,0.24 40.13,7.19 43.7,28.68l7.36 -22.82c0.61,-1.88 2.31,-3.14 4.28,-3.14 12.43,0 24.85,0 37.28,0 1.92,0 3.6,1.19 4.32,2.96l17.09 42.16 13.55 -41.97c0.61,-1.88 2.31,-3.14 4.28,-3.14l31.26 0c3.06,0 5.21,3 4.26,5.92l-29.15 90.34c-0.61,1.88 -2.31,3.15 -4.28,3.15 -11.88,0 -23.76,0 -35.64,0 -1.92,0 -3.6,-1.18 -4.32,-2.96l-18 -44.41 -14.27 44.22c-0.61,1.88 -2.31,3.15 -4.28,3.15l-31.26 0c-3.06,0 -5.21,-3 -4.26,-5.92l5.45 -16.88c-13.05,14.89 -34.75,24.45 -53.46,24.69l-22.49 0 -0.04 0c-20.09,-0.59 -42.68,-6.82 -44.06,-30.78 -0.12,-2.01 -0.11,-4.01 0,-5.99zm251.08 34.89c-2.46,0 -3.86,-2.52 -3.17,-4.77l28.05 -91.45c0.58,-1.9 2.3,-3.18 4.29,-3.18l31.26 0c3.06,0 5.21,3 4.26,5.92l-29.16 90.34c-0.6,1.88 -2.31,3.15 -4.28,3.15l-31.26 0zm-320.45 -43.48l26.23 -0.01c2.96,-0.25 5.92,-1 8.1,-3.14 1.93,-1.91 3.03,-4.67 3.82,-7.23 1.21,-3.94 1.97,-8.17 2.81,-12.21 0.33,-1.59 0.47,-3.56 -0.73,-4.84 -1.76,-1.89 -5.86,-2.15 -8.28,-2.15l-22.4 0 -9.53 29.58zm127.54 16.41c14.73,0.55 25.13,-5.23 30.51,-19.12 2.3,-5.94 5.4,-16.09 1.79,-22.06 -2.63,-4.35 -8.28,-5.36 -12.94,-5.5 -16.43,-0.5 -23.98,7.72 -29.61,22.25 -2.11,5.46 -4.13,13.98 -0.83,19.35 2.35,3.83 6.87,4.93 11.07,5.08zm-576.93 -46.05l-9 28 21.07 -0.01c7.35,-0 12.71,-4.5 15.21,-11.29 0.98,-2.67 2.18,-6.67 2.52,-9.48 0.77,-6.29 -1.66,-7.22 -7.4,-7.22l-22.4 0zm967.11 72.02l4.02 0 0 -6.91 2.14 0c0.14,1.75 2.47,4.9 2.94,6.91l4.81 0 -3.74 -7.71c2.64,-0.22 4.62,-3.26 3.18,-6.61 -1.53,-3.55 -9.37,-2.69 -13.35,-2.69l0 17.01zm6.42 -9.57l-2.41 0 0 -4.78c2.81,0 5.35,-0.12 5.35,2.92 0,1.13 -1.66,1.86 -2.94,1.86zm-15.52 0.8c0,5.08 1.48,8.24 4.61,11.36 7.62,7.6 20.65,4.57 24.64,-4.64 1.9,-4.38 1.85,-7.79 0.16,-12.27 -1.84,-4.87 -7.89,-9.33 -13.89,-9.33 -8.41,0 -15.52,6.63 -15.52,14.88zm15.52 12.49c-6.94,0 -12.31,-5.2 -12.31,-11.43 0,-4.17 0.76,-6.46 3.68,-9.37 7.89,-7.85 20.68,-1.03 20.68,8.58 0,6.49 -5.46,12.22 -12.04,12.22zm-492.96 60.37c0,0.22 -0.07,0.43 -0.22,0.61 -0.15,0.17 -0.39,0.32 -0.73,0.44 -0.34,0.1 -0.8,0.2 -1.35,0.27 -0.57,0.07 -1.29,0.1 -2.17,0.1 -0.86,0 -1.57,-0.03 -2.15,-0.1 -0.58,-0.07 -1.04,-0.16 -1.37,-0.27 -0.34,-0.12 -0.58,-0.26 -0.73,-0.44 -0.15,-0.18 -0.22,-0.39 -0.22,-0.61l0 -41.41c0,-0.22 0.07,-0.43 0.22,-0.61 0.15,-0.17 0.39,-0.32 0.75,-0.44 0.35,-0.12 0.8,-0.2 1.37,-0.27 0.57,-0.07 1.28,-0.1 2.14,-0.1 0.88,0 1.61,0.03 2.17,0.1 0.56,0.07 1.02,0.15 1.35,0.27 0.34,0.11 0.58,0.26 0.73,0.44 0.15,0.18 0.22,0.39 0.22,0.61l0 41.41zm45.69 -1.91c0,0.52 -0.09,0.98 -0.26,1.4 -0.18,0.41 -0.43,0.74 -0.74,1.02 -0.3,0.27 -0.66,0.46 -1.08,0.59 -0.43,0.13 -0.84,0.18 -1.27,0.18l-3.81 0c-0.8,0 -1.48,-0.08 -2.06,-0.23 -0.56,-0.16 -1.1,-0.45 -1.58,-0.87 -0.5,-0.42 -0.96,-0.98 -1.41,-1.7 -0.45,-0.71 -0.96,-1.63 -1.52,-2.76l-10.88 -20.5c-0.64,-1.23 -1.28,-2.54 -1.93,-3.95 -0.66,-1.41 -1.24,-2.79 -1.76,-4.12l-0.07 0c0.09,1.63 0.16,3.25 0.21,4.87 0.05,1.61 0.07,3.28 0.07,4.99l0 22.95c0,0.22 -0.06,0.43 -0.18,0.61 -0.13,0.17 -0.35,0.32 -0.65,0.45 -0.3,0.13 -0.72,0.22 -1.24,0.29 -0.52,0.07 -1.19,0.1 -2,0.1 -0.8,0 -1.45,-0.03 -1.97,-0.1 -0.52,-0.07 -0.93,-0.16 -1.21,-0.29 -0.3,-0.12 -0.51,-0.28 -0.61,-0.45 -0.12,-0.19 -0.17,-0.39 -0.17,-0.61l0 -39.4c0,-1.06 0.31,-1.86 0.93,-2.39 0.61,-0.53 1.38,-0.8 2.29,-0.8l4.78 0c0.86,0 1.58,0.07 2.17,0.22 0.59,0.15 1.11,0.39 1.57,0.73 0.46,0.34 0.9,0.81 1.31,1.41 0.4,0.59 0.82,1.34 1.25,2.22l8.52 16.04c0.5,0.97 0.98,1.93 1.47,2.87 0.49,0.94 0.96,1.87 1.4,2.81 0.45,0.93 0.89,1.86 1.32,2.76 0.44,0.91 0.86,1.81 1.26,2.72l0.04 0c-0.07,-1.59 -0.13,-3.24 -0.16,-4.95 -0.03,-1.72 -0.05,-3.36 -0.05,-4.93l0 -20.58c0,-0.22 0.07,-0.43 0.21,-0.61 0.13,-0.17 0.36,-0.34 0.67,-0.48 0.32,-0.14 0.74,-0.23 1.26,-0.29 0.52,-0.06 1.19,-0.08 2,-0.08 0.78,0 1.42,0.02 1.94,0.08 0.52,0.06 0.91,0.15 1.2,0.29 0.28,0.14 0.49,0.3 0.59,0.48 0.12,0.18 0.17,0.38 0.17,0.61l0 39.4zm45.97 -19.44c0,4.02 -0.52,7.46 -1.57,10.32 -1.05,2.86 -2.56,5.18 -4.52,7 -1.97,1.8 -4.36,3.13 -7.17,3.98 -2.81,0.84 -6.16,1.27 -10.05,1.27l-10.46 0c-0.75,0 -1.37,-0.22 -1.88,-0.66 -0.51,-0.44 -0.76,-1.16 -0.76,-2.15l0 -38.22c0,-0.99 0.25,-1.71 0.76,-2.15 0.51,-0.44 1.13,-0.66 1.88,-0.66l11.24 0c3.91,0 7.23,0.46 9.94,1.38 2.73,0.91 5.02,2.27 6.88,4.06 1.86,1.8 3.28,4.02 4.26,6.66 0.97,2.65 1.46,5.7 1.46,9.18zm-9.23 0.31c0,-2.08 -0.24,-4 -0.73,-5.79 -0.48,-1.78 -1.26,-3.32 -2.33,-4.62 -1.07,-1.31 -2.45,-2.34 -4.13,-3.06 -1.69,-0.73 -3.88,-1.1 -6.62,-1.1l-4.5 0 0 29.76 4.64 0c2.44,0 4.5,-0.31 6.16,-0.95 1.66,-0.62 3.06,-1.58 4.19,-2.85 1.11,-1.27 1.94,-2.86 2.5,-4.75 0.55,-1.89 0.83,-4.1 0.83,-6.62zm52.26 5.92c0,2.68 -0.39,5.09 -1.19,7.2 -0.79,2.13 -1.94,3.92 -3.48,5.39 -1.54,1.47 -3.43,2.59 -5.69,3.36 -2.26,0.77 -4.86,1.15 -7.79,1.15 -2.75,0 -5.23,-0.35 -7.41,-1.03 -2.2,-0.69 -4.05,-1.73 -5.56,-3.13 -1.51,-1.4 -2.67,-3.14 -3.47,-5.24 -0.8,-2.09 -1.2,-4.53 -1.2,-7.33l0 -26.66c0,-0.22 0.07,-0.43 0.21,-0.61 0.13,-0.17 0.37,-0.32 0.72,-0.44 0.35,-0.12 0.81,-0.2 1.38,-0.27 0.55,-0.07 1.28,-0.1 2.16,-0.1 0.84,0 1.56,0.03 2.12,0.1 0.57,0.07 1.01,0.15 1.35,0.27 0.34,0.11 0.58,0.26 0.73,0.44 0.15,0.18 0.22,0.39 0.22,0.61l0 25.9c0,1.75 0.22,3.25 0.65,4.53 0.43,1.27 1.04,2.34 1.85,3.17 0.8,0.83 1.76,1.47 2.88,1.88 1.12,0.42 2.37,0.62 3.75,0.62 1.4,0 2.66,-0.22 3.76,-0.65 1.11,-0.43 2.05,-1.05 2.82,-1.87 0.76,-0.83 1.36,-1.85 1.78,-3.05 0.42,-1.21 0.63,-2.59 0.63,-4.13l0 -26.41c0,-0.22 0.07,-0.43 0.21,-0.61 0.13,-0.17 0.37,-0.32 0.7,-0.44 0.34,-0.12 0.8,-0.2 1.38,-0.27 0.58,-0.07 1.29,-0.1 2.15,-0.1 0.86,0 1.56,0.03 2.11,0.1 0.55,0.07 1.01,0.15 1.34,0.27 0.34,0.11 0.58,0.26 0.7,0.44 0.14,0.18 0.21,0.39 0.21,0.61l0 26.29zm35.57 3.18c0,2.31 -0.43,4.32 -1.28,6.07 -0.87,1.73 -2.02,3.18 -3.49,4.35 -1.48,1.15 -3.19,2.03 -5.16,2.62 -1.97,0.59 -4.07,0.88 -6.31,0.88 -1.52,0 -2.91,-0.13 -4.22,-0.38 -1.29,-0.25 -2.44,-0.55 -3.43,-0.91 -0.99,-0.35 -1.83,-0.72 -2.5,-1.11 -0.67,-0.39 -1.14,-0.74 -1.45,-1.03 -0.29,-0.3 -0.49,-0.73 -0.62,-1.28 -0.13,-0.55 -0.19,-1.34 -0.19,-2.38 0,-0.71 0.02,-1.28 0.07,-1.76 0.05,-0.48 0.12,-0.86 0.22,-1.16 0.1,-0.29 0.24,-0.5 0.4,-0.62 0.17,-0.13 0.37,-0.18 0.6,-0.18 0.31,0 0.76,0.18 1.34,0.56 0.58,0.37 1.32,0.79 2.22,1.24 0.9,0.45 1.99,0.87 3.25,1.24 1.25,0.38 2.7,0.57 4.36,0.57 1.09,0 2.06,-0.13 2.91,-0.38 0.87,-0.26 1.6,-0.62 2.2,-1.1 0.6,-0.47 1.05,-1.05 1.38,-1.75 0.31,-0.69 0.47,-1.47 0.47,-2.32 0,-0.99 -0.27,-1.85 -0.81,-2.55 -0.54,-0.72 -1.25,-1.34 -2.13,-1.9 -0.86,-0.55 -1.86,-1.07 -2.97,-1.56 -1.1,-0.49 -2.24,-0.99 -3.42,-1.54 -1.18,-0.54 -2.32,-1.15 -3.42,-1.85 -1.11,-0.68 -2.11,-1.5 -2.97,-2.46 -0.88,-0.96 -1.58,-2.09 -2.13,-3.41 -0.54,-1.31 -0.81,-2.88 -0.81,-4.71 0,-2.09 0.39,-3.94 1.17,-5.54 0.77,-1.59 1.83,-2.9 3.14,-3.95 1.33,-1.05 2.88,-1.84 4.67,-2.36 1.79,-0.52 3.7,-0.78 5.71,-0.78 1.03,0 2.07,0.08 3.11,0.24 1.04,0.15 2.01,0.37 2.91,0.63 0.9,0.28 1.7,0.58 2.41,0.91 0.69,0.35 1.15,0.62 1.38,0.86 0.22,0.22 0.37,0.42 0.45,0.57 0.08,0.16 0.15,0.37 0.21,0.64 0.06,0.25 0.09,0.58 0.12,0.98 0.02,0.39 0.03,0.88 0.03,1.47 0,0.65 -0.01,1.2 -0.05,1.66 -0.03,0.45 -0.09,0.82 -0.17,1.12 -0.08,0.29 -0.2,0.51 -0.33,0.63 -0.15,0.14 -0.35,0.21 -0.6,0.21 -0.24,0 -0.63,-0.16 -1.18,-0.47 -0.54,-0.31 -1.21,-0.66 -2,-1.04 -0.8,-0.37 -1.71,-0.71 -2.75,-1 -1.04,-0.31 -2.17,-0.46 -3.42,-0.46 -0.97,0 -1.81,0.12 -2.54,0.36 -0.72,0.23 -1.32,0.57 -1.8,0.98 -0.48,0.42 -0.86,0.91 -1.09,1.5 -0.24,0.59 -0.36,1.21 -0.36,1.86 0,0.97 0.27,1.82 0.8,2.52 0.53,0.72 1.25,1.35 2.14,1.91 0.89,0.54 1.91,1.06 3.04,1.55 1.12,0.48 2.28,1.01 3.46,1.54 1.18,0.54 2.34,1.15 3.46,1.85 1.13,0.69 2.14,1.51 3.03,2.47 0.88,0.96 1.59,2.08 2.14,3.39 0.54,1.29 0.81,2.82 0.81,4.58zm35.23 -27.03c0,0.66 -0.02,1.21 -0.08,1.69 -0.06,0.46 -0.14,0.83 -0.26,1.11 -0.11,0.29 -0.25,0.5 -0.43,0.62 -0.16,0.14 -0.36,0.21 -0.55,0.21l-10.96 0 0 35.34c0,0.22 -0.07,0.43 -0.22,0.61 -0.15,0.17 -0.39,0.32 -0.73,0.44 -0.34,0.1 -0.8,0.2 -1.38,0.27 -0.58,0.07 -1.29,0.1 -2.15,0.1 -0.85,0 -1.57,-0.03 -2.15,-0.1 -0.58,-0.07 -1.04,-0.16 -1.38,-0.27 -0.34,-0.12 -0.58,-0.26 -0.73,-0.44 -0.15,-0.18 -0.22,-0.39 -0.22,-0.61l0 -35.34 -10.96 0c-0.22,0 -0.42,-0.07 -0.58,-0.21 -0.15,-0.13 -0.29,-0.34 -0.4,-0.62 -0.1,-0.28 -0.2,-0.65 -0.25,-1.11 -0.06,-0.47 -0.08,-1.03 -0.08,-1.69 0,-0.67 0.02,-1.25 0.08,-1.72 0.06,-0.47 0.15,-0.85 0.25,-1.13 0.12,-0.29 0.25,-0.48 0.4,-0.61 0.16,-0.13 0.36,-0.19 0.58,-0.19l30.87 0c0.2,0 0.38,0.06 0.55,0.19 0.17,0.13 0.31,0.32 0.43,0.61 0.12,0.28 0.2,0.66 0.26,1.13 0.06,0.47 0.08,1.05 0.08,1.72zm37.75 39.04c0,0.24 -0.04,0.45 -0.14,0.62 -0.09,0.17 -0.3,0.31 -0.64,0.43 -0.35,0.1 -0.83,0.19 -1.49,0.23 -0.66,0.04 -1.55,0.07 -2.67,0.07 -0.95,0 -1.7,-0.02 -2.27,-0.07 -0.57,-0.05 -1.02,-0.13 -1.34,-0.26 -0.32,-0.13 -0.55,-0.28 -0.69,-0.47 -0.13,-0.2 -0.24,-0.43 -0.34,-0.69l-3.95 -9.82c-0.48,-1.11 -0.94,-2.1 -1.39,-2.96 -0.45,-0.87 -0.96,-1.59 -1.51,-2.16 -0.55,-0.58 -1.2,-1.01 -1.93,-1.31 -0.72,-0.29 -1.56,-0.44 -2.51,-0.44l-2.79 0 0 16.75c0,0.22 -0.07,0.43 -0.22,0.6 -0.15,0.18 -0.39,0.33 -0.73,0.45 -0.34,0.1 -0.79,0.2 -1.35,0.27 -0.55,0.07 -1.28,0.1 -2.15,0.1 -0.86,0 -1.57,-0.03 -2.15,-0.1 -0.58,-0.07 -1.03,-0.16 -1.36,-0.27 -0.34,-0.12 -0.58,-0.26 -0.71,-0.44 -0.14,-0.18 -0.21,-0.39 -0.21,-0.61l0 -39.82c0,-0.99 0.25,-1.71 0.76,-2.15 0.51,-0.44 1.13,-0.66 1.87,-0.66l11.35 0c1.15,0 2.11,0.02 2.84,0.07 0.74,0.04 1.42,0.1 2.04,0.16 1.76,0.25 3.34,0.68 4.75,1.29 1.41,0.6 2.61,1.4 3.6,2.38 0.98,0.98 1.73,2.14 2.25,3.48 0.52,1.34 0.77,2.88 0.77,4.62 0,1.46 -0.18,2.8 -0.55,4 -0.38,1.21 -0.92,2.29 -1.65,3.24 -0.72,0.95 -1.61,1.77 -2.67,2.46 -1.07,0.7 -2.28,1.26 -3.63,1.7 0.66,0.31 1.27,0.69 1.85,1.14 0.58,0.45 1.12,1 1.63,1.65 0.51,0.65 0.99,1.38 1.45,2.21 0.45,0.82 0.89,1.76 1.32,2.8l3.71 8.66c0.34,0.86 0.57,1.48 0.67,1.88 0.12,0.39 0.17,0.7 0.17,0.94zm-11.52 -29.77c0,-1.45 -0.32,-2.67 -0.98,-3.65 -0.66,-0.99 -1.73,-1.7 -3.22,-2.11 -0.45,-0.11 -0.96,-0.2 -1.54,-0.27 -0.58,-0.07 -1.38,-0.1 -2.39,-0.1l-4 0 0 12.42 4.54 0c1.27,0 2.37,-0.15 3.32,-0.46 0.96,-0.3 1.75,-0.73 2.39,-1.28 0.63,-0.54 1.11,-1.21 1.42,-1.98 0.31,-0.76 0.47,-1.62 0.47,-2.57zm26.99 29.7c0,0.22 -0.07,0.43 -0.22,0.61 -0.15,0.17 -0.39,0.32 -0.73,0.44 -0.34,0.1 -0.8,0.2 -1.35,0.27 -0.56,0.07 -1.29,0.1 -2.17,0.1 -0.85,0 -1.57,-0.03 -2.15,-0.1 -0.58,-0.07 -1.04,-0.16 -1.38,-0.27 -0.34,-0.12 -0.58,-0.26 -0.73,-0.44 -0.15,-0.18 -0.22,-0.39 -0.22,-0.61l0 -41.41c0,-0.22 0.07,-0.43 0.22,-0.61 0.15,-0.17 0.39,-0.32 0.75,-0.44 0.35,-0.12 0.8,-0.2 1.37,-0.27 0.57,-0.07 1.28,-0.1 2.14,-0.1 0.88,0 1.61,0.03 2.17,0.1 0.56,0.07 1.02,0.15 1.35,0.27 0.34,0.11 0.58,0.26 0.73,0.44 0.15,0.18 0.22,0.39 0.22,0.61l0 41.41zm45.45 -2.1c0.27,0.81 0.44,1.46 0.51,1.93 0.07,0.47 -0.03,0.83 -0.27,1.07 -0.25,0.23 -0.69,0.38 -1.33,0.44 -0.62,0.06 -1.5,0.08 -2.6,0.08 -1.16,0 -2.06,-0.01 -2.7,-0.05 -0.65,-0.03 -1.13,-0.1 -1.48,-0.21 -0.34,-0.1 -0.57,-0.24 -0.71,-0.43 -0.14,-0.17 -0.25,-0.42 -0.34,-0.7l-2.88 -8.81 -16.53 0 -2.77 8.57c-0.09,0.32 -0.21,0.59 -0.36,0.8 -0.14,0.22 -0.38,0.38 -0.71,0.51 -0.32,0.13 -0.79,0.21 -1.38,0.26 -0.6,0.04 -1.39,0.07 -2.36,0.07 -1.04,0 -1.85,-0.03 -2.44,-0.1 -0.59,-0.07 -0.99,-0.23 -1.21,-0.49 -0.23,-0.27 -0.31,-0.64 -0.24,-1.11 0.07,-0.48 0.24,-1.1 0.51,-1.9l13.5 -38.91c0.13,-0.38 0.29,-0.69 0.47,-0.92 0.17,-0.24 0.46,-0.42 0.86,-0.54 0.4,-0.13 0.95,-0.21 1.65,-0.24 0.69,-0.03 1.62,-0.05 2.78,-0.05 1.33,0 2.39,0.01 3.18,0.05 0.8,0.03 1.41,0.11 1.85,0.24 0.44,0.13 0.75,0.31 0.95,0.55 0.19,0.25 0.36,0.59 0.49,1.02l13.55 38.87zm-20.12 -32.19l-0.03 0 -6.1 18.65 12.3 0 -6.16 -18.65zm50.33 31.78c0,0.67 -0.02,1.25 -0.08,1.71 -0.06,0.46 -0.15,0.85 -0.26,1.14 -0.11,0.31 -0.25,0.53 -0.43,0.66 -0.17,0.14 -0.37,0.21 -0.59,0.21l-20.08 0c-0.74,0 -1.36,-0.22 -1.87,-0.66 -0.51,-0.44 -0.76,-1.16 -0.76,-2.15l0 -39.82c0,-0.22 0.07,-0.43 0.22,-0.61 0.15,-0.17 0.39,-0.32 0.73,-0.44 0.34,-0.12 0.8,-0.2 1.37,-0.27 0.58,-0.07 1.3,-0.1 2.15,-0.1 0.88,0 1.61,0.03 2.17,0.1 0.56,0.07 1.02,0.15 1.35,0.27 0.34,0.11 0.58,0.26 0.73,0.44 0.15,0.18 0.22,0.39 0.22,0.61l0 35.28 13.77 0c0.22,0 0.43,0.06 0.59,0.18 0.17,0.13 0.31,0.32 0.43,0.62 0.12,0.28 0.2,0.65 0.26,1.12 0.06,0.46 0.08,1.03 0.08,1.71zm45.01 0c0,0.67 -0.02,1.25 -0.08,1.71 -0.06,0.46 -0.15,0.85 -0.26,1.14 -0.11,0.31 -0.25,0.53 -0.43,0.66 -0.17,0.14 -0.37,0.21 -0.59,0.21l-20.08 0c-0.74,0 -1.36,-0.22 -1.87,-0.66 -0.51,-0.44 -0.76,-1.16 -0.76,-2.15l0 -39.82c0,-0.22 0.07,-0.43 0.22,-0.61 0.15,-0.17 0.39,-0.32 0.73,-0.44 0.34,-0.12 0.8,-0.2 1.37,-0.27 0.58,-0.07 1.3,-0.1 2.15,-0.1 0.88,0 1.61,0.03 2.17,0.1 0.56,0.07 1.02,0.15 1.35,0.27 0.34,0.11 0.58,0.26 0.73,0.44 0.15,0.18 0.22,0.39 0.22,0.61l0 35.28 13.77 0c0.22,0 0.43,0.06 0.59,0.18 0.17,0.13 0.31,0.32 0.43,0.62 0.12,0.28 0.2,0.65 0.26,1.12 0.06,0.46 0.08,1.03 0.08,1.71zm29.32 -36.47c0,0.66 -0.02,1.21 -0.08,1.69 -0.06,0.46 -0.14,0.83 -0.26,1.11 -0.11,0.29 -0.25,0.5 -0.43,0.62 -0.16,0.14 -0.36,0.21 -0.55,0.21l-10.96 0 0 35.34c0,0.22 -0.07,0.43 -0.22,0.61 -0.15,0.17 -0.39,0.32 -0.73,0.44 -0.34,0.1 -0.8,0.2 -1.38,0.27 -0.58,0.07 -1.29,0.1 -2.15,0.1 -0.85,0 -1.57,-0.03 -2.15,-0.1 -0.58,-0.07 -1.04,-0.16 -1.37,-0.27 -0.34,-0.12 -0.58,-0.26 -0.73,-0.44 -0.15,-0.18 -0.22,-0.39 -0.22,-0.61l0 -35.34 -10.96 0c-0.22,0 -0.42,-0.07 -0.58,-0.21 -0.15,-0.13 -0.29,-0.34 -0.4,-0.62 -0.1,-0.28 -0.2,-0.65 -0.25,-1.11 -0.06,-0.47 -0.08,-1.03 -0.08,-1.69 0,-0.67 0.02,-1.25 0.08,-1.72 0.06,-0.47 0.15,-0.85 0.25,-1.13 0.12,-0.29 0.26,-0.48 0.4,-0.61 0.16,-0.13 0.36,-0.19 0.58,-0.19l30.87 0c0.2,0 0.38,0.06 0.55,0.19 0.17,0.13 0.31,0.32 0.43,0.61 0.12,0.28 0.2,0.66 0.26,1.13 0.06,0.47 0.08,1.05 0.08,1.72zm41.63 17.62c0,4.02 -0.52,7.46 -1.57,10.32 -1.05,2.86 -2.56,5.18 -4.52,7 -1.97,1.8 -4.36,3.13 -7.17,3.98 -2.81,0.84 -6.16,1.27 -10.05,1.27l-10.46 0c-0.75,0 -1.37,-0.22 -1.88,-0.66 -0.51,-0.44 -0.76,-1.16 -0.76,-2.15l0 -38.22c0,-0.99 0.25,-1.71 0.76,-2.15 0.51,-0.44 1.13,-0.66 1.88,-0.66l11.24 0c3.91,0 7.23,0.46 9.94,1.38 2.73,0.91 5.02,2.27 6.88,4.06 1.86,1.8 3.29,4.02 4.26,6.66 0.97,2.65 1.45,5.7 1.45,9.18zm-9.23 0.31c0,-2.08 -0.24,-4 -0.73,-5.79 -0.48,-1.78 -1.26,-3.32 -2.34,-4.62 -1.07,-1.31 -2.45,-2.34 -4.12,-3.06 -1.69,-0.73 -3.89,-1.1 -6.63,-1.1l-4.5 0 0 29.76 4.64 0c2.44,0 4.5,-0.31 6.16,-0.95 1.66,-0.62 3.06,-1.58 4.19,-2.85 1.11,-1.27 1.94,-2.86 2.5,-4.75 0.55,-1.89 0.83,-4.1 0.83,-6.62zm50.81 18.94c0.27,0.81 0.44,1.46 0.51,1.93 0.07,0.47 -0.03,0.83 -0.27,1.07 -0.25,0.23 -0.69,0.38 -1.33,0.44 -0.62,0.06 -1.5,0.08 -2.6,0.08 -1.15,0 -2.06,-0.01 -2.69,-0.05 -0.65,-0.03 -1.13,-0.1 -1.48,-0.21 -0.34,-0.1 -0.57,-0.24 -0.7,-0.43 -0.14,-0.17 -0.25,-0.42 -0.34,-0.7l-2.88 -8.81 -16.53 0 -2.76 8.57c-0.09,0.32 -0.21,0.59 -0.36,0.8 -0.14,0.22 -0.38,0.38 -0.71,0.51 -0.32,0.13 -0.78,0.21 -1.38,0.26 -0.6,0.04 -1.39,0.07 -2.36,0.07 -1.04,0 -1.85,-0.03 -2.44,-0.1 -0.59,-0.07 -0.99,-0.23 -1.21,-0.49 -0.23,-0.27 -0.31,-0.64 -0.24,-1.11 0.07,-0.48 0.24,-1.1 0.51,-1.9l13.5 -38.91c0.13,-0.38 0.29,-0.69 0.47,-0.92 0.17,-0.24 0.46,-0.42 0.86,-0.54 0.41,-0.13 0.95,-0.21 1.65,-0.24 0.69,-0.03 1.62,-0.05 2.78,-0.05 1.33,0 2.39,0.01 3.18,0.05 0.8,0.03 1.41,0.11 1.85,0.24 0.44,0.13 0.75,0.31 0.95,0.55 0.19,0.25 0.36,0.59 0.49,1.02l13.55 38.87zm-20.12 -32.19l-0.03 0 -6.1 18.65 12.3 0 -6.16 -18.65zm36.27 30.61c0,2.09 -0.36,3.51 -1.1,4.23 -0.73,0.73 -2.04,1.09 -3.94,1.09 -1.89,0 -3.21,-0.36 -3.93,-1.06 -0.73,-0.72 -1.09,-2.07 -1.09,-4.06 0,-2.12 0.37,-3.55 1.1,-4.27 0.74,-0.73 2.07,-1.09 3.99,-1.09 1.87,0 3.17,0.36 3.89,1.06 0.72,0.72 1.07,2.08 1.07,4.09z"  id="connector0pad"/>
    </g>
</svg>
