<?xml version='1.0' encoding='UTF-8' standalone='no'?>
<svg xmlns="http://www.w3.org/2000/svg" viewBox="0 0 19 36.432609"  version="1.1" width="4.8260002mm" gorn="0" height="9.2539997mm" id="svg39">
    <desc >
        <referenceFile >Button90degree-C2890355.svg</referenceFile>
    </desc>
    <g  transform="translate(-4030.7,-3026.7)">
        <g >
            <g >
                <defs  id="defs43"/>
                <g  gorn="0.1.0.0.1" id="silkscreen">
                    <g  transform="translate(-9.7995,-16.30429)">
                        <g >
                            <path  fill="#000000" stroke="none" gorn="0.1.0.0.1.0.0.0" d="m 4045.6699,3078.4375 a 0.5,0.5 0 0 0 -0.5,0.5 0.5,0.5 0 0 0 0.5,0.5 h 8.6602 a 0.5,0.5 0 0 0 0.5,-0.5 0.5,0.5 0 0 0 -0.5,-0.5 z" id="gge40"/>
                        </g>
                    </g>
                    <path  fill="#000000" stroke="none" gorn="0.1.0.0.1.1" style="stroke-width:0.999999" d="m 4035.8704,3040.4812 a 0.5,0.4457243 0 0 0 -0.5,0.4458 v 21.7604 a 0.5,0.4457243 0 0 0 0.5,0.4457 0.5,0.4457243 0 0 0 0.5,-0.4457 v -21.7604 a 0.5,0.4457243 0 0 0 -0.5,-0.4458 z" id="gge43"/>
                    <path  stroke="none" fill="#000000" gorn="0.1.0.0.1.2" style="stroke-width:0.999999" d="m 4044.5306,3040.4785 a 0.5,0.44577727 0 0 0 -0.5,0.4458 v 21.763 a 0.5,0.44577727 0 0 0 0.5,0.4458 0.5,0.44577727 0 0 0 0.5,-0.4458 v -21.763 a 0.5,0.44577727 0 0 0 -0.5,-0.4458 z" id="gge46"/>
                    <g  transform="translate(-9.7995,-16.30429)">
                        <g >
                            <path  stroke="none" fill="#000000" gorn="0.1.0.0.1.3.0.0" d="m 4047.0703,3043.0039 a 0.5,0.5 0 0 0 -0.5,0.5 0.5,0.5 0 0 0 0.5,0.5 h 5.8574 a 0.5,0.5 0 0 0 0.5,-0.5 0.5,0.5 0 0 0 -0.5,-0.5 z" id="gge49"/>
                        </g>
                    </g>
                    <path  stroke="none" fill="#000000" gorn="0.1.0.0.1.4" style="stroke-width:1" d="m 4044.5067,3040.4793 a 0.46987789,0.5 0 0 0 -0.4699,0.5 0.46987789,0.5 0 0 0 0.4699,0.5 h 4.5813 a 0.46987789,0.5 0 0 0 0.4699,-0.5 0.46987789,0.5 0 0 0 -0.4699,-0.5 z" id="gge52"/>
                    <path  stroke="none" fill="#000000" gorn="0.1.0.0.1.5" style="stroke-width:1" d="m 4031.3112,3040.4793 a 0.4701233,0.5 0 0 0 -0.4701,0.5 0.4701233,0.5 0 0 0 0.4701,0.5 h 4.5856 a 0.4701233,0.5 0 0 0 0.4701,-0.5 0.4701233,0.5 0 0 0 -0.4701,-0.5 z" id="gge55"/>
                    <path  stroke="none" fill="#000000" gorn="0.1.0.0.1.6" style="stroke-width:1" d="m 4031.3411,3032.2369 a 0.5,0.7118033 0 0 0 -0.5,0.7119 v 7.8103 a 0.5,0.7118033 0 0 0 0.5,0.7118 0.5,0.7118033 0 0 0 0.5,-0.7118 v -7.8103 a 0.5,0.7118033 0 0 0 -0.5,-0.7119 z" id="gge58"/>
                    <path  fill="#000000" stroke="none" gorn="0.1.0.0.1.7" style="stroke-width:1" d="m 4049.0579,3032.2367 a 0.5,0.71193228 0 0 0 -0.5,0.712 v 7.8117 a 0.5,0.71193228 0 0 0 0.5,0.7119 0.5,0.71193228 0 0 0 0.5,-0.7119 v -7.8117 a 0.5,0.71193228 0 0 0 -0.5,-0.712 z" id="gge64"/>
                </g>
                <g  gorn="0.1.0.0.2" id="copper1">
                    <g  transform="translate(-9.7995,-16.30429)">
                        <g >
                            <g  gorn="0.1.0.0.2.0.0.0" id="copper0">
                                <circle  fill="none" stroke="#ffbf00" gorn="0.1.0.0.2.0.0.0.0" cx="4044.0945" cy="3046.26" id="connector0pin" stroke-width="1.2" r="2.5496061"/>
                                <circle  fill="none" stroke="#ffbf00" gorn="0.1.0.0.2.0.0.0.1" cx="4055.9055" cy="3046.26" id="connector1pin" stroke-width="1.2" r="2.5496061"/>
                                <circle  fill="none" stroke="#ffbf00" gorn="0.1.0.0.2.0.0.0.2" cx="4049.9995" cy="3053.74" id="connector2pin" stroke-width="1.2" r="2.5496061"/>
                            </g>
                        </g>
                    </g>
                </g>
            </g>
        </g>
    </g>
</svg>
