<?xml version='1.0' encoding='UTF-8' standalone='no'?>
<svg xmlns="http://www.w3.org/2000/svg"  viewBox="0 0 18.896874 18.89692" version="1.1" width="4.8000002mm" gorn="0" height="4.8000002mm" id="svg25">
    <desc >
        <referenceFile >EA3059C-PCB.svg</referenceFile>
    </desc>
    <g  transform="translate(-3980.4,-2982.2)">
        <g >
            <g >
                <defs  id="defs25"/>
                <title  id="title1"/>
                <g  style="display:inline" gorn="0.1.0.0.2" id="silkscreen">
                    <g  transform="translate(-10.001247,-9.9772)">
                        <g >
                            <path  fill="black" stroke="none" gorn="0.1.0.0.2.0.0.0" id="gge56" d="m 4008.3652,3008.123 a 0.3937,0.3937 0 0 0 -0.3945,0.3926 v 1.1817 h -1.1816 a 0.3937,0.3937 0 0 0 -0.3926,0.3945 0.3937,0.3937 0 0 0 0.3926,0.3926 h 1.5761 a 0.39373937,0.39373937 0 0 0 0.3926,-0.3926 v -1.5762 a 0.3937,0.3937 0 0 0 -0.3926,-0.3926 z"/>
                        </g>
                    </g>
                    <g  transform="translate(-10.001247,-9.9772)">
                        <g >
                            <path  fill="black" stroke="none" gorn="0.1.0.0.2.1.0.0" id="gge57" d="m 4006.7891,2992.7676 a 0.3937,0.3937 0 0 0 -0.3926,0.3926 0.3937,0.3937 0 0 0 0.3926,0.3945 h 1.1816 v 1.1816 a 0.3937,0.3937 0 0 0 0.3945,0.3926 0.3937,0.3937 0 0 0 0.3926,-0.3926 v -1.5761 a 0.39373937,0.39373937 0 0 0 -0.3926,-0.3926 z"/>
                        </g>
                    </g>
                    <g  transform="translate(-10.001247,-9.9772)">
                        <g >
                            <path  fill="black" stroke="none" gorn="0.1.0.0.2.2.0.0" id="gge58" d="m 3991.4355,2992.7676 a 0.39373937,0.39373937 0 0 0 -0.3945,0.3926 v 1.5761 a 0.3937,0.3937 0 0 0 0.3945,0.3926 0.3937,0.3937 0 0 0 0.3926,-0.3926 v -1.1816 h 1.1817 a 0.3937,0.3937 0 0 0 0.3945,-0.3945 0.3937,0.3937 0 0 0 -0.3945,-0.3926 z"/>
                        </g>
                    </g>
                    <g  transform="translate(-10.001247,-9.9772)">
                        <g >
                            <path  fill="black" stroke="none" gorn="0.1.0.0.2.3.0.0" id="gge59" d="m 3991.4355,3008.123 a 0.3937,0.3937 0 0 0 -0.3945,0.3926 v 1.5762 a 0.39373937,0.39373937 0 0 0 0.3945,0.3926 h 1.5743 a 0.3937,0.3937 0 0 0 0.3945,-0.3926 0.3937,0.3937 0 0 0 -0.3945,-0.3945 h -1.1817 v -1.1817 a 0.3937,0.3937 0 0 0 -0.3926,-0.3926 z"/>
                        </g>
                    </g>
                    <path  fill="black" stroke="none" locked="0" gorn="0.1.0.0.2.4" id="gge50" d="m 3984.0367,2998.4693 a 1,1 0 1 0 0,0.01 z"/>
                </g>
                <g  style="display:inline" gorn="0.1.0.0.3" id="copper1">
                    <path  fill="#ffc000" stroke="none" gorn="0.1.0.0.3.0" id="nonconn2" d="m 3996.0202,2988.119 h 3.2767 v 7.0347 h -3.2767 z"/>
                    <path  fill="#ffc000" stroke="none" gorn="0.1.0.0.3.1" id="nonconn1" d="m 3981.3713,2990.1139 h 3.2534 v 1.1023 h -3.2534 z"/>
                    <path  fill="#ffc000" stroke="none" gorn="0.1.0.0.3.2" id="nonconn1-6" d="m 3980.4,2992.0814 h 3.1495 v 3.0707 H 3980.4 Z"/>
                    <path  fill="#ffc000" stroke="none" gorn="0.1.0.0.3.3" id="nonconn1-2" d="m 3984.3758,2999.5221 v -3.2534 h 1.1023 v 3.2534 z"/>
                    <path  fill="#ffc000" stroke="none" gorn="0.1.0.0.3.4" id="nonconn1-2-6" d="m 3984.3758,2986.7269 v -2.5585 h 1.1347 v 2.5585 z"/>
                    <path  fill="#ffc000" stroke="none" gorn="0.1.0.0.3.5" id="nonconn1-2-6-6" d="m 3994.2188,2987.4218 v -3.2534 h 1.1023 v 3.2534 z"/>
                    <path  fill="#ffc000" stroke="none" gorn="0.1.0.0.3.6" id="nonconn1-2-1" d="m 3990.2813,3000.1251 v -3.2534 h 1.1023 v 3.2534 z"/>
                    <path  fill="#ffc000" stroke="none" gorn="0.1.0.0.3.7" id="nonconn1-2-1-9" d="m 3994.2188,2999.5221 v -3.2534 h 1.1023 v 3.2534 z"/>
                    <path  fill="#ffc000" stroke="none" gorn="0.1.0.0.3.8" id="connector0pin" d="m 3984.9285,2997.9474 a 0.55119997,0.55139163 0 0 0 -0.5527,0.551 v 2.0475 a 0.55119997,0.55139163 0 0 0 0.5527,0.551 0.55119997,0.55139163 0 0 0 0.5508,-0.551 v -2.0475 a 0.55119997,0.55139163 0 0 0 -0.5508,-0.551 z"/>
                    <path  fill="#ffc000" stroke="none" gorn="0.1.0.0.3.9" id="connector1pin" d="m 3986.8953,2997.9486 a 0.55119997,0.55119997 0 0 0 -0.5508,0.5508 v 2.0468 a 0.55119997,0.55119997 0 0 0 0.5508,0.5508 0.55119997,0.55119997 0 0 0 0.5508,-0.5508 v -2.0468 a 0.55119997,0.55119997 0 0 0 -0.5508,-0.5508 z"/>
                    <path  fill="#ffc000" stroke="none" gorn="0.1.0.0.3.10" id="connector2pin" d="m 3988.864,2997.9486 a 0.55119997,0.55119997 0 0 0 -0.5507,0.5508 v 2.0468 a 0.55119997,0.55119997 0 0 0 0.5507,0.5508 0.55119997,0.55119997 0 0 0 0.5528,-0.5508 v -2.0468 a 0.55119997,0.55119997 0 0 0 -0.5528,-0.5508 z"/>
                    <path  fill="#ffc000" stroke="none" gorn="0.1.0.0.3.11" id="connector3pin" d="m 3990.8328,2997.9474 a 0.55119997,0.55139022 0 0 0 -0.5508,0.551 v 2.0475 a 0.55119997,0.55139022 0 0 0 0.5508,0.551 0.55119997,0.55139022 0 0 0 0.5508,-0.551 v -2.0475 a 0.55119997,0.55139022 0 0 0 -0.5508,-0.551 z"/>
                    <path  fill="#ffc000" stroke="none" gorn="0.1.0.0.3.12" id="connector4pin" d="m 3992.8015,2997.9486 a 0.55119997,0.55119997 0 0 0 -0.5507,0.5508 v 2.0468 a 0.55119997,0.55119997 0 0 0 0.5507,0.5508 0.55119997,0.55119997 0 0 0 0.5508,-0.5508 v -2.0468 a 0.55119997,0.55119997 0 0 0 -0.5508,-0.5508 z"/>
                    <path  fill="#ffc000" stroke="none" gorn="0.1.0.0.3.13" id="connector5pin" d="m 3994.7703,2997.9474 a 0.55119997,0.55139301 0 0 0 -0.5508,0.5509 v 2.0476 a 0.55119997,0.55139301 0 0 0 0.5508,0.551 0.55119997,0.55139301 0 0 0 0.5508,-0.551 v -2.0476 a 0.55119997,0.55139301 0 0 0 -0.5508,-0.5509 z"/>
                    <path  fill="#ffc000" stroke="none" gorn="0.1.0.0.3.14" id="connector6pin" d="m 3996.7,2996.0189 a 0.55119997,0.55119997 0 0 0 -0.5528,0.5508 0.55119997,0.55119997 0 0 0 0.5528,0.5508 h 2.0468 a 0.55119997,0.55119997 0 0 0 0.5508,-0.5508 0.55119997,0.55119997 0 0 0 -0.5508,-0.5508 z"/>
                    <path  fill="#ffc000" stroke="none" gorn="0.1.0.0.3.15" id="connector7pin" d="m 3996.6993,2994.0502 a 0.55119997,0.55119997 0 0 0 -0.5528,0.5508 0.55119997,0.55119997 0 0 0 0.5528,0.5527 h 2.0468 a 0.55119997,0.55119997 0 0 0 0.5508,-0.5527 0.55119997,0.55119997 0 0 0 -0.5508,-0.5508 z"/>
                    <path  fill="#ffc000" stroke="none" gorn="0.1.0.0.3.16" id="connector8pin" d="m 3996.6993,2992.0814 a 0.55119997,0.55119997 0 0 0 -0.5528,0.5508 0.55119997,0.55119997 0 0 0 0.5528,0.5528 h 2.0468 a 0.55119997,0.55119997 0 0 0 0.5508,-0.5528 0.55119997,0.55119997 0 0 0 -0.5508,-0.5508 z"/>
                    <path  fill="#ffc000" stroke="none" gorn="0.1.0.0.3.17" id="connector9pin" d="m 3996.7,2990.1126 a 0.55119997,0.55119997 0 0 0 -0.5528,0.5528 0.55119997,0.55119997 0 0 0 0.5528,0.5508 h 2.0468 a 0.55119997,0.55119997 0 0 0 0.5508,-0.5508 0.55119997,0.55119997 0 0 0 -0.5508,-0.5528 z"/>
                    <path  fill="#ffc000" stroke="none" gorn="0.1.0.0.3.18" id="connector10pin" d="m 3996.7,2988.1439 a 0.55119997,0.55119997 0 0 0 -0.5528,0.5527 0.55119997,0.55119997 0 0 0 0.5528,0.5508 h 2.0468 a 0.55119997,0.55119997 0 0 0 0.5508,-0.5508 0.55119997,0.55119997 0 0 0 -0.5508,-0.5527 z"/>
                    <path  fill="#ffc000" stroke="none" gorn="0.1.0.0.3.19" id="connector11pin" d="m 3996.7,2986.1771 a 0.55119997,0.55119997 0 0 0 -0.5528,0.5508 0.55119997,0.55119997 0 0 0 0.5528,0.5508 h 2.0468 a 0.55119997,0.55119997 0 0 0 0.5508,-0.5508 0.55119997,0.55119997 0 0 0 -0.5508,-0.5508 z"/>
                    <path  fill="#ffc000" stroke="none" gorn="0.1.0.0.3.20" id="connector12pin" d="m 3994.7703,2982.2005 a 0.55119997,0.55137748 0 0 0 -0.5508,0.551 v 2.0476 a 0.55119997,0.55137748 0 0 0 0.5508,0.5509 0.55119997,0.55137748 0 0 0 0.5508,-0.5509 v -2.0476 a 0.55119997,0.55137748 0 0 0 -0.5508,-0.551 z"/>
                    <path  fill="#ffc000" stroke="none" gorn="0.1.0.0.3.21" id="connector13pin" d="m 3992.8015,2982.2005 a 0.55119997,0.55119997 0 0 0 -0.5507,0.5508 v 2.0469 a 0.55119997,0.55119997 0 0 0 0.5507,0.5508 0.55119997,0.55119997 0 0 0 0.5508,-0.5508 v -2.0469 a 0.55119997,0.55119997 0 0 0 -0.5508,-0.5508 z"/>
                    <path  fill="#ffc000" stroke="none" gorn="0.1.0.0.3.22" id="connector14pin" d="m 3990.8328,2982.2005 a 0.55119997,0.55119997 0 0 0 -0.5508,0.5508 v 2.0469 a 0.55119997,0.55119997 0 0 0 0.5508,0.5508 0.55119997,0.55119997 0 0 0 0.5508,-0.5508 v -2.0469 a 0.55119997,0.55119997 0 0 0 -0.5508,-0.5508 z"/>
                    <path  fill="#ffc000" stroke="none" gorn="0.1.0.0.3.23" id="connector15pin" d="m 3988.864,2982.2005 a 0.55119997,0.55119997 0 0 0 -0.5507,0.5508 v 2.0469 a 0.55119997,0.55119997 0 0 0 0.5507,0.5508 0.55119997,0.55119997 0 0 0 0.5528,-0.5508 v -2.0469 a 0.55119997,0.55119997 0 0 0 -0.5528,-0.5508 z"/>
                    <path  fill="#ffc000" stroke="none" gorn="0.1.0.0.3.24" id="connector16pin" d="m 3986.8953,2982.2005 a 0.55119997,0.55119997 0 0 0 -0.5508,0.5508 v 2.0469 a 0.55119997,0.55119997 0 0 0 0.5508,0.5508 0.55119997,0.55119997 0 0 0 0.5508,-0.5508 v -2.0469 a 0.55119997,0.55119997 0 0 0 -0.5508,-0.5508 z"/>
                    <path  fill="#ffc000" stroke="none" gorn="0.1.0.0.3.25" id="connector17pin" d="m 3984.9441,2982.2005 a 0.56678442,0.55137241 0 0 0 -0.5683,0.551 v 2.0475 a 0.56678442,0.55137241 0 0 0 0.5683,0.551 0.56678442,0.55137241 0 0 0 0.5664,-0.551 v -2.0475 a 0.56678442,0.55137241 0 0 0 -0.5664,-0.551 z"/>
                    <path  fill="#ffc000" stroke="none" gorn="0.1.0.0.3.26" id="connector18pin" d="m 3980.9519,2986.1771 a 0.55119997,0.55119997 0 0 0 -0.5527,0.5508 0.55119997,0.55119997 0 0 0 0.5527,0.5508 h 2.0469 a 0.55119997,0.55119997 0 0 0 0.5508,-0.5508 0.55119997,0.55119997 0 0 0 -0.5508,-0.5508 z"/>
                    <path  fill="#ffc000" stroke="none" gorn="0.1.0.0.3.27" id="connector19pin" d="m 3980.9519,2988.1439 a 0.55119997,0.55119997 0 0 0 -0.5527,0.5527 0.55119997,0.55119997 0 0 0 0.5527,0.5508 h 2.0469 a 0.55119997,0.55119997 0 0 0 0.5508,-0.5508 0.55119997,0.55119997 0 0 0 -0.5508,-0.5527 z"/>
                    <path  fill="#ffc000" stroke="none" gorn="0.1.0.0.3.28" id="connector20pin" d="m 3980.9517,2990.1126 a 0.55103942,0.55119997 0 0 0 -0.5525,0.5528 0.55103942,0.55119997 0 0 0 0.5525,0.5508 h 2.0463 a 0.55103942,0.55119997 0 0 0 0.5507,-0.5508 0.55103942,0.55119997 0 0 0 -0.5507,-0.5528 z"/>
                    <path  fill="#ffc000" stroke="none" gorn="0.1.0.0.3.29" id="connector21pin" d="m 3980.9519,2992.0814 a 0.55119997,0.55119997 0 0 0 -0.5527,0.5508 0.55119997,0.55119997 0 0 0 0.5527,0.5527 h 2.0469 a 0.55119997,0.55119997 0 0 0 0.5508,-0.5527 0.55119997,0.55119997 0 0 0 -0.5508,-0.5508 z"/>
                    <path  fill="#ffc000" stroke="none" gorn="0.1.0.0.3.30" id="connector22pin" d="m 3980.9519,2994.0501 a 0.55119997,0.55119997 0 0 0 -0.5527,0.5508 0.55119997,0.55119997 0 0 0 0.5527,0.5528 h 2.0469 a 0.55119997,0.55119997 0 0 0 0.5508,-0.5528 0.55119997,0.55119997 0 0 0 -0.5508,-0.5508 z"/>
                    <path  fill="#ffc000" stroke="none" gorn="0.1.0.0.3.31" id="connector23pin" d="m 3980.9519,2996.0189 a 0.55119997,0.55119997 0 0 0 -0.5527,0.5508 0.55119997,0.55119997 0 0 0 0.5527,0.5508 h 2.0469 a 0.55119997,0.55119997 0 0 0 0.5508,-0.5508 0.55119997,0.55119997 0 0 0 -0.5508,-0.5508 z"/>
                    <path  fill="#ffc000" stroke="none" gorn="0.1.0.0.3.32" id="connector24pin" d="m 3984.3758,2997.168 v -10.8342 h 10.9453 v 10.8342 z"/>
                </g>
            </g>
        </g>
    </g>
</svg>
