<?xml version='1.0' encoding='UTF-8' standalone='no'?>
<!-- Created with Fritzing (https://fritzing.org/) -->
<svg xmlns="http://www.w3.org/2000/svg" x="0in" width="17.128mm" viewBox="0 0 48.551812 57.599998" gorn="0" height="20.32mm"  id="svg9" y="0in" version="1.2">
    <desc >
        <referenceFile >Borne-RGB.svg</referenceFile>
    </desc>
    <defs  id="defs9"/>
    <g gorn="0.2"  id="copper0">
        <g gorn="0.2.0"  id="copper1">
            <g transform="translate(6.0151185,2.1600002)" >
                <g >
                    <g >
                        <g gorn="0.2.0.0.0.0.0"  id="g42">
                            <circle cx="5.04" stroke-width="1.44" stroke="#ffbf00" gorn="0.2.0.0.0.0.0.0" fill="none"  r="2.0880001" id="connector0pin" cy="5.04"/>
                            <circle cx="5.04" stroke-width="1.44" stroke="#ffbf00" gorn="0.2.0.0.0.0.0.1" fill="none"  r="2.0880001" id="connector1pin" cy="19.440001"/>
                        </g>
                    </g>
                </g>
            </g>
            <g transform="translate(6.0151185,2.1600002)" >
                <g >
                    <g >
                        <g gorn="0.2.0.1.0.0.0"  id="g41">
                            <circle cx="5.04" stroke-width="1.44" stroke="#ffbf00" gorn="0.2.0.1.0.0.0.0" fill="none"  r="2.0880001" id="connector2pin" cy="33.84"/>
                            <circle cx="5.04" stroke-width="1.44" stroke="#ffbf00" gorn="0.2.0.1.0.0.0.1" fill="none"  r="2.0880001" id="connector3pin" cy="48.240002"/>
                        </g>
                    </g>
                </g>
            </g>
        </g>
    </g>
    <g gorn="0.3"  id="silkscreen">
        <path style="color:#000000;stroke-linecap:square;stroke-linejoin:round;-inkscape-" d="M 0.24609375,0 A 0.2470472,0.2470472 0 0 0 0,0.24609375 V 28.552734 a 0.2470472,0.2470472 0 0 0 0.24609375,0.248047 H 21.863281 a 0.2470472,0.2470472 0 0 0 0.246094,-0.248047 V 0.24609375 A 0.2470472,0.2470472 0 0 0 21.863281,0 Z M 0.49414063,0.49414063 H 21.615234 V 28.306641 H 0.49414063 Z" fill-opacity="1" stroke="none" gorn="0.3.0" fill="#000000" stroke-opacity="1"  id="rect41-8"/>
        <path style="color:#000000;stroke-linecap:square;stroke-linejoin:round;-inkscape-" d="M 0.24609375,28.800781 A 0.24663866,0.24663866 0 0 0 0,29.046875 v 28.306641 a 0.24663866,0.24663866 0 0 0 0.24609375,0.246093 H 21.863281 a 0.24663866,0.24663866 0 0 0 0.246094,-0.246093 V 29.046875 a 0.24663866,0.24663866 0 0 0 -0.246094,-0.246094 z m 0.24804688,0.492188 H 21.617187 v 27.8125 H 0.49414063 Z" fill-opacity="1" stroke="none" gorn="0.3.1" fill="#000000" stroke-opacity="1"  id="rect41-8-2"/>
        <path style="line-height:14.2632px;font-family:Droid Sans;-inkscape-font-specification:Droid Sans;letter-spacing:0px;word-spacing:0px;" stroke-width="0.749999" d="m 28.798248,9.3192108 v 0.542898 h -0.540156 v -0.542898 z m -0.540156,0 V 8.7817966 h 0.540156 v 0.5374142 z m 0,-0.5374142 V 8.2306729 h 0.540156 v 0.5511237 z m 0,-0.5511237 V 7.6822911 h 0.540156 v 0.5483818 z m 0,-0.5483818 V 7.1311674 h 0.540156 v 0.5511237 z m 0,-0.5511237 V 6.5827855 h 0.540156 v 0.5483819 z m 0,-0.5483819 V 6.0316618 h 0.540156 v 0.5511237 z m 0,-0.5511237 V 5.4805381 h 0.540156 v 0.5511237 z m 0,3.287549 v 0.542898 H 27.70971 v -0.542898 z m -0.548382,0 V 8.7817966 h 0.548382 v 0.5374142 z m 0,-0.5374142 V 8.2306729 h 0.548382 v 0.5511237 z m 0,-0.5511237 V 7.6822911 h 0.548382 v 0.5483818 z m 0,-0.5483818 V 7.1311674 h 0.548382 v 0.5511237 z m 0,-0.5511237 V 6.5827855 h 0.548382 v 0.5483819 z m 0,-0.5483819 V 6.0316618 h 0.548382 v 0.5511237 z m 0,-0.5511237 V 5.4805381 h 0.548382 v 0.5511237 z m 0,-0.5511237 V 4.9431239 h 0.548382 V 5.4805381 Z M 27.158587,4.9431239 V 4.3920001 h 0.551123 v 0.5511238 z m 0.551123,4.3760869 v 0.542898 h -0.551123 v -0.542898 z m -0.551123,0 V 8.7817966 h 0.551123 v 0.5374142 z m 0,-2.1880434 V 6.5827855 h 0.551123 v 0.5483819 z m 0,-1.6506293 V 4.9431239 H 27.70971 V 5.4805381 Z M 26.610205,4.9431239 V 4.3920001 h 0.548382 v 0.5511238 z m 0.548382,4.3760869 v 0.542898 h -0.548382 v -0.542898 z m -0.548382,0 V 8.7817966 h 0.548382 V 9.3192108 Z M 26.059081,4.9431239 V 4.3920001 h 0.551124 v 0.5511238 z m 0,4.3760869 V 8.7817966 h 0.551124 v 0.5374142 z m 0,-0.5374142 V 8.2306729 h 0.551124 v 0.5511237 z m 0,-0.5511237 V 7.6822911 h 0.551124 v 0.5483818 z m 0,-0.5483818 V 7.1311674 h 0.551124 v 0.5511237 z m 0,-1.0995056 V 6.0316618 h 0.551124 v 0.5511237 z m 0,-0.5511237 V 5.4805381 h 0.551124 V 6.0316618 Z M 25.507957,4.9431239 V 4.3920001 h 0.551124 v 0.5511238 z m 0.551124,4.3760869 v 0.542898 h -0.551124 v -0.542898 z m -0.551124,0 V 8.7817966 h 0.551124 v 0.5374142 z m 0,-0.5374142 V 8.2306729 h 0.551124 v 0.5511237 z m 0,-0.5511237 V 7.6822911 h 0.551124 v 0.5483818 z m 0,-0.5483818 V 7.1311674 h 0.551124 v 0.5511237 z m 0,-1.0995056 V 6.0316618 h 0.551124 v 0.5511237 z m 0,-0.5511237 V 5.4805381 h 0.551124 V 6.0316618 Z M 24.970543,4.9431239 V 4.3920001 h 0.537414 v 0.5511238 z m 0.537414,4.3760869 v 0.542898 h -0.537414 v -0.542898 z m -0.537414,0 V 8.7817966 h 0.537414 v 0.5374142 z m 0,-0.5374142 V 8.2306729 h 0.537414 v 0.5511237 z m 0,-0.5511237 V 7.6822911 h 0.537414 v 0.5483818 z m 0,-0.5483818 V 7.1311674 h 0.537414 v 0.5511237 z m 0,-1.0995056 V 6.0316618 h 0.537414 v 0.5511237 z m 0,-0.5511237 V 5.4805381 h 0.537414 V 6.0316618 Z M 24.419419,4.9431239 V 4.3920001 h 0.551124 v 0.5511238 z m 0.551124,4.3760869 v 0.542898 h -0.551124 v -0.542898 z m -0.551124,0 V 8.7817966 h 0.551124 V 9.3192108 Z M 23.871038,4.9431239 V 4.3920001 h 0.548381 v 0.5511238 z m 0.548381,4.3760869 v 0.542898 h -0.548381 v -0.542898 z m -0.548381,0 V 8.7817966 h 0.548381 V 9.3192108 Z M 23.319914,4.9431239 V 4.3920001 h 0.551124 v 0.5511238 z m 0,4.3760869 V 8.7817966 h 0.551124 v 0.5374142 z m 0,-0.5374142 V 8.2306729 h 0.551124 v 0.5511237 z m 0,-0.5511237 V 7.6822911 h 0.551124 v 0.5483818 z m 0,-0.5483818 V 7.1311674 h 0.551124 v 0.5511237 z m 0,-0.5511237 V 6.5827855 h 0.551124 v 0.5483819 z m 0,-0.5483819 V 6.0316618 h 0.551124 v 0.5511237 z m 0,-0.5511237 V 5.4805381 h 0.551124 v 0.5511237 z m 0,-0.5511237 V 4.9431239 h 0.551124 v 0.5374142 z m 10.416513,3.8386727 v 0.542898 h -0.540156 v -0.542898 z m -0.540156,0 V 8.7817966 h 0.540156 v 0.5374142 z m 0,-0.5374142 V 8.2306729 h 0.540156 v 0.5511237 z m 0,-2.1990111 V 6.0316618 h 0.540156 v 0.5511237 z m 0,-0.5511237 V 5.4805381 h 0.540156 v 0.5511237 z m 0,-0.5511237 V 4.9431239 h 0.540156 V 5.4805381 Z M 32.647889,4.9431239 V 4.3920001 h 0.548382 v 0.5511238 z m 0.548382,4.3760869 v 0.542898 h -0.548382 v -0.542898 z m -0.548382,0 V 8.7817966 h 0.548382 v 0.5374142 z m 0,-0.5374142 V 8.2306729 h 0.548382 v 0.5511237 z m 0,-0.5511237 V 7.6822911 h 0.548382 v 0.5483818 z m 0,-0.5483818 V 7.1311674 h 0.548382 v 0.5511237 z m 0,-0.5511237 V 6.5827855 h 0.548382 v 0.5483819 z m 0,-0.5483819 V 6.0316618 h 0.548382 v 0.5511237 z m 0,-0.5511237 V 5.4805381 h 0.548382 v 0.5511237 z m 0,-0.5511237 V 4.9431239 h 0.548382 V 5.4805381 Z M 32.096765,4.9431239 V 4.3920001 h 0.551124 v 0.5511238 z m 0.551124,4.3760869 v 0.542898 h -0.551124 v -0.542898 z m -0.551124,0 V 8.7817966 h 0.551124 v 0.5374142 z m 0,-1.0885379 V 7.6822911 h 0.551124 v 0.5483818 z m 0,-0.5483818 V 7.1311674 h 0.551124 v 0.5511237 z m 0,-0.5511237 V 6.5827855 h 0.551124 v 0.5483819 z m 0,-0.5483819 V 6.0316618 h 0.551124 v 0.5511237 z m 0,-0.5511237 V 5.4805381 h 0.551124 V 6.0316618 Z M 31.548383,4.9431239 V 4.3920001 h 0.548382 v 0.5511238 z m 0.548382,4.3760869 v 0.542898 h -0.548382 v -0.542898 z m -0.548382,0 V 8.7817966 h 0.548382 v 0.5374142 z m 0,-1.0885379 V 7.6822911 h 0.548382 v 0.5483818 z m 0,-0.5483818 V 7.1311674 h 0.548382 v 0.5511237 z m 0,-1.0995056 V 6.0316618 h 0.548382 v 0.5511237 z m 0,-0.5511237 V 5.4805381 h 0.548382 V 6.0316618 Z M 30.99726,4.9431239 V 4.3920001 h 0.551123 v 0.5511238 z m 0.551123,4.3760869 v 0.542898 H 30.99726 v -0.542898 z m -0.551123,0 V 8.7817966 h 0.551123 v 0.5374142 z m 0,-1.0885379 V 7.6822911 h 0.551123 v 0.5483818 z m 0,-0.5483818 V 7.1311674 h 0.551123 v 0.5511237 z m 0,-1.0995056 V 6.0316618 h 0.551123 v 0.5511237 z m 0,-0.5511237 V 5.4805381 h 0.551123 V 6.0316618 Z M 30.446136,4.9431239 V 4.3920001 h 0.551124 v 0.5511238 z m 0.551124,4.3760869 v 0.542898 h -0.551124 v -0.542898 z m -0.551124,0 V 8.7817966 h 0.551124 v 0.5374142 z m 0,-1.0885379 V 7.6822911 h 0.551124 v 0.5483818 z m 0,-0.5483818 V 7.1311674 h 0.551124 v 0.5511237 z m 0,-1.0995056 V 6.0316618 h 0.551124 v 0.5511237 z m 0,-0.5511237 V 5.4805381 H 30.99726 V 6.0316618 Z M 29.908722,4.9431239 V 4.3920001 h 0.537414 v 0.5511238 z m 0.537414,4.3760869 v 0.542898 h -0.537414 v -0.542898 z m -0.537414,0 V 8.7817966 h 0.537414 v 0.5374142 z m 0,-1.0885379 V 7.6822911 h 0.537414 v 0.5483818 z m 0,-0.5483818 V 7.1311674 h 0.537414 v 0.5511237 z m 0,-1.0995056 V 6.0316618 h 0.537414 v 0.5511237 z m 0,-0.5511237 V 5.4805381 h 0.537414 V 6.0316618 Z M 29.357598,4.9431239 V 4.3920001 h 0.551124 v 0.5511238 z m 0.551124,4.3760869 v 0.542898 h -0.551124 v -0.542898 z m -0.551124,0 V 8.7817966 h 0.551124 V 9.3192108 Z M 28.809216,4.9431239 V 4.3920001 h 0.548382 v 0.5511238 z m 0.548382,4.3760869 v 0.542898 h -0.548382 v -0.542898 z m -0.548382,0 V 8.7817966 h 0.548382 V 9.3192108 Z M 28.258092,4.9431239 V 4.3920001 h 0.551124 v 0.5511238 z m 0,4.3760869 V 8.7817966 h 0.551124 v 0.5374142 z m 0,-0.5374142 V 8.2306729 h 0.551124 v 0.5511237 z m 0,-0.5511237 V 7.6822911 h 0.551124 v 0.5483818 z m 0,-0.5483818 V 7.1311674 h 0.551124 v 0.5511237 z m 0,-0.5511237 V 6.5827855 h 0.551124 v 0.5483819 z m 0,-0.5483819 V 6.0316618 h 0.551124 v 0.5511237 z m 0,-0.5511237 V 5.4805381 h 0.551124 v 0.5511237 z m 0,-0.5511237 V 4.9431239 h 0.551124 v 0.5374142 z m 9.876357,3.3012585 V 8.2306729 h 0.540156 v 0.5511237 z m 0,-0.5511237 V 7.6822911 h 0.540156 v 0.5483818 z m 0,-0.5483818 V 7.1311674 h 0.540156 v 0.5511237 z m 0,-0.5511237 V 6.5827855 h 0.540156 v 0.5483819 z m 0,-0.5483819 V 6.0316618 h 0.540156 V 6.5827855 Z M 37.586067,9.3192108 V 8.7817966 h 0.548382 v 0.5374142 z m 0,-0.5374142 V 8.2306729 h 0.548382 v 0.5511237 z m 0,-0.5511237 V 7.6822911 h 0.548382 v 0.5483818 z m 0,-0.5483818 V 7.1311674 h 0.548382 v 0.5511237 z m 0,-0.5511237 V 6.5827855 h 0.548382 v 0.5483819 z m 0,-0.5483819 V 6.0316618 h 0.548382 v 0.5511237 z m 0,-0.5511237 V 5.4805381 h 0.548382 v 0.5511237 z m 0,3.287549 v 0.542898 h -0.551123 v -0.542898 z m -0.551123,0 V 8.7817966 h 0.551123 v 0.5374142 z m 0,-0.5374142 V 8.2306729 h 0.551123 v 0.5511237 z m 0,-0.5511237 V 7.6822911 h 0.551123 v 0.5483818 z m 0,-2.1990111 V 5.4805381 h 0.551123 v 0.5511237 z m 0,-0.5511237 V 4.9431239 h 0.551123 V 5.4805381 Z M 36.486562,4.9431239 V 4.3920001 h 0.548382 v 0.5511238 z m 0.548382,4.3760869 v 0.542898 h -0.548382 v -0.542898 z m -0.548382,0 V 8.7817966 h 0.548382 v 0.5374142 z m 0,-0.5374142 V 8.2306729 h 0.548382 v 0.5511237 z m 0,-3.3012585 V 4.9431239 h 0.548382 V 5.4805381 Z M 35.935438,4.9431239 V 4.3920001 h 0.551124 v 0.5511238 z m 0.551124,4.3760869 v 0.542898 h -0.551124 v -0.542898 z m -0.551124,0 V 8.7817966 h 0.551124 v 0.5374142 z m 0,-1.6369197 V 7.1311674 h 0.551124 v 0.5511237 z m 0,-0.5511237 V 6.5827855 h 0.551124 v 0.5483819 z m 0,-0.5483819 V 6.0316618 h 0.551124 V 6.5827855 Z M 35.384314,4.9431239 V 4.3920001 h 0.551124 v 0.5511238 z m 0.551124,4.3760869 v 0.542898 h -0.551124 v -0.542898 z m -0.551124,0 V 8.7817966 h 0.551124 v 0.5374142 z m 0,-1.0885379 V 7.6822911 h 0.551124 v 0.5483818 z m 0,-0.5483818 V 7.1311674 h 0.551124 v 0.5511237 z m 0,-0.5511237 V 6.5827855 h 0.551124 v 0.5483819 z m 0,-0.5483819 V 6.0316618 h 0.551124 v 0.5511237 z m 0,-0.5511237 V 5.4805381 h 0.551124 V 6.0316618 Z M 34.8469,4.9431239 V 4.3920001 h 0.537414 v 0.5511238 z m 0.537414,4.3760869 v 0.542898 H 34.8469 v -0.542898 z m -0.537414,0 V 8.7817966 h 0.537414 v 0.5374142 z m 0,-1.0885379 V 7.6822911 h 0.537414 v 0.5483818 z m 0,-0.5483818 V 7.1311674 h 0.537414 v 0.5511237 z m 0,-0.5511237 V 6.5827855 h 0.537414 v 0.5483819 z m 0,-0.5483819 V 6.0316618 h 0.537414 v 0.5511237 z m 0,-0.5511237 V 5.4805381 h 0.537414 V 6.0316618 Z M 34.295776,4.9431239 V 4.3920001 H 34.8469 V 4.9431239 Z M 34.8469,9.3192108 v 0.542898 h -0.551124 v -0.542898 z m -0.551124,0 V 8.7817966 H 34.8469 V 9.3192108 Z M 33.747395,4.9431239 V 4.3920001 h 0.548381 v 0.5511238 z m 0.548381,4.3760869 v 0.542898 h -0.548381 v -0.542898 z m -0.548381,0 V 8.7817966 h 0.548381 V 9.3192108 Z M 33.196271,4.9431239 V 4.3920001 h 0.551124 v 0.5511238 z m 0,4.3760869 V 8.7817966 h 0.551124 v 0.5374142 z m 0,-0.5374142 V 8.2306729 h 0.551124 v 0.5511237 z m 0,-0.5511237 V 7.6822911 h 0.551124 v 0.5483818 z m 0,-0.5483818 V 7.1311674 h 0.551124 v 0.5511237 z m 0,-0.5511237 V 6.5827855 h 0.551124 v 0.5483819 z m 0,-0.5483819 V 6.0316618 h 0.551124 v 0.5511237 z m 0,-0.5511237 V 5.4805381 h 0.551124 v 0.5511237 z m 0,-0.5511237 V 4.9431239 h 0.551124 v 0.5374142 z" fill-opacity="1" stroke="none" gorn="0.3.2" font-size="4.49234" fill="#000000" stroke-opacity="1"  id="path44"/>
        <path style="line-height:14.2632px;font-family:Droid Sans;-inkscape-font-specification:Droid Sans;letter-spacing:0px;word-spacing:0px;" stroke-width="0.749999" d="m 28.798248,23.905741 v 0.542898 h -0.540156 v -0.542898 z m -0.540156,0 v -0.537414 h 0.540156 v 0.537414 z m 0,-0.537414 v -0.551124 h 0.540156 v 0.551124 z m 0,-0.551124 v -0.548382 h 0.540156 v 0.548382 z m 0,-0.548382 v -0.551124 h 0.540156 v 0.551124 z m 0,-0.551124 v -0.548381 h 0.540156 v 0.548381 z m 0,-0.548381 v -0.551124 h 0.540156 v 0.551124 z m 0,-0.551124 v -0.551124 h 0.540156 v 0.551124 z m 0,3.287549 v 0.542898 H 27.70971 v -0.542898 z m -0.548382,0 v -0.537414 h 0.548382 v 0.537414 z m 0,-0.537414 v -0.551124 h 0.548382 v 0.551124 z m 0,-0.551124 v -0.548382 h 0.548382 v 0.548382 z m 0,-0.548382 v -0.551124 h 0.548382 v 0.551124 z m 0,-0.551124 v -0.548381 h 0.548382 v 0.548381 z m 0,-0.548381 v -0.551124 h 0.548382 v 0.551124 z m 0,-0.551124 v -0.551124 h 0.548382 v 0.551124 z m 0,-0.551124 v -0.537414 h 0.548382 v 0.537414 z M 27.158587,19.529654 V 18.97853 h 0.551123 v 0.551124 z m 0.551123,4.376087 v 0.542898 h -0.551123 v -0.542898 z m -0.551123,0 v -0.537414 h 0.551123 v 0.537414 z m 0,-2.736425 v -0.551124 h 0.551123 v 0.551124 z m 0,-1.102248 v -0.537414 h 0.551123 v 0.537414 z M 26.610205,19.529654 V 18.97853 h 0.548382 v 0.551124 z m 0.548382,4.376087 v 0.542898 h -0.548382 v -0.542898 z m -0.548382,0 v -0.537414 h 0.548382 v 0.537414 z m 0,-0.537414 v -0.551124 h 0.548382 v 0.551124 z m 0,-2.199011 v -0.551124 h 0.548382 v 0.551124 z M 26.059081,19.529654 V 18.97853 h 0.551124 v 0.551124 z m 0.551124,4.376087 v 0.542898 h -0.551124 v -0.542898 z m -0.551124,0 v -0.537414 h 0.551124 v 0.537414 z m 0,-1.088538 v -0.548382 h 0.551124 v 0.548382 z m 0,-0.548382 v -0.551124 h 0.551124 v 0.551124 z m 0,-1.099505 v -0.551124 h 0.551124 v 0.551124 z m 0,-0.551124 v -0.551124 h 0.551124 v 0.551124 z M 25.507957,19.529654 V 18.97853 h 0.551124 v 0.551124 z m 0.551124,4.376087 v 0.542898 h -0.551124 v -0.542898 z m -0.551124,0 v -0.537414 h 0.551124 v 0.537414 z m 0,-1.088538 v -0.548382 h 0.551124 v 0.548382 z m 0,-0.548382 v -0.551124 h 0.551124 v 0.551124 z m 0,-0.551124 v -0.548381 h 0.551124 v 0.548381 z m 0,-0.548381 v -0.551124 h 0.551124 v 0.551124 z m 0,-0.551124 v -0.551124 h 0.551124 v 0.551124 z M 24.970543,19.529654 V 18.97853 h 0.537414 v 0.551124 z m 0.537414,4.376087 v 0.542898 h -0.537414 v -0.542898 z m -0.537414,0 v -0.537414 h 0.537414 v 0.537414 z m 0,-1.088538 v -0.548382 h 0.537414 v 0.548382 z m 0,-0.548382 v -0.551124 h 0.537414 v 0.551124 z m 0,-0.551124 v -0.548381 h 0.537414 v 0.548381 z m 0,-0.548381 v -0.551124 h 0.537414 v 0.551124 z m 0,-0.551124 v -0.551124 h 0.537414 v 0.551124 z M 24.419419,19.529654 V 18.97853 h 0.551124 v 0.551124 z m 0.551124,4.376087 v 0.542898 h -0.551124 v -0.542898 z m -0.551124,0 v -0.537414 h 0.551124 v 0.537414 z M 23.871038,19.529654 V 18.97853 h 0.548381 v 0.551124 z m 0,4.376087 v -0.537414 h 0.548381 v 0.537414 z m 0,-0.537414 v -0.551124 h 0.548381 v 0.551124 z m 0,-3.301259 v -0.537414 h 0.548381 v 0.537414 z m -0.551124,3.301259 v -0.551124 h 0.551124 v 0.551124 z m 0,-0.551124 v -0.548382 h 0.551124 v 0.548382 z m 0,-0.548382 v -0.551124 h 0.551124 v 0.551124 z m 0,-0.551124 v -0.548381 h 0.551124 v 0.548381 z m 0,-0.548381 v -0.551124 h 0.551124 v 0.551124 z m 0,-0.551124 v -0.551124 h 0.551124 v 0.551124 z m 0,-0.551124 v -0.537414 h 0.551124 v 0.537414 z m 10.416513,3.838673 v 0.542898 h -0.540156 v -0.542898 z m -0.540156,0 v -0.537414 h 0.540156 v 0.537414 z m 0,-0.537414 v -0.551124 h 0.540156 v 0.551124 z m 0,-0.551124 v -0.548382 h 0.540156 v 0.548382 z m 0,-0.548382 v -0.551124 h 0.540156 v 0.551124 z m 0,-0.551124 v -0.548381 h 0.540156 v 0.548381 z m 0,-0.548381 v -0.551124 h 0.540156 v 0.551124 z m 0,-0.551124 v -0.551124 h 0.540156 v 0.551124 z m 0,3.287549 v 0.542898 h -0.548382 v -0.542898 z m -0.548382,0 v -0.537414 h 0.548382 v 0.537414 z m 0,-0.537414 v -0.551124 h 0.548382 v 0.551124 z m 0,-0.551124 v -0.548382 h 0.548382 v 0.548382 z m 0,-0.548382 v -0.551124 h 0.548382 v 0.551124 z m 0,-0.551124 v -0.548381 h 0.548382 v 0.548381 z m 0,-0.548381 v -0.551124 h 0.548382 v 0.551124 z m 0,-0.551124 v -0.551124 h 0.548382 v 0.551124 z m 0,-0.551124 v -0.537414 h 0.548382 v 0.537414 z M 32.096765,19.529654 V 18.97853 h 0.551124 v 0.551124 z m 0.551124,4.376087 v 0.542898 h -0.551124 v -0.542898 z m -0.551124,0 v -0.537414 h 0.551124 v 0.537414 z m 0,-2.188044 v -0.548381 h 0.551124 v 0.548381 z m 0,-1.650629 v -0.537414 h 0.551124 v 0.537414 z M 31.548383,19.529654 V 18.97853 h 0.548382 v 0.551124 z m 0.548382,4.376087 v 0.542898 h -0.548382 v -0.542898 z m -0.548382,0 v -0.537414 h 0.548382 v 0.537414 z M 30.99726,19.529654 V 18.97853 h 0.551123 v 0.551124 z m 0,4.376087 v -0.537414 h 0.551123 v 0.537414 z m 0,-0.537414 v -0.551124 h 0.551123 v 0.551124 z m 0,-0.551124 v -0.548382 h 0.551123 v 0.548382 z m 0,-0.548382 v -0.551124 h 0.551123 v 0.551124 z m 0,-1.099505 v -0.551124 h 0.551123 v 0.551124 z m 0,-0.551124 v -0.551124 h 0.551123 v 0.551124 z M 30.446136,19.529654 V 18.97853 h 0.551124 v 0.551124 z m 0.551124,4.376087 v 0.542898 h -0.551124 v -0.542898 z m -0.551124,0 v -0.537414 h 0.551124 v 0.537414 z m 0,-0.537414 v -0.551124 h 0.551124 v 0.551124 z m 0,-0.551124 v -0.548382 h 0.551124 v 0.548382 z m 0,-0.548382 v -0.551124 h 0.551124 v 0.551124 z m 0,-1.099505 v -0.551124 h 0.551124 v 0.551124 z m 0,-0.551124 v -0.551124 h 0.551124 v 0.551124 z M 29.908722,19.529654 V 18.97853 h 0.537414 v 0.551124 z m 0.537414,4.376087 v 0.542898 h -0.537414 v -0.542898 z m -0.537414,0 v -0.537414 h 0.537414 v 0.537414 z m 0,-0.537414 v -0.551124 h 0.537414 v 0.551124 z m 0,-0.551124 v -0.548382 h 0.537414 v 0.548382 z m 0,-0.548382 v -0.551124 h 0.537414 v 0.551124 z m 0,-1.099505 v -0.551124 h 0.537414 v 0.551124 z m 0,-0.551124 v -0.551124 h 0.537414 v 0.551124 z M 29.357598,19.529654 V 18.97853 h 0.551124 v 0.551124 z m 0.551124,4.376087 v 0.542898 h -0.551124 v -0.542898 z m -0.551124,0 v -0.537414 h 0.551124 v 0.537414 z M 28.809216,19.529654 V 18.97853 h 0.548382 v 0.551124 z m 0.548382,4.376087 v 0.542898 h -0.548382 v -0.542898 z m -0.548382,0 v -0.537414 h 0.548382 v 0.537414 z M 28.258092,19.529654 V 18.97853 h 0.551124 v 0.551124 z m 0,4.376087 v -0.537414 h 0.551124 v 0.537414 z m 0,-0.537414 v -0.551124 h 0.551124 v 0.551124 z m 0,-0.551124 v -0.548382 h 0.551124 v 0.548382 z m 0,-0.548382 v -0.551124 h 0.551124 v 0.551124 z m 0,-0.551124 v -0.548381 h 0.551124 v 0.548381 z m 0,-0.548381 v -0.551124 h 0.551124 v 0.551124 z m 0,-0.551124 v -0.551124 h 0.551124 v 0.551124 z m 0,-0.551124 v -0.537414 h 0.551124 v 0.537414 z m 10.416513,3.838673 v 0.542898 h -0.540156 v -0.542898 z m -0.540156,0 v -0.537414 h 0.540156 v 0.537414 z m 0,-0.537414 v -0.551124 h 0.540156 v 0.551124 z m 0,-2.199011 v -0.551124 h 0.540156 v 0.551124 z m 0,-0.551124 v -0.551124 h 0.540156 v 0.551124 z m 0,-0.551124 v -0.537414 h 0.540156 v 0.537414 z M 37.586067,19.529654 V 18.97853 h 0.548382 v 0.551124 z m 0.548382,4.376087 v 0.542898 h -0.548382 v -0.542898 z m -0.548382,0 v -0.537414 h 0.548382 v 0.537414 z m 0,-0.537414 v -0.551124 h 0.548382 v 0.551124 z m 0,-0.551124 v -0.548382 h 0.548382 v 0.548382 z m 0,-0.548382 v -0.551124 h 0.548382 v 0.551124 z m 0,-0.551124 v -0.548381 h 0.548382 v 0.548381 z m 0,-0.548381 v -0.551124 h 0.548382 v 0.551124 z m 0,-0.551124 v -0.551124 h 0.548382 v 0.551124 z m 0,-0.551124 v -0.537414 h 0.548382 v 0.537414 z M 37.034944,19.529654 V 18.97853 h 0.551123 v 0.551124 z m 0.551123,4.376087 v 0.542898 h -0.551123 v -0.542898 z m -0.551123,0 v -0.537414 h 0.551123 v 0.537414 z m 0,-1.088538 v -0.548382 h 0.551123 v 0.548382 z m 0,-0.548382 v -0.551124 h 0.551123 v 0.551124 z m 0,-0.551124 v -0.548381 h 0.551123 v 0.548381 z m 0,-0.548381 v -0.551124 h 0.551123 v 0.551124 z m 0,-0.551124 v -0.551124 h 0.551123 v 0.551124 z M 36.486562,19.529654 V 18.97853 h 0.548382 v 0.551124 z m 0.548382,4.376087 v 0.542898 h -0.548382 v -0.542898 z m -0.548382,0 v -0.537414 h 0.548382 v 0.537414 z m 0,-1.088538 v -0.548382 h 0.548382 v 0.548382 z m 0,-0.548382 v -0.551124 h 0.548382 v 0.551124 z m 0,-1.099505 v -0.551124 h 0.548382 v 0.551124 z m 0,-0.551124 v -0.551124 h 0.548382 v 0.551124 z M 35.935438,19.529654 V 18.97853 h 0.551124 v 0.551124 z m 0.551124,4.376087 v 0.542898 h -0.551124 v -0.542898 z m -0.551124,0 v -0.537414 h 0.551124 v 0.537414 z m 0,-1.088538 v -0.548382 h 0.551124 v 0.548382 z m 0,-0.548382 v -0.551124 h 0.551124 v 0.551124 z m 0,-1.099505 v -0.551124 h 0.551124 v 0.551124 z m 0,-0.551124 v -0.551124 h 0.551124 v 0.551124 z M 35.384314,19.529654 V 18.97853 h 0.551124 v 0.551124 z m 0.551124,4.376087 v 0.542898 h -0.551124 v -0.542898 z m -0.551124,0 v -0.537414 h 0.551124 v 0.537414 z m 0,-1.088538 v -0.548382 h 0.551124 v 0.548382 z m 0,-0.548382 v -0.551124 h 0.551124 v 0.551124 z m 0,-1.099505 v -0.551124 h 0.551124 v 0.551124 z m 0,-0.551124 v -0.551124 h 0.551124 v 0.551124 z M 34.8469,19.529654 V 18.97853 h 0.537414 v 0.551124 z m 0.537414,4.376087 v 0.542898 H 34.8469 v -0.542898 z m -0.537414,0 v -0.537414 h 0.537414 v 0.537414 z m 0,-1.088538 v -0.548382 h 0.537414 v 0.548382 z m 0,-0.548382 v -0.551124 h 0.537414 v 0.551124 z m 0,-1.099505 v -0.551124 h 0.537414 v 0.551124 z m 0,-0.551124 v -0.551124 h 0.537414 v 0.551124 z M 34.295776,19.529654 V 18.97853 H 34.8469 v 0.551124 z m 0.551124,4.376087 v 0.542898 h -0.551124 v -0.542898 z m -0.551124,0 V 23.368327 H 34.8469 v 0.537414 z M 33.747395,19.529654 V 18.97853 h 0.548381 v 0.551124 z m 0.548381,4.376087 v 0.542898 h -0.548381 v -0.542898 z m -0.548381,0 v -0.537414 h 0.548381 v 0.537414 z M 33.196271,19.529654 V 18.97853 h 0.551124 v 0.551124 z m 0,4.376087 v -0.537414 h 0.551124 v 0.537414 z m 0,-0.537414 v -0.551124 h 0.551124 v 0.551124 z m 0,-0.551124 v -0.548382 h 0.551124 v 0.548382 z m 0,-0.548382 v -0.551124 h 0.551124 v 0.551124 z m 0,-0.551124 v -0.548381 h 0.551124 v 0.548381 z m 0,-0.548381 v -0.551124 h 0.551124 v 0.551124 z m 0,-0.551124 v -0.551124 h 0.551124 v 0.551124 z m 0,-0.551124 v -0.537414 h 0.551124 v 0.537414 z m 10.416512,3.838673 v 0.542898 h -0.540156 v -0.542898 z m -0.540156,0 v -0.537414 h 0.540156 v 0.537414 z m 0,-0.537414 v -0.551124 h 0.540156 v 0.551124 z m 0,-2.199011 v -0.551124 h 0.540156 v 0.551124 z m 0,-0.551124 v -0.551124 h 0.540156 v 0.551124 z m 0,-0.551124 v -0.537414 h 0.540156 v 0.537414 z M 42.524246,19.529654 V 18.97853 h 0.548381 v 0.551124 z m 0.548381,4.376087 v 0.542898 h -0.548381 v -0.542898 z m -0.548381,0 v -0.537414 h 0.548381 v 0.537414 z m 0,-0.537414 v -0.551124 h 0.548381 v 0.551124 z m 0,-0.551124 v -0.548382 h 0.548381 v 0.548382 z m 0,-0.548382 v -0.551124 h 0.548381 v 0.551124 z m 0,-0.551124 v -0.548381 h 0.548381 v 0.548381 z m 0,-0.548381 v -0.551124 h 0.548381 v 0.551124 z m 0,-0.551124 v -0.551124 h 0.548381 v 0.551124 z m 0,-0.551124 v -0.537414 h 0.548381 v 0.537414 z M 41.973122,19.529654 V 18.97853 h 0.551124 v 0.551124 z m 0.551124,4.376087 v 0.542898 h -0.551124 v -0.542898 z m -0.551124,0 v -0.537414 h 0.551124 v 0.537414 z m 0,-1.088538 v -0.548382 h 0.551124 v 0.548382 z m 0,-0.548382 v -0.551124 h 0.551124 v 0.551124 z m 0,-0.551124 v -0.548381 h 0.551124 v 0.548381 z m 0,-0.548381 v -0.551124 h 0.551124 v 0.551124 z m 0,-0.551124 v -0.551124 h 0.551124 v 0.551124 z M 41.42474,19.529654 V 18.97853 h 0.548382 v 0.551124 z m 0.548382,4.376087 v 0.542898 H 41.42474 v -0.542898 z m -0.548382,0 v -0.537414 h 0.548382 v 0.537414 z m 0,-1.088538 v -0.548382 h 0.548382 v 0.548382 z m 0,-0.548382 v -0.551124 h 0.548382 v 0.551124 z m 0,-1.099505 v -0.551124 h 0.548382 v 0.551124 z m 0,-0.551124 v -0.551124 h 0.548382 v 0.551124 z M 40.873616,19.529654 V 18.97853 h 0.551124 v 0.551124 z m 0.551124,4.376087 v 0.542898 h -0.551124 v -0.542898 z m -0.551124,0 v -0.537414 h 0.551124 v 0.537414 z m 0,-1.088538 v -0.548382 h 0.551124 v 0.548382 z m 0,-0.548382 v -0.551124 h 0.551124 v 0.551124 z m 0,-1.099505 v -0.551124 h 0.551124 v 0.551124 z m 0,-0.551124 v -0.551124 h 0.551124 v 0.551124 z M 40.322492,19.529654 V 18.97853 h 0.551124 v 0.551124 z m 0.551124,4.376087 v 0.542898 h -0.551124 v -0.542898 z m -0.551124,0 v -0.537414 h 0.551124 v 0.537414 z m 0,-1.088538 v -0.548382 h 0.551124 v 0.548382 z m 0,-0.548382 v -0.551124 h 0.551124 v 0.551124 z m 0,-1.099505 v -0.551124 h 0.551124 v 0.551124 z m 0,-0.551124 v -0.551124 h 0.551124 v 0.551124 z M 39.785078,19.529654 V 18.97853 h 0.537414 v 0.551124 z m 0.537414,4.376087 v 0.542898 h -0.537414 v -0.542898 z m -0.537414,0 v -0.537414 h 0.537414 v 0.537414 z m 0,-1.088538 v -0.548382 h 0.537414 v 0.548382 z m 0,-0.548382 v -0.551124 h 0.537414 v 0.551124 z m 0,-1.099505 v -0.551124 h 0.537414 v 0.551124 z m 0,-0.551124 v -0.551124 h 0.537414 v 0.551124 z M 39.233955,19.529654 V 18.97853 h 0.551123 v 0.551124 z m 0.551123,4.376087 v 0.542898 h -0.551123 v -0.542898 z m -0.551123,0 v -0.537414 h 0.551123 v 0.537414 z M 38.685573,19.529654 V 18.97853 h 0.548382 v 0.551124 z m 0.548382,4.376087 v 0.542898 h -0.548382 v -0.542898 z m -0.548382,0 v -0.537414 h 0.548382 v 0.537414 z M 38.134449,19.529654 V 18.97853 h 0.551124 v 0.551124 z m 0,4.376087 v -0.537414 h 0.551124 v 0.537414 z m 0,-0.537414 v -0.551124 h 0.551124 v 0.551124 z m 0,-0.551124 v -0.548382 h 0.551124 v 0.548382 z m 0,-0.548382 v -0.551124 h 0.551124 v 0.551124 z m 0,-0.551124 v -0.548381 h 0.551124 v 0.548381 z m 0,-0.548381 v -0.551124 h 0.551124 v 0.551124 z m 0,-0.551124 v -0.551124 h 0.551124 v 0.551124 z m 0,-0.551124 v -0.537414 h 0.551124 v 0.537414 z m 10.416513,3.838673 v 0.542898 h -0.540156 v -0.542898 z m -0.540156,0 v -0.537414 h 0.540156 v 0.537414 z m 0,-0.537414 v -0.551124 h 0.540156 v 0.551124 z m 0,-0.551124 v -0.548382 h 0.540156 v 0.548382 z m 0,-0.548382 v -0.551124 h 0.540156 v 0.551124 z m 0,-0.551124 v -0.548381 h 0.540156 v 0.548381 z m 0,-0.548381 v -0.551124 h 0.540156 v 0.551124 z m 0,-0.551124 v -0.551124 h 0.540156 v 0.551124 z m 0,-0.551124 v -0.537414 h 0.540156 v 0.537414 z M 47.462425,19.529654 V 18.97853 h 0.548381 v 0.551124 z m 0.548381,4.376087 v 0.542898 h -0.548381 v -0.542898 z m -0.548381,0 v -0.537414 h 0.548381 v 0.537414 z m 0,-0.537414 v -0.551124 h 0.548381 v 0.551124 z m 0,-0.551124 v -0.548382 h 0.548381 v 0.548382 z m 0,-0.548382 v -0.551124 h 0.548381 v 0.551124 z m 0,-0.551124 v -0.548381 h 0.548381 v 0.548381 z m 0,-0.548381 v -0.551124 h 0.548381 v 0.551124 z m 0,-0.551124 v -0.551124 h 0.548381 v 0.551124 z m 0,-0.551124 v -0.537414 h 0.548381 v 0.537414 z M 46.911301,19.529654 V 18.97853 h 0.551124 v 0.551124 z m 0.551124,4.376087 v 0.542898 h -0.551124 v -0.542898 z m -0.551124,0 v -0.537414 h 0.551124 v 0.537414 z M 46.362919,19.529654 V 18.97853 h 0.548382 v 0.551124 z m 0.548382,4.376087 v 0.542898 h -0.548382 v -0.542898 z m -0.548382,0 v -0.537414 h 0.548382 v 0.537414 z M 45.811795,19.529654 V 18.97853 h 0.551124 v 0.551124 z m 0,4.376087 v -0.537414 h 0.551124 v 0.537414 z m 0,-0.537414 v -0.551124 h 0.551124 v 0.551124 z m 0,-0.551124 v -0.548382 h 0.551124 v 0.548382 z m 0,-1.647887 v -0.551124 h 0.551124 v 0.551124 z m 0,-0.551124 v -0.551124 h 0.551124 v 0.551124 z m 0,-0.551124 v -0.537414 h 0.551124 v 0.537414 z m 0,3.838673 v 0.542898 h -0.551124 v -0.542898 z m -0.551124,0 v -0.537414 h 0.551124 v 0.537414 z m 0,-0.537414 v -0.551124 h 0.551124 v 0.551124 z m 0,-0.551124 v -0.548382 h 0.551124 v 0.548382 z m 0,-0.548382 v -0.551124 h 0.551124 v 0.551124 z m 0,-1.650629 v -0.551124 h 0.551124 v 0.551124 z m 0,-0.551124 v -0.537414 h 0.551124 v 0.537414 z M 44.723257,19.529654 V 18.97853 h 0.537414 v 0.551124 z m 0.537414,4.376087 v 0.542898 h -0.537414 v -0.542898 z m -0.537414,0 v -0.537414 h 0.537414 v 0.537414 z m 0,-0.537414 v -0.551124 h 0.537414 v 0.551124 z m 0,-0.551124 v -0.548382 h 0.537414 v 0.548382 z m 0,-0.548382 v -0.551124 h 0.537414 v 0.551124 z m 0,-0.551124 v -0.548381 h 0.537414 v 0.548381 z m 0,-1.650629 v -0.537414 h 0.537414 v 0.537414 z M 44.172134,19.529654 V 18.97853 h 0.551123 v 0.551124 z m 0.551123,4.376087 v 0.542898 h -0.551123 v -0.542898 z m -0.551123,0 v -0.537414 h 0.551123 v 0.537414 z M 43.623752,19.529654 V 18.97853 h 0.548382 v 0.551124 z m 0.548382,4.376087 v 0.542898 h -0.548382 v -0.542898 z m -0.548382,0 v -0.537414 h 0.548382 v 0.537414 z M 43.072628,19.529654 V 18.97853 h 0.551124 v 0.551124 z m 0,4.376087 v -0.537414 h 0.551124 v 0.537414 z m 0,-0.537414 v -0.551124 h 0.551124 v 0.551124 z m 0,-0.551124 v -0.548382 h 0.551124 v 0.548382 z m 0,-0.548382 v -0.551124 h 0.551124 v 0.551124 z m 0,-0.551124 v -0.548381 h 0.551124 v 0.548381 z m 0,-0.548381 v -0.551124 h 0.551124 v 0.551124 z m 0,-0.551124 v -0.551124 h 0.551124 v 0.551124 z m 0,-0.551124 v -0.537414 h 0.551124 v 0.537414 z" fill-opacity="1" stroke="none" gorn="0.3.3" font-size="4.49234" fill="#000000" stroke-opacity="1"  id="path45"/>
        <path style="line-height:14.2632px;font-family:Droid Sans;-inkscape-font-specification:Droid Sans;letter-spacing:0px;word-spacing:0px;" stroke-width="0.749999" d="m 28.258092,38.492271 v -0.537414 h 0.540156 v 0.537414 z m 0,-0.537414 v -0.551124 h 0.540156 v 0.551124 z m 0,-0.551124 v -0.548382 h 0.540156 v 0.548382 z m 0,-0.548382 v -0.551124 h 0.540156 v 0.551124 z m 0,-0.551124 v -0.548381 h 0.540156 v 0.548381 z m 0,-0.548381 v -0.551124 h 0.540156 v 0.551124 z m 0,-0.551124 v -0.551124 h 0.540156 v 0.551124 z m 0,3.287549 v 0.542898 H 27.70971 v -0.542898 z m -0.548382,0 v -0.537414 h 0.548382 v 0.537414 z m 0,-0.537414 v -0.551124 h 0.548382 v 0.551124 z m 0,-0.551124 v -0.548382 h 0.548382 v 0.548382 z m 0,-0.548382 v -0.551124 h 0.548382 v 0.551124 z m 0,-0.551124 v -0.548381 h 0.548382 v 0.548381 z m 0,-0.548381 v -0.551124 h 0.548382 v 0.551124 z m 0,-0.551124 v -0.551124 h 0.548382 v 0.551124 z m 0,-0.551124 v -0.537414 h 0.548382 v 0.537414 z M 27.158587,34.116184 V 33.56506 h 0.551123 v 0.551124 z m 0.551123,4.376087 v 0.542898 h -0.551123 v -0.542898 z m -0.551123,0 v -0.537414 h 0.551123 v 0.537414 z m 0,-0.537414 v -0.551124 h 0.551123 v 0.551124 z m 0,-1.65063 v -0.548381 h 0.551123 v 0.548381 z m 0,-1.650629 v -0.537414 h 0.551123 v 0.537414 z M 26.610205,34.116184 V 33.56506 h 0.548382 v 0.551124 z m 0.548382,4.376087 v 0.542898 h -0.548382 v -0.542898 z m -0.548382,0 v -0.537414 h 0.548382 v 0.537414 z M 26.059081,34.116184 V 33.56506 h 0.551124 v 0.551124 z m 0.551124,4.376087 v 0.542898 h -0.551124 v -0.542898 z m -0.551124,0 v -0.537414 h 0.551124 v 0.537414 z m 0,-1.088538 v -0.548382 h 0.551124 v 0.548382 z m 0,-0.548382 v -0.551124 h 0.551124 v 0.551124 z m 0,-1.099505 v -0.551124 h 0.551124 v 0.551124 z m 0,-0.551124 v -0.551124 h 0.551124 v 0.551124 z M 25.507957,34.116184 V 33.56506 h 0.551124 v 0.551124 z m 0.551124,4.376087 v 0.542898 h -0.551124 v -0.542898 z m -0.551124,0 v -0.537414 h 0.551124 v 0.537414 z m 0,-1.088538 v -0.548382 h 0.551124 v 0.548382 z m 0,-0.548382 v -0.551124 h 0.551124 v 0.551124 z m 0,-1.099505 v -0.551124 h 0.551124 v 0.551124 z m 0,-0.551124 v -0.551124 h 0.551124 v 0.551124 z M 24.970543,34.116184 V 33.56506 h 0.537414 v 0.551124 z m 0.537414,4.376087 v 0.542898 h -0.537414 v -0.542898 z m -0.537414,0 v -0.537414 h 0.537414 v 0.537414 z m 0,-1.088538 v -0.548382 h 0.537414 v 0.548382 z m 0,-0.548382 v -0.551124 h 0.537414 v 0.551124 z m 0,-1.099505 v -0.551124 h 0.537414 v 0.551124 z m 0,-0.551124 v -0.551124 h 0.537414 v 0.551124 z M 24.419419,34.116184 V 33.56506 h 0.551124 v 0.551124 z m 0.551124,4.376087 v 0.542898 h -0.551124 v -0.542898 z m -0.551124,0 v -0.537414 h 0.551124 v 0.537414 z M 23.871038,34.116184 V 33.56506 h 0.548381 v 0.551124 z m 0.548381,4.376087 v 0.542898 h -0.548381 v -0.542898 z m -0.548381,0 v -0.537414 h 0.548381 v 0.537414 z M 23.319914,34.116184 V 33.56506 h 0.551124 v 0.551124 z m 0,4.376087 v -0.537414 h 0.551124 v 0.537414 z m 0,-0.537414 v -0.551124 h 0.551124 v 0.551124 z m 0,-0.551124 v -0.548382 h 0.551124 v 0.548382 z m 0,-0.548382 v -0.551124 h 0.551124 v 0.551124 z m 0,-0.551124 v -0.548381 h 0.551124 v 0.548381 z m 0,-0.548381 v -0.551124 h 0.551124 v 0.551124 z m 0,-0.551124 v -0.551124 h 0.551124 v 0.551124 z m 0,-0.551124 v -0.537414 h 0.551124 v 0.537414 z m 9.876357,3.838673 v 0.542898 h -0.548382 v -0.542898 z m -0.548382,0 v -0.537414 h 0.548382 v 0.537414 z m 0,-0.537414 v -0.551124 h 0.548382 v 0.551124 z m 0,0.537414 v 0.542898 h -0.551124 v -0.542898 z m -0.551124,0 v -0.537414 h 0.551124 v 0.537414 z m 0,-0.537414 v -0.551124 h 0.551124 v 0.551124 z m 0,-0.551124 v -0.548382 h 0.551124 v 0.548382 z m 0,1.088538 v 0.542898 h -0.548382 v -0.542898 z m -0.548382,0 v -0.537414 h 0.548382 v 0.537414 z m 0,-1.088538 v -0.548382 h 0.548382 v 0.548382 z m 0,1.088538 v 0.542898 H 30.99726 v -0.542898 z m -0.551123,0 v -0.537414 h 0.551123 v 0.537414 z m 0,-1.088538 v -0.548382 h 0.551123 v 0.548382 z m 0,1.088538 v 0.542898 h -0.551124 v -0.542898 z m -0.551124,0 v -0.537414 h 0.551124 v 0.537414 z m 0,-1.088538 v -0.548382 h 0.551124 v 0.548382 z m 0,-0.548382 v -0.551124 h 0.551124 v 0.551124 z m 0,-0.551124 v -0.548381 h 0.551124 v 0.548381 z m 0,-0.548381 v -0.551124 h 0.551124 v 0.551124 z m 0,-0.551124 v -0.551124 h 0.551124 v 0.551124 z m 0,-0.551124 v -0.537414 h 0.551124 v 0.537414 z M 29.908722,34.116184 V 33.56506 h 0.537414 v 0.551124 z m 0.537414,4.376087 v 0.542898 h -0.537414 v -0.542898 z m -0.537414,0 v -0.537414 h 0.537414 v 0.537414 z m 0,-1.088538 v -0.548382 h 0.537414 v 0.548382 z m 0,-0.548382 v -0.551124 h 0.537414 v 0.551124 z m 0,-0.551124 v -0.548381 h 0.537414 v 0.548381 z m 0,-0.548381 v -0.551124 h 0.537414 v 0.551124 z m 0,-0.551124 v -0.551124 h 0.537414 v 0.551124 z m 0,-0.551124 v -0.537414 h 0.537414 v 0.537414 z M 29.357598,34.116184 V 33.56506 h 0.551124 v 0.551124 z m 0.551124,4.376087 v 0.542898 h -0.551124 v -0.542898 z m -0.551124,0 v -0.537414 h 0.551124 v 0.537414 z M 28.809216,34.116184 V 33.56506 h 0.548382 v 0.551124 z m 0.548382,4.376087 v 0.542898 h -0.548382 v -0.542898 z m -0.548382,0 v -0.537414 h 0.548382 v 0.537414 z M 28.258092,34.116184 V 33.56506 h 0.551124 v 0.551124 z m 0,4.376087 v -0.537414 h 0.551124 v 0.537414 z m 0,-0.537414 v -0.551124 h 0.551124 v 0.551124 z m 0,-0.551124 v -0.548382 h 0.551124 v 0.548382 z m 0,-0.548382 v -0.551124 h 0.551124 v 0.551124 z m 0,-0.551124 v -0.548381 h 0.551124 v 0.548381 z m 0,-0.548381 v -0.551124 h 0.551124 v 0.551124 z m 0,-0.551124 v -0.551124 h 0.551124 v 0.551124 z m 0,-0.551124 v -0.537414 h 0.551124 v 0.537414 z m 9.327975,3.838673 v -0.537414 h 0.540157 v 0.537414 z m 0,-0.537414 v -0.551124 h 0.540157 v 0.551124 z m 0,-0.551124 v -0.548382 h 0.540157 v 0.548382 z m 0,-0.548382 v -0.551124 h 0.540157 v 0.551124 z m 0,-0.551124 v -0.548381 h 0.540157 v 0.548381 z m 0,-0.548381 v -0.551124 h 0.540157 v 0.551124 z m 0,-0.551124 v -0.551124 h 0.540157 v 0.551124 z m 0,-0.551124 v -0.537414 h 0.540157 v 0.537414 z M 37.037686,34.116184 V 33.56506 h 0.548381 v 0.551124 z m 0.548381,4.376087 v 0.542898 h -0.548381 v -0.542898 z m -0.548381,0 v -0.537414 h 0.548381 v 0.537414 z m 0,-0.537414 v -0.551124 h 0.548381 v 0.551124 z m 0,-0.551124 v -0.548382 h 0.548381 v 0.548382 z m 0,-0.548382 v -0.551124 h 0.548381 v 0.551124 z m 0,-0.551124 v -0.548381 h 0.548381 v 0.548381 z m 0,-0.548381 v -0.551124 h 0.548381 v 0.551124 z m 0,-0.551124 v -0.551124 h 0.548381 v 0.551124 z m 0,-0.551124 v -0.537414 h 0.548381 v 0.537414 z M 36.486562,34.116184 V 33.56506 h 0.551124 v 0.551124 z m 0.551124,4.376087 v 0.542898 h -0.551124 v -0.542898 z m -0.551124,0 v -0.537414 h 0.551124 v 0.537414 z m 0,-0.537414 v -0.551124 h 0.551124 v 0.551124 z M 35.93818,34.116184 V 33.56506 h 0.548382 v 0.551124 z m 0.548382,4.376087 v 0.542898 H 35.93818 v -0.542898 z m -0.548382,0 v -0.537414 h 0.548382 v 0.537414 z M 35.387056,34.116184 V 33.56506 h 0.551124 v 0.551124 z m 0.551124,4.376087 v 0.542898 h -0.551124 v -0.542898 z m -0.551124,0 v -0.537414 h 0.551124 v 0.537414 z m 0,-1.088538 v -0.548382 h 0.551124 v 0.548382 z m 0,-0.548382 v -0.551124 h 0.551124 v 0.551124 z m 0,-0.551124 v -0.548381 h 0.551124 v 0.548381 z m 0,-0.548381 v -0.551124 h 0.551124 v 0.551124 z m 0,-0.551124 v -0.551124 h 0.551124 v 0.551124 z m 0,-0.551124 v -0.537414 h 0.551124 v 0.537414 z m 0,3.838673 v 0.542898 h -0.551123 v -0.542898 z m -0.551123,0 v -0.537414 h 0.551123 v 0.537414 z m 0,-1.088538 v -0.548382 h 0.551123 v 0.548382 z m 0,-0.548382 v -0.551124 h 0.551123 v 0.551124 z m 0,-0.551124 v -0.548381 h 0.551123 v 0.548381 z m 0,-0.548381 v -0.551124 h 0.551123 v 0.551124 z m 0,-0.551124 v -0.551124 h 0.551123 v 0.551124 z m 0,-0.551124 v -0.537414 h 0.551123 v 0.537414 z M 34.298518,34.116184 V 33.56506 h 0.537415 v 0.551124 z m 0.537415,4.376087 v 0.542898 h -0.537415 v -0.542898 z m -0.537415,0 v -0.537414 h 0.537415 v 0.537414 z m 0,-1.088538 v -0.548382 h 0.537415 v 0.548382 z m 0,-0.548382 v -0.551124 h 0.537415 v 0.551124 z m 0,-0.551124 v -0.548381 h 0.537415 v 0.548381 z m 0,-0.548381 v -0.551124 h 0.537415 v 0.551124 z m 0,-0.551124 v -0.551124 h 0.537415 v 0.551124 z m 0,-0.551124 v -0.537414 h 0.537415 v 0.537414 z M 33.747395,34.116184 V 33.56506 h 0.551123 v 0.551124 z m 0.551123,4.376087 v 0.542898 h -0.551123 v -0.542898 z m -0.551123,0 v -0.537414 h 0.551123 v 0.537414 z M 33.199013,34.116184 V 33.56506 h 0.548382 v 0.551124 z m 0,4.376087 v -0.537414 h 0.548382 v 0.537414 z m 0,-0.537414 v -0.551124 h 0.548382 v 0.551124 z M 32.647889,34.116184 V 33.56506 h 0.551124 v 0.551124 z m 0,3.838673 v -0.551124 h 0.551124 v 0.551124 z m 0,-0.551124 v -0.548382 h 0.551124 v 0.548382 z m 0,-0.548382 v -0.551124 h 0.551124 v 0.551124 z m 0,-0.551124 v -0.548381 h 0.551124 v 0.548381 z m 0,-0.548381 v -0.551124 h 0.551124 v 0.551124 z m 0,-0.551124 v -0.551124 h 0.551124 v 0.551124 z m 0,-0.551124 v -0.537414 h 0.551124 v 0.537414 z m 10.416513,3.838673 v 0.542898 h -0.540156 v -0.542898 z m -0.540156,0 v -0.537414 h 0.540156 v 0.537414 z m 0,-0.537414 v -0.551124 h 0.540156 v 0.551124 z m 0,-2.199011 v -0.551124 h 0.540156 v 0.551124 z m 0,-0.551124 v -0.551124 h 0.540156 v 0.551124 z m 0,-0.551124 v -0.537414 h 0.540156 v 0.537414 z M 41.975864,34.116184 V 33.56506 h 0.548382 v 0.551124 z m 0.548382,4.376087 v 0.542898 h -0.548382 v -0.542898 z m -0.548382,0 v -0.537414 h 0.548382 v 0.537414 z m 0,-0.537414 v -0.551124 h 0.548382 v 0.551124 z m 0,-0.551124 v -0.548382 h 0.548382 v 0.548382 z m 0,-0.548382 v -0.551124 h 0.548382 v 0.551124 z m 0,-0.551124 v -0.548381 h 0.548382 v 0.548381 z m 0,-0.548381 v -0.551124 h 0.548382 v 0.551124 z m 0,-0.551124 v -0.551124 h 0.548382 v 0.551124 z m 0,-0.551124 v -0.537414 h 0.548382 v 0.537414 z M 41.42474,34.116184 V 33.56506 h 0.551124 v 0.551124 z m 0.551124,4.376087 v 0.542898 H 41.42474 v -0.542898 z m -0.551124,0 v -0.537414 h 0.551124 v 0.537414 z m 0,-1.088538 v -0.548382 h 0.551124 v 0.548382 z m 0,-0.548382 v -0.551124 h 0.551124 v 0.551124 z m 0,-0.551124 v -0.548381 h 0.551124 v 0.548381 z m 0,-0.548381 v -0.551124 h 0.551124 v 0.551124 z m 0,-0.551124 v -0.551124 h 0.551124 v 0.551124 z M 40.876358,34.116184 V 33.56506 h 0.548382 v 0.551124 z m 0.548382,4.376087 v 0.542898 h -0.548382 v -0.542898 z m -0.548382,0 v -0.537414 h 0.548382 v 0.537414 z m 0,-1.088538 v -0.548382 h 0.548382 v 0.548382 z m 0,-0.548382 v -0.551124 h 0.548382 v 0.551124 z m 0,-1.099505 v -0.551124 h 0.548382 v 0.551124 z m 0,-0.551124 v -0.551124 h 0.548382 v 0.551124 z M 40.325234,34.116184 V 33.56506 h 0.551124 v 0.551124 z m 0.551124,4.376087 v 0.542898 h -0.551124 v -0.542898 z m -0.551124,0 v -0.537414 h 0.551124 v 0.537414 z m 0,-1.088538 v -0.548382 h 0.551124 v 0.548382 z m 0,-0.548382 v -0.551124 h 0.551124 v 0.551124 z m 0,-1.099505 v -0.551124 h 0.551124 v 0.551124 z m 0,-0.551124 v -0.551124 h 0.551124 v 0.551124 z M 39.774111,34.116184 V 33.56506 h 0.551123 v 0.551124 z m 0.551123,4.376087 v 0.542898 h -0.551123 v -0.542898 z m -0.551123,0 v -0.537414 h 0.551123 v 0.537414 z m 0,-1.088538 v -0.548382 h 0.551123 v 0.548382 z m 0,-0.548382 v -0.551124 h 0.551123 v 0.551124 z m 0,-1.099505 v -0.551124 h 0.551123 v 0.551124 z m 0,-0.551124 v -0.551124 h 0.551123 v 0.551124 z M 39.236696,34.116184 V 33.56506 h 0.537415 v 0.551124 z m 0.537415,4.376087 v 0.542898 h -0.537415 v -0.542898 z m -0.537415,0 v -0.537414 h 0.537415 v 0.537414 z m 0,-1.088538 v -0.548382 h 0.537415 v 0.548382 z m 0,-0.548382 v -0.551124 h 0.537415 v 0.551124 z m 0,-1.099505 v -0.551124 h 0.537415 v 0.551124 z m 0,-0.551124 v -0.551124 h 0.537415 v 0.551124 z M 38.685573,34.116184 V 33.56506 h 0.551123 v 0.551124 z m 0.551123,4.376087 v 0.542898 h -0.551123 v -0.542898 z m -0.551123,0 v -0.537414 h 0.551123 v 0.537414 z M 38.137191,34.116184 V 33.56506 h 0.548382 v 0.551124 z m 0.548382,4.376087 v 0.542898 h -0.548382 v -0.542898 z m -0.548382,0 v -0.537414 h 0.548382 v 0.537414 z M 37.586067,34.116184 V 33.56506 h 0.551124 v 0.551124 z m 0,4.376087 v -0.537414 h 0.551124 v 0.537414 z m 0,-0.537414 v -0.551124 h 0.551124 v 0.551124 z m 0,-0.551124 v -0.548382 h 0.551124 v 0.548382 z m 0,-0.548382 v -0.551124 h 0.551124 v 0.551124 z m 0,-0.551124 v -0.548381 h 0.551124 v 0.548381 z m 0,-0.548381 v -0.551124 h 0.551124 v 0.551124 z m 0,-0.551124 v -0.551124 h 0.551124 v 0.551124 z m 0,-0.551124 v -0.537414 h 0.551124 v 0.537414 z" fill-opacity="1" stroke="none" gorn="0.3.4" font-size="4.49234" fill="#000000" stroke-opacity="1"  id="path46"/>
        <path style="line-height:14.2632px;font-family:Droid Sans;-inkscape-font-specification:Droid Sans;letter-spacing:0px;word-spacing:0px;" stroke-width="0.749999" d="m 28.258092,53.078801 v -0.537414 h 0.540156 v 0.537414 z m 0,-0.537414 v -0.551124 h 0.540156 v 0.551124 z m 0,-0.551124 v -0.548382 h 0.540156 v 0.548382 z m 0,-0.548382 v -0.551124 h 0.540156 v 0.551124 z m 0,-0.551124 v -0.548381 h 0.540156 v 0.548381 z m 0,-0.548381 v -0.551124 h 0.540156 v 0.551124 z m 0,-0.551124 v -0.551124 h 0.540156 v 0.551124 z m 0,3.287549 v 0.542898 H 27.70971 v -0.542898 z m -0.548382,0 v -0.537414 h 0.548382 v 0.537414 z m 0,-0.537414 v -0.551124 h 0.548382 v 0.551124 z m 0,-0.551124 v -0.548382 h 0.548382 v 0.548382 z m 0,-0.548382 v -0.551124 h 0.548382 v 0.551124 z m 0,-0.551124 v -0.548381 h 0.548382 v 0.548381 z m 0,-0.548381 v -0.551124 h 0.548382 v 0.551124 z m 0,-0.551124 v -0.551124 h 0.548382 v 0.551124 z m 0,-0.551124 v -0.537414 h 0.548382 v 0.537414 z M 27.158587,48.702714 V 48.15159 h 0.551123 v 0.551124 z m 0.551123,4.376087 v 0.542898 h -0.551123 v -0.542898 z m -0.551123,0 v -0.537414 h 0.551123 v 0.537414 z m 0,-0.537414 v -0.551124 h 0.551123 v 0.551124 z m 0,-1.65063 v -0.548381 h 0.551123 v 0.548381 z m 0,-0.548381 v -0.551124 h 0.551123 v 0.551124 z m 0,-1.102248 v -0.537414 h 0.551123 v 0.537414 z M 26.610205,48.702714 V 48.15159 h 0.548382 v 0.551124 z m 0.548382,4.376087 v 0.542898 h -0.548382 v -0.542898 z m -0.548382,0 v -0.537414 h 0.548382 v 0.537414 z m 0,-2.736425 v -0.551124 h 0.548382 v 0.551124 z M 26.059081,48.702714 V 48.15159 h 0.551124 v 0.551124 z m 0.551124,4.376087 v 0.542898 h -0.551124 v -0.542898 z m -0.551124,0 v -0.537414 h 0.551124 v 0.537414 z m 0,-1.088538 v -0.548382 h 0.551124 v 0.548382 z m 0,-0.548382 v -0.551124 h 0.551124 v 0.551124 z m 0,-1.099505 v -0.551124 h 0.551124 v 0.551124 z m 0,-0.551124 v -0.551124 h 0.551124 v 0.551124 z M 25.507957,48.702714 V 48.15159 h 0.551124 v 0.551124 z m 0.551124,4.376087 v 0.542898 h -0.551124 v -0.542898 z m -0.551124,0 v -0.537414 h 0.551124 v 0.537414 z m 0,-1.088538 v -0.548382 h 0.551124 v 0.548382 z m 0,-0.548382 v -0.551124 h 0.551124 v 0.551124 z m 0,-1.099505 v -0.551124 h 0.551124 v 0.551124 z m 0,-0.551124 v -0.551124 h 0.551124 v 0.551124 z M 24.970543,48.702714 V 48.15159 h 0.537414 v 0.551124 z m 0.537414,4.376087 v 0.542898 h -0.537414 v -0.542898 z m -0.537414,0 v -0.537414 h 0.537414 v 0.537414 z m 0,-1.088538 v -0.548382 h 0.537414 v 0.548382 z m 0,-0.548382 v -0.551124 h 0.537414 v 0.551124 z m 0,-1.099505 v -0.551124 h 0.537414 v 0.551124 z m 0,-0.551124 v -0.551124 h 0.537414 v 0.551124 z M 24.419419,48.702714 V 48.15159 h 0.551124 v 0.551124 z m 0.551124,4.376087 v 0.542898 h -0.551124 v -0.542898 z m -0.551124,0 v -0.537414 h 0.551124 v 0.537414 z m 0,-1.63692 v -0.551124 h 0.551124 v 0.551124 z M 23.871038,48.702714 V 48.15159 h 0.548381 v 0.551124 z m 0,4.376087 v -0.537414 h 0.548381 v 0.537414 z m 0,-0.537414 v -0.551124 h 0.548381 v 0.551124 z m 0,-1.099506 v -0.551124 h 0.548381 v 0.551124 z m 0,-0.551124 v -0.548381 h 0.548381 v 0.548381 z m 0,-1.650629 v -0.537414 h 0.548381 v 0.537414 z m -0.551124,3.301259 v -0.551124 h 0.551124 v 0.551124 z m 0,-0.551124 v -0.548382 h 0.551124 v 0.548382 z m 0,-0.548382 v -0.551124 h 0.551124 v 0.551124 z m 0,-0.551124 v -0.548381 h 0.551124 v 0.548381 z m 0,-0.548381 v -0.551124 h 0.551124 v 0.551124 z m 0,-0.551124 v -0.551124 h 0.551124 v 0.551124 z m 0,-0.551124 v -0.537414 h 0.551124 v 0.537414 z m 9.327975,2.201753 v -0.551124 h 0.548382 v 0.551124 z m 0,-0.551124 v -0.548381 h 0.548382 v 0.548381 z m 0,-0.548381 v -0.551124 h 0.548382 v 0.551124 z m 0,-0.551124 v -0.551124 h 0.548382 v 0.551124 z m 0,-0.551124 v -0.537414 h 0.548382 v 0.537414 z M 32.096765,48.702714 V 48.15159 h 0.551124 v 0.551124 z m 0,3.287549 v -0.548382 h 0.551124 v 0.548382 z m 0,-0.548382 v -0.551124 h 0.551124 v 0.551124 z m 0,-0.551124 v -0.548381 h 0.551124 v 0.548381 z m 0,-0.548381 v -0.551124 h 0.551124 v 0.551124 z m 0,-0.551124 v -0.551124 h 0.551124 v 0.551124 z m 0,-0.551124 v -0.537414 h 0.551124 v 0.537414 z M 31.548383,48.702714 V 48.15159 h 0.548382 v 0.551124 z m 0.548382,4.376087 v 0.542898 h -0.548382 v -0.542898 z m -0.548382,0 v -0.537414 h 0.548382 v 0.537414 z m 0,-0.537414 v -0.551124 h 0.548382 v 0.551124 z m 0,-0.551124 v -0.548382 h 0.548382 v 0.548382 z m 0,-0.548382 v -0.551124 h 0.548382 v 0.551124 z m 0,-0.551124 v -0.548381 h 0.548382 v 0.548381 z M 30.99726,48.702714 V 48.15159 h 0.551123 v 0.551124 z m 0.551123,4.376087 v 0.542898 H 30.99726 v -0.542898 z m -0.551123,0 v -0.537414 h 0.551123 v 0.537414 z m 0,-0.537414 v -0.551124 h 0.551123 v 0.551124 z m 0,-0.551124 v -0.548382 h 0.551123 v 0.548382 z m 0,-0.548382 v -0.551124 h 0.551123 v 0.551124 z M 30.446136,48.702714 V 48.15159 h 0.551124 v 0.551124 z m 0.551124,4.376087 v 0.542898 h -0.551124 v -0.542898 z m -0.551124,0 v -0.537414 h 0.551124 v 0.537414 z m 0,-2.736425 v -0.551124 h 0.551124 v 0.551124 z m 0,-0.551124 v -0.551124 h 0.551124 v 0.551124 z m 0,-0.551124 v -0.537414 h 0.551124 v 0.537414 z M 29.908722,48.702714 V 48.15159 h 0.537414 v 0.551124 z m 0.537414,4.376087 v 0.542898 h -0.537414 v -0.542898 z m -0.537414,0 v -0.537414 h 0.537414 v 0.537414 z m 0,-2.736425 v -0.551124 h 0.537414 v 0.551124 z m 0,-0.551124 v -0.551124 h 0.537414 v 0.551124 z m 0,-0.551124 v -0.537414 h 0.537414 v 0.537414 z M 29.357598,48.702714 V 48.15159 h 0.551124 v 0.551124 z m 0,4.376087 v -0.537414 h 0.551124 v 0.537414 z m 0,-0.537414 v -0.551124 h 0.551124 v 0.551124 z m 0,-0.551124 v -0.548382 h 0.551124 v 0.548382 z m 0,-0.548382 v -0.551124 h 0.551124 v 0.551124 z M 28.809216,48.702714 V 48.15159 h 0.548382 v 0.551124 z m 0,2.739167 v -0.551124 h 0.548382 v 0.551124 z m 0,-0.551124 v -0.548381 h 0.548382 v 0.548381 z M 28.258092,48.702714 V 48.15159 h 0.551124 v 0.551124 z m 0,2.188043 v -0.548381 h 0.551124 v 0.548381 z m 0,-0.548381 v -0.551124 h 0.551124 v 0.551124 z m 0,-0.551124 v -0.551124 h 0.551124 v 0.551124 z m 0,-0.551124 v -0.537414 h 0.551124 v 0.537414 z m 9.868132,3.838673 v 0.542898 h -0.540157 v -0.542898 z m -0.540157,0 v -0.537414 h 0.540157 v 0.537414 z m 0,-0.537414 v -0.551124 h 0.540157 v 0.551124 z m 0,-0.551124 v -0.548382 h 0.540157 v 0.548382 z m 0,-0.548382 v -0.551124 h 0.540157 v 0.551124 z m 0,-0.551124 v -0.548381 h 0.540157 v 0.548381 z m 0,-0.548381 v -0.551124 h 0.540157 v 0.551124 z m 0,-0.551124 v -0.551124 h 0.540157 v 0.551124 z m 0,-0.551124 v -0.537414 h 0.540157 v 0.537414 z M 37.037686,48.702714 V 48.15159 h 0.548381 v 0.551124 z m 0.548381,4.376087 v 0.542898 h -0.548381 v -0.542898 z m -0.548381,0 v -0.537414 h 0.548381 v 0.537414 z m 0,-0.537414 v -0.551124 h 0.548381 v 0.551124 z m 0,-0.551124 v -0.548382 h 0.548381 v 0.548382 z m 0,-0.548382 v -0.551124 h 0.548381 v 0.551124 z m 0,-0.551124 v -0.548381 h 0.548381 v 0.548381 z m 0,-0.548381 v -0.551124 h 0.548381 v 0.551124 z m 0,-0.551124 v -0.551124 h 0.548381 v 0.551124 z m 0,-0.551124 v -0.537414 h 0.548381 v 0.537414 z M 36.486562,48.702714 V 48.15159 h 0.551124 v 0.551124 z m 0.551124,4.376087 v 0.542898 h -0.551124 v -0.542898 z m -0.551124,0 v -0.537414 h 0.551124 v 0.537414 z M 35.93818,48.702714 V 48.15159 h 0.548382 v 0.551124 z m 0.548382,4.376087 v 0.542898 H 35.93818 v -0.542898 z m -0.548382,0 v -0.537414 h 0.548382 v 0.537414 z M 35.387056,48.702714 V 48.15159 h 0.551124 v 0.551124 z m 0,4.376087 v -0.537414 h 0.551124 v 0.537414 z m 0,-0.537414 v -0.551124 h 0.551124 v 0.551124 z m 0,-0.551124 v -0.548382 h 0.551124 v 0.548382 z m 0,-1.647887 v -0.551124 h 0.551124 v 0.551124 z m 0,-0.551124 v -0.551124 h 0.551124 v 0.551124 z m 0,-0.551124 v -0.537414 h 0.551124 v 0.537414 z m 0,3.838673 v 0.542898 h -0.551123 v -0.542898 z m -0.551123,0 v -0.537414 h 0.551123 v 0.537414 z m 0,-0.537414 v -0.551124 h 0.551123 v 0.551124 z m 0,-0.551124 v -0.548382 h 0.551123 v 0.548382 z m 0,-0.548382 v -0.551124 h 0.551123 v 0.551124 z m 0,-1.650629 v -0.551124 h 0.551123 v 0.551124 z m 0,-0.551124 v -0.537414 h 0.551123 v 0.537414 z M 34.298518,48.702714 V 48.15159 h 0.537415 v 0.551124 z m 0.537415,4.376087 v 0.542898 h -0.537415 v -0.542898 z m -0.537415,0 v -0.537414 h 0.537415 v 0.537414 z m 0,-0.537414 v -0.551124 h 0.537415 v 0.551124 z m 0,-0.551124 v -0.548382 h 0.537415 v 0.548382 z m 0,-0.548382 v -0.551124 h 0.537415 v 0.551124 z m 0,-0.551124 v -0.548381 h 0.537415 v 0.548381 z m 0,-1.650629 v -0.537414 h 0.537415 v 0.537414 z M 33.747395,48.702714 V 48.15159 h 0.551123 v 0.551124 z m 0.551123,4.376087 v 0.542898 h -0.551123 v -0.542898 z m -0.551123,0 v -0.537414 h 0.551123 v 0.537414 z M 33.199013,48.702714 V 48.15159 h 0.548382 v 0.551124 z m 0.548382,4.376087 v 0.542898 h -0.548382 v -0.542898 z m -0.548382,0 v -0.537414 h 0.548382 v 0.537414 z M 32.647889,48.702714 V 48.15159 h 0.551124 v 0.551124 z m 0,4.376087 v -0.537414 h 0.551124 v 0.537414 z m 0,-0.537414 v -0.551124 h 0.551124 v 0.551124 z m 0,-0.551124 v -0.548382 h 0.551124 v 0.548382 z m 0,-0.548382 v -0.551124 h 0.551124 v 0.551124 z m 0,-0.551124 v -0.548381 h 0.551124 v 0.548381 z m 0,-0.548381 v -0.551124 h 0.551124 v 0.551124 z m 0,-0.551124 v -0.551124 h 0.551124 v 0.551124 z m 0,-0.551124 v -0.537414 h 0.551124 v 0.537414 z m 9.876357,3.838673 v -0.537414 h 0.540156 v 0.537414 z m 0,-0.537414 v -0.551124 h 0.540156 v 0.551124 z m 0,-0.551124 v -0.548382 h 0.540156 v 0.548382 z m 0,-1.099506 v -0.548381 h 0.540156 v 0.548381 z m 0,-0.548381 v -0.551124 h 0.540156 v 0.551124 z m 0,-0.551124 v -0.551124 h 0.540156 v 0.551124 z m 0,3.287549 v 0.542898 h -0.548382 v -0.542898 z m -0.548382,0 v -0.537414 h 0.548382 v 0.537414 z m 0,-0.537414 v -0.551124 h 0.548382 v 0.551124 z m 0,-0.551124 v -0.548382 h 0.548382 v 0.548382 z m 0,-0.548382 v -0.551124 h 0.548382 v 0.551124 z m 0,-0.551124 v -0.548381 h 0.548382 v 0.548381 z m 0,-0.548381 v -0.551124 h 0.548382 v 0.551124 z m 0,-0.551124 v -0.551124 h 0.548382 v 0.551124 z m 0,-0.551124 v -0.537414 h 0.548382 v 0.537414 z M 41.42474,48.702714 V 48.15159 h 0.551124 v 0.551124 z m 0.551124,4.376087 v 0.542898 H 41.42474 v -0.542898 z m -0.551124,0 v -0.537414 h 0.551124 v 0.537414 z m 0,-0.537414 v -0.551124 h 0.551124 v 0.551124 z m 0,-1.099506 v -0.551124 h 0.551124 v 0.551124 z m 0,-0.551124 v -0.548381 h 0.551124 v 0.548381 z m 0,-0.548381 v -0.551124 h 0.551124 v 0.551124 z m 0,-1.102248 v -0.537414 h 0.551124 v 0.537414 z M 40.876358,48.702714 V 48.15159 h 0.548382 v 0.551124 z m 0.548382,4.376087 v 0.542898 h -0.548382 v -0.542898 z m -0.548382,0 v -0.537414 h 0.548382 v 0.537414 z m 0,-1.63692 v -0.551124 h 0.548382 v 0.551124 z m 0,-0.551124 v -0.548381 h 0.548382 v 0.548381 z m 0,-0.548381 v -0.551124 h 0.548382 v 0.551124 z M 40.325234,48.702714 V 48.15159 h 0.551124 v 0.551124 z m 0.551124,4.376087 v 0.542898 h -0.551124 v -0.542898 z m -0.551124,0 v -0.537414 h 0.551124 v 0.537414 z m 0,-1.088538 v -0.548382 h 0.551124 v 0.548382 z m 0,-0.548382 v -0.551124 h 0.551124 v 0.551124 z m 0,-0.551124 v -0.548381 h 0.551124 v 0.548381 z m 0,-0.548381 v -0.551124 h 0.551124 v 0.551124 z m 0,-0.551124 v -0.551124 h 0.551124 v 0.551124 z M 39.774111,48.702714 V 48.15159 h 0.551123 v 0.551124 z m 0.551123,4.376087 v 0.542898 h -0.551123 v -0.542898 z m -0.551123,0 v -0.537414 h 0.551123 v 0.537414 z m 0,-1.088538 v -0.548382 h 0.551123 v 0.548382 z m 0,-0.548382 v -0.551124 h 0.551123 v 0.551124 z m 0,-0.551124 v -0.548381 h 0.551123 v 0.548381 z m 0,-0.548381 v -0.551124 h 0.551123 v 0.551124 z m 0,-0.551124 v -0.551124 h 0.551123 v 0.551124 z M 39.236696,48.702714 V 48.15159 h 0.537415 v 0.551124 z m 0.537415,4.376087 v 0.542898 h -0.537415 v -0.542898 z m -0.537415,0 v -0.537414 h 0.537415 v 0.537414 z m 0,-1.088538 v -0.548382 h 0.537415 v 0.548382 z m 0,-0.548382 v -0.551124 h 0.537415 v 0.551124 z m 0,-0.551124 v -0.548381 h 0.537415 v 0.548381 z m 0,-0.548381 v -0.551124 h 0.537415 v 0.551124 z m 0,-0.551124 v -0.551124 h 0.537415 v 0.551124 z M 38.685573,48.702714 V 48.15159 h 0.551123 v 0.551124 z m 0.551123,4.376087 v 0.542898 h -0.551123 v -0.542898 z m -0.551123,0 v -0.537414 h 0.551123 v 0.537414 z M 38.137191,48.702714 V 48.15159 h 0.548382 v 0.551124 z m 0,4.376087 v -0.537414 h 0.548382 v 0.537414 z m 0,-0.537414 v -0.551124 h 0.548382 v 0.551124 z m 0,-3.301259 v -0.537414 h 0.548382 v 0.537414 z m -0.551124,3.301259 v -0.551124 h 0.551124 v 0.551124 z m 0,-0.551124 v -0.548382 h 0.551124 v 0.548382 z m 0,-0.548382 v -0.551124 h 0.551124 v 0.551124 z m 0,-0.551124 v -0.548381 h 0.551124 v 0.548381 z m 0,-0.548381 v -0.551124 h 0.551124 v 0.551124 z m 0,-0.551124 v -0.551124 h 0.551124 v 0.551124 z m 0,-0.551124 v -0.537414 h 0.551124 v 0.537414 z" fill-opacity="1" stroke="none" gorn="0.3.5" font-size="4.49234" fill="#000000" stroke-opacity="1"  id="path47"/>
    </g>
</svg>
