<?xml version='1.0' encoding='UTF-8' standalone='no'?>
<svg xmlns="http://www.w3.org/2000/svg" height="14.3762mm" version="1.0" fill-rule="evenodd" gorn="0" viewBox="0 0 1307.62 1437.62" clip-rule="evenodd" width="13.0762mm" xml:space="preserve" image-rendering="optimizeQuality" id="svg1727" xmlns:xml="http://www.w3.org/XML/1998/namespace" shape-rendering="geometricPrecision"  text-rendering="geometricPrecision">
    <desc >
        <referenceFile >audio-pcb.svg</referenceFile>
    </desc>
    <defs id="defs1731" />
    <g style="display:inline" gorn="0.2" id="silkscreen" >
        <g gorn="0.2.0" id="silkscreen0" >
            <g transform="translate(0.01999998,1.7838868e-5)" >
                <g >
                    <g style="clip-rule:evenodd;fill-rule:evenodd;image-rendering:optimizeQuality;shape-rendering:geometricPrecision;text-rendering:geometricPrecision" gorn="0.2.0.0.0.0" id="g3408" >
                        <g gorn="0.2.0.0.0.0.0" id="Layer_x0020_1" >
                            <metadata id="CorelCorpID_0Corel-Layer" />
                            <rect style="stroke-miterlimit:2.61313009" height="1430" stroke-miterlimit="2.61313" gorn="0.2.0.0.0.0.0.1" x="3.79" width="1300" id="rect3391" y="3.8099999" stroke="#000000" stroke-width="7.61999989" fill="none" />
                            <path style="stroke-miterlimit:2.61313009" stroke-miterlimit="2.61313" gorn="0.2.0.0.0.0.0.2" id="path3393" stroke="#000000" stroke-width="7.61999989" d="m 503.81,3.81 h 300 v 15 c 55.24,0 100,44.77 100,100 0,55.23 -44.76,100 -100,100 55.24,0 100,44.77 100,100 0,55.23 -44.76,100 -100,100 55.24,0 100,44.77 100,100 0,55.23 -44.76,100 -100,100 55.24,0 100,44.77 100,100 0,55.23 -44.76,100 -100,100 55.24,0 100,44.77 100,100 0,55.23 -44.76,100 -100,100 55.24,0 100,44.77 100,100 0,55.23 -44.76,100 -100,100 55.24,0 100,44.77 100,100 0,55.23 -44.76,100 -100,100 v 15 h -300 v -15 c -55.24,0 -100,-44.77 -100,-100 0,-55.23 44.76,-100 100,-100 -55.24,0 -100,-44.77 -100,-100 0,-55.23 44.76,-100 100,-100 -55.24,0 -100,-44.77 -100,-100 0,-55.23 44.76,-100 100,-100 -55.24,0 -100,-44.77 -100,-100 0,-55.23 44.76,-100 100,-100 -55.24,0 -100,-44.77 -100,-100 0,-55.23 44.76,-100 100,-100 -55.24,0 -100,-44.77 -100,-100 0,-55.23 44.76,-100 100,-100 -55.24,0 -100,-44.78 -100,-100 0,-55.22 44.76,-100 100,-100 z" fill="none" />
                        </g>
                    </g>
                </g>
            </g>
        </g>
    </g>
    <g style="display:inline" gorn="0.3" id="copper0" >
        <g gorn="0.3.0" id="copper1" >
            <path style="display:inline;stroke-miterlimit:2.61313009" stroke-miterlimit="2.61313" gorn="0.3.0.0" id="connector0pin" stroke="#ff9400" stroke-width="43.17998886" d="m 303.79455,581.6874 c 0,-39.98 -32.40999,-72.38999 -72.38999,-72.38999 -39.97999,0 -72.38998,32.40999 -72.38998,72.38999 0,39.97999 32.40999,72.38998 72.38998,72.38998 39.98,0 72.38999,-32.40999 72.38999,-72.38998 z" fill="none" />
            <path style="display:inline;stroke-miterlimit:2.61313009" stroke-miterlimit="2.61313" gorn="0.3.0.1" id="connector1pin" stroke="#ff9400" stroke-width="43.17998886" d="m 1148.5944,581.6874 c 0,-39.98 -32.4101,-72.38999 -72.39,-72.38999 -39.98,0 -72.39,32.40999 -72.39,72.38999 0,39.97999 32.41,72.38998 72.39,72.38998 39.9799,0 72.39,-32.40999 72.39,-72.38998 z" fill="none" />
            <path style="display:inline;stroke-miterlimit:2.61313009" stroke-miterlimit="2.61313" gorn="0.3.0.2" id="connector2pin" stroke="#ff9400" stroke-width="43.17998886" d="m 1148.5944,866.8873 c 0,-39.97994 -32.4101,-72.38995 -72.39,-72.38995 -39.98,0 -72.39,32.41001 -72.39,72.38995 0,39.98 32.41,72.39 72.39,72.39 39.9799,0 72.39,-32.41 72.39,-72.39 z" fill="none" />
            <path style="display:inline;stroke-miterlimit:2.61313009" stroke-miterlimit="2.61313" gorn="0.3.0.3" id="connector3pin" stroke="#ff9400" stroke-width="43.17998886" d="m 303.79455,866.8873 c 0,-39.97994 -32.40999,-72.38995 -72.38999,-72.38995 -39.97999,0 -72.38998,32.41001 -72.38998,72.38995 0,39.98 32.40999,72.39 72.38998,72.39 39.98,0 72.38999,-32.41 72.38999,-72.39 z" fill="none" />
        </g>
    </g>
    <metadata id="metadata2399" >
        <rdf:RDF xmlns:rdf="http://www.w3.org/1999/02/22-rdf-syntax-ns#">
            <cc:Work rdf:about="" xmlns:cc="http://creativecommons.org/ns#" xmlns:rdf="http://www.w3.org/1999/02/22-rdf-syntax-ns#">
                <dc:title xmlns:dc="http://purl.org/dc/elements/1.1/"/>
            </cc:Work>
        </rdf:RDF>
    </metadata>
</svg>
