<?xml version='1.0' encoding='UTF-8' standalone='no'?>
<!-- Created with Fritzing (https://fritzing.org/) -->
<svg xmlns="http://www.w3.org/2000/svg" gorn="0" height="30.733999mm" x="0in" version="1.2" viewBox="0 0 51.119999 87.119995" y="0in" id="svg29"  width="18.034mm">
    <desc >
        <referenceFile >6116.svg</referenceFile>
    </desc>
    <defs id="defs29" />
    <g transform="matrix(0.99997855,0,0,0.99997855,-0.35936729,-0.35936729)" >
        <g >
            <g gorn="0.2.0.0" id="silkscreen" >
                <path fill-opacity="1" gorn="0.2.0.0.0" style="color:#000000;-inkscape-" stroke-opacity="1" stroke="none" fill="#000000" d="M 0.359375,0.72070312 V 87.119141 H 1.0800781 V 0.72070312 Z" id="path47" />
                <path fill-opacity="1" gorn="0.2.0.0.1" style="color:#000000;-inkscape-" stroke-opacity="1" stroke="none" fill="#000000" d="m 0.72070312,86.759766 v 0.720703 H 51.119141 v -0.720703 z" id="path45" />
                <path fill-opacity="1" gorn="0.2.0.0.2" style="color:#000000;-inkscape-" stroke-opacity="1" stroke="none" fill="#000000" d="M 50.759766,0.72070312 V 87.119141 h 0.720703 V 0.72070312 Z" id="path43" />
                <path fill-opacity="1" gorn="0.2.0.0.3" style="color:#000000;-inkscape-" stroke-opacity="1" stroke="none" fill="#000000" d="M 0.72070312,0.359375 V 1.0800781 H 22.320312 V 0.359375 Z" id="path41" />
                <path fill-opacity="1" gorn="0.2.0.0.4" style="color:#000000;-inkscape-" stroke-opacity="1" stroke="none" fill="#000000" d="m 29.519531,0.359375 v 0.7207031 h 21.59961 V 0.359375 Z" id="path39" />
                <g fill-opacity="1" gorn="0.2.0.0.5" style="line-height:7.2px;font-family:Droid Sans;-inkscape-font-specification:Droid Sans;letter-spacing:0px;word-spacing:0px;" font-size="2.26772" aria-label="A7A6A5A4A3A2A1A0D0D1D2GND" stroke-opacity="1" stroke="none" fill="#000000" stroke-width="0.75" id="text47" >
                    <path fill-opacity="1" gorn="0.2.0.0.5.0" stroke-opacity="1" stroke="none" fill="#000000" d="M 7.8726091,3.5130685 7.5777944,4.5705258 H 8.1674238 Z M 7.7037481,3.2666976 H 8.0428542 L 8.6753908,5.3331685 H 8.3861126 L 8.2338609,4.7947511 H 7.5099732 L 7.3604897,5.3331685 H 7.0712114 Z m 1.2152455,0 H 10.220054 V 3.3857307 L 9.4809408,5.3331685 H 9.1888944 L 9.9086297,3.5019957 H 8.9189936 Z" id="path73" />
                    <path fill-opacity="1" gorn="0.2.0.0.5.1" stroke-opacity="1" stroke="none" fill="#000000" d="m 7.8726091,10.713068 -0.2948147,1.057457 h 0.5896294 z m -0.168861,-0.246371 h 0.3391061 l 0.6325366,2.066471 H 8.3861126 L 8.2338609,11.994751 H 7.5099732 L 7.3604897,12.533168 H 7.0712114 Z m 2.3945039,0.04568 v 0.257443 q -0.0872,-0.05121 -0.18547,-0.07751 -0.098271,-0.02768 -0.2048477,-0.02768 -0.2657485,0 -0.402775,0.200696 -0.1370265,0.199311 -0.1370265,0.588245 0.066437,-0.138411 0.1840861,-0.211768 0.1176491,-0.07474 0.2699008,-0.07474 0.298967,0 0.4622913,0.184086 0.164709,0.182702 0.164709,0.51904 0,0.334954 -0.168861,0.51904 -0.1688611,0.184086 -0.4747486,0.184086 -0.3598677,0 -0.5273446,-0.257444 -0.1674768,-0.258828 -0.1674768,-0.813854 0,-0.523193 0.2006954,-0.797246 0.2020795,-0.275437 0.5840929,-0.275437 0.1024239,0 0.2048478,0.02215 0.1024239,0.02076 0.1979269,0.0609 z m -0.498278,0.873371 q -0.1785498,0 -0.2809736,0.128722 -0.1024239,0.128722 -0.1024239,0.355715 0,0.226993 0.1024239,0.355715 0.1024238,0.128722 0.2809736,0.128722 0.1854702,0 0.2795895,-0.121801 0.094119,-0.123186 0.094119,-0.362636 0,-0.240835 -0.094119,-0.362636 -0.094119,-0.121801 -0.2795895,-0.121801 z" id="path74" />
                    <path fill-opacity="1" gorn="0.2.0.0.5.2" stroke-opacity="1" stroke="none" fill="#000000" d="m 7.8726091,17.913068 -0.2948147,1.057457 h 0.5896294 z m -0.168861,-0.246371 h 0.3391061 l 0.6325366,2.066471 H 8.3861126 L 8.2338609,19.19475 H 7.5099732 L 7.3604897,19.733168 H 7.0712114 Z m 1.3093647,0 h 1.0463842 v 0.235298 H 9.2677884 v 0.507967 q 0.059517,-0.02215 0.1190332,-0.03184 0.060901,-0.01107 0.1218013,-0.01107 0.3211127,0 0.5093511,0.189623 0.188239,0.189623 0.188239,0.513504 0,0.326649 -0.197928,0.514887 -0.1965427,0.188239 -0.538417,0.188239 -0.1647087,0 -0.3017352,-0.02215 -0.1356425,-0.02215 -0.2436028,-0.06644 v -0.283742 q 0.1273378,0.06921 0.2560597,0.103808 0.1287219,0.03322 0.2629802,0.03322 0.2311458,0 0.3557154,-0.121802 0.1259537,-0.121801 0.1259537,-0.346026 0,-0.221458 -0.130106,-0.344643 -0.1287219,-0.123185 -0.3598677,-0.123185 -0.1121126,0 -0.2186888,0.0263 -0.1065762,0.02491 -0.2034637,0.07612 z" id="path75" />
                    <path fill-opacity="1" gorn="0.2.0.0.5.3" stroke-opacity="1" stroke="none" fill="#000000" d="m 7.8726091,25.113067 -0.2948147,1.057457 h 0.5896294 z m -0.168861,-0.246371 h 0.3391061 l 0.6325366,2.066471 H 8.3861126 L 8.2338609,26.39475 H 7.5099732 L 7.3604897,26.933167 H 7.0712114 Z m 2.0401729,0.254676 -0.6519141,1.09206 H 9.743921 Z M 9.698246,24.866696 h 0.323881 v 1.346736 h 0.275438 v 0.226993 h -0.275438 v 0.492742 H 9.743921 V 26.440425 H 8.8677817 v -0.264364 z" id="path76" />
                    <path fill-opacity="1" gorn="0.2.0.0.5.4" stroke-opacity="1" stroke="none" fill="#000000" d="m 7.8726091,32.313067 -0.2948147,1.057457 h 0.5896294 z m -0.168861,-0.246371 h 0.3391061 l 0.6325366,2.066471 H 8.3861126 L 8.2338609,33.594749 H 7.5099732 L 7.3604897,34.133167 H 7.0712114 Z m 2.0969213,0.960569 q 0.2034636,0.05398 0.3114236,0.192391 0.107961,0.137027 0.107961,0.343259 0,0.285126 -0.192391,0.44845 -0.1910068,0.161941 -0.5301129,0.161941 -0.142563,0 -0.2906624,-0.0263 -0.1480994,-0.0263 -0.2906623,-0.07613 V 33.79267 q 0.1411788,0.07336 0.2782054,0.109345 0.1370265,0.03599 0.272669,0.03599 0.2297616,0 0.3529471,-0.103808 0.1231855,-0.103808 0.1231855,-0.298967 0,-0.179934 -0.1231855,-0.285126 Q 9.6968614,33.14353 9.4864772,33.14353 H 9.2733248 v -0.229761 h 0.2131524 q 0.1923908,0 0.3003511,-0.08443 0.1079603,-0.08443 0.1079603,-0.235298 0,-0.159172 -0.1010397,-0.243603 -0.099656,-0.08581 -0.285126,-0.08581 -0.1231854,0 -0.2546755,0.02768 -0.1314902,0.02768 -0.2754372,0.08305 v -0.257443 q 0.1674769,-0.04429 0.2975829,-0.06644 0.1314901,-0.02215 0.2325298,-0.02215 0.3017353,0 0.4816691,0.152251 0.181318,0.150868 0.181318,0.401391 0,0.170245 -0.0955,0.283742 -0.09412,0.113497 -0.2754376,0.160556 z" id="path77" />
                    <path fill-opacity="1" gorn="0.2.0.0.5.5" stroke-opacity="1" stroke="none" fill="#000000" d="m 7.8726091,39.513066 -0.2948147,1.057457 h 0.5896294 z m -0.168861,-0.246371 h 0.3391061 l 0.6325366,2.066471 H 8.3861126 L 8.2338609,40.794749 H 7.5099732 L 7.3604897,41.333166 H 7.0712114 Z m 1.5391264,1.831173 h 0.9494975 v 0.235298 H 8.936987 v -0.235298 q 0.2588279,-0.272669 0.4526028,-0.481669 0.1937749,-0.209 0.2671325,-0.294815 0.1384107,-0.168861 0.1868544,-0.272669 0.048444,-0.105192 0.048444,-0.214536 0,-0.173014 -0.1024238,-0.271285 -0.1010398,-0.09827 -0.2782054,-0.09827 -0.1259537,0 -0.2643644,0.04568 -0.1384106,0.04568 -0.2934305,0.13841 v -0.282357 q 0.1425629,-0.06782 0.2795895,-0.102424 0.1384106,-0.0346 0.2726689,-0.0346 0.3031193,0 0.4872055,0.161941 0.1854695,0.160556 0.1854695,0.422152 0,0.132874 -0.06228,0.265749 -0.0609,0.132874 -0.1993113,0.29343 -0.07751,0.08997 -0.2256094,0.249139 -0.1467153,0.159173 -0.4484505,0.476133 z" id="path78" />
                    <path fill-opacity="1" gorn="0.2.0.0.5.6" stroke-opacity="1" stroke="none" fill="#000000" d="m 7.8726091,46.713066 -0.2948147,1.057457 h 0.5896294 z m -0.168861,-0.246371 h 0.3391061 l 0.6325366,2.066471 H 8.3861126 L 8.2338609,47.994748 H 7.5099732 L 7.3604897,48.533166 H 7.0712114 Z m 1.3965634,1.831172 H 9.534921 v -1.579265 l -0.467828,0.105192 v -0.254676 l 0.4650598,-0.102423 h 0.2795895 v 1.831172 h 0.4290727 v 0.235299 H 9.1003115 Z" id="path79" />
                    <path fill-opacity="1" gorn="0.2.0.0.5.7" stroke-opacity="1" stroke="none" fill="#000000" d="m 7.8726091,53.913065 -0.2948147,1.057457 h 0.5896294 z m -0.168861,-0.246371 h 0.3391061 l 0.6325366,2.066471 H 8.3861126 L 8.2338609,55.194748 H 7.5099732 L 7.3604897,55.733165 H 7.0712114 Z m 1.6913781,1.028391 q 0,-0.07613 0.052596,-0.13149 0.05398,-0.05536 0.1287219,-0.05536 0.07751,0 0.1328742,0.05536 0.055364,0.05536 0.055364,0.13149 0,0.07751 -0.055364,0.13149 -0.05398,0.05398 -0.1328742,0.05398 -0.07751,0 -0.130106,-0.0526 -0.051212,-0.0526 -0.051212,-0.132874 z M 9.5792124,53.85078 q -0.195159,0 -0.2920465,0.210384 -0.095503,0.210385 -0.095503,0.640842 0,0.429073 0.095503,0.639457 0.096888,0.210384 0.2920465,0.210384 0.1965431,0 0.2920464,-0.210384 0.096888,-0.210384 0.096888,-0.639457 0,-0.430457 -0.096888,-0.640842 Q 9.7757555,53.85078 9.5792124,53.85078 Z m 0,-0.221457 q 0.3308014,0 0.4996626,0.271285 0.170245,0.271285 0.170245,0.801398 0,0.528728 -0.170245,0.800013 -0.1688612,0.271285 -0.4996626,0.271285 -0.3308015,0 -0.4996625,-0.271285 -0.1688609,-0.271285 -0.1688609,-0.800013 0,-0.530113 0.1688609,-0.801398 0.168861,-0.271285 0.4996625,-0.271285 z" id="path80" />
                    <path fill-opacity="1" gorn="0.2.0.0.5.8" stroke-opacity="1" stroke="none" fill="#000000" d="m 7.6234699,62.703403 q 0.3529472,0 0.4927419,-0.173013 0.1397948,-0.174398 0.1397948,-0.628385 0,-0.458139 -0.1397948,-0.631152 Q 7.9778012,61.096455 7.6234699,61.096455 H 7.4905957 v 1.606948 z m 0.00554,-1.836709 q 0.4733645,0 0.6975897,0.251907 0.2242253,0.251907 0.2242253,0.783404 0,0.528729 -0.2242253,0.780636 -0.2242252,0.250524 -0.6975897,0.250524 H 7.2096221 v -2.066471 z m 1.7661199,1.028391 q 0,-0.07613 0.052596,-0.13149 0.05398,-0.05537 0.1287219,-0.05537 0.07751,0 0.1328742,0.05537 0.055364,0.05536 0.055364,0.13149 0,0.07751 -0.055364,0.13149 -0.05398,0.05398 -0.1328742,0.05398 -0.07751,0 -0.130106,-0.0526 -0.051212,-0.0526 -0.051212,-0.132874 z M 9.5792124,61.05078 q -0.195159,0 -0.2920465,0.210384 -0.095503,0.210384 -0.095503,0.640841 0,0.429073 0.095503,0.639457 0.096888,0.210385 0.2920465,0.210385 0.1965431,0 0.2920464,-0.210385 0.096888,-0.210384 0.096888,-0.639457 0,-0.430457 -0.096888,-0.640841 Q 9.7757555,61.05078 9.5792124,61.05078 Z m 0,-0.221457 q 0.3308014,0 0.4996626,0.271285 0.170245,0.271284 0.170245,0.801397 0,0.528729 -0.170245,0.800014 -0.1688612,0.271285 -0.4996626,0.271285 -0.3308015,0 -0.4996625,-0.271285 -0.1688609,-0.271285 -0.1688609,-0.800014 0,-0.530113 0.1688609,-0.801397 0.168861,-0.271285 0.4996625,-0.271285 z" id="path81" />
                    <path fill-opacity="1" gorn="0.2.0.0.5.9" stroke-opacity="1" stroke="none" fill="#000000" d="m 7.6234699,69.903402 q 0.3529472,0 0.4927419,-0.173013 0.1397948,-0.174397 0.1397948,-0.628384 0,-0.45814 -0.1397948,-0.631153 Q 7.9778012,68.296455 7.6234699,68.296455 H 7.4905957 v 1.606947 z m 0.00554,-1.836709 q 0.4733645,0 0.6975897,0.251907 0.2242253,0.251908 0.2242253,0.783405 0,0.528728 -0.2242253,0.780636 -0.2242252,0.250523 -0.6975897,0.250523 H 7.2096221 v -2.066471 z m 1.4713052,1.831173 H 9.534921 V 68.3186 l -0.467828,0.105193 v -0.254676 l 0.4650598,-0.102424 h 0.2795895 v 1.831173 h 0.4290727 v 0.235298 H 9.1003115 Z" id="path82" />
                    <path fill-opacity="1" gorn="0.2.0.0.5.10" stroke-opacity="1" stroke="none" fill="#000000" d="m 7.6234699,77.103402 q 0.3529472,0 0.4927419,-0.173013 0.1397948,-0.174398 0.1397948,-0.628385 0,-0.458139 -0.1397948,-0.631152 Q 7.9778012,75.496454 7.6234699,75.496454 H 7.4905957 v 1.606948 z m 0.00554,-1.836709 q 0.4733645,0 0.6975897,0.251907 0.2242253,0.251907 0.2242253,0.783404 0,0.528729 -0.2242253,0.780636 -0.2242252,0.250524 -0.6975897,0.250524 H 7.2096221 v -2.066471 z m 1.6138682,1.831172 h 0.9494979 v 0.235299 H 8.936987 v -0.235299 q 0.2588279,-0.272669 0.4526028,-0.481669 0.1937749,-0.209 0.2671325,-0.294814 0.1384107,-0.168861 0.1868544,-0.272669 0.048444,-0.105192 0.048444,-0.214537 0,-0.173013 -0.1024238,-0.271285 -0.1010398,-0.09827 -0.2782054,-0.09827 -0.1259537,0 -0.2643644,0.04568 -0.1384106,0.04568 -0.2934305,0.138411 v -0.282358 q 0.1425629,-0.06782 0.2795895,-0.102424 0.1384106,-0.0346 0.2726689,-0.0346 0.3031193,0 0.4872055,0.16194 0.1854695,0.160557 0.1854695,0.422153 0,0.132874 -0.06228,0.265748 -0.0609,0.132874 -0.1993113,0.293431 -0.07751,0.08997 -0.2256094,0.249139 -0.1467153,0.159172 -0.4484505,0.476132 z" id="path83" />
                    <path fill-opacity="1" gorn="0.2.0.0.5.11" stroke-opacity="1" stroke="none" fill="#000000" d="m 8.548053,84.362918 q -0.1121126,0.103808 -0.2532914,0.157788 -0.1397948,0.0526 -0.3031194,0.0526 -0.3930862,0 -0.611775,-0.280973 -0.2186888,-0.282358 -0.2186888,-0.790325 0,-0.506583 0.221457,-0.788941 0.221457,-0.283742 0.6159274,-0.283742 0.130106,0 0.2491391,0.03737 0.1190332,0.03599 0.2297617,0.110729 v 0.28651 q -0.1121126,-0.10658 -0.2297617,-0.156407 -0.117649,-0.05121 -0.2491391,-0.05121 -0.272669,0 -0.4096955,0.211768 -0.1356425,0.210384 -0.1356425,0.633921 0,0.430457 0.1314901,0.638073 0.1328743,0.206232 0.4069273,0.206232 0.092735,0 0.1619405,-0.02076 0.070589,-0.02215 0.1273378,-0.06782 V 83.702699 H 7.9805694 V 83.472937 H 8.548053 Z m 0.3709406,-1.896226 h 0.3543312 l 0.6975897,1.701067 v -1.701067 h 0.2699005 v 2.066471 H 9.886484 L 9.1888944,82.832096 v 1.701067 H 8.9189936 Z m 2.1176824,1.836709 q 0.352948,0 0.492742,-0.173013 0.139795,-0.174397 0.139795,-0.628384 0,-0.45814 -0.139795,-0.631153 -0.13841,-0.174397 -0.492742,-0.174397 h -0.132874 v 1.606947 z m 0.0055,-1.836709 q 0.473364,0 0.69759,0.251907 0.224225,0.251908 0.224225,0.783405 0,0.528728 -0.224225,0.780636 -0.224226,0.250523 -0.69759,0.250523 h -0.419384 v -2.066471 z" id="path84" />
                </g>
                <g fill-opacity="1" gorn="0.2.0.0.6" style="line-height:7.2px;font-family:Droid Sans;-inkscape-font-specification:Droid Sans;letter-spacing:0px;word-spacing:0px;" font-size="2.26772" aria-label="VccA8A9WE#OE#A10CS#D7D6D5D4D3" stroke-opacity="1" stroke="none" fill="#000000" stroke-width="0.75" id="text61" >
                    <path fill-opacity="1" gorn="0.2.0.0.6.0" style="text-align:end;text-anchor:end;" stroke-opacity="1" stroke="none" fill="#000000" d="M 40.565789,5.0978704 41.05161,3.2666976 h 0.289278 L 40.736034,5.3331685 H 40.396928 L 39.792073,3.2666976 h 0.289278 z m 2.32253,0.156404 q -0.102424,0.059517 -0.211768,0.088583 -0.10796,0.03045 -0.221457,0.03045 -0.359868,0 -0.563331,-0.2159206 -0.20208,-0.2159206 -0.20208,-0.597934 0,-0.3820134 0.20208,-0.597934 0.203463,-0.2159206 0.563331,-0.2159206 0.112112,0 0.218689,0.029066 0.106576,0.029066 0.214536,0.089967 v 0.2671326 q -0.10104,-0.089967 -0.203463,-0.130106 -0.10104,-0.040139 -0.229762,-0.040139 -0.239451,0 -0.368172,0.1550199 Q 41.9582,4.2715588 41.9582,4.559453 q 0,0.28651 0.128722,0.4429141 0.130106,0.1550199 0.368172,0.1550199 0.132874,0 0.238066,-0.040139 0.105192,-0.041523 0.195159,-0.1273378 z m 1.706603,0 q -0.102423,0.059517 -0.211768,0.088583 -0.10796,0.03045 -0.221457,0.03045 -0.359868,0 -0.563331,-0.2159206 -0.20208,-0.2159206 -0.20208,-0.597934 0,-0.3820134 0.20208,-0.597934 0.203463,-0.2159206 0.563331,-0.2159206 0.112113,0 0.218689,0.029066 0.106576,0.029066 0.214536,0.089967 v 0.2671326 q -0.101039,-0.089967 -0.203463,-0.130106 -0.10104,-0.040139 -0.229762,-0.040139 -0.23945,0 -0.368172,0.1550199 -0.128722,0.1550199 -0.128722,0.4429141 0,0.28651 0.128722,0.4429141 0.130106,0.1550199 0.368172,0.1550199 0.132874,0 0.238066,-0.040139 0.105193,-0.041523 0.195159,-0.1273378 z" id="path85" />
                    <path fill-opacity="1" gorn="0.2.0.0.6.1" style="text-align:end;text-anchor:end;" stroke-opacity="1" stroke="none" fill="#000000" d="m 42.272392,10.713068 -0.294815,1.057457 h 0.589629 z m -0.168861,-0.246371 h 0.339106 l 0.632537,2.066471 h -0.289279 l -0.152251,-0.538417 h -0.723888 l -0.149484,0.538417 h -0.289278 z m 1.875464,1.08514 q -0.186854,0 -0.289278,0.105192 -0.10104,0.103808 -0.10104,0.294814 0,0.191007 0.102424,0.297583 0.103808,0.105192 0.287894,0.105192 0.188239,0 0.289278,-0.103808 0.102424,-0.105192 0.102424,-0.298967 0,-0.189622 -0.103808,-0.294814 -0.102424,-0.105192 -0.287894,-0.105192 z m -0.243603,-0.116265 q -0.178549,-0.04568 -0.279589,-0.170246 -0.09966,-0.124569 -0.09966,-0.300351 0,-0.246371 0.167477,-0.390318 0.167477,-0.145331 0.455371,-0.145331 0.289278,0 0.456755,0.145331 0.167477,0.143947 0.167477,0.390318 0,0.175782 -0.10104,0.300351 -0.09965,0.12457 -0.278205,0.170246 0.207616,0.04567 0.31696,0.184086 0.110729,0.13841 0.110729,0.358483 0,0.27959 -0.17855,0.437378 -0.17855,0.157788 -0.494126,0.157788 -0.315576,0 -0.494126,-0.156404 -0.177166,-0.157788 -0.177166,-0.435993 0,-0.221458 0.109345,-0.359868 0.110728,-0.139795 0.318344,-0.18547 z m -0.101039,-0.444299 q 0,0.166093 0.08858,0.253292 0.08858,0.0872 0.25606,0.0872 0.168861,0 0.257444,-0.0872 0.08858,-0.0872 0.08858,-0.253292 0,-0.168861 -0.08858,-0.257443 -0.0872,-0.08858 -0.257444,-0.08858 -0.167477,0 -0.25606,0.08997 -0.08858,0.08858 -0.08858,0.256059 z" id="path86" />
                    <path fill-opacity="1" gorn="0.2.0.0.6.2" style="text-align:end;text-anchor:end;" stroke-opacity="1" stroke="none" fill="#000000" d="m 42.272392,17.913068 -0.294815,1.057457 h 0.589629 z m -0.168861,-0.246371 h 0.339106 l 0.632537,2.066471 H 42.785895 L 42.633644,19.19475 h -0.723888 l -0.149484,0.538418 h -0.289278 z m 1.847782,1.150192 q 0.17855,0 0.279589,-0.128722 0.102424,-0.128722 0.102424,-0.355715 0,-0.226994 -0.102424,-0.355716 -0.101039,-0.128721 -0.279589,-0.128721 -0.18547,0 -0.27959,0.123185 -0.09412,0.121801 -0.09412,0.361252 0,0.240834 0.09273,0.362636 0.09412,0.121801 0.280974,0.121801 z m -0.498278,0.873371 v -0.257444 q 0.0872,0.05121 0.18547,0.07889 0.09827,0.0263 0.204848,0.0263 0.265748,0 0.401391,-0.199312 0.137026,-0.200695 0.137026,-0.589629 -0.06505,0.13841 -0.182702,0.213152 -0.117649,0.07336 -0.269901,0.07336 -0.298967,0 -0.463675,-0.184086 -0.163325,-0.184086 -0.163325,-0.521808 0,-0.33357 0.167477,-0.516272 0.168861,-0.184086 0.476133,-0.184086 0.359867,0 0.527344,0.258828 0.167477,0.258828 0.167477,0.813854 0,0.521808 -0.20208,0.797246 -0.200695,0.274053 -0.584093,0.274053 -0.101039,0 -0.203463,-0.02215 -0.102424,-0.02076 -0.197927,-0.0609 z" id="path87" />
                    <path fill-opacity="1" gorn="0.2.0.0.6.3" style="text-align:end;text-anchor:end;" stroke-opacity="1" stroke="none" fill="#000000" d="m 39.713179,24.866696 h 0.272669 l 0.197927,1.677537 0.235298,-1.110053 h 0.292047 l 0.238066,1.112821 0.197927,-1.680305 h 0.272669 l -0.308656,2.066471 h -0.264364 l -0.280973,-1.227702 -0.27959,1.227702 h -0.264364 z m 1.979272,0 h 1.226319 v 0.235298 h -0.946729 v 0.611775 h 0.905205 v 0.235298 h -0.905205 v 0.748802 h 0.973027 v 0.235298 h -1.252617 z m 2.380663,0.03183 -0.143947,0.574404 h 0.339106 l 0.145332,-0.574404 h 0.221457 L 44.48973,25.47293 h 0.337722 v 0.213152 h -0.388934 l -0.116265,0.462292 h 0.346027 v 0.211768 h -0.400007 l -0.143947,0.57302 h -0.221457 l 0.145331,-0.57302 h -0.34049 l -0.145331,0.57302 h -0.220073 l 0.143947,-0.57302 h -0.357099 v -0.211768 h 0.411079 l 0.116265,-0.462292 H 43.288326 V 25.47293 h 0.419384 l 0.143947,-0.574404 z m 0.143947,0.787556 h -0.339106 l -0.116265,0.462292 h 0.340491 z" id="path88" />
                    <path fill-opacity="1" gorn="0.2.0.0.6.4" style="text-align:end;text-anchor:end;" stroke-opacity="1" stroke="none" fill="#000000" d="m 40.965795,33.102007 q 0,-0.455371 -0.09412,-0.65053 -0.09273,-0.195159 -0.305887,-0.195159 -0.211769,0 -0.305888,0.195159 -0.09273,0.195159 -0.09273,0.65053 0,0.453987 0.09273,0.649146 0.09412,0.195159 0.305888,0.195159 0.213152,0 0.305887,-0.193775 0.09412,-0.195159 0.09412,-0.65053 z m 0.292047,0 q 0,0.539802 -0.171629,0.80555 -0.170246,0.265749 -0.520424,0.265749 -0.350179,0 -0.520425,-0.264365 -0.170245,-0.264364 -0.170245,-0.806934 0,-0.541185 0.170245,-0.806934 0.17163,-0.265748 0.520425,-0.265748 0.350178,0 0.520424,0.265748 0.171629,0.265749 0.171629,0.806934 z m 0.434609,-1.035311 h 1.226319 v 0.235298 h -0.946729 v 0.611775 h 0.905205 v 0.235298 h -0.905205 v 0.748801 h 0.973027 v 0.235299 h -1.252617 z m 2.380663,0.03183 -0.143947,0.574404 h 0.339106 l 0.145332,-0.574404 h 0.221457 L 44.48973,32.67293 h 0.337722 v 0.213153 h -0.388934 l -0.116265,0.462291 h 0.346027 v 0.211768 h -0.400007 l -0.143947,0.573021 H 43.902869 L 44.0482,33.560146 h -0.34049 l -0.145331,0.573021 h -0.220073 l 0.143947,-0.573021 h -0.357099 v -0.211768 h 0.411079 l 0.116265,-0.462291 h -0.368172 v -0.213153 h 0.419384 l 0.143947,-0.574404 z m 0.143947,0.787557 h -0.339106 l -0.116265,0.462291 h 0.340491 z" id="path89" />
                    <path fill-opacity="1" gorn="0.2.0.0.6.5" style="text-align:end;text-anchor:end;" stroke-opacity="1" stroke="none" fill="#000000" d="m 40.565789,39.513066 -0.294815,1.057457 h 0.589629 z m -0.168861,-0.246371 h 0.339106 l 0.632536,2.066471 H 41.079292 L 40.92704,40.794749 h -0.723887 l -0.149484,0.538417 h -0.289278 z m 1.396563,1.831173 H 42.2281 v -1.579266 l -0.467828,0.105193 v -0.254676 l 0.46506,-0.102424 h 0.27959 v 1.831173 h 0.429073 v 0.235298 h -1.140504 z m 2.001418,-0.802782 q 0,-0.07613 0.0526,-0.13149 0.05398,-0.05536 0.128722,-0.05536 0.07751,0 0.132874,0.05536 0.05536,0.05536 0.05536,0.13149 0,0.07751 -0.05536,0.13149 -0.05398,0.05398 -0.132874,0.05398 -0.07751,0 -0.130106,-0.0526 -0.05121,-0.0526 -0.05121,-0.132874 z m 0.184086,-0.844305 q -0.195159,0 -0.292046,0.210384 -0.0955,0.210385 -0.0955,0.640842 0,0.429073 0.0955,0.639457 0.09689,0.210384 0.292046,0.210384 0.196543,0 0.292047,-0.210384 0.09689,-0.210384 0.09689,-0.639457 0,-0.430457 -0.09689,-0.640842 -0.0955,-0.210384 -0.292047,-0.210384 z m 0,-0.221457 q 0.330802,0 0.499663,0.271285 0.170245,0.271285 0.170245,0.801398 0,0.528728 -0.170245,0.800013 -0.168861,0.271285 -0.499663,0.271285 -0.330801,0 -0.499662,-0.271285 -0.168861,-0.271285 -0.168861,-0.800013 0,-0.530113 0.168861,-0.801398 0.168861,-0.271285 0.499662,-0.271285 z" id="path90" />
                    <path fill-opacity="1" gorn="0.2.0.0.6.6" style="text-align:end;text-anchor:end;" stroke-opacity="1" stroke="none" fill="#000000" d="m 41.198325,48.459808 q -0.106576,0.05675 -0.218689,0.08443 -0.112112,0.02907 -0.238066,0.02907 -0.397239,0 -0.617311,-0.280974 -0.218689,-0.280974 -0.218689,-0.790325 0,-0.506583 0.220073,-0.78894 0.221457,-0.283742 0.615927,-0.283742 0.125954,0 0.238066,0.02907 0.112113,0.02768 0.218689,0.08443 v 0.28651 q -0.102424,-0.08443 -0.220073,-0.128721 -0.117649,-0.04429 -0.236682,-0.04429 -0.272669,0 -0.408311,0.210384 -0.135643,0.210385 -0.135643,0.635305 0,0.423537 0.135643,0.633921 0.135642,0.210384 0.408311,0.210384 0.121801,0 0.238066,-0.04429 0.117649,-0.04429 0.218689,-0.128722 z m 1.622173,-1.922524 v 0.283742 q -0.127338,-0.08166 -0.25606,-0.123186 -0.127338,-0.04152 -0.257444,-0.04152 -0.197927,0 -0.312808,0.09273 -0.11488,0.09135 -0.11488,0.247755 0,0.137027 0.07474,0.209 0.07613,0.07197 0.282358,0.120418 l 0.146715,0.03322 q 0.290663,0.06782 0.423537,0.213153 0.132874,0.145331 0.132874,0.395854 0,0.294815 -0.182702,0.449835 -0.182702,0.15502 -0.531497,0.15502 -0.145331,0 -0.292046,-0.03184 -0.146716,-0.03045 -0.294815,-0.09273 v -0.297583 q 0.159172,0.10104 0.300351,0.1481 0.142563,0.04706 0.28651,0.04706 0.211768,0 0.329418,-0.09412 0.117649,-0.0955 0.117649,-0.265749 0,-0.155019 -0.08166,-0.236682 -0.08028,-0.08166 -0.280973,-0.125953 l -0.149484,-0.0346 q -0.287894,-0.06505 -0.418,-0.196543 -0.130106,-0.13149 -0.130106,-0.352947 0,-0.276822 0.18547,-0.442914 0.186855,-0.167477 0.49551,-0.167477 0.119034,0 0.250524,0.02768 0.13149,0.0263 0.276821,0.08028 z m 1.252616,-0.03876 -0.143947,0.574404 h 0.339106 l 0.145332,-0.574404 h 0.221457 l -0.145332,0.574404 h 0.337722 v 0.213153 h -0.388934 l -0.116265,0.462291 h 0.346027 v 0.211768 h -0.400007 l -0.143947,0.573021 H 43.902869 L 44.0482,47.960145 h -0.34049 l -0.145331,0.573021 h -0.220073 l 0.143947,-0.573021 h -0.357099 v -0.211768 h 0.411079 l 0.116265,-0.462291 h -0.368172 v -0.213153 h 0.419384 l 0.143947,-0.574404 z m 0.143947,0.787557 h -0.339106 l -0.116265,0.462291 h 0.340491 z" id="path91" />
                    <path fill-opacity="1" gorn="0.2.0.0.6.7" style="text-align:end;text-anchor:end;" stroke-opacity="1" stroke="none" fill="#000000" d="m 42.023253,55.503403 q 0.352947,0 0.492742,-0.173013 0.139794,-0.174397 0.139794,-0.628384 0,-0.45814 -0.139794,-0.631153 -0.138411,-0.174397 -0.492742,-0.174397 h -0.132875 v 1.606947 z m 0.0055,-1.836709 q 0.473364,0 0.69759,0.251907 0.224225,0.251908 0.224225,0.783405 0,0.528728 -0.224225,0.780636 -0.224226,0.250523 -0.69759,0.250523 h -0.419384 v -2.066471 z m 1.289987,0 h 1.30106 v 0.119033 l -0.739112,1.947438 h -0.292047 l 0.719735,-1.831173 H 43.31874 Z" id="path92" />
                    <path fill-opacity="1" gorn="0.2.0.0.6.8" style="text-align:end;text-anchor:end;" stroke-opacity="1" stroke="none" fill="#000000" d="m 42.023253,62.703403 q 0.352947,0 0.492742,-0.173013 0.139794,-0.174398 0.139794,-0.628385 0,-0.458139 -0.139794,-0.631152 -0.138411,-0.174398 -0.492742,-0.174398 h -0.132875 v 1.606948 z m 0.0055,-1.836709 q 0.473364,0 0.69759,0.251907 0.224225,0.251907 0.224225,0.783404 0,0.528729 -0.224225,0.780636 -0.224226,0.250524 -0.69759,0.250524 h -0.419384 v -2.066471 z m 2.469246,0.04567 v 0.257444 q -0.0872,-0.05121 -0.18547,-0.07751 -0.09827,-0.02768 -0.204848,-0.02768 -0.265748,0 -0.402775,0.200695 -0.137027,0.199312 -0.137027,0.588245 0.06644,-0.13841 0.184087,-0.211768 0.117649,-0.07474 0.2699,-0.07474 0.298967,0 0.462292,0.184087 0.164709,0.182702 0.164709,0.51904 0,0.334953 -0.168861,0.519039 -0.168861,0.184087 -0.474749,0.184087 -0.359868,0 -0.527344,-0.257444 -0.167477,-0.258828 -0.167477,-0.813855 0,-0.523192 0.200695,-0.797245 0.20208,-0.275437 0.584093,-0.275437 0.102424,0 0.204848,0.02214 0.102424,0.02076 0.197927,0.0609 z m -0.498278,0.873371 q -0.17855,0 -0.280974,0.128722 -0.102424,0.128722 -0.102424,0.355716 0,0.226993 0.102424,0.355715 0.102424,0.128722 0.280974,0.128722 0.18547,0 0.279589,-0.121802 0.09412,-0.123185 0.09412,-0.362635 0,-0.240835 -0.09412,-0.362636 -0.09412,-0.121802 -0.279589,-0.121802 z" id="path93" />
                    <path fill-opacity="1" gorn="0.2.0.0.6.9" style="text-align:end;text-anchor:end;" stroke-opacity="1" stroke="none" fill="#000000" d="m 42.023253,69.903402 q 0.352947,0 0.492742,-0.173013 0.139794,-0.174397 0.139794,-0.628384 0,-0.45814 -0.139794,-0.631153 -0.138411,-0.174397 -0.492742,-0.174397 h -0.132875 v 1.606947 z m 0.0055,-1.836709 q 0.473364,0 0.69759,0.251907 0.224225,0.251908 0.224225,0.783405 0,0.528728 -0.224225,0.780636 -0.224226,0.250523 -0.69759,0.250523 h -0.419384 v -2.066471 z m 1.384107,0 h 1.046384 v 0.235298 h -0.791709 v 0.507967 q 0.05952,-0.02214 0.119033,-0.03183 0.0609,-0.01107 0.121802,-0.01107 0.321112,0 0.509351,0.189623 0.188238,0.189622 0.188238,0.513503 0,0.326649 -0.197927,0.514888 -0.196543,0.188238 -0.538417,0.188238 -0.164709,0 -0.301736,-0.02215 -0.135642,-0.02214 -0.243602,-0.06644 v -0.283742 q 0.127338,0.06921 0.256059,0.103808 0.128722,0.03322 0.262981,0.03322 0.231145,0 0.355715,-0.121801 0.125954,-0.121802 0.125954,-0.346027 0,-0.221457 -0.130106,-0.344642 -0.128722,-0.123186 -0.359868,-0.123186 -0.112113,0 -0.218689,0.0263 -0.106576,0.02491 -0.203463,0.07613 z" id="path94" />
                    <path fill-opacity="1" gorn="0.2.0.0.6.10" style="text-align:end;text-anchor:end;" stroke-opacity="1" stroke="none" fill="#000000" d="m 42.023253,77.103402 q 0.352947,0 0.492742,-0.173013 0.139794,-0.174398 0.139794,-0.628385 0,-0.458139 -0.139794,-0.631152 -0.138411,-0.174398 -0.492742,-0.174398 h -0.132875 v 1.606948 z m 0.0055,-1.836709 q 0.473364,0 0.69759,0.251907 0.224225,0.251907 0.224225,0.783404 0,0.528729 -0.224225,0.780636 -0.224226,0.250524 -0.69759,0.250524 h -0.419384 v -2.066471 z m 2.114915,0.254675 -0.651914,1.09206 h 0.651914 z m -0.04568,-0.254675 h 0.323881 v 1.346735 h 0.275437 v 0.226994 h -0.275437 v 0.492742 h -0.278205 v -0.492742 h -0.87614 v -0.264365 z" id="path95" />
                    <path fill-opacity="1" gorn="0.2.0.0.6.11" style="text-align:end;text-anchor:end;" stroke-opacity="1" stroke="none" fill="#000000" d="m 42.023253,84.303401 q 0.352947,0 0.492742,-0.173013 0.139794,-0.174397 0.139794,-0.628384 0,-0.45814 -0.139794,-0.631153 -0.138411,-0.174397 -0.492742,-0.174397 h -0.132875 v 1.606947 z m 0.0055,-1.836709 q 0.473364,0 0.69759,0.251907 0.224225,0.251908 0.224225,0.783405 0,0.528728 -0.224225,0.780636 -0.224226,0.250523 -0.69759,0.250523 h -0.419384 v -2.066471 z m 2.171663,0.96057 q 0.203464,0.05398 0.311424,0.192391 0.10796,0.137026 0.10796,0.343258 0,0.285126 -0.19239,0.448451 -0.191007,0.16194 -0.530113,0.16194 -0.142563,0 -0.290663,-0.0263 -0.148099,-0.0263 -0.290662,-0.07613 v -0.278205 q 0.141179,0.07336 0.278205,0.109344 0.137027,0.03599 0.272669,0.03599 0.229762,0 0.352948,-0.103808 0.123185,-0.103808 0.123185,-0.298967 0,-0.179934 -0.123185,-0.285126 -0.123186,-0.106576 -0.33357,-0.106576 h -0.213152 v -0.229762 h 0.213152 q 0.192391,0 0.300351,-0.08443 0.10796,-0.08443 0.10796,-0.235298 0,-0.159173 -0.101039,-0.243603 -0.09966,-0.08581 -0.285126,-0.08581 -0.123186,0 -0.254676,0.02768 -0.13149,0.02768 -0.275437,0.08305 v -0.257444 q 0.167477,-0.04429 0.297583,-0.06644 0.13149,-0.02215 0.23253,-0.02215 0.301735,0 0.481669,0.152252 0.181318,0.150868 0.181318,0.401391 0,0.170245 -0.0955,0.283742 -0.09412,0.113496 -0.275437,0.160556 z" id="path96" />
                </g>
            </g>
        </g>
    </g>
    <g transform="matrix(0.99997855,0,0,0.99997855,-0.35936729,-0.35936729)" >
        <g >
            <g gorn="0.3.0.0" id="copper1" >
                <g gorn="0.3.0.0.0" id="copper0" >
                    <circle gorn="0.3.0.0.0.0" cx="47.52" r="1.98" stroke="#ffbf00" fill="none" stroke-width="1.44" id="connector23pin"  cy="4.3200002"/>
                    <circle gorn="0.3.0.0.0.1" cx="47.52" r="1.98" stroke="#ffbf00" fill="none" stroke-width="1.44" id="connector22pin"  cy="11.52"/>
                    <circle gorn="0.3.0.0.0.2" cx="47.52" r="1.98" stroke="#ffbf00" fill="none" stroke-width="1.44" id="connector21pin"  cy="18.719999"/>
                    <circle gorn="0.3.0.0.0.3" cx="47.52" r="1.98" stroke="#ffbf00" fill="none" stroke-width="1.44" id="connector20pin"  cy="25.92"/>
                    <circle gorn="0.3.0.0.0.4" cx="47.52" r="1.98" stroke="#ffbf00" fill="none" stroke-width="1.44" id="connector19pin"  cy="33.119999"/>
                    <circle gorn="0.3.0.0.0.5" cx="47.52" r="1.98" stroke="#ffbf00" fill="none" stroke-width="1.44" id="connector18pin"  cy="40.32"/>
                    <circle gorn="0.3.0.0.0.6" cx="47.52" r="1.98" stroke="#ffbf00" fill="none" stroke-width="1.44" id="connector17pin"  cy="47.52"/>
                    <circle gorn="0.3.0.0.0.7" cx="47.52" r="1.98" stroke="#ffbf00" fill="none" stroke-width="1.44" id="connector16pin"  cy="54.720001"/>
                    <circle gorn="0.3.0.0.0.8" cx="47.52" r="1.98" stroke="#ffbf00" fill="none" stroke-width="1.44" id="connector15pin"  cy="61.919998"/>
                    <circle gorn="0.3.0.0.0.9" cx="47.52" r="1.98" stroke="#ffbf00" fill="none" stroke-width="1.44" id="connector14pin"  cy="69.120003"/>
                    <circle gorn="0.3.0.0.0.10" cx="47.52" r="1.98" stroke="#ffbf00" fill="none" stroke-width="1.44" id="connector13pin"  cy="76.32"/>
                    <circle gorn="0.3.0.0.0.11" cx="47.52" r="1.98" stroke="#ffbf00" fill="none" stroke-width="1.44" id="connector12pin"  cy="83.519997"/>
                    <circle gorn="0.3.0.0.0.12" cx="4.3200002" r="1.98" stroke="#ffbf00" fill="none" stroke-width="1.44" id="connector11pin"  cy="83.519997"/>
                    <circle gorn="0.3.0.0.0.13" cx="4.3200002" r="1.98" stroke="#ffbf00" fill="none" stroke-width="1.44" id="connector10pin"  cy="76.32"/>
                    <circle gorn="0.3.0.0.0.14" cx="4.3200002" r="1.98" stroke="#ffbf00" fill="none" stroke-width="1.44" id="connector9pin"  cy="69.120003"/>
                    <circle gorn="0.3.0.0.0.15" cx="4.3200002" r="1.98" stroke="#ffbf00" fill="none" stroke-width="1.44" id="connector8pin"  cy="61.919998"/>
                    <circle gorn="0.3.0.0.0.16" cx="4.3200002" r="1.98" stroke="#ffbf00" fill="none" stroke-width="1.44" id="connector7pin"  cy="54.720001"/>
                    <circle gorn="0.3.0.0.0.17" cx="4.3200002" r="1.98" stroke="#ffbf00" fill="none" stroke-width="1.44" id="connector6pin"  cy="47.52"/>
                    <circle gorn="0.3.0.0.0.18" cx="4.3200002" r="1.98" stroke="#ffbf00" fill="none" stroke-width="1.44" id="connector5pin"  cy="40.32"/>
                    <circle gorn="0.3.0.0.0.19" cx="4.3200002" r="1.98" stroke="#ffbf00" fill="none" stroke-width="1.44" id="connector4pin"  cy="33.119999"/>
                    <circle gorn="0.3.0.0.0.20" cx="4.3200002" r="1.98" stroke="#ffbf00" fill="none" stroke-width="1.44" id="connector3pin"  cy="25.92"/>
                    <circle gorn="0.3.0.0.0.21" cx="4.3200002" r="1.98" stroke="#ffbf00" fill="none" stroke-width="1.44" id="connector2pin"  cy="18.719999"/>
                    <circle gorn="0.3.0.0.0.22" cx="4.3200002" r="1.98" stroke="#ffbf00" fill="none" stroke-width="1.44" id="connector1pin"  cy="11.52"/>
                    <circle gorn="0.3.0.0.0.23" cx="4.3200002" r="1.98" stroke="#ffbf00" fill="none" stroke-width="1.44" id="connector0pin"  cy="4.3200002"/>
                    <rect gorn="0.3.0.0.0.24" height="3.96" x="2.3399999" stroke="#ffbf00" fill="none" stroke-width="1.44" y="2.3399999" id="nonconn0"  width="3.96"/>
                </g>
            </g>
        </g>
    </g>
</svg>
