<?xml version='1.0' encoding='UTF-8' standalone='no'?>
<!-- Creator: CorelDRAW 2018 -->
<svg xmlns="http://www.w3.org/2000/svg" version="1.0" gorn="0" id="svg17" shape-rendering="geometricPrecision"  xml:space="preserve" viewBox="0 0 17.594266 31.222656" height="19.236mm" xmlns:xml="http://www.w3.org/XML/1998/namespace" image-rendering="optimizeQuality" fill-rule="evenodd" width="10.839mm" text-rendering="geometricPrecision" clip-rule="evenodd">
    <desc >
        <referenceFile >arcade-pad-20mm.svg</referenceFile>
    </desc>
    <defs id="defs17" />
    <g transform="matrix(0.34069394,0,0,0.34069394,-0.21116474,-0.56018616)" >
        <g >
            <g gorn="0.2.0.0" id="copper1"  style="display:inline">
                <g transform="matrix(0.42948147,0,0,0.42948147,0,-0.00294955)" >
                    <g >
                        <path gorn="0.2.0.0.0.0.0" id="path18"  fill="#ffc000" stroke="none" d="m 39.775168,214.93096 c -0.83985,-0.68042 -3.010766,-2.55884 -4.824257,-4.17426 -1.81349,-1.61543 -9.968905,-8.59728 -18.123144,-15.51524 C 3.8563153,184.23664 1.9684569,182.54232 1.7346823,181.69566 1.5576167,181.05438 1.4633825,157.79465 1.4553201,112.74095 L 1.4431536,44.75394 2.4463092,42.819955 C 5.9765148,36.014073 16.419901,23.427823 24.399693,16.361988 33.201171,8.5685783 39.86746,3.6919259 41.082214,4.1580702 c 0.23153,0.088846 0.456812,0.6662343 0.55592,1.424802 0.776598,5.9440308 1.848987,17.3088618 2.293043,24.3009518 l 0.289655,4.5609 -0.724244,1.242269 c -0.398334,0.68325 -3.175576,4.922009 -6.171653,9.419466 -6.09254,9.145609 -6.639457,10.037857 -7.215727,11.771791 -0.223111,0.671314 -0.649109,3.757545 -0.946661,6.858292 -0.29755,3.100745 -0.778711,7.714832 -1.069245,10.253524 -0.290535,2.538695 -0.528244,5.851899 -0.528244,7.36268 0,2.50353 0.0627,2.854081 0.707818,3.957058 1.073887,1.836075 15.097736,22.970266 18.906035,28.491736 4.127104,5.98369 4.983559,7.68152 4.987627,9.88744 0.0039,2.11641 -0.626434,3.70774 -4.246085,10.71954 -3.861361,7.48002 -4.248688,8.54325 -4.401369,12.08203 -0.06666,1.54506 -0.243588,14.50126 -0.393168,28.79157 -0.149579,14.2903 -0.342532,29.33568 -0.42878,33.43417 l -0.15682,7.4518 h -0.619072 c -0.344518,0 -1.296286,-0.54866 -2.146076,-1.23713 z M 5.2512932,110.91793 C 5.803526,43.142985 5.7233336,47.580535 6.4310592,45.63402 7.0853651,43.834428 9.0749843,40.239897 11.030242,37.324935 14.862452,31.611754 18.98782,26.876589 27.61782,18.285436 c 3.888121,-3.870618 7.069311,-7.172149 7.069311,-7.336734 0,-0.453729 -3.887934,2.649273 -7.65313,6.108043 -9.475299,8.704166 -21.0951189,23.101894 -22.5217785,27.905977 -0.3825109,1.288054 -0.4236253,6.307437 -0.4236253,51.717439 0,50.490569 0.207147,76.001349 0.563266,69.367889 0.097409,-1.81446 0.3671528,-26.62301 0.59943,-55.13012 z m 40.0442808,23.59132 c 2.123939,-4.34205 4.001143,-8.42755 4.171567,-9.07891 0.671851,-2.56784 -0.08241,-4.37843 -4.604455,-11.05286 -1.632521,-2.40957 -4.543961,-6.87375 -6.46987,-9.92042 -5.191827,-8.213144 -9.532662,-14.703932 -9.712955,-14.523638 -0.321048,0.321044 3.914932,8.124298 8.242108,15.183088 7.062972,11.52162 8.848069,15.42611 8.840043,19.33554 -0.0054,2.608 -0.452281,4.29192 -2.62167,9.87788 -2.853835,7.34836 -2.751161,6.67159 -2.551253,16.81627 0.353374,17.93239 0.547208,19.20051 0.702719,4.59738 l 0.142057,-13.3397 z"/>
                    </g>
                </g>
                <g transform="matrix(0.42948147,0,0,0.42948147,0,-0.00294955)" >
                    <g >
                        <path gorn="0.2.0.0.1.0.0" id="path19"  fill="#ffc000" stroke="none" d="M 73.594749,33.56154 C 53.71339,32.914719 49.272539,32.704682 49.025937,32.399523 48.860382,32.194656 48.595851,31.112117 48.438091,29.993883 47.812569,25.560047 46.684331,12.68296 46.859174,11.972989 c 0.07935,-0.322216 4.424265,-0.0053 28.293497,2.063528 15.509861,1.344312 28.254989,2.499446 28.322509,2.566966 0.12383,0.123833 2.41222,16.500725 2.42552,17.358252 0.007,0.421319 -0.34399,0.458461 -4.0155,0.425476 -2.212455,-0.01988 -14.94316,-0.391429 -28.290451,-0.825671 z"/>
                    </g>
                </g>
                <g transform="matrix(0.42948147,0,0,0.42948147,0,-0.00294955)" >
                    <g >
                        <path gorn="0.2.0.0.2.0.0" id="path20"  fill="#ffc000" stroke="none" d="m 47.71089,198.69263 c 0.09008,-6.85499 0.238388,-21.91104 0.329578,-33.45789 l 0.165801,-20.99427 7.02296,-1.51151 c 3.862628,-0.83134 15.786833,-3.40241 26.498233,-5.71351 10.711399,-2.31109 19.584828,-4.20199 19.718718,-4.20199 0.1477,0 0.21707,11.67809 0.17637,29.69251 l -0.0671,29.6925 -4.088599,1.39815 c -2.248729,0.76899 -8.124438,2.88674 -13.057133,4.70611 -28.476835,10.50343 -35.096604,12.85353 -36.205784,12.85353 h -0.656851 z m 19.515053,-6.40919 c 1.683397,-0.42397 18.431679,-5.63699 20.434277,-6.36031 0.627127,-0.22651 1.458036,-0.68519 1.846463,-1.01928 l 0.706235,-0.60744 v -22.23623 -22.23624 l -0.706225,-0.39642 c -0.646824,-0.36309 -0.97962,-0.33409 -3.956706,0.34484 -1.787765,0.4077 -7.125769,1.61081 -11.862229,2.67359 -4.736459,1.06277 -8.976509,2.12094 -9.422331,2.35148 -0.445823,0.23055 -0.962482,0.68502 -1.148132,1.00995 -0.516517,0.90402 -0.492843,45.82456 0.02448,46.44798 0.460741,0.55523 1.950399,0.56547 4.084169,0.0281 z"/>
                    </g>
                </g>
                <g transform="matrix(0.42948147,0,0,0.42948147,0,-0.00294955)" >
                    <g >
                        <path gorn="0.2.0.0.3.0.0" id="path21"  fill="#ffc000" stroke="none" d="m 56.761283,139.30855 c -1.365088,-0.51257 -1.927367,-1.07327 -2.45085,-2.44399 -0.836429,-2.19016 -0.08138,-6.0084 1.827221,-9.24022 l 0.805712,-1.3643 2.786302,-0.53939 c 24.000123,-4.64616 40.212874,-7.60564 42.233012,-7.70923 1.99778,-0.10244 2.89005,0.70322 2.89005,2.60951 0,2.68763 -3.66573,9.77284 -5.564176,10.75456 -0.464913,0.24042 -2.044264,0.65615 -3.509673,0.92386 -2.901775,0.53011 -22.070611,4.66653 -28.646753,6.18165 -4.801885,1.10634 -8.782428,1.42397 -10.370845,0.82755 z"/>
                    </g>
                </g>
                <g transform="matrix(0.42948147,0,0,0.42948147,0,-0.00294955)" >
                    <g >
                        <path gorn="0.2.0.0.4.0.0" id="path22"  fill="#ffc000" stroke="none" d="m 33.75578,64.744967 c -0.145686,-0.235725 0.378303,-6.200108 0.652807,-7.430673 0.223335,-1.001179 3.054521,-5.469614 3.560573,-5.61962 0.153454,-0.04549 7.29775,-0.15737 15.876213,-0.248629 l 15.597205,-0.165925 0.160431,0.869877 c 0.08824,0.478432 0.238651,3.027529 0.334252,5.66466 l 0.173819,4.794783 -0.89597,0.13931 c -0.492784,0.07662 -8.255445,0.561168 -17.250359,1.076772 -8.994914,0.515604 -16.747373,0.972721 -17.227688,1.015815 -0.480314,0.04309 -0.921892,-2.73e-4 -0.981283,-0.09637 z"/>
                    </g>
                </g>
                <g transform="matrix(0.42948147,0,0,0.42948147,0,-0.00294955)" >
                    <g >
                        <path gorn="0.2.0.0.5.0.0" id="path23"  fill="#ffc000" stroke="none" d="m 115.26218,112.30453 c 0.15191,-1.10971 0.0793,-1.39203 -0.6354,-2.46944 -0.4438,-0.66908 -9.08601,-10.20407 -19.204901,-21.18888 C 74.254028,65.66693 73.07498,64.375877 72.281248,63.307311 l -0.587809,-0.791341 0.219347,-9.072533 c 0.12064,-4.989892 0.270658,-9.123843 0.333372,-9.186558 0.334997,-0.334996 4.749634,-1.238696 10.712797,-2.192967 3.699521,-0.592025 9.337829,-1.55288 12.529572,-2.135234 3.626167,-0.661617 7.015363,-1.115615 9.034483,-1.210209 l 3.23131,-0.151384 -0.006,0.631882 c -0.005,0.516129 -1.37803,1.670795 -7.49531,6.303163 -4.11908,3.119204 -7.6243,5.887442 -7.789382,6.15164 -0.165082,0.264198 -0.521718,1.807314 -0.792525,3.429146 -0.270807,1.621832 -0.909031,5.204109 -1.418275,7.960615 -1.196496,6.476546 -1.577067,9.881387 -1.444154,12.920344 0.134846,3.083137 0.172812,3.141282 6.002789,9.193176 2.403545,2.495036 5.999977,6.315118 7.992077,8.489075 1.9921,2.173955 5.42195,5.851864 7.62189,8.173134 7.23526,7.6343 7.77531,8.46448 6.8569,10.54071 -0.46681,1.05529 -0.62841,1.19752 -1.36065,1.19752 h -0.83092 z"/>
                    </g>
                </g>
                <g transform="matrix(0.42948147,0,0,0.42948147,0,-0.00294955)" >
                    <g >
                        <path gorn="0.2.0.0.6.0.0" id="path24"  fill="#ffc000" stroke="none" d="m 72.724855,117.44825 c -0.560134,-0.76167 -1.229719,-1.71026 -1.487967,-2.10798 -0.258247,-0.39772 -0.592595,-0.64708 -0.742994,-0.55413 -0.184444,0.114 -0.215172,-0.34613 -0.0944,-1.41359 0.135057,-1.19374 0.08995,-1.65654 -0.183579,-1.88355 -0.199446,-0.16553 -0.440733,-0.22285 -0.536194,-0.12739 -0.09546,0.0955 -0.173565,-0.0173 -0.173565,-0.2505 0,-0.56816 -0.50272,-0.84934 -0.867081,-0.48498 -0.568146,0.56815 -1.632226,0.33546 -2.101901,-0.45964 -0.372002,-0.62975 -0.40319,-1.00803 -0.190291,-2.30808 0.140048,-0.85519 0.25532,-1.62777 0.25616,-1.71684 0.0045,-0.48223 2.205825,-1.59677 3.588624,-1.81697 1.28643,-0.20486 25.760759,-3.55718 29.978963,-4.10631 l 1.25296,-0.16311 v 0.9071 c 0,0.57303 -0.19489,1.08348 -0.52918,1.386 -0.64113,0.58022 -0.990901,0.36929 -0.38777,-0.23384 0.23489,-0.23489 0.32058,-0.42707 0.19043,-0.42707 -0.53134,0 -1.435064,1.32006 -1.474241,2.1534 -0.03723,0.79204 0.07736,0.94118 1.145641,1.49102 1.02655,0.52836 1.42669,0.5887 2.96007,0.44638 l 1.77305,-0.16457 -0.0376,1.00103 c -0.0207,0.55056 -0.0866,0.85417 -0.14641,0.67469 -0.18728,-0.56183 -0.51617,-0.36026 -0.96891,0.59382 -0.53676,1.13115 -0.27371,1.75454 0.95996,2.27497 1.19905,0.50583 3.57272,0.43828 4.65399,-0.13244 0.88095,-0.46498 0.88421,-0.47381 0.70493,-1.9087 l -0.18011,-1.44156 1.09251,0.0645 c 1.10539,0.0652 1.43471,0.29604 1.44737,1.01445 0.004,0.21762 0.15534,0.36599 0.33669,0.32972 0.18135,-0.0363 0.30005,0.077 0.26378,0.25179 -0.0363,0.17476 0.0725,0.32314 0.2418,0.32973 0.16926,0.007 0.40666,0.12005 0.52756,0.25212 0.12772,0.13951 0.0817,0.16062 -0.10991,0.0504 -0.49497,-0.28484 -0.40176,0.0271 0.32973,1.10363 0.84217,1.23937 0.83,1.56198 -0.0659,1.7482 -1.54992,0.32213 -39.806289,7.01322 -40.098194,7.01322 -0.170237,0 -0.767813,-0.62318 -1.327947,-1.38485 z m 11.102249,-4.08875 c 0.897652,-0.52776 0.981709,-1.03005 0.415539,-2.48313 -0.254361,-0.65282 -1.657069,-1.51769 -1.963881,-1.21088 -0.07464,0.0746 0.166564,0.21158 0.536019,0.30431 0.848454,0.21295 0.887717,1.02543 0.07823,1.6188 l -0.593506,0.43505 0.61335,-0.18039 c 0.551522,-0.1622 0.604702,-0.10483 0.527561,0.56909 -0.08305,0.72553 -0.13905,0.75199 -1.753199,0.82849 l -1.667411,0.079 0.08473,-0.73847 c 0.05976,-0.5209 -0.09486,-0.88384 -0.524813,-1.23185 -0.37076,-0.3001 -0.551129,-0.66176 -0.460431,-0.92323 0.08201,-0.23642 -0.148176,-0.0968 -0.511526,0.31025 -0.393004,0.44028 -0.660636,1.05995 -0.660636,1.52963 0,0.67063 0.168836,0.86863 1.121067,1.31471 1.356442,0.63544 3.468676,0.53718 4.75891,-0.2214 z m -3.742797,-4.898 c 0.588627,-0.40174 0.869591,-0.78657 0.818501,-1.12107 -0.152516,-0.99857 -0.661883,-1.98451 -1.164126,-2.2533 -0.491288,-0.26293 -0.493852,-0.24819 -0.0695,0.39946 0.427956,0.65314 0.421152,0.68134 -0.236779,0.98111 -0.372568,0.16975 -0.63282,0.38031 -0.578338,0.4679 0.05448,0.0876 -0.45372,0.15927 -1.129338,0.15927 -1.207501,0 -1.887848,-0.33154 -1.887848,-0.91996 0,-0.164 -0.1374,-0.21327 -0.305332,-0.10948 -0.213053,0.13167 -0.256935,-0.003 -0.145195,-0.44605 0.156412,-0.61999 0.145105,-0.61754 -0.486009,0.10535 -0.355381,0.40706 -0.646147,0.97089 -0.646147,1.25296 0,0.28207 -0.02967,0.59715 -0.06594,0.70018 -0.03627,0.10303 0.337388,0.45913 0.83035,0.79134 1.274007,0.85855 3.802096,0.8547 5.065702,-0.008 z m 8.488456,-0.79821 c 1.282854,-0.53624 1.538076,-0.96589 1.232078,-2.07413 -0.143223,-0.51871 -0.427086,-1.08144 -0.630807,-1.25051 -0.301568,-0.25028 -0.344395,-0.20795 -0.230454,0.22776 0.102903,0.3935 -0.04005,0.61717 -0.540043,0.84498 -0.373995,0.17041 -0.630223,0.39036 -0.569395,0.48878 0.06083,0.0984 -0.541138,0.19609 -1.337701,0.21705 -0.796562,0.021 -1.387007,-0.0611 -1.312099,-0.18227 0.07491,-0.1212 -0.102592,-0.43647 -0.394446,-0.70059 -0.291854,-0.26413 -0.470832,-0.6361 -0.39773,-0.8266 0.24622,-0.64164 -0.118009,-0.35302 -0.64476,0.51092 -0.287484,0.47151 -0.523142,1.12153 -0.523684,1.44449 -0.0022,1.30254 3.377868,2.12408 5.349041,1.30012 z"/>
                    </g>
                </g>
                <g transform="matrix(0.42948147,0,0,0.42948147,0,-0.00294955)" >
                    <g >
                        <path gorn="0.2.0.0.7.0.0" id="path25"  fill="#ffc000" stroke="none" d="m 56.296273,120.36423 c -0.351227,-0.75375 -2.270737,-3.73936 -4.265577,-6.63468 -2.007414,-2.91357 -3.626981,-5.52742 -3.626981,-5.85364 0,-0.51587 0.205723,-0.62603 1.648628,-0.88283 5.380138,-0.95753 12.013137,-1.71849 12.695869,-1.4565 0.461327,0.17703 0.758316,2.53118 0.479443,3.80042 -0.184194,0.83833 -0.296186,0.93095 -1.217799,1.0072 -0.838559,0.0694 -0.986954,0.011 -0.853861,-0.33583 0.130766,-0.34077 0.06825,-0.37011 -0.332083,-0.15586 -0.899311,0.4813 -1.868979,1.87314 -1.868979,2.68269 0,0.80961 0.928445,1.91793 1.852275,2.21115 0.261005,0.0828 0.665961,0.44274 0.899903,0.79978 0.370042,0.56475 0.373803,0.64916 0.02892,0.64916 -0.272562,0 0.01401,0.62872 0.91715,2.0122 0.722468,1.10671 1.313577,2.11341 1.313577,2.23711 0,0.1237 -0.267078,0.28685 -0.593506,0.36255 -0.646021,0.14982 -5.859631,0.92753 -6.21796,0.92753 -0.121234,0 -0.507795,-0.6167 -0.859023,-1.37045 z"/>
                    </g>
                </g>
                <g transform="matrix(0.42948147,0,0,0.42948147,0,-0.00294955)" >
                    <g >
                        <path gorn="0.2.0.0.8.0.0" id="path26"  fill="#ffff00" style="stroke-linecap:square;stroke-linejoin:round;stroke-dasharray:0.0155769, 0.0467307" d="m 101.73651,130.77004 c 0,-0.14034 0.25577,-0.58998 0.79615,-1.39961 0.82171,-1.23113 1.72271,-2.42879 4.17022,-5.54326 0.61456,-0.78204 1.58751,-2.04318 2.16211,-2.80255 0.57461,-0.75937 1.77906,-2.32346 2.67656,-3.47577 2.70447,-3.47228 3.1883,-4.13349 3.54777,-4.84845 0.1391,-0.27665 0.16751,-0.38089 0.20404,-0.7485 0.0708,-0.71239 -0.0254,-1.08515 -0.46131,-1.78714 -0.45311,-0.72976 -1.07195,-1.3728 -1.2282,-1.27623 -0.0831,0.0513 0.12401,0.43617 0.74901,1.39182 0.36259,0.55442 0.47559,0.81443 0.49621,1.14176 l 0.0141,0.22347 -0.14425,0.0261 c -0.0793,0.0144 -0.24625,0.0563 -0.37092,0.0932 -0.12467,0.0369 -0.68106,0.15023 -1.23642,0.25192 -3.62314,0.66343 -30.552314,5.38099 -30.716208,5.38099 -0.06552,0 -0.07058,-0.12545 -0.07058,-1.75001 v -1.75 l 0.175159,-0.0446 c 0.714114,-0.18169 1.231901,-0.40561 1.626004,-0.70316 0.435739,-0.32899 0.548604,-0.73748 0.388778,-1.40713 -0.149962,-0.62831 -0.314951,-0.9951 -0.572974,-1.2738 -0.418797,-0.45235 -0.99367,-0.79843 -1.407717,-0.84747 l -0.20925,-0.0248 v -3.47605 -3.47605 l 0.09273,-0.0204 c 0.07667,-0.0169 4.99177,-0.68675 14.084851,-1.91963 3.750027,-0.50844 4.885217,-0.64987 4.928447,-0.61399 0.0275,0.0228 0.55827,-0.0191 1.3603,-0.107467 0.72337,-0.07968 1.53777,-0.156052 1.80978,-0.169706 l 0.49457,-0.02483 0.41214,0.447933 c 0.22667,0.24635 1.07195,1.14362 1.8784,1.99391 2.09437,2.20825 2.964,3.14551 4.04732,4.36202 0.12296,0.13808 0.19674,0.18258 0.35028,0.21127 0.10698,0.02 0.19858,0.0323 0.20356,0.0273 0.039,-0.039 -8.74131,-9.676366 -16.225427,-17.809168 -1.439314,-1.564068 -3.794931,-4.123948 -5.234702,-5.688623 -1.439771,-1.564675 -2.64322,-2.876822 -2.67433,-2.915883 -0.05329,-0.06691 0.01736,-0.07102 1.219539,-0.07102 h 1.276103 l 0.267922,0.320071 c 0.580873,0.693936 1.490255,1.666674 4.132621,4.420541 2.956014,3.080749 5.382134,5.658194 8.223424,8.736333 2.90036,3.142123 4.25742,4.596265 7.46172,7.995499 4.27898,4.5393 5.76926,6.21994 6.53809,7.37326 0.8214,1.23218 0.88052,2.16946 0.2156,3.41825 -0.39173,0.7357 -0.96305,1.5184 -2.81159,3.8518 -1.51803,1.91621 -2.35984,2.99941 -4.74674,6.10789 -2.25123,2.93181 -2.69841,3.52806 -3.52371,4.69839 -1.30541,1.85113 -1.8274,2.45221 -2.54453,2.93006 -0.4189,0.27912 -1.11474,0.55215 -1.67518,0.65729 -0.14249,0.0267 -0.14945,0.0227 -0.14945,-0.0858 z m 6.8181,-20.41856 c 0.71412,-0.1543 1.47969,-0.51482 1.68624,-0.79407 0.11853,-0.16025 0.13184,-0.49568 0.0482,-1.21491 -0.0603,-0.51846 -0.0886,-0.64063 -0.18947,-0.81898 -0.35527,-0.62783 -1.09231,-1.14951 -1.95431,-1.38326 -0.27204,-0.0738 -0.44868,-0.09 -1.00974,-0.093 -0.78162,-0.004 -1.15376,0.067 -1.7308,0.33075 -0.31466,0.14383 -0.3299,0.15704 -0.3299,0.28594 0,0.0743 -0.0124,0.16735 -0.0275,0.20671 -0.0161,0.0419 0.065,-0.002 0.19576,-0.10618 0.27127,-0.21601 0.78132,-0.45946 1.17115,-0.559 0.39506,-0.10088 1.18025,-0.1021 1.54223,-0.002 0.3951,0.10882 0.73204,0.29578 0.98015,0.5439 0.23893,0.23893 0.45526,0.64143 0.47466,0.88314 0.0115,0.14349 0.01,0.14527 -0.37068,0.33632 -0.70541,0.35443 -1.40223,0.50964 -2.13179,0.47486 -0.24935,-0.0119 -0.56463,-0.0511 -0.70064,-0.0871 -0.42976,-0.11379 -0.88571,-0.36529 -1.16637,-0.64335 -0.25217,-0.24984 -0.29383,-0.34426 -0.21601,-0.48965 0.0294,-0.0549 0.0185,-0.0964 -0.0428,-0.16215 -0.098,-0.10519 -0.0929,-0.10464 -0.24406,-0.0265 -0.1524,0.0788 -0.32485,0.3301 -0.5579,0.81293 -0.52567,1.08906 -0.33078,1.69881 0.70225,2.19721 0.71794,0.34637 1.24722,0.43325 2.51405,0.41265 0.77306,-0.0126 1.02342,-0.0317 1.35725,-0.10386 z m 4.92797,-1.85576 c -0.22531,-0.26912 -0.24739,-0.27899 -0.24739,-0.11064 0,0.16075 0.0652,0.23069 0.25784,0.27641 0.0735,0.0174 0.14006,0.0336 0.14784,0.0359 0.008,0.002 -0.0635,-0.0884 -0.15829,-0.20172 z m -0.60307,-0.68451 c -0.24486,-0.27889 -0.2912,-0.28504 -0.24379,-0.0324 0.0372,0.19813 0.15429,0.3046 0.33507,0.3046 h 0.14773 z m -25.053008,0.0618 c 1.029993,-0.20936 1.897337,-0.74168 2.040265,-1.25217 0.154658,-0.55238 -0.25066,-1.85597 -0.704569,-2.26605 -0.217754,-0.19673 -0.296848,-0.19397 -0.260458,0.009 0.01523,0.085 0.05282,0.21625 0.08352,0.29167 0.04979,0.12229 0.04704,0.15433 -0.02545,0.29641 -0.09385,0.18396 -0.219009,0.28491 -0.689104,0.55579 -0.366877,0.2114 -0.40659,0.24568 -0.429508,0.37074 -0.01069,0.0583 -0.06921,0.0965 -0.200201,0.13063 -0.101803,0.0265 -0.147538,0.0497 -0.101634,0.0515 0.109122,0.004 0.976815,-0.20857 1.412943,-0.3467 0.188329,-0.0596 0.383065,-0.10266 0.432746,-0.0956 0.08293,0.0118 0.08945,0.0331 0.07958,0.26014 -0.03004,0.69099 -0.616954,1.25162 -1.580688,1.50989 -0.294319,0.0789 -0.446541,0.0923 -1.025643,0.0906 -0.600461,-0.002 -0.728253,-0.0147 -1.092168,-0.11112 -0.751013,-0.1989 -1.488216,-0.65113 -1.748813,-1.07278 -0.131434,-0.21267 -0.113428,-0.30334 0.06935,-0.34923 0.268679,-0.0675 0.558189,-0.0858 0.826369,-0.0525 0.142822,0.0177 0.268599,0.0178 0.279505,1.9e-4 0.04187,-0.0677 -0.107057,-0.31323 -0.326733,-0.53854 -0.405534,-0.41595 -0.602639,-0.87177 -0.463106,-1.07099 0.172211,-0.24586 0.0064,-0.26607 -0.190528,-0.0232 -0.528671,0.65208 -0.980695,1.62062 -0.980695,2.10132 0,0.7732 1.277573,1.4583 3.008615,1.6134 0.364026,0.0326 1.181381,-0.0202 1.586414,-0.10255 z m -0.937295,-1.75666 c -0.085,-0.009 -0.224101,-0.009 -0.309105,0 -0.085,0.009 -0.01546,0.0162 0.154552,0.0162 0.170008,0 0.239556,-0.007 0.154553,-0.0162 z m 0.453352,-0.0396 c -0.03967,-0.0104 -0.10458,-0.0104 -0.144248,0 -0.03967,0.0104 -0.0072,0.0189 0.07212,0.0189 0.07934,0 0.111793,-0.008 0.07212,-0.0189 z m 16.186241,-0.32853 c 0.51083,-0.0442 0.80556,-0.0892 0.94792,-0.14485 0.53104,-0.20751 1.2287,-0.66867 1.42175,-0.93979 0.14712,-0.20662 0.0876,-1.00321 -0.11855,-1.58764 -0.11699,-0.33162 -0.41894,-0.76527 -0.67853,-0.97447 -0.37541,-0.30254 -1.02761,-0.56167 -1.59268,-0.63279 l -0.18546,-0.0234 0.22784,0.0765 c 0.5212,0.17492 1.13076,0.60997 1.32726,0.94726 0.0702,0.12048 0.0694,0.12527 -0.045,0.28229 -0.29776,0.40855 -0.74987,0.69804 -1.31647,0.84295 -1.12521,0.28778 -2.40436,-0.006 -3.09468,-0.71113 -0.28132,-0.28729 -0.27673,-0.34715 0.0573,-0.74734 0.30602,-0.36661 0.33758,-0.4648 0.13651,-0.42459 -0.40036,0.0801 -1.028784,0.88516 -1.290443,1.65319 -0.09365,0.27491 -0.125987,0.81585 -0.06281,1.05096 0.07924,0.29492 0.335422,0.50705 1.051883,0.87102 1.15874,0.58866 1.3799,0.62043 3.21417,0.46181 z m -1.95714,-4.23777 0.18546,-0.0599 -0.18226,0.009 c -0.10218,0.005 -0.1897,0.0317 -0.1992,0.0605 -0.0207,0.0629 -0.03,0.0634 0.196,-0.01 z m 0.34001,-0.0898 c -0.0283,-0.0114 -0.0747,-0.0114 -0.10303,0 -0.0283,0.0114 -0.005,0.0208 0.0515,0.0208 0.0567,0 0.0799,-0.009 0.0515,-0.0208 z" stroke-width="0.0155769"/>
                    </g>
                </g>
                <g transform="matrix(0.42948147,0,0,0.42948147,0,-0.00294955)" >
                    <g >
                        <path gorn="0.2.0.0.9.0.0" id="path27"  fill="#ffff00" style="stroke-linecap:square;stroke-linejoin:round;stroke-dasharray:0.0155769, 0.0467307" d="m 101.92198,105.2352 c -1.10308,-0.15908 -1.942361,-0.7917 -2.064613,-1.55622 -0.03291,-0.2058 -0.102614,-0.19858 0.857493,-0.0888 1.27541,0.14586 2.02196,0.20672 2.53751,0.20687 0.44454,1.2e-4 0.53529,-0.0121 0.74603,-0.10084 0.26027,-0.10955 0.76447,-0.18752 1.21258,-0.18752 h 0.28255 l -0.027,0.13395 c -0.0812,0.40322 -0.44715,0.86511 -0.90171,1.13813 -0.6468,0.38848 -1.76584,0.58088 -2.64286,0.45441 z" stroke-width="0.0155769"/>
                    </g>
                </g>
                <g transform="matrix(0.42948147,0,0,0.42948147,0,-0.00294955)" >
                    <g >
                        <path gorn="0.2.0.0.10.0.0" id="path28"  fill="#ffff00" style="stroke-linecap:square;stroke-linejoin:round;stroke-dasharray:0.0155769, 0.0467307" d="m 106.02526,109.89328 c -0.64421,-0.0834 -1.11592,-0.31716 -1.3517,-0.66996 -0.14103,-0.21103 -0.1938,-0.37123 -0.23292,-0.70712 -0.0386,-0.33105 -0.0153,-0.34291 0.45674,-0.23324 1.51865,0.35281 2.11989,0.42837 2.71548,0.34128 0.17982,-0.0263 0.76067,-0.14945 1.29077,-0.27369 0.5301,-0.12423 0.99163,-0.22588 1.02563,-0.22588 0.0516,0 0.0581,0.0537 0.0396,0.32444 -0.0754,1.10008 -0.88833,1.50043 -3.01282,1.48374 -0.36595,-0.003 -0.78479,-0.0207 -0.93075,-0.0396 z" stroke-width="0.0155769"/>
                    </g>
                </g>
                <g transform="matrix(0.42948147,0,0,0.42948147,0,-0.00294955)" >
                    <g >
                        <path gorn="0.2.0.0.11.0.0" id="path29"  fill="#ffff00" style="stroke-linecap:square;stroke-linejoin:round;stroke-dasharray:0.0155769, 0.0467307" d="m 76.857089,108.517 c -0.629005,-0.11414 -1.137127,-0.35078 -1.489379,-0.69365 -0.212945,-0.20727 -0.421894,-0.61274 -0.451608,-0.87635 -0.01953,-0.17324 -0.0141,-0.1896 0.0564,-0.17003 0.0429,0.0119 0.152193,0.0337 0.242863,0.0485 0.09067,0.0148 0.498688,0.11074 0.906706,0.21325 0.626771,0.15747 0.825633,0.1899 1.28195,0.20903 0.654387,0.0274 0.989502,-0.0171 1.940638,-0.25792 0.389697,-0.0987 0.822948,-0.19233 0.96278,-0.20815 l 0.254241,-0.0288 -0.02892,0.13979 c -0.207298,1.00203 -1.437683,1.69598 -2.98149,1.68158 -0.21937,-0.002 -0.531753,-0.0278 -0.694187,-0.0573 z" stroke-width="0.0155769"/>
                    </g>
                </g>
                <g transform="matrix(0.42948147,0,0,0.42948147,0,-0.00294955)" >
                    <g >
                        <path gorn="0.2.0.0.12.0.0" id="path30"  fill="#ffff00" style="stroke-linecap:square;stroke-linejoin:round;stroke-dasharray:0.0155769, 0.0467307" d="m 56.920807,121.66006 c -0.01376,-0.0358 -0.02502,-3.58461 -0.02502,-7.88614 v -7.82095 l 0.772761,-0.0921 c 2.851768,-0.3398 4.695109,-0.45276 5.120827,-0.31379 0.102004,0.0333 0.232882,0.0699 0.29084,0.0814 l 0.105377,0.0209 0.0587,0.83579 c 0.06568,0.93515 0.07529,2.18087 0.02187,2.83467 -0.03854,0.47164 -0.07561,0.61821 -0.156366,0.61821 -0.09227,0 -0.288627,0.29097 -0.367604,0.54472 -0.124505,0.40004 -0.120577,0.40983 0.268118,0.66846 0.650734,0.43298 1.223933,0.63745 1.880967,0.67097 0.741054,0.0378 1.222612,-0.13839 1.726579,-0.63173 0.289259,-0.28315 0.303489,-0.30572 0.280817,-0.44543 -0.01374,-0.0846 -0.09274,-0.23041 -0.185988,-0.34313 -0.08916,-0.10778 -0.230413,-0.32005 -0.313899,-0.4717 -0.139744,-0.25385 -0.153589,-0.30946 -0.174424,-0.70064 -0.01792,-0.33648 2e-6,-0.57499 0.08613,-1.14614 0.05982,-0.39669 0.152578,-1.01571 0.206136,-1.37562 0.06915,-0.46468 0.120384,-0.6857 0.176742,-0.76245 0.112166,-0.15277 0.49041,-0.4253 1.129624,-0.81392 1.042351,-0.6337 1.054245,-0.63627 6.36202,-1.37337 9.408748,-1.30661 19.920638,-2.74439 25.799902,-3.52881 0.612024,-0.0817 1.261144,-0.1477 1.442484,-0.14675 0.18134,9.5e-4 0.84901,-0.0536 1.4837,-0.121251 0.63469,-0.06763 1.38658,-0.134394 1.67086,-0.148355 l 0.51688,-0.02538 0.21378,0.222326 0.21379,0.22233 8.8e-4,1.10247 c 6.6e-4,0.80917 -0.0118,1.10247 -0.0469,1.10247 -0.0263,0 -0.15267,-0.10004 -0.28086,-0.22231 -0.33178,-0.31647 -0.99512,-0.62742 -1.50537,-0.70568 -0.14081,-0.0216 -0.11075,0.002 0.20607,0.15836 0.40499,0.2005 0.69851,0.42673 0.91623,0.70619 0.13389,0.17186 0.1376,0.18562 0.08,0.29698 -0.18557,0.35875 -0.83329,0.79147 -1.40836,0.94088 -1.05916,0.27519 -2.35872,-0.0275 -3.05531,-0.71163 -0.28818,-0.28303 -0.29114,-0.37433 -0.0225,-0.69763 0.39597,-0.47663 0.41452,-0.59173 0.0683,-0.42415 -0.36482,0.17661 -0.904952,0.91439 -1.119268,1.52884 -0.134733,0.38629 -0.157689,1.00902 -0.04486,1.21704 0.124495,0.22953 0.443499,0.46286 1.058148,0.77395 0.91748,0.46437 1.05705,0.49883 2.00271,0.49454 0.44018,-0.002 1.04246,-0.0336 1.37546,-0.0721 0.64719,-0.0749 0.85084,-0.14334 1.39329,-0.46831 0.16275,-0.0975 0.31287,-0.17728 0.33358,-0.17728 0.0781,0 0.0915,1.45907 0.0817,8.89845 -0.008,6.48198 -0.0132,7.01996 -0.0309,3.52627 l -0.0209,-4.12266 -0.98914,0.1733 c -0.54402,0.0953 -2.41719,0.42436 -4.1626,0.73121 -4.019124,0.70658 -6.282079,1.10273 -10.715612,1.87587 -6.262369,1.09207 -13.875888,2.40304 -15.704608,2.70417 -0.116103,0.0191 -0.14121,-6.6e-4 -0.327181,-0.25782 -0.110786,-0.15318 -0.361993,-0.48253 -0.558237,-0.73187 -0.322075,-0.40922 -0.954647,-1.2835 -1.765753,-2.44045 -0.347139,-0.49515 -0.508822,-0.634 -0.756322,-0.64952 -0.152158,-0.01 -0.206715,0.0126 -0.402681,0.16317 -1.003905,0.77152 -2.03757,1.27074 -3.091042,1.49287 -0.284597,0.06 -0.543616,0.0736 -1.380666,0.0724 -0.976592,-10e-4 -1.089479,-0.01 -2.16373,-0.16421 -1.134632,-0.16287 -1.734105,-0.19796 -1.825216,-0.10685 -0.113763,0.11376 0.209538,0.74841 0.999654,1.96236 0.495788,0.76174 0.98451,1.57893 1.202257,2.01028 0.112635,0.22313 0.117674,0.25019 0.05872,0.31534 -0.03547,0.0392 -0.06449,0.0909 -0.06449,0.11491 0,0.11371 -1.682914,0.40723 -5.136562,0.89587 -1.447301,0.20477 -1.763651,0.2262 -1.80357,0.12217 z m 9.407069,-5.97312 c 1.941009,-0.27281 3.323166,-1.05746 3.992085,-2.26628 0.111972,-0.20235 0.114036,-0.21872 0.114313,-0.90671 2.39e-4,-0.59154 -0.01102,-0.72131 -0.07229,-0.8334 -0.08514,-0.15576 -0.340517,-0.3412 -0.469875,-0.3412 h -0.09057 l 0.09685,0.17516 c 0.271322,0.4907 0.295818,1.04892 0.06744,1.53694 -0.806953,1.72442 -5.041432,2.64209 -7.851128,1.70144 -1.702845,-0.57009 -2.560783,-1.74547 -2.341198,-3.20747 0.05203,-0.3464 0.193105,-0.27437 1.228774,0.62739 0.727871,0.63377 0.81834,0.70262 1.178314,0.89679 0.651448,0.35138 1.769651,0.50819 2.986575,0.41879 1.442823,-0.10598 2.377068,-0.43188 3.066978,-1.06988 0.154813,-0.14317 0.441054,-0.4717 0.636091,-0.73008 0.195036,-0.25837 0.418125,-0.50903 0.495754,-0.557 0.12003,-0.0742 0.137275,-0.10369 0.115291,-0.19724 -0.08874,-0.37764 -0.406544,-0.55848 -0.707739,-0.40273 -0.185053,0.0957 -0.25755,0.20717 -0.478762,0.73615 -0.419403,1.00293 -0.790699,1.34433 -1.693127,1.55685 -0.806437,0.1899 -2.364134,0.20979 -3.164771,0.0404 -1.470388,-0.3111 -2.507454,-1.08365 -2.57441,-1.91777 -0.02798,-0.3486 0.0058,-0.49787 0.176673,-0.78171 0.07947,-0.13197 0.156126,-0.28632 0.170355,-0.34301 0.02452,-0.0977 0.01884,-0.10167 -0.108632,-0.0762 -0.38206,0.0764 -1.153983,0.74757 -1.564877,1.36059 -0.359342,0.53611 -0.577867,1.07721 -0.579028,1.43375 -0.0015,0.45171 0.36401,1.10629 0.894099,1.60134 0.247574,0.2312 0.410697,0.34053 0.751465,0.50364 0.239387,0.11459 0.509434,0.2674 0.600105,0.33959 0.402078,0.3201 1.675112,0.65705 2.884973,0.7636 0.5581,0.0491 1.669114,0.0185 2.24026,-0.0617 z m 15.796281,-1.77023 c 1.119518,-0.19523 2.095808,-0.68398 2.33999,-1.17144 0.107445,-0.2145 0.134858,-0.46233 0.08539,-0.77199 -0.07008,-0.43866 -0.275052,-1.01771 -0.456373,-1.28924 -0.305648,-0.45771 -1.00246,-0.9415 -1.499962,-1.04142 -0.173994,-0.0349 -0.243298,-0.0347 -0.279097,0.001 -0.07503,0.075 0.03122,0.14506 0.422134,0.27824 0.448758,0.15288 1.016229,0.50237 0.996371,0.61364 -0.05992,0.33573 -0.397588,0.73768 -0.968159,1.15248 -0.217087,0.15782 -0.389738,0.29191 -0.383667,0.29798 0.0061,0.006 0.158229,-0.0344 0.338132,-0.09 0.179902,-0.0556 0.410553,-0.11233 0.512558,-0.12608 0.102004,-0.0138 0.328745,-0.0713 0.503869,-0.12783 0.175123,-0.0566 0.337403,-0.0911 0.360622,-0.0767 0.06034,0.0373 0.05215,0.50076 -0.01331,0.7531 -0.210849,0.81284 -1.040131,1.08045 -3.187968,1.02874 -0.936496,-0.0225 -1.195074,-0.063 -1.556148,-0.24365 -0.197494,-0.0988 -0.419,-0.29932 -0.498744,-0.4515 -0.159628,-0.30462 -0.177428,-1.02612 -0.02523,-1.02271 0.03787,8.5e-4 0.319219,0.0731 0.625232,0.1606 0.306013,0.0875 0.56214,0.14372 0.569171,0.12496 0.02506,-0.0668 -0.202001,-0.35286 -0.47645,-0.6002 -0.155468,-0.14011 -0.330569,-0.34635 -0.395791,-0.46619 -0.103314,-0.18982 -0.111215,-0.2288 -0.06767,-0.33392 0.10781,-0.26028 0.0042,-0.22202 -0.335923,0.12408 -0.625027,0.63597 -0.907216,1.4389 -0.731475,2.0813 0.125461,0.45861 1.16085,1.01833 2.210024,1.19472 0.44692,0.0751 1.486752,0.0762 1.91248,0.002 z m 23.404033,-4.73103 v -1.12332 l -0.12348,-0.0547 c -0.0679,-0.0301 -0.2369,-0.16632 -0.37551,-0.3028 -0.24423,-0.24047 -0.25122,-0.25326 -0.22561,-0.41336 0.051,-0.31883 -0.16394,-0.38037 -0.40327,-0.11546 -0.17616,0.19499 -0.52675,0.87682 -0.62549,1.21646 -0.0844,0.2904 -0.0657,0.71719 0.0405,0.92252 0.1688,0.32642 0.67765,0.67764 1.30027,0.89747 0.45251,0.15976 0.41259,0.2591 0.41259,-1.02685 z m -27.386634,-0.11334 c 1.060485,-0.11663 1.773495,-0.40685 2.358258,-0.95989 0.399125,-0.37748 0.456146,-0.61278 0.298302,-1.231 -0.252426,-0.98866 -0.806515,-1.78 -1.340098,-1.91393 l -0.115975,-0.0291 0.1172,0.20215 c 0.06446,0.11119 0.167374,0.27635 0.228698,0.36702 0.144225,0.21324 0.287634,0.49652 0.287634,0.56816 0,0.0931 -0.166134,0.21717 -0.535781,0.40024 -0.359845,0.17823 -0.576995,0.34442 -0.576995,0.4416 0,0.10163 -0.222373,0.1442 -0.865492,0.16569 -0.64692,0.0216 -1.028332,-0.0135 -1.421974,-0.13073 -0.273844,-0.0816 -0.800648,-0.42821 -1.053152,-0.69295 -0.240476,-0.25213 -0.293093,-0.42961 -0.186202,-0.62809 0.10306,-0.19137 0.151678,-0.43303 0.08712,-0.43303 -0.05434,0 -0.436588,0.41534 -0.701716,0.76246 -0.08657,0.11334 -0.221576,0.34061 -0.300018,0.50504 -0.126359,0.26488 -0.147009,0.35653 -0.181089,0.80367 l -0.03847,0.5047 0.247257,0.23413 c 0.499487,0.47297 0.998803,0.74581 1.683388,0.91986 0.670502,0.17046 1.335206,0.2181 2.009101,0.144 z m 9.33603,-1.15522 c 0.79388,-0.0971 1.609011,-0.43284 2.056504,-0.84714 0.330256,-0.30576 0.40272,-0.52319 0.337032,-1.01129 -0.05351,-0.39762 -0.25024,-1.00262 -0.425798,-1.30947 -0.13074,-0.22851 -0.410525,-0.53987 -0.485119,-0.53987 -0.0605,0 -0.05022,0.21139 0.01995,0.41027 0.05484,0.15544 0.05434,0.18686 -0.0048,0.30399 -0.105641,0.20913 -0.218193,0.30859 -0.595929,0.52659 -0.394063,0.22743 -0.531974,0.33923 -0.531974,0.43125 0,0.0338 -0.04173,0.0792 -0.09273,0.10075 -0.176914,0.0748 0.220028,-0.007 0.752154,-0.15547 1.034475,-0.28819 1.012528,-0.2896 0.969849,0.0626 -0.111854,0.92301 -0.996947,1.53164 -2.329908,1.60215 -1.131165,0.0598 -2.16218,-0.25395 -2.822534,-0.85905 -0.278533,-0.25522 -0.39215,-0.41887 -0.39215,-0.56481 0,-0.12458 0.27209,-0.18702 0.793368,-0.18208 0.387403,0.004 0.443049,-0.004 0.443049,-0.0644 0,-0.0897 -0.09093,-0.22009 -0.35345,-0.5069 -0.229617,-0.25087 -0.470828,-0.68411 -0.470828,-0.84566 0,-0.0542 0.02919,-0.15494 0.06486,-0.22392 0.0897,-0.17347 0.04114,-0.19682 -0.110116,-0.0529 -0.391458,0.37236 -0.952753,1.45857 -1.045365,2.02299 -0.119262,0.72682 0.819834,1.39282 2.347645,1.66493 0.474342,0.0845 1.348861,0.10193 1.876314,0.0374 z m 17.853534,-1.21486 c 0.15374,-0.0973 0.19474,-0.14685 0.19577,-0.23645 0.002,-0.13512 -0.008,-0.13583 -0.24598,-0.0189 -0.16648,0.0817 -0.1868,0.10729 -0.19852,0.24994 -0.007,0.0874 0.002,0.15207 0.0206,0.14372 0.0185,-0.008 0.12117,-0.0706 0.22812,-0.1383 z m -3.67703,-5.24555 c 0.0113,-0.0112 -0.035,-0.007 -0.10304,0.009 -0.068,0.0161 -0.14176,0.0471 -0.16391,0.0687 -0.0221,0.0217 0.0242,0.0176 0.10303,-0.009 0.0788,-0.0267 0.15258,-0.0576 0.16392,-0.0687 z" stroke-width="0.0155769"/>
                    </g>
                </g>
                <g transform="matrix(0.42948147,0,0,0.42948147,0,-0.00294955)" >
                    <g >
                        <path gorn="0.2.0.0.13.0.0" id="path31"  fill="#ffff00" style="stroke-linecap:square;stroke-linejoin:round;stroke-dasharray:0.0155769, 0.0467307" d="m 64.355506,105.42298 c -1.416373,-0.30372 -2.517105,-1.3628 -2.942666,-2.83133 -0.604283,-2.08525 0.346995,-4.05484 2.31554,-4.794255 0.622657,-0.233879 1.134813,-0.317834 1.781115,-0.291969 0.659798,0.02641 0.910963,0.08753 1.463094,0.356057 1.037322,0.5045 1.766861,1.463613 2.090423,2.748247 0.07667,0.30438 0.09135,0.47283 0.08926,1.02375 -0.0027,0.70365 -0.05497,0.99482 -0.277761,1.54638 -0.470643,1.1652 -1.582902,2.00165 -2.987326,2.24656 -0.429145,0.0748 -1.174448,0.0732 -1.531677,-0.003 z m 1.346773,-0.72242 c 0.637116,-0.0881 1.285477,-0.40514 1.722767,-0.84243 0.470381,-0.47038 0.724858,-1.00842 0.862497,-1.82359 l 0.02275,-0.13472 -0.248008,0.2064 c -0.546535,0.45483 -1.204138,0.82046 -1.637418,0.9104 -0.12723,0.0264 -0.389873,0.0399 -0.583651,0.03 -0.293969,-0.015 -0.39527,-0.0399 -0.611607,-0.15034 -0.594757,-0.30356 -1.153683,-1.12389 -1.226026,-1.79942 -0.07572,-0.70702 0.258819,-1.340008 1.19472,-2.260574 l 0.455444,-0.447981 -0.515174,0.02125 c -0.603178,0.02488 -1.069588,0.144855 -1.564094,0.402322 -1.20597,0.627895 -1.841791,1.918053 -1.591068,3.228463 0.115577,0.60406 0.369478,1.09146 0.822648,1.57917 0.789062,0.8492 1.81183,1.23095 2.896223,1.08103 z" stroke-width="0.0155769"/>
                    </g>
                </g>
                <g transform="matrix(0.42948147,0,0,0.42948147,0,-0.00294955)" >
                    <g >
                        <path gorn="0.2.0.0.14.0.0" id="path32"  fill="#ffff00" style="stroke-linecap:square;stroke-linejoin:round;stroke-dasharray:0.0155769, 0.0467307" d="m 64.627307,110.97873 c -0.174098,-0.56431 -0.23566,-2.49272 -0.0991,-3.10418 0.147455,-0.66024 0.408719,-1.17124 0.748649,-1.46427 0.349642,-0.30141 0.590172,-0.34546 0.653268,-0.11963 0.158883,0.56866 0.202094,1.75059 0.09268,2.53505 -0.152651,1.09446 -0.540161,1.90633 -1.021002,2.13911 -0.216874,0.10498 -0.344937,0.10974 -0.374499,0.0139 z" stroke-width="0.0155769"/>
                    </g>
                </g>
                <g transform="matrix(0.42948147,0,0,0.42948147,0,-0.00294955)" >
                    <g >
                        <path gorn="0.2.0.0.15.0.0" id="path33"  fill="#ffff00" style="stroke-linecap:square;stroke-linejoin:round;stroke-dasharray:0.0997114, 0.299134" d="M 54.078039,102.43347 C 53.131882,100.99658 49.741266,96.7443 43.818586,89.566762 41.244333,86.447095 38.081651,82.529374 36.790404,80.860715 35.499157,79.192056 34.076858,77.387885 33.629739,76.851447 32.791245,75.845448 32.715125,75.531262 32.797215,73.41518 l 0.04833,-1.245773 1.385053,-0.392847 c 2.115544,-0.600039 5.770769,-1.159947 9.535818,-1.460698 4.929356,-0.393756 4.908307,-0.395419 4.908307,0.387797 0,0.502603 -0.141252,0.663962 -0.593595,0.678092 -0.566394,0.01769 -0.569416,0.02893 -0.06595,0.245277 0.290201,0.124704 1.016643,0.235078 1.614315,0.245277 2.94235,0.05021 6.723194,1.033471 13.601682,3.537318 l 2.552655,0.929195 -0.146842,-0.904887 c -0.125644,-0.774253 -0.07177,-0.904887 0.373178,-0.904887 0.824054,0 3.473146,1.440908 5.484958,2.983411 1.585501,1.21564 1.848919,1.534383 1.862152,2.253262 0.01098,0.59664 0.295362,1.124017 0.989324,1.834699 1.273423,1.304104 1.261338,1.744241 -0.01541,0.561332 -2.254996,-2.089252 -2.43586,-2.095505 -0.511314,-0.01768 3.514193,3.794084 5.370199,6.47022 7.664994,11.052 1.39682,2.788885 2.485959,6.038488 2.132138,6.361533 -0.137498,0.125538 -3.272965,0.613209 -6.967709,1.083709 -5.149094,0.65571 -6.743079,0.77936 -6.826354,0.52954 -0.417127,-1.251389 -1.666379,-3.126529 -2.429836,-3.647217 -0.767813,-0.523655 -1.141648,-0.600852 -2.384737,-0.492451 -2.699542,0.235409 -3.536808,1.009385 -4.197086,3.879828 -0.183573,0.79805 -0.438898,1.58424 -0.567386,1.74709 -0.128488,0.16285 -1.21109,0.3769 -2.405782,0.47566 -1.194692,0.0988 -2.362511,0.23512 -2.595155,0.30301 -0.280083,0.0817 -0.673647,-0.25724 -1.164913,-1.0033 z" stroke-width="0.0997114"/>
                    </g>
                </g>
                <g transform="matrix(0.42948147,0,0,0.42948147,0,-0.00294955)" >
                    <g >
                        <path gorn="0.2.0.0.16.0.0" id="path34"  fill="#ffff00" style="stroke-linecap:square;stroke-linejoin:round;stroke-dasharray:0.0997114, 0.299134" d="m 44.165812,216.54669 c -0.280812,-0.72508 -0.248269,-4.39245 0.522787,-58.91446 l 0.195876,-13.85053 0.852699,-2.01635 c 0.468985,-1.10899 2.164052,-4.61119 3.766816,-7.78268 3.339133,-6.60734 4.183304,-8.65002 4.183304,-10.12255 0,-1.38711 -0.742986,-3.27685 -2.220183,-5.64692 -0.66521,-1.06728 -1.209473,-2.25837 -1.209473,-2.64685 0,-0.63604 0.08407,-0.69811 0.844658,-0.62366 0.71227,0.0697 1.067701,0.39279 2.267712,2.06131 2.223996,3.0923 2.768581,4.44123 2.648801,6.56105 -0.09387,1.66134 -0.344617,2.27233 -4.024724,9.807 -2.158536,4.4194 -4.096185,8.5695 -4.305886,9.22246 -0.319257,0.99408 -0.42393,7.04474 -0.643516,37.19856 -0.192768,26.47128 -0.344058,36.18611 -0.57108,36.67093 -0.219577,0.46893 -0.55617,0.68345 -1.164587,0.74223 -0.729225,0.0705 -0.89825,-0.0271 -1.143204,-0.65954 z" stroke-width="0.0997114"/>
                    </g>
                </g>
                <g transform="matrix(0.42948147,0,0,0.42948147,0,-0.00294955)" >
                    <g >
                        <path gorn="0.2.0.0.17.0.0" id="path35"  fill="#ffff00" style="stroke-linecap:square;stroke-linejoin:round;stroke-dasharray:0.0997114, 0.299134" d="m 52.368195,128.82977 c 0,-0.31557 0.307213,-1.46384 0.682694,-2.55171 1.2254,-3.5503 0.925345,-4.23626 -7.381991,-16.87602 -5.975888,-9.09242 -6.458111,-10.073952 -4.949291,-10.073952 0.689314,0 1.127695,0.566715 5.342348,6.906282 2.525277,3.79846 5.526621,8.22074 6.669654,9.82729 2.87865,4.04598 3.413715,5.26533 3.287634,7.49216 -0.07614,1.34484 -0.328986,2.24324 -1.0709,3.8051 -0.898214,1.89091 -1.031695,2.04461 -1.775685,2.04461 -0.650138,0 -0.804463,-0.11007 -0.804463,-0.57376 z M 42.79073,100.27965 c -0.107955,-0.27469 -0.134127,-0.561596 -0.05816,-0.637562 0.240619,-0.240619 0.452335,0.153692 0.351511,0.654672 -0.0924,0.45914 -0.106511,0.45831 -0.29335,-0.0171 z" stroke-width="0.0997114"/>
                    </g>
                </g>
                <g transform="matrix(0.42948147,0,0,0.42948147,0,-0.00294955)" >
                    <g >
                        <path gorn="0.2.0.0.18.0.0" id="path36"  fill="#ffff00" style="stroke-linecap:square;stroke-linejoin:round;stroke-dasharray:0.0997114, 0.299134" d="m 52.104376,129.30303 c 0,-0.34548 0.296797,-1.41666 0.659549,-2.3804 0.407752,-1.0833 0.659549,-2.2998 0.659549,-3.18646 0,-2.40681 -0.792191,-3.7506 -13.940359,-23.64681 -6.639,-10.046341 -7.155661,-11.056598 -5.648248,-11.044335 0.660189,0.0054 1.414274,1.030076 8.376273,11.382295 4.207923,6.25701 8.757904,12.96725 10.111069,14.91164 3.276063,4.70744 3.826266,5.93131 3.69677,8.22308 -0.07944,1.40595 -0.326319,2.2405 -1.203656,4.06892 -1.029759,2.14608 -1.157562,2.3002 -1.907331,2.3002 -0.670595,0 -0.803616,-0.10397 -0.803616,-0.62813 z" stroke-width="0.0997114"/>
                    </g>
                </g>
                <g transform="matrix(0.42948147,0,0,0.42948147,0,-0.00294955)" >
                    <g >
                        <path gorn="0.2.0.0.19.0.0" id="path37"  fill="#ffff00" style="stroke-linecap:square;stroke-linejoin:round;stroke-dasharray:0.0997114, 0.299134" d="m 52.104376,129.32963 c 0,-0.34923 0.251574,-1.33618 0.559053,-2.19323 0.33294,-0.92801 0.569217,-2.25184 0.584182,-3.27309 0.03856,-2.63099 -0.140978,-2.94444 -12.013024,-20.97366 -4.490724,-6.819734 -9.038127,-13.676416 -10.10534,-15.237068 -2.738681,-4.004943 -2.76273,-4.163258 -1.873282,-12.332079 0.387077,-3.55497 0.876472,-8.455823 1.087544,-10.890786 0.398793,-4.600534 0.894982,-7.309769 1.58213,-8.638565 0.221068,-0.427501 2.322243,-3.657888 4.669276,-7.178643 2.347033,-3.520752 5.312826,-8.116793 6.590651,-10.213426 2.298755,-3.77175 2.323303,-3.830325 2.321818,-5.540212 -0.002,-2.353009 -0.624413,-9.319279 -1.721118,-19.264758 -1.160411,-10.5231954 -1.164634,-9.8215154 0.05849,-9.7186991 0.834627,0.070159 1.002315,0.1951765 1.171432,0.8733393 0.584854,2.3452781 2.503034,20.7397298 2.782858,26.6863048 l 0.163294,3.470178 -0.869937,1.542395 c -1.110833,1.969503 -3.581498,5.658881 -8.453123,12.622819 -2.131611,3.047117 -4.068111,5.916912 -4.303332,6.377322 -0.558316,1.092826 -1.106404,4.625946 -1.629955,10.507134 -0.232508,2.611814 -0.599153,6.05466 -0.814767,7.650769 -0.648021,4.797043 -0.773485,9.579365 -0.28195,10.747125 0.381866,0.907215 3.483971,5.544758 17.921546,26.7921 2.888002,4.25019 5.553662,8.3889 5.92369,9.19715 0.987587,2.15718 0.796136,4.47281 -0.6074,7.34665 -0.944664,1.93426 -1.102264,2.11746 -1.886748,2.19323 -0.751231,0.0725 -0.855984,0.005 -0.855984,-0.5523 z M 42.865398,100.5089 c -0.183545,-0.22116 -0.282626,-0.45319 -0.220181,-0.51564 0.06244,-0.06244 0.258446,0.1185 0.435559,0.40211 0.383017,0.6133 0.255279,0.68064 -0.215378,0.11353 z" stroke-width="0.0997114"/>
                    </g>
                </g>
                <g transform="matrix(0.42948147,0,0,0.42948147,0,-0.00294955)" >
                    <g >
                        <path gorn="0.2.0.0.20.0.0" id="path38"  fill="#ffff00" style="stroke-linecap:square;stroke-linejoin:round;stroke-dasharray:0.0997114, 0.299134" d="M 96.689892,14.360833 C 84.049405,13.232357 47.736788,10.157056 47.052424,10.157056 c -0.402799,0 -0.48826,-0.2077964 -0.48826,-1.1871888 0,-0.6529536 0.02968,-1.1862086 0.06596,-1.1850112 0.960256,0.031697 56.981286,5.251244 57.038306,5.314327 0.0456,0.05049 0.16562,0.477634 0.26666,0.949212 0.18286,0.853552 0.17913,0.857274 -0.8266,0.826338 -0.55566,-0.01709 -3.444027,-0.248346 -6.418593,-0.5139 z" stroke-width="0.0997114"/>
                    </g>
                </g>
                <g transform="matrix(0.42948147,0,0,0.42948147,0,-0.00294955)" >
                    <g >
                        <path gorn="0.2.0.0.21.0.0" id="path39"  fill="#ffff00" style="stroke-linecap:square;stroke-linejoin:round;stroke-dasharray:0.0997114, 0.299134" d="M 99.855728,37.160596 C 98.47727,37.117901 92.303891,36.899988 86.137107,36.676343 79.970324,36.452699 70.769614,36.15289 65.691086,36.010101 60.612559,35.867313 54.704238,35.672765 52.561485,35.577774 l -3.895914,-0.172711 0.168484,-0.949985 c 0.09267,-0.522492 0.243123,-1.026805 0.334349,-1.120696 0.126647,-0.130346 57.706366,1.710029 58.008316,1.854074 0.0363,0.01731 0.066,0.44698 0.066,0.954833 v 0.923368 h -1.68185 c -0.92502,0 -2.02317,0.0386 -2.44033,0.08578 -0.41717,0.04718 -1.88631,0.05085 -3.264772,0.0082 z" stroke-width="0.0997114"/>
                    </g>
                </g>
                <g transform="matrix(0.42948147,0,0,0.42948147,0,-0.00294955)" >
                    <g >
                        <path gorn="0.2.0.0.22.0.0" id="path40"  fill="#ffff00" style="stroke-linecap:square;stroke-linejoin:round;stroke-dasharray:0.0997114, 0.299134" d="m 107.02358,34.350439 c -0.33906,-0.408549 -2.4191,-15.266696 -2.4191,-17.280166 v -1.406436 l 0.85741,0.08267 c 0.84702,0.08167 0.85985,0.10346 1.0579,1.797498 0.25228,2.158 1.98389,14.830856 2.20794,16.158952 0.16212,0.960967 0.14415,0.989324 -0.62677,0.989324 -0.43652,0 -0.92134,-0.153829 -1.07738,-0.341842 z" stroke-width="0.0997114"/>
                    </g>
                </g>
                <g transform="matrix(0.42948147,0,0,0.42948147,0,-0.00294955)" >
                    <g >
                        <path gorn="0.2.0.0.23.0.0" id="path41"  fill="#ffff00" style="stroke-linecap:square;stroke-linejoin:round;stroke-dasharray:0.0997114, 0.299134" d="m 103.74707,12.60629 c -1.52478,-0.230984 -0.59169,-2.449234 1.03024,-2.449234 0.58839,0 0.69475,0.186495 1.01563,1.780782 0.16337,0.811758 0.13282,0.855309 -0.5739,0.817885 -0.41056,-0.02174 -1.07295,-0.08899 -1.47197,-0.149433 z" stroke-width="0.0997114"/>
                    </g>
                </g>
                <g transform="matrix(0.42948147,0,0,0.42948147,0,-0.00294955)" >
                    <g >
                        <path gorn="0.2.0.0.24.0.0" id="path42"  fill="#ffff00" style="stroke-linecap:square;stroke-linejoin:round;stroke-dasharray:0.0997114, 0.299134" d="m 104.60448,14.773899 c 0,-0.850085 0.0628,-0.923369 0.79146,-0.923369 0.72864,0 0.79146,0.07328 0.79146,0.923369 0,0.850085 -0.0628,0.923369 -0.79146,0.923369 -0.72864,0 -0.79146,-0.07328 -0.79146,-0.923369 z" stroke-width="0.0997114"/>
                    </g>
                </g>
                <g transform="matrix(0.42948147,0,0,0.42948147,0,-0.00294955)" >
                    <g >
                        <path gorn="0.2.0.0.25.0.0" id="path43"  fill="#ffff00" style="stroke-linecap:square;stroke-linejoin:round;stroke-dasharray:0.0997114, 0.299134" d="m 108.29796,40.775703 c 0,-0.426739 0.13217,-0.857578 0.29371,-0.957415 0.16154,-0.09984 0.51867,-0.69007 0.79361,-1.311622 0.47984,-1.08476 0.4835,-1.287128 0.0912,-5.044482 -0.2248,-2.152912 -1.04337,-8.247623 -1.81904,-13.543802 -0.77568,-5.296179 -1.35738,-9.718456 -1.29268,-9.827281 0.0647,-0.108826 0.52614,-0.1978651 1.02543,-0.1978651 1.3118,0 1.88786,0.7063791 2.07998,2.5505471 0.0882,0.846261 0.81024,6.113746 1.60461,11.70552 0.79438,5.591775 1.44432,11.059278 1.44432,12.150006 0,1.734403 -0.0958,2.134235 -0.76394,3.187745 -0.915,1.442806 -1.73545,2.064537 -2.72442,2.064537 -0.63502,0 -0.73275,-0.103483 -0.73275,-0.775888 z" stroke-width="0.0997114"/>
                    </g>
                </g>
                <g transform="matrix(0.42948147,0,0,0.42948147,0,-0.00294955)" >
                    <g >
                        <path gorn="0.2.0.0.26.0.0" id="path44"  fill="#ffff00" style="stroke-linecap:square;stroke-linejoin:round;stroke-dasharray:0.0997114, 0.299134" d="m 101.70247,46.045807 c 0,-0.83144 0.58567,-1.328381 1.56557,-1.328381 0.42822,0 0.54498,0.167583 0.54498,0.782177 0,0.83144 -0.58567,1.32838 -1.56557,1.32838 -0.42822,0 -0.54498,-0.167582 -0.54498,-0.782176 z" stroke-width="0.0997114"/>
                    </g>
                </g>
                <g transform="matrix(0.42948147,0,0,0.42948147,0,-0.00294955)" >
                    <g >
                        <path gorn="0.2.0.0.27.0.0" id="path45"  fill="#ffff00" style="stroke-linecap:square;stroke-linejoin:round;stroke-dasharray:0.0997114, 0.299134" d="m 105.39594,43.312406 c 0,-0.810237 1.04175,-1.760815 1.9297,-1.760815 0.60506,0 0.7085,0.111115 0.7085,0.761117 0,0.874467 -0.90188,1.613259 -1.96937,1.613259 -0.52417,0 -0.66883,-0.132705 -0.66883,-0.613561 z" stroke-width="0.0997114"/>
                    </g>
                </g>
                <g transform="matrix(0.42948147,0,0,0.42948147,0,-0.00294955)" >
                    <g >
                        <path gorn="0.2.0.0.28.0.0" id="path46"  fill="#ffff00" style="stroke-linecap:square;stroke-linejoin:round;stroke-dasharray:0.0997114, 0.299134" d="m 103.81302,44.548646 c 0,-0.79417 0.64669,-1.393446 1.51696,-1.405747 0.484,-0.0068 0.5936,0.136034 0.5936,0.773786 0,0.83144 -0.58567,1.328381 -1.56557,1.328381 -0.41313,0 -0.54499,-0.168492 -0.54499,-0.69642 z" stroke-width="0.0997114"/>
                    </g>
                </g>
                <g transform="matrix(0.42948147,0,0,0.42948147,0,-0.00294955)" >
                    <g >
                        <path gorn="0.2.0.0.29.0.0" id="path47"  fill="#ffff00" style="stroke-linecap:square;stroke-linejoin:round;stroke-dasharray:0.0997114, 0.299134" d="m 103.98264,193.18192 c -0.0857,-0.32648 -0.0829,-14.30562 0.006,-31.06476 0.15117,-28.45172 0.19288,-30.53236 0.62936,-31.39454 0.75246,-1.4863 2.78742,-4.25397 7.37112,-10.02514 5.22491,-6.57852 6.07291,-7.82582 6.25783,-9.20451 0.22148,-1.65128 -0.82178,-3.4769 -3.652,-6.3907 -1.32296,-1.36204 -5.74446,-6.096595 -9.82554,-10.521233 -4.08107,-4.424635 -9.10024,-9.77471 -11.153697,-11.88905 -4.850321,-4.994129 -4.76903,-4.729012 -3.675857,-11.988328 0.34961,-2.321612 1.006251,-6.714209 1.459202,-9.761326 1.323066,-8.90059 1.324169,-8.903268 4.736414,-11.507033 2.017419,-1.539422 3.199176,-1.748418 3.181837,-0.562715 -0.0084,0.575456 -0.341011,0.971038 -1.608145,1.912693 -0.878645,0.652953 -1.808964,1.602704 -2.067377,2.110557 -0.64143,1.260589 -1.19364,3.855126 -1.852958,8.706047 -0.305684,2.249063 -0.917534,6.279594 -1.359667,8.956736 -0.653623,3.957728 -0.750698,5.042576 -0.519357,5.804033 0.20303,0.668268 2.410343,3.203377 7.706628,8.851088 4.082157,4.353023 8.442887,9.042417 9.690497,10.420875 1.24762,1.378457 4.18307,4.465146 6.52324,6.859306 2.34016,2.39417 4.57021,4.89688 4.95565,5.56158 1.01271,1.74641 1.17212,3.34798 0.47512,4.7735 -0.30686,0.62759 -3.18419,4.58392 -6.39407,8.79185 -3.20988,4.20792 -6.32246,8.36308 -6.91684,9.23368 l -1.08071,1.58292 -0.20123,4.61684 c -0.11069,2.53927 -0.19284,16.11002 -0.18257,30.15722 0.0175,24.00076 -0.009,25.57122 -0.44452,26.05219 -0.65744,0.72646 -1.859,0.67873 -2.05853,-0.0818 z" stroke-width="0.0997114"/>
                    </g>
                </g>
                <g transform="matrix(0.42948147,0,0,0.42948147,0,-0.00294955)" >
                    <g >
                        <path gorn="0.2.0.0.30.0.0" id="path48"  fill="#ffff00" style="stroke-linecap:square;stroke-linejoin:round;stroke-dasharray:0.0505016, 0.151505" d="m 57.053275,123.78437 c 0.05268,-0.47033 0.134791,-0.89207 0.182469,-0.9372 0.358402,-0.33922 9.428627,-2.03831 20.53035,-3.84587 3.601025,-0.58631 7.870143,-1.30677 9.48693,-1.60102 1.616786,-0.29424 6.096354,-1.11217 9.954594,-1.81762 6.746862,-1.2336 14.059692,-2.48418 15.666792,-2.67921 l 0.76831,-0.0932 v 0.39296 c 0,0.76945 -1.05558,1.36453 -3.00642,1.69486 -0.66141,0.11199 -1.95417,0.33103 -2.8728,0.48675 -0.91863,0.15572 -7.17199,1.3324 -13.89635,2.61483 -24.599577,4.6915 -33.260335,6.26602 -36.024474,6.54921 l -0.885182,0.0907 z" stroke-width="0.0505016"/>
                    </g>
                </g>
                <g transform="matrix(0.42948147,0,0,0.42948147,0,-0.00294955)" >
                    <g >
                        <path gorn="0.2.0.0.31.0.0" id="path49"  fill="#ffff00" style="stroke-linecap:square;stroke-linejoin:round;stroke-dasharray:0.0505016, 0.151505" d="m 38.549,51.016549 c 0,-0.100765 0.08729,-0.39211 0.193966,-0.647434 0.229977,-0.550412 0.714578,-0.776359 1.476268,-0.688314 0.293962,0.03398 4.412759,-0.02634 9.152883,-0.13404 8.253489,-0.187528 18.626442,-0.171209 19.414751,0.03054 0.3502,0.08963 0.371529,0.13519 0.334047,0.713584 l -0.04004,0.617844 -9.553739,0.08788 c -5.254556,0.04833 -12.124228,0.113813 -15.265938,0.145513 -4.777857,0.04821 -5.712201,0.02767 -5.712201,-0.125573 z" stroke-width="0.0505016"/>
                    </g>
                </g>
                <g transform="matrix(0.42948147,0,0,0.42948147,0,-0.00294955)" >
                    <g >
                        <path gorn="0.2.0.0.32.0.0" id="path50"  fill="#ffff00" style="stroke-linecap:square;stroke-linejoin:round;stroke-dasharray:0.0505016, 0.151505" d="m 69.281306,103.7421 c 0,-0.27951 0.420303,-1.5906 0.510551,-1.59262 0.0499,-10e-4 0.722081,-0.11682 1.49373,-0.25713 2.371408,-0.43117 5.712584,-0.88589 15.232534,-2.073047 10.239332,-1.276871 10.726449,-1.349723 11.08527,-1.657862 0.244507,-0.209973 -0.36794,-0.904284 -14.98503,-16.988069 l -15.239955,-16.769149 -0.927229,-0.03942 -0.92723,-0.03942 0.04142,-0.428245 0.04142,-0.428245 2.859919,-0.176196 c 2.719798,-0.167562 2.871195,-0.164289 3.090062,0.06681 2.889702,3.051193 22.577616,24.816926 22.577616,24.960407 0,0.134935 -0.130901,0.202488 -0.392366,0.202488 -0.907317,0 -6.34228,-4.748558 -10.613323,-9.272921 -1.325187,-1.403785 -2.885133,-2.989713 -3.466548,-3.524286 -1.206361,-1.10917 -1.909497,-1.567404 -1.14783,-0.748041 0.264545,0.284583 4.078249,4.515963 8.4749,9.403068 4.396652,4.887105 8.816289,9.727443 9.821416,10.756307 2.683803,2.747185 3.991207,4.400636 3.705517,4.686325 -0.0673,0.06728 -30.578295,4.058256 -31.067825,4.063806 -0.09186,10e-4 -0.167023,-0.064 -0.167023,-0.14456 z" stroke-width="0.0505016"/>
                    </g>
                </g>
                <g transform="matrix(0.42948147,0,0,0.42948147,0,-0.00294955)" >
                    <g >
                        <path gorn="0.2.0.0.33.0.0" id="path51"  fill="#ffff00" style="stroke-linecap:square;stroke-linejoin:round;stroke-dasharray:0.0505016, 0.151505" d="M 80.214019,81.803825 C 76.210088,77.237529 71.530233,72.896569 66.675741,69.245931 64.30087,67.459999 63.928041,67.258557 62.429223,66.951507 61.30115,66.720409 57.146746,66.43621 55.852625,66.501608 l -0.801713,0.04051 v -0.467665 -0.467666 l 1.135759,-0.03998 c 0.624668,-0.02199 2.06775,0.02722 3.20685,0.109359 1.139099,0.08214 2.68923,0.183255 3.444735,0.224703 l 1.373646,0.07536 1.072675,-0.559772 c 0.765018,-0.399223 1.199915,-0.548011 1.516312,-0.518765 0.401197,0.03708 1.181375,0.859104 8.155221,8.592604 4.241371,4.703379 7.746949,8.638185 7.790175,8.744013 0.04322,0.105829 0.0073,0.216189 -0.0799,0.245246 -0.08717,0.02906 -0.117716,0.122855 -0.06788,0.208441 0.04984,0.08558 -0.02969,0.05039 -0.176712,-0.07822 -0.432665,-0.378462 -0.480831,-0.269872 -0.117478,0.26485 0.436224,0.641961 0.427632,0.703886 -0.09766,0.703886 -0.392928,0 -0.591918,-0.177225 -1.99264,-1.774684 z" stroke-width="0.0505016"/>
                    </g>
                </g>
                <g transform="matrix(0.42948147,0,0,0.42948147,0,-0.00294955)" >
                    <g >
                        <path gorn="0.2.0.0.34.0.0" id="path52"  fill="#ffff00" style="stroke-linecap:square;stroke-linejoin:round;stroke-dasharray:0.0505016, 0.151505" d="m 54.755691,103.25966 c -0.149781,-0.1318 -0.711687,-0.84091 -1.24868,-1.57581 -1.38683,-1.897952 -3.339784,-4.339114 -9.139636,-11.424405 -2.797319,-3.417299 -5.837064,-7.17014 -6.754988,-8.339647 -0.917923,-1.169507 -2.345409,-2.97336 -3.172191,-4.008562 -0.826781,-1.035201 -1.559067,-2.079631 -1.627303,-2.320954 -0.06824,-0.241323 -0.08901,-1.103166 -0.04618,-1.915208 0.0901,-1.707851 -0.101435,-1.513252 2.015269,-2.047542 2.372051,-0.598743 5.962364,-1.108321 9.980285,-1.416514 2.915654,-0.223644 7.839085,0.0364 10.355451,0.546957 2.159087,0.438065 2.271518,0.483915 2.271518,0.926348 0,0.358967 -0.0306,0.381929 -0.434261,0.325911 -3.647298,-0.506144 -9.622285,-0.797472 -9.005668,-0.439099 0.136085,0.07909 0.947819,0.199184 1.803853,0.26687 3.418078,0.270267 6.432207,1.037619 12.262858,3.121939 1.953261,0.698244 3.575276,1.269535 3.60448,1.269535 0.134602,0 0.02388,-0.628681 -0.151579,-0.860655 -0.107898,-0.142654 -0.196179,-0.419285 -0.196179,-0.614734 0,-0.353482 0.0037,-0.354784 0.701499,-0.246139 0.385824,0.06007 1.242654,0.378231 1.904066,0.707019 2.504209,1.24484 4.482944,2.781486 7.758653,6.025211 3.692788,3.656733 7.209124,7.924115 9.772034,11.859219 0.646764,0.993045 1.250361,1.917773 1.341326,2.054951 0.316854,0.477824 -0.5176,-1.362908 -1.183238,-2.610114 -1.452685,-2.721905 -4.419637,-6.852143 -7.544343,-10.502344 -2.044464,-2.38829 -5.952583,-6.329521 -7.538867,-7.602741 -1.677209,-1.346201 -2.143319,-1.527547 -4.354695,-1.69425 -2.474988,-0.186575 -3.899463,-0.668735 -4.59753,-1.556183 -0.149265,-0.189759 -0.421844,-0.838277 -0.605731,-1.44115 l -0.334343,-1.096134 -0.899669,-0.08497 c -0.494818,-0.04673 -1.790373,-0.0854 -2.879012,-0.08592 l -1.979342,-9.5e-4 0.04187,-0.43426 0.04187,-0.434261 2.204708,-0.04125 c 5.516471,-0.103218 7.305323,0.619282 13.495491,5.450697 5.455846,4.258277 10.388512,9.980782 15.262673,17.706593 2.375868,3.765881 3.64894,6.298072 3.802711,7.563744 l 0.07479,0.615572 -1.48136,0.163584 c -0.814748,0.08997 -1.537281,0.129025 -1.605627,0.08678 -0.06835,-0.04224 -1.528616,-2.316419 -3.245046,-5.053732 -3.184529,-5.078595 -4.066826,-6.319869 -6.563507,-9.233973 -1.278597,-1.492369 -3.771172,-3.949434 -4.141056,-4.082064 -0.08022,-0.02876 0.712602,0.903225 1.761828,2.07109 3.143041,3.49843 4.829203,5.979759 6.890891,10.140513 1.323333,2.670658 2.151125,4.841791 2.287079,5.998544 l 0.08129,0.691683 -3.656128,0.501355 c -2.010869,0.27575 -4.918823,0.64911 -6.462119,0.82969 -1.543296,0.18058 -2.990087,0.35935 -3.215093,0.39726 -0.396678,0.0668 -0.425989,0.0354 -0.965253,-1.03476 -0.647111,-1.284203 -1.354844,-2.246966 -2.079434,-2.828751 -0.508565,-0.408335 -0.531165,-0.41284 -2.07109,-0.41284 -1.462668,0 -1.605447,0.02426 -2.358627,0.400856 -1.018258,0.509129 -1.527902,1.23951 -1.926675,2.761155 -0.160538,0.61258 -0.385851,1.42519 -0.500695,1.8058 l -0.208807,0.692 -0.886621,0.14107 c -0.487641,0.0776 -1.517969,0.20377 -2.289617,0.2804 -0.771648,0.0766 -1.558468,0.17035 -1.74849,0.20826 -0.221714,0.0442 -0.44306,-0.0169 -0.617821,-0.17069 z" stroke-width="0.0505016"/>
                    </g>
                </g>
                <g transform="matrix(0.42948147,0,0,0.42948147,0,-0.00294955)" >
                    <g >
                        <path gorn="0.2.0.0.35.0.0" id="path53"  fill="#ffff00" style="stroke-linecap:square;stroke-linejoin:round;stroke-dasharray:0.0505016, 0.151505" d="m 47.635073,65.017252 c 0,-0.464072 0.132092,-0.495174 2.605565,-0.613495 0.881884,-0.04219 1.893309,-0.110665 2.247612,-0.152177 l 0.644188,-0.07547 -0.0429,0.448105 -0.0429,0.448106 -2.00428,0.154383 c -1.102355,0.08491 -2.319955,0.160071 -2.705779,0.167023 -0.688552,0.01241 -0.701499,0.0055 -0.701499,-0.37647 z" stroke-width="0.0505016"/>
                    </g>
                </g>
                <g transform="matrix(0.42948147,0,0,0.42948147,0,-0.00294955)" >
                    <g >
                        <path gorn="0.2.0.0.36.0.0" id="path54"  fill="#ffff00" style="stroke-linecap:square;stroke-linejoin:round;stroke-dasharray:0.0505016, 0.151505" d="m 47.061482,106.26029 c -0.713192,-0.88456 -1.83911,-2.4508 -2.761553,-3.84154 -0.46307,-0.69816 -1.018641,-1.45692 -1.234603,-1.68615 -0.215961,-0.22922 -0.407176,-0.51569 -0.424923,-0.63661 -0.04831,-0.329178 -2.551026,-4.169234 -4.885846,-7.496635 -3.594327,-5.12235 -5.419183,-8.202192 -5.582824,-9.422227 -0.06871,-0.512273 -0.0565,-0.53395 0.300815,-0.53395 1.225646,0 7.221656,6.26814 13.57236,14.188346 3.284655,4.096416 5.993397,7.881956 6.504082,9.089636 0.179498,0.42448 0.337286,0.37954 -2.469817,0.70339 -2.53693,0.29269 -2.482738,0.29923 -3.017691,-0.36426 z" stroke-width="0.0505016"/>
                    </g>
                </g>
                <g transform="matrix(0.42948147,0,0,0.42948147,0,-0.00294955)" >
                    <g >
                        <path gorn="0.2.0.0.37.0.0" id="path55"  fill="#ffff00" style="stroke-linecap:square;stroke-linejoin:round;stroke-dasharray:0.0505016, 0.151505" d="m 66.296955,169.27341 c -0.177547,-9.07604 -0.0427,-21.16634 0.243788,-21.85855 0.133565,-0.32272 1.436215,-0.91432 3.341847,-1.51772 0.881884,-0.27924 1.62134,-0.54918 1.643236,-0.59987 0.0219,-0.0507 0.157185,-0.0615 0.300642,-0.0239 0.143457,0.0375 0.260831,0.007 0.260831,-0.0685 0,-0.0752 0.120257,-0.10524 0.267237,-0.0668 0.146981,0.0384 0.267238,0.005 0.267238,-0.0751 0,-0.0804 0.09914,-0.10697 0.222347,-0.0597 0.160791,0.0617 0.192285,0.0367 0.11376,-0.0904 -0.08231,-0.13318 -0.02393,-0.15951 0.241274,-0.10881 0.214084,0.0409 0.317797,0.015 0.267238,-0.0668 -0.05056,-0.0818 0.05315,-0.10774 0.267237,-0.0668 0.214084,0.0409 0.317797,0.015 0.267238,-0.0668 -0.05056,-0.0818 0.05315,-0.10774 0.267237,-0.0668 0.214084,0.0409 0.317796,0.015 0.267238,-0.0668 -0.05056,-0.0818 0.05315,-0.10773 0.267237,-0.0668 0.214084,0.0409 0.317796,0.015 0.267237,-0.0668 -0.05056,-0.0818 0.05315,-0.10773 0.267238,-0.0668 0.214084,0.0409 0.317796,0.015 0.267237,-0.0668 -0.05056,-0.0818 0.05315,-0.10773 0.267238,-0.0668 0.216432,0.0414 0.318001,0.0153 0.26632,-0.0683 -0.05344,-0.0865 0.06837,-0.10479 0.33809,-0.0508 0.257371,0.0515 0.421633,0.0301 0.421633,-0.055 0,-0.0785 0.116668,-0.10225 0.267237,-0.0545 0.1553,0.0493 0.267238,0.024 0.267238,-0.0603 0,-0.0881 0.131263,-0.11222 0.334046,-0.0613 0.191944,0.0482 0.334047,0.0262 0.334047,-0.0518 0,-0.0746 0.120257,-0.10415 0.267238,-0.0657 0.155325,0.0406 0.267237,0.004 0.267237,-0.0872 0,-0.0864 0.05848,-0.12094 0.129963,-0.0768 0.07148,0.0442 1.048568,-0.0992 2.171304,-0.31859 2.706147,-0.52883 5.014211,-0.83836 5.880215,-0.78858 l 0.704163,0.0405 0.125632,0.80172 c 0.071,0.45306 0.129107,5.96353 0.133619,12.67113 0.0079,11.6973 0.0041,11.87224 -0.257732,12.06373 -0.374461,0.27383 -4.10553,1.4686 -7.885023,2.52496 -3.695,1.03275 -11.734151,3.07155 -12.638518,3.20525 l -0.612834,0.0906 z m 6.951121,-1.31331 2.697393,-0.76893 -0.273813,-0.68517 c -0.150596,-0.37684 -0.33309,-0.85052 -0.40554,-1.05262 -0.117239,-0.32703 -0.197985,-0.36745 -0.73406,-0.36745 -0.331281,0 -0.97178,0.094 -1.42333,0.20892 -0.888934,0.22621 -3.46834,0.99923 -3.533124,1.05884 -0.102238,0.0941 0.72014,2.47188 0.839307,2.42675 0.07468,-0.0283 1.349601,-0.39743 2.833167,-0.82034 z m 9.898649,-2.69237 c 1.37658,-0.34095 2.554023,-0.66568 2.616538,-0.72163 0.09887,-0.0885 -0.475878,-1.61756 -0.714998,-1.90222 -0.117129,-0.13943 -5.21108,0.98921 -5.21108,1.1546 0,0.15427 0.710923,2.08916 0.767607,2.08916 0.02148,0 1.165353,-0.27896 2.541933,-0.61991 z m -11.839488,-3.84505 c 1.334377,-0.25744 2.845251,-0.83827 3.310113,-1.27251 0.458389,-0.4282 0.613958,-1.2608 0.602574,-3.22495 -0.0083,-1.43656 -0.260043,-2.0944 -0.885575,-2.31439 -0.534693,-0.18804 -2.673143,0.36204 -3.990363,1.02646 -0.916251,0.46217 -1.136991,0.63478 -1.232608,0.96385 -0.19515,0.67161 -0.185982,3.67957 0.01293,4.24136 0.288866,0.81586 0.571686,0.89103 2.182932,0.58018 z m 11.001894,-2.70265 c 0.440942,-0.11213 1.23583,-0.38407 1.766418,-0.6043 0.895761,-0.3718 0.972155,-0.43545 1.06895,-0.89069 0.05733,-0.26966 0.104244,-1.33472 0.104244,-2.36682 0,-1.60518 -0.03598,-1.93145 -0.248808,-2.25627 -0.24408,-0.37251 -0.267128,-0.37834 -1.212807,-0.30682 -1.0859,0.0821 -3.818667,0.92946 -4.126704,1.27955 -0.28931,0.3288 -0.491745,1.48983 -0.488067,2.7992 0.0039,1.37357 0.186542,2.29676 0.503134,2.54259 0.267108,0.20741 1.368725,0.12524 2.63364,-0.19644 z m -10.823116,-5.19257 c 0.955374,-0.24315 1.900732,-0.47854 2.100796,-0.52308 0.439272,-0.0978 0.842897,-0.50728 1.030501,-1.04544 l 0.13858,-0.39754 -0.499179,0.0915 c -0.274549,0.0503 -1.220721,0.30183 -2.102605,0.55894 -1.269946,0.37024 -1.777111,0.45713 -2.438541,0.41778 -0.828472,-0.0493 -0.835117,-0.0468 -0.835117,0.3074 0,0.1964 -0.03844,0.54928 -0.08542,0.78419 l -0.08542,0.4271 0.519682,-0.0894 c 0.285825,-0.0491 1.301351,-0.2883 2.256725,-0.53146 z m 10.088213,-2.36388 c 0.624667,-0.15075 1.376273,-0.39356 1.670234,-0.5396 0.597238,-0.29669 1.269378,-0.8782 1.269378,-1.09821 0,-0.0792 0.120373,-0.36859 0.267496,-0.64309 l 0.267498,-0.49909 h -0.716072 c -0.393838,0 -1.340977,0.17657 -2.104754,0.39237 -0.763775,0.21581 -1.651141,0.4605 -1.971922,0.54376 -0.811104,0.21053 -1.220614,0.65284 -1.220614,1.31838 0,0.89454 0.08423,0.98957 0.787331,0.88827 0.338617,-0.0488 1.126757,-0.21205 1.751425,-0.36279 z" stroke-width="0.0505016"/>
                    </g>
                </g>
                <g transform="matrix(0.42948147,0,0,0.42948147,0,-0.00294955)" >
                    <g >
                        <path gorn="0.2.0.0.38.0.0" id="path56"  fill="#ffff00" style="stroke-linecap:square;stroke-linejoin:round;stroke-dasharray:0.0505016, 0.151505" d="m 64.511433,192.07533 c -0.739096,-0.29764 -0.698991,0.96986 -0.725639,-22.93363 -0.01565,-14.03822 0.02277,-22.17288 0.105924,-22.42835 0.397548,-1.22134 3.3208,-2.2931 9.48643,-3.47806 1.384506,-0.26608 4.170816,-0.8985 6.191799,-1.40538 6.091191,-1.52773 9.446635,-2.08834 9.885788,-1.65168 0.412385,0.41005 0.469736,3.40688 0.443427,23.17065 -0.0197,14.80057 -0.06598,19.85149 -0.185849,20.28186 -0.226048,0.81163 -1.049015,1.49307 -2.42454,2.00757 -0.607584,0.22727 -3.149066,1.01409 -5.647736,1.74849 -2.49867,0.73441 -6.624464,1.99892 -9.168431,2.81003 -6.097035,1.94395 -7.169997,2.19712 -7.961173,1.8785 z m 4.168589,-2.55029 c 1.182104,-0.19994 4.645515,-1.19743 8.340167,-2.40203 1.57399,-0.51318 4.189577,-1.29371 5.812415,-1.73453 1.622838,-0.4408 3.325957,-0.98376 3.784711,-1.20657 1.033728,-0.50206 1.438422,-1.11538 1.627416,-2.46636 0.07824,-0.5593 0.139855,-8.40551 0.154716,-19.70285 0.02754,-20.93616 0.08655,-19.5811 -0.870085,-19.98081 -0.665101,-0.2779 -1.478474,-0.24397 -3.332781,0.13902 -1.727357,0.35676 -5.191551,1.23639 -4.949025,1.25665 0.0799,0.007 0.96786,-0.13981 1.973242,-0.32553 2.619002,-0.48378 4.430339,-0.72602 5.449727,-0.72884 l 0.887308,-0.002 0.08629,0.50107 c 0.132599,0.76995 0.239519,22.52033 0.117409,23.88434 l -0.107656,1.20257 -1.082637,0.42602 c -2.743347,1.07951 -18.665201,5.38613 -19.913652,5.38635 -0.282492,4e-5 -0.286392,-0.0388 -0.384331,-3.82599 -0.116773,-4.51553 0.0088,-21.39156 0.164836,-22.16132 0.136077,-0.67108 0.601206,-0.94617 2.959187,-1.75017 1.975893,-0.67372 1.895171,-0.74787 -0.211172,-0.19396 -1.740512,0.4577 -2.151496,0.64681 -2.622756,1.20687 -0.613417,0.72901 -0.571631,-0.82044 -0.502704,18.64068 0.03564,10.06337 0.0894,14.30879 0.164119,12.96102 0.06111,-1.10236 0.142867,-2.13652 0.181675,-2.29815 0.07733,-0.32205 1.44948,-0.79888 6.215329,-2.15985 5.421419,-1.54818 14.394461,-3.89317 14.897093,-3.89317 0.235821,0 0.408332,8.46564 0.21336,10.47016 -0.235617,2.42236 -0.601845,2.81245 -3.343659,3.56146 -0.849729,0.23213 -3.190661,0.96056 -5.20207,1.61874 -7.98904,2.61418 -11.957433,3.58046 -12.414523,3.02285 -0.268371,-0.32738 -0.456219,-1.38269 -0.634615,-3.56517 l -0.180959,-2.21384 0.03903,2.47195 c 0.03424,2.16853 0.07507,2.5652 0.33266,3.23169 0.37362,0.96672 0.36915,0.96552 2.351927,0.63014 z m 17.078575,-15.50666 c 0.160522,-0.0845 0.336034,-0.21978 0.390026,-0.30064 0.176473,-0.2643 0.107287,-1.12505 -0.107712,-1.34005 -0.250685,-0.25068 -0.838855,-0.2676 -1.147279,-0.033 -0.235596,0.17921 -0.46194,1.28688 -0.332102,1.62523 0.0927,0.24157 0.777508,0.26929 1.197067,0.0485 z m -12.516719,-6.07735 2.691195,-0.7605 -0.427098,-1.01389 -0.427098,-1.0139 -0.740338,0.0142 c -0.659866,0.0126 -3.963043,0.84103 -4.548744,1.1408 -0.207037,0.10597 -0.209798,0.17184 -0.03226,0.76967 0.263867,0.88853 0.575556,1.61544 0.69473,1.62022 0.05413,0.002 1.309458,-0.33828 2.789615,-0.75655 z m 11.773032,-3.19816 c 0.430434,-0.12203 0.701498,-0.27342 0.701498,-0.39177 0,-0.10608 -0.150432,-0.53304 -0.334292,-0.94878 l -0.334293,-0.75589 -0.634443,0.0848 c -0.769144,0.10277 -4.412919,0.94433 -4.510264,1.04168 -0.05844,0.0584 0.503442,1.7133 0.677164,1.99439 0.05076,0.0821 2.647333,-0.51769 4.43463,-1.02441 z m -12.660374,-3.62518 c 1.333658,-0.38179 2.077092,-0.76829 2.451442,-1.27449 0.223944,-0.30281 0.280467,-0.62848 0.328959,-1.89534 0.123662,-3.2307 -0.282278,-3.69368 -2.694304,-3.07289 -1.009269,0.25976 -2.887504,1.1255 -3.159327,1.45625 -0.279291,0.33983 -0.29117,4.26784 -0.01447,4.78549 0.296015,0.55379 1.155688,0.55406 3.087702,9.8e-4 z m 9.943718,-2.44268 c 1.474046,-0.377 2.614504,-0.91562 2.762414,-1.30465 0.180723,-0.47534 0.152199,-4.22965 -0.03526,-4.64108 -0.205868,-0.45183 -0.588063,-0.5314 -1.657738,-0.34512 -0.969275,0.16879 -2.855868,0.73384 -3.424049,1.02554 -0.449785,0.23091 -0.618794,0.78764 -0.725449,2.38973 -0.08201,1.23186 0.09086,2.62523 0.366989,2.95794 0.221546,0.26695 1.498942,0.22817 2.713094,-0.0824 z M 71.619633,153.4542 c 1.249335,-0.30362 2.351074,-0.61767 2.448308,-0.69789 0.240867,-0.19872 0.724997,-1.16587 0.583605,-1.16587 -0.06246,0 -0.890444,0.21762 -1.839972,0.48361 -1.053526,0.29513 -2.156071,0.50997 -2.82877,0.55123 l -1.102354,0.0676 v 0.50679 c 0,0.27873 -0.03767,0.60495 -0.08371,0.72493 -0.09822,0.25597 -0.314144,0.29195 2.822893,-0.47042 z m 9.03796,-2.12117 c 2.592747,-0.53362 3.395623,-0.97466 3.976139,-2.18419 l 0.384358,-0.80082 -0.886814,0.0847 c -0.898176,0.0858 -3.86503,0.85231 -4.393476,1.13512 -0.62489,0.33444 -0.888272,1.15826 -0.564008,1.76415 0.07608,0.14215 0.15965,0.25846 0.185719,0.25846 0.02607,0 0.610207,-0.11584 1.298082,-0.25741 z" stroke-width="0.0505016"/>
                    </g>
                </g>
                <g transform="matrix(0.42948147,0,0,0.42948147,0,-0.00294955)" >
                    <g >
                        <path gorn="0.2.0.0.39.0.0" id="path57"  fill="#ffff00" style="stroke-linecap:square;stroke-linejoin:round;stroke-dasharray:0.0294673, 0.0884019" d="m 69.272407,103.74693 c 0,-0.23227 0.38435,-1.44563 0.488553,-1.54233 0.129548,-0.12022 3.86235,-0.73129 7.074108,-1.15805 1.436515,-0.19087 5.699283,-0.73507 9.472816,-1.209336 9.828228,-1.235222 10.819082,-1.377798 11.169886,-1.607262 0.218684,-0.143041 0.179019,-0.23394 -0.439369,-1.006888 C 96.07355,96.017057 95.089134,94.925433 78.183456,76.314713 l -10.77738,-11.864346 -0.450723,-0.05737 c -1.421561,-0.180939 -7.139067,0.11254 -15.225198,0.781506 -0.707538,0.05854 -1.935496,0.146665 -2.728795,0.195845 -2.196291,0.136157 -12.356428,0.927554 -13.02025,1.014178 -1.361266,0.177635 -2.338967,0.03601 -2.338967,-0.338809 0,-0.233674 0.196845,-0.492494 0.489772,-0.643973 0.198232,-0.10251 0.635561,-0.139482 2.236777,-0.189097 1.726313,-0.05349 7.411614,-0.377204 10.917425,-0.621621 2.614409,-0.18227 4.73454,-0.313605 6.198263,-0.383961 1.786409,-0.08586 3.624256,-0.197877 14.033802,-0.855321 1.329313,-0.08396 2.732521,-0.17027 3.118241,-0.191808 l 0.701307,-0.03916 0.381917,0.405495 c 1.038304,1.102403 4.160441,4.52053 8.702442,9.527466 2.761844,3.044555 6.759712,7.445622 8.88415,9.780147 2.124438,2.334526 4.151602,4.562392 4.504809,4.950814 0.475146,0.522519 0.642459,0.761992 0.643216,0.920626 0.0018,0.377292 -0.338638,0.2846 -1.253141,-0.341196 -2.251335,-1.540595 -6.103147,-4.961728 -9.001224,-7.99478 -3.252148,-3.403613 -5.961451,-6.021127 -5.961451,-5.759481 0,0.04117 6.335027,7.092891 11.139475,12.399706 3.053385,3.372657 6.437347,7.046926 8.078113,8.771127 l 1.520951,1.598294 1.51e-4,1.338711 1.51e-4,1.338715 -0.214405,0.0435 c -0.548911,0.11128 -29.001749,3.78897 -29.315054,3.78914 -0.11783,7e-5 -0.175423,-0.0466 -0.175423,-0.14209 z" stroke-width="0.0294673"/>
                    </g>
                </g>
                <g transform="matrix(0.42948147,0,0,0.42948147,0,-0.00294955)" >
                    <g >
                        <path gorn="0.2.0.0.40.0.0" id="path58"  fill="#ffff00" style="stroke-linecap:square;stroke-linejoin:round;stroke-dasharray:0.0294673, 0.0884019" d="m 91.268511,98.373056 c -0.08987,-0.07504 -0.472324,-0.803045 -0.849907,-1.617786 -2.25159,-4.858421 -5.567177,-9.714045 -10.200061,-14.937823 -1.890174,-2.131253 -5.906065,-6.176365 -7.749547,-7.805938 -3.227827,-2.853282 -6.964843,-5.768897 -8.26435,-6.447834 -0.985424,-0.514842 -2.165206,-0.736079 -5.004407,-0.938444 -3.643296,-0.259677 -10.435302,0.08084 -16.319176,0.818175 -2.484736,0.311372 -7.149647,1.087155 -8.912434,1.482155 -0.165984,0.03719 -0.178358,0.01771 -0.155932,-0.245477 0.0237,-0.278187 0.04009,-0.29194 0.609101,-0.511361 1.306333,-0.503741 6.903074,-1.451169 11.421956,-1.933532 2.848141,-0.304021 4.658484,-0.429898 9.044006,-0.628848 1.791003,-0.08125 4.278319,-0.01789 6.09573,0.155273 0.430755,0.04104 1.340504,0.09835 2.021665,0.127348 l 1.238473,0.05272 1.013553,-0.517105 c 0.751323,-0.383319 1.124495,-0.528785 1.442363,-0.562248 l 0.42881,-0.04514 1.286432,1.425926 c 0.707538,0.784259 2.668852,2.953242 4.358477,4.819962 5.067608,5.598764 11.004296,12.239642 11.051325,12.362198 0.03315,0.08638 -0.01774,0.114828 -0.205445,0.114828 -0.202577,0 -0.367909,-0.109995 -0.878944,-0.584756 -0.346188,-0.321616 -0.645046,-0.569143 -0.664128,-0.550061 -0.08734,0.08734 0.943739,1.541645 3.649921,5.148137 4.364538,5.816561 5.784397,8.047859 6.475635,10.176413 l 0.215212,0.662707 -0.169751,0.0507 c -0.340986,0.101848 -0.813104,0.06798 -0.978577,-0.07019 z" stroke-width="0.0294673"/>
                    </g>
                </g>
                <g transform="matrix(0.42948147,0,0,0.42948147,0,-0.00294955)" >
                    <g >
                        <path gorn="0.2.0.0.41.0.0" id="path59"  fill="#ffff00" style="stroke-linecap:square;stroke-linejoin:round;stroke-dasharray:0.0294673, 0.0884019" d="m 55.007764,103.43672 c -0.228417,-0.0364 -0.131701,0.0738 -1.28486,-1.46384 C 51.875398,99.509364 50.025518,97.199333 43.894249,89.699386 40.025405,84.966904 37.937742,82.37072 35.05436,78.706241 32.539474,75.510083 32.664092,75.765686 32.7395,73.958242 c 0.02791,-0.669002 0.07004,-1.347646 0.09361,-1.508098 l 0.04286,-0.291731 0.753419,-0.235892 c 2.505888,-0.784583 7.411218,-1.500273 12.331307,-1.799144 1.080318,-0.06562 1.823977,-0.06489 2.962691,0.0029 4.829274,0.287583 6.883257,0.598338 8.790618,1.329968 0.570241,0.218734 0.643216,0.269019 0.643216,0.443225 v 0.196499 l -0.799147,-0.05184 c -0.439531,-0.02851 -1.258804,-0.102678 -1.820608,-0.164818 -2.315678,-0.256132 -3.685705,-0.352562 -5.664087,-0.398669 -1.547909,-0.03608 -2.085579,-0.02549 -2.085579,0.04105 0,0.04931 0.02631,0.08992 0.05848,0.09025 0.03216,3.24e-4 0.268981,0.03376 0.526267,0.07431 0.257286,0.04054 0.90635,0.112104 1.442363,0.159023 3.512859,0.30749 6.164074,1.021434 13.575974,3.655866 1.098948,0.390602 2.023821,0.710185 2.055273,0.710185 0.106056,0 -0.04907,-0.571873 -0.278316,-1.026005 -0.125186,-0.247992 -0.227611,-0.526151 -0.227611,-0.618131 0,-0.159644 0.02332,-0.164741 0.513475,-0.112249 0.681337,0.07296 1.392275,0.322608 2.42917,0.852993 2.365058,1.209756 4.326748,2.737044 7.415951,5.773739 4.013844,3.94562 7.949123,8.809325 10.804958,13.354105 0.249245,0.39665 0.464226,0.721181 0.477734,0.721181 0.09925,0 -1.333968,-2.855404 -1.937102,-3.859295 -1.666439,-2.773706 -4.858241,-7.030045 -7.538767,-10.0531 C 76.111072,79.897339 72.516,76.252448 71.369156,75.225806 70.40767,74.365094 69.496624,73.664896 68.953831,73.369471 68.380254,73.057291 67.563325,72.88491 65.994121,72.744942 64.377125,72.60071 63.850158,72.498075 62.977677,72.157444 62.235231,71.86758 61.69222,71.478194 61.410123,71.033374 61.29269,70.8482 61.060114,70.238971 60.89329,69.679531 l -0.303318,-1.017165 -0.317225,-0.04503 c -0.174474,-0.02476 -1.703063,-0.06735 -3.396865,-0.09464 -4.21744,-0.06795 -7.24471,0.06406 -11.110093,0.484458 -3.600324,0.391572 -5.273033,0.677346 -9.160955,1.5651 -2.602065,0.594147 -3.051539,0.656201 -3.276747,0.452391 -0.11331,-0.102544 -0.150051,-0.222037 -0.135179,-0.439639 0.01123,-0.164351 0.02488,-0.298872 0.03033,-0.298935 0.0054,-6.3e-5 0.351531,-0.105274 0.769077,-0.233803 1.422371,-0.437833 4.394762,-0.895873 9.590441,-1.477869 7.806535,-0.874451 13.834701,-1.214048 16.65688,-0.938366 2.956722,0.288825 4.802916,1.162206 8.798281,4.162212 5.059226,3.79883 8.51908,7.28303 12.47273,12.560497 4.410678,5.887523 7.941566,11.95039 8.226968,14.126478 l 0.05306,0.404536 -0.260046,0.0436 c -0.379967,0.06371 -2.441394,0.277823 -2.674839,0.277823 -0.229905,0 -0.186086,0.06428 -2.923052,-4.288107 -3.321445,-5.281838 -4.43404,-6.891455 -6.364256,-9.207318 -1.37255,-1.646777 -4.709651,-5.029643 -4.709651,-4.774238 0,0.03722 0.514938,0.645899 1.144308,1.35262 2.426839,2.725104 3.420808,3.975716 4.646267,5.845932 2.313816,3.531196 4.620285,8.490475 5.016462,10.786197 0.06547,0.379405 0.09882,0.710054 0.0741,0.734774 -0.06245,0.06245 -4.217598,0.637451 -7.99641,1.106571 -1.736683,0.2156 -3.73248,0.46343 -4.435104,0.55072 -0.702624,0.0873 -1.292221,0.144 -1.310216,0.126 -0.018,-0.018 -0.254956,-0.45518 -0.526581,-0.97153 -0.64765,-1.231147 -1.143993,-1.962475 -1.730399,-2.549617 -0.742747,-0.74368 -0.78348,-0.755107 -2.586036,-0.725416 l -1.53531,0.02529 -0.589796,0.294527 c -0.712833,0.355968 -1.225339,0.856705 -1.550086,1.514491 -0.131314,0.265981 -0.415962,1.122545 -0.63255,1.903485 -0.580841,2.0943 -0.416959,1.88031 -1.562961,2.04088 -0.531446,0.0745 -1.632871,0.20599 -2.447612,0.29228 -0.81474,0.0863 -1.51643,0.16625 -1.559311,0.1777 -0.04288,0.0115 -0.164302,0.007 -0.269824,-0.01 z" stroke-width="0.0294673"/>
                    </g>
                </g>
                <g transform="matrix(0.42948147,0,0,0.42948147,0,-0.00294955)" >
                    <g >
                        <path gorn="0.2.0.0.42.0.0" id="path60"  fill="#ffff00" style="stroke-linecap:square;stroke-linejoin:round;stroke-dasharray:0.0294673, 0.0884019" d="M 45.240828,95.208508 C 40.555353,89.288551 36.078129,83.671236 35.291441,82.725587 33.106817,80.099529 32.579991,79.271133 32.494423,78.327474 l -0.04342,-0.478854 0.225234,0.0036 c 0.184785,0.0029 0.347944,0.141097 0.908533,0.769336 1.700688,1.905918 4.966676,5.916684 10.671436,13.104956 1.820675,2.294137 4.410287,5.556996 5.754696,7.250798 2.241394,2.8239 3.967243,4.91437 4.227191,5.12026 0.07451,0.059 0.975234,-0.0349 3.183549,-0.33196 1.693802,-0.22785 3.149809,-0.41544 3.235571,-0.41687 0.113102,-0.002 0.303627,0.22229 0.693661,0.81619 0.295752,0.45034 0.523801,0.83202 0.506777,0.84819 -0.01702,0.0162 -1.767637,0.22663 -3.89025,0.46768 -2.122613,0.24106 -3.937648,0.45021 -4.033411,0.46478 -0.148416,0.0226 -1.431608,-1.5623 -8.693161,-10.737051 z" stroke-width="0.0294673"/>
                    </g>
                </g>
                <g transform="matrix(0.42948147,0,0,0.42948147,0,-0.00294955)" >
                    <g >
                        <path gorn="0.2.0.0.43.0.0" id="path61"  fill="#ffff00" style="stroke-linecap:square;stroke-linejoin:round;stroke-dasharray:0.0294673, 0.0884019" d="m 113.15297,103.59675 c -0.82408,-0.84316 -2.07066,-2.18115 -7.89952,-8.478757 -6.064998,-6.552748 -9.484397,-10.189184 -12.902943,-13.72194 -1.82841,-1.889495 -2.300143,-2.493182 -2.642162,-3.381232 -0.450056,-1.168569 -0.488879,-2.250777 -0.166776,-4.648976 0.276747,-2.060506 2.428605,-16.294949 2.62248,-17.347584 0.249561,-1.354982 0.597442,-2.807925 0.802702,-3.35252 0.363689,-0.964941 1.548591,-2.073794 4.529192,-4.2385 2.234733,-1.623008 4.316917,-3.119231 4.897237,-3.519074 0.24894,-0.171524 0.78174,-0.557453 1.18399,-0.857621 0.40226,-0.300167 0.87063,-0.645197 1.04083,-0.766732 0.1702,-0.121535 0.55103,-0.419753 0.84629,-0.662707 0.29525,-0.242954 0.737,-0.597198 0.98166,-0.787208 0.24467,-0.19001 0.88814,-0.786447 1.42994,-1.325414 0.83277,-0.82842 1.03336,-1.076476 1.29729,-1.604255 0.60771,-1.21528 0.65761,-1.659579 0.44262,-3.941555 -0.25299,-2.685438 -0.71598,-6.218201 -2.02249,-15.4323 -1.30474,-9.201551 -1.32541,-9.369045 -1.17041,-9.482385 0.20398,-0.1491511 0.99558,-0.2082458 1.47006,-0.109743 0.71057,0.147514 1.18496,0.574645 1.3779,1.240641 0.0449,0.155128 0.20352,1.22244 0.35239,2.371804 0.14887,1.149365 0.55173,4.096464 0.89524,6.549108 0.34351,2.452645 0.81807,5.897819 1.05459,7.655942 0.23651,1.758124 0.49689,3.635145 0.57862,4.171158 0.44146,2.895363 0.54154,4.985475 0.28838,6.022842 -0.16186,0.663213 -0.50383,1.343726 -1.02764,2.044958 -0.50749,0.679378 -0.63214,0.79327 -2.22166,2.029908 -0.70754,0.550462 -1.40923,1.112027 -1.55931,1.247926 -0.15009,0.135899 -0.4483,0.361858 -0.66271,0.502131 -0.21441,0.140273 -0.6705,0.477078 -1.01355,0.748454 -0.85391,0.675504 -2.3359,1.791498 -3.27456,2.465858 -2.791005,2.005157 -5.660864,4.285664 -6.370367,5.062155 -1.150628,1.259265 -1.530057,2.753791 -2.630634,10.361751 -0.300972,2.080527 -0.689545,4.67678 -0.863495,5.769452 -0.969711,6.091249 -1.055637,6.750503 -0.987161,7.573783 0.05348,0.642926 0.195415,0.921561 0.946111,1.857263 1.247284,1.554671 2.526755,2.959523 9.554706,10.491009 2.72295,2.918041 5.72267,6.145683 6.66605,7.172544 2.36637,2.575772 4.41409,4.728896 7.98664,8.397776 l 0.66429,0.6822 h -1.87542 -1.87543 z" stroke-width="0.0294673"/>
                    </g>
                </g>
                <g transform="matrix(0.42948147,0,0,0.42948147,0,-0.00294955)" >
                    <g >
                        <path gorn="0.2.0.0.44.0.0" id="path62"  fill="#ffff00" style="stroke-linecap:square;stroke-linejoin:round;stroke-dasharray:0.0294673, 0.0884019" d="m 108.0711,38.188011 c -0.0238,-0.16321 -0.0648,-0.524794 -0.0911,-0.803521 -0.16422,-1.744189 -0.40315,-2.660107 -0.74689,-2.863162 -0.17635,-0.104169 -0.26587,-0.250827 -0.38136,-0.62472 -0.17453,-0.565082 -1.2945,-8.276831 -1.86708,-12.856177 -0.37662,-3.012064 -0.39126,-3.202746 -0.3921,-5.106745 -7e-4,-1.596237 -0.0273,-2.097593 -0.13777,-2.598468 l -0.13691,-0.620619 -0.42881,-0.09475 c -0.23585,-0.05212 -0.56915,-0.130645 -0.74067,-0.174512 -0.17153,-0.04387 -0.44343,-0.100697 -0.60424,-0.126289 -0.25887,-0.0412 -0.29237,-0.07209 -0.29237,-0.26957 0,-0.180147 0.13652,-0.351546 0.7099,-0.891308 0.75682,-0.712431 1.47416,-1.129045 2.062,-1.1975469 l 0.31598,-0.036822 0.2531,1.0824799 c 0.13921,0.595364 0.26905,1.327151 0.28855,1.626192 0.037,0.568444 0.12334,1.108379 0.26132,1.635231 0.0449,0.171524 0.0825,0.544087 0.0835,0.827917 10e-4,0.28383 0.0528,0.810098 0.11507,1.169484 0.0623,0.359385 0.18622,1.232323 0.27545,1.93986 0.42757,3.39006 1.57828,11.796927 2.06021,15.051535 0.14888,1.005406 0.29392,2.126229 0.3223,2.490718 0.058,0.744995 -0.0459,1.654475 -0.26005,2.276192 -0.12686,0.368262 -0.16892,0.416238 -0.38362,0.437485 -0.22529,0.0223 -0.244,0.0044 -0.28449,-0.272879 z" stroke-width="0.0294673"/>
                    </g>
                </g>
                <g transform="matrix(0.42948147,0,0,0.42948147,0,-0.00294955)" >
                    <g >
                        <path gorn="0.2.0.0.45.0.0" id="path63"  fill="#ffff00" style="stroke-linecap:square;stroke-linejoin:round;stroke-dasharray:0.0524521, 0.157356" d="m 47.670807,213.26665 v -0.80096 l 7.667576,-2.80349 c 4.217166,-1.54191 12.382613,-4.52655 18.145438,-6.63251 5.762825,-2.10597 11.820556,-4.32052 13.461625,-4.92123 11.522511,-4.2178 14.066614,-5.13537 14.238594,-5.13537 0.12766,0 0.19449,0.15798 0.19449,0.45977 0,0.73984 -0.53,1.11363 -2.569547,1.81223 -2.289133,0.78409 -19.576532,7.26391 -29.557941,11.07917 -14.127994,5.40025 -20.558685,7.74334 -21.251821,7.74334 -0.307429,0 -0.328414,-0.0512 -0.328414,-0.80095 z" stroke-width="0.0524521"/>
                    </g>
                </g>
            </g>
        </g>
    </g>
</svg>
