<?xml version='1.0' encoding='UTF-8' standalone='no'?>
<svg xmlns="http://www.w3.org/2000/svg"  height="1.605mm" gorn="0" id="svg3" viewBox="0 0 13.16898 6.3187457" width="3.345mm" version="1.1">
    <desc >
        <referenceFile >SOD-323.svg</referenceFile>
    </desc>
    <g  transform="translate(-4033.4,-3030.5)">
        <g >
            <g >
                <defs  id="defs3"/>
                <g  transform="translate(-10.0153,-16.3409)">
                    <g >
                        <g  gorn="0.1.0.0.1.0.0" id="silkscreen">
                            <path  style="color:#000000;stroke-linecap:round;stroke-linejoin:round;-inkscape-shape-rendering:crispEdges;" gorn="0.1.0.0.1.0.0.0" stroke-opacity="1" d="m 4053.5488,3051.748 a 0.2992,0.2992 0 0 0 -0.3008,0.2989 v 0.8125 a 0.2992,0.2992 0 0 0 0.3008,0.2988 0.2992,0.2992 0 0 0 0.2989,-0.2988 v -0.8125 a 0.2992,0.2992 0 0 0 -0.2989,-0.2989 z" fill="#000000" fill-opacity="1" id="gge43" stroke="none"/>
                            <path  style="color:#000000;stroke-linecap:round;stroke-linejoin:round;-inkscape-shape-rendering:crispEdges;" gorn="0.1.0.0.1.0.0.1" stroke-opacity="1" d="m 4053.5488,3046.8418 a 0.2992,0.2992 0 0 0 -0.3008,0.2988 v 0.7735 a 0.2992,0.2992 0 0 0 0.3008,0.2988 0.2992,0.2992 0 0 0 0.2989,-0.2988 v -0.7735 a 0.2992,0.2992 0 0 0 -0.2989,-0.2988 z" fill="#000000" fill-opacity="1" id="gge46" stroke="none"/>
                            <path  style="color:#000000;stroke-linecap:round;stroke-linejoin:round;-inkscape-shape-rendering:crispEdges;" gorn="0.1.0.0.1.0.0.2" stroke-opacity="1" d="m 4046.6484,3046.8418 a 0.30000001,0.30000001 0 0 0 -0.2988,0.2988 0.30000001,0.30000001 0 0 0 0.2988,0.3008 h 6.9004 a 0.30000001,0.30000001 0 0 0 0.2989,-0.3008 0.30000001,0.30000001 0 0 0 -0.2989,-0.2988 z" fill="#000000" fill-opacity="1" id="gge49" stroke="none"/>
                            <path  style="color:#000000;stroke-linecap:round;stroke-linejoin:round;-inkscape-shape-rendering:crispEdges;" gorn="0.1.0.0.1.0.0.3" stroke-opacity="1" d="m 4046.6484,3052.5586 a 0.30000001,0.30000001 0 0 0 -0.2988,0.3008 0.30000001,0.30000001 0 0 0 0.2988,0.2988 h 6.9004 a 0.30000001,0.30000001 0 0 0 0.2989,-0.2988 0.30000001,0.30000001 0 0 0 -0.2989,-0.3008 z" fill="#000000" fill-opacity="1" id="gge52" stroke="none"/>
                            <path  style="color:#000000;stroke-linecap:round;stroke-linejoin:round;-inkscape-shape-rendering:crispEdges;" gorn="0.1.0.0.1.0.0.4" stroke-opacity="1" d="m 4048.2402,3046.8418 a 0.30000001,0.30000001 0 0 0 -0.2988,0.2988 v 5.7188 a 0.30000001,0.30000001 0 0 0 0.2988,0.2988 0.30000001,0.30000001 0 0 0 0.3008,-0.2988 v -5.7188 a 0.30000001,0.30000001 0 0 0 -0.3008,-0.2988 z" fill="#000000" fill-opacity="1" id="gge55" stroke="none"/>
                            <path  type="solid" layerid="3" gorn="0.1.0.0.1.0.0.5" stroke-opacity="1" d="m 4046.9489,3046.8409 v 1.3874 h -1.2 v -1.3874 z" net="" locked="0" c_teardrop="" fill="#000000" fill-opacity="1" id="gge58" c_targetwire="" stroke-width="0" stroke="none" c_targetpad=""/>
                            <path  type="solid" layerid="3" gorn="0.1.0.0.1.0.0.6" stroke-opacity="1" d="m 4046.9489,3053.1591 v -1.3874 h -1.2 v 1.3874 z" net="" locked="0" c_teardrop="" fill="#000000" fill-opacity="1" id="gge61" c_targetwire="" stroke-width="0" stroke="none" c_targetpad=""/>
                        </g>
                    </g>
                </g>
                <g  transform="translate(-10.0153,-16.3409)">
                    <g >
                        <g  gorn="0.1.0.0.2.0.0" id="copper1">
                            <path  gorn="0.1.0.0.2.0.0.0" d="m 4056.5849,3051.4764 h -3.9371 v -2.9528 h 3.9371 z" fill="#ffc000" id="connector1pin" stroke="none"/>
                            <path  gorn="0.1.0.0.2.0.0.1" d="m 4047.3524,3051.4764 h -3.9371 v -2.9528 h 3.9371 z" fill="#ffc000" id="connector0pin" stroke="none"/>
                        </g>
                    </g>
                </g>
            </g>
        </g>
    </g>
</svg>
