<?xml version='1.0' encoding='UTF-8'?>
<!DOCTYPE svg>
<!-- Creator: CorelDRAW 2018 -->
<svg xmlns="http://www.w3.org/2000/svg"  shape-rendering="geometricPrecision" version="1.0" viewBox="0 0 7000 2768.1" xmlns:xml="http://www.w3.org/XML/1998/namespace" xml:space="preserve" fill-rule="evenodd" height="27.681mm" text-rendering="geometricPrecision" width="70mm" clip-rule="evenodd" image-rendering="optimizeQuality">
    <desc >
        <referenceFile >logo-taito-vazado.svg</referenceFile>
    </desc>
    <g  gorn="0.1" id="copper1">
        <metadata  id="CorelCorpID_0Corel-Layer"/>
        <polygon  points="339.7,283.88 3485.71,881.59 6689.09,302.39 6567,447.29 3485.71,966.23 416.72,382.54 " fill="#FFC000"/>
        <polygon  points="640.93,1728.66 695.73,1649.99 3485.71,2404.47 6277.23,1688.27 6392.5,1678.62 6382.14,1721.6 3485.71,2478.94 " fill="#FFC000"/>
        <polygon  points="339.7,283.88 326.31,318.77 416.72,382.55 449.32,360.97 397.72,312.19 393.97,310.78 " fill="#FFC000"/>
        <polygon  points="77.28,74.11 187.6,173.39 3485.71,804.66 6803.83,211.04 6151.73,195.27 3488.7,714.02 839.56,168.48 " fill="#FFC000"/>
        <polygon  points="77.28,74.11 6922.71,74.11 6799.97,211.73 6186.39,210.7 6151.73,195.27 839.56,195.27 " fill="#FFC000"/>
        <polygon  points="6435.58,1829.3 3476.26,2579.71 553.52,1788.06 464.1,1868.65 3500,2685.43 6520.17,1923.66 " fill="#FFC000"/>
        <polygon  points="528.36,904.25 695.73,1649.99 672.77,1737.04 637.72,1728.65 453.76,904.25 " fill="#FFC000"/>
        <polygon  points="253,904.25 364.84,904.25 553.52,1788.06 464.1,1868.65 " fill="#FFC000"/>
        <polygon  points="484.34,704.25 416.72,382.55 428.34,319.46 339.7,283.88 328.32,313.56 409.13,704.25 " fill="#FFC000"/>
        <polygon  points="322.88,704.25 252.49,368.81 212.46,178.07 199.68,89.27 74.05,74.11 209.89,704.25 " fill="#FFC000"/>
        <polygon  points="6506.33,704.25 6598.97,704.25 6684.78,307.51 6630.4,312.34 6567,447.29 " fill="#FFC000"/>
        <polygon  points="6459.11,904.25 6555.71,904.25 6392.5,1678.61 6277.23,1688.26 " fill="#FFC000"/>
        <polygon  points="6688.37,704.25 6691.19,678.16 6803.81,211.06 6764.06,148.69 6922.71,74.11 6776.35,704.25 " fill="#FFC000"/>
        <polygon  points="6733.8,904.25 6520.17,1923.66 6458.71,1939.16 6404.13,1837.27 6435.58,1829.3 6642.85,904.25 " fill="#FFC000"/>
    </g>
    <g  gorn="0.2" id="silkscreen">
        <metadata  id="CorelCorpID_1Corel-Layer"/>
        <polygon  points="966.42,195.27 6148.52,195.27 3485.49,714.02 " fill="black"/>
        <polygon  points="212.45,178.07 3482.5,804.66 6800.62,211.04 6721.9,295.79 3482.5,881.59 329.79,301.32 " fill="black"/>
        <polygon  points="212.45,178.07 550.31,1788.06 3473.05,2579.71 6432.37,1829.3 6800.62,211.04 6788.52,219.13 6685.88,302.39 6378.93,1721.6 3482.5,2478.94 637.72,1728.66 323.1,318.77 381,260.79 " fill="black"/>
        <polygon  points="5318.4,1242.79 5329.52,1327.44 5326.58,1329.29 5372.02,1405.52 5411.53,1441.6 5527.12,1485.77 5531.9,1487.23 5594.99,1480.05 5606.47,1481.08 5664.74,1453.31 5735.89,1387.97 5764.93,1333.9 5777.2,1281.15 5773.69,1216.32 5743.45,1142.84 5709.04,1103 5651.29,1061.13 5652.1,1059.93 5610.06,1044.89 5555.42,1036 5482.02,1046.68 5395.16,1091.71 5353.35,1138.6 5328.23,1188.95 " fill="black"/>
        <polygon  points="2488.92,1565.09 2586.32,1355.44 2641.69,1588.68 " fill="black"/>
        <polygon  points="2077.46,865.02 2107.93,704.8 413.51,382.54 692.52,1649.99 1711.08,1925.43 1750.26,1772.41 1686.68,1777.23 1419.05,1712.86 1420.67,1682.23 1396.62,989.76 1016.93,904.24 1029.31,665.44 " fill="black"/>
        <polygon  points="5509.11,696.69 5497.51,627.69 3482.5,966.23 3482.5,966.23 1948.01,674.39 1870.44,825.59 2077.46,865.02 2396.33,925.91 2794.97,1002.81 3325.98,1111.46 3482.5,1153.4 3667.81,1103.75 3854.98,1084.64 4868.91,885.67 5112.11,927.56 5175.25,858.2 5217.52,819.57 5270.17,782.13 5332.25,751.78 5367.71,738.03 5465.57,702.51 " fill="black"/>
        <polygon  points="2077.46,865.02 2074.73,1117.41 1692.21,1052.33 1687.54,1774.92 1711.08,1925.43 3482.5,2404.47 3511.44,2249.44 3325.98,2199.74 3054.38,2128 2748.69,2039.43 2712.66,1892.31 2384.03,1813.88 2324.95,1944.76 2021.75,1866.82 2336.69,877.21 2394.48,860.42 " fill="black"/>
        <polygon  points="2760.25,945.93 2794.97,1002.81 2838.31,998.8 3236.77,2083.68 3134.62,2149.2 3054.77,2176.26 3335.04,2266.51 3294.17,2206.73 3297.19,1103.75 " fill="black"/>
        <polygon  points="3482.5,1153.4 3667.81,1103.75 3670.83,2206.73 3482.5,2241.68 3436.8,2392.1 3482.5,2404.47 4556.97,2128.8 4523.3,1996.64 4216.12,2061.23 4223.35,2043.25 4216.12,1307.27 3854.98,1353.52 3854.98,1084.64 3914.58,983.93 3406.29,1031.43 " fill="black"/>
        <polygon  points="4698.38,846.17 4868.91,885.67 5175.25,858.2 5112.11,927.56 5048,1047.75 5015.71,1168.32 5012.6,1216.67 5014.02,1314.75 5042.8,1440.45 5083.8,1527.53 5183.71,1658.07 5236.5,1703.02 5345.22,1769.12 5470.25,1801.94 5573.55,1808.75 5696.02,1788.6 5707.56,1833.6 4439.83,2158.85 4410.7,2020.31 4523.3,1996.64 4523.3,1232 4868.91,1163.78 4868.91,885.67 4724.38,852.19 " fill="black"/>
        <polygon  points="5266.17,666.56 5359.61,650.86 6567.01,447.28 6274.02,1688.27 5635.02,1852.21 5630.5,1803.03 5696.02,1788.6 5783.06,1756.39 5848.88,1722.58 5880.04,1699.9 5921.25,1665.7 5998.62,1576.9 6036.28,1516.02 6053.66,1483.51 6083.93,1393.21 6101.75,1277.71 6094.33,1160.32 6081.78,1103.15 6056.74,1032.02 6023.34,966.27 5979.23,901.92 5938.77,855.94 5892.82,814.56 5849.18,782.74 5754.36,732.77 5648.67,701.69 5548.03,694.61 5416.64,720.27 5289.61,768.32 5301.67,675.16 " fill="black"/>
        <polygon  points="74.07,0.04 6918.26,0.04 6918.26,74.11 74.07,74.11 " fill="black"/>
        <polygon  points="-0,0.04 7000,0.04 6918.26,74.11 1.67,89.71 " fill="black"/>
        <polygon  points="74.07,74.11 478.44,1950.07 398.46,1930.88 1.67,89.71 " fill="black"/>
        <polygon  points="460.89,1868.65 3513.45,2689.77 3473.05,2768.11 441.65,1940.17 " fill="black"/>
        <polygon  points="3496.79,2685.43 6596.97,1903.48 6580.57,1984.18 3473.05,2768.11 " fill="black"/>
        <polygon  points="6516.95,1923.66 6924.65,7.09 7000,0.04 6589.4,1939.07 " fill="black"/>
    </g>
</svg>
