<?xml version='1.0' encoding='UTF-8' standalone='no'?>
<svg xmlns="http://www.w3.org/2000/svg" width="18.08mm" version="1.1" viewBox="0 0 71.180485 86.040652" height="21.854mm" id="svg16"  gorn="0">
    <desc >
        <referenceFile >RJ45-HR911105A-PCB.svg</referenceFile>
    </desc>
    <g  transform="translate(-3877.4,-2924.4)">
        <g >
            <g >
                <g >
                    <defs id="defs16" />
                    <g  transform="translate(-10.009131,-9.4606)">
                        <g >
                            <g >
                                <g id="silkscreen"  gorn="0.1.0.0.0.1.0.0.0">
                                    <path d="m 3891.307,2933.8606 a 0.5,0.5 0 0 0 -0.3133,0.1302 0.5,0.5 0 0 0 -0.057,0.057 0.5,0.5 0 0 0 -0.1302,0.3133 v 23.623 a 0.5,0.5 0 0 0 0.5005,0.5005 0.5,0.5 0 0 0 0.5005,-0.5005 v -23.1225 h 62.385 v 23.1225 a 0.5,0.5 0 0 0 0.5005,0.5005 0.5,0.5 0 0 0 0.5005,-0.5005 v -23.621 a 0.5,0.5 0 0 0 -0.02,-0.1261 0.5,0.5 0 0 0 -0.012,-0.043 0.5,0.5 0 0 0 -0.059,-0.1119 0.5,0.5 0 0 0 -0.02,-0.024 0.5,0.5 0 0 0 -0.069,-0.071 0.5,0.5 0 0 0 -0.041,-0.032 0.5,0.5 0 0 0 -0.1,-0.051 0.5,0.5 0 0 0 -0.059,-0.018 0.5,0.5 0 0 0 -0.081,-0.012 0.5,0.5 0 0 0 -0.039,-0.01 z m 0,36.6155 a 0.5,0.5 0 0 0 -0.5005,0.5005 v 48.424 a 0.5,0.5 0 0 0 0.5005,0.5005 h 63.386 a 0.5,0.5 0 0 0 0.5005,-0.5005 v -48.424 a 0.5,0.5 0 0 0 -0.5005,-0.5005 0.5,0.5 0 0 0 -0.5005,0.5005 v 47.9235 h -62.385 v -47.9235 a 0.5,0.5 0 0 0 -0.5005,-0.5005 z" stroke="none" id="gge130"  fill="#000000" gorn="0.1.0.0.0.1.0.0.0.0"/>
                                </g>
                            </g>
                        </g>
                    </g>
                    <g  transform="translate(-10.009131,-9.4606)">
                        <g >
                            <g >
                                <g id="copper1"  gorn="0.1.0.0.0.2.0.0.0">
                                    <g id="copper0"  gorn="0.1.0.0.0.2.0.0.0.0">
                                        <path d="m 3901.1495,2947.0782 h 8.6615 v 8.6615 h -8.6615 z" stroke-width="0.978524" id="nonconn0"  fill="#ffff00" gorn="0.1.0.0.0.2.0.0.0.0.0"/>
                                        <circle cx="3905.4802" cy="2951.4089" r="3.6500001" stroke-width="1" stroke="#ffc000" id="connector0pin"  fill="none" gorn="0.1.0.0.0.2.0.0.0.0.1"/>
                                        <circle cx="3910.48" cy="2941.4089" r="3.6500001" stroke-width="1" stroke="#ffc000" id="connector1pin"  fill="none" gorn="0.1.0.0.0.2.0.0.0.0.2"/>
                                        <circle cx="3915.48" cy="2951.4089" r="3.6500001" stroke-width="1" stroke="#ffc000" id="connector2pin"  fill="none" gorn="0.1.0.0.0.2.0.0.0.0.3"/>
                                        <circle cx="3920.48" cy="2941.4089" r="3.6500001" stroke-width="1" stroke="#ffc000" id="connector3pin"  fill="none" gorn="0.1.0.0.0.2.0.0.0.0.4"/>
                                        <circle cx="3925.48" cy="2951.4089" r="3.6500001" stroke-width="1" stroke="#ffc000" id="connector4pin"  fill="none" gorn="0.1.0.0.0.2.0.0.0.0.5"/>
                                        <circle cx="3930.48" cy="2941.4089" r="3.6500001" stroke-width="1" stroke="#ffc000" id="connector5pin"  fill="none" gorn="0.1.0.0.0.2.0.0.0.0.6"/>
                                        <circle cx="3935.48" cy="2951.4089" r="3.6500001" stroke-width="1" stroke="#ffc000" id="connector6pin"  fill="none" gorn="0.1.0.0.0.2.0.0.0.0.7"/>
                                        <circle cx="3940.48" cy="2941.4089" r="3.6500001" stroke-width="1" stroke="#ffc000" id="connector7pin"  fill="none" gorn="0.1.0.0.0.2.0.0.0.0.8"/>
                                        <circle cx="3896.917" cy="2995.7" r="3.6500001" stroke-width="1" stroke="#ffc000" id="connector8pin"  fill="none" gorn="0.1.0.0.0.2.0.0.0.0.9"/>
                                        <circle cx="3906.917" cy="2995.7" r="3.6500001" stroke-width="1" stroke="#ffc000" id="connector9pin"  fill="none" gorn="0.1.0.0.0.2.0.0.0.0.10"/>
                                        <circle cx="3939.083" cy="2995.7" r="3.6500001" stroke-width="1" stroke="#ffc000" id="connector10pin"  style="fill:none;shape-rendering:crispEdges" fill="none" gorn="0.1.0.0.0.2.0.0.0.0.11"/>
                                        <circle cx="3949.083" cy="2995.7" r="3.6500001" stroke-width="1" stroke="#ffc000" id="connector11pin"  fill="none" gorn="0.1.0.0.0.2.0.0.0.0.12"/>
                                        <circle cx="3900.5" cy="2976.4089" r="7" stroke-width="1" stroke="#ffc000" id="nonconn2"  fill="none" gorn="0.1.0.0.0.2.0.0.0.0.13"/>
                                        <circle cx="3892.5081" cy="2964.4009" r="5" stroke-width="0.2" stroke="#ffc000" id="nonconn3"  style="fill:none;shape-rendering:crispEdges" fill="none" gorn="0.1.0.0.0.2.0.0.0.0.14"/>
                                        <circle cx="3953.4919" cy="2964.4009" r="5" stroke-width="0.2" stroke="#ffc000" id="nonconn3-7"  style="fill:none;shape-rendering:crispEdges" fill="none" gorn="0.1.0.0.0.2.0.0.0.0.15"/>
                                        <circle cx="3945.5" cy="2976.4089" r="7" stroke-width="1" stroke="#ffc000" id="nonconn1"  style="fill:none;shape-rendering:crispEdges" fill="none" gorn="0.1.0.0.0.2.0.0.0.0.16"/>
                                    </g>
                                </g>
                            </g>
                        </g>
                    </g>
                </g>
            </g>
        </g>
    </g>
</svg>
