<?xml version='1.0' encoding='UTF-8' standalone='no'?>
<svg xmlns="http://www.w3.org/2000/svg"  viewBox="0 0 45.291882 29.170227" id="svg13" gorn="0" width="11.504mm" height="7.4089999mm" version="1.1">
    <desc >
        <referenceFile >TF-123-ARP9H17_29d82fdd7036e7cbf4e75556e097adb0_7_pcb.svg</referenceFile>
    </desc>
    <defs  id="defs41">
        <defs  id="defs13"/>
    </defs>
    <g  id="silkscreen" gorn="0.2">
        <path  fill="#000000" font-size="4.86077" d="m 37.8283,21.3656 q 0.323,0 0.5652,0.083 0.2403,0.083 0.3998,0.2422 0.1577,0.1577 0.2365,0.3884 0.079,0.2307 0.079,0.5498 v 0.5267 q 0,0.044 -0.029,0.085 -0.031,0.039 -0.1057,0.039 h -2.2185 q -0.075,0 -0.1038,-0.039 -0.031,-0.04 -0.031,-0.085 v -0.5632 q 0,-0.323 0.085,-0.546 0.083,-0.223 0.2403,-0.373 0.1557,-0.1518 0.3787,-0.2287 0.223,-0.079 0.5037,-0.079 z m 0.013,0.348 q -0.2018,0 -0.3748,0.05 -0.175,0.05 -0.3018,0.1576 -0.1269,0.1058 -0.1981,0.2692 -0.071,0.1634 -0.071,0.421 v 0.3364 h 1.9359 v -0.3403 q 0,-0.2383 -0.06,-0.4018 -0.06,-0.1634 -0.1826,-0.2729 -0.1231,-0.1096 -0.3076,-0.1634 -0.1865,-0.056 -0.4403,-0.056 z M 38.991,19.051 q 0.042,-0.015 0.069,-0.015 0.025,0 0.038,0.013 0.014,0.015 0.017,0.052 0,0.035 0,0.094 0,0.06 0,0.096 0,0.035 -0.01,0.054 -0.01,0.017 -0.019,0.027 -0.012,0.01 -0.029,0.015 l -0.6056,0.2134 v 1.0342 l 0.5979,0.2038 q 0.017,0.01 0.031,0.015 0.012,0.01 0.021,0.029 0.01,0.017 0.012,0.052 0,0.033 0,0.086 0,0.056 -0.01,0.092 0,0.035 -0.017,0.05 -0.014,0.014 -0.039,0.014 -0.027,0 -0.069,-0.017 l -2.3107,-0.8343 q -0.021,-0.01 -0.035,-0.019 -0.014,-0.014 -0.021,-0.037 -0.01,-0.025 -0.01,-0.062 0,-0.038 0,-0.096 0,-0.062 0,-0.1019 0,-0.04 0.01,-0.065 0.01,-0.025 0.023,-0.038 0.013,-0.013 0.035,-0.021 z m -2.0397,1.0708 v 0 l 1.2399,0.4287 v -0.8651 z m -0.1884,-2.7375 q 0.036,0 0.063,0 0.027,0 0.044,0.014 0.015,0.01 0.023,0.021 0.01,0.012 0.01,0.027 v 0.6997 h 2.1569 q 0.015,0 0.027,0.01 0.012,0.01 0.019,0.027 0.01,0.019 0.01,0.052 0.01,0.031 0.01,0.079 0,0.046 -0.01,0.079 0,0.033 -0.01,0.052 -0.01,0.019 -0.019,0.027 -0.012,0.01 -0.027,0.01 h -2.1569 v 0.6997 q 0,0.015 -0.01,0.029 -0.01,0.011 -0.023,0.019 -0.017,0.01 -0.044,0.014 -0.027,0 -0.063,0 -0.037,0 -0.064,0 -0.029,-0.01 -0.046,-0.014 -0.017,-0.01 -0.025,-0.019 -0.01,-0.014 -0.01,-0.029 v -1.7301 q 0,-0.015 0.01,-0.027 0.01,-0.014 0.025,-0.021 0.017,-0.01 0.046,-0.014 0.027,0 0.064,0 z m 2.2031,-1.8052 q 0.035,0 0.062,0.01 0.027,0 0.046,0.014 0.017,0.01 0.027,0.023 0.01,0.014 0.01,0.031 v 1.3745 q 0,0.027 -0.01,0.048 -0.01,0.019 -0.023,0.035 -0.015,0.014 -0.044,0.021 -0.029,0.01 -0.071,0.01 -0.038,0 -0.067,0 -0.029,0 -0.05,-0.014 -0.023,-0.01 -0.044,-0.023 -0.023,-0.015 -0.048,-0.038 l -0.5114,-0.4825 q -0.1768,-0.1673 -0.3172,-0.2672 -0.1403,-0.1019 -0.2556,-0.1558 -0.1154,-0.056 -0.2096,-0.073 -0.094,-0.017 -0.1769,-0.017 -0.083,0 -0.1557,0.027 -0.075,0.027 -0.1307,0.079 -0.056,0.05 -0.088,0.1269 -0.033,0.077 -0.033,0.1769 0,0.1172 0.033,0.2114 0.033,0.092 0.071,0.1634 0.038,0.069 0.071,0.1173 0.033,0.046 0.033,0.069 0,0.014 -0.01,0.025 -0.01,0.01 -0.025,0.017 -0.017,0.01 -0.046,0.01 -0.029,0 -0.069,0 -0.029,0 -0.05,0 -0.021,0 -0.037,-0.01 -0.015,-0.01 -0.029,-0.014 -0.013,-0.01 -0.033,-0.031 -0.021,-0.023 -0.056,-0.079 -0.035,-0.058 -0.067,-0.1422 -0.035,-0.086 -0.058,-0.1884 -0.023,-0.1038 -0.023,-0.2172 0,-0.1808 0.052,-0.3153 0.05,-0.1365 0.1384,-0.2249 0.088,-0.09 0.2057,-0.1346 0.1173,-0.044 0.2499,-0.044 0.1192,0 0.2384,0.021 0.1173,0.021 0.2557,0.09 0.1365,0.067 0.3056,0.1961 0.1673,0.1288 0.3865,0.3421 l 0.4114,0.3941 v -1.0823 q 0,-0.015 0.01,-0.029 0.01,-0.015 0.025,-0.025 0.017,-0.012 0.044,-0.015 0.025,-0.01 0.06,-0.01 z" aria-label="DAT2" id="text1" gorn="0.2.0" stroke="none" stroke-width="1.0417"/>
        <path  fill="#000000" font-size="4.86077" d="m 11.9858,21.3656 q 0.3229,0 0.5652,0.083 0.2403,0.083 0.3998,0.2422 0.1577,0.1577 0.2365,0.3884 0.079,0.2307 0.079,0.5498 v 0.5267 q 0,0.044 -0.029,0.085 -0.031,0.039 -0.1058,0.039 H 10.913 q -0.075,0 -0.1038,-0.039 -0.031,-0.04 -0.031,-0.085 v -0.5632 q 0,-0.323 0.085,-0.546 0.083,-0.223 0.2403,-0.373 0.1557,-0.1518 0.3787,-0.2287 0.223,-0.079 0.5037,-0.079 z m 0.013,0.348 q -0.2018,0 -0.3749,0.05 -0.1749,0.05 -0.3018,0.1576 -0.1269,0.1058 -0.198,0.2692 -0.071,0.1634 -0.071,0.421 v 0.3364 h 1.9359 v -0.3403 q 0,-0.2383 -0.06,-0.4018 -0.06,-0.1634 -0.1827,-0.2729 -0.123,-0.1096 -0.3075,-0.1634 -0.1865,-0.056 -0.4403,-0.056 z m 1.1496,-2.6626 q 0.042,-0.015 0.069,-0.015 0.025,0 0.039,0.013 0.013,0.015 0.017,0.052 0,0.035 0,0.094 0,0.06 0,0.096 0,0.035 -0.01,0.054 -0.01,0.017 -0.019,0.027 -0.012,0.01 -0.029,0.015 l -0.6055,0.2134 v 1.0342 l 0.5978,0.2038 q 0.017,0.01 0.031,0.015 0.012,0.01 0.021,0.029 0.01,0.017 0.012,0.052 0,0.033 0,0.086 0,0.056 -0.01,0.092 0,0.035 -0.017,0.05 -0.014,0.014 -0.038,0.014 -0.027,0 -0.069,-0.017 L 10.827,20.3251 q -0.021,-0.01 -0.035,-0.019 -0.013,-0.014 -0.021,-0.037 -0.01,-0.025 -0.01,-0.062 0,-0.038 0,-0.096 0,-0.062 0,-0.1019 0,-0.04 0.01,-0.065 0.01,-0.025 0.023,-0.038 0.013,-0.013 0.035,-0.021 z m -2.0397,1.0708 v 0 l 1.24,0.4287 v -0.8651 z m -0.1884,-2.7375 q 0.037,0 0.063,0 0.027,0 0.044,0.014 0.015,0.01 0.023,0.021 0.01,0.012 0.01,0.027 v 0.6997 h 2.1569 q 0.015,0 0.027,0.01 0.012,0.01 0.019,0.027 0.01,0.019 0.01,0.052 0.01,0.031 0.01,0.079 0,0.046 -0.01,0.079 0,0.033 -0.01,0.052 -0.01,0.019 -0.019,0.027 -0.012,0.01 -0.027,0.01 h -2.1569 v 0.6997 q 0,0.015 -0.01,0.029 -0.01,0.011 -0.023,0.019 -0.017,0.01 -0.044,0.014 -0.027,0 -0.063,0 -0.037,0 -0.063,0 -0.029,-0.01 -0.046,-0.014 -0.017,-0.01 -0.025,-0.019 -0.01,-0.014 -0.01,-0.029 v -1.7301 q 0,-0.015 0.01,-0.027 0.01,-0.014 0.025,-0.021 0.017,-0.01 0.046,-0.014 0.027,0 0.063,0 z m 1.0958,-1.8878 q 0.2865,0 0.5229,0.046 0.2365,0.044 0.4076,0.15 0.1691,0.1038 0.2633,0.273 0.092,0.1691 0.092,0.4171 0,0.2346 -0.083,0.396 -0.085,0.1596 -0.2461,0.2576 -0.1634,0.098 -0.3999,0.1404 -0.2384,0.04 -0.5459,0.04 -0.2846,0 -0.521,-0.046 -0.2384,-0.046 -0.4076,-0.1499 -0.1711,-0.1038 -0.2633,-0.273 -0.094,-0.1692 -0.094,-0.4153 0,-0.2364 0.085,-0.396 0.083,-0.1615 0.2461,-0.2595 0.1615,-0.098 0.3999,-0.1384 0.2364,-0.042 0.544,-0.042 z m 0.023,0.3383 q -0.1865,0 -0.3345,0.014 -0.148,0.013 -0.2615,0.04 -0.1134,0.025 -0.1941,0.067 -0.083,0.04 -0.1346,0.098 -0.054,0.058 -0.077,0.1326 -0.025,0.073 -0.025,0.1654 0,0.1634 0.077,0.2653 0.077,0.1018 0.2115,0.1614 0.1345,0.058 0.3153,0.079 0.1807,0.021 0.3883,0.021 0.2787,0 0.4748,-0.029 0.1942,-0.029 0.3172,-0.09 0.1231,-0.063 0.1788,-0.1595 0.056,-0.098 0.056,-0.2365 0,-0.1077 -0.035,-0.1884 -0.035,-0.083 -0.098,-0.1403 -0.065,-0.06 -0.1557,-0.098 -0.09,-0.038 -0.1999,-0.061 -0.1096,-0.023 -0.2365,-0.031 -0.1288,-0.01 -0.2672,-0.01 z" aria-label="DAT0" id="text1-61" gorn="0.2.1" stroke="none" stroke-width="1.0417"/>
        <path  fill="#000000" font-size="4.86077" d="m 7.7621,21.3656 q 0.323,0 0.5652,0.083 0.2403,0.083 0.3999,0.2422 0.1576,0.1577 0.2364,0.3884 0.079,0.2307 0.079,0.5498 v 0.5267 q 0,0.044 -0.029,0.085 -0.031,0.039 -0.1057,0.039 H 6.6894 q -0.075,0 -0.1038,-0.039 -0.031,-0.04 -0.031,-0.085 v -0.5632 q 0,-0.323 0.085,-0.546 0.083,-0.223 0.2403,-0.373 0.1558,-0.1518 0.3788,-0.2287 0.223,-0.079 0.5036,-0.079 z m 0.014,0.348 q -0.2019,0 -0.3749,0.05 -0.1749,0.05 -0.3018,0.1576 -0.1269,0.1058 -0.198,0.2692 -0.071,0.1634 -0.071,0.421 v 0.3364 h 1.9358 v -0.3403 q 0,-0.2383 -0.06,-0.4018 Q 8.6462,22.0423 8.5236,21.9328 8.4006,21.8232 8.216,21.7694 8.0295,21.7134 7.7758,21.7134 Z M 8.9257,19.051 q 0.042,-0.015 0.069,-0.015 0.025,0 0.039,0.013 0.013,0.015 0.017,0.052 0,0.035 0,0.094 0,0.06 0,0.096 0,0.035 -0.01,0.054 -0.01,0.017 -0.019,0.027 -0.012,0.01 -0.029,0.015 l -0.6056,0.2134 v 1.0342 l 0.5979,0.2038 q 0.017,0.01 0.031,0.015 0.012,0.01 0.021,0.029 0.01,0.017 0.012,0.052 0,0.033 0,0.086 0,0.056 -0.01,0.092 0,0.035 -0.017,0.05 -0.013,0.014 -0.038,0.014 -0.027,0 -0.069,-0.017 L 6.6042,20.3251 q -0.021,-0.01 -0.035,-0.019 -0.013,-0.014 -0.021,-0.037 -0.01,-0.025 -0.01,-0.062 0,-0.038 0,-0.096 0,-0.062 0,-0.1019 0,-0.04 0.01,-0.065 0.01,-0.025 0.023,-0.038 0.014,-0.013 0.035,-0.021 z M 6.886,20.1218 v 0 l 1.24,0.4287 V 19.6854 Z M 6.6976,17.3843 q 0.037,0 0.063,0 0.027,0 0.044,0.014 0.015,0.01 0.023,0.021 0.01,0.012 0.01,0.027 v 0.6997 h 2.157 q 0.015,0 0.027,0.01 0.011,0.01 0.019,0.027 0.01,0.019 0.01,0.052 0.01,0.031 0.01,0.079 0,0.046 -0.01,0.079 0,0.033 -0.01,0.052 -0.01,0.019 -0.019,0.027 -0.012,0.01 -0.027,0.01 h -2.157 v 0.6997 q 0,0.015 -0.01,0.029 -0.01,0.011 -0.023,0.019 -0.017,0.01 -0.044,0.014 -0.027,0 -0.063,0 -0.036,0 -0.063,0 -0.029,-0.01 -0.046,-0.014 -0.017,-0.01 -0.025,-0.019 -0.01,-0.014 -0.01,-0.029 v -1.7301 q 0,-0.015 0.01,-0.027 0.01,-0.014 0.025,-0.021 0.017,-0.01 0.046,-0.014 0.027,0 0.063,0 z m 2.2146,-1.8109 q 0.037,0 0.062,0.01 0.025,0.01 0.04,0.015 0.015,0.01 0.023,0.023 0.01,0.012 0.01,0.025 v 1.2995 q 0,0.014 -0.01,0.025 -0.01,0.012 -0.023,0.023 -0.015,0.01 -0.04,0.015 -0.025,0.01 -0.062,0.01 -0.035,0 -0.06,-0.01 -0.025,-0.01 -0.04,-0.014 -0.017,-0.01 -0.025,-0.021 -0.01,-0.014 -0.01,-0.029 v -0.519 H 6.8855 l 0.2864,0.4806 q 0.019,0.037 0.023,0.06 0,0.021 -0.01,0.035 -0.013,0.014 -0.042,0.019 -0.029,0 -0.073,0 -0.033,0 -0.056,0 -0.023,0 -0.038,-0.01 -0.015,-0.01 -0.027,-0.015 -0.012,-0.012 -0.023,-0.029 L 6.5587,16.3936 q -0.01,-0.01 -0.01,-0.019 0,-0.012 -0.01,-0.029 0,-0.017 0,-0.04 0,-0.023 0,-0.058 0,-0.046 0,-0.077 0,-0.031 0.012,-0.048 0.01,-0.017 0.017,-0.023 0.01,-0.01 0.021,-0.01 h 2.1858 v -0.4498 q 0,-0.015 0.01,-0.029 0.01,-0.013 0.025,-0.021 0.015,-0.01 0.04,-0.014 0.025,-0.01 0.06,-0.01 z" aria-label="DAT1" id="text1-61-9" gorn="0.2.2" stroke="none" stroke-width="1.0417"/>
        <path  fill="#000000" font-size="4.86077" d="m 34.4448,21.4732 q 0.031,0 0.054,0 0.023,0 0.04,0.01 0.017,0 0.031,0.012 0.013,0.01 0.033,0.027 0.019,0.019 0.059,0.081 0.039,0.062 0.077,0.1538 0.037,0.09 0.062,0.2095 0.027,0.1173 0.027,0.2576 0,0.2423 -0.081,0.4384 -0.081,0.1941 -0.2383,0.3325 -0.1577,0.1365 -0.3884,0.2115 -0.2326,0.073 -0.5344,0.073 -0.3095,0 -0.5517,-0.079 -0.2423,-0.081 -0.4095,-0.2249 -0.1692,-0.1442 -0.2576,-0.3441 -0.089,-0.2019 -0.089,-0.446 0,-0.1077 0.021,-0.2095 0.019,-0.1019 0.05,-0.1884 0.031,-0.087 0.071,-0.1538 0.04,-0.067 0.067,-0.092 0.025,-0.027 0.038,-0.035 0.014,-0.01 0.033,-0.012 0.017,-0.01 0.042,-0.01 0.025,0 0.06,0 0.038,0 0.065,0 0.027,0 0.046,0.012 0.017,0.01 0.027,0.019 0.01,0.01 0.01,0.025 0,0.027 -0.037,0.075 -0.039,0.048 -0.083,0.1249 -0.046,0.075 -0.083,0.1846 -0.038,0.1076 -0.038,0.2595 0,0.1653 0.067,0.3018 0.065,0.1346 0.1942,0.2307 0.1288,0.096 0.3152,0.15 0.1846,0.052 0.423,0.052 0.2364,0 0.4191,-0.05 0.1807,-0.052 0.3037,-0.1461 0.1211,-0.096 0.1845,-0.2345 0.062,-0.1385 0.062,-0.3134 0,-0.148 -0.037,-0.2576 -0.037,-0.1115 -0.081,-0.1884 -0.046,-0.079 -0.083,-0.1288 -0.037,-0.05 -0.037,-0.079 0,-0.014 0.01,-0.023 0.01,-0.01 0.023,-0.015 0.015,-0.01 0.044,-0.01 0.029,0 0.073,0 z m -0.9285,-2.3511 q 0.3229,0 0.5652,0.083 0.2403,0.083 0.3998,0.2423 0.1577,0.1576 0.2365,0.3883 0.079,0.2307 0.079,0.5498 v 0.5268 q 0,0.044 -0.029,0.084 -0.031,0.039 -0.1058,0.039 h -2.2184 q -0.075,0 -0.1038,-0.039 -0.031,-0.04 -0.031,-0.084 V 20.349 q 0,-0.323 0.085,-0.546 0.083,-0.223 0.2403,-0.3729 0.1557,-0.1519 0.3787,-0.2288 0.223,-0.079 0.5037,-0.079 z m 0.013,0.3479 q -0.2018,0 -0.3748,0.05 -0.175,0.05 -0.3019,0.1577 -0.1268,0.1057 -0.198,0.2691 -0.071,0.1634 -0.071,0.421 v 0.3364 h 1.9359 V 20.364 q 0,-0.2384 -0.06,-0.4018 -0.06,-0.1634 -0.1826,-0.273 -0.1231,-0.1096 -0.3076,-0.1634 -0.1865,-0.056 -0.4403,-0.056 z m 1.7302,-0.8497 q 0.025,0.01 0.039,0.021 0.015,0.012 0.023,0.031 0.01,0.019 0.012,0.048 0,0.027 0,0.067 0,0.048 -0.01,0.081 -0.01,0.031 -0.019,0.048 -0.011,0.017 -0.031,0.021 -0.017,0 -0.042,-0.01 l -3.1894,-1.163 q -0.025,-0.01 -0.038,-0.019 -0.015,-0.013 -0.023,-0.031 -0.01,-0.019 -0.012,-0.048 0,-0.029 0,-0.069 0,-0.048 0.01,-0.079 0.01,-0.031 0.017,-0.048 0.012,-0.017 0.031,-0.021 0.019,0 0.044,0.01 z m -1.7436,-3.4411 q 0.3229,0 0.5652,0.083 0.2403,0.083 0.3998,0.2423 0.1577,0.1576 0.2365,0.3883 0.079,0.2307 0.079,0.5498 v 0.5268 q 0,0.044 -0.029,0.084 -0.031,0.039 -0.1058,0.039 h -2.2184 q -0.075,0 -0.1038,-0.039 -0.031,-0.04 -0.031,-0.084 v -0.5633 q 0,-0.323 0.085,-0.546 0.083,-0.223 0.2403,-0.3729 0.1557,-0.1519 0.3787,-0.2288 0.223,-0.079 0.5037,-0.079 z m 0.013,0.3479 q -0.2018,0 -0.3748,0.05 -0.175,0.05 -0.3019,0.1577 -0.1268,0.1057 -0.198,0.2691 -0.071,0.1634 -0.071,0.421 v 0.3364 h 1.9359 v -0.3402 q 0,-0.2384 -0.06,-0.4018 -0.06,-0.1634 -0.1826,-0.273 -0.1231,-0.1096 -0.3076,-0.1634 -0.1865,-0.056 -0.4403,-0.056 z m 1.1496,-2.6625 q 0.042,-0.015 0.069,-0.015 0.025,0 0.038,0.013 0.014,0.015 0.017,0.052 0,0.035 0,0.094 0,0.059 0,0.096 0,0.035 -0.01,0.054 -0.01,0.017 -0.019,0.027 -0.012,0.01 -0.029,0.015 l -0.6056,0.2134 v 1.0343 l 0.5979,0.2037 q 0.017,0.01 0.031,0.015 0.012,0.01 0.021,0.029 0.01,0.017 0.011,0.052 0,0.033 0,0.086 0,0.056 -0.01,0.092 0,0.035 -0.017,0.05 -0.014,0.014 -0.039,0.014 -0.027,0 -0.069,-0.017 l -2.3107,-0.8344 q -0.021,-0.01 -0.035,-0.019 -0.014,-0.013 -0.021,-0.037 -0.01,-0.025 -0.01,-0.062 0,-0.038 0,-0.096 0,-0.062 0,-0.1019 0,-0.04 0.01,-0.065 0.01,-0.025 0.023,-0.038 0.013,-0.014 0.035,-0.021 z m -2.0396,1.0708 v 0 l 1.2399,0.4287 V 13.499 Z m -0.1884,-2.7376 q 0.036,0 0.063,0 0.027,0 0.044,0.013 0.015,0.01 0.023,0.021 0.01,0.012 0.01,0.027 v 0.6998 h 2.1569 q 0.015,0 0.027,0.01 0.012,0.01 0.019,0.027 0.01,0.019 0.01,0.052 0.01,0.031 0.01,0.079 0,0.046 -0.01,0.079 0,0.033 -0.01,0.052 -0.01,0.019 -0.019,0.027 -0.011,0.01 -0.027,0.01 h -2.1569 v 0.6998 q 0,0.015 -0.01,0.029 -0.01,0.012 -0.023,0.019 -0.017,0.01 -0.044,0.014 -0.027,0 -0.063,0 -0.037,0 -0.064,0 -0.029,-0.01 -0.046,-0.014 -0.017,-0.01 -0.025,-0.019 -0.01,-0.013 -0.01,-0.029 v -1.7302 q 0,-0.015 0.01,-0.027 0.01,-0.014 0.025,-0.021 0.017,-0.01 0.046,-0.013 0.027,0 0.064,0 z m 1.634,-1.7859 q 0.1711,0 0.3095,0.06 0.1365,0.06 0.2346,0.1711 0.098,0.1115 0.1518,0.2749 0.052,0.1634 0.052,0.3691 0,0.125 -0.021,0.2345 -0.019,0.1077 -0.046,0.1923 -0.029,0.085 -0.058,0.1403 -0.031,0.056 -0.044,0.071 -0.014,0.014 -0.027,0.021 -0.014,0.01 -0.033,0.013 -0.019,0.01 -0.046,0.01 -0.029,0 -0.069,0 -0.069,0 -0.096,-0.014 -0.027,-0.013 -0.027,-0.038 0,-0.017 0.031,-0.067 0.031,-0.052 0.067,-0.1307 0.035,-0.081 0.065,-0.1865 0.031,-0.1077 0.031,-0.2384 0,-0.1269 -0.033,-0.223 -0.033,-0.096 -0.092,-0.1615 -0.06,-0.065 -0.1403,-0.098 -0.083,-0.033 -0.1788,-0.033 -0.1058,0 -0.1903,0.042 -0.085,0.04 -0.1461,0.1211 -0.062,0.079 -0.094,0.1961 -0.033,0.1153 -0.033,0.2634 v 0.2364 q 0,0.015 -0.01,0.031 -0.01,0.013 -0.023,0.025 -0.015,0.01 -0.04,0.017 -0.025,0.01 -0.065,0.01 -0.037,0 -0.06,-0.01 -0.025,-0.01 -0.038,-0.015 -0.015,-0.012 -0.021,-0.025 -0.01,-0.014 -0.01,-0.031 v -0.2172 q 0,-0.1269 -0.033,-0.2268 -0.033,-0.1019 -0.094,-0.1711 -0.062,-0.071 -0.1461,-0.1077 -0.087,-0.038 -0.1922,-0.038 -0.077,0 -0.1461,0.025 -0.071,0.025 -0.123,0.075 -0.052,0.05 -0.081,0.1288 -0.031,0.077 -0.031,0.1788 0,0.1115 0.035,0.2057 0.033,0.092 0.071,0.1653 0.038,0.073 0.073,0.1212 0.033,0.048 0.033,0.067 0,0.014 0,0.025 -0.01,0.01 -0.019,0.017 -0.015,0.01 -0.04,0.01 -0.027,0 -0.069,0 -0.029,0 -0.05,0 -0.023,0 -0.038,-0.01 -0.017,-0.01 -0.031,-0.014 -0.014,-0.01 -0.031,-0.025 -0.019,-0.019 -0.054,-0.075 -0.035,-0.056 -0.067,-0.1365 -0.035,-0.083 -0.058,-0.1884 -0.023,-0.1076 -0.023,-0.2306 0,-0.1731 0.044,-0.3038 0.044,-0.1307 0.1249,-0.2172 0.081,-0.088 0.1942,-0.1307 0.1115,-0.044 0.248,-0.044 0.1173,0 0.2192,0.031 0.1,0.031 0.1787,0.09 0.077,0.059 0.1327,0.1461 0.054,0.086 0.075,0.1999 v 0 q 0.014,-0.1288 0.065,-0.2345 0.05,-0.1077 0.1269,-0.1846 0.077,-0.077 0.1807,-0.1192 0.1018,-0.044 0.2191,-0.044 z" aria-label="CD/DAT3" id="text1-6" gorn="0.2.3" stroke="none" stroke-width="1.0417"/>
        <path  fill="#000000" font-size="4.86077" d="m 30.1836,21.4732 q 0.031,0 0.054,0 0.023,0 0.04,0.01 0.017,0 0.031,0.012 0.014,0.01 0.033,0.027 0.019,0.019 0.06,0.081 0.039,0.062 0.077,0.1538 0.037,0.09 0.062,0.2095 0.027,0.1173 0.027,0.2576 0,0.2423 -0.081,0.4384 -0.081,0.1941 -0.2384,0.3325 -0.1576,0.1365 -0.3883,0.2115 -0.2326,0.073 -0.5344,0.073 -0.3096,0 -0.5518,-0.079 -0.2422,-0.081 -0.4095,-0.2249 -0.1691,-0.1442 -0.2576,-0.3441 -0.088,-0.2019 -0.088,-0.446 0,-0.1077 0.021,-0.2095 0.019,-0.1019 0.05,-0.1884 0.031,-0.087 0.071,-0.1538 0.04,-0.067 0.067,-0.092 0.025,-0.027 0.038,-0.035 0.014,-0.01 0.033,-0.012 0.017,-0.01 0.042,-0.01 0.025,0 0.06,0 0.038,0 0.065,0 0.027,0 0.046,0.012 0.017,0.01 0.027,0.019 0.01,0.01 0.01,0.025 0,0.027 -0.037,0.075 -0.038,0.048 -0.083,0.1249 -0.046,0.075 -0.083,0.1846 -0.038,0.1076 -0.038,0.2595 0,0.1653 0.067,0.3018 0.065,0.1346 0.1941,0.2307 0.1288,0.096 0.3153,0.15 0.1846,0.052 0.4229,0.052 0.2365,0 0.4191,-0.05 0.1807,-0.052 0.3038,-0.1461 0.1211,-0.096 0.1845,-0.2345 0.062,-0.1385 0.062,-0.3134 0,-0.148 -0.037,-0.2576 -0.037,-0.1115 -0.081,-0.1884 -0.046,-0.079 -0.083,-0.1288 -0.037,-0.05 -0.037,-0.079 0,-0.014 0.01,-0.023 0.01,-0.01 0.023,-0.015 0.015,-0.01 0.044,-0.01 0.029,0 0.073,0 z M 30.4854,18.33 q 0.015,0 0.027,0.01 0.012,0.01 0.019,0.027 0.01,0.019 0.01,0.05 0.01,0.029 0.01,0.077 0,0.044 -0.01,0.077 0,0.031 -0.01,0.05 -0.01,0.017 -0.019,0.025 -0.012,0.01 -0.027,0.01 h -2.1666 v 0 l 2.1762,0.8863 q 0.014,0.01 0.023,0.017 0.01,0.01 0.017,0.031 0.01,0.019 0.01,0.048 0,0.027 0,0.065 0,0.04 0,0.069 0,0.029 -0.01,0.048 -0.01,0.019 -0.017,0.031 -0.01,0.01 -0.021,0.013 l -2.1762,0.8478 v 0 h 2.1666 q 0.015,0 0.027,0.01 0.012,0.01 0.019,0.027 0.01,0.019 0.01,0.05 0.01,0.031 0.01,0.079 0,0.046 -0.01,0.077 0,0.031 -0.01,0.05 -0.01,0.017 -0.019,0.025 -0.012,0.01 -0.027,0.01 h -2.2877 q -0.081,0 -0.1153,-0.042 -0.035,-0.042 -0.035,-0.094 v -0.1999 q 0,-0.062 0.012,-0.1077 0.012,-0.046 0.037,-0.081 0.025,-0.035 0.063,-0.058 0.038,-0.023 0.09,-0.04 l 1.8013,-0.7209 v -0.01 l -1.7955,-0.7497 q -0.058,-0.021 -0.098,-0.046 -0.04,-0.025 -0.063,-0.054 -0.025,-0.031 -0.035,-0.067 -0.012,-0.036 -0.012,-0.085 v -0.2095 q 0,-0.029 0.01,-0.054 0.01,-0.027 0.027,-0.044 0.017,-0.019 0.046,-0.031 0.027,-0.012 0.067,-0.012 z M 29.255,15.7559 q 0.323,0 0.5652,0.083 0.2403,0.083 0.3999,0.2422 0.1576,0.1576 0.2365,0.3883 0.079,0.2307 0.079,0.5498 v 0.5268 q 0,0.044 -0.029,0.085 -0.031,0.038 -0.1057,0.038 h -2.2185 q -0.075,0 -0.1038,-0.038 -0.031,-0.04 -0.031,-0.085 v -0.5633 q 0,-0.323 0.085,-0.546 0.083,-0.223 0.2403,-0.3729 0.1557,-0.1519 0.3787,-0.2288 0.223,-0.079 0.5036,-0.079 z m 0.014,0.348 q -0.2018,0 -0.3749,0.05 -0.1749,0.05 -0.3018,0.1577 -0.1269,0.1057 -0.198,0.2691 -0.071,0.1634 -0.071,0.421 v 0.3365 h 1.9359 v -0.3403 q 0,-0.2384 -0.06,-0.4018 -0.06,-0.1634 -0.1827,-0.273 -0.123,-0.1096 -0.3076,-0.1634 -0.1864,-0.056 -0.4402,-0.056 z" aria-label="CMD" id="text1-6-3" gorn="0.2.4" stroke="none" stroke-width="1.0417"/>
        <path  fill="#000000" font-size="4.86077" d="m 27.5886,22.0077 q 0.021,0.01 0.035,0.021 0.013,0.014 0.021,0.038 0.01,0.023 0.01,0.062 0,0.037 0,0.092 0,0.042 0,0.075 0,0.031 0,0.054 0,0.023 -0.01,0.04 -0.01,0.015 -0.014,0.027 -0.01,0.012 -0.017,0.019 -0.012,0.01 -0.027,0.012 l -2.3107,0.8132 q -0.042,0.015 -0.067,0.017 -0.027,0 -0.04,-0.017 -0.013,-0.017 -0.017,-0.056 0,-0.038 0,-0.1038 0,-0.054 0,-0.085 0,-0.033 0.01,-0.05 0.01,-0.017 0.021,-0.025 0.012,-0.01 0.031,-0.017 l 2.0936,-0.7133 v 0 l -2.0897,-0.694 q -0.021,-0.01 -0.035,-0.013 -0.014,-0.01 -0.021,-0.027 -0.01,-0.019 -0.01,-0.054 0,-0.035 0,-0.092 0,-0.06 0.01,-0.094 0,-0.035 0.017,-0.046 0.014,-0.014 0.04,-0.01 0.025,0 0.067,0.017 z m 0.01,-2.5069 q 0.015,0 0.027,0.01 0.012,0.01 0.019,0.023 0.01,0.015 0.01,0.042 0,0.027 0,0.065 0,0.04 0,0.067 0,0.027 -0.01,0.044 -0.01,0.017 -0.019,0.025 -0.012,0.01 -0.027,0.01 h -0.2288 q 0.148,0.1365 0.2307,0.2845 0.083,0.1461 0.083,0.3211 0,0.1903 -0.073,0.3249 -0.075,0.1345 -0.1999,0.2191 -0.1269,0.083 -0.2961,0.1211 -0.1711,0.039 -0.3595,0.039 -0.223,0 -0.4018,-0.048 -0.1807,-0.048 -0.3076,-0.1422 -0.1268,-0.094 -0.1941,-0.2327 -0.069,-0.1403 -0.069,-0.3229 0,-0.1519 0.067,-0.2769 0.065,-0.1268 0.1941,-0.2499 h -1.0054 q -0.014,0 -0.025,-0.01 -0.014,-0.01 -0.019,-0.027 -0.01,-0.019 -0.012,-0.048 -0.01,-0.031 -0.01,-0.077 0,-0.048 0.01,-0.079 0,-0.031 0.012,-0.048 0.01,-0.017 0.019,-0.025 0.012,-0.01 0.025,-0.01 z m -1.2169,0.3191 q -0.1596,0.1288 -0.2423,0.2499 -0.085,0.1192 -0.085,0.25 0,0.1211 0.058,0.2057 0.058,0.085 0.1519,0.1384 0.094,0.052 0.2134,0.077 0.1192,0.023 0.2422,0.023 0.1307,0 0.2557,-0.019 0.125,-0.021 0.223,-0.071 0.096,-0.05 0.1557,-0.1327 0.058,-0.083 0.058,-0.2076 0,-0.063 -0.017,-0.1211 -0.017,-0.06 -0.058,-0.1211 -0.04,-0.061 -0.1038,-0.1288 -0.065,-0.067 -0.1596,-0.1423 z m 1.2169,-2.3876 q 0.015,0 0.027,0.01 0.012,0.01 0.019,0.023 0.01,0.015 0.01,0.042 0,0.027 0,0.065 0,0.04 0,0.067 0,0.027 -0.01,0.044 -0.01,0.017 -0.019,0.025 -0.012,0.01 -0.027,0.01 h -0.2288 q 0.148,0.1365 0.2307,0.2845 0.083,0.1461 0.083,0.321 0,0.1904 -0.073,0.3249 -0.075,0.1346 -0.1999,0.2192 -0.1269,0.083 -0.2961,0.1211 -0.1711,0.038 -0.3595,0.038 -0.223,0 -0.4018,-0.048 -0.1807,-0.048 -0.3076,-0.1423 -0.1268,-0.094 -0.1941,-0.2326 -0.069,-0.1403 -0.069,-0.323 0,-0.1518 0.067,-0.2768 0.065,-0.1269 0.1941,-0.2499 h -1.0054 q -0.014,0 -0.025,-0.01 -0.014,-0.01 -0.019,-0.027 -0.01,-0.019 -0.012,-0.048 -0.01,-0.031 -0.01,-0.077 0,-0.048 0.01,-0.079 0,-0.031 0.012,-0.048 0.01,-0.017 0.019,-0.025 0.012,-0.01 0.025,-0.01 z m -1.2169,0.3191 q -0.1596,0.1288 -0.2423,0.2499 -0.085,0.1192 -0.085,0.2499 0,0.1211 0.058,0.2057 0.058,0.085 0.1519,0.1384 0.094,0.052 0.2134,0.077 0.1192,0.023 0.2422,0.023 0.1307,0 0.2557,-0.019 0.125,-0.021 0.223,-0.071 0.096,-0.05 0.1557,-0.1327 0.058,-0.083 0.058,-0.2076 0,-0.063 -0.017,-0.1211 -0.017,-0.06 -0.058,-0.1211 -0.04,-0.062 -0.1038,-0.1288 -0.065,-0.067 -0.1596,-0.1423 z" aria-label="Vdd" id="text1-6-3-2" gorn="0.2.5" stroke="none" stroke-width="1.0417"/>
        <path  fill="#000000" font-size="4.86077" d="m 21.8142,21.4732 q 0.031,0 0.054,0 0.023,0 0.04,0.01 0.017,0 0.031,0.012 0.013,0.01 0.033,0.027 0.019,0.019 0.06,0.081 0.039,0.062 0.077,0.1538 0.037,0.09 0.062,0.2095 0.027,0.1173 0.027,0.2576 0,0.2423 -0.081,0.4384 -0.081,0.1941 -0.2384,0.3325 -0.1576,0.1365 -0.3883,0.2115 -0.2326,0.073 -0.5344,0.073 -0.3095,0 -0.5518,-0.079 -0.2422,-0.081 -0.4094,-0.2249 -0.1692,-0.1442 -0.2576,-0.3441 -0.089,-0.2019 -0.089,-0.446 0,-0.1077 0.021,-0.2095 0.019,-0.1019 0.05,-0.1884 0.031,-0.087 0.071,-0.1538 0.04,-0.067 0.067,-0.092 0.025,-0.027 0.038,-0.035 0.014,-0.01 0.033,-0.012 0.017,-0.01 0.042,-0.01 0.025,0 0.06,0 0.038,0 0.065,0 0.027,0 0.046,0.012 0.017,0.01 0.027,0.019 0.01,0.01 0.01,0.025 0,0.027 -0.037,0.075 -0.039,0.048 -0.083,0.1249 -0.046,0.075 -0.083,0.1846 -0.038,0.1076 -0.038,0.2595 0,0.1653 0.067,0.3018 0.065,0.1346 0.1941,0.2307 0.1288,0.096 0.3153,0.15 0.1846,0.052 0.4229,0.052 0.2365,0 0.4191,-0.05 0.1807,-0.052 0.3038,-0.1461 0.1211,-0.096 0.1845,-0.2345 0.062,-0.1385 0.062,-0.3134 0,-0.148 -0.037,-0.2576 -0.037,-0.1115 -0.081,-0.1884 -0.046,-0.079 -0.083,-0.1288 -0.037,-0.05 -0.037,-0.079 0,-0.014 0.01,-0.023 0.01,-0.01 0.023,-0.015 0.015,-0.01 0.044,-0.01 0.029,0 0.073,0 z m 0.2076,-1.7283 q 0.039,0 0.065,0 0.025,0 0.044,0.013 0.017,0.01 0.027,0.021 0.01,0.012 0.01,0.029 v 1.0997 q 0,0.044 -0.029,0.084 -0.031,0.039 -0.1058,0.039 H 19.73 q -0.015,0 -0.027,-0.01 -0.012,-0.01 -0.017,-0.027 -0.01,-0.019 -0.012,-0.052 -0.01,-0.033 -0.01,-0.079 0,-0.048 0.01,-0.079 0,-0.033 0.012,-0.052 0.01,-0.019 0.017,-0.027 0.012,-0.01 0.027,-0.01 h 2.1512 v -0.892 q 0,-0.017 0.01,-0.029 0.01,-0.014 0.025,-0.021 0.015,-0.01 0.042,-0.013 0.027,0 0.065,0 z m 0.09,-1.9878 q 0.015,0 0.029,0.01 0.012,0.01 0.019,0.025 0.01,0.019 0.012,0.052 0.01,0.033 0.01,0.085 0,0.067 -0.01,0.1096 -0.01,0.042 -0.021,0.063 -0.015,0.021 -0.035,0.035 l -1.2438,0.9151 h 1.2438 q 0.014,0 0.027,0.01 0.012,0.01 0.019,0.027 0.01,0.019 0.01,0.052 0.01,0.031 0.01,0.079 0,0.046 -0.01,0.079 0,0.033 -0.01,0.052 -0.01,0.019 -0.019,0.027 -0.013,0.01 -0.027,0.01 h -2.3876 q -0.015,0 -0.027,-0.01 -0.012,-0.01 -0.017,-0.027 -0.01,-0.019 -0.012,-0.052 -0.01,-0.033 -0.01,-0.079 0,-0.048 0.01,-0.079 0,-0.033 0.012,-0.052 0.01,-0.019 0.017,-0.027 0.012,-0.01 0.027,-0.01 h 1.1054 l -1.1054,-0.8805 q -0.017,-0.011 -0.029,-0.027 -0.012,-0.015 -0.017,-0.037 -0.01,-0.023 -0.011,-0.054 0,-0.033 0,-0.083 0,-0.05 0.01,-0.081 0,-0.031 0.012,-0.048 0.01,-0.019 0.019,-0.025 0.012,-0.01 0.025,-0.01 0.025,0 0.05,0.014 0.025,0.012 0.069,0.046 l 0.9862,0.8247 1.1803,-0.8881 q 0.05,-0.033 0.069,-0.039 0.017,-0.01 0.029,-0.01 z" aria-label="CLK" id="text1-6-3-2-9" gorn="0.2.6" stroke="none" stroke-width="1.0417"/>
        <path  fill="#000000" font-size="4.86077" d="m 17.475,22.0077 q 0.021,0.01 0.035,0.021 0.014,0.014 0.021,0.038 0.01,0.023 0.01,0.062 0,0.037 0,0.092 0,0.042 0,0.075 0,0.031 0,0.054 0,0.023 -0.01,0.04 -0.01,0.015 -0.014,0.027 -0.01,0.012 -0.017,0.019 -0.012,0.01 -0.027,0.012 l -2.3108,0.8132 q -0.042,0.015 -0.067,0.017 -0.027,0 -0.04,-0.017 -0.014,-0.017 -0.017,-0.056 0,-0.038 0,-0.1038 0,-0.054 0,-0.085 0,-0.033 0.01,-0.05 0.01,-0.017 0.021,-0.025 0.012,-0.01 0.031,-0.017 l 2.0935,-0.7133 v 0 l -2.0896,-0.694 q -0.021,-0.01 -0.035,-0.013 -0.013,-0.01 -0.021,-0.027 -0.01,-0.019 -0.01,-0.054 0,-0.035 0,-0.092 0,-0.06 0.01,-0.094 0,-0.035 0.017,-0.046 0.014,-0.014 0.04,-0.01 0.025,0 0.067,0.017 z m -0.4614,-2.1051 q 0.1327,0 0.2365,0.05 0.1038,0.048 0.1749,0.1384 0.071,0.09 0.1077,0.2153 0.037,0.125 0.037,0.2749 0,0.092 -0.015,0.1769 -0.013,0.083 -0.035,0.1499 -0.023,0.065 -0.046,0.1115 -0.025,0.046 -0.044,0.067 -0.019,0.021 -0.054,0.031 -0.035,0.01 -0.094,0.01 -0.037,0 -0.062,0 -0.025,0 -0.04,-0.01 -0.015,-0.01 -0.021,-0.015 -0.01,-0.012 -0.01,-0.025 0,-0.021 0.027,-0.062 0.025,-0.042 0.056,-0.1019 0.031,-0.062 0.058,-0.1441 0.025,-0.083 0.025,-0.1904 0,-0.081 -0.017,-0.1461 -0.017,-0.065 -0.05,-0.1134 -0.035,-0.048 -0.086,-0.073 -0.052,-0.027 -0.1231,-0.027 -0.073,0 -0.123,0.038 -0.05,0.037 -0.088,0.098 -0.039,0.062 -0.067,0.1385 -0.031,0.077 -0.064,0.1595 -0.033,0.081 -0.073,0.1596 -0.042,0.077 -0.1019,0.1384 -0.06,0.062 -0.1423,0.1 -0.083,0.036 -0.198,0.036 -0.1019,0 -0.1941,-0.039 -0.094,-0.04 -0.1634,-0.1192 -0.071,-0.079 -0.1135,-0.196 -0.042,-0.1192 -0.042,-0.2769 0,-0.069 0.012,-0.1384 0.012,-0.069 0.029,-0.1249 0.017,-0.056 0.039,-0.094 0.019,-0.04 0.035,-0.06 0.015,-0.021 0.027,-0.027 0.011,-0.01 0.027,-0.01 0.014,0 0.035,-0.01 0.021,0 0.052,0 0.033,0 0.058,0 0.023,0 0.038,0.01 0.015,0.01 0.023,0.015 0.01,0.01 0.01,0.021 0,0.017 -0.021,0.05 -0.021,0.033 -0.044,0.085 -0.025,0.052 -0.046,0.123 -0.021,0.069 -0.021,0.1596 0,0.081 0.019,0.1422 0.017,0.062 0.052,0.1019 0.033,0.039 0.079,0.06 0.046,0.019 0.1,0.019 0.075,0 0.1269,-0.038 0.05,-0.038 0.088,-0.1 0.039,-0.061 0.069,-0.1403 0.031,-0.079 0.063,-0.1596 0.033,-0.083 0.073,-0.1615 0.04,-0.081 0.098,-0.1422 0.058,-0.062 0.1384,-0.098 0.081,-0.038 0.1922,-0.038 z m 0,-1.5399 q 0.1327,0 0.2365,0.05 0.1038,0.048 0.1749,0.1384 0.071,0.09 0.1077,0.2153 0.037,0.125 0.037,0.2749 0,0.092 -0.015,0.1769 -0.013,0.083 -0.035,0.15 -0.023,0.065 -0.046,0.1115 -0.025,0.046 -0.044,0.067 -0.019,0.021 -0.054,0.031 -0.035,0.01 -0.094,0.01 -0.037,0 -0.062,0 -0.025,0 -0.04,-0.01 -0.015,-0.01 -0.021,-0.015 -0.01,-0.012 -0.01,-0.025 0,-0.021 0.027,-0.062 0.025,-0.042 0.056,-0.1019 0.031,-0.062 0.058,-0.1442 0.025,-0.083 0.025,-0.1903 0,-0.081 -0.017,-0.1461 -0.017,-0.065 -0.05,-0.1134 -0.035,-0.048 -0.086,-0.073 -0.052,-0.027 -0.1231,-0.027 -0.073,0 -0.123,0.038 -0.05,0.037 -0.088,0.098 -0.039,0.062 -0.067,0.1384 -0.031,0.077 -0.064,0.1596 -0.033,0.081 -0.073,0.1595 -0.042,0.077 -0.1019,0.1384 -0.06,0.061 -0.1423,0.1 -0.083,0.037 -0.198,0.037 -0.1019,0 -0.1941,-0.038 -0.094,-0.04 -0.1634,-0.1192 -0.071,-0.079 -0.1135,-0.1961 -0.042,-0.1192 -0.042,-0.2768 0,-0.069 0.012,-0.1384 0.012,-0.069 0.029,-0.125 0.017,-0.056 0.039,-0.094 0.019,-0.04 0.035,-0.06 0.015,-0.021 0.027,-0.027 0.011,-0.01 0.027,-0.01 0.014,0 0.035,-0.01 0.021,0 0.052,0 0.033,0 0.058,0 0.023,0 0.038,0.01 0.015,0.01 0.023,0.015 0.01,0.01 0.01,0.021 0,0.017 -0.021,0.05 -0.021,0.033 -0.044,0.085 -0.025,0.052 -0.046,0.1231 -0.021,0.069 -0.021,0.1595 0,0.081 0.019,0.1423 0.017,0.062 0.052,0.1019 0.033,0.038 0.079,0.06 0.046,0.019 0.1,0.019 0.075,0 0.1269,-0.039 0.05,-0.038 0.088,-0.1 0.039,-0.062 0.069,-0.1404 0.031,-0.079 0.063,-0.1595 0.033,-0.083 0.073,-0.1615 0.04,-0.081 0.098,-0.1423 0.058,-0.061 0.1384,-0.098 0.081,-0.038 0.1922,-0.038 z" aria-label="Vss" id="text1-6-3-2-9-0" gorn="0.2.7" stroke="none" stroke-width="1.0417"/>
        <path  style="line-height:5.00015px;font-family:'Droid Sans';-inkscape-font-specification:'Droid Sans';letter-spacing:0px;word-spacing:0px" fill="#000000" font-size="2.4304" d="m 24.0878,22.5133 q 0.088,0 0.1557,0.033 0.068,0.032 0.1164,0.089 0.047,0.057 0.071,0.1345 0.024,0.077 0.024,0.1663 0,0.062 -0.011,0.1163 -0.01,0.053 -0.026,0.095 -0.015,0.041 -0.032,0.07 -0.016,0.028 -0.028,0.039 -0.012,0.011 -0.029,0.016 -0.018,0 -0.048,0 -0.021,0 -0.035,0 -0.014,0 -0.023,-0.01 -0.01,0 -0.012,-0.01 0,-0.01 0,-0.013 0,-0.014 0.016,-0.037 0.016,-0.025 0.035,-0.064 0.019,-0.038 0.037,-0.092 0.016,-0.055 0.016,-0.126 0,-0.054 -0.014,-0.098 -0.014,-0.045 -0.04,-0.077 -0.027,-0.033 -0.065,-0.05 -0.039,-0.017 -0.088,-0.017 -0.053,0 -0.09,0.024 -0.037,0.024 -0.065,0.064 -0.029,0.039 -0.052,0.09 -0.024,0.05 -0.048,0.1029 -0.025,0.053 -0.055,0.1028 -0.03,0.05 -0.07,0.089 -0.04,0.039 -0.094,0.064 -0.055,0.024 -0.1308,0.024 -0.078,0 -0.1384,-0.028 -0.061,-0.029 -0.1028,-0.079 -0.041,-0.051 -0.062,-0.1202 -0.022,-0.07 -0.022,-0.1509 0,-0.041 0.01,-0.083 0.01,-0.042 0.019,-0.079 0.012,-0.037 0.027,-0.066 0.014,-0.029 0.024,-0.037 0.01,-0.01 0.014,-0.013 0,0 0.013,0 0.01,0 0.019,0 0.012,-9e-4 0.03,-9e-4 0.017,0 0.031,0 0.013,9e-4 0.023,0 0.01,0 0.013,0.01 0,0 0,0.012 0,0.011 -0.014,0.034 -0.014,0.022 -0.03,0.055 -0.017,0.033 -0.031,0.078 -0.014,0.044 -0.014,0.1 0,0.052 0.014,0.09 0.014,0.039 0.037,0.064 0.023,0.025 0.055,0.037 0.032,0.012 0.067,0.012 0.052,0 0.089,-0.024 0.037,-0.024 0.066,-0.063 0.029,-0.04 0.053,-0.091 0.024,-0.051 0.049,-0.1038 0.024,-0.053 0.054,-0.1039 0.029,-0.051 0.069,-0.09 0.039,-0.04 0.094,-0.064 0.054,-0.025 0.1278,-0.025 z m -0.5421,-1.412 q 0.01,0 0.016,0 0.01,0 0.024,0.01 l 0.8218,0.2547 q 0.011,0 0.017,0.01 0.01,0.01 0.011,0.017 0,0.01 0,0.03 0,0.019 0,0.048 0,0.03 0,0.05 0,0.02 -0.01,0.033 0,0.012 -0.01,0.017 -0.01,0.01 -0.016,0.01 l -0.6277,0.1817 h -0.01 0.01 l 0.6277,0.1683 q 0.011,0 0.017,0.01 0.01,0.01 0.011,0.018 0,0.012 0,0.033 0,0.019 0,0.048 0,0.03 0,0.049 0,0.018 -0.01,0.031 0,0.012 -0.01,0.017 -0.01,0.01 -0.016,0.01 l -0.8218,0.2528 q -0.014,0 -0.024,0.01 -0.01,0 -0.016,0 -0.01,0 -0.014,0 -0.01,0 -0.01,-0.012 0,-0.01 0,-0.025 0,-0.015 0,-0.037 0,-0.027 0,-0.043 9e-4,-0.016 0,-0.025 0,-0.01 0.01,-0.012 0.01,0 0.014,-0.01 l 0.7132,-0.2086 h 0.01 -0.01 L 23.5297,21.846 q -0.01,0 -0.014,-0.01 -0.01,0 -0.01,-0.014 0,-0.01 0,-0.023 0,-0.015 0,-0.039 0,-0.023 0,-0.038 9e-4,-0.015 0,-0.024 0,-0.01 0.01,-0.013 0.01,0 0.014,-0.01 l 0.7151,-0.2067 h 0.01 -0.01 l -0.7132,-0.2057 q -0.01,0 -0.014,-0.01 -0.01,0 -0.01,-0.014 0,-0.01 0,-0.025 0,-0.016 0,-0.041 0,-0.023 0,-0.037 0,-0.014 0,-0.022 0,-0.01 0.01,-0.012 0,0 0.014,0 z m -0.023,-0.9536 q 0,-0.029 0.014,-0.039 0.013,-0.01 0.038,-0.01 h 0.8391 q 0.01,0 0.014,0 0,0 0.01,0.014 0,0.01 0.01,0.024 0,0.015 0,0.037 0,0.024 0,0.039 0,0.015 -0.01,0.025 0,0.01 -0.01,0.012 -0.01,0 -0.014,0 h -0.7584 v 0.447 h 0.4826 q 0.089,0 0.1355,-0.026 0.045,-0.027 0.045,-0.095 0,-0.022 0,-0.039 0,-0.017 -0.01,-0.031 0,-0.014 -0.01,-0.023 0,-0.01 0,-0.017 0,0 0,-0.01 0,0 0.01,-0.01 0.01,0 0.018,0 0.012,0 0.029,0 0.028,0 0.044,0 0.015,0 0.024,0.012 0.01,0.01 0.014,0.023 0.01,0.015 0.011,0.035 0,0.019 0.01,0.041 0,0.022 0,0.044 0,0.067 -0.017,0.1153 -0.018,0.048 -0.054,0.079 -0.037,0.031 -0.091,0.045 -0.056,0.014 -0.1307,0.014 h -0.5056 v 0.1211 q 0,0.014 -0.015,0.023 -0.015,0.01 -0.05,0.01 -0.018,0 -0.031,0 -0.012,0 -0.02,-0.01 -0.01,0 -0.012,-0.01 0,-0.01 0,-0.015 V 20.853 h -0.2057 q -0.01,0 -0.012,0 -0.01,0 -0.01,-0.013 0,-0.01 -0.01,-0.025 0,-0.015 0,-0.038 0,-0.024 0,-0.039 0,-0.015 0.01,-0.024 0,-0.01 0.01,-0.013 0.01,0 0.012,0 h 0.2057 z m -0.2672,-0.068 q 0.056,0 0.076,0.021 0.02,0.021 0.02,0.078 0,0.056 -0.019,0.077 -0.02,0.02 -0.075,0.02 -0.056,0 -0.076,-0.021 -0.02,-0.021 -0.02,-0.078 0,-0.056 0.02,-0.076 0.019,-0.021 0.074,-0.021 z m 0.2672,0.3239 z m 0.7584,-1.2217 q 0.016,0 0.029,0.001 0.012,9e-4 0.02,0 0.01,0 0.014,0.01 0.01,0 0.018,0.015 0.012,0.012 0.03,0.04 0.017,0.029 0.032,0.065 0.013,0.036 0.022,0.078 0.01,0.042 0.01,0.087 0,0.093 -0.031,0.1654 -0.031,0.072 -0.089,0.1211 -0.06,0.048 -0.1452,0.074 -0.086,0.025 -0.199,0.025 -0.1278,0 -0.2191,-0.031 -0.092,-0.032 -0.1509,-0.086 -0.059,-0.055 -0.086,-0.1279 -0.029,-0.074 -0.029,-0.1595 0,-0.041 0.01,-0.08 0.01,-0.039 0.02,-0.072 0.013,-0.033 0.029,-0.058 0.016,-0.026 0.028,-0.037 0.012,-0.012 0.018,-0.015 0.01,0 0.016,-0.01 0.01,0 0.02,0 0.012,-9e-4 0.029,-9e-4 0.037,0 0.053,0.01 0.014,0.01 0.014,0.021 0,0.014 -0.015,0.034 -0.016,0.018 -0.036,0.047 -0.019,0.029 -0.035,0.07 -0.016,0.04 -0.016,0.096 0,0.1144 0.088,0.1759 0.087,0.061 0.2547,0.061 0.084,0 0.1471,-0.015 0.062,-0.016 0.1047,-0.047 0.042,-0.031 0.063,-0.075 0.02,-0.045 0.02,-0.1028 0,-0.055 -0.017,-0.096 -0.017,-0.041 -0.037,-0.071 -0.021,-0.031 -0.037,-0.051 -0.017,-0.021 -0.017,-0.033 0,-0.01 0,-0.012 0,0 0.014,-0.01 0.01,0 0.023,0 0.013,0 0.033,0 z m 0.1317,-0.9554 q 0.01,0 0.014,0 0,0 0.01,0.013 0,0.01 0.01,0.024 0,0.015 0,0.039 0,0.024 0,0.039 0,0.015 -0.01,0.024 0,0.01 -0.01,0.012 -0.01,0 -0.014,0 h -0.5065 q -0.074,0 -0.1192,0.012 -0.045,0.012 -0.078,0.034 -0.033,0.022 -0.05,0.058 -0.017,0.035 -0.017,0.081 0,0.06 0.042,0.1192 0.042,0.06 0.124,0.1249 h 0.6046 q 0.01,0 0.014,0 0,0 0.01,0.012 0,0.01 0.01,0.024 0,0.015 0,0.039 0,0.023 0,0.038 0,0.015 -0.01,0.025 0,0.01 -0.01,0.013 -0.01,0 -0.014,0 h -1.2842 q -0.01,0 -0.013,0 -0.01,0 -0.01,-0.013 0,-0.01 -0.01,-0.025 0,-0.015 0,-0.038 0,-0.024 0,-0.039 0,-0.015 0.01,-0.024 0,-0.01 0.01,-0.012 0.01,0 0.013,0 h 0.5181 q -0.072,-0.068 -0.1067,-0.1374 -0.035,-0.069 -0.035,-0.1394 0,-0.087 0.03,-0.1452 0.029,-0.06 0.078,-0.096 0.049,-0.037 0.1154,-0.052 0.065,-0.016 0.1586,-0.016 z" aria-label="Swtich" id="text1-6-3-2-2" gorn="0.2.8" stroke="none" stroke-width="1.0417"/>
        <path  fill="#000000" d="M 6.0359,0 C 5.7593,-3e-4 5.5351,0.224 5.5354,0.5005 5.5362,0.7763 5.7601,0.9993 6.0359,0.999 H 39.2543 C 39.5301,0.9993 39.754,0.7763 39.7548,0.5005 39.7551,0.224 39.5308,-3e-4 39.2543,0 Z" id="silk1" gorn="0.2.9" stroke="none"/>
        <path  fill="#000000" d="M 0.4998,6.0203 C 0.2241,6.02 1e-4,6.243 -7e-4,6.5188 v 10.1891 c 8e-4,0.2758 0.2248,0.4988 0.5005,0.4985 0.275,-9e-4 0.4976,-0.2235 0.4985,-0.4985 V 6.5188 C 0.9974,6.2438 0.7748,6.0212 0.4998,6.0203 Z" id="silk2" gorn="0.2.10" stroke="none"/>
        <path  fill="#000000" d="M 0.4998,23.538 C 0.2241,23.5377 1e-4,23.7607 -7e-4,24.0364 v 0.067 c -2e-4,0.2765 0.224,0.5007 0.5005,0.5005 h 44.2906 c 0.2765,2e-4 0.5007,-0.224 0.5005,-0.5005 v -0.067 c -9e-4,-0.2757 -0.2248,-0.4987 -0.5005,-0.4984 -0.057,0.012 -0.1114,0.034 -0.1608,0.065 H 0.7318 C 0.6608,23.563 0.5813,23.54 0.4998,23.538 Z" id="silk3" gorn="0.2.11" stroke="none"/>
        <path  fill="#000000" d="M 44.7904,6.0203 C 44.5146,6.02 44.2907,6.243 44.2899,6.5188 v 10.1891 c 8e-4,0.2758 0.2247,0.4988 0.5005,0.4985 0.2757,3e-4 0.4996,-0.2227 0.5005,-0.4985 V 6.5188 C 45.29,6.243 45.0661,6.02 44.7904,6.0203 Z" id="silk4" gorn="0.2.12" stroke="none"/>
        <path  fill="#000000" d="m 41.1281,25.4728 c -0.8247,0 -1.5035,0.6789 -1.5035,1.5036 0,0.8247 0.6788,1.5035 1.5035,1.5035 0.8248,0 1.5056,-0.6788 1.5056,-1.5035 0,-0.8247 -0.6808,-1.5036 -1.5056,-1.5036 z m 0,0.999 c 0.2843,0 0.5046,0.2203 0.5046,0.5046 0,0.2843 -0.2203,0.5046 -0.5046,0.5046 -0.2842,0 -0.5045,-0.2203 -0.5045,-0.5046 0,-0.2843 0.2203,-0.5046 0.5045,-0.5046 z" id="silk5" gorn="0.2.13" stroke="none"/>
    </g>
    <g  id="copper1" gorn="0.3">
        <g >
            <path  fill="#ffc000" d="m 36.8189,25.2348 v 3.9369 h 1.9675 v -3.9369 z" id="connector0pin" gorn="0.3.0.0" stroke="none"/>
            <path  fill="#ffc000" d="m 32.4873,25.2348 v 3.9369 h 1.9675 v -3.9369 z" id="connector1pin" gorn="0.3.0.1" stroke="none"/>
            <path  fill="#ffc000" d="m 28.1578,25.2348 v 3.9369 h 1.9674 v -3.9369 z" id="connector2pin" gorn="0.3.0.2" stroke="none"/>
            <path  fill="#ffc000" d="m 25.2036,25.2348 v 3.9369 h 1.9694 v -3.9369 z" id="connector3pin" gorn="0.3.0.3" stroke="none"/>
            <path  fill="#ffc000" d="m 19.4946,25.2348 v 3.9369 h 1.9694 v -3.9369 z" id="connector4pin" gorn="0.3.0.4" stroke="none"/>
            <path  fill="#ffc000" d="m 15.165,25.2348 v 3.9369 h 1.9695 v -3.9369 z" id="connector5pin" gorn="0.3.0.5" stroke="none"/>
            <path  fill="#ffc000" d="m 10.8334,25.2348 v 3.9369 h 1.9695 v -3.9369 z" id="connector6pin" gorn="0.3.0.6" stroke="none"/>
            <path  fill="#ffc000" d="m 6.5038,25.2348 v 3.9369 h 1.9675 v -3.9369 z" id="connector7pin" gorn="0.3.0.7" stroke="none"/>
            <path  fill="#ffc000" d="m 22.4488,25.2348 v 3.9369 h 1.9674 v -3.9369 z" id="connector8pin" gorn="0.3.0.8" stroke="none"/>
            <path  fill="#ffc000" d="m 0.0074,17.6153 v 5.5117 h 5.119 v -5.5117 z" id="connector9pin" gorn="0.3.0.9" stroke="none"/>
            <path  fill="#ffc000" d="m 0.0074,0.0977 v 5.5116 h 5.119 V 0.0977 Z" id="connector10pin" gorn="0.3.0.10" stroke="none"/>
            <path  fill="#ffc000" d="m 40.1638,0.0977 v 5.5116 h 5.1189 V 0.0977 Z" id="connector11pin" gorn="0.3.0.11" stroke="none"/>
            <path  fill="#ffc000" d="m 40.1638,17.6153 v 5.5117 h 5.1189 v -5.5117 z" id="connector12pin" gorn="0.3.0.12" stroke="none"/>
        </g>
    </g>
</svg>
