<?xml version='1.0' encoding='UTF-8' standalone='no'?>
<svg xmlns="http://www.w3.org/2000/svg" width="7.3699999mm" height="5.362mm" gorn="0" viewBox="0 0 29.014784 21.109838"  id="svg16" version="1.1">
    <desc >
        <referenceFile >GL823-PCB.svg</referenceFile>
    </desc>
    <g transform="translate(-532.8,359)" >
        <g >
            <g >
                <g >
                    <defs  id="defs16"/>
                    <g gorn="0.1.0.0.0.1"  id="copper1">
                        <path stroke="none" gorn="0.1.0.0.0.1.0" d="m 533.58713,-357.98277 c -0.43562,4e-5 -0.78843,0.35376 -0.78734,0.78938 4e-5,0.43482 0.35252,0.7873 0.78734,0.78734 h 4.84203 c 0.43482,-4e-5 0.78731,-0.35252 0.78734,-0.78734 0.001,-0.43562 -0.35172,-0.78934 -0.78734,-0.78938 z"  id="connector0pad" fill="#FFC000"/>
                        <path stroke="none" gorn="0.1.0.0.0.1.1" d="m 533.58713,-355.48241 c -0.43562,4e-5 -0.78843,0.35376 -0.78734,0.78938 4e-5,0.43482 0.35252,0.7873 0.78734,0.78733 h 4.84203 c 0.43482,-3e-5 0.78731,-0.35251 0.78734,-0.78733 0.001,-0.43562 -0.35172,-0.78934 -0.78734,-0.78938 z"  id="connector1pad" fill="#FFC000"/>
                        <path stroke="none" gorn="0.1.0.0.0.1.2" d="m 533.58713,-352.98205 c -0.43562,4e-5 -0.78843,0.35376 -0.78734,0.78938 4e-5,0.43482 0.35252,0.7873 0.78734,0.78733 h 4.84203 c 0.43482,-3e-5 0.78731,-0.35251 0.78734,-0.78733 0.001,-0.43562 -0.35172,-0.78934 -0.78734,-0.78938 z"  id="connector2pad" fill="#FFC000"/>
                        <path stroke="none" gorn="0.1.0.0.0.1.3" d="m 533.58713,-350.48169 c -0.43482,4e-5 -0.7873,0.35252 -0.78734,0.78734 4e-5,0.43482 0.35252,0.78731 0.78734,0.78734 h 4.84203 c 0.43482,-3e-5 0.78731,-0.35252 0.78734,-0.78734 -3e-5,-0.43482 -0.35252,-0.7873 -0.78734,-0.78734 z"  id="connector3pad" fill="#FFC000"/>
                        <path stroke="none" gorn="0.1.0.0.0.1.4" d="m 533.58713,-347.98336 c -0.43562,3e-5 -0.78843,0.35376 -0.78734,0.78937 4e-5,0.43482 0.35252,0.78731 0.78734,0.78734 h 4.84203 c 0.43482,-3e-5 0.78731,-0.35252 0.78734,-0.78734 0.001,-0.43561 -0.35172,-0.78934 -0.78734,-0.78937 z"  id="connector4pad" fill="#FFC000"/>
                        <path stroke="none" gorn="0.1.0.0.0.1.5" d="m 533.58713,-345.483 c -0.43562,3e-5 -0.78843,0.35376 -0.78734,0.78937 4e-5,0.43482 0.35252,0.78731 0.78734,0.78734 h 4.84203 c 0.43482,-3e-5 0.78731,-0.35252 0.78734,-0.78734 0.001,-0.43561 -0.35172,-0.78934 -0.78734,-0.78937 z"  id="connector5pad" fill="#FFC000"/>
                        <path stroke="none" gorn="0.1.0.0.0.1.6" d="m 533.58713,-342.98264 c -0.43562,3e-5 -0.78843,0.35376 -0.78734,0.78937 4e-5,0.43482 0.35252,0.7873 0.78734,0.78734 h 4.84203 c 0.43482,-4e-5 0.78731,-0.35252 0.78734,-0.78734 0.001,-0.43561 -0.35172,-0.78934 -0.78734,-0.78937 z"  id="connector6pad" fill="#FFC000"/>
                        <path stroke="none" gorn="0.1.0.0.0.1.7" d="m 533.58713,-340.48228 c -0.43562,3e-5 -0.78843,0.35375 -0.78734,0.78937 4e-5,0.43482 0.35252,0.7873 0.78734,0.78734 h 4.84203 c 0.43482,-4e-5 0.78731,-0.35252 0.78734,-0.78734 0.001,-0.43562 -0.35172,-0.78934 -0.78734,-0.78937 z"  id="connector7pad" fill="#FFC000"/>
                        <path stroke="none" gorn="0.1.0.0.0.1.8" d="m 556.18599,-340.48228 c -0.43562,3e-5 -0.78843,0.35375 -0.78734,0.78937 3e-5,0.43482 0.35252,0.7873 0.78734,0.78734 h 4.84203 c 0.43482,-4e-5 0.7873,-0.35252 0.78734,-0.78734 0.001,-0.43562 -0.35172,-0.78934 -0.78734,-0.78937 z"  id="connector8pad" fill="#FFC000"/>
                        <path stroke="none" gorn="0.1.0.0.0.1.9" d="m 556.18599,-342.98264 c -0.43562,3e-5 -0.78843,0.35376 -0.78734,0.78937 3e-5,0.43482 0.35252,0.7873 0.78734,0.78734 h 4.84203 c 0.43482,-4e-5 0.7873,-0.35252 0.78734,-0.78734 0.001,-0.43561 -0.35172,-0.78934 -0.78734,-0.78937 z"  id="connector9pad" fill="#FFC000"/>
                        <path stroke="none" gorn="0.1.0.0.0.1.10" d="m 556.18599,-345.483 c -0.43562,3e-5 -0.78843,0.35376 -0.78734,0.78937 3e-5,0.43482 0.35252,0.78731 0.78734,0.78734 h 4.84203 c 0.43482,-3e-5 0.7873,-0.35252 0.78734,-0.78734 0.001,-0.43561 -0.35172,-0.78934 -0.78734,-0.78937 z"  id="connector10pad" fill="#FFC000"/>
                        <path stroke="none" gorn="0.1.0.0.0.1.11" d="m 556.18599,-347.98336 c -0.43562,3e-5 -0.78843,0.35376 -0.78734,0.78937 3e-5,0.43482 0.35252,0.78731 0.78734,0.78734 h 4.84203 c 0.43482,-3e-5 0.7873,-0.35252 0.78734,-0.78734 0.001,-0.43561 -0.35172,-0.78934 -0.78734,-0.78937 z"  id="connector11pad" fill="#FFC000"/>
                        <path stroke="none" gorn="0.1.0.0.0.1.12" d="m 556.18599,-350.48169 c -0.43482,4e-5 -0.78731,0.35252 -0.78734,0.78734 3e-5,0.43482 0.35252,0.78731 0.78734,0.78734 h 4.84203 c 0.43482,-3e-5 0.7873,-0.35252 0.78734,-0.78734 -4e-5,-0.43482 -0.35252,-0.7873 -0.78734,-0.78734 z"  id="connector12pad" fill="#FFC000"/>
                        <path stroke="none" gorn="0.1.0.0.0.1.13" d="m 556.18599,-352.98205 c -0.43562,4e-5 -0.78843,0.35376 -0.78734,0.78938 3e-5,0.43482 0.35252,0.7873 0.78734,0.78733 h 4.84203 c 0.43482,-3e-5 0.7873,-0.35251 0.78734,-0.78733 0.001,-0.43562 -0.35172,-0.78934 -0.78734,-0.78938 z"  id="connector13pad" fill="#FFC000"/>
                        <path stroke="none" gorn="0.1.0.0.0.1.14" d="m 556.18599,-355.48241 c -0.43562,4e-5 -0.78843,0.35376 -0.78734,0.78938 3e-5,0.43482 0.35252,0.7873 0.78734,0.78733 h 4.84203 c 0.43482,-3e-5 0.7873,-0.35251 0.78734,-0.78733 0.001,-0.43562 -0.35172,-0.78934 -0.78734,-0.78938 z"  id="connector14pad" fill="#FFC000"/>
                        <path stroke="none" gorn="0.1.0.0.0.1.15" d="m 556.18599,-357.98277 a 0.78740001,0.78740001 0 0 0 -0.78734,0.78938 0.78740001,0.78740001 0 0 0 0.78734,0.78734 h 4.84203 a 0.78740001,0.78740001 0 0 0 0.78734,-0.78734 0.78740001,0.78740001 0 0 0 -0.78734,-0.78938 z"  id="connector15pad" fill="#FFC000"/>
                    </g>
                    <g gorn="0.1.0.0.0.2"  id="silkscreen">
                        <path stroke="none" gorn="0.1.0.0.0.2.0" d="m 548.20884,-355.78351 c -0.13234,0 -0.25529,0.0253 -0.37027,0.0753 -0.11715,0.0477 -0.22042,0.11463 -0.3072,0.20141 -0.0868,0.0868 -0.15722,0.19181 -0.21362,0.31331 -0.0586,0.11932 -0.0967,0.25137 -0.1119,0.39672 h -0.006 c -0.0239,-0.128 -0.0654,-0.2401 -0.12614,-0.33772 -0.0629,-0.0976 -0.13904,-0.18095 -0.22582,-0.24821 -0.089,-0.0672 -0.19033,-0.11785 -0.30314,-0.15258 -0.11498,-0.0347 -0.23794,-0.0529 -0.37027,-0.0529 -0.15404,0 -0.29328,0.0253 -0.4191,0.0753 -0.128,0.0477 -0.23847,0.12196 -0.32959,0.22175 -0.0911,0.0976 -0.16171,0.22072 -0.21158,0.36824 -0.0499,0.14753 -0.0753,0.31744 -0.0753,0.51269 0,0.13884 0.0147,0.26912 0.0407,0.39061 0.026,0.11932 0.0586,0.22613 0.0977,0.31942 0.0369,0.0911 0.0749,0.16899 0.11393,0.23193 0.0391,0.0629 0.0679,0.10447 0.0895,0.12613 0.0195,0.0195 0.0377,0.0341 0.0529,0.0427 0.0152,0.009 0.0334,0.0157 0.0529,0.0224 0.0174,0.007 0.0391,0.0102 0.0651,0.0122 0.0239,0.002 0.0509,0.004 0.0834,0.004 0.0478,0 0.0877,-0.002 0.118,-0.004 0.0282,-0.004 0.0498,-0.01 0.0671,-0.0163 0.015,-0.009 0.0259,-0.0176 0.0326,-0.0285 0.005,-0.013 0.008,-0.0275 0.008,-0.0427 0,-0.0217 -0.0181,-0.0597 -0.0549,-0.11393 -0.039,-0.0542 -0.0807,-0.12304 -0.12411,-0.20548 -0.0434,-0.0824 -0.0832,-0.17459 -0.12003,-0.27872 -0.0391,-0.1063 -0.059,-0.22207 -0.059,-0.3479 0,-0.11498 0.0161,-0.21636 0.0509,-0.30313 0.0325,-0.089 0.0797,-0.16129 0.13835,-0.21769 0.0586,-0.0564 0.12725,-0.1 0.20751,-0.12817 0.0781,-0.0282 0.15939,-0.0407 0.24617,-0.0407 0.11932,0 0.22789,0.0217 0.32552,0.0651 0.0955,0.0412 0.17878,0.1008 0.2482,0.18107 0.0694,0.0781 0.12182,0.17595 0.15869,0.29093 0.0369,0.11281 0.057,0.2393 0.057,0.38248 v 0.36824 c 0,0.0195 0.004,0.0377 0.0122,0.0529 0.007,0.0152 0.0193,0.0277 0.0366,0.0407 0.0152,0.0107 0.0369,0.0198 0.0651,0.0265 0.026,0.007 0.0585,0.0102 0.0997,0.0102 0.0456,0 0.0837,-0.003 0.11189,-0.0102 0.0282,-0.009 0.0498,-0.0176 0.0671,-0.0285 0.0173,-0.013 0.03,-0.0275 0.0387,-0.0427 0.007,-0.0174 0.0102,-0.0356 0.0102,-0.0529 v -0.39876 c 0,-0.16704 0.0181,-0.31537 0.0549,-0.44555 0.0369,-0.13233 0.0913,-0.2447 0.16072,-0.33365 0.0694,-0.0911 0.15072,-0.15791 0.24617,-0.20345 0.0955,-0.0477 0.20416,-0.0732 0.32348,-0.0732 0.10847,0 0.20781,0.0201 0.3011,0.057 0.0911,0.0369 0.17078,0.091 0.23803,0.16479 0.0673,0.0738 0.11979,0.16618 0.15666,0.27465 0.0369,0.10848 0.0549,0.2332 0.0549,0.37638 0,0.14753 -0.0161,0.28134 -0.0509,0.40282 -0.0347,0.11932 -0.0728,0.22626 -0.1119,0.31738 -0.0412,0.0889 -0.0792,0.16112 -0.11393,0.21972 -0.0347,0.0564 -0.0509,0.0944 -0.0509,0.11393 0,0.0282 0.0144,0.0499 0.0448,0.0651 0.0304,0.0152 0.0846,0.0244 0.16275,0.0244 0.0456,0 0.0855,-0.002 0.118,-0.004 0.0304,-0.004 0.0557,-0.01 0.0773,-0.0163 0.0217,-0.007 0.0397,-0.0137 0.0549,-0.0224 0.0152,-0.009 0.0296,-0.0214 0.0448,-0.0366 0.0151,-0.0173 0.0405,-0.0571 0.0753,-0.12004 0.0325,-0.0629 0.0651,-0.14258 0.0977,-0.23803 0.0303,-0.0955 0.0576,-0.20403 0.0793,-0.32552 0.0239,-0.12366 0.0346,-0.2557 0.0346,-0.39672 0,-0.23212 -0.0289,-0.44017 -0.0875,-0.62458 -0.0607,-0.1844 -0.1457,-0.34006 -0.25634,-0.46589 -0.11064,-0.12583 -0.24269,-0.22164 -0.39672,-0.28889 -0.1562,-0.0673 -0.33182,-0.10173 -0.5249,-0.10173 z m 0.96231,3.3467 c -0.0391,0 -0.0715,0.004 -0.0997,0.0102 -0.0303,0.004 -0.0557,0.0135 -0.0753,0.0265 -0.0195,0.0109 -0.034,0.0254 -0.0427,0.0427 -0.0109,0.0152 -0.0163,0.0315 -0.0163,0.0488 v 1.83102 l -0.69578,-0.6673 c -0.24732,-0.24081 -0.46636,-0.43244 -0.6551,-0.57779 -0.19092,-0.14536 -0.36273,-0.25569 -0.51676,-0.33162 -0.1562,-0.0781 -0.301,-0.13075 -0.43334,-0.15462 -0.13451,-0.0239 -0.26832,-0.0346 -0.40282,-0.0346 -0.14969,0 -0.29083,0.0254 -0.42317,0.0753 -0.13234,0.0499 -0.2481,0.12386 -0.3479,0.22583 -0.0998,0.0998 -0.17756,0.22844 -0.23396,0.38248 -0.0586,0.15185 -0.0875,0.3291 -0.0875,0.53303 0,0.128 0.0127,0.25109 0.0387,0.36823 0.026,0.11498 0.0586,0.21975 0.0977,0.31738 0.0369,0.0955 0.0749,0.17704 0.11393,0.2421 0.0391,0.0629 0.0697,0.10618 0.0936,0.13224 0.0217,0.0261 0.0397,0.0442 0.0549,0.0529 0.0152,0.009 0.0315,0.0157 0.0488,0.0224 0.0173,0.005 0.0392,0.008 0.0631,0.0102 0.0239,0.002 0.0509,0.004 0.0834,0.004 0.0456,0 0.0855,-0.003 0.118,-0.008 0.0325,-0.004 0.0578,-0.01 0.0773,-0.0163 0.0195,-0.009 0.0341,-0.0176 0.0427,-0.0285 0.009,-0.013 0.0122,-0.0275 0.0122,-0.0427 0,-0.026 -0.0181,-0.0659 -0.0549,-0.118 -0.0369,-0.0542 -0.0766,-0.11924 -0.12003,-0.19734 -0.0434,-0.0803 -0.0832,-0.17256 -0.12004,-0.27669 -0.0369,-0.1063 -0.0549,-0.22573 -0.0549,-0.35807 0,-0.11281 0.0181,-0.21228 0.0549,-0.29906 0.0369,-0.0868 0.0856,-0.15926 0.14852,-0.21566 0.0629,-0.0586 0.13715,-0.10184 0.22176,-0.13224 0.0824,-0.0304 0.17119,-0.0468 0.26448,-0.0468 0.0933,0 0.19276,0.011 0.29906,0.0305 0.10631,0.0195 0.22383,0.0591 0.354,0.12206 0.13017,0.0607 0.27498,0.14951 0.43334,0.26449 0.15838,0.11281 0.33752,0.26291 0.5371,0.45165 l 0.86465,0.81785 c 0.0282,0.0261 0.0553,0.0478 0.0814,0.0651 0.0239,0.0152 0.0493,0.0278 0.0753,0.0386 0.0239,0.0105 0.0529,0.0177 0.0854,0.0224 0.0325,0.002 0.0705,0.004 0.11393,0.004 0.0477,0 0.0875,-0.004 0.12004,-0.0102 0.0325,-0.009 0.0579,-0.0214 0.0753,-0.0366 0.0174,-0.0174 0.03,-0.0373 0.0387,-0.059 0.007,-0.0238 0.0102,-0.051 0.0102,-0.0814 v -2.3254 c 0,-0.0195 -0.006,-0.0377 -0.0142,-0.0529 -0.0109,-0.0174 -0.0252,-0.03 -0.0448,-0.0387 -0.0217,-0.0112 -0.0469,-0.0184 -0.0773,-0.0224 -0.0304,-0.007 -0.0667,-0.0102 -0.10579,-0.0102 z m -0.8382,3.27956 c -0.12366,0 -0.23779,0.0217 -0.33976,0.0651 -0.10413,0.0412 -0.20185,0.1027 -0.29296,0.18514 -0.0933,0.0803 -0.18014,0.18165 -0.26041,0.30314 -0.0803,0.11932 -0.15804,0.25692 -0.23397,0.41096 -0.0694,-0.13017 -0.14162,-0.24607 -0.21972,-0.34586 -0.0803,-0.10197 -0.16727,-0.18692 -0.25838,-0.25634 -0.0911,-0.0694 -0.18693,-0.12193 -0.28889,-0.15666 -0.10197,-0.0369 -0.20877,-0.0549 -0.31941,-0.0549 -0.13668,0 -0.2652,0.0235 -0.38452,0.0712 -0.11932,0.0477 -0.22246,0.12183 -0.30924,0.22379 -0.089,0.0998 -0.15765,0.22831 -0.20751,0.38451 -0.0521,0.15403 -0.0773,0.3367 -0.0773,0.54931 0,0.22129 0.027,0.41684 0.0834,0.58389 0.0542,0.16488 0.13037,0.30046 0.22583,0.40893 0.0955,0.10633 0.20755,0.18587 0.33772,0.24007 0.128,0.0521 0.26547,0.0793 0.41299,0.0793 0.11716,0 0.22573,-0.0182 0.32552,-0.0529 0.0998,-0.0369 0.19384,-0.0893 0.28279,-0.15868 0.0868,-0.0694 0.1682,-0.15452 0.24414,-0.25431 0.0738,-0.0998 0.14433,-0.21366 0.21158,-0.34383 0.0738,0.14969 0.15152,0.28351 0.23396,0.40283 0.0803,0.11932 0.16713,0.22069 0.26042,0.30313 0.0933,0.0803 0.19656,0.14174 0.3072,0.18514 0.11065,0.0434 0.23184,0.0651 0.36417,0.0651 0.16705,0 0.31538,-0.0327 0.44555,-0.0956 0.13017,-0.0629 0.2386,-0.1533 0.32755,-0.27262 0.089,-0.11932 0.15791,-0.26399 0.20344,-0.43537 0.0455,-0.17139 0.0671,-0.36695 0.0671,-0.58389 0,-0.23213 -0.0254,-0.43638 -0.0753,-0.61645 -0.0499,-0.18006 -0.1221,-0.3322 -0.21973,-0.45368 -0.0976,-0.12368 -0.21705,-0.21773 -0.35806,-0.2828 -0.14318,-0.0651 -0.30604,-0.0976 -0.48827,-0.0976 z m 0.059,0.56558 c 0.19959,0 0.35688,0.0725 0.47403,0.21566 0.11498,0.14102 0.17293,0.35096 0.17293,0.62865 0,0.28636 -0.058,0.5016 -0.17293,0.64696 -0.11498,0.14318 -0.27784,0.21565 -0.48828,0.21565 -0.0955,0 -0.18231,-0.0163 -0.26041,-0.0488 -0.0803,-0.0347 -0.15626,-0.0855 -0.22786,-0.15055 -0.0716,-0.0673 -0.14026,-0.15235 -0.20751,-0.25431 -0.0673,-0.10413 -0.13416,-0.22342 -0.20142,-0.3601 0.0716,-0.14752 0.14027,-0.27794 0.20752,-0.38858 0.0651,-0.11281 0.13389,-0.20496 0.20548,-0.27872 0.0694,-0.076 0.14543,-0.132 0.22786,-0.16886 0.0803,-0.0369 0.17079,-0.057 0.27059,-0.057 z m -2.21961,0.13835 c 0.16488,0 0.31498,0.0578 0.45165,0.17496 0.13668,0.11715 0.26154,0.28543 0.37435,0.50455 -0.0673,0.13016 -0.13051,0.24227 -0.19124,0.33772 -0.0629,0.0933 -0.12821,0.17103 -0.19328,0.23396 -0.0651,0.0607 -0.13389,0.10795 -0.20548,0.13835 -0.0738,0.0282 -0.15138,0.0407 -0.236,0.0407 -0.1844,0 -0.3311,-0.0597 -0.43741,-0.17904 -0.1063,-0.12148 -0.15869,-0.29873 -0.15869,-0.53303 0,-0.11498 0.0145,-0.21621 0.0427,-0.30517 0.026,-0.0911 0.0639,-0.16712 0.11596,-0.22786 0.0521,-0.0608 0.11544,-0.10597 0.18921,-0.13631 0.0738,-0.0325 0.15709,-0.0488 0.2482,-0.0488 z m 2.99677,2.45967 c -0.0434,0 -0.0795,0.001 -0.10986,0.006 -0.0304,0.004 -0.0559,0.0115 -0.0732,0.0224 -0.0195,0.009 -0.032,0.0214 -0.0407,0.0366 -0.0109,0.013 -0.0163,0.0293 -0.0163,0.0488 v 1.50957 h -3.64169 c -0.0174,0 -0.0338,0.006 -0.0468,0.0142 -0.0129,0.009 -0.0218,0.0231 -0.0285,0.0448 -0.008,0.0217 -0.0157,0.0506 -0.0203,0.0875 -0.007,0.0348 -0.0102,0.0801 -0.0102,0.13428 0,0.0521 0.004,0.0954 0.0102,0.13224 0.004,0.0369 0.0117,0.0678 0.0203,0.0895 0.007,0.0217 0.0155,0.0361 0.0285,0.0448 0.0131,0.009 0.0295,0.0122 0.0468,0.0122 h 3.89804 c 0.0846,0 0.1443,-0.0217 0.17903,-0.0651 0.0325,-0.0455 0.0488,-0.0925 0.0488,-0.14242 v -1.86153 c 0,-0.0195 -0.006,-0.0358 -0.0142,-0.0488 -0.0109,-0.0152 -0.0252,-0.028 -0.0448,-0.0366 -0.0217,-0.0105 -0.0471,-0.0177 -0.0753,-0.0224 -0.0304,-0.005 -0.0665,-0.006 -0.10986,-0.006 z m -3.39349,3.22463 c -0.0694,0 -0.12385,0.005 -0.16072,0.0163 -0.0369,0.0109 -0.0695,0.0308 -0.0977,0.059 -0.0282,0.0282 -0.0644,0.0787 -0.10782,0.15462 -0.0456,0.0738 -0.0852,0.16605 -0.12207,0.27669 -0.039,0.10847 -0.0735,0.23333 -0.10172,0.37434 -0.0282,0.14101 -0.0427,0.29315 -0.0427,0.45369 0,0.3124 0.0544,0.59631 0.16072,0.85447 0.10414,0.256 0.25057,0.4768 0.44148,0.6612 0.19091,0.18224 0.42257,0.32528 0.69376,0.42724 0.27118,0.0998 0.57328,0.14852 0.90737,0.14852 0.32108,0 0.61245,-0.0471 0.87279,-0.14038 0.26033,-0.0933 0.48276,-0.2271 0.66934,-0.40282 0.18657,-0.1779 0.33138,-0.39504 0.43334,-0.65103 0.0998,-0.256 0.15055,-0.54737 0.15055,-0.87279 0,-0.1063 -0.007,-0.21297 -0.0204,-0.32145 -0.0131,-0.10847 -0.033,-0.21514 -0.059,-0.32144 -0.0261,-0.10631 -0.0567,-0.20945 -0.0936,-0.30924 -0.0369,-0.0998 -0.0714,-0.1812 -0.10173,-0.24414 -0.0326,-0.0629 -0.0687,-0.10457 -0.10986,-0.1241 -0.0412,-0.0195 -0.0901,-0.0285 -0.14648,-0.0285 h -1.60519 c -0.039,0 -0.0734,0.005 -0.10376,0.0163 -0.0304,0.0109 -0.0539,0.0252 -0.0712,0.0448 -0.0173,0.0195 -0.03,0.0412 -0.0386,0.0651 -0.009,0.0239 -0.0142,0.0473 -0.0142,0.0712 v 1.33868 c 0,0.0195 0.006,0.0358 0.0142,0.0488 0.009,0.013 0.0232,0.0237 0.0427,0.0346 0.0173,0.008 0.0408,0.0157 0.0712,0.0203 0.0282,0.005 0.0626,0.006 0.10376,0.006 0.0781,0 0.13606,-0.009 0.17293,-0.0264 0.0369,-0.0195 0.0549,-0.0465 0.0549,-0.0834 v -0.97654 h 1.22678 c 0.0629,0.11498 0.10988,0.23983 0.14241,0.37434 0.0304,0.13233 0.0468,0.26452 0.0468,0.39469 0,0.21911 -0.0381,0.41983 -0.1119,0.60423 -0.0738,0.18223 -0.18233,0.33966 -0.32551,0.472 -0.14318,0.13234 -0.31867,0.23737 -0.52693,0.31331 -0.20827,0.0738 -0.44713,0.10986 -0.71613,0.10986 -0.24082,0 -0.46325,-0.0345 -0.66934,-0.10173 -0.2061,-0.0694 -0.38334,-0.167 -0.53303,-0.29499 -0.1497,-0.128 -0.26736,-0.28557 -0.35197,-0.46997 -0.0846,-0.1844 -0.12817,-0.39245 -0.12817,-0.62458 0,-0.19525 0.0219,-0.36353 0.0631,-0.50454 0.0412,-0.14319 0.0864,-0.26425 0.13631,-0.36621 0.0499,-0.10198 0.0951,-0.1834 0.13631,-0.24413 0.0412,-0.0607 0.061,-0.10414 0.061,-0.13021 0,-0.0152 -0.004,-0.0297 -0.0122,-0.0427 -0.009,-0.013 -0.0232,-0.0239 -0.0427,-0.0326 -0.0217,-0.008 -0.0469,-0.0157 -0.0773,-0.0203 -0.0326,-0.005 -0.0687,-0.006 -0.10986,-0.006 z"  id="path1" fill="black"/>
                        <path stroke="none" gorn="0.1.0.0.0.2.1" d="m 549.30747,-358.99414 a 0.5,0.5 0 0 0 -0.5,0.5 0.5,0.5 0 0 0 0.5,0.5 h 4.90039 a 0.5,0.5 0 0 0 0.5,-0.5 0.5,0.5 0 0 0 -0.5,-0.5 z"  id="gge27" fill="black"/>
                        <path stroke="none" gorn="0.1.0.0.0.2.2" d="m 540.40708,-358.97851 a 0.5,0.50982054 0 0 0 -0.5,0.50982 v 20.0702 a 0.5,0.50982054 0 0 0 0.5,0.50982 0.5,0.50982054 0 0 0 0.5,-0.50982 v -20.0702 a 0.5,0.50982054 0 0 0 -0.5,-0.50982 z" style="color:#000000;stroke-linecap:round;stroke-linejoin:round;shape-rendering:crispEdges;stroke-dasharray:none" stroke-opacity="1"  id="gge22" fill="#000000" stroke-width="0"/>
                        <path stroke="none" gorn="0.1.0.0.0.2.3" d="m 554.20786,-359 a 0.5,0.51029168 0 0 0 -0.5,0.51029 v 20.09075 a 0.5,0.51029168 0 0 0 0.5,0.51029 0.5,0.51029168 0 0 0 0.5,-0.51029 v -20.09075 a 0.5,0.51029168 0 0 0 -0.5,-0.51029 z"  id="gge23" fill="black"/>
                        <path stroke="none" gorn="0.1.0.0.0.2.4" d="m 540.40708,-338.88867 a 0.5,0.5 0 0 0 -0.5,0.5 0.5,0.5 0 0 0 0.5,0.5 h 13.80078 a 0.5,0.5 0 0 0 0.5,-0.5 0.5,0.5 0 0 0 -0.5,-0.5 z"  id="gge24" fill="black"/>
                        <path stroke="none" gorn="0.1.0.0.0.2.5" d="m 540.40708,-358.99414 a 0.5,0.5 0 0 0 -0.5,0.5 0.5,0.5 0 0 0 0.5,0.5 h 4.90039 a 0.5,0.5 0 0 0 0.5,-0.5 0.5,0.5 0 0 0 -0.5,-0.5 z"  id="gge26" fill="black"/>
                        <path stroke="none" gorn="0.1.0.0.0.2.6" d="m 544.80747,-358.49414 c 0,0.79167 0.31488,1.44808 0.79297,1.87305 0.47809,0.42497 1.09592,0.62695 1.70703,0.62695 0.61111,0 1.22894,-0.20198 1.70703,-0.62695 0.47809,-0.42497 0.79297,-1.08138 0.79297,-1.87305 h -1 c 0,0.54167 -0.18512,0.88526 -0.45703,1.12695 -0.27191,0.2417 -0.65408,0.37305 -1.04297,0.37305 -0.38889,0 -0.77106,-0.13135 -1.04297,-0.37305 -0.27191,-0.24169 -0.45703,-0.58528 -0.45703,-1.12695 z"  id="gge28" fill="black"/>
                    </g>
                </g>
            </g>
        </g>
    </g>
</svg>
