<?xml version='1.0' encoding='UTF-8' standalone='no'?>
<svg xmlns="http://www.w3.org/2000/svg" version="1.1" width="9.5749998mm" viewBox="0 0 37.697364 57.243013" id="svg43185"  height="14.54mm" gorn="0">
    <desc >
        <referenceFile >PJ-342.svg</referenceFile>
    </desc>
    <g transform="translate(-4021.1,-2998.1)" >
        <g >
            <g >
                <g >
                    <defs id="defs43189" />
                    <g id="copper1"  gorn="0.1.0.0.0.1">
                        <path style="stroke-linecap:square;stroke-linejoin:round;stroke-dashoffset:5.91477;paint-order:markers stroke fill;" stroke-width="0.0761344" fill="#fdde68" id="connector0pad" fill-opacity="1"  gorn="0.1.0.0.0.1.0" d="m 4021.1,3015.9986 v -3.0628 h 4.4765 4.4764 v 3.0628 3.0628 h -4.4764 -4.4765 z"/>
                        <path style="stroke-linecap:square;stroke-linejoin:round;stroke-dashoffset:5.91477;paint-order:markers stroke fill;" stroke-width="0.0761344" fill="#fdde68" id="connector1pad" fill-opacity="1"  gorn="0.1.0.0.0.1.1" d="m 4021.1,3027.4253 v -3.0628 h 4.4765 4.4764 v 3.0628 3.0628 h -4.4764 -4.4765 z"/>
                        <path style="stroke-linecap:square;stroke-linejoin:round;stroke-dashoffset:5.91477;paint-order:markers stroke fill;" stroke-width="0.0761344" fill="#fdde68" id="connector2pad" fill-opacity="1"  gorn="0.1.0.0.0.1.2" d="m 4021.1,3049.8663 v -3.1218 h 4.4765 4.4764 v 3.1218 3.1217 h -4.4764 -4.4765 z"/>
                        <path style="stroke-linecap:square;stroke-linejoin:round;stroke-dashoffset:5.91477;paint-order:markers stroke fill;" stroke-width="0.0761344" fill="#fdde68" id="connector3pad" fill-opacity="1"  gorn="0.1.0.0.0.1.3" d="m 4049.8433,3052.2223 v -3.1217 h 4.4765 4.4764 v 3.1217 3.1217 h -4.4764 -4.4765 z"/>
                        <path style="stroke-linecap:square;stroke-linejoin:round;stroke-dashoffset:5.91477;paint-order:markers stroke fill;" stroke-width="0.0761344" fill="#fdde68" id="connector4pin" fill-opacity="1"  gorn="0.1.0.0.0.1.4" d="m 4049.8433,3043.5639 v -3.0628 h 4.4765 4.4764 v 3.0628 3.0628 h -4.4764 -4.4765 z"/>
                        <path style="stroke-linecap:square;stroke-linejoin:round;stroke-dashoffset:5.91477;paint-order:markers stroke fill;" stroke-width="0.0761344" fill="#fdde68" id="connector5pin" fill-opacity="1"  gorn="0.1.0.0.0.1.5" d="m 4049.8433,3015.5863 v -3.1217 h 4.4765 4.4764 v 3.1217 3.1217 h -4.4764 -4.4765 z"/>
                        <circle r="3.1130545" cx="4039.9834" cy="3016.0129" stroke-width="0" fill="black" id="nonconn1"  gorn="0.1.0.0.0.1.6"/>
                        <circle r="3.1130545" cx="4039.9771" cy="3043.6147" stroke-width="0" fill="black" id="nonconn0"  gorn="0.1.0.0.0.1.7"/>
                    </g>
                    <g id="silkscreen"  gorn="0.1.0.0.0.2">
                        <path style="stroke-linecap:square;stroke-linejoin:round;stroke-dashoffset:5.91477;paint-order:markers stroke fill;" stroke-width="0.0545724" fill="#000000" id="path44536" fill-opacity="1"  gorn="0.1.0.0.0.2.0" d="m 4027.2432,3054.3347 c -0.2541,-0.1025 -0.3253,-0.3856 -0.1602,-0.6376 l 0.1356,-0.2069 h 10.7579 c 11.7513,0 11.0233,-0.031 11.0233,0.4644 0,0.4951 0.7194,0.4649 -10.9197,0.4591 -5.8599,0 -10.7364,-0.039 -10.8369,-0.079 z"/>
                        <path style="stroke-linecap:square;stroke-linejoin:round;stroke-dashoffset:5.91477;paint-order:markers stroke fill;" stroke-width="0.0545724" fill="#000000" id="path44575" fill-opacity="1"  gorn="0.1.0.0.0.2.1" d="m 4027.0665,3046.131 c -0.082,-0.082 -0.1051,-1.7155 -0.1051,-7.5159 v -7.4107 l 0.1767,-0.095 c 0.2523,-0.135 0.5754,-0.028 0.6707,0.2232 0.1318,0.3468 0.1057,14.3779 -0.027,14.6422 -0.12,0.2384 -0.5407,0.3301 -0.715,0.1558 z"/>
                        <path style="stroke-linecap:square;stroke-linejoin:round;stroke-dashoffset:5.91477;paint-order:markers stroke fill;" stroke-width="0.0545724" fill="#000000" id="path44614" fill-opacity="1"  gorn="0.1.0.0.0.2.2" d="m 4052.2567,3048.4601 c -0.1952,-0.1952 -0.1805,-0.98 0.022,-1.163 0.3846,-0.3481 0.7744,-0.029 0.7744,0.6329 0,0.4458 -0.152,0.6628 -0.4644,0.6628 -0.1095,0 -0.2587,-0.06 -0.3317,-0.1327 z"/>
                        <path style="stroke-linecap:square;stroke-linejoin:round;stroke-dashoffset:5.91477;paint-order:markers stroke fill;" stroke-width="0.0545724" fill="#000000" id="path44653" fill-opacity="1"  gorn="0.1.0.0.0.2.3" d="m 4052.2929,3039.8112 c -0.167,-0.167 -0.1689,-0.2815 -0.1689,-10.2462 0,-9.6554 0.01,-10.0831 0.1544,-10.217 0.2026,-0.1833 0.4609,-0.1774 0.6347,0.015 0.1284,0.1418 0.1397,0.9721 0.1397,10.217 0,9.95 0,10.0645 -0.1689,10.2315 -0.093,0.093 -0.2258,0.1689 -0.2955,0.1689 -0.07,0 -0.2026,-0.076 -0.2955,-0.1689 z"/>
                        <path style="stroke-linecap:square;stroke-linejoin:round;stroke-dashoffset:5.91477;paint-order:markers stroke fill;" stroke-width="0.0545724" fill="#000000" id="path44692" fill-opacity="1"  gorn="0.1.0.0.0.2.4" d="m 4027.1491,3023.7209 c -0.1844,-0.1291 -0.1877,-0.1643 -0.1877,-2.0162 0,-2.0563 0.013,-2.113 0.4785,-2.0592 0.4123,0.048 0.4554,0.2643 0.4305,2.1668 -0.022,1.6905 -0.025,1.7201 -0.2217,1.8788 -0.241,0.1949 -0.2621,0.1962 -0.4996,0.03 z"/>
                        <path style="stroke-linecap:square;stroke-linejoin:round;stroke-dashoffset:5.91477;paint-order:markers stroke fill;" stroke-width="0.0545724" fill="#000000" id="path44731" fill-opacity="1"  gorn="0.1.0.0.0.2.5" d="m 4027.0627,3012.2624 c -0.1397,-0.1683 -0.1517,-5.8529 -0.013,-6.0204 0.079,-0.096 0.3608,-0.1217 1.3151,-0.1217 h 1.214 v -3.8475 c 0,-2.4907 0.031,-3.9051 0.087,-4.0108 0.086,-0.1601 0.29,-0.1633 10.3407,-0.1633 10.0507,0 10.255,0 10.3407,0.1633 0.057,0.1057 0.087,1.5201 0.087,4.0108 v 3.8475 h 1.2214 c 1.1211,0 1.2286,0.013 1.3088,0.1633 0.055,0.1026 0.087,1.1398 0.087,2.7865 0,2.5106 -0.01,2.6304 -0.1689,2.792 -0.093,0.093 -0.2258,0.1689 -0.2955,0.1689 -0.07,0 -0.2027,-0.076 -0.2955,-0.1689 -0.1607,-0.1607 -0.1689,-0.2814 -0.1689,-2.4909 v -2.3221 h -12.1169 -12.1169 v 2.4276 c 0,2.6867 -0.025,2.8313 -0.4723,2.8753 -0.144,0.014 -0.3009,-0.026 -0.354,-0.09 z m 22.4437,-9.7307 v -3.5886 h -9.4993 -9.4993 v 3.5886 3.5886 h 9.4993 9.4993 z"/>
                    </g>
                </g>
            </g>
        </g>
    </g>
</svg>
