<?xml version='1.0' encoding='UTF-8' standalone='no'?>
<svg xmlns="http://www.w3.org/2000/svg" xml:space="preserve" fill-rule="evenodd" gorn="0" text-rendering="geometricPrecision" image-rendering="optimizeQuality" height="26.2mm" viewBox="0 0 4465.4 2620" xmlns:xml="http://www.w3.org/XML/1998/namespace" width="44.654mm" shape-rendering="geometricPrecision"  clip-rule="evenodd" id="svg279" version="1.0">
    <defs  id="defs283"/>
    <desc  id="desc2">
        <referenceFile >LicheeHEADERS_20fe3d9059cab8d8b4db07bd3836f6f0_4_pcb.svg</referenceFile>
    </desc>
    <g gorn="0.2"  id="silkscreen">
        <path d="M-0 27.3l4370.7 0 94.7 94.7 0 2369.2 -94.7 88.8 -4370.7 0 0 -30.4c22.09,0 40,-17.9 40,-40 0,-22.09 -17.91,-40 -39.99,-40l-0.01 0 0 -47c22.09,-0.01 40,-17.91 40,-40 0,-22.1 -17.91,-40 -40,-40l0 -47c22.09,0 40,-17.9 40,-40 0,-22.08 -17.91,-40.01 -40,-40l0 -46.99c22.09,-0.01 40,-17.92 40,-40.01 0,-22.09 -17.91,-40 -40,-40l0 -47c22.09,0 40,-17.91 40.01,-40 -0.01,-22.09 -17.92,-40 -40.01,-40l0 -47c22.09,0 40,-17.91 40,-40 0,-22.08 -17.91,-40 -40,-40l0 -47c22.09,0.01 40,-17.91 39.99,-40 0.01,-22.09 -17.9,-40.01 -39.99,-40.01l0 -46.99c22.09,0 40,-17.91 40,-40 0,-22.09 -17.91,-40 -40,-40l0 -47c22.09,0 40,-17.92 40,-40 0,-22.09 -17.91,-40 -40,-40l0 -47c22.1,-0.01 40,-17.92 40,-40 0,-22.09 -17.91,-40 -40,-40l0 -47.01c22.09,0.02 40,-17.9 40,-39.99 0,-22.1 -17.91,-40 -40,-40l0 -47c22.09,0 40,-17.91 40,-40 -0.01,-22.09 -17.91,-39.99 -40,-40.01l0 -46.99c22.09,0 40,-17.91 40,-40.01 0,-22.08 -17.92,-39.99 -40,-39.99l0 -47c22.09,0 40.01,-17.91 40,-40 0,-22.09 -17.92,-40 -40,-40l0 -47c22.09,-0.01 40,-17.9 40,-40 0,-22.09 -17.9,-39.99 -40,-40l0 -47.01c22.08,0.01 40,-17.9 39.99,-39.99 0.02,-22.09 -17.9,-40 -39.98,-40l-0.01 0 0 -47c22.09,0 40,-17.91 40,-40 0,-22.09 -17.91,-40 -40,-40l0 -47c22.09,0 40,-17.91 40,-40 0,-22.1 -17.9,-39.99 -40,-40l0 -47c22.09,0 40.01,-17.91 40,-40 0,-22.09 -17.91,-40.01 -40,-40l0 -46.99c22.09,-0.01 40,-17.92 40,-40.01 0,-22.09 -17.91,-40 -40,-39.99l0 -29.31zm4362.42 20l-4328.23 0c2.95,2.05 5.7,4.35 8.23,6.88l-0.04 0.04c10.88,10.88 17.62,25.87 17.62,42.36l0 0.02c0,16.56 -6.73,31.57 -17.58,42.42l-0.04 -0.04c-6.24,6.24 -13.87,11.11 -22.38,14.12l0 13.96c8.54,3 16.18,7.87 22.42,14.11 10.85,10.85 17.58,25.85 17.58,42.41l0 0.02 0 0.02 -0.08 0c0.01,16.58 -6.68,31.59 -17.49,42.4 -6.26,6.26 -13.9,11.15 -22.43,14.17l0 13.89c8.55,3 16.19,7.86 22.43,14.1l-0.04 0.04c10.88,10.88 17.61,25.88 17.61,42.38 0,16.56 -6.73,31.57 -17.58,42.42 -6.26,6.26 -13.9,11.14 -22.42,14.16l0 13.84c8.52,3.02 16.16,7.9 22.42,14.16l-0.04 0.04c10.88,10.88 17.62,25.88 17.62,42.38 0,16.56 -6.73,31.57 -17.58,42.42 -6.26,6.26 -13.9,11.14 -22.42,14.16l0 13.89c8.55,3 16.19,7.87 22.43,14.11 10.84,10.84 17.56,25.83 17.56,42.38l0 0.04 0 0.04c0,16.48 -6.74,31.46 -17.61,42.34l0.04 0.04c-6.26,6.26 -13.9,11.14 -22.42,14.16l0 13.84c8.53,3.01 16.17,7.9 22.43,14.16l0 0.08c10.84,10.86 17.57,25.83 17.57,42.34 0,16.51 -6.73,31.48 -17.57,42.34l0 0.08c-6.24,6.24 -13.88,11.1 -22.43,14.1l0 13.9c8.52,3.02 16.16,7.9 22.42,14.16 10.85,10.85 17.58,25.86 17.58,42.42l0 0.02 -0.08 0c0.01,16.58 -6.68,31.59 -17.49,42.4 -6.26,6.26 -13.9,11.15 -22.43,14.17l0 13.83c8.52,3.02 16.16,7.9 22.42,14.16l-0.04 0.04c10.88,10.88 17.62,25.88 17.62,42.37 0,16.57 -6.73,31.58 -17.58,42.43l-0.04 -0.04c-6.26,6.26 -13.89,11.15 -22.38,14.17l0 13.92c8.54,3 16.18,7.87 22.42,14.11 10.85,10.85 17.58,25.86 17.58,42.42 0,16.56 -6.73,31.57 -17.58,42.42 -6.26,6.26 -13.9,11.14 -22.42,14.16l0 13.86c8.49,3.01 16.1,7.89 22.35,14.13l0.08 0.08c10.84,10.86 17.57,25.84 17.57,42.35l0 0.04 -0.08 0c-0.01,16.59 -6.71,31.6 -17.5,42.39 -6.26,6.26 -13.9,11.14 -22.42,14.15l0 13.84c8.52,3.02 16.16,7.9 22.42,14.16 10.85,10.85 17.58,25.86 17.58,42.42 0,16.5 -6.73,31.48 -17.57,42.34l0 0.08c-6.26,6.26 -13.9,11.15 -22.43,14.16l0 13.84c8.52,3.02 16.16,7.9 22.42,14.16 10.85,10.85 17.58,25.86 17.58,42.42 0,16.56 -6.73,31.57 -17.58,42.42 -6.26,6.26 -13.9,11.14 -22.42,14.16l0 13.84c8.52,3.02 16.16,7.9 22.42,14.16 10.85,10.85 17.58,25.86 17.58,42.42 0,16.5 -6.74,31.5 -17.62,42.38l0.04 0.04c-6.26,6.26 -13.9,11.14 -22.42,14.16l0 13.89c8.54,3 16.18,7.86 22.42,14.1l0 0.08c10.84,10.86 17.57,25.83 17.57,42.33l0 0.02 0 0.04c0,16.55 -6.73,31.55 -17.57,42.39 -6.26,6.26 -13.9,11.14 -22.42,14.16l0 13.83c8.52,3.02 16.16,7.9 22.42,14.16 10.85,10.85 17.58,25.86 17.58,42.42 0,16.5 -6.74,31.5 -17.62,42.38l0.04 0.04c-6.26,6.26 -13.9,11.14 -22.42,14.16l0 13.84c8.52,3.02 16.16,7.9 22.42,14.16l-0.04 0.04c10.83,10.83 17.54,25.84 17.55,42.38 -0.01,16.54 -6.72,31.55 -17.55,42.38l0.04 0.04c-6.26,6.26 -13.9,11.14 -22.42,14.16l0 13.84c8.52,3.02 16.16,7.9 22.42,14.16 10.85,10.85 17.58,25.86 17.58,42.42 0,16.56 -6.73,31.57 -17.58,42.42l-0.04 -0.04c-6.24,6.24 -13.87,11.11 -22.38,14.12l0 13.99c8.48,3 16.09,7.86 22.34,14.09l0 0c0.01,0.01 0.03,0.03 0.04,0.04 0.01,0.01 0.03,0.03 0.04,0.04l0 0c10.85,10.87 17.58,25.87 17.58,42.32l0 0.02c0,16.51 -6.73,31.49 -17.57,42.35l-0.08 0.08c-6.25,6.24 -13.86,11.12 -22.35,14.13l0 13.88c8.49,3.01 16.1,7.89 22.35,14.13l0.08 0.08c10.84,10.86 17.57,25.84 17.57,42.35 0,16.5 -6.73,31.48 -17.57,42.34l0 0.08c-6.24,6.24 -13.88,11.1 -22.43,14.1l0 13.9c8.53,3.01 16.17,7.9 22.43,14.16l0 0.08c10.84,10.86 17.57,25.84 17.57,42.34 0,16.51 -6.73,31.49 -17.57,42.35l-0.08 0.08c-2.99,2.99 -6.3,5.66 -9.86,7.97l4330.37 0 82.54 -77.39 0 -2352.33 -82.98 -82.98z" gorn="0.2.0"  id="path276" fill="black"/>
        <g transform="matrix(1.9993194,0,0,1.9993194,0,27.3)" >
            <g >
                <g gorn="0.2.1.0.0" style="clip-rule:evenodd;fill-rule:evenodd;image-rendering:optimizeQuality;shape-rendering:geometricPrecision;text-rendering:geometricPrecision"  id="g11152">
                    <path d="m 456.89999,298.64001 h 500.18 c 55.41661,0 100.03001,44.61338 100.03001,100.03 v 500.18 c 0,55.41662 -44.6134,100.02999 -100.03001,100.02999 h -500.18 C 401.48337,998.88 356.87,954.26663 356.87,898.85001 v -500.18 c 0,-55.41662 44.61337,-100.03 100.02999,-100.03 z" gorn="0.2.1.0.0.0" style="fill:#373435"  id="rect11138"/>
                </g>
            </g>
        </g>
    </g>
    <g transform="matrix(1,0,0,-1,0,2620.0001)" >
        <g >
            <g gorn="0.3.0.0"  id="copper1">
                <g gorn="0.3.0.0.0"  id="copper0">
                    <g transform="rotate(90,2136.4999,2176.5001)" >
                        <g >
                            <g gorn="0.3.0.0.0.0.0.0"  id="g5">
                                <circle gorn="0.3.0.0.0.0.0.0.0" stroke-miterlimit="2.61313" cy="0" cx="0" stroke-width="20"  r="40" stroke="#ffbf00" id="connector0pin" fill="none"/>
                            </g>
                        </g>
                    </g>
                    <g transform="rotate(90,2072.9999,2113.0001)" >
                        <g >
                            <g gorn="0.3.0.0.0.1.0.0"  id="g8">
                                <circle gorn="0.3.0.0.0.1.0.0.0" stroke-miterlimit="2.61313" cy="0" cx="0" stroke-width="20"  r="40" stroke="#ffbf00" id="connector1pin" fill="none"/>
                            </g>
                        </g>
                    </g>
                    <g transform="rotate(90,2009.4999,2049.5001)" >
                        <g >
                            <g gorn="0.3.0.0.0.2.0.0"  id="g11">
                                <circle gorn="0.3.0.0.0.2.0.0.0" stroke-miterlimit="2.61313" cy="0" cx="0" stroke-width="20"  r="40" stroke="#ffbf00" id="connector2pin" fill="none"/>
                            </g>
                        </g>
                    </g>
                    <g transform="rotate(90,1945.9999,1986.0001)" >
                        <g >
                            <g gorn="0.3.0.0.0.3.0.0"  id="g14">
                                <circle gorn="0.3.0.0.0.3.0.0.0" stroke-miterlimit="2.61313" cy="0" cx="0" stroke-width="20"  r="40" stroke="#ffbf00" id="connector3pin" fill="none"/>
                            </g>
                        </g>
                    </g>
                    <g transform="rotate(90,1882.4999,1922.5001)" >
                        <g >
                            <g gorn="0.3.0.0.0.4.0.0"  id="g17">
                                <circle gorn="0.3.0.0.0.4.0.0.0" stroke-miterlimit="2.61313" cy="0" cx="0" stroke-width="20"  r="40" stroke="#ffbf00" id="connector4pin" fill="none"/>
                            </g>
                        </g>
                    </g>
                    <g transform="rotate(90,1818.9999,1859.0001)" >
                        <g >
                            <g gorn="0.3.0.0.0.5.0.0"  id="g20">
                                <circle gorn="0.3.0.0.0.5.0.0.0" stroke-miterlimit="2.61313" cy="0" cx="0" stroke-width="20"  r="40" stroke="#ffbf00" id="connector5pin" fill="none"/>
                            </g>
                        </g>
                    </g>
                    <g transform="rotate(90,1755.4999,1795.5001)" >
                        <g >
                            <g gorn="0.3.0.0.0.6.0.0"  id="g23">
                                <circle gorn="0.3.0.0.0.6.0.0.0" stroke-miterlimit="2.61313" cy="0" cx="0" stroke-width="20"  r="40" stroke="#ffbf00" id="connector6pin" fill="none"/>
                            </g>
                        </g>
                    </g>
                    <g transform="rotate(90,1691.9999,1732.0001)" >
                        <g >
                            <g gorn="0.3.0.0.0.7.0.0"  id="g26">
                                <circle gorn="0.3.0.0.0.7.0.0.0" stroke-miterlimit="2.61313" cy="0" cx="0" stroke-width="20"  r="40" stroke="#ffbf00" id="connector7pin" fill="none"/>
                            </g>
                        </g>
                    </g>
                    <g transform="rotate(90,1628.4999,1668.5001)" >
                        <g >
                            <g gorn="0.3.0.0.0.8.0.0"  id="g29">
                                <circle gorn="0.3.0.0.0.8.0.0.0" stroke-miterlimit="2.61313" cy="0" cx="0" stroke-width="20"  r="40" stroke="#ffbf00" id="connector8pin" fill="none"/>
                            </g>
                        </g>
                    </g>
                    <g transform="rotate(90,1564.9999,1605.0001)" >
                        <g >
                            <g gorn="0.3.0.0.0.9.0.0"  id="g32">
                                <circle gorn="0.3.0.0.0.9.0.0.0" stroke-miterlimit="2.61313" cy="0" cx="0" stroke-width="20"  r="40" stroke="#ffbf00" id="connector9pin" fill="none"/>
                            </g>
                        </g>
                    </g>
                    <g transform="rotate(90,1501.4999,1541.5001)" >
                        <g >
                            <g gorn="0.3.0.0.0.10.0.0"  id="g35">
                                <circle gorn="0.3.0.0.0.10.0.0.0" stroke-miterlimit="2.61313" cy="0" cx="0" stroke-width="20"  r="40" stroke="#ffbf00" id="connector10pin" fill="none"/>
                            </g>
                        </g>
                    </g>
                    <g transform="rotate(90,1437.9999,1478.0001)" >
                        <g >
                            <g gorn="0.3.0.0.0.11.0.0"  id="g38">
                                <circle gorn="0.3.0.0.0.11.0.0.0" stroke-miterlimit="2.61313" cy="0" cx="0" stroke-width="20"  r="40" stroke="#ffbf00" id="connector11pin" fill="none"/>
                            </g>
                        </g>
                    </g>
                    <g transform="rotate(90,1374.4999,1414.5001)" >
                        <g >
                            <g gorn="0.3.0.0.0.12.0.0"  id="g41">
                                <circle gorn="0.3.0.0.0.12.0.0.0" stroke-miterlimit="2.61313" cy="0" cx="0" stroke-width="20"  r="40" stroke="#ffbf00" id="connector12pin" fill="none"/>
                            </g>
                        </g>
                    </g>
                    <g transform="rotate(90,1310.9999,1351.0001)" >
                        <g >
                            <g gorn="0.3.0.0.0.13.0.0"  id="g44">
                                <circle gorn="0.3.0.0.0.13.0.0.0" stroke-miterlimit="2.61313" cy="0" cx="0" stroke-width="20"  r="40" stroke="#ffbf00" id="connector13pin" fill="none"/>
                            </g>
                        </g>
                    </g>
                    <g transform="rotate(90,1247.4999,1287.5001)" >
                        <g >
                            <g gorn="0.3.0.0.0.14.0.0"  id="g47">
                                <circle gorn="0.3.0.0.0.14.0.0.0" stroke-miterlimit="2.61313" cy="0" cx="0" stroke-width="20"  r="40" stroke="#ffbf00" id="connector14pin" fill="none"/>
                            </g>
                        </g>
                    </g>
                    <g transform="rotate(90,1183.9999,1224.0001)" >
                        <g >
                            <g gorn="0.3.0.0.0.15.0.0"  id="g50">
                                <circle gorn="0.3.0.0.0.15.0.0.0" stroke-miterlimit="2.61313" cy="0" cx="0" stroke-width="20"  r="40" stroke="#ffbf00" id="connector15pin" fill="none"/>
                            </g>
                        </g>
                    </g>
                    <g transform="rotate(90,1120.4999,1160.5001)" >
                        <g >
                            <g gorn="0.3.0.0.0.16.0.0"  id="g53">
                                <circle gorn="0.3.0.0.0.16.0.0.0" stroke-miterlimit="2.61313" cy="0" cx="0" stroke-width="20"  r="40" stroke="#ffbf00" id="connector16pin" fill="none"/>
                            </g>
                        </g>
                    </g>
                    <g transform="rotate(90,1056.9999,1097.0001)" >
                        <g >
                            <g gorn="0.3.0.0.0.17.0.0"  id="g56">
                                <circle gorn="0.3.0.0.0.17.0.0.0" stroke-miterlimit="2.61313" cy="0" cx="0" stroke-width="20"  r="40" stroke="#ffbf00" id="connector17pin" fill="none"/>
                            </g>
                        </g>
                    </g>
                    <g transform="rotate(90,993.49995,1033.5001)" >
                        <g >
                            <g gorn="0.3.0.0.0.18.0.0"  id="g59">
                                <circle gorn="0.3.0.0.0.18.0.0.0" stroke-miterlimit="2.61313" cy="0" cx="0" stroke-width="20"  r="40" stroke="#ffbf00" id="connector18pin" fill="none"/>
                            </g>
                        </g>
                    </g>
                    <g transform="rotate(90,929.99995,970.00005)" >
                        <g >
                            <g gorn="0.3.0.0.0.19.0.0"  id="g62">
                                <circle gorn="0.3.0.0.0.19.0.0.0" stroke-miterlimit="2.61313" cy="0" cx="0" stroke-width="20"  r="40" stroke="#ffbf00" id="connector19pin" fill="none"/>
                            </g>
                        </g>
                    </g>
                    <g transform="rotate(90,866.49995,906.50005)" >
                        <g >
                            <g gorn="0.3.0.0.0.20.0.0"  id="g65">
                                <circle gorn="0.3.0.0.0.20.0.0.0" stroke-miterlimit="2.61313" cy="0" cx="0" stroke-width="20"  r="40" stroke="#ffbf00" id="connector20pin" fill="none"/>
                            </g>
                        </g>
                    </g>
                    <g transform="rotate(90,802.99995,843.00005)" >
                        <g >
                            <g gorn="0.3.0.0.0.21.0.0"  id="g68">
                                <circle gorn="0.3.0.0.0.21.0.0.0" stroke-miterlimit="2.61313" cy="0" cx="0" stroke-width="20"  r="40" stroke="#ffbf00" id="connector21pin" fill="none"/>
                            </g>
                        </g>
                    </g>
                    <g transform="rotate(90,739.49995,779.50005)" >
                        <g >
                            <g gorn="0.3.0.0.0.22.0.0"  id="g71">
                                <circle gorn="0.3.0.0.0.22.0.0.0" stroke-miterlimit="2.61313" cy="0" cx="0" stroke-width="20"  r="40" stroke="#ffbf00" id="connector22pin" fill="none"/>
                            </g>
                        </g>
                    </g>
                    <g transform="rotate(90,675.99995,716.00005)" >
                        <g >
                            <g gorn="0.3.0.0.0.23.0.0"  id="g74">
                                <circle gorn="0.3.0.0.0.23.0.0.0" stroke-miterlimit="2.61313" cy="0" cx="0" stroke-width="20"  r="40" stroke="#ffbf00" id="connector23pin" fill="none"/>
                            </g>
                        </g>
                    </g>
                    <g transform="rotate(90,612.49995,652.50005)" >
                        <g >
                            <g gorn="0.3.0.0.0.24.0.0"  id="g77">
                                <circle gorn="0.3.0.0.0.24.0.0.0" stroke-miterlimit="2.61313" cy="0" cx="0" stroke-width="20"  r="40" stroke="#ffbf00" id="connector24pin" fill="none"/>
                            </g>
                        </g>
                    </g>
                    <g transform="rotate(90,548.99995,589.00005)" >
                        <g >
                            <g gorn="0.3.0.0.0.25.0.0"  id="g80">
                                <circle gorn="0.3.0.0.0.25.0.0.0" stroke-miterlimit="2.61313" cy="0" cx="0" stroke-width="20"  r="40" stroke="#ffbf00" id="connector25pin" fill="none"/>
                            </g>
                        </g>
                    </g>
                    <g transform="rotate(90,485.49995,525.50005)" >
                        <g >
                            <g gorn="0.3.0.0.0.26.0.0"  id="g83">
                                <circle gorn="0.3.0.0.0.26.0.0.0" stroke-miterlimit="2.61313" cy="0" cx="0" stroke-width="20"  r="40" stroke="#ffbf00" id="connector26pin" fill="none"/>
                            </g>
                        </g>
                    </g>
                    <g transform="rotate(90,421.99995,462.00005)" >
                        <g >
                            <g gorn="0.3.0.0.0.27.0.0"  id="g86">
                                <circle gorn="0.3.0.0.0.27.0.0.0" stroke-miterlimit="2.61313" cy="0" cx="0" stroke-width="20"  r="40" stroke="#ffbf00" id="connector27pin" fill="none"/>
                            </g>
                        </g>
                    </g>
                    <g transform="rotate(90,358.49995,398.50005)" >
                        <g >
                            <g gorn="0.3.0.0.0.28.0.0"  id="g89">
                                <circle gorn="0.3.0.0.0.28.0.0.0" stroke-miterlimit="2.61313" cy="0" cx="0" stroke-width="20"  r="40" stroke="#ffbf00" id="connector28pin" fill="none"/>
                            </g>
                        </g>
                    </g>
                    <g transform="rotate(90,294.99995,335.00005)" >
                        <g >
                            <g gorn="0.3.0.0.0.29.0.0"  id="g92">
                                <circle gorn="0.3.0.0.0.29.0.0.0" stroke-miterlimit="2.61313" cy="0" cx="0" stroke-width="20"  r="40" stroke="#ffbf00" id="connector29pin" fill="none"/>
                            </g>
                        </g>
                    </g>
                    <g transform="rotate(90,2073,2240)" >
                        <g >
                            <g gorn="0.3.0.0.0.30.0.0"  id="g95">
                                <circle gorn="0.3.0.0.0.30.0.0.0" stroke-miterlimit="2.61313" cy="0" cx="0" stroke-width="50.8"  r="73.660004" stroke="#ffbf00" id="connector30pin" fill="none"/>
                            </g>
                        </g>
                    </g>
                    <g transform="rotate(90,1946,2113)" >
                        <g >
                            <g gorn="0.3.0.0.0.31.0.0"  id="g98">
                                <circle gorn="0.3.0.0.0.31.0.0.0" stroke-miterlimit="2.61313" cy="0" cx="0" stroke-width="50.8"  r="73.660004" stroke="#ffbf00" id="connector31pin" fill="none"/>
                            </g>
                        </g>
                    </g>
                    <g transform="rotate(90,1819,1986)" >
                        <g >
                            <g gorn="0.3.0.0.0.32.0.0"  id="g101">
                                <circle gorn="0.3.0.0.0.32.0.0.0" stroke-miterlimit="2.61313" cy="0" cx="0" stroke-width="50.8"  r="73.660004" stroke="#ffbf00" id="connector32pin" fill="none"/>
                            </g>
                        </g>
                    </g>
                    <g transform="rotate(90,1692,1859)" >
                        <g >
                            <g gorn="0.3.0.0.0.33.0.0"  id="g104">
                                <circle gorn="0.3.0.0.0.33.0.0.0" stroke-miterlimit="2.61313" cy="0" cx="0" stroke-width="50.8"  r="73.660004" stroke="#ffbf00" id="connector33pin" fill="none"/>
                            </g>
                        </g>
                    </g>
                    <g transform="rotate(90,1565,1732)" >
                        <g >
                            <g gorn="0.3.0.0.0.34.0.0"  id="g107">
                                <circle gorn="0.3.0.0.0.34.0.0.0" stroke-miterlimit="2.61313" cy="0" cx="0" stroke-width="50.8"  r="73.660004" stroke="#ffbf00" id="connector34pin" fill="none"/>
                            </g>
                        </g>
                    </g>
                    <g transform="rotate(90,1438,1605)" >
                        <g >
                            <g gorn="0.3.0.0.0.35.0.0"  id="g110">
                                <circle gorn="0.3.0.0.0.35.0.0.0" stroke-miterlimit="2.61313" cy="0" cx="0" stroke-width="50.8"  r="73.660004" stroke="#ffbf00" id="connector35pin" fill="none"/>
                            </g>
                        </g>
                    </g>
                    <g transform="rotate(90,1311,1478)" >
                        <g >
                            <g gorn="0.3.0.0.0.36.0.0"  id="g113">
                                <circle gorn="0.3.0.0.0.36.0.0.0" stroke-miterlimit="2.61313" cy="0" cx="0" stroke-width="50.8"  r="73.660004" stroke="#ffbf00" id="connector36pin" fill="none"/>
                            </g>
                        </g>
                    </g>
                    <g transform="rotate(90,1184,1351)" >
                        <g >
                            <g gorn="0.3.0.0.0.37.0.0"  id="g116">
                                <circle gorn="0.3.0.0.0.37.0.0.0" stroke-miterlimit="2.61313" cy="0" cx="0" stroke-width="50.8"  r="73.660004" stroke="#ffbf00" id="connector37pin" fill="none"/>
                            </g>
                        </g>
                    </g>
                    <g transform="rotate(90,1057,1224)" >
                        <g >
                            <g gorn="0.3.0.0.0.38.0.0"  id="g119">
                                <circle gorn="0.3.0.0.0.38.0.0.0" stroke-miterlimit="2.61313" cy="0" cx="0" stroke-width="50.8"  r="73.660004" stroke="#ffbf00" id="connector38pin" fill="none"/>
                            </g>
                        </g>
                    </g>
                    <g transform="rotate(90,930,1097)" >
                        <g >
                            <g gorn="0.3.0.0.0.39.0.0"  id="g122">
                                <circle gorn="0.3.0.0.0.39.0.0.0" stroke-miterlimit="2.61313" cy="0" cx="0" stroke-width="50.8"  r="73.660004" stroke="#ffbf00" id="connector39pin" fill="none"/>
                            </g>
                        </g>
                    </g>
                    <g transform="rotate(90,803,970)" >
                        <g >
                            <g gorn="0.3.0.0.0.40.0.0"  id="g125">
                                <circle gorn="0.3.0.0.0.40.0.0.0" stroke-miterlimit="2.61313" cy="0" cx="0" stroke-width="50.8"  r="73.660004" stroke="#ffbf00" id="connector40pin" fill="none"/>
                            </g>
                        </g>
                    </g>
                    <g transform="rotate(90,676,843)" >
                        <g >
                            <g gorn="0.3.0.0.0.41.0.0"  id="g128">
                                <circle gorn="0.3.0.0.0.41.0.0.0" stroke-miterlimit="2.61313" cy="0" cx="0" stroke-width="50.8"  r="73.660004" stroke="#ffbf00" id="connector41pin" fill="none"/>
                            </g>
                        </g>
                    </g>
                    <g transform="rotate(90,549,716)" >
                        <g >
                            <g gorn="0.3.0.0.0.42.0.0"  id="g131">
                                <circle gorn="0.3.0.0.0.42.0.0.0" stroke-miterlimit="2.61313" cy="0" cx="0" stroke-width="50.8"  r="73.660004" stroke="#ffbf00" id="connector42pin" fill="none"/>
                            </g>
                        </g>
                    </g>
                    <g transform="rotate(90,422,589)" >
                        <g >
                            <g gorn="0.3.0.0.0.43.0.0"  id="g134">
                                <circle gorn="0.3.0.0.0.43.0.0.0" stroke-miterlimit="2.61313" cy="0" cx="0" stroke-width="50.8"  r="73.660004" stroke="#ffbf00" id="connector43pin" fill="none"/>
                            </g>
                        </g>
                    </g>
                    <g transform="rotate(90,295,462)" >
                        <g >
                            <g gorn="0.3.0.0.0.44.0.0"  id="g137">
                                <circle gorn="0.3.0.0.0.44.0.0.0" stroke-miterlimit="2.61313" cy="0" cx="0" stroke-width="50.8"  r="73.660004" stroke="#ffbf00" id="connector44pin" fill="none"/>
                            </g>
                        </g>
                    </g>
                    <g transform="rotate(90,866.5,3446.5)" >
                        <g >
                            <g gorn="0.3.0.0.0.45.0.0"  id="g140">
                                <circle gorn="0.3.0.0.0.45.0.0.0" stroke-miterlimit="2.61313" cy="0" cx="0" stroke-width="20"  r="40" stroke="#ffbf00" id="connector45pin" fill="none"/>
                            </g>
                        </g>
                    </g>
                    <g transform="rotate(90,803,3383)" >
                        <g >
                            <g gorn="0.3.0.0.0.46.0.0"  id="g143">
                                <circle gorn="0.3.0.0.0.46.0.0.0" stroke-miterlimit="2.61313" cy="0" cx="0" stroke-width="20"  r="40" stroke="#ffbf00" id="connector46pin" fill="none"/>
                            </g>
                        </g>
                    </g>
                    <g transform="rotate(90,739.5,3319.5)" >
                        <g >
                            <g gorn="0.3.0.0.0.47.0.0"  id="g146">
                                <circle gorn="0.3.0.0.0.47.0.0.0" stroke-miterlimit="2.61313" cy="0" cx="0" stroke-width="20"  r="40" stroke="#ffbf00" id="connector47pin" fill="none"/>
                            </g>
                        </g>
                    </g>
                    <g transform="rotate(90,676,3256)" >
                        <g >
                            <g gorn="0.3.0.0.0.48.0.0"  id="g149">
                                <circle gorn="0.3.0.0.0.48.0.0.0" stroke-miterlimit="2.61313" cy="0" cx="0" stroke-width="20"  r="40" stroke="#ffbf00" id="connector48pin" fill="none"/>
                            </g>
                        </g>
                    </g>
                    <g transform="rotate(90,612.5,3192.5)" >
                        <g >
                            <g gorn="0.3.0.0.0.49.0.0"  id="g152">
                                <circle gorn="0.3.0.0.0.49.0.0.0" stroke-miterlimit="2.61313" cy="0" cx="0" stroke-width="20"  r="40" stroke="#ffbf00" id="connector49pin" fill="none"/>
                            </g>
                        </g>
                    </g>
                    <g transform="rotate(90,549,3129)" >
                        <g >
                            <g gorn="0.3.0.0.0.50.0.0"  id="g155">
                                <circle gorn="0.3.0.0.0.50.0.0.0" stroke-miterlimit="2.61313" cy="0" cx="0" stroke-width="20"  r="40" stroke="#ffbf00" id="connector50pin" fill="none"/>
                            </g>
                        </g>
                    </g>
                    <g transform="rotate(90,485.5,3065.5)" >
                        <g >
                            <g gorn="0.3.0.0.0.51.0.0"  id="g158">
                                <circle gorn="0.3.0.0.0.51.0.0.0" stroke-miterlimit="2.61313" cy="0" cx="0" stroke-width="20"  r="40" stroke="#ffbf00" id="connector51pin" fill="none"/>
                            </g>
                        </g>
                    </g>
                    <g transform="rotate(90,422,3002)" >
                        <g >
                            <g gorn="0.3.0.0.0.52.0.0"  id="g161">
                                <circle gorn="0.3.0.0.0.52.0.0.0" stroke-miterlimit="2.61313" cy="0" cx="0" stroke-width="20"  r="40" stroke="#ffbf00" id="connector52pin" fill="none"/>
                            </g>
                        </g>
                    </g>
                    <g transform="rotate(90,358.5,2938.5)" >
                        <g >
                            <g gorn="0.3.0.0.0.53.0.0"  id="g164">
                                <circle gorn="0.3.0.0.0.53.0.0.0" stroke-miterlimit="2.61313" cy="0" cx="0" stroke-width="20"  r="40" stroke="#ffbf00" id="connector53pin" fill="none"/>
                            </g>
                        </g>
                    </g>
                    <g transform="rotate(90,295,2875)" >
                        <g >
                            <g gorn="0.3.0.0.0.54.0.0"  id="g167">
                                <circle gorn="0.3.0.0.0.54.0.0.0" stroke-miterlimit="2.61313" cy="0" cx="0" stroke-width="20"  r="40" stroke="#ffbf00" id="connector54pin" fill="none"/>
                            </g>
                        </g>
                    </g>
                    <g transform="rotate(90,231.5,2811.5)" >
                        <g >
                            <g gorn="0.3.0.0.0.55.0.0"  id="g170">
                                <circle gorn="0.3.0.0.0.55.0.0.0" stroke-miterlimit="2.61313" cy="0" cx="0" stroke-width="20"  r="40" stroke="#ffbf00" id="connector55pin" fill="none"/>
                            </g>
                        </g>
                    </g>
                    <g transform="rotate(90,168,2748)" >
                        <g >
                            <g gorn="0.3.0.0.0.56.0.0"  id="g173">
                                <circle gorn="0.3.0.0.0.56.0.0.0" stroke-miterlimit="2.61313" cy="0" cx="0" stroke-width="20"  r="40" stroke="#ffbf00" id="connector56pin" fill="none"/>
                            </g>
                        </g>
                    </g>
                    <g transform="rotate(90,104.5,2684.5)" >
                        <g >
                            <g gorn="0.3.0.0.0.57.0.0"  id="g176">
                                <circle gorn="0.3.0.0.0.57.0.0.0" stroke-miterlimit="2.61313" cy="0" cx="0" stroke-width="20"  r="40" stroke="#ffbf00" id="connector57pin" fill="none"/>
                            </g>
                        </g>
                    </g>
                    <g transform="rotate(90,41,2621)" >
                        <g >
                            <g gorn="0.3.0.0.0.58.0.0"  id="g179">
                                <circle gorn="0.3.0.0.0.58.0.0.0" stroke-miterlimit="2.61313" cy="0" cx="0" stroke-width="20"  r="40" stroke="#ffbf00" id="connector58pin" fill="none"/>
                            </g>
                        </g>
                    </g>
                    <g transform="rotate(90,-22.5,2557.5)" >
                        <g >
                            <g gorn="0.3.0.0.0.59.0.0"  id="g182">
                                <circle gorn="0.3.0.0.0.59.0.0.0" stroke-miterlimit="2.61313" cy="0" cx="0" stroke-width="20"  r="40" stroke="#ffbf00" id="connector59pin" fill="none"/>
                            </g>
                        </g>
                    </g>
                    <g transform="rotate(90,-86,2494)" >
                        <g >
                            <g gorn="0.3.0.0.0.60.0.0"  id="g185">
                                <circle gorn="0.3.0.0.0.60.0.0.0" stroke-miterlimit="2.61313" cy="0" cx="0" stroke-width="20"  r="40" stroke="#ffbf00" id="connector60pin" fill="none"/>
                            </g>
                        </g>
                    </g>
                    <g transform="rotate(90,-149.5,2430.5)" >
                        <g >
                            <g gorn="0.3.0.0.0.61.0.0"  id="g188">
                                <circle gorn="0.3.0.0.0.61.0.0.0" stroke-miterlimit="2.61313" cy="0" cx="0" stroke-width="20"  r="40" stroke="#ffbf00" id="connector61pin" fill="none"/>
                            </g>
                        </g>
                    </g>
                    <g transform="rotate(90,-213,2367)" >
                        <g >
                            <g gorn="0.3.0.0.0.62.0.0"  id="g191">
                                <circle gorn="0.3.0.0.0.62.0.0.0" stroke-miterlimit="2.61313" cy="0" cx="0" stroke-width="20"  r="40" stroke="#ffbf00" id="connector62pin" fill="none"/>
                            </g>
                        </g>
                    </g>
                    <g transform="rotate(90,-276.5,2303.5)" >
                        <g >
                            <g gorn="0.3.0.0.0.63.0.0"  id="g194">
                                <circle gorn="0.3.0.0.0.63.0.0.0" stroke-miterlimit="2.61313" cy="0" cx="0" stroke-width="20"  r="40" stroke="#ffbf00" id="connector63pin" fill="none"/>
                            </g>
                        </g>
                    </g>
                    <g transform="rotate(90,-340,2240)" >
                        <g >
                            <g gorn="0.3.0.0.0.64.0.0"  id="g197">
                                <circle gorn="0.3.0.0.0.64.0.0.0" stroke-miterlimit="2.61313" cy="0" cx="0" stroke-width="20"  r="40" stroke="#ffbf00" id="connector64pin" fill="none"/>
                            </g>
                        </g>
                    </g>
                    <g transform="rotate(90,-403.5,2176.5)" >
                        <g >
                            <g gorn="0.3.0.0.0.65.0.0"  id="g200">
                                <circle gorn="0.3.0.0.0.65.0.0.0" stroke-miterlimit="2.61313" cy="0" cx="0" stroke-width="20"  r="40" stroke="#ffbf00" id="connector65pin" fill="none"/>
                            </g>
                        </g>
                    </g>
                    <g transform="rotate(90,-467,2113)" >
                        <g >
                            <g gorn="0.3.0.0.0.66.0.0"  id="g203">
                                <circle gorn="0.3.0.0.0.66.0.0.0" stroke-miterlimit="2.61313" cy="0" cx="0" stroke-width="20"  r="40" stroke="#ffbf00" id="connector66pin" fill="none"/>
                            </g>
                        </g>
                    </g>
                    <g transform="rotate(90,-530.5,2049.5)" >
                        <g >
                            <g gorn="0.3.0.0.0.67.0.0"  id="g206">
                                <circle gorn="0.3.0.0.0.67.0.0.0" stroke-miterlimit="2.61313" cy="0" cx="0" stroke-width="20"  r="40" stroke="#ffbf00" id="connector67pin" fill="none"/>
                            </g>
                        </g>
                    </g>
                    <g transform="rotate(90,-594,1986)" >
                        <g >
                            <g gorn="0.3.0.0.0.68.0.0"  id="g209">
                                <circle gorn="0.3.0.0.0.68.0.0.0" stroke-miterlimit="2.61313" cy="0" cx="0" stroke-width="20"  r="40" stroke="#ffbf00" id="connector68pin" fill="none"/>
                            </g>
                        </g>
                    </g>
                    <g transform="rotate(90,-657.5,1922.5)" >
                        <g >
                            <g gorn="0.3.0.0.0.69.0.0"  id="g212">
                                <circle gorn="0.3.0.0.0.69.0.0.0" stroke-miterlimit="2.61313" cy="0" cx="0" stroke-width="20"  r="40" stroke="#ffbf00" id="connector69pin" fill="none"/>
                            </g>
                        </g>
                    </g>
                    <g transform="rotate(90,-721,1859)" >
                        <g >
                            <g gorn="0.3.0.0.0.70.0.0"  id="g215">
                                <circle gorn="0.3.0.0.0.70.0.0.0" stroke-miterlimit="2.61313" cy="0" cx="0" stroke-width="20"  r="40" stroke="#ffbf00" id="connector70pin" fill="none"/>
                            </g>
                        </g>
                    </g>
                    <g transform="rotate(90,-784.5,1795.5)" >
                        <g >
                            <g gorn="0.3.0.0.0.71.0.0"  id="g218">
                                <circle gorn="0.3.0.0.0.71.0.0.0" stroke-miterlimit="2.61313" cy="0" cx="0" stroke-width="20"  r="40" stroke="#ffbf00" id="connector71pin" fill="none"/>
                            </g>
                        </g>
                    </g>
                    <g transform="rotate(90,-848,1732)" >
                        <g >
                            <g gorn="0.3.0.0.0.72.0.0"  id="g221">
                                <circle gorn="0.3.0.0.0.72.0.0.0" stroke-miterlimit="2.61313" cy="0" cx="0" stroke-width="20"  r="40" stroke="#ffbf00" id="connector72pin" fill="none"/>
                            </g>
                        </g>
                    </g>
                    <g transform="rotate(90,-911.5,1668.5)" >
                        <g >
                            <g gorn="0.3.0.0.0.73.0.0"  id="g224">
                                <circle gorn="0.3.0.0.0.73.0.0.0" stroke-miterlimit="2.61313" cy="0" cx="0" stroke-width="20"  r="40" stroke="#ffbf00" id="connector73pin" fill="none"/>
                            </g>
                        </g>
                    </g>
                    <g transform="rotate(90,-975,1605)" >
                        <g >
                            <g gorn="0.3.0.0.0.74.0.0"  id="g227">
                                <circle gorn="0.3.0.0.0.74.0.0.0" stroke-miterlimit="2.61313" cy="0" cx="0" stroke-width="20"  r="40" stroke="#ffbf00" id="connector74pin" fill="none"/>
                            </g>
                        </g>
                    </g>
                    <g transform="rotate(90,930,3383)" >
                        <g >
                            <g gorn="0.3.0.0.0.75.0.0"  id="g230">
                                <circle gorn="0.3.0.0.0.75.0.0.0" stroke-miterlimit="2.61313" cy="0" cx="0" stroke-width="50.8"  r="73.660004" stroke="#ffbf00" id="connector75pin" fill="none"/>
                            </g>
                        </g>
                    </g>
                    <g transform="rotate(90,803,3256)" >
                        <g >
                            <g gorn="0.3.0.0.0.76.0.0"  id="g233">
                                <circle gorn="0.3.0.0.0.76.0.0.0" stroke-miterlimit="2.61313" cy="0" cx="0" stroke-width="50.8"  r="73.660004" stroke="#ffbf00" id="connector76pin" fill="none"/>
                            </g>
                        </g>
                    </g>
                    <g transform="rotate(90,676,3129)" >
                        <g >
                            <g gorn="0.3.0.0.0.77.0.0"  id="g236">
                                <circle gorn="0.3.0.0.0.77.0.0.0" stroke-miterlimit="2.61313" cy="0" cx="0" stroke-width="50.8"  r="73.660004" stroke="#ffbf00" id="connector77pin" fill="none"/>
                            </g>
                        </g>
                    </g>
                    <g transform="rotate(90,549,3002)" >
                        <g >
                            <g gorn="0.3.0.0.0.78.0.0"  id="g239">
                                <circle gorn="0.3.0.0.0.78.0.0.0" stroke-miterlimit="2.61313" cy="0" cx="0" stroke-width="50.8"  r="73.660004" stroke="#ffbf00" id="connector78pin" fill="none"/>
                            </g>
                        </g>
                    </g>
                    <g transform="rotate(90,422,2875)" >
                        <g >
                            <g gorn="0.3.0.0.0.79.0.0"  id="g242">
                                <circle gorn="0.3.0.0.0.79.0.0.0" stroke-miterlimit="2.61313" cy="0" cx="0" stroke-width="50.8"  r="73.660004" stroke="#ffbf00" id="connector79pin" fill="none"/>
                            </g>
                        </g>
                    </g>
                    <g transform="rotate(90,295,2748)" >
                        <g >
                            <g gorn="0.3.0.0.0.80.0.0"  id="g245">
                                <circle gorn="0.3.0.0.0.80.0.0.0" stroke-miterlimit="2.61313" cy="0" cx="0" stroke-width="50.8"  r="73.660004" stroke="#ffbf00" id="connector80pin" fill="none"/>
                            </g>
                        </g>
                    </g>
                    <g transform="rotate(90,168,2621)" >
                        <g >
                            <g gorn="0.3.0.0.0.81.0.0"  id="g248">
                                <circle gorn="0.3.0.0.0.81.0.0.0" stroke-miterlimit="2.61313" cy="0" cx="0" stroke-width="50.8"  r="73.660004" stroke="#ffbf00" id="connector81pin" fill="none"/>
                            </g>
                        </g>
                    </g>
                    <g transform="rotate(90,41,2494)" >
                        <g >
                            <g gorn="0.3.0.0.0.82.0.0"  id="g251">
                                <circle gorn="0.3.0.0.0.82.0.0.0" stroke-miterlimit="2.61313" cy="0" cx="0" stroke-width="50.8"  r="73.660004" stroke="#ffbf00" id="connector82pin" fill="none"/>
                            </g>
                        </g>
                    </g>
                    <g transform="rotate(90,-86,2367)" >
                        <g >
                            <g gorn="0.3.0.0.0.83.0.0"  id="g254">
                                <circle gorn="0.3.0.0.0.83.0.0.0" stroke-miterlimit="2.61313" cy="0" cx="0" stroke-width="50.8"  r="73.660004" stroke="#ffbf00" id="connector83pin" fill="none"/>
                            </g>
                        </g>
                    </g>
                    <g transform="rotate(90,-213,2240)" >
                        <g >
                            <g gorn="0.3.0.0.0.84.0.0"  id="g257">
                                <circle gorn="0.3.0.0.0.84.0.0.0" stroke-miterlimit="2.61313" cy="0" cx="0" stroke-width="50.8"  r="73.660004" stroke="#ffbf00" id="connector84pin" fill="none"/>
                            </g>
                        </g>
                    </g>
                    <g transform="rotate(90,-340,2113)" >
                        <g >
                            <g gorn="0.3.0.0.0.85.0.0"  id="g260">
                                <circle gorn="0.3.0.0.0.85.0.0.0" stroke-miterlimit="2.61313" cy="0" cx="0" stroke-width="50.8"  r="73.660004" stroke="#ffbf00" id="connector85pin" fill="none"/>
                            </g>
                        </g>
                    </g>
                    <g transform="rotate(90,-467,1986)" >
                        <g >
                            <g gorn="0.3.0.0.0.86.0.0"  id="g263">
                                <circle gorn="0.3.0.0.0.86.0.0.0" stroke-miterlimit="2.61313" cy="0" cx="0" stroke-width="50.8"  r="73.660004" stroke="#ffbf00" id="connector86pin" fill="none"/>
                            </g>
                        </g>
                    </g>
                    <g transform="rotate(90,-594,1859)" >
                        <g >
                            <g gorn="0.3.0.0.0.87.0.0"  id="g266">
                                <circle gorn="0.3.0.0.0.87.0.0.0" stroke-miterlimit="2.61313" cy="0" cx="0" stroke-width="50.8"  r="73.660004" stroke="#ffbf00" id="connector87pin" fill="none"/>
                            </g>
                        </g>
                    </g>
                    <g transform="rotate(90,-721,1732)" >
                        <g >
                            <g gorn="0.3.0.0.0.88.0.0"  id="g269">
                                <circle gorn="0.3.0.0.0.88.0.0.0" stroke-miterlimit="2.61313" cy="0" cx="0" stroke-width="50.8"  r="73.660004" stroke="#ffbf00" id="connector88pin" fill="none"/>
                            </g>
                        </g>
                    </g>
                    <g transform="rotate(90,-848,1605)" >
                        <g >
                            <g gorn="0.3.0.0.0.89.0.0"  id="g272">
                                <circle gorn="0.3.0.0.0.89.0.0.0" stroke-miterlimit="2.61313" cy="0" cx="0" stroke-width="50.8"  r="73.660004" stroke="#ffbf00" id="connector89pin" fill="none"/>
                            </g>
                        </g>
                    </g>
                </g>
            </g>
        </g>
    </g>
</svg>
