<?xml version="1.0" encoding="UTF-8" standalone="no"?>
<!-- Creator: CorelDRAW 2018 -->

<svg
   xml:space="preserve"
   width="3.7667mm"
   height="4.0832mm"
   version="1.0"
   shape-rendering="geometricPrecision"
   text-rendering="geometricPrecision"
   image-rendering="optimizeQuality"
   fill-rule="evenodd"
   clip-rule="evenodd"
   viewBox="0 0 13.52 14.66"
   id="svg2"
   xmlns="http://www.w3.org/2000/svg"
   xmlns:svg="http://www.w3.org/2000/svg"><defs
     id="defs2">&#10;   &#10;  &#10;   &#10;  </defs><g
     id="g1"><g
       id="silkscreen"><path
         id="contorno1"
         d="M 13.16,0.36 H 0.36 v 7.26 c 0.23,0.5 0.43,1.07 0.59,1.72 0.14,0.55 0.24,1.17 0.31,1.84 C 1.57,11.11 1.89,11.05 2.22,11 v 0 c 0.46,-0.06 0.94,-0.1 1.41,-0.1 1.51,0 2.94,0.33 4.24,0.92 1.22,0.56 2.31,1.34 3.22,2.31 0.29,-0.29 0.6,-0.56 0.92,-0.82 0.37,-0.29 0.76,-0.56 1.16,-0.8 V 0.36 Z M 13.52,0 H 0 v 7.7 c 0.47,1.01 0.83,2.28 0.93,3.94 0.85,-0.24 1.76,-0.37 2.69,-0.37 2.97,0 5.64,1.31 7.45,3.39 0.71,-0.77 1.53,-1.42 2.45,-1.94 V 0.01 Z"
         fill="black"
         stroke="none" /><path
         d="m 2.74,0 h 7.9 v 4.77 h -7.9 z m 7.54,0.36 H 3.1 v 4.05 h 7.18 z"
         id="contorno2"
         fill="black"
         stroke="none" /></g><g
       id="copper0"><g
         id="copper1"><circle
           fill="none"
           cx="10.86"
           cy="10.42"
           r="1.97"
           id="connector0pin"
           stroke="#ffc000"
           stroke-width="0.3" /></g></g></g></svg>
