<?xml version='1.0' encoding='UTF-8' standalone='no'?>
<svg xmlns="http://www.w3.org/2000/svg"  height="8mm" viewBox="0 0 43.305967 31.49516" version="1.1" gorn="0" width="11mm" id="svg97">
    <desc >
        <referenceFile >SOIC-16-Modelo2.svg</referenceFile>
    </desc>
    <g  transform="translate(-4018.9,-3019.5)">
        <g >
            <g >
                <defs  id="defs101"/>
                <g  gorn="0.1.0.0.1" id="silkscreen">
                    <path  d="m 4062.1666,3035.2476 a 1.2794945,1.2794945 0 0 1 -1.2795,1.2795 1.2794945,1.2794945 0 0 1 -1.2795,-1.2795 1.2794945,1.2794945 0 0 1 1.2795,-1.2795 1.2794945,1.2794945 0 0 1 1.2795,1.2795 z" gorn="0.1.0.0.1.0" fill="#000000" id="path2591-1-6" stroke="none"/>
                    <path  d="m 4021.3768,3030.3264 h 38.3522 c 1.0952,0 1.9769,0.8779 1.9769,1.9685 v 5.9053 c 0,1.0906 -0.8817,1.9685 -1.9769,1.9685 h -38.3522 c -1.0951,0 -1.9768,-0.8779 -1.9768,-1.9685 v -5.9053 c 0,-1.0906 0.8817,-1.9685 1.9768,-1.9685 z" gorn="0.1.0.0.1.1" stroke-width="1" fill="none" id="rect2855" stroke="#000000"/>
                </g>
                <g  transform="translate(-9.4456268,-14.75241)">
                    <g >
                        <g  gorn="0.1.0.0.2.0.0" id="copper1">
                            <rect  height="9.8422651" x="4031.2205" y="3034.3088" gorn="0.1.0.0.2.0.0.0" fill="#ffc000" width="2.558989" id="connector7pad" stroke="none"/>
                            <rect  height="9.8422651" x="4036.2185" y="3034.3088" gorn="0.1.0.0.2.0.0.1" fill="#ffc000" width="2.558989" id="connector6pad" stroke="none"/>
                            <rect  height="9.8422651" x="4041.2183" y="3034.3088" gorn="0.1.0.0.2.0.0.2" fill="#ffc000" width="2.558989" id="connector5pad" stroke="none"/>
                            <rect  height="9.8422651" x="4046.2183" y="3034.3088" gorn="0.1.0.0.2.0.0.3" fill="#ffc000" width="2.558989" id="connector4pad" stroke="none"/>
                            <rect  height="9.8422651" x="4051.218" y="3034.3088" gorn="0.1.0.0.2.0.0.4" fill="#ffc000" width="2.558989" id="connector3pad" stroke="none"/>
                            <rect  height="9.8422651" x="4056.218" y="3034.3088" gorn="0.1.0.0.2.0.0.5" fill="#ffc000" width="2.558989" id="connector2pad" stroke="none"/>
                            <rect  height="9.8422651" x="4061.2178" y="3034.3088" gorn="0.1.0.0.2.0.0.6" fill="#ffc000" width="2.558989" id="connector1pad" stroke="none"/>
                            <rect  height="9.8422651" x="4066.2178" y="3034.3088" gorn="0.1.0.0.2.0.0.7" fill="#ffc000" width="2.558989" id="connector0pad" stroke="none"/>
                            <rect  height="9.8422651" x="4031.2205" y="3055.8489" gorn="0.1.0.0.2.0.0.8" fill="#ffc000" width="2.558989" id="connector8pad" stroke="none"/>
                            <rect  height="9.8422651" x="4036.2185" y="3055.8489" gorn="0.1.0.0.2.0.0.9" fill="#ffc000" width="2.558989" id="connector9pad" stroke="none"/>
                            <rect  height="9.8422651" x="4041.2183" y="3055.8489" gorn="0.1.0.0.2.0.0.10" fill="#ffc000" width="2.558989" id="connector10pad" stroke="none"/>
                            <rect  height="9.8422651" x="4046.2183" y="3055.8489" gorn="0.1.0.0.2.0.0.11" fill="#ffc000" width="2.558989" id="connector11pad" stroke="none"/>
                            <rect  height="9.8422651" x="4051.218" y="3055.8489" gorn="0.1.0.0.2.0.0.12" fill="#ffc000" width="2.558989" id="connector12pad" stroke="none"/>
                            <rect  height="9.8422651" x="4056.218" y="3055.8489" gorn="0.1.0.0.2.0.0.13" fill="#ffc000" width="2.558989" id="connector13pad" stroke="none"/>
                            <rect  height="9.8422651" x="4061.2178" y="3055.8489" gorn="0.1.0.0.2.0.0.14" fill="#ffc000" width="2.558989" id="connector14pad" stroke="none"/>
                            <rect  height="9.8422651" x="4066.2178" y="3055.8489" gorn="0.1.0.0.2.0.0.15" fill="#ffc000" width="2.558989" id="connector15pad" stroke="none"/>
                        </g>
                    </g>
                </g>
            </g>
        </g>
    </g>
</svg>
