<?xml version='1.0' encoding='UTF-8' standalone='no'?>
<svg xmlns="http://www.w3.org/2000/svg" viewBox="0 0 64.568127 43.123142" gorn="0" id="svg6" height="10.953mm"  version="1.1" width="16.4mm">
    <desc >
        <referenceFile >TO-263-5-PCB.svg</referenceFile>
    </desc>
    <g  transform="translate(-332.9,-268.9)">
        <g >
            <g >
                <g >
                    <defs id="defs6" />
                    <g gorn="0.1.0.0.0.1" id="copper1" >
                        <path gorn="0.1.0.0.0.1.0" id="connector5pin" fill="#ffc000" stroke="none" d="m 332.89978,269.49816 v 41.92815 h 33.06969 v -41.92815 z" />
                        <path gorn="0.1.0.0.0.1.1" id="connector4pin" fill="#ffc000" stroke="none" d="m 382.50634,275.00977 v 4.13219 h 14.9601 v -4.13219 z" />
                        <path gorn="0.1.0.0.0.1.2" id="connector3pin" fill="#ffc000" stroke="none" d="m 382.50634,281.70143 v 4.13422 h 14.9601 v -4.13422 z" />
                        <path gorn="0.1.0.0.0.1.3" id="connector2pin" fill="#ffc000" stroke="none" d="m 382.50634,288.39512 v 4.13422 h 14.9601 v -4.13422 z" />
                        <path gorn="0.1.0.0.0.1.4" id="connector1pin" fill="#ffc000" stroke="none" d="m 382.50634,295.08881 v 4.13219 h 14.9601 v -4.13219 z" />
                        <path gorn="0.1.0.0.0.1.5" id="connector0pin" fill="#ffc000" stroke="none" d="m 382.50634,301.78047 v 4.13422 h 14.9601 v -4.13422 z" />
                    </g>
                    <g gorn="0.1.0.0.0.2" id="silkscreen" >
                        <path gorn="0.1.0.0.0.2.0" id="path28" fill="black" stroke="none" d="m 367.74156,268.9 c -0.27653,-2.7e-4 -0.50078,0.22397 -0.5005,0.5005 8.4e-4,0.27574 0.22477,0.49875 0.5005,0.49847 h 9.54004 v 5.60113 c 2.1e-4,-0.0687 0.0134,-0.13373 0.0387,-0.19328 0.0506,-0.11911 0.14742,-0.21595 0.26653,-0.26653 0.0596,-0.0253 0.12454,-0.0384 0.19328,-0.0387 h 0.5005 v -5.60114 c 2.5e-4,-0.27652 -0.22398,-0.50075 -0.5005,-0.5005 z m 9.54004,6.6001 v 6.69369 c 2.1e-4,-0.0687 0.0134,-0.13373 0.0387,-0.19328 0.0506,-0.11911 0.14742,-0.21595 0.26653,-0.26653 0.0596,-0.0253 0.12454,-0.0384 0.19328,-0.0386 h 0.5005 v -2.5432 h -0.1058 c -0.0689,-2.1e-4 -0.1336,-0.0153 -0.19328,-0.0407 -0.11936,-0.0508 -0.21617,-0.14493 -0.26653,-0.26449 -0.0252,-0.0598 -0.0387,-0.12638 -0.0387,-0.19532 -7e-5,-0.0689 0.0135,-0.13554 0.0387,-0.19532 0.0504,-0.11956 0.14717,-0.21365 0.26653,-0.26449 0.0597,-0.0254 0.12435,-0.0405 0.19328,-0.0407 h 0.1058 v -2.15053 h -0.5005 c -0.0689,-2.1e-4 -0.13361,-0.0153 -0.19328,-0.0407 -0.11936,-0.0508 -0.21618,-0.14493 -0.26653,-0.26449 -0.0252,-0.0598 -0.0387,-0.12638 -0.0387,-0.19532 z m 0,6.69369 v 6.6937 c -7e-5,-0.0689 0.0135,-0.13554 0.0387,-0.19532 0.0503,-0.11956 0.14717,-0.21366 0.26653,-0.26449 0.0597,-0.0254 0.12434,-0.0405 0.19328,-0.0407 h 0.5005 v -2.54116 h -0.1058 c -0.0689,-2.1e-4 -0.1336,-0.0153 -0.19328,-0.0407 -0.11936,-0.0508 -0.21617,-0.14493 -0.26653,-0.26449 -0.0252,-0.0598 -0.0387,-0.12638 -0.0387,-0.19532 -7e-5,-0.0689 0.0135,-0.13553 0.0387,-0.19532 0.0504,-0.11956 0.14717,-0.21365 0.26653,-0.26449 0.0597,-0.0254 0.12435,-0.0405 0.19328,-0.0407 h 0.1058 v -2.15053 h -0.5005 c -0.0689,-2.1e-4 -0.13361,-0.0153 -0.19328,-0.0407 -0.11936,-0.0508 -0.21618,-0.14493 -0.26653,-0.26449 -0.0252,-0.0598 -0.0387,-0.12638 -0.0387,-0.19532 z m 0,6.6937 v 6.69165 c -7e-5,-0.0689 0.0135,-0.13553 0.0387,-0.19531 0.0503,-0.11957 0.14717,-0.21366 0.26653,-0.2645 0.0597,-0.0254 0.12434,-0.0405 0.19328,-0.0407 h 0.5005 v -2.54319 h -0.1058 c -0.0687,-2.1e-4 -0.13373,-0.0134 -0.19328,-0.0387 -0.11911,-0.0506 -0.21595,-0.14742 -0.26653,-0.26653 -0.0253,-0.0596 -0.0384,-0.12454 -0.0387,-0.19328 -7e-5,-0.0689 0.0135,-0.13554 0.0387,-0.19532 0.0504,-0.11956 0.14717,-0.21365 0.26653,-0.26449 0.0597,-0.0254 0.12435,-0.0405 0.19328,-0.0407 h 0.1058 v -2.14849 h -0.5005 c -0.0689,-2.2e-4 -0.13361,-0.0153 -0.19328,-0.0407 -0.11936,-0.0508 -0.21618,-0.14494 -0.26653,-0.2645 -0.0252,-0.0598 -0.0387,-0.12638 -0.0387,-0.19531 z m 0,6.69165 v 6.69369 c -7e-5,-0.0689 0.0135,-0.13553 0.0387,-0.19531 0.0503,-0.11957 0.14717,-0.21366 0.26653,-0.2645 0.0597,-0.0254 0.12434,-0.0405 0.19328,-0.0407 h 0.5005 v -2.54319 h -0.1058 c -0.0689,-2.1e-4 -0.1336,-0.0153 -0.19328,-0.0407 -0.11936,-0.0508 -0.21617,-0.14493 -0.26653,-0.2645 -0.0252,-0.0598 -0.0387,-0.12638 -0.0387,-0.19531 2.1e-4,-0.0687 0.0134,-0.13373 0.0387,-0.19329 0.0506,-0.1191 0.14742,-0.21594 0.26653,-0.26652 0.0596,-0.0253 0.12455,-0.0384 0.19328,-0.0387 h 0.1058 v -2.15053 h -0.5005 c -0.0689,-2.1e-4 -0.13361,-0.0153 -0.19328,-0.0407 -0.11936,-0.0508 -0.21618,-0.14493 -0.26653,-0.26449 -0.0252,-0.0598 -0.0387,-0.12638 -0.0387,-0.19532 z m 0,6.69369 v 8.75267 h -9.54004 c -0.27573,-2.8e-4 -0.49966,0.22272 -0.5005,0.49846 -2.8e-4,0.27653 0.22397,0.50079 0.5005,0.50051 h 10.03851 c 0.27652,2.5e-4 0.50075,-0.22399 0.5005,-0.50051 v -5.60113 h -0.1058 c -0.0689,-2.1e-4 -0.1336,-0.0153 -0.19328,-0.0407 -0.11936,-0.0508 -0.21617,-0.14493 -0.26653,-0.26449 -0.0252,-0.0598 -0.0387,-0.12639 -0.0387,-0.19532 2.1e-4,-0.0687 0.0134,-0.13373 0.0387,-0.19328 0.0506,-0.11911 0.14742,-0.21595 0.26653,-0.26653 0.0596,-0.0253 0.12455,-0.0385 0.19328,-0.0387 h 0.1058 v -2.15052 h -0.5005 c -0.0689,-2.2e-4 -0.13361,-0.0153 -0.19328,-0.0407 -0.11936,-0.0508 -0.21618,-0.14493 -0.26653,-0.26449 -0.0252,-0.0598 -0.0387,-0.12638 -0.0387,-0.19532 z" />
                        <path gorn="0.1.0.0.0.2.1" id="path27" fill="black" stroke="none" d="m 377.78007,275.00164 c -0.27495,8.4e-4 -0.49762,0.22352 -0.49847,0.49846 -2.7e-4,0.27574 0.22273,0.49965 0.49847,0.5005 h 2.65103 v 2.15053 h -2.25633 c -0.27573,8.5e-4 -0.49874,0.22476 -0.49846,0.5005 -2.8e-4,0.27574 0.22273,0.49966 0.49846,0.5005 h 2.75683 c 0.27652,2.5e-4 0.50075,-0.22397 0.5005,-0.5005 v -3.15153 c -8.7e-4,-0.27572 -0.22477,-0.49871 -0.5005,-0.49846 z m 0,6.69369 c -0.27495,8.4e-4 -0.49762,0.22351 -0.49847,0.49846 -2.7e-4,0.27574 0.22273,0.49965 0.49847,0.5005 h 2.65103 v 2.15053 h -2.25633 c -0.27573,8.5e-4 -0.49874,0.22476 -0.49846,0.5005 -2.8e-4,0.27574 0.22273,0.49965 0.49846,0.5005 h 2.75683 c 0.27652,2.5e-4 0.50075,-0.22398 0.5005,-0.5005 v -3.15153 c -8.7e-4,-0.27573 -0.22477,-0.49871 -0.5005,-0.49846 z m 0,6.69165 c -0.27574,8.4e-4 -0.49874,0.22477 -0.49847,0.50051 -2.7e-4,0.27574 0.22273,0.49965 0.49847,0.5005 h 2.65103 v 2.14849 h -2.25633 c -0.27573,8.5e-4 -0.49874,0.22476 -0.49846,0.5005 8.4e-4,0.27495 0.22352,0.49763 0.49846,0.49847 h 2.75683 c 0.27573,2.5e-4 0.49963,-0.22274 0.5005,-0.49847 v -3.14949 c 2.5e-4,-0.27652 -0.22398,-0.50076 -0.5005,-0.50051 z m 0,6.69166 c -0.27574,8.4e-4 -0.49874,0.22476 -0.49847,0.5005 -2.7e-4,0.27574 0.22273,0.49965 0.49847,0.5005 h 2.65103 v 2.15053 h -2.25633 c -0.27494,8.5e-4 -0.49762,0.22352 -0.49846,0.49847 -2.8e-4,0.27574 0.22273,0.49966 0.49846,0.5005 h 2.75683 c 0.27652,2.5e-4 0.50075,-0.22398 0.5005,-0.5005 v -3.1495 c 2.5e-4,-0.27653 -0.22398,-0.50075 -0.5005,-0.5005 z m 0,6.69369 c -0.27574,8.4e-4 -0.49874,0.22477 -0.49847,0.5005 -2.7e-4,0.27574 0.22273,0.49966 0.49847,0.50051 h 2.65103 v 2.15052 h -2.25633 c -0.27494,8.4e-4 -0.49762,0.22353 -0.49846,0.49847 -2.8e-4,0.27574 0.22273,0.49966 0.49846,0.5005 h 2.75683 c 0.27652,2.5e-4 0.50075,-0.22398 0.5005,-0.5005 v -3.1495 c 2.5e-4,-0.27651 -0.22398,-0.50075 -0.5005,-0.5005 z" />
                        <path gorn="0.1.0.0.0.2.2" id="path26" fill="black" stroke="none" d="m 380.96822,308.76917 c -0.0234,1.3e-4 -0.046,9.8e-4 -0.0692,0.002 -0.37015,0.0175 -0.73095,0.14805 -1.02745,0.41301 -0.29651,0.26496 -0.50976,0.68998 -0.51474,1.14342 -0.005,0.45345 0.19769,0.88015 0.48829,1.15156 0.29062,0.2714 0.64761,0.41185 1.01728,0.43743 0.36968,0.0256 0.77607,-0.07 1.10477,-0.34587 0.18299,-0.15359 0.20644,-0.42871 0.29908,-0.66327 a 0.78740001,0.78740001 0 0 0 0.22787,-0.50253 c 4.3e-4,-0.0105 0.012,-0.016 0.0122,-0.0265 a 0.78740001,0.78740001 0 0 0 -0.004,-0.0163 0.78740001,0.78740001 0 0 0 0.004,-0.0183 c 0,-0.018 -0.0198,-0.0288 -0.0203,-0.0468 a 0.78740001,0.78740001 0 0 0 -0.17701,-0.41912 c -0.0849,-0.26566 -0.11765,-0.56506 -0.31535,-0.73855 -0.3024,-0.26535 -0.67497,-0.37226 -1.02542,-0.37029 z" />
                    </g>
                </g>
            </g>
        </g>
    </g>
</svg>
