<?xml version='1.0' encoding='UTF-8' standalone='no'?>
<svg xmlns="http://www.w3.org/2000/svg" height="2mm"  id="svg3" version="1.1" viewBox="0 0 12.205012 7.8738169" gorn="0" width="3.0999999mm">
    <desc >
        <referenceFile >LED90G-C264358.svg</referenceFile>
    </desc>
    <g  transform="translate(-4033.4,-3030.5)">
        <g >
            <g >
                <defs  id="defs3"/>
                <g  transform="translate(-10.4975,-15.504088)">
                    <g >
                        <g  id="copper1" gorn="0.1.0.0.1.0.0">
                            <path d="m 4043.8975,3048.1693 h 3.9371 v 3.5434 h -3.9371 z"  id="connector1pad" style="stroke-width:0.999998" fill="#ffc000" gorn="0.1.0.0.1.0.0.0" stroke="none"/>
                            <path d="m 4052.1654,3048.1693 h 3.9371 v 3.5434 h -3.9371 z"  id="connector0pad" style="stroke-width:0.999998" fill="#ffc000" gorn="0.1.0.0.1.0.0.1" stroke="none"/>
                        </g>
                    </g>
                </g>
                <g  transform="translate(-10.4975,-15.631591)">
                    <g >
                        <g  id="silkscreen" gorn="0.1.0.0.2.0.0">
                            <g  transform="translate(0,-0.63159974)">
                                <g >
                                    <g  id="g6" gorn="0.1.0.0.2.0.0.0.0.0">
                                        <path d="m 4046.8065,3053.6125 q 0,0.15 -0.035,0.2076 -0.035,0.058 -0.1,0.058 h -1.6072 q -0.069,0 -0.1038,-0.058 -0.035,-0.062 -0.035,-0.2076 0,-0.1461 0.035,-0.2038 0.035,-0.058 0.1038,-0.058 h 1.6072 q 0.031,0 0.054,0.012 0.027,0.011 0.042,0.046 0.019,0.031 0.027,0.081 0.012,0.05 0.012,0.123 z"  id="path5" fill="#000000" gorn="0.1.0.0.2.0.0.0.0.0.0" stroke="none"/>
                                        <path d="m 4055.0924,3053.6149 q 0,0.041 -0.01,0.072 -0.01,0.028 -0.017,0.048 -0.011,0.02 -0.026,0.028 -0.015,0.01 -0.033,0.01 h -0.7112 v 0.7893 q 0,0.017 -0.01,0.03 -0.01,0.011 -0.028,0.02 -0.017,0.01 -0.048,0.015 -0.03,0.01 -0.076,0.01 -0.043,0 -0.076,-0.01 -0.03,-0.01 -0.05,-0.015 -0.017,-0.01 -0.026,-0.02 -0.01,-0.013 -0.01,-0.03 v -0.7893 h -0.7112 q -0.02,0 -0.034,-0.01 -0.013,-0.01 -0.024,-0.028 -0.011,-0.02 -0.017,-0.048 -0.01,-0.03 -0.01,-0.072 0,-0.039 0.01,-0.067 0.01,-0.031 0.017,-0.05 0.011,-0.02 0.024,-0.028 0.015,-0.01 0.033,-0.01 h 0.7134 v -0.7893 q 0,-0.017 0.01,-0.03 0.01,-0.015 0.026,-0.024 0.02,-0.011 0.05,-0.015 0.033,-0.01 0.076,-0.01 0.046,0 0.076,0.01 0.03,0.01 0.048,0.015 0.02,0.01 0.028,0.024 0.01,0.013 0.01,0.03 v 0.7893 h 0.7134 q 0.017,0 0.03,0.01 0.015,0.01 0.026,0.028 0.013,0.02 0.017,0.05 0.01,0.028 0.01,0.067 z"  id="path4" style="stroke-width:0.999998" fill="#000000" gorn="0.1.0.0.2.0.0.0.0.0.1" stroke="none"/>
                                    </g>
                                </g>
                            </g>
                            <g  transform="translate(0.09495624,0.04799934)">
                                <g >
                                    <g  id="g7" gorn="0.1.0.0.2.0.0.1.0.0">
                                        <path d="m 4048.9414,3048.6426 a 0.3937,0.3937 0 0 0 -0.3926,0.3926 0.3937,0.3937 0 0 0 0.3926,0.3945 h 2.1172 a 0.3937,0.3937 0 0 0 0.3945,-0.3945 0.3937,0.3937 0 0 0 -0.3945,-0.3926 z"  id="gge58" fill="#000000" gorn="0.1.0.0.2.0.0.1.0.0.0" stroke="none"/>
                                        <path d="m 4048.9414,3050.6113 a 0.3937,0.3937 0 0 0 -0.3926,0.3926 0.3937,0.3937 0 0 0 0.3926,0.3945 h 2.043 a 0.3937,0.3937 0 0 0 0.3945,-0.3945 0.3937,0.3937 0 0 0 -0.3945,-0.3926 z"  id="gge61" fill="#000000" gorn="0.1.0.0.2.0.0.1.0.0.1" stroke="none"/>
                                        <path d="m 4048.7515,3048.6426 a 0.3937,0.3937 0 0 0 -0.3945,0.3926 v 1.9687 a 0.3937,0.3937 0 0 0 0.3945,0.3945 0.3937,0.3937 0 0 0 0.3926,-0.3945 v -1.9687 a 0.3937,0.3937 0 0 0 -0.3926,-0.3926 z"  id="gge64" fill="#000000" gorn="0.1.0.0.2.0.0.1.0.0.2" stroke="none"/>
                                    </g>
                                </g>
                            </g>
                            <path d="m 4049.9825,3046.1315 c -0.9727,0.01 -1.9396,0.4938 -2.4844,1.4472 a 0.3937,0.3937 0 0 0 0.1465,0.5371 0.3937,0.3937 0 0 0 0.5371,-0.1464 c 0.8094,-1.4164 2.8013,-1.4379 3.6406,-0.039 a 0.3937,0.3937 0 0 0 0.541,0.1348 0.3937,0.3937 0 0 0 0.1348,-0.5391 c -0.565,-0.9417 -1.543,-1.4049 -2.5156,-1.3945 z"  id="gge67" fill="#000000" gorn="0.1.0.0.2.0.0.2" stroke="none"/>
                        </g>
                    </g>
                </g>
            </g>
        </g>
    </g>
</svg>
