<?xml version='1.0' encoding='UTF-8' standalone='no'?>
<svg xmlns="http://www.w3.org/2000/svg" gorn="0" viewBox="0 0 23.622963 11.810783" height="3mm" version="1.1"  width="6mm" id="svg31">
    <desc >
        <referenceFile >CASE-B-352.svg</referenceFile>
    </desc>
    <g transform="translate(-4029.7,-3027.5)" >
        <g >
            <g >
                <g >
                    <defs  id="defs35"/>
                    <g transform="translate(0.59063117,0.00555075)" >
                        <g >
                            <g >
                                <g gorn="0.1.0.0.0.1.0.0.0"  id="silkscreen">
                                    <path gorn="0.1.0.0.0.1.0.0.0.0" d="m 4038.5052,3027.4941 h 0.7875 v 11.8115 h -0.7875 z" fill="#000000"  stroke="none" id="rect1332-0"/>
                                    <path gorn="0.1.0.0.0.1.0.0.0.1" d="m 4029.1094,3027.4941 h 23.623 v 0.7874 h -23.623 z" fill="#000000"  stroke="none" id="rect1161"/>
                                    <path gorn="0.1.0.0.0.1.0.0.0.2" d="m 4029.1094,3038.5182 h 23.623 v 0.7874 h -23.623 z" fill="#000000"  stroke="none" id="rect1161-4"/>
                                    <g transform="matrix(0.44206387,0,0,0.4145298,2244.7967,1775.8585)" >
                                        <g >
                                            <g >
                                                <g gorn="0.1.0.0.0.1.0.0.0.3.0.0.0"  id="text2578">
                                                    <path gorn="0.1.0.0.0.1.0.0.0.3.0.0.0.0" d="m 4039.7076,3023.5917 q 0,0.073 -0.012,0.1269 -0.012,0.05 -0.031,0.085 -0.019,0.035 -0.046,0.05 -0.027,0.015 -0.058,0.015 h -1.2612 v 1.3995 q 0,0.031 -0.015,0.054 -0.015,0.019 -0.05,0.035 -0.031,0.015 -0.085,0.027 -0.054,0.01 -0.1346,0.01 -0.077,0 -0.1345,-0.01 -0.054,-0.012 -0.088,-0.027 -0.031,-0.015 -0.046,-0.035 -0.015,-0.023 -0.015,-0.054 v -1.3995 h -1.2611 q -0.035,0 -0.062,-0.015 -0.023,-0.015 -0.042,-0.05 -0.019,-0.035 -0.031,-0.085 -0.012,-0.054 -0.012,-0.1269 0,-0.069 0.012,-0.1192 0.012,-0.054 0.031,-0.088 0.019,-0.035 0.042,-0.05 0.027,-0.015 0.058,-0.015 h 1.265 v -1.3996 q 0,-0.031 0.015,-0.054 0.015,-0.027 0.046,-0.042 0.035,-0.019 0.088,-0.027 0.058,-0.012 0.1345,-0.012 0.081,0 0.1346,0.012 0.054,0.01 0.085,0.027 0.035,0.015 0.05,0.042 0.015,0.023 0.015,0.054 v 1.3996 h 1.265 q 0.031,0 0.054,0.015 0.027,0.015 0.046,0.05 0.023,0.035 0.031,0.088 0.012,0.05 0.012,0.1192 z" fill="#000000"  stroke="none" id="path3276"/>
                                                </g>
                                            </g>
                                        </g>
                                    </g>
                                </g>
                            </g>
                        </g>
                    </g>
                    <g transform="translate(-8.4878688,-16.838859)" >
                        <g >
                            <g >
                                <g gorn="0.1.0.0.0.2.0.0.0"  id="copper1">
                                    <path gorn="0.1.0.0.0.2.0.0.0.0" d="m 4039.7096,3055.1657 v -9.8429 h 7.8743 v 9.8429 z" fill="#ffc000"  stroke="none" id="connector1pad"/>
                                    <path gorn="0.1.0.0.0.2.0.0.0.1" d="m 4060.2891,3055.1657 v -9.8429 h -7.8743 v 9.8429 z" fill="#ffc000" style="stroke-width:1"  stroke="none" id="connector0pad"/>
                                </g>
                            </g>
                        </g>
                    </g>
                </g>
            </g>
        </g>
    </g>
</svg>
