<?xml version='1.0' encoding='UTF-8' standalone='no'?>
<!-- Creator: CorelDRAW 2018 -->
<svg xmlns="http://www.w3.org/2000/svg"  viewBox="0 0 343.79 57.75" xml:space="preserve" id="svg844" height="3.8514mm" shape-rendering="geometricPrecision" xmlns:xml="http://www.w3.org/XML/1998/namespace" fill-rule="evenodd" image-rendering="optimizeQuality" width="22.9262mm" version="1.0" text-rendering="geometricPrecision" clip-rule="evenodd" gorn="0">
    <desc >
        <referenceFile >logo-variante3.svg</referenceFile>
    </desc>
    <defs  id="defs848"/>
    <g  id="Layer_x0020_1" gorn="0.2">
        <metadata  id="CorelCorpID_0Corel-Layer"/>
        <g  id="_232478608" gorn="0.2.1">
            <g  id="g840" partID="884981921" gorn="0.2.1.0">
                <g  id="g838" gorn="0.2.1.0.0">
                    <g  id="silkscreen" gorn="0.2.1.0.0.0">
                        <g  id="g835" gorn="0.2.1.0.0.0.0">
                            <g  id="g19430" gorn="0.2.1.0.0.0.0.0">
                                <path  id="path19428" fill="black" d="M315.56 0.03l5.49 0.07c2.16,0.03 4.47,0.26 6.64,0.91 2.29,0.69 4.43,1.83 6.09,3.67l0 0.01c1.36,1.49 2.2,3.22 2.66,5.04 0.44,1.75 0.54,3.6 0.41,5.41 -0.06,0.86 -0.45,1.63 -1.04,2.19l-0 -0c-0.59,0.56 -1.39,0.9 -2.25,0.9l-12.05 0c-0.9,0 -1.72,-0.36 -2.32,-0.96 -0.58,-0.58 -0.95,-1.38 -0.98,-2.27l0 0 0 -0.02 0 -0.07c0,-0.85 -0.09,-1.34 -0.3,-1.53l-0.01 0c-0.26,-0.24 -0.86,-0.34 -1.82,-0.37 -2.16,-0.07 -3.7,0.41 -4.84,1.35 -1.22,1 -2.12,2.58 -2.91,4.64 -0.33,0.86 -0.66,1.98 -0.7,3.01l0 0.01c-0.03,0.61 0.04,1.18 0.28,1.56l0.01 0c0.15,0.24 0.38,0.4 0.64,0.5l-0 -0c0.41,0.16 0.91,0.23 1.39,0.25 1.6,0.06 2.76,-0.12 3.68,-0.62 0.93,-0.5 1.72,-1.39 2.56,-2.73l-0.01 -0c0.29,-0.47 0.71,-0.86 1.2,-1.14l0 -0.01c0.48,-0.27 1.04,-0.43 1.6,-0.43l11.83 0c0.55,0 1.05,0.13 1.5,0.36l0.01 0.01c0.55,0.28 1,0.71 1.31,1.22 0.31,0.52 0.49,1.12 0.49,1.73 0,0.5 -0.12,1.02 -0.37,1.52l-0 0c-0.58,1.12 -1.23,2.18 -1.94,3.18 0.13,-0.14 0.26,-0.28 0.39,-0.41 1.26,-1.2 2.98,-1.95 4.84,-1.95 1.33,0 2.64,0.47 3.72,1.2 1.15,0.77 2.07,1.87 2.51,3.04 0.35,0.93 0.53,1.78 0.52,2.66 -0.01,0.89 -0.21,1.76 -0.61,2.7 -0.24,0.54 -0.54,1.04 -0.89,1.47l0.16 0.32 -0.43 0c-0.06,0.07 -0.12,0.13 -0.19,0.2 -0.97,0.97 -2.22,1.62 -3.55,1.88l0 0.01c-1.32,0.26 -2.75,0.15 -4.05,-0.42 -0.74,-0.32 -1.44,-0.78 -2.04,-1.39 -0.68,-0.67 -1.18,-1.37 -1.53,-2.2l-0 0c-0.34,-0.82 -0.51,-1.72 -0.51,-2.8 0,-1.27 0.37,-2.45 1,-3.46 -1.74,2.21 -3.82,4.08 -6.15,5.53 -3.62,2.26 -7.85,3.54 -12.38,3.6l-0.02 0.01 -7.26 0 -0.11 -0.01 -0.01 0 0 0c-3.53,-0.11 -7.14,-0.74 -9.99,-2.41 -3.07,-1.8 -5.23,-4.72 -5.49,-9.29 -0.15,-2.56 0.12,-5 0.74,-7.34 0.62,-2.33 1.57,-4.56 2.81,-6.73 2.42,-4.23 5.75,-7.06 9.62,-8.87 3.79,-1.77 8.07,-2.55 12.53,-2.74l0.01 0 0.02 0 0.08 0 0 0.01zm-0.02 1.88l5.49 0.07c3.99,0.05 8.55,0.86 11.36,3.96 2.26,2.49 2.81,5.8 2.58,9.06 -0.05,0.76 -0.66,1.34 -1.42,1.34l-12.05 0c-0.78,0 -1.4,-0.63 -1.42,-1.41l0 -0.02c0,-2.82 -1.12,-3.69 -3.95,-3.78 -5.3,-0.16 -7.74,2.49 -9.56,7.18 -0.68,1.76 -1.34,4.51 -0.27,6.25 0.76,1.24 2.22,1.59 3.57,1.64 3.88,0.15 5.86,-0.99 7.89,-4.24 0.25,-0.41 0.73,-0.68 1.21,-0.68l11.83 0c1.06,0 1.75,1.14 1.26,2.1 -3.82,7.43 -11.12,12.06 -19.48,12.17l-7.26 0 -0.01 0c-6.55,-0.19 -13.27,-2.25 -13.71,-9.93 -0.27,-4.71 0.99,-8.97 3.31,-13.04 4.43,-7.74 12.13,-10.32 20.59,-10.67l0.02 0 0.01 0zm-125.31 21.77c-1.87,1.73 -4.25,3.05 -6.64,3.54l3.47 5.48c0.61,0.97 -0.08,2.24 -1.22,2.24l-10.82 0c-0.48,0 -0.94,-0.23 -1.21,-0.64l-6.95 -10.33 -3.21 9.97c-0.18,0.58 -0.76,1 -1.36,1l-10.79 0c-0.98,0 -1.68,-0.96 -1.38,-1.9l6.83 -21.17 -7.85 0 -7.52 22.06c-0.2,0.59 -0.75,0.99 -1.37,0.99l-10.1 0c-0.97,0 -1.67,-0.99 -1.36,-1.92l7.19 -21.13 -5.51 0 -21.68 22.59c-0.27,0.28 -0.66,0.45 -1.05,0.45l-22.27 0c-0.73,0 -1.34,-0.54 -1.44,-1.26l-2.43 -17.98 -12.56 18.59c-0.27,0.4 -0.71,0.64 -1.2,0.64l-28.87 0c-0.98,0 -1.68,-0.97 -1.38,-1.91l2.33 -7.23c-3.13,2.33 -7.01,3.7 -10.89,3.87l-0.02 0 -12.09 -0.08 -1.4 4.34c-0.18,0.6 -0.76,1 -1.37,1 -3.59,0 -7.19,0 -10.78,0l-0.03 0 -0.03 0c-0.98,-0.06 -1.66,-1.03 -1.31,-1.93l9.4 -29.14c0.19,-0.6 0.75,-1.01 1.38,-1.01 7,0 14,0.01 21,0 3.13,-0.01 6.22,0.78 8.62,2.88 1.22,1.06 2.14,2.38 2.77,3.83l1.84 -5.7c0.19,-0.6 0.75,-1.01 1.38,-1.01l10.09 0c0.99,0 1.68,0.97 1.38,1.91l-6.52 20.2 8.71 0 14.5 -21.46c0.27,-0.4 0.75,-0.66 1.2,-0.64l14.2 0c0.74,0 1.34,0.53 1.44,1.27l3.7 27.35 7.51 -7.83 -2.54 -19.14c-0.12,-0.87 0.55,-1.65 1.43,-1.65l11.2 0c0.79,0 1.42,0.63 1.44,1.42l0.2 7.13 7.77 -8.11c0.27,-0.28 0.66,-0.45 1.05,-0.45l55.75 0.02c4.58,0 9.49,1.27 11.96,5.5 0.73,1.24 1.15,2.6 1.33,4 4.46,-7.57 12.09,-10.09 20.46,-10.44l0.02 0 5.49 0.07c6.3,0.08 12.95,2.32 14.11,9.26l2.38 -7.37c0.2,-0.61 0.74,-1.02 1.38,-1.02 4.01,0 8.02,0 12.04,0 0.62,0 1.16,0.38 1.39,0.96l5.52 13.61 4.37 -13.55c0.2,-0.61 0.75,-1.02 1.38,-1.02l10.09 0c0.99,0 1.68,0.97 1.38,1.91l-9.41 29.16c-0.2,0.61 -0.74,1.02 -1.38,1.02 -3.84,0 -7.67,0 -11.51,0 -0.62,0 -1.16,-0.38 -1.39,-0.96l-5.81 -14.34 -4.61 14.27c-0.2,0.61 -0.74,1.02 -1.38,1.02l-10.09 0c-0.99,0 -1.68,-0.97 -1.38,-1.91l1.76 -5.45c-4.21,4.81 -11.22,7.89 -17.26,7.97l-7.26 0 -0.01 0c-6.49,-0.19 -13.78,-2.2 -14.22,-9.94 -0.04,-0.65 -0.03,-1.3 0,-1.93l-0.01 -0.01zm81.05 11.26c-0.79,0 -1.25,-0.81 -1.02,-1.54l9.05 -29.52c0.19,-0.61 0.75,-1.03 1.39,-1.03l10.09 0c0.99,0 1.68,0.97 1.38,1.91l-9.41 29.16c-0.2,0.61 -0.74,1.02 -1.38,1.02l-10.09 -0 0 -0zm-103.44 -14.04l8.46 -0c0.96,-0.08 1.91,-0.32 2.61,-1.01 0.62,-0.62 0.98,-1.51 1.23,-2.33 0.39,-1.27 0.64,-2.64 0.91,-3.94 0.1,-0.52 0.15,-1.15 -0.24,-1.57 -0.57,-0.61 -1.89,-0.69 -2.67,-0.69l-7.23 0 -3.08 9.55 -0 0zm41.17 5.3c4.76,0.18 8.12,-1.69 9.85,-6.17 0.74,-1.92 1.74,-5.19 0.58,-7.12 -0.85,-1.4 -2.68,-1.73 -4.18,-1.78 -5.3,-0.16 -7.74,2.49 -9.56,7.18 -0.68,1.76 -1.33,4.51 -0.27,6.25 0.76,1.24 2.22,1.59 3.57,1.64zm-186.23 -14.87l-2.91 9.04 6.8 -0c2.37,0 4.1,-1.45 4.91,-3.64 0.32,-0.86 0.7,-2.15 0.82,-3.06 0.25,-2.03 -0.54,-2.33 -2.39,-2.33l-7.23 0 0 -0zm312.19 23.24l1.3 0 0 -2.23 0.69 0c0.05,0.57 0.8,1.58 0.95,2.23l1.56 0 -1.21 -2.49c0.85,-0.07 1.49,-1.05 1.03,-2.13 -0.49,-1.15 -3.03,-0.87 -4.31,-0.87l0 5.49zm3.02 -3.69c0,0.36 -0.54,0.6 -0.95,0.6l-0.78 0 -0 -1.54c0.91,0 1.73,-0.04 1.73,0.94l0 0zm-5.96 0.86c0,1.64 0.48,2.66 1.49,3.67 2.46,2.45 6.66,1.48 7.96,-1.5 0.61,-1.41 0.6,-2.51 0.05,-3.96 -0.6,-1.57 -2.55,-3.01 -4.49,-3.01 -2.71,0 -5.01,2.14 -5.01,4.8l0 0zm5.01 4.03c-2.24,0 -3.97,-1.68 -3.97,-3.69 0,-1.35 0.24,-2.08 1.19,-3.02 2.55,-2.53 6.67,-0.33 6.67,2.77 0,2.09 -1.76,3.95 -3.89,3.95l-0 -0zm-159.13 19.49c0,0.07 -0.02,0.14 -0.07,0.2 -0.05,0.06 -0.13,0.1 -0.24,0.14 -0.11,0.03 -0.26,0.06 -0.44,0.09 -0.18,0.02 -0.42,0.03 -0.7,0.03 -0.28,0 -0.51,-0.01 -0.69,-0.03 -0.19,-0.02 -0.34,-0.05 -0.44,-0.09 -0.11,-0.04 -0.19,-0.08 -0.24,-0.14 -0.05,-0.06 -0.07,-0.13 -0.07,-0.2l0 -13.37c0,-0.07 0.02,-0.14 0.07,-0.2 0.05,-0.05 0.13,-0.1 0.24,-0.14 0.11,-0.04 0.26,-0.07 0.44,-0.09 0.18,-0.02 0.41,-0.03 0.69,-0.03 0.28,0 0.52,0.01 0.7,0.03 0.18,0.02 0.33,0.05 0.43,0.09 0.11,0.03 0.19,0.08 0.24,0.14 0.05,0.06 0.07,0.13 0.07,0.2l0 13.37 -0 0zm14.75 -0.62c0,0.17 -0.03,0.32 -0.08,0.45 -0.06,0.13 -0.14,0.24 -0.24,0.33 -0.1,0.09 -0.21,0.15 -0.35,0.19 -0.14,0.04 -0.27,0.06 -0.41,0.06l-1.23 0c-0.26,0 -0.48,-0.03 -0.67,-0.07 -0.18,-0.05 -0.35,-0.15 -0.51,-0.28 -0.16,-0.13 -0.31,-0.32 -0.45,-0.55 -0.15,-0.23 -0.31,-0.52 -0.49,-0.89l-3.51 -6.62c-0.21,-0.4 -0.41,-0.82 -0.62,-1.28 -0.21,-0.45 -0.4,-0.9 -0.57,-1.33l-0.02 0c0.03,0.52 0.05,1.05 0.07,1.57 0.02,0.52 0.02,1.06 0.02,1.61l0 7.41c0,0.07 -0.02,0.14 -0.06,0.2 -0.04,0.05 -0.11,0.1 -0.21,0.15 -0.1,0.04 -0.23,0.07 -0.4,0.09 -0.17,0.02 -0.38,0.03 -0.65,0.03 -0.26,0 -0.47,-0.01 -0.64,-0.03 -0.17,-0.02 -0.3,-0.05 -0.39,-0.09 -0.1,-0.04 -0.16,-0.09 -0.2,-0.15 -0.04,-0.06 -0.05,-0.13 -0.05,-0.2l0 -12.72c0,-0.34 0.1,-0.6 0.3,-0.77 0.2,-0.17 0.45,-0.26 0.74,-0.26l1.54 0c0.28,0 0.51,0.02 0.7,0.07 0.19,0.05 0.36,0.13 0.51,0.24 0.15,0.11 0.29,0.26 0.42,0.45 0.13,0.19 0.26,0.43 0.4,0.72l2.75 5.18c0.16,0.31 0.32,0.62 0.47,0.93 0.16,0.3 0.31,0.6 0.45,0.91 0.15,0.3 0.29,0.6 0.43,0.89 0.14,0.29 0.28,0.58 0.41,0.88l0.01 0c-0.02,-0.51 -0.04,-1.05 -0.05,-1.6 -0.01,-0.55 -0.02,-1.08 -0.02,-1.59l0 -6.64c0,-0.07 0.02,-0.14 0.07,-0.2 0.04,-0.06 0.12,-0.11 0.22,-0.16 0.1,-0.04 0.24,-0.07 0.41,-0.09 0.17,-0.02 0.38,-0.03 0.65,-0.03 0.25,0 0.46,0.01 0.63,0.03 0.17,0.02 0.29,0.05 0.39,0.09 0.09,0.04 0.16,0.1 0.19,0.16 0.04,0.06 0.06,0.12 0.06,0.2l0 12.72 -0.01 0zm14.84 -6.28c0,1.3 -0.17,2.41 -0.51,3.33 -0.34,0.92 -0.83,1.67 -1.46,2.26 -0.64,0.58 -1.41,1.01 -2.31,1.29 -0.91,0.27 -1.99,0.41 -3.25,0.41l-3.38 0c-0.24,0 -0.44,-0.07 -0.61,-0.21 -0.16,-0.14 -0.24,-0.37 -0.24,-0.7l0 -12.34c0,-0.32 0.08,-0.55 0.24,-0.69 0.16,-0.14 0.36,-0.21 0.61,-0.21l3.63 0c1.26,0 2.33,0.15 3.21,0.45 0.88,0.29 1.62,0.73 2.22,1.31 0.6,0.58 1.06,1.3 1.38,2.15 0.31,0.86 0.47,1.84 0.47,2.96l-0 0zm-2.98 0.1c0,-0.67 -0.08,-1.29 -0.24,-1.87 -0.16,-0.57 -0.41,-1.07 -0.75,-1.49 -0.34,-0.42 -0.79,-0.76 -1.33,-0.99 -0.55,-0.24 -1.25,-0.35 -2.14,-0.35l-1.45 0 0 9.61 1.5 0c0.79,0 1.45,-0.1 1.99,-0.31 0.54,-0.2 0.99,-0.51 1.35,-0.92 0.36,-0.41 0.63,-0.92 0.81,-1.53 0.18,-0.61 0.27,-1.32 0.27,-2.14l-0 -0.01zm16.87 1.91c0,0.86 -0.13,1.64 -0.38,2.32 -0.25,0.69 -0.63,1.27 -1.12,1.74 -0.5,0.48 -1.11,0.84 -1.84,1.09 -0.73,0.25 -1.57,0.37 -2.51,0.37 -0.89,0 -1.69,-0.11 -2.39,-0.33 -0.71,-0.22 -1.31,-0.56 -1.8,-1.01 -0.49,-0.45 -0.86,-1.01 -1.12,-1.69 -0.26,-0.67 -0.39,-1.46 -0.39,-2.36l0 -8.61c0,-0.07 0.02,-0.14 0.07,-0.2 0.04,-0.06 0.12,-0.1 0.23,-0.14 0.11,-0.04 0.26,-0.06 0.45,-0.09 0.18,-0.02 0.41,-0.03 0.7,-0.03 0.27,0 0.5,0.01 0.69,0.03 0.18,0.02 0.33,0.05 0.43,0.09 0.11,0.04 0.19,0.09 0.24,0.14 0.05,0.06 0.07,0.13 0.07,0.2l0 8.36c0,0.56 0.07,1.05 0.21,1.46 0.14,0.41 0.34,0.76 0.6,1.02 0.26,0.27 0.57,0.48 0.93,0.61 0.36,0.13 0.76,0.2 1.21,0.2 0.45,0 0.86,-0.07 1.21,-0.21 0.36,-0.14 0.66,-0.34 0.91,-0.6 0.25,-0.27 0.44,-0.6 0.57,-0.99 0.14,-0.39 0.2,-0.84 0.2,-1.33l0 -8.52c0,-0.07 0.02,-0.14 0.07,-0.2 0.04,-0.06 0.12,-0.1 0.23,-0.14 0.11,-0.04 0.26,-0.06 0.45,-0.09 0.19,-0.02 0.42,-0.03 0.69,-0.03 0.27,0 0.5,0.01 0.68,0.03 0.18,0.02 0.33,0.05 0.43,0.09 0.11,0.04 0.19,0.08 0.23,0.14 0.04,0.06 0.07,0.13 0.07,0.2l0 8.49 -0.01 0zm11.48 1.03c0,0.75 -0.14,1.39 -0.41,1.96 -0.28,0.56 -0.65,1.03 -1.13,1.4 -0.48,0.37 -1.03,0.66 -1.67,0.85 -0.64,0.19 -1.31,0.28 -2.04,0.28 -0.49,0 -0.94,-0.04 -1.36,-0.12 -0.42,-0.08 -0.79,-0.18 -1.11,-0.29 -0.32,-0.11 -0.59,-0.23 -0.81,-0.36 -0.22,-0.13 -0.37,-0.24 -0.47,-0.33 -0.09,-0.1 -0.16,-0.24 -0.2,-0.41 -0.04,-0.18 -0.06,-0.43 -0.06,-0.77 0,-0.23 0.01,-0.41 0.02,-0.57 0.02,-0.16 0.04,-0.28 0.07,-0.37 0.03,-0.09 0.08,-0.16 0.13,-0.2 0.05,-0.04 0.12,-0.06 0.19,-0.06 0.1,0 0.24,0.06 0.43,0.18 0.19,0.12 0.43,0.26 0.72,0.4 0.29,0.15 0.64,0.28 1.05,0.4 0.4,0.12 0.87,0.18 1.41,0.18 0.35,0 0.67,-0.04 0.94,-0.12 0.28,-0.08 0.52,-0.2 0.71,-0.35 0.19,-0.15 0.34,-0.34 0.45,-0.57 0.1,-0.22 0.15,-0.47 0.15,-0.75 0,-0.32 -0.09,-0.6 -0.26,-0.82 -0.18,-0.23 -0.4,-0.43 -0.69,-0.61 -0.28,-0.18 -0.6,-0.34 -0.96,-0.5 -0.35,-0.16 -0.72,-0.32 -1.1,-0.5 -0.38,-0.18 -0.75,-0.37 -1.11,-0.6 -0.36,-0.22 -0.68,-0.48 -0.96,-0.79 -0.28,-0.31 -0.51,-0.67 -0.69,-1.1 -0.18,-0.42 -0.26,-0.93 -0.26,-1.52 0,-0.67 0.13,-1.27 0.38,-1.79 0.25,-0.51 0.59,-0.94 1.01,-1.27 0.43,-0.34 0.93,-0.6 1.51,-0.76 0.58,-0.17 1.2,-0.25 1.84,-0.25 0.33,0 0.67,0.03 1,0.08 0.34,0.05 0.65,0.12 0.94,0.2 0.29,0.09 0.55,0.19 0.78,0.29 0.22,0.11 0.37,0.2 0.45,0.28 0.07,0.07 0.12,0.14 0.15,0.18 0.03,0.05 0.05,0.12 0.07,0.21 0.02,0.08 0.03,0.19 0.04,0.32 0.01,0.13 0.01,0.28 0.01,0.48 0,0.21 -0,0.39 -0.01,0.54 -0.01,0.15 -0.03,0.26 -0.06,0.36 -0.03,0.09 -0.06,0.16 -0.11,0.2 -0.05,0.04 -0.11,0.07 -0.19,0.07 -0.08,0 -0.2,-0.05 -0.38,-0.15 -0.18,-0.1 -0.39,-0.21 -0.65,-0.34 -0.26,-0.12 -0.55,-0.23 -0.89,-0.32 -0.34,-0.1 -0.7,-0.15 -1.1,-0.15 -0.31,0 -0.58,0.04 -0.82,0.12 -0.23,0.07 -0.43,0.18 -0.58,0.32 -0.15,0.13 -0.28,0.29 -0.35,0.48 -0.08,0.19 -0.12,0.39 -0.12,0.6 0,0.31 0.09,0.59 0.26,0.81 0.17,0.23 0.4,0.44 0.69,0.62 0.29,0.18 0.62,0.34 0.98,0.5 0.36,0.16 0.74,0.33 1.12,0.5 0.38,0.17 0.76,0.37 1.12,0.6 0.36,0.22 0.69,0.49 0.98,0.8 0.28,0.31 0.51,0.67 0.69,1.09 0.17,0.42 0.26,0.91 0.26,1.48l0 -0zm11.37 -8.73c0,0.21 -0.01,0.39 -0.03,0.54 -0.02,0.15 -0.04,0.27 -0.08,0.36 -0.04,0.09 -0.08,0.16 -0.14,0.2 -0.05,0.04 -0.12,0.07 -0.18,0.07l-3.54 0 0 11.41c0,0.07 -0.02,0.14 -0.07,0.2 -0.05,0.05 -0.13,0.1 -0.24,0.14 -0.11,0.03 -0.26,0.06 -0.45,0.09 -0.19,0.02 -0.42,0.03 -0.69,0.03 -0.27,0 -0.51,-0.01 -0.69,-0.03 -0.19,-0.02 -0.34,-0.05 -0.45,-0.09 -0.11,-0.03 -0.19,-0.08 -0.24,-0.14 -0.05,-0.06 -0.07,-0.13 -0.07,-0.2l0 -11.41 -3.54 0c-0.07,0 -0.14,-0.02 -0.19,-0.07 -0.05,-0.04 -0.09,-0.11 -0.13,-0.2 -0.03,-0.09 -0.06,-0.21 -0.08,-0.36 -0.02,-0.15 -0.03,-0.33 -0.03,-0.54 0,-0.22 0.01,-0.4 0.03,-0.56 0.02,-0.15 0.05,-0.27 0.08,-0.36 0.04,-0.09 0.08,-0.15 0.13,-0.2 0.05,-0.04 0.12,-0.06 0.19,-0.06l9.96 0c0.06,0 0.12,0.02 0.18,0.06 0.06,0.04 0.1,0.1 0.14,0.2 0.04,0.09 0.07,0.21 0.09,0.36 0.02,0.15 0.03,0.34 0.03,0.56l0 0zm12.19 12.6c0,0.08 -0.01,0.15 -0.04,0.2 -0.03,0.05 -0.1,0.1 -0.21,0.14 -0.11,0.03 -0.27,0.06 -0.48,0.07 -0.21,0.01 -0.5,0.02 -0.86,0.02 -0.31,0 -0.55,-0.01 -0.73,-0.02 -0.18,-0.01 -0.33,-0.04 -0.43,-0.08 -0.1,-0.04 -0.18,-0.09 -0.22,-0.15 -0.04,-0.06 -0.08,-0.14 -0.11,-0.22l-1.28 -3.17c-0.15,-0.36 -0.3,-0.68 -0.45,-0.96 -0.15,-0.28 -0.31,-0.51 -0.49,-0.7 -0.18,-0.19 -0.39,-0.33 -0.62,-0.42 -0.23,-0.09 -0.5,-0.14 -0.81,-0.14l-0.9 0 0 5.41c0,0.07 -0.02,0.14 -0.07,0.19 -0.05,0.06 -0.13,0.11 -0.24,0.15 -0.11,0.03 -0.26,0.06 -0.44,0.09 -0.18,0.02 -0.41,0.03 -0.69,0.03 -0.28,0 -0.51,-0.01 -0.69,-0.03 -0.19,-0.02 -0.33,-0.05 -0.44,-0.09 -0.11,-0.03 -0.19,-0.08 -0.23,-0.14 -0.04,-0.06 -0.07,-0.13 -0.07,-0.2l0 -12.85c0,-0.32 0.08,-0.55 0.25,-0.69 0.16,-0.14 0.36,-0.21 0.6,-0.21l3.66 0c0.37,0 0.68,0.01 0.92,0.02 0.24,0.01 0.46,0.03 0.66,0.05 0.57,0.08 1.08,0.22 1.53,0.42 0.45,0.19 0.84,0.45 1.16,0.77 0.32,0.32 0.56,0.69 0.73,1.12 0.17,0.43 0.25,0.93 0.25,1.49 0,0.47 -0.06,0.9 -0.18,1.29 -0.12,0.39 -0.3,0.74 -0.53,1.05 -0.23,0.31 -0.52,0.57 -0.86,0.79 -0.34,0.23 -0.74,0.41 -1.17,0.55 0.21,0.1 0.41,0.22 0.6,0.37 0.19,0.15 0.36,0.32 0.52,0.53 0.16,0.21 0.32,0.45 0.47,0.71 0.15,0.26 0.29,0.57 0.42,0.9l1.2 2.8c0.11,0.28 0.18,0.48 0.22,0.61 0.04,0.13 0.06,0.23 0.06,0.3l0 0.01zm-3.72 -9.61c0,-0.47 -0.1,-0.86 -0.32,-1.18 -0.21,-0.32 -0.56,-0.55 -1.04,-0.68 -0.15,-0.04 -0.31,-0.06 -0.5,-0.09 -0.19,-0.02 -0.45,-0.03 -0.77,-0.03l-1.29 0 0 4.01 1.47 0c0.41,0 0.77,-0.05 1.07,-0.15 0.31,-0.1 0.56,-0.24 0.77,-0.41 0.2,-0.17 0.36,-0.39 0.46,-0.64 0.1,-0.25 0.15,-0.52 0.15,-0.83l-0 -0zm8.71 9.59c0,0.07 -0.02,0.14 -0.07,0.2 -0.05,0.06 -0.13,0.1 -0.24,0.14 -0.11,0.03 -0.26,0.06 -0.44,0.09 -0.18,0.02 -0.42,0.03 -0.7,0.03 -0.27,0 -0.51,-0.01 -0.69,-0.03 -0.19,-0.02 -0.34,-0.05 -0.45,-0.09 -0.11,-0.04 -0.19,-0.08 -0.24,-0.14 -0.05,-0.06 -0.07,-0.13 -0.07,-0.2l0 -13.37c0,-0.07 0.02,-0.14 0.07,-0.2 0.05,-0.05 0.13,-0.1 0.24,-0.14 0.11,-0.04 0.26,-0.07 0.44,-0.09 0.18,-0.02 0.41,-0.03 0.69,-0.03 0.28,0 0.52,0.01 0.7,0.03 0.18,0.02 0.33,0.05 0.44,0.09 0.11,0.03 0.19,0.08 0.24,0.14 0.05,0.06 0.07,0.13 0.07,0.2l0 13.37zm14.67 -0.68c0.09,0.26 0.14,0.47 0.16,0.62 0.02,0.15 -0.01,0.27 -0.09,0.34 -0.08,0.07 -0.22,0.12 -0.43,0.14 -0.2,0.02 -0.48,0.03 -0.84,0.03 -0.37,0 -0.67,-0 -0.87,-0.01 -0.21,-0.01 -0.36,-0.03 -0.48,-0.07 -0.11,-0.03 -0.18,-0.08 -0.23,-0.14 -0.04,-0.06 -0.08,-0.14 -0.11,-0.23l-0.93 -2.84 -5.34 0 -0.89 2.77c-0.03,0.1 -0.07,0.19 -0.12,0.26 -0.04,0.07 -0.12,0.12 -0.23,0.16 -0.1,0.04 -0.25,0.07 -0.45,0.08 -0.19,0.01 -0.45,0.02 -0.76,0.02 -0.34,0 -0.6,-0.01 -0.79,-0.03 -0.19,-0.02 -0.32,-0.07 -0.39,-0.16 -0.07,-0.09 -0.1,-0.21 -0.08,-0.36 0.02,-0.16 0.08,-0.36 0.16,-0.61l4.36 -12.56c0.04,-0.12 0.09,-0.22 0.15,-0.3 0.06,-0.08 0.15,-0.14 0.28,-0.18 0.13,-0.04 0.31,-0.07 0.53,-0.08 0.22,-0.01 0.52,-0.02 0.9,-0.02 0.43,0 0.77,0 1.03,0.02 0.26,0.01 0.45,0.03 0.6,0.08 0.14,0.04 0.24,0.1 0.31,0.18 0.06,0.08 0.12,0.19 0.16,0.33l4.37 12.55 0 0zm-6.49 -10.39l-0.01 0 -1.97 6.02 3.97 0 -1.99 -6.02 -0 -0zm16.25 10.26c0,0.22 -0.01,0.4 -0.03,0.55 -0.02,0.15 -0.05,0.27 -0.08,0.37 -0.03,0.1 -0.08,0.17 -0.14,0.21 -0.05,0.04 -0.12,0.07 -0.19,0.07l-6.48 0c-0.24,0 -0.44,-0.07 -0.6,-0.21 -0.16,-0.14 -0.24,-0.37 -0.24,-0.7l0 -12.85c0,-0.07 0.02,-0.14 0.07,-0.2 0.05,-0.06 0.13,-0.1 0.24,-0.14 0.11,-0.04 0.26,-0.06 0.44,-0.09 0.19,-0.02 0.42,-0.03 0.7,-0.03 0.28,0 0.52,0.01 0.7,0.03 0.18,0.02 0.33,0.05 0.43,0.09 0.11,0.04 0.19,0.09 0.24,0.14 0.05,0.06 0.07,0.13 0.07,0.2l0 11.39 4.44 0c0.07,0 0.14,0.02 0.19,0.06 0.06,0.04 0.1,0.1 0.14,0.2 0.04,0.09 0.06,0.21 0.08,0.36 0.02,0.15 0.03,0.33 0.03,0.55l0 -0zm14.53 0c0,0.22 -0.01,0.4 -0.03,0.55 -0.02,0.15 -0.05,0.27 -0.09,0.37 -0.03,0.1 -0.08,0.17 -0.14,0.21 -0.05,0.04 -0.12,0.07 -0.19,0.07l-6.48 0c-0.24,0 -0.44,-0.07 -0.6,-0.21 -0.16,-0.14 -0.25,-0.37 -0.25,-0.7l0 -12.85c0,-0.07 0.02,-0.14 0.07,-0.2 0.05,-0.06 0.13,-0.1 0.24,-0.14 0.11,-0.04 0.26,-0.06 0.44,-0.09 0.19,-0.02 0.42,-0.03 0.69,-0.03 0.28,0 0.52,0.01 0.7,0.03 0.18,0.02 0.33,0.05 0.43,0.09 0.11,0.04 0.19,0.09 0.24,0.14 0.05,0.06 0.07,0.13 0.07,0.2l0 11.39 4.45 0c0.07,0 0.14,0.02 0.19,0.06 0.05,0.04 0.1,0.1 0.14,0.2 0.04,0.09 0.06,0.21 0.08,0.36 0.02,0.15 0.03,0.33 0.03,0.55l-0 -0zm9.47 -11.77c0,0.21 -0.01,0.39 -0.03,0.55 -0.02,0.15 -0.04,0.27 -0.08,0.36 -0.03,0.09 -0.08,0.16 -0.14,0.2 -0.05,0.04 -0.12,0.07 -0.18,0.07l-3.54 0 0 11.41c0,0.07 -0.02,0.14 -0.07,0.2 -0.05,0.06 -0.13,0.1 -0.24,0.14 -0.11,0.03 -0.26,0.06 -0.44,0.09 -0.19,0.02 -0.42,0.03 -0.7,0.03 -0.27,0 -0.51,-0.01 -0.69,-0.03 -0.19,-0.02 -0.34,-0.05 -0.44,-0.09 -0.11,-0.04 -0.19,-0.09 -0.24,-0.14 -0.05,-0.06 -0.07,-0.13 -0.07,-0.2l0 -11.41 -3.54 0c-0.07,0 -0.13,-0.02 -0.19,-0.07 -0.05,-0.04 -0.09,-0.11 -0.13,-0.2 -0.03,-0.09 -0.06,-0.21 -0.08,-0.36 -0.02,-0.15 -0.03,-0.33 -0.03,-0.55 0,-0.22 0.01,-0.4 0.03,-0.55 0.02,-0.15 0.05,-0.27 0.08,-0.36 0.04,-0.09 0.08,-0.16 0.13,-0.2 0.05,-0.04 0.12,-0.06 0.19,-0.06l9.96 0c0.07,0 0.12,0.02 0.18,0.06 0.05,0.04 0.1,0.1 0.14,0.2 0.04,0.09 0.06,0.21 0.08,0.36 0.02,0.15 0.03,0.34 0.03,0.55l0 0zm13.44 5.69c0,1.3 -0.17,2.41 -0.51,3.33 -0.34,0.92 -0.83,1.67 -1.46,2.26 -0.64,0.58 -1.41,1.01 -2.32,1.29 -0.91,0.27 -1.99,0.41 -3.24,0.41l-3.38 0c-0.24,0 -0.44,-0.07 -0.61,-0.21 -0.16,-0.14 -0.25,-0.37 -0.25,-0.69l0 -12.34c0,-0.32 0.08,-0.55 0.25,-0.69 0.16,-0.14 0.36,-0.21 0.61,-0.21l3.63 0c1.26,0 2.33,0.15 3.21,0.45 0.88,0.29 1.62,0.73 2.22,1.31 0.6,0.58 1.06,1.3 1.38,2.15 0.31,0.86 0.47,1.84 0.47,2.96l-0 0zm-2.98 0.1c0,-0.67 -0.08,-1.29 -0.24,-1.87 -0.15,-0.58 -0.41,-1.07 -0.75,-1.49 -0.34,-0.42 -0.79,-0.76 -1.33,-0.99 -0.54,-0.24 -1.26,-0.36 -2.14,-0.36l-1.45 0 0 9.61 1.5 0c0.79,0 1.45,-0.1 1.99,-0.31 0.54,-0.2 0.99,-0.51 1.35,-0.92 0.36,-0.41 0.63,-0.92 0.81,-1.53 0.18,-0.61 0.27,-1.32 0.27,-2.14l0 -0.01zm16.41 6.11c0.09,0.26 0.14,0.47 0.16,0.62 0.02,0.15 -0.01,0.27 -0.09,0.34 -0.08,0.07 -0.22,0.12 -0.43,0.14 -0.2,0.02 -0.48,0.03 -0.84,0.03 -0.37,0 -0.67,-0 -0.87,-0.02 -0.21,-0.01 -0.36,-0.03 -0.48,-0.07 -0.11,-0.03 -0.18,-0.08 -0.23,-0.14 -0.04,-0.05 -0.08,-0.13 -0.11,-0.23l-0.93 -2.84 -5.34 0 -0.89 2.77c-0.03,0.1 -0.07,0.19 -0.12,0.26 -0.04,0.07 -0.12,0.12 -0.23,0.16 -0.1,0.04 -0.25,0.07 -0.45,0.09 -0.19,0.01 -0.45,0.02 -0.76,0.02 -0.34,0 -0.6,-0.01 -0.79,-0.03 -0.19,-0.02 -0.32,-0.07 -0.39,-0.16 -0.07,-0.09 -0.1,-0.21 -0.08,-0.36 0.02,-0.16 0.08,-0.36 0.16,-0.61l4.36 -12.56c0.04,-0.12 0.09,-0.22 0.15,-0.3 0.05,-0.08 0.15,-0.13 0.28,-0.18 0.13,-0.04 0.31,-0.07 0.53,-0.08 0.22,-0.01 0.52,-0.02 0.9,-0.02 0.43,0 0.77,0 1.03,0.02 0.26,0.01 0.45,0.04 0.6,0.08 0.14,0.04 0.24,0.1 0.31,0.18 0.06,0.08 0.12,0.19 0.16,0.33l4.37 12.55 -0.01 0zm-6.5 -10.39l-0.01 0 -1.97 6.02 3.97 0 -1.99 -6.02 -0 0zm11.71 9.88c0,0.67 -0.12,1.13 -0.35,1.37 -0.24,0.24 -0.66,0.35 -1.27,0.35 -0.61,0 -1.04,-0.12 -1.27,-0.34 -0.24,-0.23 -0.35,-0.67 -0.35,-1.31 0,-0.68 0.12,-1.15 0.36,-1.38 0.24,-0.24 0.67,-0.35 1.29,-0.35 0.6,0 1.02,0.12 1.26,0.34 0.23,0.23 0.34,0.67 0.34,1.32l0 0zm-153.39 -26.82c-0.2,0.12 -0.4,0.23 -0.6,0.34 -0.47,0.25 -0.96,0.48 -1.45,0.68l2.16 3.41 0 -0c0.36,0.57 0.52,1.18 0.52,1.78 0,0.56 -0.15,1.12 -0.42,1.61l0 0.01c-0.26,0.48 -0.66,0.91 -1.14,1.21l0 0c-0.51,0.32 -1.11,0.51 -1.77,0.51l0 -0.01 -10.82 0 0 0.01c-0.55,0 -1.08,-0.14 -1.56,-0.39 -0.48,-0.25 -0.9,-0.62 -1.21,-1.08l0 -0.01 -4.79 -7.12 -2.03 6.29c-0.22,0.67 -0.65,1.26 -1.2,1.66 -0.55,0.41 -1.24,0.65 -1.95,0.65l-10.79 0c-0.34,0 -0.68,-0.06 -1.01,-0.16l-0.01 0c-0.69,-0.22 -1.27,-0.66 -1.67,-1.21 -0.4,-0.56 -0.64,-1.24 -0.64,-1.96 0,-0.33 0.06,-0.67 0.17,-1.02l6.04 -18.71 -3.93 0 -7.08 20.78c-0.23,0.67 -0.66,1.24 -1.21,1.63 -0.56,0.4 -1.23,0.63 -1.94,0.63l-10.1 0c-0.36,0 -0.72,-0.06 -1.05,-0.18 -0.68,-0.23 -1.24,-0.67 -1.64,-1.23 -0.4,-0.56 -0.63,-1.23 -0.63,-1.94 0,-0.34 0.06,-0.7 0.18,-1.06l6.35 -18.65 -2.09 0 -21.12 22.01c-0.31,0.33 -0.69,0.59 -1.09,0.76l-0 -0.01c-0.42,0.18 -0.87,0.28 -1.31,0.28l-22.27 0c-0.84,0 -1.6,-0.31 -2.19,-0.83 -0.58,-0.51 -0.99,-1.23 -1.1,-2.06l-1.77 -13.09 -9.81 14.51 -0 -0c-0.31,0.46 -0.72,0.83 -1.18,1.08l-0.01 0c-0.48,0.26 -1.02,0.4 -1.56,0.4l-28.87 0c-0.34,0 -0.68,-0.06 -1.02,-0.16 -0.69,-0.22 -1.27,-0.66 -1.67,-1.21 -0.4,-0.56 -0.64,-1.24 -0.64,-1.96 0,-0.33 0.06,-0.67 0.17,-1.02l0.85 -2.63c-0.41,0.18 -0.83,0.34 -1.25,0.49 -2,0.71 -4.12,1.13 -6.24,1.23l0 0 -0.02 0 -0.13 0 -10.72 -0.07 -0.96 2.99 0 0c-0.21,0.7 -0.65,1.29 -1.21,1.69 -0.56,0.41 -1.25,0.64 -1.96,0.64l-7.19 -0 -3.59 0 0 0.01 -0.03 0 -0.1 -0.01 -0.03 0 -0.01 0c-0.35,-0.02 -0.69,-0.1 -0.99,-0.21 -0.67,-0.25 -1.23,-0.71 -1.61,-1.28 -0.39,-0.59 -0.6,-1.29 -0.55,-2.02 0.02,-0.31 0.08,-0.63 0.2,-0.94l9.38 -29.07c0.22,-0.69 0.65,-1.27 1.2,-1.67 0.56,-0.41 1.24,-0.65 1.96,-0.65l0 0.01 6.59 0c4.8,0 9.61,0.01 14.41,-0 1.84,-0 3.67,0.24 5.41,0.82 1.6,0.54 3.11,1.36 4.45,2.53 0.34,0.29 0.65,0.6 0.95,0.93l0.63 -1.96c0.22,-0.69 0.65,-1.27 1.2,-1.67 0.56,-0.41 1.24,-0.64 1.96,-0.64l10.09 0c0.34,0 0.68,0.06 1.01,0.16 0.69,0.22 1.27,0.66 1.67,1.21l0 0.01c0.4,0.56 0.64,1.25 0.64,1.95 0,0.33 -0.05,0.67 -0.17,1.02l-5.72 17.74 5.13 0 13.94 -20.63 0.01 0c0.31,-0.46 0.73,-0.84 1.21,-1.09l0 0c0.47,-0.25 1,-0.39 1.54,-0.38l0 -0.01 14.2 0c0.84,0 1.61,0.31 2.2,0.83l0 0.01c0.58,0.52 0.99,1.24 1.1,2.07l3.17 23.49 4.2 -4.37 -2.42 -18.24 0 0c-0.02,-0.17 -0.03,-0.33 -0.03,-0.45 0,-0.82 0.31,-1.59 0.82,-2.18 0.51,-0.59 1.23,-1 2.07,-1.12l0.01 0c0.17,-0.02 0.32,-0.04 0.43,-0.04l11.2 0c0.9,0 1.72,0.36 2.32,0.96 0.6,0.58 0.97,1.39 0.99,2.3l0.07 2.65 4.68 -4.88c0.31,-0.33 0.69,-0.58 1.09,-0.76l0.01 0c0.41,-0.17 0.86,-0.27 1.3,-0.27l0 0.01 55.75 0.01c2.74,0 5.61,0.43 8.13,1.58 2.2,1.01 4.13,2.57 5.46,4.84l0 0.01c0.14,0.25 0.28,0.5 0.4,0.75 2.08,-2.41 4.54,-4.18 7.28,-5.44 3.75,-1.73 7.99,-2.5 12.41,-2.69l0.01 0 0.02 0 0.08 0 5.49 0.07c3.79,0.04 7.72,0.83 10.75,2.82 1.2,0.78 2.25,1.75 3.1,2.92l0.82 -2.54c0.22,-0.69 0.65,-1.27 1.2,-1.68 0.56,-0.41 1.24,-0.64 1.97,-0.64l12.04 0c0.69,0 1.35,0.22 1.9,0.59 0.55,0.37 0.98,0.91 1.24,1.54l3.58 8.82 2.78 -8.63c0.22,-0.69 0.65,-1.27 1.21,-1.68 0.56,-0.41 1.24,-0.65 1.97,-0.65l10.09 0c0.34,0 0.68,0.06 1.01,0.16l0.01 0c0.69,0.22 1.27,0.66 1.67,1.22 0.4,0.56 0.64,1.24 0.64,1.95 0,0.34 -0.05,0.68 -0.17,1.03l-0 0 -9.41 29.16c-0.22,0.69 -0.65,1.27 -1.2,1.68 -0.56,0.41 -1.24,0.64 -1.97,0.64l-11.51 0c-0.69,0 -1.35,-0.22 -1.9,-0.59l-0.01 -0.01c-0.54,-0.37 -0.98,-0.9 -1.23,-1.53l-3.87 -9.55 -3.02 9.35c-0.22,0.69 -0.65,1.27 -1.21,1.68 -0.55,0.41 -1.24,0.64 -1.96,0.64l-10.09 0c-0.34,0 -0.68,-0.06 -1.01,-0.16l-0.01 0c-0.69,-0.22 -1.27,-0.66 -1.67,-1.22 -0.4,-0.56 -0.64,-1.24 -0.64,-1.95 0,-0.11 0.01,-0.22 0.02,-0.33 -1.07,0.69 -2.19,1.3 -3.34,1.83 -3.29,1.52 -6.87,2.4 -10.2,2.44l-0.02 0.01 -7.26 0 -0.11 -0.01 -0.01 0 0 0c-3.93,-0.12 -8.18,-0.89 -11.31,-3.08 -2.28,-1.59 -3.95,-3.87 -4.5,-7.08l-0.01 0.02zm82.75 9.56c-0.29,0 -0.59,-0.05 -0.87,-0.14l0 -0c-0.67,-0.21 -1.21,-0.63 -1.57,-1.18l0 0c-0.34,-0.51 -0.52,-1.11 -0.52,-1.72 0,-0.29 0.05,-0.6 0.15,-0.92l0 -0.01 9.05 -29.52c0.22,-0.7 0.64,-1.29 1.2,-1.7 0.56,-0.42 1.25,-0.66 1.98,-0.66l10.09 0c0.34,0 0.68,0.06 1.01,0.16l0.01 0c0.69,0.22 1.27,0.66 1.67,1.22 0.4,0.56 0.64,1.24 0.64,1.95 0,0.34 -0.06,0.69 -0.17,1.04l-0 0 -9.41 29.15c-0.22,0.69 -0.65,1.27 -1.2,1.68 -0.56,0.41 -1.24,0.65 -1.97,0.65l-10.09 0 0 -0zm-100.87 -17.79l5.74 0 0 0c0.34,-0.03 0.66,-0.08 0.93,-0.17l0 -0c0.21,-0.07 0.39,-0.17 0.52,-0.3 0.15,-0.15 0.28,-0.35 0.39,-0.57l0 -0.01c0.15,-0.3 0.26,-0.64 0.37,-0.97 0.29,-0.96 0.5,-1.99 0.7,-2.99l0 -0.01 0.14 -0.69c-0.34,-0.07 -0.75,-0.08 -1.06,-0.08l-5.86 0 -1.87 5.79 -0 0zm38.66 5.3c2.01,0.07 3.69,-0.26 5.01,-1.06 1.3,-0.79 2.31,-2.07 3.02,-3.91 0.33,-0.86 0.72,-2.01 0.89,-3.16 0.14,-0.92 0.14,-1.8 -0.17,-2.32l-0.01 0c-0.17,-0.28 -0.48,-0.47 -0.85,-0.59 -0.54,-0.19 -1.18,-0.26 -1.77,-0.28 -2.16,-0.07 -3.7,0.41 -4.84,1.35 -1.22,1 -2.11,2.58 -2.91,4.64 -0.33,0.86 -0.66,1.97 -0.7,3.01l0 0.01c-0.03,0.61 0.04,1.17 0.28,1.56 0.14,0.23 0.38,0.39 0.65,0.5 0.42,0.16 0.91,0.23 1.39,0.25l0 0zm-184.94 -11.11l-1.7 5.28 4.23 -0 0 -0.01c0.74,0 1.36,-0.21 1.86,-0.58 0.56,-0.41 0.99,-1.05 1.28,-1.83 0.16,-0.43 0.34,-0.98 0.48,-1.5l0 -0.01c0.11,-0.41 0.2,-0.81 0.24,-1.13l0 0c0.04,-0.29 0.4,-0.13 0.26,-0.25 -0.03,-0.02 -0.28,0.03 -0.78,0.03l-5.87 -0zm155.3 43.22c-0.05,0.07 -0.1,0.15 -0.16,0.22l-0.03 0.03c-0.16,0.18 -0.34,0.34 -0.55,0.46l-0 -0.01c-0.16,0.1 -0.33,0.18 -0.51,0.24l-0.03 0.01c-0.09,0.03 -0.22,0.06 -0.38,0.09l-0.01 0.01c-0.06,0.01 -0.19,0.03 -0.37,0.06l-0.01 0.01c-0.1,0.01 -0.25,0.02 -0.46,0.03 -0.22,0.01 -0.39,0.01 -0.47,0.01 -0.08,0 -0.24,-0.01 -0.46,-0.01 -0.2,-0.01 -0.35,-0.02 -0.45,-0.03l-0.01 0c-0.13,-0.02 -0.26,-0.04 -0.38,-0.06l0 -0c-0.14,-0.03 -0.27,-0.06 -0.39,-0.1l-0.04 -0.02c-0.18,-0.06 -0.35,-0.14 -0.51,-0.24l-0 0.01c-0.2,-0.12 -0.39,-0.28 -0.54,-0.46l-0.03 -0.04c-0.17,-0.21 -0.29,-0.43 -0.37,-0.66l0 0c-0.09,-0.24 -0.13,-0.48 -0.13,-0.73l0 -13.37c0,-0.24 0.04,-0.47 0.12,-0.71l0 0c0.08,-0.24 0.21,-0.47 0.38,-0.68l0.03 -0.04c0.16,-0.18 0.34,-0.34 0.55,-0.46l0.02 -0.01c0.16,-0.1 0.34,-0.18 0.51,-0.23l0 0c0.15,-0.05 0.29,-0.08 0.41,-0.11l0.01 0c0.14,-0.03 0.26,-0.04 0.37,-0.06 0.1,-0.01 0.25,-0.02 0.46,-0.03 0.22,-0.01 0.38,-0.02 0.46,-0.02 0.08,0 0.25,0.01 0.47,0.02 0.21,0.01 0.36,0.02 0.46,0.03l0.01 0.01c0.16,0.02 0.29,0.04 0.36,0.05l0.01 0c0.13,0.02 0.27,0.06 0.43,0.12l0 0c0.18,0.06 0.35,0.14 0.51,0.24l0 -0.01c0.2,0.12 0.38,0.28 0.54,0.46l0.03 0.04c0.11,0.13 0.2,0.27 0.27,0.42 0.14,-0.21 0.31,-0.41 0.51,-0.58l-0 -0c0.55,-0.48 1.21,-0.72 1.97,-0.72l1.54 0c0.15,0 0.34,0.01 0.56,0.03l0.02 0c0.22,0.02 0.41,0.05 0.58,0.1l0.02 0.01c0.21,0.06 0.41,0.12 0.58,0.21 0.18,0.08 0.36,0.19 0.55,0.32l0.01 0.01c0.17,0.12 0.34,0.27 0.49,0.44l0 0c0.13,0.14 0.26,0.3 0.38,0.48l0 0c0.12,0.17 0.21,0.32 0.28,0.45 0.04,0.08 0.12,0.23 0.22,0.43l0.01 -0 0.91 1.71 0 -1.88c0,-0.46 0.15,-0.9 0.44,-1.3l0 0c0.13,-0.19 0.3,-0.35 0.5,-0.49l0 0c0.15,-0.11 0.31,-0.2 0.47,-0.27l0.04 -0.02c0.14,-0.06 0.3,-0.11 0.48,-0.15l0.02 0c0.15,-0.04 0.3,-0.06 0.42,-0.07l0.01 0c0.1,-0.01 0.24,-0.02 0.41,-0.03l0 0 0.43 -0.01c0.07,0 0.19,0 0.43,0.01l0 0c0.16,0.01 0.29,0.01 0.4,0.03l0.01 0c0.16,0.02 0.31,0.04 0.43,0.07l0.02 0.01c0.19,0.04 0.36,0.11 0.52,0.18l0.05 0.02c0.15,0.08 0.3,0.17 0.43,0.28l0 -0c0.2,0.16 0.37,0.36 0.5,0.57l0 0c0.03,0.04 0.05,0.08 0.07,0.13 0.13,-0.21 0.29,-0.4 0.49,-0.57 0.26,-0.22 0.56,-0.4 0.88,-0.51 0.31,-0.11 0.63,-0.16 0.95,-0.16l3.63 0c0.7,0 1.37,0.04 2,0.13l0 0c0.65,0.09 1.25,0.23 1.8,0.41 0.56,0.19 1.08,0.42 1.57,0.71 0.5,0.3 0.96,0.64 1.36,1.03l0.01 0.01c0.37,0.35 0.7,0.75 0.99,1.19l0 -1.21c0,-0.22 0.04,-0.44 0.11,-0.67l0.01 -0.03c0.07,-0.22 0.18,-0.42 0.32,-0.6l0 0c0.16,-0.22 0.37,-0.42 0.63,-0.57 0.17,-0.1 0.34,-0.18 0.54,-0.25l0 0c0.15,-0.05 0.28,-0.08 0.42,-0.1 0.14,-0.03 0.26,-0.05 0.37,-0.06l0 0.01c0.15,-0.02 0.3,-0.03 0.46,-0.04 0.22,-0.01 0.39,-0.01 0.47,-0.01 0.08,0 0.24,0.01 0.46,0.01 0.15,0.01 0.31,0.02 0.45,0.04l0 -0.01c0.13,0.02 0.25,0.04 0.38,0.06 0.13,0.03 0.26,0.06 0.42,0.12l0 0c0.18,0.06 0.35,0.14 0.51,0.24l0 -0.01c0.2,0.12 0.38,0.28 0.54,0.46l0.03 0.03c0.17,0.21 0.3,0.44 0.38,0.68l0 0c0.08,0.24 0.12,0.47 0.12,0.71l0 8.36c0,0.21 0.01,0.38 0.03,0.52l0 0c0.02,0.14 0.04,0.25 0.07,0.34 0.03,0.08 0.06,0.15 0.1,0.22l0 -0c0.03,0.05 0.05,0.08 0.06,0.1l0.01 0.01c0.03,0.04 0.07,0.06 0.09,0.09l0 -0.01c0.04,0.02 0.08,0.05 0.12,0.06l0.01 0.01c0.06,0.02 0.13,0.04 0.22,0.06l0.01 0c0.08,0.01 0.19,0.02 0.33,0.02 0.12,0 0.23,-0.01 0.32,-0.02l0.02 0c0.08,-0.01 0.15,-0.03 0.2,-0.06l0.01 -0.01c0.05,-0.02 0.1,-0.04 0.13,-0.06 0.03,-0.02 0.06,-0.05 0.09,-0.08l0 0c0.02,-0.03 0.04,-0.06 0.06,-0.1l0.01 -0.01c0.02,-0.04 0.05,-0.1 0.08,-0.2l0.01 0c0.02,-0.06 0.05,-0.16 0.07,-0.3 0.02,-0.13 0.03,-0.27 0.03,-0.43l0 -8.52c0,-0.23 0.04,-0.47 0.12,-0.71l0.01 -0.01c0.07,-0.21 0.18,-0.42 0.34,-0.62l0 0c0.16,-0.21 0.35,-0.38 0.57,-0.52l0.01 -0.01c0.15,-0.09 0.33,-0.18 0.51,-0.24 0.16,-0.06 0.31,-0.09 0.45,-0.12 0.13,-0.03 0.26,-0.05 0.39,-0.06 0.1,-0.01 0.25,-0.02 0.45,-0.03 0.22,-0.01 0.38,-0.01 0.46,-0.01 0.08,0 0.24,0.01 0.46,0.01 0.21,0.01 0.36,0.02 0.46,0.03l0.01 0.01c0.17,0.02 0.3,0.04 0.37,0.05 0.13,0.03 0.27,0.06 0.44,0.12 0.19,0.06 0.37,0.15 0.54,0.26l0 0c0.24,0.15 0.43,0.34 0.59,0.54l0 0c0.14,0.18 0.25,0.39 0.32,0.61l0.01 0.04c0.04,0.14 0.07,0.27 0.09,0.41 0.25,-0.31 0.53,-0.59 0.84,-0.84 0.31,-0.25 0.66,-0.47 1.02,-0.65 0.34,-0.17 0.72,-0.32 1.13,-0.44 0.38,-0.11 0.77,-0.19 1.17,-0.25 0.42,-0.06 0.82,-0.08 1.2,-0.08 0.19,0 0.41,0.01 0.64,0.03l0.01 0c0.16,0.01 0.37,0.04 0.63,0.08l0 -0.01c0.17,0.02 0.37,0.06 0.62,0.12l0 -0.01c0.11,0.03 0.31,0.08 0.57,0.15l0.04 0.01c0.19,0.06 0.37,0.12 0.52,0.18l0.01 0c0.13,0.05 0.29,0.12 0.49,0.21l0.05 0.02c0.05,0.03 0.1,0.05 0.15,0.08 0.04,-0.04 0.08,-0.07 0.12,-0.11l0.04 -0.04c0.2,-0.16 0.43,-0.28 0.67,-0.36 0.24,-0.08 0.46,-0.11 0.69,-0.11l9.96 0c0.22,0 0.44,0.04 0.67,0.11l0.04 0.01c0.2,0.07 0.39,0.17 0.57,0.3 0.03,0.02 0.06,0.04 0.09,0.06 0.2,-0.14 0.42,-0.25 0.65,-0.33 0.31,-0.11 0.62,-0.17 0.95,-0.17l3.66 0c0.37,0 0.72,0.01 1.03,0.03l0.02 0 0.34 0.03 0.03 0 0.31 0.03 0.1 0.01c0.36,0.05 0.71,0.12 1.03,0.21l0.01 0.01c0.34,0.09 0.66,0.2 0.97,0.34l0 -0c0.33,0.14 0.65,0.31 0.93,0.5 0.31,0.21 0.59,0.43 0.82,0.67l0 0.01c0.23,0.22 0.43,0.47 0.61,0.74l0 -0.29c0,-0.25 0.04,-0.5 0.14,-0.75l0 0c0.08,-0.23 0.2,-0.44 0.37,-0.64l0.03 -0.03c0.15,-0.18 0.34,-0.34 0.56,-0.47l0.01 0c0.16,-0.1 0.34,-0.17 0.51,-0.23l0 0c0.15,-0.05 0.29,-0.08 0.41,-0.11l0.01 0c0.14,-0.03 0.26,-0.05 0.37,-0.06 0.1,-0.01 0.26,-0.02 0.46,-0.03 0.22,-0.01 0.38,-0.01 0.46,-0.01 0.08,0 0.25,0.01 0.47,0.01 0.21,0.01 0.36,0.02 0.46,0.03l0.01 0.01c0.17,0.02 0.31,0.04 0.37,0.05 0.13,0.02 0.26,0.06 0.42,0.12l0 0c0.18,0.06 0.36,0.14 0.51,0.23l0.02 0.01c0.19,0.12 0.37,0.27 0.54,0.48l0.01 0.01c0.16,0.2 0.29,0.42 0.37,0.64l0 0c0.09,0.25 0.13,0.5 0.13,0.75l0 7.28 2.7 -7.78 0 0c0.05,-0.15 0.11,-0.28 0.16,-0.39l0.02 -0.03c0.06,-0.12 0.13,-0.24 0.22,-0.35l-0 0c0.18,-0.25 0.4,-0.45 0.65,-0.61l0 0c0.18,-0.11 0.38,-0.2 0.58,-0.27l0.02 -0.01c0.15,-0.05 0.33,-0.09 0.52,-0.12 0.13,-0.02 0.29,-0.03 0.47,-0.04l0.04 0 0.39 -0.01 0.04 0 0.5 -0 0.02 0 0.58 0 0.03 0 0.45 0.01 0.04 0c0.17,0.01 0.34,0.02 0.5,0.04 0.21,0.03 0.39,0.06 0.52,0.1l0.01 0c0.22,0.06 0.43,0.15 0.6,0.25l0.03 0.02c0.24,0.14 0.45,0.32 0.62,0.54l0.05 0.07c0.09,0.12 0.18,0.27 0.27,0.45l0.01 0.01c0.06,0.12 0.12,0.26 0.16,0.42l2.68 7.69 0 -7.28c0,-0.24 0.04,-0.47 0.12,-0.71l0 0c0.08,-0.24 0.21,-0.47 0.38,-0.68l0.03 -0.03c0.16,-0.18 0.34,-0.34 0.55,-0.46l0 0.01c0.16,-0.09 0.33,-0.18 0.51,-0.24l0 0c0.16,-0.05 0.3,-0.09 0.43,-0.12 0.13,-0.03 0.26,-0.05 0.38,-0.06 0.1,-0.01 0.26,-0.02 0.45,-0.03 0.22,-0.01 0.38,-0.01 0.46,-0.01 0.08,0 0.25,0.01 0.47,0.01 0.21,0.01 0.36,0.02 0.46,0.03l0.01 0.01c0.17,0.02 0.31,0.04 0.37,0.05 0.13,0.02 0.26,0.06 0.43,0.12l0 0c0.18,0.06 0.35,0.14 0.51,0.24l0 -0.01c0.2,0.12 0.38,0.28 0.55,0.46l0.03 0.03c0.18,0.21 0.3,0.44 0.38,0.68l0 0c0.08,0.24 0.12,0.47 0.12,0.71l0 9.51 2.56 0c0.22,0 0.44,0.03 0.65,0.1l0.01 0.01c0.24,0.07 0.47,0.19 0.67,0.34l0 0c0.18,0.13 0.34,0.3 0.48,0.5l0 0.01c0.11,0.16 0.2,0.32 0.27,0.49l0 0c0.06,0.15 0.1,0.29 0.14,0.44 0.02,0.11 0.05,0.24 0.07,0.38l0.01 0.01c0.01,0.09 0.02,0.22 0.03,0.38l0 0.05 0.01 0.3 0 0.07 -0.01 0.3 0 0.05c-0.01,0.16 -0.02,0.3 -0.03,0.38l-0.01 0.03c-0.01,0.11 -0.04,0.22 -0.07,0.35l0 0.01c-0.03,0.14 -0.07,0.26 -0.11,0.37l-0.01 0.03c-0.06,0.17 -0.14,0.33 -0.24,0.48l-0.02 0.02c-0.13,0.19 -0.28,0.36 -0.46,0.51l0 0c-0.21,0.17 -0.42,0.29 -0.64,0.37l-0.02 0c-0.25,0.09 -0.49,0.13 -0.72,0.13l-6.48 0c-0.32,0 -0.63,-0.05 -0.94,-0.16l0 0c-0.23,-0.08 -0.45,-0.19 -0.66,-0.34 -0.21,0.17 -0.46,0.3 -0.74,0.39l0 -0c-0.2,0.07 -0.42,0.11 -0.67,0.13l-0.01 0c-0.14,0.01 -0.3,0.02 -0.46,0.03l0 0 -0.54 0.01 -0.01 -0.01 -0.5 -0 -0.01 0c-0.22,-0 -0.37,-0.01 -0.45,-0.01l0 0c-0.15,-0.01 -0.29,-0.02 -0.42,-0.04l-0.02 0c-0.15,-0.02 -0.3,-0.06 -0.46,-0.1l-0.02 -0.01c-0.2,-0.06 -0.39,-0.14 -0.55,-0.25l0 0c-0.24,-0.14 -0.44,-0.32 -0.6,-0.54l0 0c-0.1,-0.13 -0.19,-0.28 -0.27,-0.45l-0.01 -0.01c-0.05,-0.1 -0.09,-0.22 -0.14,-0.35l-0 0 -0.5 -1.54 -2.61 0 -0.45 1.4 0 0c-0.03,0.12 -0.08,0.24 -0.14,0.38l-0.01 0.03c-0.07,0.15 -0.15,0.29 -0.24,0.42l0 0c-0.15,0.22 -0.33,0.4 -0.54,0.54l-0.02 0.01c-0.15,0.1 -0.31,0.19 -0.49,0.26l0 0c-0.16,0.07 -0.35,0.12 -0.57,0.16 -0.17,0.03 -0.32,0.05 -0.45,0.06 -0.06,0 -0.21,0.01 -0.43,0.01l-0.03 0 -0.42 0.01 -0.02 0.01c-0.09,0 -0.27,-0.01 -0.52,-0.01 -0.22,-0.01 -0.38,-0.02 -0.49,-0.03 -0.47,-0.06 -0.88,-0.21 -1.21,-0.45 -0.02,0.01 -0.04,0.02 -0.05,0.03l-0.02 0.01c-0.15,0.09 -0.32,0.17 -0.51,0.23l-0.04 0.02c-0.09,0.03 -0.22,0.06 -0.38,0.09l-0.01 0.01c-0.06,0.01 -0.19,0.03 -0.37,0.06l-0.01 0.01c-0.1,0.01 -0.26,0.02 -0.46,0.03 -0.22,0.01 -0.39,0.02 -0.47,0.02 -0.08,0 -0.24,-0.01 -0.46,-0.02 -0.2,-0.01 -0.35,-0.02 -0.46,-0.03l-0.01 0c-0.13,-0.02 -0.26,-0.04 -0.38,-0.06l0 -0c-0.16,-0.03 -0.29,-0.07 -0.4,-0.1l-0.04 -0.01c-0.19,-0.07 -0.36,-0.14 -0.51,-0.23l-0.02 -0.01c-0.07,-0.04 -0.14,-0.09 -0.2,-0.14 -0.05,0.04 -0.11,0.08 -0.16,0.12l0 0.01c-0.15,0.1 -0.34,0.19 -0.59,0.27l-0.04 0.02c-0.11,0.03 -0.26,0.07 -0.45,0.1l-0.02 0.01c-0.11,0.02 -0.25,0.03 -0.42,0.04l-0.01 0c-0.07,0 -0.23,0.01 -0.46,0.02l-0.03 0 -0.49 0.01 -0.03 0 -0.4 0.01 -0.03 0c-0.22,-0.01 -0.37,-0.01 -0.42,-0.01 -0.14,-0.01 -0.29,-0.03 -0.45,-0.06 -0.2,-0.04 -0.38,-0.09 -0.55,-0.16l0 -0c-0.17,-0.07 -0.32,-0.15 -0.48,-0.25l-0 0c-0.23,-0.15 -0.43,-0.35 -0.6,-0.59l-0.01 -0.01c-0.05,-0.07 -0.11,-0.19 -0.18,-0.34l0 0c-0.06,-0.13 -0.11,-0.23 -0.13,-0.29l0 0 -0.89 -2.22 0 1.61c0,0.25 -0.04,0.5 -0.14,0.75l0 0c-0.09,0.25 -0.22,0.47 -0.37,0.66l-0 -0c-0.27,0.33 -0.63,0.57 -1.07,0.72l-0.05 0.02c-0.11,0.04 -0.24,0.07 -0.38,0.1l0 0c-0.06,0.01 -0.18,0.03 -0.37,0.05 -0.15,0.02 -0.31,0.03 -0.46,0.04 -0.22,0.01 -0.38,0.01 -0.46,0.01 -0.08,0 -0.24,-0.01 -0.46,-0.01 -0.2,-0.01 -0.35,-0.02 -0.46,-0.03l-0.01 0c-0.1,-0.01 -0.22,-0.03 -0.36,-0.06l-0.02 0c-0.14,-0.03 -0.27,-0.06 -0.39,-0.1l-0.05 -0.02c-0.19,-0.07 -0.37,-0.15 -0.53,-0.25l0 0c-0.22,-0.14 -0.42,-0.32 -0.57,-0.52l-0 0c-0.15,-0.2 -0.26,-0.41 -0.34,-0.62l-0.01 -0.03c-0.08,-0.25 -0.12,-0.47 -0.12,-0.69l0 -9.54c-0.08,0.01 -0.15,0.01 -0.23,0.01l-1.66 0 0 9.53c0,0.25 -0.04,0.49 -0.13,0.73l-0 0c-0.08,0.24 -0.21,0.46 -0.37,0.66l-0.02 0.02c-0.17,0.2 -0.35,0.36 -0.54,0.47l-0.02 0.01c-0.15,0.09 -0.32,0.17 -0.51,0.23l-0.04 0.01c-0.11,0.03 -0.24,0.07 -0.4,0.1l0 0c-0.12,0.02 -0.25,0.04 -0.38,0.06l-0.01 0c-0.1,0.01 -0.26,0.02 -0.46,0.03 -0.22,0.01 -0.38,0.02 -0.46,0.02 -0.08,0 -0.24,-0.01 -0.46,-0.02 -0.2,-0.01 -0.35,-0.02 -0.45,-0.03l-0.01 0c-0.13,-0.02 -0.26,-0.04 -0.38,-0.06l0 -0.01c-0.16,-0.03 -0.29,-0.06 -0.4,-0.1l-0.04 -0.01c-0.18,-0.06 -0.35,-0.14 -0.51,-0.23l-0.02 -0.01c-0.19,-0.12 -0.37,-0.27 -0.54,-0.48l-0.02 -0.01c-0.17,-0.2 -0.29,-0.42 -0.37,-0.65 -0.09,-0.25 -0.14,-0.5 -0.14,-0.75l0 -9.53 -1.66 0c-0.2,0 -0.4,-0.03 -0.6,-0.08 -0.03,0.04 -0.07,0.08 -0.11,0.11l-0.01 0.02c-0.21,0.19 -0.45,0.34 -0.73,0.43 -0.22,0.08 -0.43,0.12 -0.64,0.13 0.06,0.04 0.12,0.07 0.17,0.1 0.27,0.17 0.52,0.34 0.72,0.51l-0 0c0.24,0.19 0.45,0.39 0.64,0.6l0.02 0.01c0.21,0.23 0.4,0.48 0.58,0.77 0.17,0.28 0.33,0.57 0.45,0.87 0.14,0.34 0.25,0.7 0.31,1.08l0 0.01c0.06,0.36 0.09,0.73 0.09,1.11 0,0.49 -0.05,0.96 -0.15,1.43l0 0.01c-0.1,0.48 -0.26,0.93 -0.46,1.35l-0.01 0.01c-0.2,0.41 -0.44,0.78 -0.7,1.11 -0.28,0.34 -0.59,0.66 -0.93,0.93l-0.02 0.01c-0.34,0.27 -0.7,0.5 -1.08,0.69l0 -0c-0.39,0.2 -0.79,0.36 -1.2,0.48 -0.4,0.12 -0.82,0.21 -1.27,0.27l-0.01 0c-0.45,0.06 -0.88,0.09 -1.3,0.09 -0.25,0 -0.54,-0.02 -0.87,-0.04l0 0c-0.33,-0.03 -0.61,-0.07 -0.85,-0.11l0 0c-0.24,-0.04 -0.48,-0.1 -0.71,-0.16 -0.24,-0.06 -0.46,-0.13 -0.68,-0.21l0 0c-0.17,-0.06 -0.36,-0.13 -0.56,-0.23l-0.01 0c-0.2,-0.09 -0.39,-0.18 -0.54,-0.27l-0.01 -0.01c-0.17,-0.1 -0.3,-0.19 -0.41,-0.26l-0.01 0c-0.14,-0.1 -0.27,-0.21 -0.41,-0.34l-0.05 -0.05c-0.18,-0.18 -0.33,-0.4 -0.44,-0.64l-0.01 -0.02c-0.07,-0.15 -0.13,-0.3 -0.18,-0.45 -0.22,0.3 -0.46,0.57 -0.72,0.82l-0.01 0.01c-0.34,0.33 -0.74,0.63 -1.18,0.88 -0.42,0.25 -0.87,0.46 -1.35,0.62 -0.48,0.16 -0.98,0.28 -1.51,0.36 -0.52,0.08 -1.05,0.11 -1.61,0.11 -0.5,0 -1.01,-0.04 -1.51,-0.1l-0.01 0c-0.5,-0.07 -0.97,-0.17 -1.42,-0.32l-0.01 0c-0.46,-0.15 -0.91,-0.34 -1.34,-0.58 -0.44,-0.25 -0.83,-0.53 -1.17,-0.84l0 -0.01c-0.36,-0.34 -0.68,-0.71 -0.94,-1.1 -0.26,-0.39 -0.48,-0.83 -0.66,-1.3l-0 0c-0.03,-0.09 -0.07,-0.19 -0.1,-0.29 -0.13,0.25 -0.26,0.49 -0.41,0.72 -0.33,0.51 -0.71,0.97 -1.15,1.37 -0.41,0.38 -0.89,0.72 -1.42,1.01l0 0c-0.51,0.28 -1.06,0.52 -1.63,0.69 -0.53,0.16 -1.13,0.28 -1.79,0.37l-0.01 0.01c-0.62,0.08 -1.28,0.12 -1.98,0.12l-3.38 0c-0.33,0 -0.65,-0.05 -0.96,-0.16l0 -0c-0.32,-0.11 -0.61,-0.28 -0.88,-0.51l0 0c-0.25,-0.21 -0.45,-0.47 -0.59,-0.76 -0.06,0.09 -0.11,0.19 -0.18,0.27l0 0.01c-0.11,0.15 -0.25,0.3 -0.41,0.44l0 0.01c-0.15,0.13 -0.31,0.25 -0.5,0.34l0 0c-0.18,0.1 -0.36,0.18 -0.56,0.23 -0.18,0.06 -0.34,0.09 -0.48,0.11 -0.17,0.02 -0.33,0.04 -0.47,0.04l-1.23 0c-0.18,0 -0.37,-0.01 -0.57,-0.03 -0.19,-0.02 -0.38,-0.06 -0.57,-0.1l-0.04 -0.01c-0.22,-0.06 -0.44,-0.15 -0.66,-0.27 -0.19,-0.11 -0.38,-0.24 -0.57,-0.4l0 0c-0.16,-0.14 -0.31,-0.29 -0.45,-0.46l-0 0c-0.11,-0.14 -0.24,-0.31 -0.36,-0.51l0 0c-0.1,-0.16 -0.2,-0.32 -0.29,-0.48l0 -0.01c-0.11,-0.21 -0.21,-0.38 -0.28,-0.52l-0 0 -1.09 -2.06 0 2.55c0,0.21 -0.03,0.42 -0.1,0.65l0 0c-0.06,0.2 -0.16,0.41 -0.3,0.61l-0.03 0.04c-0.16,0.21 -0.32,0.38 -0.5,0.5l-0.04 0.02c-0.13,0.09 -0.27,0.17 -0.43,0.24l-0.03 0.01c-0.13,0.06 -0.29,0.11 -0.47,0.15l0 0c-0.1,0.02 -0.24,0.04 -0.41,0.07 -0.13,0.02 -0.29,0.03 -0.44,0.04 -0.21,0.01 -0.36,0.01 -0.45,0.01 -0.08,0 -0.24,-0.01 -0.44,-0.01 -0.15,-0.01 -0.3,-0.02 -0.44,-0.04 -0.14,-0.02 -0.27,-0.04 -0.4,-0.07l0 0c-0.15,-0.03 -0.28,-0.08 -0.42,-0.13l0 0c-0.2,-0.07 -0.38,-0.18 -0.54,-0.3l-0 0c-0.25,-0.18 -0.44,-0.39 -0.58,-0.63l0.01 0.03zm23.19 -7.96c0,-0.27 -0.02,-0.51 -0.04,-0.74l0.01 0c-0.02,-0.19 -0.07,-0.41 -0.13,-0.64l0.01 0c-0.04,-0.15 -0.1,-0.3 -0.17,-0.44 -0.06,-0.13 -0.14,-0.25 -0.22,-0.34 -0.07,-0.09 -0.16,-0.18 -0.26,-0.25 -0.11,-0.08 -0.23,-0.16 -0.36,-0.21l-0 0.01c-0.14,-0.06 -0.31,-0.11 -0.51,-0.14l0 0c-0.14,-0.02 -0.29,-0.04 -0.46,-0.04l0 5.82c0.15,-0.01 0.29,-0.02 0.42,-0.04 0.21,-0.03 0.38,-0.07 0.52,-0.13l0.01 0c0.11,-0.04 0.23,-0.1 0.34,-0.17 0.1,-0.07 0.19,-0.15 0.26,-0.22l0 0c0.08,-0.09 0.15,-0.2 0.22,-0.33l0 0c0.07,-0.14 0.14,-0.31 0.19,-0.49l0 -0.01c0.06,-0.22 0.11,-0.45 0.14,-0.69l-0.01 0c0.03,-0.28 0.05,-0.58 0.05,-0.92l-0 -0.01zm20.63 1.91c0,0.09 0,0.19 -0,0.28 0.04,-0.02 0.08,-0.03 0.13,-0.05l0 0.01c0.22,-0.07 0.43,-0.1 0.65,-0.1 0.29,0 0.6,0.06 0.91,0.19l0.01 0.01c0.16,0.07 0.34,0.17 0.52,0.28l0 0c0.05,0.03 0.13,0.08 0.23,0.13l0.01 0c0.09,0.04 0.19,0.1 0.31,0.16l0 0.01c0.06,0.03 0.16,0.07 0.31,0.13 0.16,0.07 0.31,0.11 0.42,0.15l0.02 0.01c0.1,0.03 0.22,0.06 0.34,0.07l0.01 0c0.1,0.01 0.22,0.02 0.38,0.02 -0.07,-0.03 -0.17,-0.08 -0.29,-0.13l-0.01 -0.01 -0.08 -0.04 0 -0 -1.05 -0.46 0 -0c-0.25,-0.11 -0.48,-0.23 -0.67,-0.33 -0.24,-0.13 -0.46,-0.26 -0.66,-0.38l0 -0c-0.26,-0.16 -0.49,-0.33 -0.7,-0.5 -0.22,-0.18 -0.43,-0.39 -0.64,-0.61l0 0c-0.06,-0.06 -0.11,-0.12 -0.16,-0.18l2.53 1.35 -2.52 0zm5.14 -4.99l-0 0 0 0 0 0 0 0 0 -0zm-0 0zm28.25 3.2c-0.06,0.09 -0.12,0.17 -0.18,0.26l0.01 0c-0.14,0.19 -0.31,0.38 -0.5,0.57 0.06,0.1 0.13,0.22 0.21,0.36l0.01 0c0.06,0.1 0.14,0.27 0.26,0.52 0.07,0.16 0.14,0.31 0.21,0.46l0 -2.18 -0 0zm-5.82 -2.92c0,-0.02 0,-0.04 0,-0.05l-0.03 -0 -0.13 -0.02 0 0.19c0.02,-0.01 0.04,-0.01 0.07,-0.02l0.02 -0.01c0.03,-0.01 0.05,-0.01 0.06,-0.02l0 -0.07zm50.82 11.02c-0.1,0.13 -0.22,0.25 -0.36,0.36l0 0c-0.21,0.16 -0.41,0.28 -0.62,0.35l-0.02 0c-0.25,0.09 -0.48,0.13 -0.72,0.13l-6.48 0c-0.32,0 -0.63,-0.05 -0.94,-0.16l0 0c-0.32,-0.11 -0.62,-0.28 -0.88,-0.51l0 0c-0.33,-0.29 -0.58,-0.64 -0.73,-1.06l-0 0c-0.11,-0.32 -0.17,-0.67 -0.17,-1.05l0 -12.85c0,-0.24 0.04,-0.47 0.12,-0.71l0 0c0.08,-0.24 0.21,-0.47 0.38,-0.68l0.03 -0.04c0.16,-0.18 0.34,-0.34 0.54,-0.46l0 0.01c0.16,-0.09 0.33,-0.18 0.51,-0.24l0 0c0.15,-0.05 0.3,-0.09 0.43,-0.12 0.13,-0.03 0.26,-0.04 0.39,-0.06 0.1,-0.01 0.26,-0.02 0.45,-0.03 0.22,-0.01 0.38,-0.02 0.46,-0.02 0.08,0 0.25,0.01 0.47,0.02 0.21,0.01 0.36,0.02 0.46,0.03l0.01 0.01c0.16,0.02 0.29,0.04 0.36,0.05l0.01 0c0.13,0.02 0.26,0.06 0.43,0.12l0 0c0.18,0.06 0.35,0.14 0.51,0.24l0 -0.01c0.2,0.12 0.38,0.28 0.55,0.46l0.03 0.03c0.18,0.21 0.3,0.44 0.38,0.68l0 0c0.02,0.05 0.03,0.1 0.05,0.15 0.02,-0.08 0.04,-0.15 0.07,-0.22l0.02 -0.07c0.06,-0.15 0.14,-0.29 0.23,-0.43l0.01 -0.02c0.11,-0.17 0.25,-0.33 0.42,-0.47l0.07 -0.05c0.19,-0.15 0.41,-0.26 0.64,-0.34l0.04 -0.02c0.22,-0.07 0.44,-0.1 0.65,-0.1l9.97 0c0.21,0 0.44,0.04 0.68,0.12l0.03 0.01c0.2,0.07 0.38,0.16 0.56,0.29l0.02 0.01c0.03,0.02 0.05,0.04 0.08,0.07 0.2,-0.14 0.42,-0.25 0.65,-0.33 0.31,-0.11 0.63,-0.16 0.95,-0.16l3.63 0c0.7,0 1.37,0.04 2,0.13l0 0c0.65,0.09 1.25,0.23 1.8,0.41 0.57,0.19 1.1,0.43 1.57,0.71l-0 0c0.5,0.3 0.96,0.64 1.35,1.02l0.01 0.01c0.4,0.39 0.76,0.83 1.07,1.31 0.31,0.48 0.56,1 0.76,1.53 0.16,0.43 0.29,0.9 0.39,1.4l1.66 -4.77 0 0c0.05,-0.16 0.11,-0.3 0.17,-0.42l0 0c0.06,-0.12 0.14,-0.24 0.23,-0.36l-0 0c0.18,-0.25 0.4,-0.45 0.65,-0.61l0 0c0.18,-0.11 0.38,-0.2 0.58,-0.27l0.01 -0.01c0.16,-0.05 0.33,-0.09 0.52,-0.12 0.13,-0.02 0.29,-0.03 0.47,-0.04l0.04 0 0.39 -0.01 0.05 0 0.5 -0 0.01 0 0.58 0 0.04 0 0.44 0.01 0.04 0c0.17,0.01 0.34,0.02 0.5,0.04 0.21,0.03 0.39,0.06 0.53,0.1l0.01 0c0.22,0.06 0.42,0.15 0.6,0.25l0.03 0.02c0.24,0.14 0.45,0.32 0.62,0.54l0.05 0.07c0.09,0.12 0.18,0.27 0.26,0.45l0.01 0.01c0.06,0.12 0.12,0.26 0.16,0.42l3.5 10.03c0.03,-0.03 0.06,-0.06 0.09,-0.09 0.35,-0.35 0.8,-0.6 1.33,-0.74l0 0.01c0.39,-0.11 0.82,-0.16 1.27,-0.16 0.45,0 0.87,0.05 1.26,0.16l0.01 0c0.52,0.14 0.95,0.38 1.3,0.72l0.02 0.01c0.35,0.35 0.6,0.8 0.75,1.36 0.1,0.39 0.15,0.82 0.15,1.29 0,0.48 -0.05,0.91 -0.16,1.31 -0.15,0.56 -0.4,1.03 -0.76,1.38l0 0c-0.34,0.34 -0.79,0.59 -1.33,0.74l0 0c-0.39,0.11 -0.82,0.16 -1.28,0.16 -0.45,0 -0.87,-0.05 -1.26,-0.16l0 0.01c-0.41,-0.11 -0.76,-0.28 -1.06,-0.51 -0.22,0.19 -0.48,0.33 -0.77,0.43l0 -0c-0.2,0.07 -0.42,0.11 -0.66,0.13l-0.01 0c-0.14,0.01 -0.3,0.02 -0.46,0.03l0 0 -0.54 0.01 -0.01 -0.01 -0.5 -0 -0.01 0c-0.22,-0 -0.38,-0.01 -0.46,-0.01l0 0c-0.15,-0.01 -0.29,-0.02 -0.41,-0.04l-0.02 0c-0.15,-0.02 -0.3,-0.06 -0.46,-0.1l-0.02 -0.01c-0.2,-0.06 -0.39,-0.14 -0.56,-0.25l0 0c-0.26,-0.15 -0.48,-0.35 -0.65,-0.59l0 0c-0.09,-0.12 -0.16,-0.25 -0.23,-0.39l-0.01 -0.01c-0.05,-0.1 -0.09,-0.22 -0.13,-0.35l-0 0 -0.5 -1.54 -2.61 0 -0.45 1.4 0 0c-0.03,0.11 -0.08,0.24 -0.14,0.38l0 0c-0.07,0.17 -0.16,0.32 -0.25,0.45l0 0c-0.15,0.22 -0.33,0.4 -0.54,0.54l-0.02 0.02c-0.15,0.1 -0.31,0.19 -0.49,0.26l0 0c-0.16,0.06 -0.35,0.12 -0.57,0.15 -0.17,0.03 -0.32,0.05 -0.45,0.06 -0.06,0 -0.21,0.01 -0.43,0.02l-0.03 0 -0.42 0.01 -0.02 0.01c-0.09,0 -0.27,-0.01 -0.52,-0.02 -0.22,-0.01 -0.38,-0.02 -0.49,-0.03 -0.67,-0.08 -1.2,-0.34 -1.58,-0.79l-0.01 -0.02c-0.23,-0.27 -0.4,-0.59 -0.48,-0.96 -0.27,0.2 -0.56,0.39 -0.87,0.56l0 0c-0.51,0.28 -1.06,0.52 -1.63,0.69 -0.53,0.16 -1.13,0.28 -1.79,0.37l-0.01 0.01c-0.62,0.08 -1.28,0.12 -1.97,0.12l-3.38 0c-0.33,0 -0.65,-0.06 -0.96,-0.16l0 -0c-0.32,-0.11 -0.61,-0.28 -0.88,-0.51l0 0c-0.33,-0.29 -0.58,-0.64 -0.73,-1.06l-0 0c-0.11,-0.32 -0.17,-0.67 -0.17,-1.05l0 -9.03c-0.08,0.01 -0.15,0.01 -0.22,0.01l-1.66 0 0 9.53c0,0.25 -0.04,0.49 -0.13,0.73l0 0c-0.08,0.24 -0.21,0.46 -0.37,0.66l-0.03 0.04c-0.16,0.18 -0.34,0.34 -0.55,0.46l-0 -0.01c-0.16,0.1 -0.33,0.18 -0.51,0.24l-0.04 0.02c-0.11,0.03 -0.24,0.07 -0.4,0.1l0 0c-0.12,0.02 -0.25,0.04 -0.38,0.06l-0.01 0c-0.1,0.01 -0.26,0.02 -0.45,0.03 -0.22,0.01 -0.38,0.01 -0.46,0.01 -0.08,0 -0.24,-0.01 -0.46,-0.01 -0.2,-0.01 -0.35,-0.02 -0.45,-0.03l-0.01 0c-0.13,-0.02 -0.26,-0.04 -0.38,-0.06l0 -0c-0.16,-0.03 -0.29,-0.06 -0.39,-0.1l-0.04 -0.02c-0.18,-0.06 -0.35,-0.14 -0.51,-0.24l-0 0.01c-0.2,-0.12 -0.38,-0.27 -0.54,-0.45l0 0.01zm-4.27 -12.45l0 7.15 2.56 0c0.22,0 0.44,0.03 0.65,0.1l0.01 0.01c0.18,0.05 0.36,0.13 0.51,0.24l0 -6 -1.66 0c-0.25,0 -0.49,-0.04 -0.73,-0.13l-0.01 -0.01c-0.25,-0.09 -0.47,-0.22 -0.67,-0.39l-0.01 -0.01c-0.15,-0.14 -0.3,-0.3 -0.42,-0.49l0 0c-0.09,-0.14 -0.17,-0.28 -0.22,-0.43l-0.01 -0.02 -0 -0.01zm21.04 4.22c0,-0.26 -0.02,-0.51 -0.04,-0.74l0.01 0c-0.02,-0.19 -0.07,-0.41 -0.13,-0.64l0.01 0c-0.04,-0.15 -0.1,-0.3 -0.17,-0.44 -0.07,-0.13 -0.14,-0.25 -0.22,-0.34 -0.07,-0.09 -0.16,-0.18 -0.26,-0.25 -0.1,-0.08 -0.23,-0.15 -0.36,-0.21l0 0c-0.14,-0.06 -0.31,-0.11 -0.51,-0.14l0 0c-0.13,-0.02 -0.29,-0.04 -0.46,-0.04l0 5.82c0.15,-0.01 0.29,-0.02 0.42,-0.04 0.21,-0.03 0.38,-0.07 0.52,-0.13l0.01 0c0.11,-0.04 0.23,-0.1 0.34,-0.18 0.1,-0.07 0.19,-0.15 0.26,-0.22l0 0c0.08,-0.09 0.15,-0.2 0.22,-0.33l0 0c0.07,-0.14 0.14,-0.31 0.19,-0.49l0 -0.01c0.06,-0.19 0.1,-0.42 0.14,-0.69 0.03,-0.28 0.05,-0.58 0.05,-0.92l0 -0.01z" gorn="0.2.1.0.0.0.0.0.0"/>
                            </g>
                        </g>
                    </g>
                </g>
            </g>
            <g  id="g831" partID="884981920" gorn="0.2.1.1">
                <g  id="g829" gorn="0.2.1.1.0">
                    <g  id="copper1" gorn="0.2.1.1.0.0">
                        <g  id="g826" gorn="0.2.1.1.0.0.0">
                            <path  id="connector0pad" fill="#FFCC00" d="M315.53 1.9l5.49 0.07c3.99,0.05 8.55,0.86 11.37,3.96 2.26,2.49 2.81,5.8 2.58,9.06 -0.05,0.76 -0.66,1.34 -1.42,1.34l-12.05 0c-0.78,0 -1.4,-0.63 -1.42,-1.41l-0 -0.02c0,-2.82 -1.12,-3.69 -3.95,-3.78 -5.3,-0.16 -7.74,2.49 -9.56,7.18 -0.68,1.76 -1.34,4.51 -0.27,6.25 0.76,1.24 2.22,1.59 3.57,1.64 3.88,0.15 5.86,-0.99 7.89,-4.24 0.26,-0.41 0.73,-0.68 1.21,-0.68l11.83 0c1.06,0 1.75,1.14 1.26,2.1 -3.82,7.43 -11.12,12.06 -19.48,12.17l-7.26 0 -0.01 0c-6.55,-0.19 -13.27,-2.25 -13.71,-9.94 -0.27,-4.72 0.98,-8.97 3.31,-13.03 4.43,-7.75 12.14,-10.32 20.59,-10.67l0.02 0 0 0.01zm-125.31 21.77c-1.87,1.73 -4.25,3.05 -6.64,3.54l3.47 5.48c0.61,0.96 -0.08,2.24 -1.22,2.24l-10.82 0c-0.48,0 -0.94,-0.23 -1.21,-0.64l-6.95 -10.34 -3.21 9.97c-0.19,0.58 -0.76,1 -1.36,1l-10.79 0c-0.99,0 -1.69,-0.96 -1.38,-1.9l6.83 -21.17 -7.85 0 -7.51 22.06c-0.2,0.59 -0.75,0.98 -1.37,0.98l-10.1 0c-0.97,0 -1.67,-0.99 -1.36,-1.92l7.2 -21.13 -5.51 0 -21.67 22.59c-0.27,0.28 -0.66,0.46 -1.05,0.46l-22.27 0c-0.73,0 -1.34,-0.54 -1.44,-1.26l-2.43 -17.98 -12.56 18.6c-0.27,0.4 -0.71,0.64 -1.2,0.64l-28.87 0c-0.98,0 -1.68,-0.97 -1.38,-1.91l2.33 -7.23c-3.13,2.33 -7.01,3.7 -10.89,3.87l-0.02 0 -12.1 -0.08 -1.4 4.34c-0.18,0.6 -0.76,1 -1.37,1 -3.59,0 -7.19,0 -10.78,0l-0.03 0 -0.03 -0c-0.98,-0.06 -1.65,-1.02 -1.31,-1.93l9.4 -29.14c0.19,-0.6 0.75,-1.01 1.38,-1.01 7,0 14,0.01 21,0 3.13,-0.01 6.22,0.78 8.62,2.88 1.22,1.06 2.14,2.38 2.77,3.83l1.84 -5.7c0.19,-0.6 0.75,-1.01 1.38,-1.01l10.09 0c0.98,0 1.68,0.97 1.38,1.91l-6.52 20.19 8.71 0 14.5 -21.46c0.27,-0.4 0.75,-0.66 1.2,-0.64l14.2 0c0.74,0 1.34,0.54 1.44,1.27l3.69 27.35 7.51 -7.83 -2.54 -19.14c-0.12,-0.87 0.55,-1.65 1.43,-1.65l11.2 0c0.79,0 1.42,0.63 1.44,1.42l0.2 7.13 7.77 -8.11c0.27,-0.28 0.66,-0.45 1.05,-0.45l55.76 0.02c4.58,0 9.49,1.27 11.96,5.5 0.73,1.24 1.15,2.6 1.33,4 4.45,-7.57 12.09,-10.09 20.46,-10.45l0.02 0 5.49 0.07c6.3,0.08 12.95,2.32 14.11,9.26l2.38 -7.37c0.2,-0.61 0.75,-1.01 1.38,-1.01 4.01,0 8.02,0 12.04,0 0.62,0 1.16,0.38 1.39,0.96l5.52 13.61 4.37 -13.55c0.2,-0.61 0.75,-1.01 1.38,-1.01l10.09 0c0.99,0 1.68,0.97 1.38,1.91l-9.41 29.16c-0.2,0.61 -0.75,1.02 -1.38,1.02 -3.84,0 -7.67,0 -11.51,0 -0.62,0 -1.16,-0.38 -1.39,-0.96l-5.81 -14.34 -4.61 14.27c-0.2,0.61 -0.75,1.02 -1.38,1.02l-10.09 0c-0.99,0 -1.68,-0.97 -1.38,-1.91l1.76 -5.45c-4.21,4.81 -11.22,7.89 -17.26,7.97l-7.26 0 -0.01 0c-6.49,-0.19 -13.78,-2.2 -14.22,-9.94 -0.04,-0.65 -0.03,-1.3 0,-1.93l0 -0zm81.05 11.26c-0.79,0 -1.25,-0.81 -1.02,-1.54l9.06 -29.52c0.19,-0.61 0.74,-1.03 1.39,-1.03l10.09 0c0.99,0 1.68,0.97 1.38,1.91l-9.41 29.16c-0.19,0.61 -0.75,1.02 -1.38,1.02l-10.09 -0 0 -0zm-103.45 -14.03l8.47 -0c0.96,-0.08 1.91,-0.32 2.62,-1.01 0.62,-0.62 0.98,-1.51 1.23,-2.33 0.39,-1.27 0.64,-2.64 0.91,-3.94 0.11,-0.51 0.15,-1.15 -0.24,-1.56 -0.57,-0.61 -1.89,-0.69 -2.67,-0.69l-7.23 0 -3.08 9.55 -0.01 0zm41.17 5.3c4.76,0.18 8.11,-1.69 9.85,-6.17 0.74,-1.92 1.74,-5.19 0.58,-7.12 -0.85,-1.4 -2.67,-1.73 -4.18,-1.78 -5.3,-0.16 -7.74,2.49 -9.56,7.18 -0.68,1.76 -1.33,4.51 -0.27,6.25 0.76,1.24 2.22,1.59 3.57,1.64l0 0zm-186.24 -14.87l-2.91 9.04 6.8 -0c2.37,0 4.1,-1.45 4.91,-3.64 0.32,-0.86 0.7,-2.15 0.81,-3.06 0.25,-2.03 -0.54,-2.33 -2.39,-2.33l-7.23 0zm312.19 23.25l1.3 0 0 -2.23 0.69 0c0.04,0.56 0.8,1.58 0.95,2.23l1.55 0 -1.21 -2.49c0.85,-0.07 1.49,-1.05 1.03,-2.13 -0.49,-1.15 -3.03,-0.87 -4.31,-0.87l0 5.49zm2.07 -3.09l-0.78 0 0 -1.54c0.91,0 1.73,-0.04 1.73,0.94 0,0.36 -0.54,0.6 -0.95,0.6zm-5.01 0.26c0,1.64 0.48,2.66 1.49,3.67 2.46,2.45 6.67,1.47 7.96,-1.5 0.61,-1.41 0.6,-2.51 0.05,-3.96 -0.6,-1.57 -2.55,-3.01 -4.49,-3.01 -2.71,0 -5.01,2.14 -5.01,4.8zm5.01 4.03c-2.24,0 -3.97,-1.68 -3.97,-3.69 0,-1.35 0.25,-2.09 1.19,-3.03 2.55,-2.53 6.67,-0.33 6.67,2.77 0,2.09 -1.76,3.95 -3.89,3.95l-0 0zm-159.13 19.49c0,0.07 -0.02,0.14 -0.07,0.2 -0.05,0.06 -0.13,0.1 -0.24,0.14 -0.11,0.03 -0.26,0.06 -0.44,0.09 -0.18,0.02 -0.42,0.03 -0.7,0.03 -0.28,0 -0.51,-0.01 -0.69,-0.03 -0.19,-0.02 -0.34,-0.05 -0.44,-0.09 -0.11,-0.04 -0.19,-0.09 -0.24,-0.14 -0.05,-0.06 -0.07,-0.13 -0.07,-0.2l0 -13.37c0,-0.07 0.02,-0.14 0.07,-0.2 0.05,-0.06 0.13,-0.1 0.24,-0.14 0.11,-0.04 0.26,-0.06 0.44,-0.09 0.18,-0.02 0.41,-0.03 0.69,-0.03 0.28,0 0.52,0.01 0.7,0.03 0.18,0.02 0.33,0.05 0.43,0.09 0.11,0.04 0.19,0.09 0.24,0.14 0.05,0.06 0.07,0.13 0.07,0.2l0 13.37 -0 0zm14.75 -0.62c0,0.17 -0.03,0.32 -0.08,0.45 -0.06,0.13 -0.14,0.24 -0.24,0.33 -0.1,0.09 -0.21,0.15 -0.35,0.19 -0.14,0.04 -0.27,0.06 -0.41,0.06l-1.23 0c-0.26,0 -0.48,-0.03 -0.67,-0.07 -0.18,-0.05 -0.35,-0.15 -0.51,-0.28 -0.16,-0.14 -0.31,-0.32 -0.45,-0.55 -0.15,-0.23 -0.31,-0.53 -0.49,-0.89l-3.51 -6.62c-0.21,-0.4 -0.41,-0.82 -0.62,-1.28 -0.21,-0.45 -0.4,-0.9 -0.57,-1.33l-0.02 0c0.03,0.53 0.05,1.05 0.07,1.57 0.02,0.52 0.02,1.06 0.02,1.61l0 7.41c0,0.07 -0.02,0.14 -0.06,0.2 -0.04,0.06 -0.11,0.1 -0.21,0.15 -0.1,0.04 -0.23,0.07 -0.4,0.09 -0.17,0.02 -0.38,0.03 -0.65,0.03 -0.26,0 -0.47,-0.01 -0.64,-0.03 -0.17,-0.02 -0.3,-0.05 -0.39,-0.09 -0.1,-0.04 -0.16,-0.09 -0.2,-0.15 -0.04,-0.06 -0.06,-0.13 -0.06,-0.2l0 -12.72c0,-0.34 0.1,-0.6 0.3,-0.77 0.2,-0.17 0.45,-0.26 0.74,-0.26l1.54 0c0.28,0 0.51,0.02 0.7,0.07 0.19,0.05 0.36,0.13 0.51,0.24 0.15,0.11 0.29,0.26 0.42,0.46 0.13,0.19 0.26,0.43 0.4,0.72l2.75 5.18c0.16,0.31 0.32,0.62 0.48,0.93 0.16,0.3 0.31,0.6 0.45,0.91 0.15,0.3 0.29,0.6 0.43,0.89 0.14,0.29 0.28,0.58 0.41,0.88l0.01 0c-0.02,-0.51 -0.04,-1.05 -0.05,-1.6 -0.01,-0.56 -0.01,-1.09 -0.01,-1.59l0 -6.64c0,-0.07 0.02,-0.14 0.07,-0.2 0.04,-0.06 0.12,-0.11 0.22,-0.15 0.1,-0.05 0.24,-0.07 0.41,-0.09 0.17,-0.02 0.38,-0.03 0.64,-0.03 0.25,0 0.46,0.01 0.63,0.03 0.17,0.02 0.29,0.05 0.39,0.09 0.09,0.04 0.16,0.1 0.19,0.15 0.04,0.06 0.06,0.12 0.06,0.2l0 12.72 -0.01 0zm14.84 -6.28c0,1.3 -0.17,2.41 -0.51,3.33 -0.34,0.92 -0.83,1.67 -1.46,2.26 -0.64,0.58 -1.41,1.01 -2.31,1.29 -0.91,0.27 -1.99,0.41 -3.25,0.41l-3.38 0c-0.24,0 -0.44,-0.07 -0.61,-0.21 -0.16,-0.14 -0.24,-0.37 -0.24,-0.69l0 -12.34c0,-0.32 0.08,-0.55 0.24,-0.69 0.16,-0.14 0.36,-0.21 0.61,-0.21l3.63 0c1.26,0 2.33,0.15 3.21,0.45 0.88,0.29 1.62,0.73 2.22,1.31 0.6,0.58 1.06,1.3 1.38,2.15 0.31,0.86 0.47,1.84 0.47,2.96l-0 -0zm-2.98 0.1c0,-0.67 -0.08,-1.29 -0.24,-1.87 -0.16,-0.58 -0.41,-1.07 -0.75,-1.49 -0.34,-0.42 -0.79,-0.76 -1.33,-0.99 -0.55,-0.24 -1.25,-0.36 -2.14,-0.36l-1.45 0 0 9.61 1.5 0c0.79,0 1.45,-0.1 1.99,-0.31 0.54,-0.2 0.99,-0.51 1.35,-0.92 0.36,-0.41 0.63,-0.92 0.81,-1.53 0.18,-0.61 0.27,-1.32 0.27,-2.14l-0 -0.01zm16.87 1.91c0,0.87 -0.13,1.64 -0.38,2.32 -0.25,0.69 -0.63,1.27 -1.12,1.74 -0.5,0.47 -1.11,0.84 -1.84,1.08 -0.73,0.25 -1.57,0.37 -2.51,0.37 -0.89,0 -1.69,-0.11 -2.39,-0.33 -0.71,-0.22 -1.31,-0.56 -1.8,-1.01 -0.49,-0.45 -0.86,-1.01 -1.12,-1.69 -0.26,-0.67 -0.39,-1.46 -0.39,-2.37l0 -8.61c0,-0.07 0.02,-0.14 0.07,-0.2 0.04,-0.06 0.12,-0.1 0.23,-0.14 0.11,-0.04 0.26,-0.06 0.45,-0.09 0.18,-0.02 0.41,-0.03 0.7,-0.03 0.27,0 0.5,0.01 0.69,0.03 0.18,0.02 0.33,0.05 0.43,0.09 0.11,0.04 0.19,0.08 0.24,0.14 0.05,0.06 0.07,0.12 0.07,0.2l0 8.36c0,0.57 0.07,1.05 0.21,1.46 0.14,0.41 0.34,0.76 0.6,1.02 0.26,0.27 0.57,0.47 0.93,0.61 0.36,0.14 0.76,0.2 1.21,0.2 0.45,0 0.86,-0.07 1.21,-0.21 0.36,-0.14 0.66,-0.34 0.91,-0.6 0.25,-0.27 0.44,-0.6 0.57,-0.98 0.14,-0.39 0.2,-0.84 0.2,-1.33l0 -8.53c0,-0.07 0.02,-0.14 0.07,-0.2 0.04,-0.06 0.12,-0.1 0.23,-0.14 0.11,-0.04 0.26,-0.06 0.45,-0.09 0.19,-0.02 0.42,-0.03 0.69,-0.03 0.28,0 0.5,0.01 0.68,0.03 0.18,0.02 0.33,0.05 0.43,0.09 0.11,0.04 0.19,0.09 0.23,0.14 0.04,0.06 0.07,0.13 0.07,0.2l0 8.49 -0.01 0zm11.48 1.03c0,0.75 -0.14,1.39 -0.41,1.96 -0.28,0.56 -0.65,1.03 -1.13,1.4 -0.48,0.37 -1.03,0.66 -1.67,0.85 -0.64,0.19 -1.31,0.28 -2.04,0.28 -0.49,0 -0.94,-0.04 -1.36,-0.12 -0.42,-0.08 -0.79,-0.18 -1.11,-0.29 -0.32,-0.11 -0.59,-0.23 -0.81,-0.36 -0.22,-0.13 -0.37,-0.24 -0.47,-0.33 -0.09,-0.1 -0.16,-0.24 -0.2,-0.41 -0.04,-0.18 -0.06,-0.43 -0.06,-0.77 0,-0.23 0.01,-0.41 0.02,-0.57 0.02,-0.15 0.04,-0.28 0.07,-0.37 0.03,-0.09 0.08,-0.16 0.13,-0.2 0.05,-0.04 0.12,-0.06 0.19,-0.06 0.1,0 0.24,0.06 0.43,0.18 0.19,0.12 0.43,0.25 0.72,0.4 0.29,0.15 0.64,0.28 1.05,0.4 0.4,0.12 0.87,0.18 1.41,0.18 0.35,0 0.67,-0.04 0.94,-0.12 0.28,-0.08 0.52,-0.2 0.71,-0.36 0.19,-0.15 0.34,-0.34 0.45,-0.56 0.1,-0.22 0.15,-0.48 0.15,-0.75 0,-0.32 -0.09,-0.6 -0.26,-0.82 -0.18,-0.23 -0.4,-0.43 -0.69,-0.61 -0.28,-0.18 -0.6,-0.34 -0.96,-0.5 -0.35,-0.16 -0.72,-0.32 -1.1,-0.5 -0.38,-0.18 -0.75,-0.37 -1.11,-0.6 -0.36,-0.22 -0.68,-0.48 -0.96,-0.79 -0.28,-0.31 -0.51,-0.67 -0.69,-1.1 -0.18,-0.42 -0.26,-0.93 -0.26,-1.52 0,-0.67 0.13,-1.27 0.38,-1.79 0.25,-0.51 0.59,-0.94 1.01,-1.28 0.43,-0.34 0.93,-0.59 1.51,-0.76 0.58,-0.17 1.2,-0.25 1.84,-0.25 0.33,0 0.67,0.03 1,0.08 0.34,0.05 0.65,0.12 0.94,0.2 0.29,0.09 0.55,0.19 0.78,0.29 0.22,0.11 0.37,0.2 0.45,0.28 0.07,0.07 0.12,0.13 0.15,0.18 0.03,0.05 0.05,0.12 0.07,0.21 0.02,0.08 0.03,0.19 0.04,0.32 0.01,0.13 0.01,0.28 0.01,0.47 0,0.21 -0,0.39 -0.01,0.54 -0.01,0.15 -0.03,0.26 -0.06,0.36 -0.03,0.09 -0.06,0.16 -0.11,0.2 -0.05,0.04 -0.11,0.07 -0.19,0.07 -0.08,0 -0.2,-0.05 -0.38,-0.15 -0.18,-0.1 -0.39,-0.21 -0.65,-0.34 -0.26,-0.12 -0.55,-0.23 -0.89,-0.32 -0.34,-0.1 -0.7,-0.15 -1.1,-0.15 -0.31,0 -0.58,0.04 -0.82,0.12 -0.23,0.07 -0.43,0.18 -0.58,0.32 -0.15,0.13 -0.28,0.29 -0.35,0.48 -0.08,0.19 -0.12,0.39 -0.12,0.6 0,0.31 0.09,0.59 0.26,0.81 0.17,0.23 0.4,0.43 0.69,0.62 0.29,0.18 0.62,0.34 0.98,0.5 0.36,0.15 0.74,0.33 1.12,0.5 0.38,0.17 0.76,0.37 1.12,0.6 0.36,0.22 0.69,0.49 0.98,0.8 0.28,0.31 0.51,0.67 0.69,1.09 0.17,0.42 0.26,0.91 0.26,1.48l0 -0zm11.37 -8.72c0,0.21 -0.01,0.39 -0.03,0.55 -0.02,0.15 -0.04,0.27 -0.08,0.36 -0.04,0.09 -0.08,0.16 -0.14,0.2 -0.05,0.05 -0.12,0.07 -0.18,0.07l-3.54 0 0 11.41c0,0.07 -0.02,0.14 -0.07,0.2 -0.05,0.06 -0.13,0.1 -0.24,0.14 -0.11,0.03 -0.26,0.06 -0.45,0.09 -0.19,0.02 -0.42,0.03 -0.69,0.03 -0.27,0 -0.51,-0.01 -0.69,-0.03 -0.19,-0.02 -0.34,-0.05 -0.45,-0.09 -0.11,-0.04 -0.19,-0.09 -0.24,-0.14 -0.05,-0.06 -0.07,-0.13 -0.07,-0.2l0 -11.41 -3.54 0c-0.07,0 -0.13,-0.02 -0.19,-0.07 -0.05,-0.04 -0.09,-0.11 -0.13,-0.2 -0.03,-0.09 -0.06,-0.21 -0.08,-0.36 -0.02,-0.15 -0.03,-0.33 -0.03,-0.55 0,-0.22 0.01,-0.4 0.03,-0.55 0.02,-0.15 0.05,-0.27 0.08,-0.36 0.04,-0.09 0.08,-0.16 0.13,-0.2 0.05,-0.04 0.12,-0.06 0.19,-0.06l9.96 0c0.06,0 0.12,0.02 0.18,0.06 0.05,0.04 0.1,0.1 0.14,0.2 0.04,0.09 0.07,0.21 0.09,0.36 0.02,0.15 0.03,0.34 0.03,0.55l0 0zm12.19 12.6c0,0.08 -0.01,0.15 -0.04,0.2 -0.03,0.06 -0.1,0.1 -0.21,0.14 -0.11,0.03 -0.27,0.06 -0.48,0.07 -0.21,0.01 -0.5,0.02 -0.86,0.02 -0.31,0 -0.55,-0.01 -0.73,-0.02 -0.18,-0.02 -0.33,-0.04 -0.43,-0.09 -0.1,-0.04 -0.18,-0.09 -0.22,-0.15 -0.04,-0.06 -0.08,-0.14 -0.11,-0.22l-1.28 -3.17c-0.15,-0.36 -0.3,-0.68 -0.45,-0.96 -0.15,-0.28 -0.31,-0.51 -0.49,-0.7 -0.18,-0.19 -0.39,-0.33 -0.62,-0.42 -0.23,-0.09 -0.5,-0.14 -0.81,-0.14l-0.9 0 0 5.41c0,0.07 -0.02,0.14 -0.07,0.19 -0.05,0.06 -0.13,0.11 -0.24,0.15 -0.11,0.03 -0.26,0.06 -0.44,0.09 -0.18,0.02 -0.41,0.03 -0.69,0.03 -0.28,0 -0.51,-0.01 -0.69,-0.03 -0.19,-0.02 -0.33,-0.05 -0.44,-0.09 -0.11,-0.04 -0.19,-0.09 -0.23,-0.14 -0.05,-0.06 -0.07,-0.13 -0.07,-0.2l0 -12.85c0,-0.32 0.08,-0.55 0.25,-0.7 0.16,-0.14 0.36,-0.21 0.6,-0.21l3.66 0c0.37,0 0.68,0.01 0.92,0.02 0.24,0.01 0.46,0.03 0.66,0.05 0.57,0.08 1.08,0.22 1.53,0.42 0.46,0.19 0.84,0.45 1.16,0.77 0.32,0.32 0.56,0.69 0.73,1.12 0.17,0.43 0.25,0.93 0.25,1.49 0,0.47 -0.06,0.9 -0.18,1.29 -0.12,0.39 -0.3,0.74 -0.53,1.05 -0.23,0.31 -0.52,0.57 -0.86,0.79 -0.34,0.22 -0.74,0.41 -1.17,0.55 0.21,0.1 0.41,0.22 0.6,0.37 0.19,0.15 0.36,0.32 0.53,0.53 0.16,0.21 0.32,0.44 0.47,0.71 0.15,0.26 0.29,0.57 0.43,0.9l1.2 2.8c0.11,0.28 0.18,0.48 0.22,0.61 0.04,0.13 0.06,0.23 0.06,0.3l0.01 0.01zm-3.72 -9.61c0,-0.47 -0.1,-0.86 -0.32,-1.18 -0.21,-0.32 -0.56,-0.55 -1.04,-0.68 -0.15,-0.03 -0.31,-0.06 -0.5,-0.09 -0.19,-0.02 -0.45,-0.03 -0.77,-0.03l-1.29 0 0 4.01 1.47 0c0.41,0 0.77,-0.05 1.07,-0.15 0.31,-0.1 0.56,-0.24 0.77,-0.41 0.2,-0.18 0.36,-0.39 0.46,-0.64 0.1,-0.25 0.15,-0.52 0.15,-0.83l-0 0zm8.71 9.59c0,0.07 -0.02,0.14 -0.07,0.2 -0.05,0.06 -0.13,0.1 -0.24,0.14 -0.11,0.03 -0.26,0.06 -0.44,0.09 -0.18,0.02 -0.42,0.03 -0.7,0.03 -0.27,0 -0.51,-0.01 -0.69,-0.03 -0.19,-0.02 -0.34,-0.05 -0.45,-0.09 -0.11,-0.04 -0.19,-0.09 -0.24,-0.14 -0.05,-0.06 -0.07,-0.13 -0.07,-0.2l0 -13.37c0,-0.07 0.02,-0.14 0.07,-0.2 0.05,-0.06 0.13,-0.1 0.24,-0.14 0.11,-0.04 0.26,-0.06 0.44,-0.09 0.18,-0.02 0.41,-0.03 0.69,-0.03 0.28,0 0.52,0.01 0.7,0.03 0.18,0.02 0.33,0.05 0.44,0.09 0.11,0.04 0.19,0.09 0.24,0.14 0.05,0.06 0.07,0.13 0.07,0.2l0 13.37zm14.67 -0.68c0.09,0.26 0.14,0.47 0.16,0.62 0.02,0.15 -0.01,0.27 -0.09,0.34 -0.08,0.07 -0.22,0.12 -0.43,0.14 -0.2,0.02 -0.48,0.03 -0.84,0.03 -0.37,0 -0.67,-0 -0.87,-0.02 -0.21,-0.01 -0.36,-0.03 -0.48,-0.07 -0.11,-0.03 -0.18,-0.08 -0.23,-0.14 -0.04,-0.05 -0.08,-0.13 -0.11,-0.23l-0.93 -2.84 -5.34 0 -0.89 2.77c-0.03,0.1 -0.07,0.19 -0.12,0.26 -0.04,0.07 -0.12,0.12 -0.23,0.16 -0.1,0.04 -0.25,0.07 -0.45,0.09 -0.19,0.01 -0.45,0.02 -0.76,0.02 -0.34,0 -0.6,-0.01 -0.79,-0.03 -0.19,-0.02 -0.32,-0.07 -0.39,-0.16 -0.07,-0.09 -0.1,-0.21 -0.08,-0.36 0.02,-0.16 0.08,-0.35 0.16,-0.61l4.36 -12.56c0.04,-0.12 0.09,-0.22 0.15,-0.3 0.06,-0.08 0.15,-0.13 0.28,-0.17 0.13,-0.04 0.31,-0.07 0.53,-0.08 0.22,-0.01 0.52,-0.01 0.9,-0.01 0.43,0 0.77,0 1.03,0.01 0.26,0.01 0.45,0.04 0.6,0.08 0.14,0.04 0.24,0.1 0.31,0.18 0.06,0.08 0.12,0.19 0.16,0.33l4.37 12.55 0 0zm-6.49 -10.39l-0.01 0 -1.97 6.02 3.97 0 -1.99 -6.02 -0 0zm16.25 10.26c0,0.22 -0.01,0.4 -0.03,0.55 -0.02,0.15 -0.05,0.27 -0.08,0.37 -0.03,0.1 -0.08,0.17 -0.14,0.21 -0.05,0.04 -0.12,0.07 -0.19,0.07l-6.48 0c-0.24,0 -0.44,-0.07 -0.6,-0.21 -0.16,-0.14 -0.24,-0.37 -0.24,-0.69l0 -12.85c0,-0.07 0.02,-0.14 0.07,-0.2 0.05,-0.05 0.13,-0.1 0.24,-0.14 0.11,-0.04 0.26,-0.06 0.44,-0.09 0.19,-0.02 0.42,-0.03 0.7,-0.03 0.28,0 0.52,0.01 0.7,0.03 0.18,0.02 0.33,0.05 0.43,0.09 0.11,0.03 0.19,0.08 0.24,0.14 0.05,0.06 0.07,0.13 0.07,0.2l0 11.39 4.44 0c0.07,0 0.14,0.02 0.19,0.06 0.06,0.04 0.1,0.1 0.14,0.2 0.04,0.09 0.06,0.21 0.08,0.36 0.02,0.15 0.03,0.33 0.03,0.55l0 0zm14.53 0c0,0.22 -0.01,0.4 -0.03,0.55 -0.02,0.15 -0.05,0.27 -0.09,0.37 -0.03,0.1 -0.08,0.17 -0.14,0.21 -0.05,0.04 -0.12,0.07 -0.19,0.07l-6.48 0c-0.24,0 -0.44,-0.07 -0.6,-0.21 -0.17,-0.14 -0.25,-0.37 -0.25,-0.69l0 -12.85c0,-0.07 0.02,-0.14 0.07,-0.2 0.05,-0.05 0.13,-0.1 0.24,-0.14 0.11,-0.04 0.26,-0.06 0.44,-0.09 0.19,-0.02 0.42,-0.03 0.7,-0.03 0.28,0 0.52,0.01 0.7,0.03 0.18,0.02 0.33,0.05 0.43,0.09 0.11,0.03 0.19,0.08 0.24,0.14 0.05,0.06 0.07,0.13 0.07,0.2l0 11.39 4.44 0c0.07,0 0.14,0.02 0.19,0.06 0.06,0.04 0.1,0.1 0.14,0.2 0.04,0.09 0.06,0.21 0.09,0.36 0.02,0.15 0.03,0.33 0.03,0.55l0 0zm9.46 -11.77c0,0.21 -0.01,0.39 -0.03,0.54 -0.02,0.15 -0.04,0.27 -0.08,0.36 -0.04,0.09 -0.08,0.16 -0.14,0.2 -0.05,0.04 -0.12,0.07 -0.18,0.07l-3.54 0 0 11.41c0,0.07 -0.02,0.14 -0.07,0.2 -0.05,0.05 -0.13,0.1 -0.24,0.14 -0.11,0.03 -0.26,0.06 -0.45,0.09 -0.19,0.02 -0.42,0.03 -0.69,0.03 -0.27,0 -0.51,-0.01 -0.69,-0.03 -0.19,-0.02 -0.34,-0.05 -0.44,-0.09 -0.11,-0.04 -0.19,-0.08 -0.24,-0.14 -0.05,-0.06 -0.07,-0.13 -0.07,-0.2l0 -11.41 -3.54 0c-0.07,0 -0.14,-0.02 -0.19,-0.07 -0.05,-0.04 -0.09,-0.11 -0.13,-0.2 -0.03,-0.09 -0.07,-0.21 -0.08,-0.36 -0.02,-0.15 -0.03,-0.33 -0.03,-0.54 0,-0.22 0.01,-0.4 0.03,-0.56 0.02,-0.15 0.05,-0.27 0.08,-0.36 0.04,-0.09 0.08,-0.15 0.13,-0.2 0.05,-0.04 0.12,-0.06 0.19,-0.06l9.96 0c0.06,0 0.12,0.02 0.18,0.06 0.06,0.04 0.1,0.1 0.14,0.2 0.04,0.09 0.06,0.21 0.08,0.36 0.02,0.15 0.03,0.34 0.03,0.56l0 0zm13.44 5.69c0,1.3 -0.17,2.41 -0.51,3.33 -0.34,0.92 -0.83,1.67 -1.46,2.26 -0.64,0.58 -1.41,1.01 -2.32,1.29 -0.91,0.27 -1.99,0.41 -3.24,0.41l-3.38 0c-0.24,0 -0.44,-0.07 -0.61,-0.21 -0.16,-0.14 -0.25,-0.37 -0.25,-0.69l0 -12.34c0,-0.32 0.08,-0.55 0.25,-0.69 0.16,-0.14 0.36,-0.21 0.61,-0.21l3.63 0c1.26,0 2.33,0.15 3.21,0.45 0.88,0.29 1.62,0.73 2.22,1.31 0.6,0.58 1.06,1.3 1.38,2.15 0.31,0.86 0.47,1.84 0.47,2.96l-0 -0zm-2.98 0.1c0,-0.67 -0.08,-1.29 -0.24,-1.87 -0.15,-0.57 -0.41,-1.07 -0.75,-1.49 -0.34,-0.42 -0.79,-0.76 -1.33,-0.99 -0.54,-0.24 -1.26,-0.35 -2.14,-0.35l-1.45 0 0 9.61 1.5 0c0.79,0 1.45,-0.1 1.99,-0.31 0.54,-0.2 0.99,-0.51 1.35,-0.92 0.36,-0.41 0.63,-0.92 0.81,-1.53 0.18,-0.61 0.27,-1.32 0.27,-2.14l0 -0.01zm16.4 6.12c0.09,0.26 0.14,0.47 0.16,0.62 0.02,0.15 -0.01,0.27 -0.09,0.34 -0.08,0.07 -0.22,0.12 -0.43,0.14 -0.2,0.02 -0.48,0.03 -0.84,0.03 -0.37,0 -0.66,-0 -0.87,-0.01 -0.21,-0.01 -0.36,-0.03 -0.48,-0.07 -0.11,-0.03 -0.18,-0.08 -0.23,-0.14 -0.04,-0.06 -0.08,-0.14 -0.11,-0.23l-0.93 -2.84 -5.34 0 -0.89 2.77c-0.03,0.1 -0.07,0.19 -0.12,0.26 -0.04,0.07 -0.12,0.12 -0.23,0.16 -0.1,0.04 -0.25,0.07 -0.45,0.08 -0.19,0.01 -0.45,0.02 -0.76,0.02 -0.34,0 -0.6,-0.01 -0.79,-0.03 -0.19,-0.02 -0.32,-0.07 -0.39,-0.16 -0.07,-0.09 -0.1,-0.21 -0.08,-0.36 0.02,-0.16 0.08,-0.36 0.16,-0.61l4.36 -12.56c0.04,-0.12 0.09,-0.22 0.15,-0.3 0.06,-0.08 0.15,-0.14 0.28,-0.18 0.13,-0.04 0.31,-0.07 0.53,-0.08 0.22,-0.01 0.52,-0.02 0.9,-0.02 0.43,0 0.77,0 1.03,0.02 0.26,0.01 0.45,0.03 0.6,0.08 0.14,0.04 0.24,0.1 0.31,0.18 0.06,0.08 0.12,0.19 0.16,0.33l4.37 12.55 -0.01 0zm-6.49 -10.39l-0.01 0 -1.97 6.02 3.97 0 -1.99 -6.02 -0 0zm11.71 9.88c0,0.68 -0.12,1.13 -0.36,1.37 -0.24,0.24 -0.66,0.35 -1.27,0.35 -0.61,0 -1.04,-0.12 -1.27,-0.34 -0.24,-0.23 -0.35,-0.67 -0.35,-1.31 0,-0.69 0.12,-1.15 0.35,-1.38 0.24,-0.24 0.67,-0.35 1.29,-0.35 0.6,0 1.02,0.12 1.26,0.34 0.23,0.23 0.34,0.67 0.34,1.32l0 0z" gorn="0.2.1.1.0.0.0.0"/>
                        </g>
                    </g>
                </g>
            </g>
        </g>
    </g>
</svg>
