<?xml version='1.0' encoding='UTF-8' standalone='no'?>
<svg xmlns="http://www.w3.org/2000/svg" gorn="0"  id="svg32" height="3.2049999mm" width="3.25mm" viewBox="0 0 12.795582 12.61811" version="1.1">
    <defs  id="defs61"/>
    <desc  id="desc2">
        <referenceFile >2N7002.svg</referenceFile>
    </desc>
    <g  transform="translate(-4033.6,-3027.5)">
        <g gorn="0.2.0"  id="g56">
            <g gorn="0.2.0.0"  id="g54">
                <g gorn="0.2.0.0.0"  id="g52">
                    <g gorn="0.2.0.0.0.0"  id="g50">
                        <g gorn="0.2.0.0.0.0.0"  id="g48">
                            <g gorn="0.2.0.0.0.0.0.0"  id="g46">
                                <g gorn="0.2.0.0.0.0.0.0.0"  id="g44">
                                    <defs  id="defs13304"/>
                                    <g  transform="translate(-10.002295,-16.191763)">
                                        <g gorn="0.2.0.0.0.0.0.0.0.1.0"  id="g26">
                                            <g gorn="0.2.0.0.0.0.0.0.0.1.0.0"  id="g24">
                                                <g gorn="0.2.0.0.0.0.0.0.0.1.0.0.0"  id="g22">
                                                    <g gorn="0.2.0.0.0.0.0.0.0.1.0.0.0.0"  id="g20">
                                                        <g gorn="0.2.0.0.0.0.0.0.0.1.0.0.0.0.0"  id="g18">
                                                            <g gorn="0.2.0.0.0.0.0.0.0.1.0.0.0.0.0.0"  id="g16">
                                                                <g gorn="0.2.0.0.0.0.0.0.0.1.0.0.0.0.0.0.0"  id="silkscreen">
                                                                    <path d="m 4049.7169,3050.3284 q 0,0.1052 -0.037,0.1903 -0.037,0.084 -0.1052,0.1442 -0.068,0.06 -0.169,0.093 -0.1005,0.032 -0.2269,0.032 -0.077,0 -0.1442,-0.013 -0.066,-0.012 -0.1182,-0.028 -0.052,-0.018 -0.086,-0.035 -0.034,-0.019 -0.044,-0.027 -0.01,-0.01 -0.013,-0.017 0,-0.01 -0.01,-0.02 0,-0.012 -0.01,-0.028 0,-0.018 0,-0.043 0,-0.043 0.01,-0.059 0.01,-0.017 0.024,-0.017 0.011,0 0.041,0.019 0.032,0.019 0.08,0.041 0.05,0.021 0.1146,0.04 0.066,0.019 0.1466,0.019 0.078,0 0.1371,-0.02 0.059,-0.02 0.099,-0.057 0.04,-0.037 0.06,-0.086 0.02,-0.051 0.02,-0.1099 0,-0.065 -0.026,-0.117 -0.025,-0.052 -0.074,-0.09 -0.049,-0.038 -0.1206,-0.058 -0.071,-0.02 -0.1619,-0.02 h -0.1454 q -0.01,0 -0.019,0 -0.01,0 -0.015,-0.014 -0.01,-0.01 -0.011,-0.025 0,-0.015 0,-0.04 0,-0.023 0,-0.037 0,-0.015 0.01,-0.024 0.01,-0.01 0.015,-0.013 0.01,0 0.019,0 h 0.1336 q 0.078,0 0.1394,-0.02 0.063,-0.02 0.1052,-0.058 0.044,-0.038 0.066,-0.09 0.024,-0.053 0.024,-0.1182 0,-0.047 -0.015,-0.09 -0.015,-0.044 -0.046,-0.076 -0.031,-0.032 -0.079,-0.05 -0.047,-0.019 -0.11,-0.019 -0.068,0 -0.1264,0.021 -0.057,0.02 -0.1017,0.044 -0.045,0.024 -0.074,0.045 -0.03,0.02 -0.041,0.02 -0.01,0 -0.015,0 -0.01,0 -0.011,-0.012 0,-0.01 -0.01,-0.025 0,-0.017 0,-0.043 0,-0.018 0,-0.031 0,-0.014 0,-0.024 0,-0.011 0.01,-0.019 0,-0.01 0.015,-0.019 0.012,-0.012 0.046,-0.033 0.034,-0.021 0.084,-0.041 0.051,-0.021 0.1158,-0.035 0.066,-0.014 0.1419,-0.014 0.1063,0 0.1867,0.027 0.08,0.027 0.1336,0.077 0.054,0.05 0.08,0.1193 0.027,0.069 0.027,0.1525 0,0.072 -0.019,0.1348 -0.019,0.061 -0.055,0.1099 -0.037,0.047 -0.09,0.081 -0.053,0.033 -0.1229,0.046 v 0 q 0.079,0.01 0.1442,0.04 0.066,0.031 0.1135,0.078 0.047,0.047 0.073,0.1111 0.027,0.063 0.027,0.1348 z" gorn="0.2.0.0.0.0.0.0.0.1.0.0.0.0.0.0.0.0"  id="path9449" stroke="none" fill="#000000"/>
                                                                    <path d="m 4051.2428,3049.9786 q 0,0.1985 -0.051,0.3474 -0.051,0.1478 -0.1489,0.2459 -0.097,0.097 -0.2387,0.1454 -0.1419,0.048 -0.3381,0.048 h -0.3238 q -0.027,0 -0.052,-0.018 -0.024,-0.019 -0.024,-0.065 v -1.3639 q 0,-0.046 0.024,-0.064 0.025,-0.019 0.052,-0.019 h 0.3463 q 0.1985,0 0.3356,0.052 0.1371,0.051 0.2293,0.1477 0.093,0.096 0.1407,0.2329 0.048,0.1371 0.048,0.3096 z m -0.214,0.01 q 0,-0.1241 -0.031,-0.2305 -0.031,-0.1076 -0.097,-0.1856 -0.065,-0.078 -0.1655,-0.1217 -0.1005,-0.044 -0.2588,-0.044 h -0.2069 v 1.1903 h 0.2092 q 0.1466,0 0.247,-0.037 0.1005,-0.037 0.1679,-0.1123 0.067,-0.076 0.1004,-0.1891 0.034,-0.1146 0.034,-0.2706 z" gorn="0.2.0.0.0.0.0.0.0.1.0.0.0.0.0.0.0.1"  id="path9446" stroke="none" fill="#000000"/>
                                                                    <path d="m 4049.762,3054.4263 q 0,0.023 0,0.038 0,0.015 -0.01,0.025 -0.01,0.01 -0.014,0.014 -0.01,0 -0.015,0 h -0.8028 q -0.01,0 -0.015,0 -0.01,0 -0.014,-0.014 -0.01,-0.01 -0.01,-0.025 0,-0.015 0,-0.038 0,-0.021 0,-0.037 0,-0.015 0.01,-0.025 0.01,-0.011 0.013,-0.015 0.01,-0.01 0.018,-0.01 h 0.3206 v -1.1687 l -0.2969,0.177 q -0.023,0.012 -0.037,0.014 -0.013,0 -0.021,0 -0.01,-0.01 -0.012,-0.026 0,-0.018 0,-0.045 0,-0.02 0,-0.034 0,-0.014 0.01,-0.024 0,-0.01 0.01,-0.017 0.01,-0.01 0.018,-0.014 l 0.3539,-0.2268 q 0,0 0.012,-0.01 0.01,0 0.018,0 0.011,0 0.025,0 0.014,0 0.036,0 0.028,0 0.048,0 0.019,0 0.03,0.01 0.011,0 0.014,0.011 0,0.01 0,0.013 v 1.3504 h 0.2779 q 0.01,0 0.018,0.01 0.01,0 0.013,0.015 0.01,0.01 0.01,0.025 0,0.015 0,0.037 z" gorn="0.2.0.0.0.0.0.0.0.1.0.0.0.0.0.0.0.2"  id="path13150" stroke="none" fill="#000000"/>
                                                                    <path d="m 4051.1242,3054.2897 q 0,0.019 0,0.033 0,0.014 0,0.025 0,0.011 -0.01,0.019 0,0.01 -0.017,0.02 -0.012,0.012 -0.05,0.037 -0.038,0.024 -0.095,0.048 -0.056,0.023 -0.1294,0.038 -0.073,0.017 -0.1592,0.017 -0.1496,0 -0.2708,-0.05 -0.1199,-0.05 -0.2054,-0.1473 -0.084,-0.097 -0.1307,-0.2399 -0.045,-0.1437 -0.045,-0.3302 0,-0.1912 0.049,-0.3408 0.05,-0.1497 0.139,-0.253 0.089,-0.1045 0.2126,-0.1591 0.1247,-0.055 0.2755,-0.055 0.066,0 0.1294,0.013 0.063,0.012 0.1164,0.031 0.053,0.019 0.095,0.044 0.042,0.025 0.057,0.042 0.017,0.015 0.021,0.024 0,0.01 0.01,0.02 0,0.011 0,0.026 0,0.015 0,0.037 0,0.024 0,0.04 0,0.017 -0.01,0.028 0,0.011 -0.012,0.017 -0.01,0 -0.015,0 -0.017,0 -0.046,-0.023 -0.03,-0.024 -0.077,-0.051 -0.046,-0.029 -0.1141,-0.051 -0.066,-0.024 -0.1603,-0.024 -0.1021,0 -0.1865,0.042 -0.083,0.04 -0.1425,0.12 -0.059,0.08 -0.093,0.1948 -0.032,0.114 -0.032,0.2613 0,0.146 0.031,0.2589 0.032,0.1116 0.09,0.1876 0.059,0.075 0.1449,0.114 0.086,0.038 0.1935,0.038 0.091,0 0.1592,-0.023 0.069,-0.023 0.1164,-0.05 0.049,-0.028 0.08,-0.051 0.031,-0.023 0.049,-0.023 0.01,0 0.014,0 0.01,0 0.01,0.014 0,0.01 0,0.027 0,0.018 0,0.045 z" gorn="0.2.0.0.0.0.0.0.0.1.0.0.0.0.0.0.0.3"  id="path13147" stroke="none" fill="#000000"/>
                                                                    <path d="m 4049.8991,3046.9365 q 0,0.021 0,0.038 0,0.017 -0.01,0.028 0,0.011 -0.014,0.017 -0.01,0 -0.019,0 h -0.8454 q -0.017,0 -0.03,0 -0.012,0 -0.021,-0.014 -0.01,-0.01 -0.013,-0.027 0,-0.018 0,-0.044 0,-0.024 0,-0.041 0,-0.018 0.01,-0.031 0.01,-0.014 0.014,-0.027 0.01,-0.014 0.024,-0.03 l 0.2968,-0.3145 q 0.1029,-0.1088 0.1643,-0.1951 0.063,-0.086 0.096,-0.1572 0.034,-0.071 0.045,-0.1289 0.011,-0.058 0.011,-0.1088 0,-0.051 -0.017,-0.096 -0.017,-0.046 -0.048,-0.08 -0.031,-0.034 -0.078,-0.054 -0.047,-0.02 -0.1088,-0.02 -0.072,0 -0.1301,0.02 -0.057,0.02 -0.1005,0.044 -0.043,0.024 -0.072,0.044 -0.028,0.02 -0.043,0.02 -0.01,0 -0.015,0 -0.01,0 -0.011,-0.015 0,-0.011 -0.01,-0.028 0,-0.018 0,-0.043 0,-0.018 0,-0.031 0,-0.013 0,-0.022 0,-0.01 0.01,-0.018 0,-0.01 0.019,-0.02 0.014,-0.013 0.049,-0.034 0.035,-0.021 0.088,-0.041 0.053,-0.021 0.1159,-0.035 0.064,-0.014 0.1336,-0.014 0.1111,0 0.1939,0.032 0.084,0.031 0.1383,0.085 0.056,0.054 0.083,0.1265 0.027,0.072 0.027,0.1537 0,0.073 -0.013,0.1467 -0.013,0.072 -0.056,0.1572 -0.041,0.084 -0.1206,0.188 -0.079,0.1029 -0.2105,0.2377 l -0.2424,0.253 h 0.6657 q 0.01,0 0.018,0.01 0.01,0 0.015,0.015 0.01,0.011 0.01,0.027 0,0.015 0,0.037 z" gorn="0.2.0.0.0.0.0.0.0.1.0.0.0.0.0.0.0.4"  id="path10620" stroke="none" fill="#000000"/>
                                                                    <path d="m 4051.0591,3046.5948 q 0,0.1076 -0.04,0.1916 -0.039,0.084 -0.11,0.1431 -0.07,0.058 -0.1655,0.087 -0.095,0.03 -0.2046,0.03 -0.077,0 -0.1431,-0.013 -0.065,-0.013 -0.117,-0.032 -0.051,-0.019 -0.086,-0.039 -0.034,-0.02 -0.048,-0.034 -0.013,-0.014 -0.02,-0.035 -0.01,-0.023 -0.01,-0.059 0,-0.026 0,-0.043 0,-0.018 0.01,-0.028 0,-0.011 0.012,-0.014 0.01,0 0.017,0 0.017,0 0.046,0.02 0.031,0.02 0.078,0.044 0.047,0.024 0.1136,0.045 0.067,0.02 0.1549,0.02 0.066,0 0.1205,-0.018 0.056,-0.018 0.095,-0.05 0.04,-0.033 0.061,-0.08 0.021,-0.047 0.021,-0.1076 0,-0.065 -0.03,-0.1112 -0.03,-0.046 -0.078,-0.08 -0.048,-0.035 -0.1112,-0.064 -0.062,-0.03 -0.1265,-0.059 -0.065,-0.031 -0.1265,-0.067 -0.061,-0.037 -0.11,-0.086 -0.048,-0.05 -0.079,-0.1158 -0.03,-0.067 -0.03,-0.1609 0,-0.096 0.034,-0.1702 0.035,-0.076 0.097,-0.1266 0.063,-0.051 0.1478,-0.077 0.086,-0.027 0.1857,-0.027 0.051,0 0.1016,0.01 0.052,0.01 0.097,0.024 0.046,0.014 0.082,0.033 0.035,0.018 0.046,0.03 0.012,0.011 0.015,0.018 0,0.01 0.01,0.017 0,0.01 0,0.024 0,0.014 0,0.037 0,0.021 0,0.038 0,0.017 0,0.028 0,0.011 -0.011,0.017 -0.01,0 -0.014,0 -0.013,0 -0.041,-0.017 -0.027,-0.017 -0.067,-0.037 -0.04,-0.021 -0.096,-0.038 -0.054,-0.018 -0.123,-0.018 -0.064,0 -0.1111,0.018 -0.047,0.017 -0.078,0.045 -0.031,0.028 -0.046,0.067 -0.015,0.039 -0.015,0.083 0,0.064 0.03,0.11 0.03,0.046 0.078,0.082 0.05,0.035 0.1124,0.065 0.063,0.03 0.1276,0.06 0.065,0.029 0.1277,0.066 0.063,0.035 0.1112,0.085 0.05,0.048 0.079,0.1159 0.031,0.066 0.031,0.1573 z" gorn="0.2.0.0.0.0.0.0.0.1.0.0.0.0.0.0.0.5"  id="path10617" stroke="none" fill="#000000"/>
                                                                    <path d="m 4052.8591,3043.9913 h -5.7182 v 4.0615" gorn="0.2.0.0.0.0.0.0.0.1.0.0.0.0.0.0.0.6"  id="gge52" stroke="#000000" stroke-width="0.6" fill="none"/>
                                                                    <path d="m 4052.8591,3056.0087 h -5.7182 v -4.0615" gorn="0.2.0.0.0.0.0.0.0.1.0.0.0.0.0.0.0.7"  id="gge55" stroke="#000000" stroke-width="0.6" fill="none"/>
                                                                    <path d="m 4052.8583,3048.2071 v 3.5765" gorn="0.2.0.0.0.0.0.0.0.1.0.0.0.0.0.0.0.8"  id="gge58" stroke="#000000" stroke-width="0.599219" fill="none"/>
                                                                    <path d="m 4056.3979,3056.0108 a 0.29921976,0.29921976 0 0 1 -0.2992,0.2992 0.29921976,0.29921976 0 0 1 -0.2993,-0.2992 0.29921976,0.29921976 0 0 1 0.2993,-0.2992 0.29921976,0.29921976 0 0 1 0.2992,0.2992 z" gorn="0.2.0.0.0.0.0.0.0.1.0.0.0.0.0.0.0.9"  id="path1240" stroke="none" fill="#000000"/>
                                                                </g>
                                                            </g>
                                                        </g>
                                                    </g>
                                                </g>
                                            </g>
                                        </g>
                                    </g>
                                    <g  transform="translate(-10.002295,-16.191763)">
                                        <g gorn="0.2.0.0.0.0.0.0.0.2.0"  id="g42">
                                            <g gorn="0.2.0.0.0.0.0.0.0.2.0.0"  id="g40">
                                                <g gorn="0.2.0.0.0.0.0.0.0.2.0.0.0"  id="g38">
                                                    <g gorn="0.2.0.0.0.0.0.0.0.2.0.0.0.0"  id="g36">
                                                        <g gorn="0.2.0.0.0.0.0.0.0.2.0.0.0.0.0"  id="g34">
                                                            <g gorn="0.2.0.0.0.0.0.0.0.2.0.0.0.0.0.0"  id="g32">
                                                                <g gorn="0.2.0.0.0.0.0.0.0.2.0.0.0.0.0.0.0"  id="copper1">
                                                                    <rect y="3052.3601" x="4051.4763" gorn="0.2.0.0.0.0.0.0.0.2.0.0.0.0.0.0.0.0"  id="connector1pin" height="2.7579401" width="4.9213777" stroke="none" name="1G" fill="#ffc000"/>
                                                                    <rect y="3048.6218" x="4043.6023" gorn="0.2.0.0.0.0.0.0.0.2.0.0.0.0.0.0.0.1"  id="connector2pin" height="2.7579401" width="4.9213777" stroke="none" name="3D" fill="#ffc000"/>
                                                                    <rect y="3044.8801" x="4051.4763" gorn="0.2.0.0.0.0.0.0.0.2.0.0.0.0.0.0.0.2"  id="connector0pin" height="2.7579401" width="4.9213777" stroke="none" name="2S" fill="#ffc000"/>
                                                                </g>
                                                            </g>
                                                        </g>
                                                    </g>
                                                </g>
                                            </g>
                                        </g>
                                    </g>
                                </g>
                            </g>
                        </g>
                    </g>
                </g>
            </g>
        </g>
    </g>
</svg>
