<?xml version='1.0' encoding='UTF-8' standalone='no'?>
<svg xmlns="http://www.w3.org/2000/svg" version="1.1" width="9.6890001mm" viewBox="0 0 38.145154 58.475826" id="svg40102"  height="14.853mm" gorn="0">
    <desc >
        <referenceFile >PJ-327C-4A.svg</referenceFile>
    </desc>
    <g transform="translate(-4021.1,-2998.6)" >
        <g >
            <g >
                <defs id="defs40106" >
                    <symbol id="*Model_Space" />
                    <symbol id="*Paper_Space" />
                    <symbol id="*Paper_Space0" />
                </defs>
                <g id="silkscreen"  gorn="0.1.0.0.1">
                    <path style="stroke-linecap:square;stroke-linejoin:round;stroke-dashoffset:5.91477;paint-order:markers stroke fill;" stroke-width="0.0764057" fill="#000000" id="path41109" fill-opacity="1" stroke="none"  gorn="0.1.0.0.1.0" d="m 4052.2537,3024.032 c -0.1071,-0.1072 -0.1418,-1.8705 -0.1418,-7.2115 v -7.0696 h -12.1176 -12.1176 v 1.3891 c 0,1.6006 -0.055,1.8857 -0.3714,1.9861 -0.5051,0.1603 -0.5727,-0.09 -0.5727,-2.1247 0,-1.3299 0.043,-1.9557 0.1419,-2.0544 0.091,-0.091 0.5569,-0.1418 1.3004,-0.1418 h 1.1585 v -4.9416 c 0,-3.6859 0.036,-4.9777 0.1419,-5.0835 0.1081,-0.1081 2.5517,-0.1419 10.2767,-0.1419 9.0559,0 10.1547,0.02 10.3207,0.1858 0.1629,0.1629 0.1857,0.7887 0.1857,5.0835 v 4.8977 h 1.1147 c 0.8557,0 1.1578,0.043 1.3004,0.1858 0.1649,0.1648 0.1858,1.0043 0.1858,7.4556 0,4.7852 -0.042,7.348 -0.1224,7.4986 -0.1379,0.2577 -0.4685,0.2998 -0.6815,0.087 z m -2.7427,-19.8374 v -4.6106 h -9.5167 -9.5168 v 4.6106 4.6106 h 9.5168 9.5167 z"/>
                    <path style="stroke-linecap:square;stroke-linejoin:round;stroke-dashoffset:5.91477;paint-order:markers stroke fill;" stroke-width="0.0764057" fill="#000000" id="path41148" fill-opacity="1" stroke="none"  gorn="0.1.0.0.1.1" d="m 4027.0728,3040.3464 c -0.1079,-0.108 -0.1419,-2.3675 -0.1419,-9.448 0,-5.1183 0.032,-9.3902 0.072,-9.4931 0.1005,-0.2619 0.6041,-0.234 0.7516,0.042 0.1696,0.3169 0.1696,18.4957 0,18.8126 -0.1379,0.2577 -0.4685,0.2998 -0.6815,0.087 z"/>
                    <path style="stroke-linecap:square;stroke-linejoin:round;stroke-dashoffset:5.91477;paint-order:markers stroke fill;" stroke-width="0.0764057" fill="#000000" id="path41265" fill-opacity="1" stroke="none"  gorn="0.1.0.0.1.2" d="m 4052.2537,3046.8485 c -0.2049,-0.2049 -0.2049,-14.2889 0,-14.4938 0.213,-0.213 0.5436,-0.1709 0.6815,0.087 0.1689,0.3155 0.1689,14.0046 0,14.3202 -0.1379,0.2577 -0.4685,0.2998 -0.6815,0.087 z"/>
                    <path style="stroke-linecap:square;stroke-linejoin:round;stroke-dashoffset:5.91477;paint-order:markers stroke fill;" stroke-width="0.0764057" fill="#000000" id="path41304" fill-opacity="1" stroke="none"  gorn="0.1.0.0.1.3" d="m 4027.1378,3056.9114 c -0.1906,-0.111 -0.2069,-0.4357 -0.2069,-4.1197 0,-3.3518 0.028,-4.0222 0.1717,-4.1416 0.2358,-0.1957 0.6156,-0.052 0.7006,0.2652 0.039,0.1442 0.071,1.8182 0.072,3.7201 v 3.4579 h 12.1176 12.1176 v -0.3901 c 0,-0.4329 0.1761,-0.6739 0.4924,-0.6739 0.296,0 0.4534,0.3637 0.4534,1.0478 0,1.0546 1.2545,0.9624 -13.0423,0.9584 -8.3863,0 -12.7406,-0.044 -12.8775,-0.1241 z"/>
                </g>
                <g id="g42872"  gorn="0.1.0.0.2">
                    <g id="copper1"  gorn="0.1.0.0.2.0">
                        <path style="stroke-linecap:square;stroke-linejoin:round;stroke-dashoffset:5.91477;paint-order:markers stroke fill;" stroke-width="0.0764057" fill="#fdde68" id="connector1pad" fill-opacity="1" stroke="none"  gorn="0.1.0.0.2.0.0" d="m 4021.1381,3044.5668 v -3.4875 h 5.4382 5.4381 v 3.4875 3.4875 h -5.4381 -5.4382 z"/>
                        <path style="stroke-linecap:square;stroke-linejoin:round;stroke-dashoffset:5.91477;paint-order:markers stroke fill;" stroke-width="0.0764057" fill="#fdde68" id="connector3pad" fill-opacity="1" stroke="none"  gorn="0.1.0.0.2.0.1" d="m 4047.5013,3051.069 v -3.4875 h 5.8519 5.8519 v 3.4875 3.4875 h -5.8519 -5.8519 z"/>
                        <path style="stroke-linecap:square;stroke-linejoin:round;stroke-dashoffset:5.91477;paint-order:markers stroke fill;" stroke-width="0.0764057" fill="#fdde68" id="connector2pad" fill-opacity="1" stroke="none"  gorn="0.1.0.0.2.0.2" d="m 4048.447,3028.1933 v -3.5466 h 4.9062 4.9061 v 3.5466 3.5466 h -4.9061 -4.9062 z"/>
                        <path style="stroke-linecap:square;stroke-linejoin:round;stroke-dashoffset:5.91477;paint-order:markers stroke fill;" stroke-width="0.0764057" fill="#fdde68" id="connector0pad" fill-opacity="1" stroke="none"  gorn="0.1.0.0.2.0.3" d="m 4021.1381,3017.3762 v -3.4875 h 5.4382 5.4381 v 3.4875 3.4875 h -5.4381 -5.4382 z"/>
                        <circle r="3.8" cx="4039.9902" cy="3019.1755" stroke-width="0" fill="black" id="nonconn0"  gorn="0.1.0.0.2.0.4"/>
                        <circle r="3.8" cx="4040.0259" cy="3042.8169" stroke-width="0" fill="black" id="nonconn1"  gorn="0.1.0.0.2.0.5"/>
                    </g>
                </g>
            </g>
        </g>
    </g>
</svg>
