<?xml version='1.0' encoding='UTF-8' standalone='no'?>
<svg xmlns="http://www.w3.org/2000/svg"  height="7.954mm" id="svg3" width="11.671mm" viewBox="0 0 45.948236 31.315824" version="1.1" gorn="0">
    <desc >
        <referenceFile >Borne2P.svg</referenceFile>
    </desc>
    <g  transform="translate(-4020.3,-3017.5)">
        <g >
            <g >
                <defs  id="defs3"/>
                <g  transform="translate(-16.253033,7.1174968e-4)">
                    <g >
                        <g  id="silkscreen" gorn="0.1.0.0.1.0.0">
                            <path  style="stroke-width:1" stroke="none" id="path12" fill="#000000" d="m 4040.8312,3017.5 a 0.4876169,0.5 0 0 0 -0.4876,0.5 0.4876169,0.5 0 0 0 0.4876,0.5 h 38.396 a 0.4876169,0.5 0 0 0 0.4876,-0.5 0.4876169,0.5 0 0 0 -0.4876,-0.5 z" gorn="0.1.0.0.1.0.0.0"/>
                            <path  stroke="none" id="path11" fill="#000000" d="m 4079.2141,3017.5 a 0.5,0.5 0 0 0 -0.5,0.5 v 30.3144 a 0.5,0.5 0 0 0 0.5,0.5 0.5,0.5 0 0 0 0.5,-0.5 V 3018 a 0.5,0.5 0 0 0 -0.5,-0.5 z" gorn="0.1.0.0.1.0.0.1"/>
                            <path  stroke="none" id="path1" fill="black" d="m 4040.3445,3026.8542 v 21.4606 a 0.5,0.5 0 0 0 0.4985,0.5005 0.5,0.5 0 0 0 0.5005,-0.5005 v -21.4606 z" gorn="0.1.0.0.1.0.0.2"/>
                            <path  stroke="none" id="path10" fill="black" d="m 4040.843,3017.4993 a 0.5,0.5 0 0 0 -0.4985,0.5005 v 5.7476 h 0.999 v -5.7476 a 0.5,0.5 0 0 0 -0.5005,-0.5005 z" gorn="0.1.0.0.1.0.0.3"/>
                            <path  stroke="none" id="path6-8" fill="#000000" d="m 4041.1605,3022.7473 a 0.5,0.5 0 0 0 -0.5,0.5 0.5,0.5 0 0 0 0.5,0.5 h 1.9727 v 3.0977 h -1.9727 a 0.5,0.5 0 0 0 -0.5,0.5 0.5,0.5 0 0 0 0.5,0.5 h 2.4727 a 0.50005,0.50005 0 0 0 0.5,-0.5 v -4.0977 a 0.50005,0.50005 0 0 0 -0.5,-0.5 z" gorn="0.1.0.0.1.0.0.4"/>
                            <path  style="stroke-width:1" stroke="none" id="path9" fill="#000000" d="m 4040.8312,3047.8144 a 0.4876169,0.5 0 0 0 -0.4876,0.5 0.4876169,0.5 0 0 0 0.4876,0.5 h 38.396 a 0.4876169,0.5 0 0 0 0.4876,-0.5 0.4876169,0.5 0 0 0 -0.4876,-0.5 z" gorn="0.1.0.0.1.0.0.5"/>
                            <path  style="stroke-width:1" stroke="none" id="path19" fill="#000000" d="m 4042.3134,3017.9982 v 5.069 h 1.043 v -5.069 z" gorn="0.1.0.0.1.0.0.6"/>
                            <path  stroke="none" id="path19-7" fill="#000000" d="m 4056.0106,3017.9982 v 7.4957 h 1.043 v -7.4957 z" gorn="0.1.0.0.1.0.0.7"/>
                            <path  stroke="none" id="path19-7-5" fill="#000000" d="m 4062.0007,3017.9982 v 7.4957 h 1.043 v -7.4957 z" gorn="0.1.0.0.1.0.0.8"/>
                            <path  stroke="none" id="path19-7-5-9" fill="#000000" d="m 4075.6978,3017.9982 v 7.4957 h 1.043 v -7.4957 z" gorn="0.1.0.0.1.0.0.9"/>
                            <path  style="stroke-width:0.999997" stroke="none" id="path8" fill="#000000" d="m 4043.8098,3024.5839 a 0.45026356,0.5 0 0 0 -0.4502,0.5 0.45026356,0.5 0 0 0 0.4502,0.5 h 35.4547 a 0.45026356,0.5 0 0 0 0.4503,-0.5 0.45026356,0.5 0 0 0 -0.4503,-0.5 z" gorn="0.1.0.0.1.0.0.10"/>
                            <path  style="stroke-width:1" stroke="none" id="path7" fill="#000000" d="m 4040.8312,3040.5097 a 0.4876169,0.5 0 0 0 -0.4876,0.5 0.4876169,0.5 0 0 0 0.4876,0.5 h 38.396 a 0.4876169,0.5 0 0 0 0.4876,-0.5 0.4876169,0.5 0 0 0 -0.4876,-0.5 z" gorn="0.1.0.0.1.0.0.11"/>
                            <path  stroke="none" id="path6" fill="#000000" d="m 4079.5286,3022.748 a 0.5,0.5 0 0 0 -0.5,0.5 0.5,0.5 0 0 0 0.5,0.5 h 1.9727 v 3.0977 h -1.9727 a 0.5,0.5 0 0 0 -0.5,0.5 0.5,0.5 0 0 0 0.5,0.5 h 2.4727 a 0.50005,0.50005 0 0 0 0.5,-0.5 v -4.0977 a 0.50005,0.50005 0 0 0 -0.5,-0.5 z" gorn="0.1.0.0.1.0.0.12"/>
                            <path  stroke="none" id="path5" fill="none" d="m 4039.5257,3022.7466 a 0.5,0.5 0 0 1 0.5,0.5 0.5,0.5 0 0 1 -0.5,0.5 h -1.9727 v 3.0977 h 1.9727 a 0.5,0.5 0 0 1 0.5,0.5 0.5,0.5 0 0 1 -0.5,0.5 h -2.4727 a 0.50005,0.50005 0 0 1 -0.5,-0.5 v -4.0977 a 0.50005,0.50005 0 0 1 0.5,-0.5 z" gorn="0.1.0.0.1.0.0.13"/>
                            <path  stroke="none" id="path17" fill="#000000" d="m 4049.6835,3023.6425 -2.6043,-4.5053 h 5.2086 z" gorn="0.1.0.0.1.0.0.14"/>
                            <path  stroke="none" id="path17-3" fill="#000000" d="m 4069.3708,3023.6425 -2.6043,-4.5053 h 5.2086 z" gorn="0.1.0.0.1.0.0.15"/>
                        </g>
                    </g>
                </g>
                <g  transform="translate(-12.969413,-26.729539)">
                    <g >
                        <g  id="copper1" gorn="0.1.0.0.2.0.0">
                            <g  id="copper0" gorn="0.1.0.0.2.0.0.0">
                                <circle  stroke-width="2.75587" r="6.29913" stroke="#ffc000" id="connector0pin" cy="3059.8875" fill="none" cx="4046.3999" gorn="0.1.0.0.2.0.0.0.0"/>
                                <circle  stroke-width="2.75587" r="6.29913" stroke="#ffc000" id="connector1pin" cy="3059.8875" fill="none" cx="4066.0872" gorn="0.1.0.0.2.0.0.0.1"/>
                            </g>
                            <g  transform="translate(-6.6554139e-6,5.2383379e-5)">
                                <g >
                                    <g  id="copper0-4" gorn="0.1.0.0.2.0.0.1.0.0">
                                        <circle  stroke-width="2.75587" r="6.29913" stroke="#ffc000" id="connector0pin-5" cy="3059.8875" fill="none" cx="4046.3999" gorn="0.1.0.0.2.0.0.1.0.0.0"/>
                                        <circle  stroke-width="2.75587" r="6.29913" stroke="#ffc000" id="connector1pin-0" cy="3059.8875" fill="none" cx="4066.0872" gorn="0.1.0.0.2.0.0.1.0.0.1"/>
                                    </g>
                                </g>
                            </g>
                        </g>
                    </g>
                </g>
            </g>
        </g>
    </g>
</svg>
