<?xml version='1.0' encoding='UTF-8' standalone='no'?>
<svg xmlns="http://www.w3.org/2000/svg"  id="svg255" gorn="0" height="19mm" viewBox="0 0 78.0597 74.803719" width="19.827mm" version="1.1">
    <desc >
        <referenceFile >ESP32-C701346-ESP32-WROOM-32UE-N16.svg</referenceFile>
    </desc>
    <g transform="translate(-4002.6,-2994.6)" >
        <g >
            <g >
                <g >
                    <defs  id="defs259"/>
                    <g transform="rotate(90,4054.502,3036.5036)" >
                        <g >
                            <g >
                                <g  id="g1559" gorn="0.1.0.0.0.1.0.0.0">
                                    <g  id="copper1" gorn="0.1.0.0.0.1.0.0.0.0">
                                        <polygon  points="4020.4724,3017.3028 4012.5984,3017.3028 4012.5984,3013.7594 4020.4724,3013.7594 " id="connector0pad" layerid="1" c_etype="pad_shell" gorn="0.1.0.0.0.1.0.0.0.0.0" stroke-opacity="1" stroke="#000000" stroke-width="0" fill="#ffcc00"/>
                                        <polygon  points="4020.4724,3022.3028 4012.5984,3022.3028 4012.5984,3018.7594 4020.4724,3018.7594 " id="connector1pad" layerid="1" c_etype="pad_shell" gorn="0.1.0.0.0.1.0.0.0.0.1" stroke-opacity="1" stroke="#000000" stroke-width="0" fill="#ffcc00"/>
                                        <polygon  points="4020.4724,3027.3028 4012.5984,3027.3028 4012.5984,3023.7594 4020.4724,3023.7594 " id="connector2pad" layerid="1" c_etype="pad_shell" gorn="0.1.0.0.0.1.0.0.0.0.2" stroke-opacity="1" stroke="#000000" stroke-width="0" fill="#ffcc00"/>
                                        <polygon  points="4020.4724,3032.3028 4012.5984,3032.3028 4012.5984,3028.7594 4020.4724,3028.7594 " id="connector3pad" layerid="1" c_etype="pad_shell" gorn="0.1.0.0.0.1.0.0.0.0.3" stroke-opacity="1" stroke="#000000" stroke-width="0" fill="#ffcc00"/>
                                        <polygon  points="4020.4724,3037.3028 4012.5984,3037.3028 4012.5984,3033.7594 4020.4724,3033.7594 " id="connector4pad" layerid="1" c_etype="pad_shell" gorn="0.1.0.0.0.1.0.0.0.0.4" stroke-opacity="1" stroke="#000000" stroke-width="0" fill="#ffcc00"/>
                                        <polygon  points="4020.4724,3042.3028 4012.5984,3042.3028 4012.5984,3038.7594 4020.4724,3038.7594 " id="connector5pad" layerid="1" c_etype="pad_shell" gorn="0.1.0.0.0.1.0.0.0.0.5" stroke-opacity="1" stroke="#000000" stroke-width="0" fill="#ffcc00"/>
                                        <polygon  points="4020.4724,3047.3028 4012.5984,3047.3028 4012.5984,3043.7594 4020.4724,3043.7594 " id="connector6pad" layerid="1" c_etype="pad_shell" gorn="0.1.0.0.0.1.0.0.0.0.6" stroke-opacity="1" stroke="#000000" stroke-width="0" fill="#ffcc00"/>
                                        <polygon  points="4020.4724,3052.3028 4012.5984,3052.3028 4012.5984,3048.7594 4020.4724,3048.7594 " id="connector7pad" layerid="1" c_etype="pad_shell" gorn="0.1.0.0.0.1.0.0.0.0.7" stroke-opacity="1" stroke="#000000" stroke-width="0" fill="#ffcc00"/>
                                        <polygon  points="4020.4724,3057.3028 4012.5984,3057.3028 4012.5984,3053.7594 4020.4724,3053.7594 " id="connector8pad" layerid="1" c_etype="pad_shell" gorn="0.1.0.0.0.1.0.0.0.0.8" stroke-opacity="1" stroke="#000000" stroke-width="0" fill="#ffcc00"/>
                                        <polygon  points="4020.4724,3062.3028 4012.5984,3062.3028 4012.5984,3058.7594 4020.4724,3058.7594 " id="connector9pad" layerid="1" c_etype="pad_shell" gorn="0.1.0.0.0.1.0.0.0.0.9" stroke-opacity="1" stroke="#000000" stroke-width="0" fill="#ffcc00"/>
                                        <polygon  points="4020.4724,3067.3028 4012.5984,3067.3028 4012.5984,3063.7594 4020.4724,3063.7594 " id="connector10pad" layerid="1" c_etype="pad_shell" gorn="0.1.0.0.0.1.0.0.0.0.10" stroke-opacity="1" stroke="#000000" stroke-width="0" fill="#ffcc00"/>
                                        <polygon  points="4020.4724,3072.3028 4012.5984,3072.3028 4012.5984,3068.7594 4020.4724,3068.7594 " id="connector11pad" layerid="1" c_etype="pad_shell" gorn="0.1.0.0.0.1.0.0.0.0.11" stroke-opacity="1" stroke="#000000" stroke-width="0" fill="#ffcc00"/>
                                        <polygon  points="4020.4724,3077.3028 4012.5984,3077.3028 4012.5984,3073.7594 4020.4724,3073.7594 " id="connector12pad" layerid="1" c_etype="pad_shell" gorn="0.1.0.0.0.1.0.0.0.0.12" stroke-opacity="1" stroke="#000000" stroke-width="0" fill="#ffcc00"/>
                                        <polygon  points="4020.4724,3082.3028 4012.5984,3082.3028 4012.5984,3078.7594 4020.4724,3078.7594 " id="connector13pad" layerid="1" c_etype="pad_shell" gorn="0.1.0.0.0.1.0.0.0.0.13" stroke-opacity="1" stroke="#000000" stroke-width="0" fill="#ffcc00"/>
                                        <polygon  points="4029.2717,3088.4055 4025.7283,3088.4055 4025.7283,3080.5315 4029.2717,3080.5315 " id="connector14pad" layerid="1" c_etype="pad_shell" gorn="0.1.0.0.0.1.0.0.0.0.14" stroke-opacity="1" stroke="#000000" stroke-width="0" fill="#ffcc00"/>
                                        <polygon  points="4034.2717,3088.4055 4030.7283,3088.4055 4030.7283,3080.5315 4034.2717,3080.5315 " id="connector15pad" layerid="1" c_etype="pad_shell" gorn="0.1.0.0.0.1.0.0.0.0.15" stroke-opacity="1" stroke="#000000" stroke-width="0" fill="#ffcc00"/>
                                        <polygon  points="4039.2717,3088.4055 4035.7283,3088.4055 4035.7283,3080.5315 4039.2717,3080.5315 " id="connector16pad" layerid="1" c_etype="pad_shell" gorn="0.1.0.0.0.1.0.0.0.0.16" stroke-opacity="1" stroke="#000000" stroke-width="0" fill="#ffcc00"/>
                                        <polygon  points="4044.2717,3088.4055 4040.7283,3088.4055 4040.7283,3080.5315 4044.2717,3080.5315 " id="connector17pad" layerid="1" c_etype="pad_shell" gorn="0.1.0.0.0.1.0.0.0.0.17" stroke-opacity="1" stroke="#000000" stroke-width="0" fill="#ffcc00"/>
                                        <polygon  points="4049.2717,3088.4055 4045.7283,3088.4055 4045.7283,3080.5315 4049.2717,3080.5315 " id="connector18pad" layerid="1" c_etype="pad_shell" gorn="0.1.0.0.0.1.0.0.0.0.18" stroke-opacity="1" stroke="#000000" stroke-width="0" fill="#ffcc00"/>
                                        <polygon  points="4054.2717,3088.4055 4050.7283,3088.4055 4050.7283,3080.5315 4054.2717,3080.5315 " id="connector19pad" layerid="1" c_etype="pad_shell" gorn="0.1.0.0.0.1.0.0.0.0.19" stroke-opacity="1" stroke="#000000" stroke-width="0" fill="#ffcc00"/>
                                        <polygon  points="4059.2717,3088.4055 4055.7283,3088.4055 4055.7283,3080.5315 4059.2717,3080.5315 " id="connector20pad" layerid="1" c_etype="pad_shell" gorn="0.1.0.0.0.1.0.0.0.0.20" stroke-opacity="1" stroke="#000000" stroke-width="0" fill="#ffcc00"/>
                                        <polygon  points="4064.2717,3088.4055 4060.7283,3088.4055 4060.7283,3080.5315 4064.2717,3080.5315 " id="connector21pad" layerid="1" c_etype="pad_shell" gorn="0.1.0.0.0.1.0.0.0.0.21" stroke-opacity="1" stroke="#000000" stroke-width="0" fill="#ffcc00"/>
                                        <polygon  points="4069.2717,3088.4055 4065.7283,3088.4055 4065.7283,3080.5315 4069.2717,3080.5315 " id="connector22pad" layerid="1" c_etype="pad_shell" gorn="0.1.0.0.0.1.0.0.0.0.22" stroke-opacity="1" stroke="#000000" stroke-width="0" fill="#ffcc00"/>
                                        <polygon  points="4074.2717,3088.4055 4070.7283,3088.4055 4070.7283,3080.5315 4074.2717,3080.5315 " id="connector23pad" layerid="1" c_etype="pad_shell" gorn="0.1.0.0.0.1.0.0.0.0.23" stroke-opacity="1" stroke="#000000" stroke-width="0" fill="#ffcc00"/>
                                        <polygon  points="4079.5276,3078.7594 4087.4016,3078.7594 4087.4016,3082.3028 4079.5276,3082.3028 " id="connector24pad" layerid="1" c_etype="pad_shell" gorn="0.1.0.0.0.1.0.0.0.0.24" stroke-opacity="1" stroke="#000000" stroke-width="0" fill="#ffcc00"/>
                                        <polygon  points="4079.5276,3073.7594 4087.4016,3073.7594 4087.4016,3077.3028 4079.5276,3077.3028 " id="connector25pad" layerid="1" c_etype="pad_shell" gorn="0.1.0.0.0.1.0.0.0.0.25" stroke-opacity="1" stroke="#000000" stroke-width="0" fill="#ffcc00"/>
                                        <polygon  points="4079.5276,3068.7594 4087.4016,3068.7594 4087.4016,3072.3028 4079.5276,3072.3028 " id="connector26pad" layerid="1" c_etype="pad_shell" gorn="0.1.0.0.0.1.0.0.0.0.26" stroke-opacity="1" stroke="#000000" stroke-width="0" fill="#ffcc00"/>
                                        <polygon  points="4079.5276,3063.7594 4087.4016,3063.7594 4087.4016,3067.3028 4079.5276,3067.3028 " id="connector27pad" layerid="1" c_etype="pad_shell" gorn="0.1.0.0.0.1.0.0.0.0.27" stroke-opacity="1" stroke="#000000" stroke-width="0" fill="#ffcc00"/>
                                        <polygon  points="4079.5276,3058.7594 4087.4016,3058.7594 4087.4016,3062.3028 4079.5276,3062.3028 " id="connector28pad" layerid="1" c_etype="pad_shell" gorn="0.1.0.0.0.1.0.0.0.0.28" stroke-opacity="1" stroke="#000000" stroke-width="0" fill="#ffcc00"/>
                                        <polygon  points="4079.5276,3053.7594 4087.4016,3053.7594 4087.4016,3057.3028 4079.5276,3057.3028 " id="connector29pad" layerid="1" c_etype="pad_shell" gorn="0.1.0.0.0.1.0.0.0.0.29" stroke-opacity="1" stroke="#000000" stroke-width="0" fill="#ffcc00"/>
                                        <polygon  points="4079.5276,3048.7594 4087.4016,3048.7594 4087.4016,3052.3028 4079.5276,3052.3028 " id="connector30pad" layerid="1" c_etype="pad_shell" gorn="0.1.0.0.0.1.0.0.0.0.30" stroke-opacity="1" stroke="#000000" stroke-width="0" fill="#ffcc00"/>
                                        <polygon  points="4079.5276,3043.7594 4087.4016,3043.7594 4087.4016,3047.3028 4079.5276,3047.3028 " id="connector31pad" layerid="1" c_etype="pad_shell" gorn="0.1.0.0.0.1.0.0.0.0.31" stroke-opacity="1" stroke="#000000" stroke-width="0" fill="#ffcc00"/>
                                        <polygon  points="4079.5276,3038.7594 4087.4016,3038.7594 4087.4016,3042.3028 4079.5276,3042.3028 " id="connector32pad" layerid="1" c_etype="pad_shell" gorn="0.1.0.0.0.1.0.0.0.0.32" stroke-opacity="1" stroke="#000000" stroke-width="0" fill="#ffcc00"/>
                                        <polygon  points="4079.5276,3033.7594 4087.4016,3033.7594 4087.4016,3037.3028 4079.5276,3037.3028 " id="connector33pad" layerid="1" c_etype="pad_shell" gorn="0.1.0.0.0.1.0.0.0.0.33" stroke-opacity="1" stroke="#000000" stroke-width="0" fill="#ffcc00"/>
                                        <polygon  points="4079.5276,3028.7594 4087.4016,3028.7594 4087.4016,3032.3028 4079.5276,3032.3028 " id="connector34pad" layerid="1" c_etype="pad_shell" gorn="0.1.0.0.0.1.0.0.0.0.34" stroke-opacity="1" stroke="#000000" stroke-width="0" fill="#ffcc00"/>
                                        <polygon  points="4079.5276,3023.7594 4087.4016,3023.7594 4087.4016,3027.3028 4079.5276,3027.3028 " id="connector35pad" layerid="1" c_etype="pad_shell" gorn="0.1.0.0.0.1.0.0.0.0.35" stroke-opacity="1" stroke="#000000" stroke-width="0" fill="#ffcc00"/>
                                        <polygon  points="4079.5276,3018.7594 4087.4016,3018.7594 4087.4016,3022.3028 4079.5276,3022.3028 " id="connector36pad" layerid="1" c_etype="pad_shell" gorn="0.1.0.0.0.1.0.0.0.0.36" stroke-opacity="1" stroke="#000000" stroke-width="0" fill="#ffcc00"/>
                                        <polygon  points="4079.5276,3013.7594 4087.4016,3013.7594 4087.4016,3017.3028 4079.5276,3017.3028 " id="connector37pad" layerid="1" c_etype="pad_shell" gorn="0.1.0.0.0.1.0.0.0.0.37" stroke-opacity="1" stroke="#000000" stroke-width="0" fill="#ffcc00"/>
                                        <polygon  points="4048.6811,3042.4405 4048.6811,3047.6768 4043.4449,3047.6768 4043.4449,3042.4405 " id="connector38pad" layerid="1" c_etype="pad_shell" gorn="0.1.0.0.0.1.0.0.0.0.38" stroke-opacity="1" stroke="#000000" stroke-width="0" fill="#ffcc00"/>
                                        <polygon  points="4041.4567,3042.4405 4041.4567,3047.6768 4036.2205,3047.6768 4036.2205,3042.4405 " id="connector39pad" layerid="1" c_etype="pad_shell" gorn="0.1.0.0.0.1.0.0.0.0.39" stroke-opacity="1" stroke="#000000" stroke-width="0" fill="#ffcc00"/>
                                        <polygon  points="4055.9055,3042.4405 4055.9055,3047.6768 4050.6693,3047.6768 4050.6693,3042.4405 " id="connector40pad" layerid="1" c_etype="pad_shell" gorn="0.1.0.0.0.1.0.0.0.0.40" stroke-opacity="1" stroke="#000000" stroke-width="0" fill="#ffcc00"/>
                                        <polygon  points="4055.9055,3035.2161 4055.9055,3040.4524 4050.6693,3040.4524 4050.6693,3035.2161 " id="connector41pad" layerid="1" c_etype="pad_shell" gorn="0.1.0.0.0.1.0.0.0.0.41" stroke-opacity="1" stroke="#000000" stroke-width="0" fill="#ffcc00"/>
                                        <polygon  points="4048.6811,3035.2161 4048.6811,3040.4524 4043.4449,3040.4524 4043.4449,3035.2161 " id="connector42pad" layerid="1" c_etype="pad_shell" gorn="0.1.0.0.0.1.0.0.0.0.42" stroke-opacity="1" stroke="#000000" stroke-width="0" fill="#ffcc00"/>
                                        <polygon  points="4041.4567,3035.2161 4041.4567,3040.4524 4036.2205,3040.4524 4036.2205,3035.2161 " id="connector43pad" layerid="1" c_etype="pad_shell" gorn="0.1.0.0.0.1.0.0.0.0.43" stroke-opacity="1" stroke="#000000" stroke-width="0" fill="#ffcc00"/>
                                        <polygon  points="4041.4567,3049.6649 4041.4567,3054.9012 4036.2205,3054.9012 4036.2205,3049.6649 " id="connector44pad" layerid="1" c_etype="pad_shell" gorn="0.1.0.0.0.1.0.0.0.0.44" stroke-opacity="1" stroke="#000000" stroke-width="0" fill="#ffcc00"/>
                                        <polygon  points="4048.6811,3049.6649 4048.6811,3054.9012 4043.4449,3054.9012 4043.4449,3049.6649 " id="connector45pad" layerid="1" c_etype="pad_shell" gorn="0.1.0.0.0.1.0.0.0.0.45" stroke-opacity="1" stroke="#000000" stroke-width="0" fill="#ffcc00"/>
                                        <polygon  points="4055.9055,3049.6649 4055.9055,3054.9012 4050.6693,3054.9012 4050.6693,3049.6649 " id="connector46pad" layerid="1" c_etype="pad_shell" gorn="0.1.0.0.0.1.0.0.0.0.46" stroke-opacity="1" stroke="#000000" stroke-width="0" fill="#ffcc00"/>
                                    </g>
                                    <g  id="silkscreen" gorn="0.1.0.0.0.1.0.0.0.1">
                                        <polyline  points="4085.5 3086.4995 4085.5 3083.2128" id="gge211" layerid="3" gorn="0.1.0.0.0.1.0.0.0.1.0" stroke-opacity="1" stroke="#000000" net="" locked="0" stroke-width="1" stroke-linecap="round" fill="none"/>
                                        <polyline  points="4075.1817 3086.4995 4085.5 3086.4995" id="gge214" layerid="3" gorn="0.1.0.0.0.1.0.0.0.1.1" stroke-opacity="1" stroke="#000000" net="" locked="0" stroke-width="1" stroke-linecap="round" fill="none"/>
                                        <polyline  points="4085.5 3012.8494 4085.5 3010.8459" id="gge217" layerid="3" gorn="0.1.0.0.0.1.0.0.0.1.2" stroke-opacity="1" stroke="#000000" net="" locked="0" stroke-width="1" stroke-linecap="round" fill="none"/>
                                        <polyline  points="4014.5669 3083.2126 4014.5669 3086.4995 4024.8184 3086.4995" id="gge220" layerid="3" gorn="0.1.0.0.0.1.0.0.0.1.3" stroke-opacity="1" stroke="#000000" net="" locked="0" stroke-width="1" stroke-linecap="round" fill="none"/>
                                        <polyline  points="4014.5669 3010.8459 4014.5669 3012.8494" id="gge223" layerid="3" gorn="0.1.0.0.0.1.0.0.0.1.4" stroke-opacity="1" stroke="#000000" net="" locked="0" stroke-width="1" stroke-linecap="round" fill="none"/>
                                        <polyline  points="4085.4331 3010.8459 4014.5669 3010.8459" id="gge226" layerid="3" gorn="0.1.0.0.0.1.0.0.0.1.5" stroke-opacity="1" stroke="#000000" net="" locked="0" stroke-width="1" stroke-linecap="round" fill="none"/>
                                    </g>
                                </g>
                            </g>
                        </g>
                    </g>
                </g>
            </g>
        </g>
    </g>
</svg>
