<?xml version='1.0' encoding='UTF-8' standalone='no'?>
<!-- Created with Inkscape (http://www.inkscape.org/) -->
<svg xmlns="http://www.w3.org/2000/svg" height="6mm" viewBox="0 0 25.993 6" version="1.1"  width="25.993mm" id="svg5" gorn="0">
    <desc >
        <referenceFile >Acclaim-logo-Cobre.svg</referenceFile>
    </desc>
    <defs  id="defs10909"/>
    <g  transform="matrix(0.13,0,0,0.12996493,-0.80765165,-1.202362)">
        <g >
            <g  stroke-width="7.69334" id="copper1" gorn="0.2.0.0">
                <path d="m 132.18331,18.108774 c -1.65299,0.0039 -3.3,0.280451 -4.90409,0.830957 -5.227,1.7939 -9.06462,6.175045 -10.25003,11.702645 -0.20199,0.928 -0.21187,1.108363 -0.21187,2.979663 0,1.8751 0.0129,2.050447 0.21394,2.988449 0.2854,1.329999 0.67149,2.471071 1.23249,3.639571 2.17589,4.533098 6.34741,7.729432 11.28251,8.644432 l -5.3e-4,-0.0016 c 0.3566,0.068 1.29393,0.103804 2.69493,0.108005 1.9816,0.006 2.21733,-0.0079 3.04632,-0.180869 0.973,-0.202999 2.21245,-0.579882 2.88045,-0.874882 0.1176,-0.05345 0.14716,-0.06081 0.22841,-0.09405 V 34.81008 c -0.0347,0.235491 -0.0935,0.436586 -0.20257,0.764811 -0.3132,0.9433 -0.69791,1.592555 -1.36891,2.313556 -0.91279,0.980273 -2.0697,1.618136 -3.39049,1.871202 h -5.3e-4 c -2.91223,0.556924 -5.85301,-1.012304 -6.94014,-3.703651 -0.353,-0.879498 -0.45321,-1.402659 -0.45321,-2.433959 0,-1.0313 0.0982,-1.55396 0.45321,-2.43396 0.97548,-2.415075 3.31416,-3.777683 5.70508,-3.807519 1.53263,-0.01913 3.08657,0.5093 4.31653,1.659847 0.8745,0.8185 1.43548,1.741322 1.78748,2.941422 0.0436,0.143694 0.0715,0.287178 0.0935,0.443901 V 19.396034 c -2.03061,-0.860118 -4.1259,-1.292156 -6.21254,-1.28726 z"  id="path4365" fill="#fcc000" gorn="0.2.0.0.0" stroke="none" style="stroke-width:2.03552"/>
                <path d="M 149.65991,12.962034 V 9.2518339 h 4.9992 4.9991 v 3.7102001 3.7103 h -4.9991 -4.9992 z"  id="path4373" fill="#fcc000" gorn="0.2.0.0.1" stroke="none" style="stroke-width:7.69334"/>
                <path d="m 53.270356,9.255568 v 39.758814 h 5.105143 5.205857 V 29.134975 9.255568 h -5.236647 z"  id="path6331" fill="#fcc000" gorn="0.2.0.0.2" stroke="none" style="stroke-width:7.69334"/>
                <path d="m 161.92341,33.856834 v -15.1536 h 4.8039 4.8038 v 0.396 c 0,0.353 0.02,0.391 0.148,0.349 0.693,-0.22 1.8344,-0.366 3.1727,-0.407 4.483,-0.137 7.8664,0.879 10.145,3.0455 l 0.427,0.406 0.728,-0.65 c 1.5382,-1.3737 2.9408,-2.1443 4.5945,-2.5239 1.3779,-0.316 4.2086,-0.275 6.2394,0.09 4.8565,0.874 7.7661,3.7014 8.7166,8.4689 0.339,1.6994 0.354,2.2044 0.354,11.891 v 9.2426 h -4.6057 -4.6058 l -0.02,-8.9242 c -0.02,-8.4273 -0.03,-8.9481 -0.168,-9.3538 -0.242,-0.724 -0.516,-1.1826 -0.979,-1.6466 -0.753,-0.753 -1.6096,-1.0873 -2.7852,-1.0873 -1.8403,0 -3.1598,0.961 -3.7524,2.7339 -0.136,0.405 -0.145,0.935 -0.168,9.3538 l -0.02,8.9242 h -4.996 -4.996 v -8.9686 c 0,-8.0204 -0.01,-9.0135 -0.126,-9.3929 -0.202,-0.681 -0.486,-1.1659 -0.961,-1.6412 -0.751,-0.751 -1.6101,-1.0873 -2.7792,-1.0873 -0.803,0 -1.3343,0.129 -2.0093,0.486 -0.95,0.503 -1.7047,1.6402 -1.8546,2.7956 -0.05,0.347 -0.08,4.0913 -0.08,9.1968 l -0.002,8.6117 h -4.6086 -4.6086 z"  id="path4371" fill="#fcc000" gorn="0.2.0.0.3" stroke="none" style="stroke-width:7.69334"/>
                <path d="m 149.65991,33.816834 v -15.1932 l 4.9796,0.02 4.9796,0.02 0.02,15.1731 0.02,15.1731 h -4.9994 -4.9993 z"  id="path4369" fill="#fcc000" gorn="0.2.0.0.4" stroke="none" style="stroke-width:7.69334"/>
                <path d="m 53.209835,9.255568 -3.615283,5.682857 c -3.015099,4.7393 -20.498115,32.175889 -21.427115,33.626888 v -0.0041 l -0.287838,0.448551 5.489587,-0.0016 5.489588,-0.0016 1.634525,-2.583304 c 1.0746,-1.697601 1.694709,-2.609451 1.80971,-2.64945 0.0963,-0.04 2.603235,-0.07992 5.571236,-0.08992 l 5.396053,-0.02016 V 29.822271 l -0.0041,3.491776 h -2.228286 -2.228805 l 0.260966,-0.41031 c 0.143701,-0.2256 1.117275,-1.763363 2.163175,-3.417363 1.0463,-1.654 1.927323,-3.041465 1.967323,-3.081465 5.29e-4,-6.35e-4 0.0013,-6.35e-4 0.0021,-5.3e-4 0.03906,0.0081 0.0677,1.527486 0.0677,3.41788 V 9.255568 Z"  id="path4355" fill="#fcc000" gorn="0.2.0.0.5" stroke="none" style="stroke-width:7.69334"/>
                <path d="M 105.13641,29.130734 V 9.2514339 h 4.9601 4.9601 v 19.8793001 19.8793 h -4.9601 -4.9601 z"  id="path4363" fill="#fcc000" gorn="0.2.0.0.6" stroke="none" style="stroke-width:7.69334"/>
                <path d="m 88.520605,42.932134 c -3.8511,-5.8411 -5.9659,-9.1543 -6.9297,-10.8565 -0.626,-1.1054 -0.901,-1.9215 -0.902,-2.6769 -0.002,-1.262 0.373,-2.0179 2.9659,-5.9701 0.761,-1.16 3.1144,-4.8244 5.2301,-8.1431 l 3.8466,-6.0341001 h 5.4606 c 3.003305,0 5.460505,0.02 5.460505,0.04 0,0.02 -2.5529,4.0360001 -5.673205,8.9243001 -3.1202,4.8883 -5.8235,9.1949 -6.0072,9.5701 -0.628,1.2817 -0.636,2.0728 -0.04,3.3251 0.171,0.357 2.8567,4.5059 5.975,9.2296 3.115505,4.7194 5.664605,8.6016 5.664605,8.627 0,0.03 -2.4869,0.04 -5.526405,0.04 l -5.5263,-0.0048 z"  id="path4361" fill="#fcc000" gorn="0.2.0.0.7" stroke="none" style="stroke-width:7.69334"/>
                <path d="m 73.403705,42.902134 c -5.1166,-7.7452 -6.9963,-10.754 -7.494,-11.9958 -0.327,-0.816 -0.412,-1.3807 -0.302,-2.0107 0.192,-1.1053 0.68,-2.0173 2.8341,-5.2972 0.828,-1.2613 3.2283,-5.0026 5.3334,-8.314 l 3.8275,-6.0206001 5.4919,-0.0041 c 4.374,-0.0032 5.4798,0.02 5.4325,0.09 -0.03,0.05 -2.6047,4.0872001 -5.7156,8.9633001 -3.1109,4.8761 -5.7756,9.1029 -5.9217,9.3929 -0.692,1.3741 -0.661,2.342 0.119,3.7632 0.167,0.304 2.8204,4.3588 5.8968,9.0111 3.0764,4.6522 5.5935,8.4748 5.5935,8.4946 0,0.02 -2.4879,0.04 -5.5286,0.04 h -5.5286 z"  id="path4359" fill="#fcc000" gorn="0.2.0.0.8" stroke="none" style="stroke-width:7.69334"/>
                <path d="m 6.7270051,54.892234 c 0.283,-0.29 5.0792999,-5.3428 10.6586999,-11.2285 16.9883,-17.9209 30.6493,-32.3146 31.0999,-32.7677 0.389,-0.391 0.354,-0.327 -0.387,0.703 -1.3982,1.9447 -9.465,13.0938 -19.3691,26.7699 -5.2335,7.2267 -9.5155,13.1582 -9.5155,13.1813 0,0.02 42.0747,0.04 93.499305,0.04 h 93.4994 v 1.9137 1.9138 h -100 H 6.2127051 Z"  id="path1300" fill="#fcc000" gorn="0.2.0.0.9" stroke="none" style="stroke-width:7.69334"/>
                <path d="m 138.31271,18.390411 v 30.619836 h 4.66937 4.72063 V 33.700587 18.390411 h -4.72063 z"  id="path8468" fill="#fcc000" gorn="0.2.0.0.10" stroke="none" style="stroke-width:7.69334"/>
            </g>
        </g>
    </g>
</svg>
