<?xml version='1.0' encoding='UTF-8' standalone='no'?>
<!-- Creator: CorelDRAW 2018 -->
<svg xmlns="http://www.w3.org/2000/svg" gorn="0" shape-rendering="geometricPrecision" fill-rule="evenodd" image-rendering="optimizeQuality" viewBox="0 0 12600 4800"  id="svg1" height="48mm" width="126mm" xml:space="preserve" xmlns:xml="http://www.w3.org/XML/1998/namespace" clip-rule="evenodd" version="1.0" text-rendering="geometricPrecision">
    <desc >
        <referenceFile >antenna-1.1.svg</referenceFile>
    </desc>
    <defs  id="defs1"/>
    <g gorn="0.2"  id="copper0">
        <g gorn="0.2.0"  id="copper1">
            <path gorn="0.2.0.0"  id="connector0pin" d="m 9196.7598,305.57001 h 100 v 100 h -100 z" fill="#ffc000" stroke="none"/>
            <path gorn="0.2.0.1"  id="connector1pin" d="m 3545.1599,305.14001 h 100 v 100 h -100 z" fill="#ffc000" stroke="none"/>
            <path gorn="0.2.0.2"  id="connector2pin" d="m 5409.4,0 h 100 v 50.743787 h -100 z" fill="#ffc000" stroke="none" style="stroke-width:0.999999"/>
            <path gorn="0.2.0.3"  id="nonconn0" d="M2818.44 405.19c-4.35,0.11 -8.56,0.75 -12.53,1.8 -5.72,1.51 -9.52,4.43 -11.68,7.85 -3.86,6.1 -5.54,13.78 -5.35,21.11 0.04,1.72 0.35,3.67 0.89,5.7l1.3 5.59c4.74,19.09 11.41,43.5 18.91,70.16 11.59,41.2 17.78,62.45 23.37,81.58l1.25 4.76 0.32 -0.08c12.71,53.44 8.52,115.28 -21.52,169.93 -25.1,45.65 -67.09,84.81 -130.57,107.7l-3.15 1.06 0.03 0.11c-32.53,10.44 -46.19,14.98 -59.81,19.49 -32.85,10.89 -65.58,21.76 -96.66,31.21 -87.99,26.8 -198.65,62.24 -311.71,98.45 -190,60.84 -386.76,123.85 -530.8,163.06 -47.13,12.82 -90.46,27.07 -134.06,41.4 -44.47,14.62 -89.34,29.36 -143.7,44.3 -16.3,4.48 -38.63,11.17 -63.38,18.76l-4.36 1.23 -64.7 20.62 -7.08 1.95 -567.79 175.94c-6.08,2.32 -12.77,4.4 -19.97,6.26l-6.35 1.42c-44.34,9.8 -96.63,4.03 -142.14,-16.44 -48.57,-21.85 -92.41,-60.87 -115.43,-116.29l-0.14 0.06c-2.68,-6.48 -5.23,-13.99 -7.61,-22.55l-0.27 0.08c-11.91,-37.53 -21.76,-68.26 -28.14,-87.77 -8.87,-27.14 -17.57,-53.35 -25.27,-76.01l-2.22 -7.5c-1.22,-1.68 -4.99,-4.15 -10.19,-6.78 -6.6,-3.34 -12.97,-5.16 -17.27,-4.42 -2,0.33 -4.49,1.49 -6.44,2.22l0.08 0.24c-23.06,7.86 -70.4,25.98 -116.02,44.5 -36.05,14.64 -68.98,28.68 -84.03,36.46 -4.37,2.26 -8.38,5.93 -10.99,10.85 -2.55,4.8 -3.84,11.61 -3.11,20.64 0.21,2.62 0.31,5.22 0.31,7.81l0.08 1926.2c68.33,16.38 129.41,51.46 177.49,99.53 67.86,67.87 109.84,161.63 109.84,265.17 0,103.53 -41.98,197.29 -109.84,265.16 -48.08,48.07 -109.16,83.15 -177.49,99.53l-0.09 26.71c1.26,7.32 6.2,13.65 10.31,17.94 157.11,107.61 308.89,223.79 460.1,339.51 164.83,126.15 329.01,251.81 496.14,363.12 2.52,1.67 6.02,3.59 9.65,4.7l0.36 0.11 0.03 -0.11c2.18,0.67 4.28,1.11 5.8,1.09l1.56 0 0 -0.39 4846.06 0 0.01 -19.86c-0.37,-31.28 -0.75,-62.86 0.22,-92.88l0.1 -2.18c2.01,-101.28 43.9,-192.55 110.52,-258.66 67.95,-67.41 161.23,-109.07 263.98,-109.07 101.37,0 193.52,40.53 261.19,106.31 65.85,64.01 108.24,152.17 112.99,250.28 0.39,3.57 0.58,7.13 0.59,10.67l-0.21 115.78 4778.45 0.08c3.28,-0.05 6.61,-0.59 10.14,-1.75 3.31,-1.09 7.09,-3.15 11.52,-6.36l4.69 -3.2c206.63,-156.93 416.71,-306.83 625.24,-455.65 132.8,-94.76 264.87,-189.01 373.85,-268.55 5.52,-4.03 9.38,-8.08 11.69,-12.28l1.42 -3.08c-67.13,-16.68 -127.12,-51.43 -174.49,-98.8 -67.86,-67.86 -109.85,-161.62 -109.85,-265.16 0,-103.53 41.98,-197.3 109.84,-265.16 48.2,-48.2 109.46,-83.33 178.01,-99.66l-0.15 -1933.26c-0.29,-11.32 -3.88,-12.5 -5.12,-12.9 -28.75,-9.3 -71.36,-19.24 -113.43,-27.81 -55.83,-11.37 -108.18,-20.01 -125.92,-21.62 -1.36,2.36 -4.76,26.1 -10.95,52.44 -6.61,28.1 -13.48,57.29 -24.96,87.26 -24.72,64.46 -65.67,105.52 -112.19,129.3 -57.88,29.57 -121.89,29.56 -173.3,13.86 -222.93,-68.1 -445.99,-135.94 -669.01,-203.75 -458.5,-139.43 -917.12,-278.9 -1343.47,-410.98 -60.7,-18.79 -104.43,-60.09 -130.47,-108.55 -28.9,-53.8 -35.96,-118.6 -20.03,-171.8 14.31,-47.8 27.75,-99.8 37.25,-142.46 5.96,-26.77 10.53,-49.71 12.82,-64.89l-624.67 0 0 -100 633.07 0c44.36,0 93.24,37.65 93.24,84.28 0,33.39 -27.46,156.28 -56.01,251.59 -16.34,54.53 13.41,134.62 84.1,156.52 669.88,207.54 1341.4,409.83 2012.09,614.73 53.76,16.42 129.65,4.12 163.22,-83.4 35.33,-92.16 23.81,-207.78 132.61,-203.96 30.57,1.89 188.92,29.21 266.39,54.29 18.68,6.04 72.24,23.22 74.35,105.51 0.02,666.27 0.28,1434.51 0.13,2025.7l-12.44 -0.29c-151.88,0 -275,123.12 -275,275.01 0,151.88 123.12,275 275,275l12.1 -0.28 -0.1 82.45c-3.82,43.8 -21.33,76.45 -57.18,102.62 -328.55,239.81 -680.32,481.83 -1003.78,727.79 -26.41,19.14 -50.99,26.36 -78.69,26.86l-4805.81 -0.08c-45.89,0 -73.8,-36.53 -73.8,-76.99l0.04 -130.66 -0.12 -7.78c-4.12,-148.29 -125.59,-267.22 -274.88,-267.22 -151.16,0 -273.8,121.95 -274.96,272.84l-0.03 0.2c-1.43,43.91 0.15,90.43 0.15,134.65 0,35.08 -28.86,74.96 -74.61,74.96l-4871.44 0c-30.75,0.57 -57.69,-12.43 -72.48,-22.2 -325.43,-216.75 -634.17,-482.58 -962.89,-707.16 -12.66,-11.49 -48.79,-43.32 -48.49,-100.59l0 -112.71 12.33 0.29c151.89,0 275,-123.12 275,-275 0,-151.89 -123.11,-275.01 -275,-275.01l-12.33 0.29 0 -2016.18c-5.16,-63.42 27.98,-107.27 68.01,-127.97 41.93,-21.67 167.53,-71.07 213.72,-86.82 62.45,-26.95 149.86,19.66 162.6,78.74 16.23,47.8 36.69,110.61 54.19,165.73 19.11,74.28 110.97,105 162.18,83.82l579.21 -179.48c45.52,-14.39 95.26,-30.08 136.35,-41.39 95.53,-26.26 184.67,-60.75 277.76,-86.09 235.55,-64.12 584.68,-182.63 839.77,-260.34 51.17,-15.57 102.88,-33.62 154.91,-50.31 83.43,-30.09 102.2,-102.83 88.41,-160.83 -15.74,-53.83 -32.84,-112.57 -44.36,-159.67 -16.6,-62.66 16.25,-158.61 122.81,-161.46l829.06 -0.05 0 99.62 -826.72 0.04zm-2471.07 771.75l-0.06 -0.27 0.06 0.27zm-26.71 -8.04c0.48,-0.32 2.28,-1.16 1.06,-0.63l-1.1 0.46 0.04 0.17zm9508.26 -763.32l-0.02 0.1c0.72,-0.06 1.69,-0.1 0.93,-0.1l-0.91 0z" fill="#FFC000" stroke="none"/>
            <path gorn="0.2.0.4"  id="nonconn1" d="M 5409.3856 0 L 5409.3856 51.728109 L 5789.0007 51.728109 L 5789.0007 414.96175 C 5818.4653 444.02111 5858.7069 464.31274 5909.8202 464.31274 L 6374.4946 464.31274 L 6454.3864 464.31274 L 6454.3864 364.31885 L 5909.8202 364.31885 C 5859.2302 364.31885 5834.941 319.42111 5834.941 288.25114 L 5834.941 74.465739 C 5834.941 37.395776 5805.7717 0 5759.7518 0 L 5409.3856 0 z " fill="#ffc000" stroke="none"/>
            <circle gorn="0.2.0.5"  id="nonconn2" stroke-width="25" fill="none" stroke="#ffc000" cy="431.70001" r="37.5" cx="9777.9658"/>
            <circle gorn="0.2.0.6"  id="nonconn3" stroke-width="25" fill="none" stroke="#ffc000" cy="431.65158" r="37.5" cx="2816.2463"/>
            <circle gorn="0.2.0.7"  id="nonconn4" stroke-width="25" fill="none" stroke="#ffc000" cy="74.602707" r="37.5" cx="5762.3926"/>
        </g>
    </g>
</svg>
