<?xml version='1.0' encoding='UTF-8' standalone='no'?>
<!-- Created with Fritzing (https://fritzing.org/) -->
<svg xmlns="http://www.w3.org/2000/svg" version="1.2" gorn="0" y="0in"  viewBox="0 0 198.425 170.079" id="svg2" x="0in" width="2.75591in" height="2.3622in">
    <desc >
        <referenceFile >Untitled Sketch 6_pcb.svg</referenceFile>
    </desc>
    <defs  id="defs2"/>
    <g gorn="0.2"  id="copper1">
        <path gorn="0.2.0" d="m 38.2836,45.8495 c -0.322594,0 -0.58301,0.204775 -0.58301,0.459961 v 0.921387 c 0,0.255203 0.260419,0.461426 0.58301,0.461426 h 5.92237 c 0.322591,0 0.581542,-0.206249 0.581542,-0.461426 v -0.921387 c 0,-0.255203 -0.258945,-0.459961 -0.581542,-0.459961 z" fill="#ffc000"  id="connector0pin" stroke="none"/>
        <path gorn="0.2.1" d="m 38.2836,48.6842 c -0.322594,0 -0.58301,0.204775 -0.58301,0.459961 v 0.921387 c 0,0.255175 0.260419,0.461426 0.58301,0.461426 h 5.92237 c 0.322591,0 0.581542,-0.206249 0.581542,-0.461426 v -0.921387 c 0,-0.255175 -0.258945,-0.459961 -0.581542,-0.459961 z" fill="#ffc000"  id="connector1pin" stroke="none"/>
        <path gorn="0.2.2" d="m 38.2836,51.5186 c -0.322594,0 -0.58301,0.204775 -0.58301,0.459961 v 0.921387 c 0,0.255203 0.260419,0.461426 0.58301,0.461426 h 5.92237 c 0.322591,0 0.581542,-0.206249 0.581542,-0.461426 v -0.921387 c 0,-0.255203 -0.258945,-0.459961 -0.581542,-0.459961 z" fill="#ffc000"  id="connector2pin" stroke="none"/>
        <path gorn="0.2.3" d="m 38.2836,54.3529 c -0.322594,0 -0.58301,0.206249 -0.58301,0.461426 v 0.919922 c 0,0.255203 0.260419,0.461426 0.58301,0.461426 h 5.92237 c 0.322591,0 0.581542,-0.206249 0.581542,-0.461426 v -0.919922 c 0,-0.255203 -0.258945,-0.461426 -0.581542,-0.461426 z" fill="#ffc000"  id="connector3pin" stroke="none"/>
        <path gorn="0.2.4" d="m 38.2836,57.1876 c -0.322594,0 -0.58301,0.206249 -0.58301,0.461426 v 0.921387 c 0,0.255203 0.260419,0.459961 0.58301,0.459961 h 5.92237 c 0.322591,0 0.581542,-0.204775 0.581542,-0.459961 L 44.7877,57.649 c 0,-0.255175 -0.258945,-0.461426 -0.581542,-0.461426 z" fill="#ffc000"  id="connector4pin" stroke="none"/>
        <path gorn="0.2.5" d="m 38.2836,60.0219 c -0.322594,0 -0.58301,0.206249 -0.58301,0.461426 v 0.921387 c 0,0.255175 0.260419,0.459961 0.58301,0.459961 h 5.92237 c 0.322591,0 0.581542,-0.204775 0.581542,-0.459961 v -0.921387 c 0,-0.255203 -0.258945,-0.461426 -0.581542,-0.461426 z" fill="#ffc000"  id="connector5pin" stroke="none"/>
        <path gorn="0.2.6" d="m 38.2836,62.8566 c -0.322594,0 -0.58301,0.206249 -0.58301,0.461426 v 0.921387 c 0,0.255203 0.260419,0.459961 0.58301,0.459961 h 5.92237 c 0.322591,0 0.581542,-0.204775 0.581542,-0.459961 v -0.921387 c 0,-0.255203 -0.258945,-0.461426 -0.581542,-0.461426 z" fill="#ffc000"  id="connector6pin" stroke="none"/>
        <path gorn="0.2.7" d="m 38.2836,65.6923 c -0.322594,0 -0.58301,0.204775 -0.58301,0.459961 v 0.921387 c 0,0.255203 0.260419,0.459961 0.58301,0.459961 h 5.92237 c 0.322591,0 0.581542,-0.204775 0.581542,-0.459961 v -0.921387 c 0,-0.255203 -0.258945,-0.459961 -0.581542,-0.459961 z" fill="#ffc000"  id="connector7pin" stroke="none"/>
        <path gorn="0.2.8" d="m 38.2836,68.527 c -0.322594,0 -0.58301,0.204775 -0.58301,0.459961 v 0.921387 c 0,0.255175 0.260419,0.461424 0.58301,0.461424 h 5.92237 c 0.322591,0 0.581542,-0.206249 0.581542,-0.461424 v -0.921387 c 0,-0.255203 -0.258945,-0.459961 -0.581542,-0.459961 z" fill="#ffc000"  id="connector8pin" stroke="none"/>
        <path gorn="0.2.9" d="m 38.2836,71.3614 c -0.322594,0 -0.58301,0.204775 -0.58301,0.459961 l 2.1e-4,0.921339 c 0,0.255203 0.260419,0.461424 0.58301,0.461424 h 5.92237 c 0.322591,0 0.581542,-0.20622 0.581542,-0.461424 v -0.921387 c 0,-0.255175 -0.258945,-0.459961 -0.581542,-0.459961 z" fill="#ffc000"  id="connector9pin" stroke="none"/>
        <path gorn="0.2.10" d="m 38.2836,74.1957 c -0.322594,0 -0.58301,0.204775 -0.58301,0.459961 v 0.921385 c 0,0.255175 0.260419,0.461426 0.58301,0.461426 h 5.92237 c 0.322591,0 0.581542,-0.20622 0.581542,-0.461426 v -0.921385 c 0,-0.255175 -0.258945,-0.459961 -0.581542,-0.459961 z" fill="#ffc000"  id="connector10pin" stroke="none"/>
        <path gorn="0.2.11" d="m 38.2836,77.0304 c -0.322594,0 -0.58301,0.206249 -0.58301,0.461424 v 0.919922 c 0,0.255175 0.260419,0.461426 0.58301,0.461426 h 5.92237 c 0.322591,0 0.581542,-0.20622 0.581542,-0.461426 v -0.919922 c 0,-0.255175 -0.258945,-0.461424 -0.581542,-0.461424 z" fill="#ffc000"  id="connector11pin" stroke="none"/>
        <path gorn="0.2.12" d="m 38.2836,79.8647 c -0.322594,0 -0.58301,0.206249 -0.58301,0.461424 v 0.921387 c 0,0.255203 0.260419,0.459961 0.58301,0.459961 h 5.92237 c 0.322591,0 0.581542,-0.204746 0.581542,-0.459961 v -0.921387 c 0,-0.255203 -0.258945,-0.461424 -0.581542,-0.461424 z" fill="#ffc000"  id="connector12pin" stroke="none"/>
        <path gorn="0.2.13" d="m 38.2836,82.6991 c -0.322594,0 -0.58301,0.206249 -0.58301,0.461424 v 0.921387 c 0,0.255203 0.260419,0.459961 0.58301,0.459961 h 5.92237 c 0.322591,0 0.581542,-0.204746 0.581542,-0.459961 v -0.921387 c 0,-0.255203 -0.258945,-0.461424 -0.581542,-0.461424 z" fill="#ffc000"  id="connector13pin" stroke="none"/>
        <path gorn="0.2.14" d="m 38.2836,85.5337 c -0.322594,0 -0.58301,0.206249 -0.58301,0.461424 v 0.921387 c 0,0.255175 0.260419,0.459961 0.58301,0.459961 h 5.92237 c 0.322591,0 0.581542,-0.204746 0.581542,-0.459961 v -0.921387 c 0,-0.255175 -0.258945,-0.461424 -0.581542,-0.461424 z" fill="#ffc000"  id="connector14pin" stroke="none"/>
        <path gorn="0.2.15" d="m 38.2836,88.3695 c -0.322594,0 -0.58301,0.204775 -0.58301,0.459961 v 0.921387 c 0,0.255203 0.260419,0.459961 0.58301,0.459961 h 5.92237 c 0.322591,0 0.581542,-0.204775 0.581542,-0.459961 v -0.921387 c 0,-0.255203 -0.258945,-0.459961 -0.581542,-0.459961 z" fill="#ffc000"  id="connector15pin" stroke="none"/>
        <path gorn="0.2.16" d="m 38.2836,91.2042 c -0.322594,0 -0.58301,0.204775 -0.58301,0.459961 v 0.921387 c 0,0.255175 0.260419,0.459961 0.58301,0.459961 h 5.92237 c 0.322591,0 0.581542,-0.204775 0.581542,-0.459961 v -0.921387 c 0,-0.255175 -0.258945,-0.459961 -0.581542,-0.459961 z" fill="#ffc000"  id="connector16pin" stroke="none"/>
        <path gorn="0.2.17" d="m 38.2836,94.0385 c -0.322594,0 -0.58301,0.204775 -0.58301,0.459961 v 0.921387 c 0,0.255175 0.260419,0.461426 0.58301,0.461426 h 5.92237 c 0.322591,0 0.581542,-0.206249 0.581542,-0.461426 v -0.921387 c 0,-0.255175 -0.258945,-0.459961 -0.581542,-0.459961 z" fill="#ffc000"  id="connector17pin" stroke="none"/>
        <path gorn="0.2.18" d="m 38.2836,96.8732 c -0.322594,0 -0.58301,0.204775 -0.58301,0.459961 v 0.921387 c 0,0.255175 0.260419,0.461426 0.58301,0.461426 h 5.92237 c 0.322591,0 0.581542,-0.206249 0.581542,-0.461426 v -0.921387 c 0,-0.255175 -0.258945,-0.459961 -0.581542,-0.459961 z" fill="#ffc000"  id="connector18pin" stroke="none"/>
        <path gorn="0.2.19" d="m 38.2836,99.7075 c -0.322594,0 -0.58301,0.204775 -0.58301,0.45996 v 0.92139 c 0,0.2552 0.260419,0.46142 0.58301,0.46142 h 5.92237 c 0.322591,0 0.581542,-0.20622 0.581542,-0.46142 v -0.92139 c 0,-0.255174 -0.258945,-0.45996 -0.581542,-0.45996 z" fill="#ffc000"  id="connector19pin" stroke="none"/>
        <path gorn="0.2.20" d="m 38.2836,102.542 c -0.322594,0 -0.58301,0.20622 -0.58301,0.46143 v 0.91992 c 0,0.2552 0.260419,0.46142 0.58301,0.46142 h 5.92237 c 0.322591,0 0.581542,-0.20622 0.581542,-0.46142 v -0.91992 c 0,-0.25518 -0.258945,-0.46143 -0.581542,-0.46143 z" fill="#ffc000"  id="connector20pin" stroke="none"/>
        <path gorn="0.2.21" d="m 38.2836,105.377 c -0.322594,0 -0.58301,0.20622 -0.58301,0.46143 v 0.92138 c 0,0.25521 0.260419,0.45996 0.58301,0.45996 h 5.92237 c 0.322591,0 0.581542,-0.20477 0.581542,-0.45996 v -0.92138 c 0,-0.25518 -0.258945,-0.46143 -0.581542,-0.46143 z" fill="#ffc000"  id="connector21pin" stroke="none"/>
        <path gorn="0.2.22" d="m 38.2836,108.211 c -0.322594,0 -0.58301,0.20625 -0.58301,0.46143 v 0.92138 c 0,0.25521 0.260419,0.45996 0.58301,0.45996 h 5.92237 c 0.322591,0 0.581542,-0.20474 0.581542,-0.45996 v -0.92138 c 0,-0.25518 -0.258945,-0.46143 -0.581542,-0.46143 z" fill="#ffc000"  id="connector22pin" stroke="none"/>
        <path gorn="0.2.23" d="m 38.2836,111.046 c -0.322594,0 -0.58301,0.20625 -0.58301,0.46143 v 0.92138 c 0,0.25521 0.260419,0.45996 0.58301,0.45996 h 5.92237 c 0.322591,0 0.581542,-0.20474 0.581542,-0.45996 v -0.92138 c 0,-0.25518 -0.258945,-0.46143 -0.581542,-0.46143 z" fill="#ffc000"  id="connector23pin" stroke="none"/>
        <path gorn="0.2.24" d="m 38.2836,113.881 c -0.322594,0 -0.58301,0.20477 -0.58301,0.45996 v 0.92139 c 0,0.2552 0.260419,0.45996 0.58301,0.45996 h 5.92237 c 0.322591,0 0.581542,-0.20478 0.581542,-0.45996 v -0.92139 c 0,-0.25517 -0.258945,-0.45996 -0.581542,-0.45996 z" fill="#ffc000"  id="connector24pin" stroke="none"/>
        <path gorn="0.2.25" d="m 38.2836,116.716 c -0.322594,0 -0.58301,0.20477 -0.58301,0.45996 v 0.92139 c 0,0.2552 0.260419,0.46142 0.58301,0.46142 h 5.92237 c 0.322591,0 0.581542,-0.20622 0.581542,-0.46142 v -0.92139 c 0,-0.25517 -0.258945,-0.45996 -0.581542,-0.45996 z" fill="#ffc000"  id="connector25pin" stroke="none"/>
        <path gorn="0.2.26" d="m 38.2836,119.55 c -0.322594,0 -0.58301,0.20475 -0.58301,0.45996 v 0.92139 c 0,0.2552 0.260419,0.46142 0.58301,0.46142 h 5.92237 c 0.322591,0 0.581542,-0.20622 0.581542,-0.46142 v -0.92139 c 0,-0.25517 -0.258945,-0.45996 -0.581542,-0.45996 z" fill="#ffc000"  id="connector26pin" stroke="none"/>
        <path gorn="0.2.27" d="m 38.2836,122.385 c -0.322594,0 -0.58301,0.20475 -0.58301,0.45996 v 0.92139 c 0,0.2552 0.260419,0.46142 0.58301,0.46142 h 5.92237 c 0.322591,0 0.581542,-0.20622 0.581542,-0.46142 L 44.7877,122.845 c 0,-0.25517 -0.258945,-0.45996 -0.581542,-0.45996 z" fill="#ffc000"  id="connector27pin" stroke="none"/>
        <path gorn="0.2.28" d="m 44.8946,125.291 c -0.255175,0 -0.459961,0.25894 -0.459961,0.58155 v 5.92236 c 0,0.3226 0.204746,0.58301 0.459961,0.58301 h 0.921387 c 0.255203,0 0.461424,-0.26042 0.461424,-0.58301 v -5.92236 c 0,-0.3226 -0.20622,-0.58155 -0.461424,-0.58155 z" fill="#ffc000"  id="connector28pin" stroke="none"/>
        <path gorn="0.2.29" d="m 47.7289,125.291 c -0.255175,0 -0.459961,0.25894 -0.459961,0.58155 v 5.92236 c 0,0.3226 0.204746,0.58301 0.459961,0.58301 h 0.921387 c 0.255203,0 0.461424,-0.26042 0.461424,-0.58301 v -5.92236 c 0,-0.3226 -0.20622,-0.58155 -0.461424,-0.58155 z" fill="#ffc000"  id="connector29pin" stroke="none"/>
        <path gorn="0.2.30" d="m 50.5636,125.292 c -0.255175,0 -0.459961,0.25895 -0.459961,0.58154 v 5.92237 c 0,0.32259 0.204746,0.58301 0.459961,0.58301 h 0.921387 c 0.255203,0 0.461424,-0.26042 0.461424,-0.58301 v -5.92237 c 0,-0.32259 -0.20622,-0.58154 -0.461424,-0.58154 z" fill="#ffc000"  id="connector30pin" stroke="none"/>
        <path gorn="0.2.31" d="m 53.3979,125.291 c -0.255175,0 -0.459961,0.25894 -0.459961,0.58155 v 5.92236 c 0,0.3226 0.204746,0.58301 0.459961,0.58301 h 0.921387 c 0.255203,0 0.461424,-0.26042 0.461424,-0.58301 v -5.92236 c 0,-0.3226 -0.20622,-0.58155 -0.461424,-0.58155 z" fill="#ffc000"  id="connector31pin" stroke="none"/>
        <path gorn="0.2.32" d="m 56.2323,125.291 c -0.255175,0 -0.459961,0.25894 -0.459961,0.58155 v 5.92236 c 0,0.3226 0.204746,0.58301 0.459961,0.58301 h 0.921387 c 0.255203,0 0.461424,-0.26042 0.461424,-0.58301 v -5.92236 c 0,-0.3226 -0.20622,-0.58155 -0.461424,-0.58155 z" fill="#ffc000"  id="connector32pin" stroke="none"/>
        <path gorn="0.2.33" d="m 59.0669,125.291 c -0.255175,0 -0.459961,0.25894 -0.459961,0.58155 v 5.92236 c 0,0.3226 0.204746,0.58301 0.459961,0.58301 h 0.921387 c 0.255203,0 0.461424,-0.26042 0.461424,-0.58301 v -5.92236 c 0,-0.3226 -0.20622,-0.58155 -0.461424,-0.58155 z" fill="#ffc000"  id="connector33pin" stroke="none"/>
        <path gorn="0.2.34" d="m 61.9013,125.292 c -0.255175,0 -0.459961,0.25895 -0.459961,0.58154 v 5.92237 c 0,0.32259 0.204746,0.58301 0.459961,0.58301 h 0.921387 c 0.255203,0 0.461424,-0.26042 0.461424,-0.58301 v -5.92237 c 0,-0.32259 -0.20622,-0.58154 -0.461424,-0.58154 z" fill="#ffc000"  id="connector34pin" stroke="none"/>
        <path gorn="0.2.35" d="m 64.7359,125.291 c -0.255175,0 -0.459961,0.25894 -0.459961,0.58155 v 5.92236 c 0,0.3226 0.204746,0.58301 0.459961,0.58301 h 0.921385 c 0.255203,0 0.461426,-0.26042 0.461426,-0.58301 v -5.92236 c 0,-0.3226 -0.20622,-0.58155 -0.461426,-0.58155 z" fill="#ffc000"  id="connector35pin" stroke="none"/>
        <path gorn="0.2.36" d="m 67.5717,125.291 c -0.255175,0 -0.459961,0.25894 -0.459961,0.58155 v 5.92236 c 0,0.3226 0.204746,0.58301 0.459961,0.58301 h 0.921387 c 0.255203,0 0.461426,-0.26042 0.461426,-0.58301 v -5.92236 c 0,-0.3226 -0.20622,-0.58155 -0.461426,-0.58155 z" fill="#ffc000"  id="connector36pin" stroke="none"/>
        <path gorn="0.2.37" d="m 70.4064,125.291 c -0.255175,0 -0.459961,0.25894 -0.459961,0.58155 v 5.92236 c 0,0.3226 0.204746,0.58301 0.459961,0.58301 h 0.921387 c 0.255203,0 0.461426,-0.26042 0.461426,-0.58301 v -5.92236 c 0,-0.3226 -0.20622,-0.58155 -0.461426,-0.58155 z" fill="#ffc000"  id="connector37pin" stroke="none"/>
        <path gorn="0.2.38" d="m 73.2407,125.292 c -0.255175,0 -0.459961,0.25895 -0.459961,0.58154 v 5.92237 c 0,0.32259 0.204746,0.58301 0.459961,0.58301 h 0.921387 c 0.255203,0 0.461426,-0.26042 0.461426,-0.58301 v -5.92237 c 0,-0.32259 -0.20622,-0.58154 -0.461426,-0.58154 z" fill="#ffc000"  id="connector38pin" stroke="none"/>
        <path gorn="0.2.39" d="m 76.0751,125.291 c -0.255175,0 -0.459961,0.25894 -0.459961,0.58155 v 5.92236 c 0,0.3226 0.204746,0.58301 0.459961,0.58301 h 0.921387 c 0.255203,0 0.461426,-0.26042 0.461426,-0.58301 v -5.92236 c 0,-0.3226 -0.20622,-0.58155 -0.461426,-0.58155 z" fill="#ffc000"  id="connector39pin" stroke="none"/>
        <path gorn="0.2.40" d="m 78.9097,125.291 c -0.255175,0 -0.459961,0.25894 -0.459961,0.58155 v 5.92236 c 0,0.3226 0.204746,0.58301 0.459961,0.58301 h 0.921387 c 0.255203,0 0.461426,-0.26042 0.461426,-0.58301 v -5.92236 c 0,-0.3226 -0.20622,-0.58155 -0.461426,-0.58155 z" fill="#ffc000"  id="connector40pin" stroke="none"/>
        <path gorn="0.2.41" d="m 81.7441,125.291 c -0.255175,0 -0.459961,0.25894 -0.459961,0.58155 v 5.92236 c 0,0.3226 0.204746,0.58301 0.459961,0.58301 h 0.921387 c 0.255203,0 0.461426,-0.26042 0.461426,-0.58301 v -5.92236 c 0,-0.3226 -0.20622,-0.58155 -0.461426,-0.58155 z" fill="#ffc000"  id="connector41pin" stroke="none"/>
        <path gorn="0.2.42" d="m 84.5787,125.292 c -0.255175,0 -0.459961,0.25895 -0.459961,0.58154 v 5.92237 c 0,0.32259 0.204746,0.58301 0.459961,0.58301 l 0.9213,8e-5 c 0.255203,0 0.461426,-0.26042 0.461426,-0.58301 v -5.92237 c 0,-0.32259 -0.20622,-0.58154 -0.461426,-0.58154 z" fill="#ffc000"  id="connector42pin" stroke="none"/>
        <path gorn="0.2.43" d="m 87.4131,125.291 c -0.255175,0 -0.459961,0.25894 -0.459961,0.58155 v 5.92236 c 0,0.3226 0.204746,0.58301 0.459961,0.58301 h 0.921387 c 0.255203,0 0.461426,-0.26042 0.461426,-0.58301 v -5.92236 c 0,-0.3226 -0.20622,-0.58155 -0.461426,-0.58155 z" fill="#ffc000"  id="connector43pin" stroke="none"/>
        <path gorn="0.2.44" d="m 90.2489,125.291 c -0.255175,0 -0.459961,0.25894 -0.459961,0.58155 v 5.92236 c 0,0.3226 0.204746,0.58301 0.459961,0.58301 h 0.921387 c 0.255203,0 0.461424,-0.26042 0.461424,-0.58301 v -5.92236 c 0,-0.3226 -0.20622,-0.58155 -0.461424,-0.58155 z" fill="#ffc000"  id="connector44pin" stroke="none"/>
        <path gorn="0.2.45" d="m 93.0835,125.291 c -0.255175,0 -0.459961,0.25894 -0.459961,0.58155 v 5.92236 c 0,0.3226 0.204746,0.58301 0.459961,0.58301 h 0.921387 c 0.255203,0 0.461424,-0.26042 0.461424,-0.58301 v -5.92236 c 0,-0.3226 -0.20622,-0.58155 -0.461424,-0.58155 z" fill="#ffc000"  id="connector45pin" stroke="none"/>
        <path gorn="0.2.46" d="m 95.9179,125.292 c -0.255175,0 -0.459961,0.25895 -0.459961,0.58154 v 5.92237 c 0,0.32259 0.204746,0.58301 0.459961,0.58301 h 0.921387 c 0.255203,0 0.461424,-0.26042 0.461424,-0.58301 v -5.92237 c 0,-0.32259 -0.20622,-0.58154 -0.461424,-0.58154 z" fill="#ffc000"  id="connector46pin" stroke="none"/>
        <path gorn="0.2.47" d="m 98.7525,125.291 c -0.255175,0 -0.459961,0.25894 -0.459961,0.58155 v 5.92236 c 0,0.3226 0.204746,0.58301 0.459961,0.58301 h 0.921387 c 0.255203,0 0.461423,-0.26042 0.461423,-0.58301 v -5.92236 c 0,-0.3226 -0.206219,-0.58155 -0.461423,-0.58155 z" fill="#ffc000"  id="connector47pin" stroke="none"/>
        <path gorn="0.2.48" d="m 101.587,125.291 c -0.25517,0 -0.45996,0.25894 -0.45996,0.58155 v 5.92236 c 0,0.3226 0.20474,0.58301 0.45996,0.58301 h 0.92139 c 0.2552,0 0.46142,-0.26042 0.46142,-0.58301 v -5.92236 c 0,-0.3226 -0.20622,-0.58155 -0.46142,-0.58155 z" fill="#ffc000"  id="connector48pin" stroke="none"/>
        <path gorn="0.2.49" d="m 104.421,125.291 c -0.25517,0 -0.45996,0.25894 -0.45996,0.58155 v 5.92236 c 0,0.3226 0.20475,0.58301 0.45996,0.58301 h 0.92139 c 0.2552,0 0.46142,-0.26042 0.46142,-0.58301 v -5.92236 c 0,-0.3226 -0.20622,-0.58155 -0.46142,-0.58155 z" fill="#ffc000"  id="connector49pin" stroke="none"/>
        <path gorn="0.2.50" d="m 107.256,125.292 c -0.25517,0 -0.45996,0.25895 -0.45996,0.58154 v 5.92237 c 0,0.32259 0.20474,0.58301 0.45996,0.58301 h 0.92139 c 0.2552,0 0.46142,-0.26042 0.46142,-0.58301 v -5.92237 c 0,-0.32259 -0.20622,-0.58154 -0.46142,-0.58154 z" fill="#ffc000"  id="connector50pin" stroke="none"/>
        <path gorn="0.2.51" d="m 110.09,125.291 c -0.25517,0 -0.45996,0.25894 -0.45996,0.58155 v 5.92236 c 0,0.3226 0.20474,0.58301 0.45996,0.58301 h 0.92139 c 0.2552,0 0.46142,-0.26042 0.46142,-0.58301 v -5.92236 c 0,-0.3226 -0.20622,-0.58155 -0.46142,-0.58155 z" fill="#ffc000"  id="connector51pin" stroke="none"/>
        <path gorn="0.2.52" d="m 112.925,125.291 c -0.25517,0 -0.45996,0.25894 -0.45996,0.58155 v 5.92236 c 0,0.3226 0.20474,0.58301 0.45996,0.58301 h 0.92138 c 0.25521,0 0.46143,-0.26042 0.46143,-0.58301 v -5.92236 c 0,-0.3226 -0.20622,-0.58155 -0.46143,-0.58155 z" fill="#ffc000"  id="connector52pin" stroke="none"/>
        <path gorn="0.2.53" d="m 115.761,125.291 c -0.25517,0 -0.45996,0.25894 -0.45996,0.58155 v 5.92236 c 0,0.3226 0.20474,0.58301 0.45996,0.58301 h 0.92139 c 0.2552,0 0.46142,-0.26042 0.46142,-0.58301 v -5.92236 c 0,-0.3226 -0.20622,-0.58155 -0.46142,-0.58155 z" fill="#ffc000"  id="connector53pin" stroke="none"/>
        <path gorn="0.2.54" d="m 118.595,125.292 c -0.25517,0 -0.45996,0.25895 -0.45996,0.58154 v 5.92237 c 0,0.32259 0.20474,0.58301 0.45996,0.58301 h 0.92139 c 0.2552,0 0.46142,-0.26042 0.46142,-0.58301 v -5.92237 c 0,-0.32259 -0.20622,-0.58154 -0.46142,-0.58154 z" fill="#ffc000"  id="connector54pin" stroke="none"/>
        <path gorn="0.2.55" d="m 121.43,125.291 c -0.25517,0 -0.45996,0.25894 -0.45996,0.58155 v 5.92236 c 0,0.3226 0.20475,0.58301 0.45996,0.58301 h 0.92139 c 0.2552,0 0.46142,-0.26042 0.46142,-0.58301 v -5.92236 c 0,-0.3226 -0.20622,-0.58155 -0.46142,-0.58155 z" fill="#ffc000"  id="connector55pin" stroke="none"/>
        <path gorn="0.2.56" d="m 124.264,125.291 c -0.25517,0 -0.45996,0.25894 -0.45996,0.58155 v 5.92236 c 0,0.3226 0.20474,0.58301 0.45996,0.58301 h 0.92139 c 0.2552,0 0.46142,-0.26042 0.46142,-0.58301 v -5.92236 c 0,-0.3226 -0.20622,-0.58155 -0.46142,-0.58155 z" fill="#ffc000"  id="connector56pin" stroke="none"/>
        <path gorn="0.2.57" d="m 127.099,125.291 c -0.25517,0 -0.45996,0.25894 -0.45996,0.58155 v 5.92236 c 0,0.3226 0.20474,0.58301 0.45996,0.58301 h 0.92139 c 0.2552,0 0.46142,-0.26042 0.46142,-0.58301 v -5.92236 c 0,-0.3226 -0.20622,-0.58155 -0.46142,-0.58155 z" fill="#ffc000"  id="connector57pin" stroke="none"/>
        <path gorn="0.2.58" d="m 129.933,125.292 c -0.25518,0 -0.45996,0.25895 -0.45996,0.58154 v 5.92237 c 0,0.32259 0.20474,0.58301 0.45996,0.58301 h 0.92139 c 0.2552,0 0.46142,-0.26042 0.46142,-0.58301 v -5.92237 c 0,-0.32259 -0.20622,-0.58154 -0.46142,-0.58154 z" fill="#ffc000"  id="connector58pin" stroke="none"/>
        <path gorn="0.2.59" d="m 132.768,125.291 c -0.25518,0 -0.45996,0.25894 -0.45996,0.58155 v 5.92236 c 0,0.3226 0.20474,0.58301 0.45996,0.58301 h 0.92139 c 0.2552,0 0.46142,-0.26042 0.46142,-0.58301 v -5.92236 c 0,-0.3226 -0.20622,-0.58155 -0.46142,-0.58155 z" fill="#ffc000"  id="connector59pin" stroke="none"/>
        <path gorn="0.2.60" d="m 135.602,125.291 c -0.25518,0 -0.45996,0.25894 -0.45996,0.58155 v 5.92236 c 0,0.3226 0.20474,0.58301 0.45996,0.58301 h 0.92139 c 0.2552,0 0.46142,-0.26042 0.46142,-0.58301 v -5.92236 c 0,-0.3226 -0.20622,-0.58155 -0.46142,-0.58155 z" fill="#ffc000"  id="connector60pin" stroke="none"/>
        <path gorn="0.2.61" d="m 138.438,125.291 c -0.25518,0 -0.45996,0.25894 -0.45996,0.58155 v 5.92236 c 0,0.3226 0.20474,0.58301 0.45996,0.58301 h 0.92139 c 0.2552,0 0.46142,-0.26042 0.46142,-0.58301 v -5.92236 c 0,-0.3226 -0.20622,-0.58155 -0.46142,-0.58155 z" fill="#ffc000"  id="connector61pin" stroke="none"/>
        <path gorn="0.2.62" d="m 141.273,125.291 c -0.25518,0 -0.45996,0.25894 -0.45996,0.58155 v 5.92236 c 0,0.3226 0.20474,0.58301 0.45996,0.58301 h 0.92139 c 0.2552,0 0.46142,-0.26042 0.46142,-0.58301 v -5.92236 c 0,-0.3226 -0.20622,-0.58155 -0.46142,-0.58155 z" fill="#ffc000"  id="connector62pin" stroke="none"/>
        <path gorn="0.2.63" d="m 144.107,125.291 c -0.25518,0 -0.45996,0.25894 -0.45996,0.58155 v 5.92236 c 0,0.3226 0.20474,0.58301 0.45996,0.58301 h 0.92139 c 0.2552,0 0.46142,-0.26042 0.46142,-0.58301 v -5.92236 c 0,-0.3226 -0.20622,-0.58155 -0.46142,-0.58155 z" fill="#ffc000"  id="connector63pin" stroke="none"/>
        <path gorn="0.2.64" d="m 146.942,125.291 c -0.25518,0 -0.45996,0.25894 -0.45996,0.58155 v 5.92236 c 0,0.3226 0.20475,0.58301 0.45996,0.58301 h 0.92139 c 0.2552,0 0.46142,-0.26042 0.46142,-0.58301 v -5.92236 c 0,-0.3226 -0.20622,-0.58155 -0.46142,-0.58155 z" fill="#ffc000"  id="connector64pin" stroke="none"/>
        <path gorn="0.2.65" d="m 149.776,125.291 c -0.25518,0 -0.45996,0.25894 -0.45996,0.58155 v 5.92236 c 0,0.3226 0.20475,0.58301 0.45996,0.58301 h 0.92138 c 0.25521,0 0.46143,-0.26042 0.46143,-0.58301 v -5.92236 c 0,-0.3226 -0.20622,-0.58155 -0.46143,-0.58155 z" fill="#ffc000"  id="connector65pin" stroke="none"/>
        <path gorn="0.2.66" d="m 152.61,125.291 c -0.25518,0 -0.45996,0.25894 -0.45996,0.58155 v 5.92236 c 0,0.3226 0.20475,0.58301 0.45996,0.58301 h 0.92138 c 0.25521,0 0.46143,-0.26042 0.46143,-0.58301 v -5.92236 c 0,-0.3226 -0.20622,-0.58155 -0.46143,-0.58155 z" fill="#ffc000"  id="connector66pin" stroke="none"/>
        <path gorn="0.2.67" d="m 154.219,122.385 c -0.32259,0 -0.58155,0.20622 -0.58155,0.46142 v 0.92139 c 0,0.25518 0.25895,0.45996 0.58155,0.45996 h 5.92237 c 0.32259,0 0.58301,-0.20474 0.58301,-0.45996 v -0.92139 c 0,-0.2552 -0.26042,-0.46142 -0.58301,-0.46142 z" fill="#ffc000"  id="connector67pin" stroke="none"/>
        <path gorn="0.2.68" d="m 154.219,119.55 c -0.32259,0 -0.58155,0.20622 -0.58155,0.46142 v 0.92139 c 0,0.25518 0.25895,0.45996 0.58155,0.45996 h 5.92237 c 0.32259,0 0.58301,-0.20474 0.58301,-0.45996 v -0.92139 c 0,-0.2552 -0.26042,-0.46142 -0.58301,-0.46142 z" fill="#ffc000"  id="connector68pin" stroke="none"/>
        <path gorn="0.2.69" d="m 154.219,116.716 c -0.32259,0 -0.58155,0.20622 -0.58155,0.46142 v 0.92139 c 0,0.25518 0.25895,0.45996 0.58155,0.45996 h 5.92237 c 0.32259,0 0.58301,-0.20474 0.58301,-0.45996 v -0.92139 c 0,-0.2552 -0.26042,-0.46142 -0.58301,-0.46142 z" fill="#ffc000"  id="connector69pin" stroke="none"/>
        <path gorn="0.2.70" d="m 154.219,113.881 c -0.32259,0 -0.58155,0.20622 -0.58155,0.46143 v 0.92138 c 0,0.25518 0.25895,0.45996 0.58155,0.45996 h 5.92237 c 0.32259,0 0.58301,-0.20474 0.58301,-0.45996 L 160.724,114.343 c 0,-0.2552 -0.26042,-0.46143 -0.58301,-0.46143 z" fill="#ffc000"  id="connector70pin" stroke="none"/>
        <path gorn="0.2.71" d="m 154.219,111.046 c -0.32259,0 -0.58155,0.20622 -0.58155,0.46143 v 0.92138 c 0,0.25518 0.25895,0.45996 0.58155,0.45996 h 5.92237 c 0.32259,0 0.58301,-0.20474 0.58301,-0.45996 v -0.92138 c 0,-0.25521 -0.26042,-0.46143 -0.58301,-0.46143 z" fill="#ffc000"  id="connector71pin" stroke="none"/>
        <path gorn="0.2.72" d="m 154.219,108.211 c -0.32259,0 -0.58155,0.20622 -0.58155,0.46143 v 0.92138 c 0,0.25518 0.25895,0.45996 0.58155,0.45996 h 5.92237 c 0.32259,0 0.58301,-0.20474 0.58301,-0.45996 v -0.92138 c 0,-0.25521 -0.26042,-0.46143 -0.58301,-0.46143 z" fill="#ffc000"  id="connector72pin" stroke="none"/>
        <path gorn="0.2.73" d="m 154.219,105.377 c -0.32259,0 -0.58155,0.20622 -0.58155,0.46143 v 0.92138 c 0,0.25518 0.25895,0.45996 0.58155,0.45996 h 5.92237 c 0.32259,0 0.58301,-0.20474 0.58301,-0.45996 v -0.92138 c 0,-0.25521 -0.26042,-0.46143 -0.58301,-0.46143 z" fill="#ffc000"  id="connector73pin" stroke="none"/>
        <path gorn="0.2.74" d="m 154.219,102.542 c -0.32259,0 -0.58155,0.20622 -0.58155,0.46143 v 0.92138 c 0,0.25518 0.25895,0.45996 0.58155,0.45996 h 5.92237 c 0.32259,0 0.58301,-0.20474 0.58301,-0.45996 v -0.92138 c 0,-0.25521 -0.26042,-0.46143 -0.58301,-0.46143 z" fill="#ffc000"  id="connector74pin" stroke="none"/>
        <path gorn="0.2.75" d="m 154.219,99.7075 c -0.32259,0 -0.58155,0.20622 -0.58155,0.46143 v 0.92138 c 0,0.25518 0.25895,0.45996 0.58155,0.45996 h 5.92237 c 0.32259,0 0.58301,-0.20474 0.58301,-0.45996 v -0.92138 c 0,-0.255207 -0.26042,-0.46143 -0.58301,-0.46143 z" fill="#ffc000"  id="connector75pin" stroke="none"/>
        <path gorn="0.2.76" d="m 154.219,96.8732 c -0.32259,0 -0.58155,0.20622 -0.58155,0.461426 v 0.921387 c 0,0.255175 0.25895,0.459961 0.58155,0.459961 h 5.92237 c 0.32259,0 0.58301,-0.204746 0.58301,-0.459961 v -0.921387 c 0,-0.255203 -0.26042,-0.461426 -0.58301,-0.461426 z" fill="#ffc000"  id="connector76pin" stroke="none"/>
        <path gorn="0.2.77" d="m 154.219,94.0385 c -0.32259,0 -0.58155,0.20622 -0.58155,0.461426 v 0.921387 c 0,0.255175 0.25895,0.459961 0.58155,0.459961 h 5.92237 c 0.32259,0 0.58301,-0.204746 0.58301,-0.459961 L 160.724,94.5 c 0,-0.255203 -0.26042,-0.461426 -0.58301,-0.461426 z" fill="#ffc000"  id="connector77pin" stroke="none"/>
        <path gorn="0.2.78" d="m 154.219,91.2042 c -0.32259,0 -0.58155,0.20622 -0.58155,0.461426 v 0.921387 c 0,0.255175 0.25895,0.459961 0.58155,0.459961 h 5.92237 c 0.32259,0 0.58301,-0.204746 0.58301,-0.459961 v -0.921387 c 0,-0.255203 -0.26042,-0.461426 -0.58301,-0.461426 z" fill="#ffc000"  id="connector78pin" stroke="none"/>
        <path gorn="0.2.79" d="m 154.219,88.3681 c -0.32259,0 -0.58155,0.20622 -0.58155,0.461424 v 0.921387 c 0,0.255175 0.25895,0.459961 0.58155,0.459961 h 5.92237 c 0.32259,0 0.58301,-0.204746 0.58301,-0.459961 v -0.921387 c 0,-0.255203 -0.26042,-0.461424 -0.58301,-0.461424 z" fill="#ffc000"  id="connector79pin" stroke="none"/>
        <path gorn="0.2.80" d="m 154.219,85.5337 c -0.32259,0 -0.58155,0.20622 -0.58155,0.461424 v 0.921387 c 0,0.255175 0.25895,0.459961 0.58155,0.459961 h 5.92237 c 0.32259,0 0.58301,-0.204746 0.58301,-0.459961 v -0.921387 c 0,-0.255203 -0.26042,-0.461424 -0.58301,-0.461424 z" fill="#ffc000"  id="connector80pin" stroke="none"/>
        <path gorn="0.2.81" d="m 154.219,82.6991 c -0.32259,0 -0.58155,0.20622 -0.58155,0.461424 v 0.921387 c 0,0.255175 0.25895,0.459961 0.58155,0.459961 h 5.92237 c 0.32259,0 0.58301,-0.204746 0.58301,-0.459961 v -0.921387 c 0,-0.255203 -0.26042,-0.461424 -0.58301,-0.461424 z" fill="#ffc000"  id="connector81pin" stroke="none"/>
        <path gorn="0.2.82" d="m 154.219,79.8647 c -0.32259,0 -0.58155,0.20622 -0.58155,0.461424 v 0.921387 c 0,0.255175 0.25895,0.459961 0.58155,0.459961 h 5.92237 c 0.32259,0 0.58301,-0.204746 0.58301,-0.459961 v -0.921387 c 0,-0.255203 -0.26042,-0.461424 -0.58301,-0.461424 z" fill="#ffc000"  id="connector82pin" stroke="none"/>
        <path gorn="0.2.83" d="m 154.219,77.0304 c -0.32259,0 -0.58155,0.20622 -0.58155,0.461424 v 0.921387 c 0,0.255175 0.25895,0.459961 0.58155,0.459961 h 5.92237 c 0.32259,0 0.58301,-0.204746 0.58301,-0.459961 v -0.921387 c 0,-0.255203 -0.26042,-0.461424 -0.58301,-0.461424 z" fill="#ffc000"  id="connector83pin" stroke="none"/>
        <path gorn="0.2.84" d="m 154.219,74.1957 c -0.32259,0 -0.58155,0.20622 -0.58155,0.461424 v 0.921387 c 0,0.255175 0.25895,0.459961 0.58155,0.459961 h 5.92237 c 0.32259,0 0.58301,-0.204746 0.58301,-0.459961 L 160.724,74.6572 c 0,-0.255203 -0.26042,-0.461424 -0.58301,-0.461424 z" fill="#ffc000"  id="connector84pin" stroke="none"/>
        <path gorn="0.2.85" d="m 154.219,71.3614 c -0.32259,0 -0.58155,0.20622 -0.58155,0.461426 v 0.921385 c 0,0.255175 0.25895,0.459961 0.58155,0.459961 h 5.92237 c 0.32259,0 0.58301,-0.204746 0.58301,-0.459961 v -0.921385 c 0,-0.255203 -0.26042,-0.461426 -0.58301,-0.461426 z" fill="#ffc000"  id="connector85pin" stroke="none"/>
        <path gorn="0.2.86" d="m 154.219,68.527 c -0.32259,0 -0.58155,0.20622 -0.58155,0.461426 v 0.921385 c 0,0.255175 0.25895,0.459961 0.58155,0.459961 h 5.92237 c 0.32259,0 0.58301,-0.204746 0.58301,-0.459961 v -0.921385 c 0,-0.255203 -0.26042,-0.461426 -0.58301,-0.461426 z" fill="#ffc000"  id="connector86pin" stroke="none"/>
        <path gorn="0.2.87" d="m 154.219,65.6923 c -0.32259,0 -0.58155,0.20622 -0.58155,0.461426 v 0.921385 c 0,0.255175 0.25895,0.459961 0.58155,0.459961 h 5.92237 c 0.32259,0 0.58301,-0.204746 0.58301,-0.459961 v -0.921385 c 0,-0.255203 -0.26042,-0.461426 -0.58301,-0.461426 z" fill="#ffc000"  id="connector87pin" stroke="none"/>
        <path gorn="0.2.88" d="m 154.219,62.8566 c -0.32259,0 -0.58155,0.20622 -0.58155,0.461426 v 0.921387 c 0,0.255175 0.25895,0.459961 0.58155,0.459961 h 5.92237 c 0.32259,0 0.58301,-0.204746 0.58301,-0.459961 v -0.921387 c 0,-0.255203 -0.26042,-0.461426 -0.58301,-0.461426 z" fill="#ffc000"  id="connector88pin" stroke="none"/>
        <path gorn="0.2.89" d="m 154.219,60.0219 c -0.32259,0 -0.58155,0.20622 -0.58155,0.461426 v 0.921387 c 0,0.255175 0.25895,0.459961 0.58155,0.459961 h 5.92237 c 0.32259,0 0.58301,-0.204746 0.58301,-0.459961 v -0.921387 c 0,-0.255203 -0.26042,-0.461426 -0.58301,-0.461426 z" fill="#ffc000"  id="connector89pin" stroke="none"/>
        <path gorn="0.2.90" d="m 154.219,57.1876 c -0.32259,0 -0.58155,0.20622 -0.58155,0.461426 v 0.921387 c 0,0.255175 0.25895,0.459961 0.58155,0.459961 h 5.92237 c 0.32259,0 0.58301,-0.204746 0.58301,-0.459961 L 160.724,57.649 c 0,-0.255203 -0.26042,-0.461426 -0.58301,-0.461426 z" fill="#ffc000"  id="connector90pin" stroke="none"/>
        <path gorn="0.2.91" d="m 154.219,54.3529 c -0.32259,0 -0.58155,0.20622 -0.58155,0.461426 v 0.921387 c 0,0.255175 0.25895,0.459961 0.58155,0.459961 h 5.92237 c 0.32259,0 0.58301,-0.204746 0.58301,-0.459961 v -0.921387 c 0,-0.255203 -0.26042,-0.461426 -0.58301,-0.461426 z" fill="#ffc000"  id="connector91pin" stroke="none"/>
        <path gorn="0.2.92" d="m 154.219,51.5186 c -0.32259,0 -0.58155,0.20622 -0.58155,0.461426 v 0.921387 c 0,0.255175 0.25895,0.459961 0.58155,0.459961 h 5.92237 c 0.32259,0 0.58301,-0.204746 0.58301,-0.459961 v -0.921387 c 0,-0.255203 -0.26042,-0.461426 -0.58301,-0.461426 z" fill="#ffc000"  id="connector92pin" stroke="none"/>
        <path gorn="0.2.93" d="m 154.219,48.6842 c -0.32259,0 -0.58155,0.20622 -0.58155,0.461426 v 0.921387 c 0,0.255175 0.25895,0.459961 0.58155,0.459961 h 5.92237 c 0.32259,0 0.58301,-0.204746 0.58301,-0.459961 v -0.921387 c 0,-0.255203 -0.26042,-0.461426 -0.58301,-0.461426 z" fill="#ffc000"  id="connector93pin" stroke="none"/>
        <path gorn="0.2.94" d="m 154.219,45.8495 c -0.32259,0 -0.58155,0.20622 -0.58155,0.461426 v 0.921387 c 0,0.255175 0.25895,0.459961 0.58155,0.459961 h 5.92237 c 0.32259,0 0.58301,-0.204746 0.58301,-0.459961 v -0.921387 c 0,-0.255203 -0.26042,-0.461426 -0.58301,-0.461426 z" fill="#ffc000"  id="connector94pin" stroke="none"/>
        <path gorn="0.2.95" d="m 152.612,37.7008 c -0.2552,0 -0.46142,0.260419 -0.46142,0.58301 v 5.92237 c 0,0.322591 0.20622,0.581542 0.46142,0.581542 h 0.92139 c 0.25517,0 0.45996,-0.258945 0.45996,-0.581542 v -5.92237 c 0,-0.322594 -0.20475,-0.58301 -0.45996,-0.58301 z" fill="#ffc000"  id="connector95pin" stroke="none"/>
        <path gorn="0.2.96" d="m 149.776,37.7008 c -0.2552,0 -0.46143,0.260419 -0.46143,0.58301 v 5.92237 c 0,0.322591 0.20622,0.581542 0.46143,0.581542 h 0.92138 c 0.25518,0 0.45997,-0.258945 0.45997,-0.581542 v -5.92237 c 0,-0.322594 -0.20475,-0.58301 -0.45997,-0.58301 z" fill="#ffc000"  id="connector96pin" stroke="none"/>
        <path gorn="0.2.97" d="m 146.942,37.6991 c -0.2552,0 -0.46143,0.260419 -0.46143,0.583007 v 5.92237 c 0,0.322591 0.20622,0.581542 0.46143,0.581542 h 0.92139 c 0.25517,0 0.45996,-0.258945 0.45996,-0.581542 v -5.92237 c 0,-0.322594 -0.20475,-0.583007 -0.45996,-0.583007 z" fill="#ffc000"  id="connector97pin" stroke="none"/>
        <path gorn="0.2.98" d="m 144.107,37.7008 c -0.2552,0 -0.46143,0.260419 -0.46143,0.58301 v 5.92237 c 0,0.322591 0.20622,0.581542 0.46143,0.581542 h 0.92139 c 0.25517,0 0.45996,-0.258945 0.45996,-0.581542 v -5.92237 c 0,-0.322594 -0.20475,-0.58301 -0.45996,-0.58301 z" fill="#ffc000"  id="connector98pin" stroke="none"/>
        <path gorn="0.2.99" d="m 141.273,37.7008 c -0.2552,0 -0.46143,0.260419 -0.46143,0.58301 v 5.92237 c 0,0.322591 0.20622,0.581542 0.46143,0.581542 h 0.92139 c 0.25517,0 0.45996,-0.258945 0.45996,-0.581542 v -5.92237 c 0,-0.322594 -0.20475,-0.58301 -0.45996,-0.58301 z" fill="#ffc000"  id="connector99pin" stroke="none"/>
        <path gorn="0.2.100" d="m 138.438,37.7008 c -0.2552,0 -0.46143,0.260419 -0.46143,0.58301 v 5.92237 c 0,0.322591 0.20622,0.581542 0.46143,0.581542 h 0.92139 c 0.25517,0 0.45996,-0.258945 0.45996,-0.581542 v -5.92237 c 0,-0.322594 -0.20475,-0.58301 -0.45996,-0.58301 z" fill="#ffc000"  id="connector100pin" stroke="none"/>
        <path gorn="0.2.101" d="m 135.603,37.6991 c -0.2552,0 -0.46143,0.260419 -0.46143,0.583007 v 5.92237 c 0,0.322591 0.20622,0.581542 0.46143,0.581542 h 0.92139 c 0.25517,0 0.45996,-0.258945 0.45996,-0.581542 v -5.92237 c 0,-0.322594 -0.20475,-0.583007 -0.45996,-0.583007 z" fill="#ffc000"  id="connector101pin" stroke="none"/>
        <path gorn="0.2.102" d="m 132.769,37.7008 c -0.2552,0 -0.46143,0.260419 -0.46143,0.58301 v 5.92237 c 0,0.322591 0.20622,0.581542 0.46143,0.581542 h 0.92139 c 0.25517,0 0.45996,-0.258945 0.45996,-0.581542 v -5.92237 c 0,-0.322594 -0.20475,-0.58301 -0.45996,-0.58301 z" fill="#ffc000"  id="connector102pin" stroke="none"/>
        <path gorn="0.2.103" d="m 129.934,37.7008 c -0.2552,0 -0.46143,0.260419 -0.46143,0.58301 v 5.92237 c 0,0.322591 0.20622,0.581542 0.46143,0.581542 h 0.92139 c 0.25517,0 0.45996,-0.258945 0.45996,-0.581542 v -5.92237 c 0,-0.322594 -0.20475,-0.58301 -0.45996,-0.58301 z" fill="#ffc000"  id="connector103pin" stroke="none"/>
        <path gorn="0.2.104" d="m 127.1,37.7008 c -0.2552,0 -0.46143,0.260419 -0.46143,0.58301 v 5.92237 c 0,0.322591 0.20622,0.581542 0.46143,0.581542 h 0.92139 c 0.25517,0 0.45996,-0.258945 0.45996,-0.581542 v -5.92237 c 0,-0.322594 -0.20475,-0.58301 -0.45996,-0.58301 z" fill="#ffc000"  id="connector104pin" stroke="none"/>
        <path gorn="0.2.105" d="m 124.264,37.6991 c -0.2552,0 -0.46142,0.260419 -0.46142,0.583007 v 5.92237 c 0,0.322591 0.20622,0.581542 0.46142,0.581542 h 0.92139 c 0.25517,0 0.45996,-0.258945 0.45996,-0.581542 v -5.92237 c 0,-0.322594 -0.20475,-0.583007 -0.45996,-0.583007 z" fill="#ffc000"  id="connector105pin" stroke="none"/>
        <path gorn="0.2.106" d="m 121.43,37.7008 c -0.2552,0 -0.46142,0.260419 -0.46142,0.58301 v 5.92237 c 0,0.322591 0.20622,0.581542 0.46142,0.581542 h 0.92139 c 0.25517,0 0.45996,-0.258945 0.45996,-0.581542 v -5.92237 c 0,-0.322594 -0.20475,-0.58301 -0.45996,-0.58301 z" fill="#ffc000"  id="connector106pin" stroke="none"/>
        <path gorn="0.2.107" d="m 118.595,37.7008 c -0.2552,0 -0.46142,0.260419 -0.46142,0.58301 v 5.92237 c 0,0.322591 0.20622,0.581542 0.46142,0.581542 h 0.92139 c 0.25517,0 0.45996,-0.258945 0.45996,-0.581542 v -5.92237 c 0,-0.322594 -0.20475,-0.58301 -0.45996,-0.58301 z" fill="#ffc000"  id="connector107pin" stroke="none"/>
        <path gorn="0.2.108" d="m 115.761,37.7008 c -0.2552,0 -0.46142,0.260419 -0.46142,0.58301 v 5.92237 c 0,0.322591 0.20622,0.581542 0.46142,0.581542 h 0.92139 c 0.25517,0 0.45996,-0.258945 0.45996,-0.581542 v -5.92237 c 0,-0.322594 -0.20475,-0.58301 -0.45996,-0.58301 z" fill="#ffc000"  id="connector108pin" stroke="none"/>
        <path gorn="0.2.109" d="m 112.926,37.6991 c -0.2552,0 -0.46142,0.260419 -0.46142,0.583007 v 5.92237 c 0,0.322591 0.20622,0.581542 0.46142,0.581542 h 0.92139 c 0.25517,0 0.45996,-0.258945 0.45996,-0.581542 v -5.92237 c 0,-0.322594 -0.20475,-0.583007 -0.45996,-0.583007 z" fill="#ffc000"  id="connector109pin" stroke="none"/>
        <path gorn="0.2.110" d="m 110.092,37.7008 c -0.2552,0 -0.46142,0.260419 -0.46142,0.58301 v 5.92237 c 0,0.322591 0.20622,0.581542 0.46142,0.581542 h 0.92139 c 0.25517,0 0.45996,-0.258945 0.45996,-0.581542 v -5.92237 c 0,-0.322594 -0.20475,-0.58301 -0.45996,-0.58301 z" fill="#ffc000"  id="connector110pin" stroke="none"/>
        <path gorn="0.2.111" d="m 107.257,37.7008 c -0.2552,0 -0.46142,0.260419 -0.46142,0.58301 v 5.92237 c 0,0.322591 0.20622,0.581542 0.46142,0.581542 h 0.92139 c 0.25517,0 0.45996,-0.258945 0.45996,-0.581542 v -5.92237 c 0,-0.322594 -0.20475,-0.58301 -0.45996,-0.58301 z" fill="#ffc000"  id="connector111pin" stroke="none"/>
        <path gorn="0.2.112" d="m 104.423,37.7008 c -0.2552,0 -0.46143,0.260419 -0.46143,0.58301 v 5.92237 c 0,0.322591 0.20622,0.581542 0.46143,0.581542 h 0.92139 c 0.25517,0 0.45996,-0.258945 0.45996,-0.581542 v -5.92237 c 0,-0.322594 -0.20475,-0.58301 -0.45996,-0.58301 z" fill="#ffc000"  id="connector112pin" stroke="none"/>
        <path gorn="0.2.113" d="m 101.587,37.6991 c -0.2552,0 -0.46143,0.260419 -0.46143,0.583007 v 5.92237 c 0,0.322591 0.20622,0.581542 0.46143,0.581542 h 0.92139 c 0.25517,0 0.45996,-0.258945 0.45996,-0.581542 v -5.92237 c 0,-0.322594 -0.20475,-0.583007 -0.45996,-0.583007 z" fill="#ffc000"  id="connector113pin" stroke="none"/>
        <path gorn="0.2.114" d="m 98.7525,37.7008 c -0.255203,0 -0.461426,0.260419 -0.461426,0.58301 v 5.92237 c 0,0.322591 0.20622,0.581542 0.461426,0.581542 h 0.921387 c 0.255175,0 0.459963,-0.258945 0.459963,-0.581542 v -5.92237 c 0,-0.322594 -0.204748,-0.58301 -0.459963,-0.58301 z" fill="#ffc000"  id="connector114pin" stroke="none"/>
        <path gorn="0.2.115" d="m 95.9179,37.7008 c -0.255203,0 -0.461426,0.260419 -0.461426,0.58301 v 5.92237 c 0,0.322591 0.20622,0.581542 0.461426,0.581542 h 0.921387 c 0.255175,0 0.459961,-0.258945 0.459961,-0.581542 v -5.92237 c 0,-0.322594 -0.204746,-0.58301 -0.459961,-0.58301 z" fill="#ffc000"  id="connector115pin" stroke="none"/>
        <path gorn="0.2.116" d="m 93.0835,37.7008 c -0.255203,0 -0.461426,0.260419 -0.461426,0.58301 v 5.92237 c 0,0.322591 0.20622,0.581542 0.461426,0.581542 h 0.921387 c 0.255175,0 0.459961,-0.258945 0.459961,-0.581542 v -5.92237 c 0,-0.322594 -0.204746,-0.58301 -0.459961,-0.58301 z" fill="#ffc000"  id="connector116pin" stroke="none"/>
        <path gorn="0.2.117" d="m 90.2489,37.6991 c -0.255203,0 -0.461426,0.260419 -0.461426,0.583007 v 5.92237 c 0,0.322591 0.20622,0.581542 0.461426,0.581542 h 0.921387 c 0.255175,0 0.459961,-0.258945 0.459961,-0.581542 v -5.92237 c 0,-0.322594 -0.204746,-0.583007 -0.459961,-0.583007 z" fill="#ffc000"  id="connector117pin" stroke="none"/>
        <path gorn="0.2.118" d="m 87.4145,37.7008 c -0.255203,0 -0.461426,0.260419 -0.461426,0.58301 v 5.92237 c 0,0.322591 0.20622,0.581542 0.461426,0.581542 h 0.921387 c 0.255175,0 0.459961,-0.258945 0.459961,-0.581542 v -5.92237 c 0,-0.322594 -0.204746,-0.58301 -0.459961,-0.58301 z" fill="#ffc000"  id="connector118pin" stroke="none"/>
        <path gorn="0.2.119" d="m 84.5802,37.7008 c -0.255203,0 -0.461426,0.260419 -0.461426,0.58301 v 5.92237 c 0,0.322591 0.20622,0.581542 0.461426,0.581542 h 0.921387 c 0.255175,0 0.459961,-0.258945 0.459961,-0.581542 v -5.92237 c 0,-0.322594 -0.204746,-0.58301 -0.459961,-0.58301 z" fill="#ffc000"  id="connector119pin" stroke="none"/>
        <path gorn="0.2.120" d="m 81.7455,37.7008 c -0.255203,0 -0.461426,0.260419 -0.461426,0.58301 v 5.92237 c 0,0.322591 0.20622,0.581542 0.461426,0.581542 h 0.921387 c 0.255175,0 0.459961,-0.258945 0.459961,-0.581542 v -5.92237 c 0,-0.322594 -0.204746,-0.58301 -0.459961,-0.58301 z" fill="#ffc000"  id="connector120pin" stroke="none"/>
        <path gorn="0.2.121" d="m 78.9111,37.6991 c -0.255203,0 -0.461426,0.260419 -0.461426,0.583007 v 5.92237 c 0,0.322591 0.20622,0.581542 0.461426,0.581542 h 0.921387 c 0.255175,0 0.459961,-0.258945 0.459961,-0.581542 v -5.92237 c 0,-0.322594 -0.204746,-0.583007 -0.459961,-0.583007 z" fill="#ffc000"  id="connector121pin" stroke="none"/>
        <path gorn="0.2.122" d="m 76.0751,37.7008 c -0.255203,0 -0.461424,0.260419 -0.461424,0.58301 v 5.92237 c 0,0.322591 0.20622,0.581542 0.461424,0.581542 h 0.921387 c 0.255175,0 0.459961,-0.258945 0.459961,-0.581542 v -5.92237 c 0,-0.322594 -0.204746,-0.58301 -0.459961,-0.58301 z" fill="#ffc000"  id="connector122pin" stroke="none"/>
        <path gorn="0.2.123" d="m 73.2407,37.7008 c -0.255203,0 -0.461424,0.260419 -0.461424,0.58301 v 5.92237 c 0,0.322591 0.20622,0.581542 0.461424,0.581542 h 0.921387 c 0.255175,0 0.459961,-0.258945 0.459961,-0.581542 v -5.92237 c 0,-0.322594 -0.204746,-0.58301 -0.459961,-0.58301 z" fill="#ffc000"  id="connector123pin" stroke="none"/>
        <path gorn="0.2.124" d="m 70.4064,37.7008 c -0.255203,0 -0.461424,0.260419 -0.461424,0.58301 v 5.92237 c 0,0.322591 0.20622,0.581542 0.461424,0.581542 h 0.921387 c 0.255175,0 0.459961,-0.258945 0.459961,-0.581542 v -5.92237 c 0,-0.322594 -0.204746,-0.58301 -0.459961,-0.58301 z" fill="#ffc000"  id="connector124pin" stroke="none"/>
        <path gorn="0.2.125" d="m 67.5717,37.7008 c -0.255203,0 -0.461424,0.260419 -0.461424,0.58301 v 5.92237 c 0,0.322591 0.20622,0.581542 0.461424,0.581542 h 0.921387 c 0.255175,0 0.459961,-0.258945 0.459961,-0.581542 v -5.92237 c 0,-0.322594 -0.204746,-0.58301 -0.459961,-0.58301 z" fill="#ffc000"  id="connector125pin" stroke="none"/>
        <path gorn="0.2.126" d="m 64.7374,37.7008 c -0.255203,0 -0.461424,0.260419 -0.461424,0.58301 v 5.92237 c 0,0.322591 0.20622,0.581542 0.461424,0.581542 h 0.921387 c 0.255175,0 0.459961,-0.258945 0.459961,-0.581542 v -5.92237 c 0,-0.322594 -0.204746,-0.58301 -0.459961,-0.58301 z" fill="#ffc000"  id="connector126pin" stroke="none"/>
        <path gorn="0.2.127" d="m 61.9027,37.7008 c -0.255203,0 -0.461426,0.260419 -0.461426,0.58301 v 5.92237 c 0,0.322591 0.20622,0.581542 0.461426,0.581542 h 0.921385 c 0.255175,0 0.459961,-0.258945 0.459961,-0.581542 v -5.92237 c 0,-0.322594 -0.204746,-0.58301 -0.459961,-0.58301 z" fill="#ffc000"  id="connector127pin" stroke="none"/>
        <path gorn="0.2.128" d="m 59.0683,37.7008 c -0.255203,0 -0.461426,0.260419 -0.461426,0.58301 v 5.92237 c 0,0.322591 0.20622,0.581542 0.461426,0.581542 h 0.921385 c 0.255175,0 0.459961,-0.258945 0.459961,-0.581542 v -5.92237 c 0,-0.322594 -0.204746,-0.58301 -0.459961,-0.58301 z" fill="#ffc000"  id="connector128pin" stroke="none"/>
        <path gorn="0.2.129" d="m 56.234,37.7008 c -0.255203,0 -0.461426,0.260419 -0.461426,0.58301 v 5.92237 c 0,0.322591 0.20622,0.581542 0.461426,0.581542 h 0.921385 c 0.255175,0 0.459961,-0.258945 0.459961,-0.581542 v -5.92237 c 0,-0.322594 -0.204746,-0.58301 -0.459961,-0.58301 z" fill="#ffc000"  id="connector129pin" stroke="none"/>
        <path gorn="0.2.130" d="m 53.3979,37.7008 c -0.255203,0 -0.461426,0.260419 -0.461426,0.58301 v 5.92237 c 0,0.322591 0.20622,0.581542 0.461426,0.581542 h 0.921387 c 0.255175,0 0.459961,-0.258945 0.459961,-0.581542 v -5.92237 c 0,-0.322594 -0.204746,-0.58301 -0.459961,-0.58301 z" fill="#ffc000"  id="connector130pin" stroke="none"/>
        <path gorn="0.2.131" d="m 50.5636,37.7008 c -0.255203,0 -0.461426,0.260419 -0.461426,0.58301 v 5.92237 c 0,0.322591 0.20622,0.581542 0.461426,0.581542 h 0.921387 c 0.255175,0 0.459961,-0.258945 0.459961,-0.581542 v -5.92237 c 0,-0.322594 -0.204746,-0.58301 -0.459961,-0.58301 z" fill="#ffc000"  id="connector131pin" stroke="none"/>
        <path gorn="0.2.132" d="m 47.7289,37.7008 c -0.255203,0 -0.461426,0.260419 -0.461426,0.58301 v 5.92237 c 0,0.322591 0.20622,0.581542 0.461426,0.581542 h 0.921387 c 0.255175,0 0.459961,-0.258945 0.459961,-0.581542 v -5.92237 c 0,-0.322594 -0.204746,-0.58301 -0.459961,-0.58301 z" fill="#ffc000"  id="connector132pin" stroke="none"/>
        <path gorn="0.2.133" d="m 44.8946,37.7008 c -0.255203,0 -0.461426,0.260419 -0.461426,0.58301 v 5.92237 c 0,0.322591 0.20622,0.581542 0.461426,0.581542 h 0.921387 c 0.255175,0 0.459961,-0.258945 0.459961,-0.581542 v -5.92237 c 0,-0.322594 -0.204746,-0.58301 -0.459961,-0.58301 z" fill="#ffc000"  id="connector133pin" stroke="none"/>
    </g>
    <g gorn="0.3"  id="silkscreen">
        <path gorn="0.3.0" d="m 39.8276,39.6856 v 2.83447 3.32957 h 2.83447 v -3.32957 h 1.91309 V 39.6856 h -1.91309 z" fill="#000000"  id="silk978" stroke="none"/>
        <path gorn="0.3.1" d="m 39.8276,124.229 v 3.32957 2.83447 h 2.83447 1.91309 v -2.83447 H 42.66207 V 124.229 Z" fill="#000000"  id="silk977" stroke="none"/>
        <path gorn="0.3.2" d="m 154.134,39.6856 v 2.83447 h 1.91309 v 3.32957 h 2.83447 L 158.881,42.52 v -2.8344 h -2.834 z" fill="#000000"  id="silk976" stroke="none"/>
        <path gorn="0.3.3" d="m 156.047,124.229 v 3.32957 h -1.91309 v 2.83447 h 1.91309 2.83447 v -2.83447 -3.32957 z" fill="#000000"  id="silk975" stroke="none"/>
        <path gorn="0.3.4" d="m 45.1817,45.066 v 8.50487 L 53.68513,45.066 Z" fill="#000000"  id="silk974" stroke="none"/>
        <path gorn="0.3.5" d="m 39.8276,31.1805 -8.50487,8.50487 h 8.50487 z" fill="#000000"  id="silk973" stroke="none"/>
    </g>
</svg>
