<?xml version='1.0' encoding='UTF-8' standalone='no'?>
<svg xmlns="http://www.w3.org/2000/svg"  id="svg15" viewBox="0 0 35.031989 29.826772" gorn="0" width="8.8979998mm" height="7.5760002mm" version="1.1">
    <desc >
        <referenceFile >74HC86D.svg</referenceFile>
    </desc>
    <g  transform="translate(-4021.5,-3019.5)">
        <g >
            <g >
                <g >
                    <g >
                        <g >
                            <g >
                                <defs  id="defs15"/>
                                <g  id="silkscreen" gorn="0.1.0.0.0.0.0.0.1">
                                    <path  id="path128" stroke="#000000" gorn="0.1.0.0.0.0.0.0.1.0" d="m 4056.3434,3028.4233 -34.6542,0.01 v 3.7965 a 1.9685633,1.9685633 0 0 1 0.09,-0.01 1.9685633,1.9685633 0 0 1 1.9674,1.9694 1.9685633,1.9685633 0 0 1 -1.9674,1.9674 1.9685633,1.9685633 0 0 1 -0.09,-0.01 v 4.2583 h 34.6542 z" stroke-width="0.393706" fill="none"/>
                                    <path  id="path164" stroke="none" gorn="0.1.0.0.0.0.0.0.1.1" style="stroke-linecap:square;" d="m 4027.0339,3036.2928 -2.771,0 v 0.4923 h 3.0457 c -0.017,-0.053 -0.038,-0.1059 -0.063,-0.1587 -9e-4,-0 -0,-0 -0,-0.01 -0.023,-0.047 -0.05,-0.092 -0.077,-0.1383 -8e-4,-0 -0,-0 -0,-0 -0.037,-0.063 -0.082,-0.1226 -0.1261,-0.1831 z" stroke-opacity="1" stroke-width="0.426905" fill-opacity="1" fill="#000000"/>
                                    <path  id="path163" stroke="none" gorn="0.1.0.0.0.0.0.0.1.2" style="stroke-linecap:square;" d="m 4025.213,3037.4627 v 0.4903 h 1.7396 c 6e-4,-7e-4 0,-0 0,-0 0.014,-0.018 0.026,-0.037 0.041,-0.055 0,-0 0,-0.01 0.01,-0.01 0.058,-0.076 0.1127,-0.1537 0.1607,-0.234 0,-0 0,-0 0,-0.01 0,-0.01 0.01,-0.016 0.012,-0.024 0.01,-0.01 0.011,-0.019 0.016,-0.028 0.011,-0.021 0.022,-0.041 0.032,-0.061 0.01,-0.02 0.02,-0.041 0.029,-0.061 z" stroke-opacity="1" stroke-width="0.330148" fill-opacity="1" fill="#000000"/>
                                    <path  id="path162" stroke="none" gorn="0.1.0.0.0.0.0.0.1.3" style="stroke-linecap:square;" d="m 4031.5669,3036.8238 c 2e-4,0 -2e-4,0 0,0 0.013,0.078 0.02,0.1582 0.02,0.2401 0,0.085 -0.01,0.1675 -0.022,0.2482 h 2.1994 v -0.4903 z" stroke-opacity="1" stroke-width="0.376493" fill-opacity="1" fill="#000000"/>
                                    <path  id="path161" stroke="none" gorn="0.1.0.0.0.0.0.0.1.4" style="stroke-linecap:square;" d="m 4025.213,3039.365 v 0.2462 h -0.4923 v 0.2441 h 4.0507 v -0.4903 z" stroke-opacity="1" stroke-width="0.47443" fill-opacity="1" fill="#000000"/>
                                    <path  id="path160" stroke="none" gorn="0.1.0.0.0.0.0.0.1.5" style="stroke-linecap:square;" d="m 4026.6006,3035.0111 c -0.036,0 -0.074,0.01 -0.1221,0.024 -0.063,0.024 -0.1541,0.099 -0.179,0.1933 -0.025,0.094 0,0.1602 0.022,0.2055 0.02,0.045 0.04,0.079 0.063,0.1098 0.094,0.1258 0.226,0.2487 0.3723,0.4069 0.2926,0.3164 0.6002,0.7318 0.6002,1.115 0,0.3831 -0.3076,0.7985 -0.6002,1.1149 -0.1463,0.1581 -0.2781,0.283 -0.3723,0.4089 -0.024,0.031 -0.043,0.062 -0.063,0.1079 -0.02,0.045 -0.047,0.1114 -0.022,0.2054 0.025,0.094 0.116,0.1687 0.179,0.1933 0.063,0.024 0.1094,0.031 0.1567,0.031 l 0.3764,-0.4923 c 0.044,-0.047 0.057,-0.064 0.1078,-0.118 0.313,-0.3385 0.7324,-0.8282 0.7324,-1.4486 0,-0.6205 -0.4194,-1.11 -0.7324,-1.4486 -0.05,-0.054 -0.063,-0.072 -0.1078,-0.118 l -0.3764,-0.4903 c -0.012,0 -0.023,-4e-4 -0.035,0 z m 1.2146,0 c -0.047,0 -0.094,8e-4 -0.1567,0.024 -0.063,0.024 -0.1541,0.099 -0.179,0.1933 -0.025,0.094 0,0.1602 0.022,0.2055 0.02,0.045 0.04,0.079 0.063,0.1098 0.094,0.1258 0.2261,0.2487 0.3724,0.4069 0.2926,0.3164 0.6002,0.7318 0.6002,1.115 0,0.3831 -0.3076,0.7985 -0.6002,1.1149 -0.1463,0.1581 -0.2782,0.283 -0.3724,0.4089 -0.024,0.031 -0.043,0.062 -0.063,0.1079 -0.02,0.045 -0.047,0.1114 -0.022,0.2054 0.025,0.094 0.116,0.1687 0.179,0.1933 0.063,0.024 0.1094,0.031 0.1567,0.031 h 1.7375 c 0.1892,0 0.3794,-0.066 0.59,-0.1668 0.2106,-0.1012 0.4328,-0.2433 0.6429,-0.4211 0.4203,-0.3556 0.8016,-0.8624 0.8016,-1.471 0,-0.6087 -0.3813,-1.1154 -0.8016,-1.471 -0.2101,-0.1778 -0.4323,-0.3179 -0.6429,-0.4191 -0.2106,-0.1012 -0.4008,-0.1668 -0.59,-0.1668 z m 0.3764,0.4903 h 1.3611 c 0.052,0 0.2064,0.036 0.3764,0.118 0.17,0.082 0.3643,0.2043 0.5412,0.354 0.3538,0.2993 0.6246,0.6996 0.6246,1.0946 0,0.3949 -0.2708,0.7952 -0.6246,1.0946 -0.1769,0.1496 -0.3712,0.2682 -0.5412,0.3499 -0.17,0.082 -0.3249,0.1221 -0.3764,0.1221 h -1.3611 c 0.044,-0.047 0.057,-0.064 0.1078,-0.118 0.313,-0.3385 0.7304,-0.8282 0.7304,-1.4486 0,-0.6205 -0.4174,-1.11 -0.7304,-1.4486 -0.05,-0.054 -0.064,-0.072 -0.1078,-0.118 z" stroke-opacity="1" fill-opacity="1" fill="#000000"/>
                                    <path  id="path159" stroke="none" gorn="0.1.0.0.0.0.0.0.1.6" style="stroke-linecap:square;" d="m 4023.7705,3036.2949 v 4.0792 h 0.4924 v -4.0792 z" stroke-opacity="1" stroke-width="0.240977" fill-opacity="1" fill="#000000"/>
                                    <path  id="path158" stroke="none" gorn="0.1.0.0.0.0.0.0.1.7" style="stroke-linecap:square;" d="m 4033.7703,3036.8238 v 3.5788 h 0.4923 v -3.5788 z" stroke-opacity="1" stroke-width="0.225788" fill-opacity="1" fill="#000000"/>
                                    <path  id="path157" stroke="none" gorn="0.1.0.0.0.0.0.0.1.8" style="stroke-linecap:square;" d="m 4024.7207,3037.4627 v 2.1485 h 0.4923 v -2.1485 z" stroke-opacity="1" stroke-width="0.174903" fill-opacity="1" fill="#000000"/>
                                    <path  id="path156" stroke="none" gorn="0.1.0.0.0.0.0.0.1.9" style="stroke-linecap:square;" d="m 4028.7714,3039.365 v 1.0376 h 0.4903 v -1.0376 z" stroke-opacity="1" stroke-width="0.121634" fill-opacity="1" fill="#000000"/>
                                    <path  id="path155" stroke="none" gorn="0.1.0.0.0.0.0.0.1.10" style="stroke-linecap:square;" d="m 4042.0346,3036.2928 -2.7711,0 v 0.4923 h 3.0457 c -0.017,-0.053 -0.038,-0.1059 -0.063,-0.1587 -8e-4,-0 -0,-0 -0,-0.01 -0.023,-0.047 -0.05,-0.092 -0.077,-0.1383 -8e-4,-0 -0,-0 -0,-0 -0.037,-0.063 -0.082,-0.1226 -0.1262,-0.1831 z" stroke-opacity="1" stroke-width="0.426905" fill-opacity="1" fill="#000000"/>
                                    <path  id="path154" stroke="none" gorn="0.1.0.0.0.0.0.0.1.11" style="stroke-linecap:square;" d="m 4040.2116,3037.4627 v 0.4903 h 1.7416 c 6e-4,-7e-4 0,-0 0,-0 0.014,-0.018 0.026,-0.037 0.041,-0.055 0,-0 0,-0.01 0.01,-0.01 0.058,-0.076 0.1128,-0.1537 0.1607,-0.234 0,-0 0,-0 0,-0.01 0,-0.01 0.01,-0.016 0.012,-0.024 0.01,-0.01 0.011,-0.019 0.016,-0.028 0.011,-0.021 0.022,-0.041 0.033,-0.061 0.01,-0.02 0.019,-0.041 0.028,-0.061 z" stroke-opacity="1" stroke-width="0.330148" fill-opacity="1" fill="#000000"/>
                                    <path  id="path153" stroke="none" gorn="0.1.0.0.0.0.0.0.1.12" style="stroke-linecap:square;" d="m 4046.5675,3036.8238 c 2e-4,0 -2e-4,0 0,0 0.013,0.078 0.02,0.1582 0.02,0.2401 0,0.085 -0.01,0.1675 -0.022,0.2482 h 2.1993 v -0.4903 z" stroke-opacity="1" stroke-width="0.376493" fill-opacity="1" fill="#000000"/>
                                    <path  id="path152" stroke="none" gorn="0.1.0.0.0.0.0.0.1.13" style="stroke-linecap:square;" d="m 4040.2116,3039.365 v 0.2462 h -0.4923 v 0.2441 h 4.0507 v -0.4903 z" stroke-opacity="1" stroke-width="0.47443" fill-opacity="1" fill="#000000"/>
                                    <path  id="path151" stroke="none" gorn="0.1.0.0.0.0.0.0.1.14" style="stroke-linecap:square;" d="m 4041.6012,3035.0111 c -0.036,0 -0.074,0.01 -0.1221,0.024 -0.063,0.024 -0.1541,0.099 -0.179,0.1933 -0.025,0.094 4e-4,0.1602 0.022,0.2055 0.02,0.045 0.04,0.079 0.063,0.1098 0.094,0.1258 0.2261,0.2487 0.3724,0.4069 0.2926,0.3164 0.6001,0.7318 0.6001,1.115 0,0.3831 -0.3075,0.7985 -0.6001,1.1149 -0.1463,0.1581 -0.2782,0.283 -0.3724,0.4089 -0.024,0.031 -0.043,0.062 -0.063,0.1079 -0.02,0.045 -0.047,0.1114 -0.022,0.2054 0.025,0.094 0.116,0.1687 0.179,0.1933 0.063,0.024 0.1094,0.031 0.1567,0.031 l 0.3764,-0.4923 c 0.044,-0.047 0.057,-0.064 0.1078,-0.118 0.313,-0.3385 0.7324,-0.8282 0.7324,-1.4486 0,-0.6205 -0.4194,-1.11 -0.7324,-1.4486 -0.05,-0.054 -0.063,-0.072 -0.1078,-0.118 l -0.3764,-0.4903 c -0.012,0 -0.023,-4e-4 -0.035,0 z m 1.2146,0 c -0.047,0 -0.094,8e-4 -0.1566,0.024 -0.063,0.024 -0.1542,0.099 -0.1791,0.1933 -0.025,0.094 0,0.1602 0.022,0.2055 0.02,0.045 0.04,0.079 0.063,0.1098 0.094,0.1258 0.226,0.2487 0.3723,0.4069 0.2926,0.3164 0.6002,0.7318 0.6002,1.115 0,0.3831 -0.3076,0.7985 -0.6002,1.1149 -0.1463,0.1581 -0.2781,0.283 -0.3723,0.4089 -0.024,0.031 -0.043,0.062 -0.063,0.1079 -0.02,0.045 -0.047,0.1114 -0.022,0.2054 0.025,0.094 0.1161,0.1687 0.1791,0.1933 0.063,0.024 0.1093,0.031 0.1566,0.031 h 1.7375 c 0.1892,0 0.3794,-0.066 0.59,-0.1668 0.2106,-0.1012 0.4328,-0.2433 0.6429,-0.4211 0.4203,-0.3556 0.8016,-0.8624 0.8016,-1.471 0,-0.6087 -0.3813,-1.1154 -0.8016,-1.471 -0.2101,-0.1778 -0.4323,-0.3179 -0.6429,-0.4191 -0.2106,-0.1012 -0.4008,-0.1668 -0.59,-0.1668 z m 0.3764,0.4903 h 1.3611 c 0.052,0 0.2064,0.036 0.3764,0.118 0.17,0.082 0.3643,0.2043 0.5412,0.354 0.3538,0.2993 0.6246,0.6996 0.6246,1.0946 0,0.3949 -0.2708,0.7952 -0.6246,1.0946 -0.1769,0.1496 -0.3712,0.2682 -0.5412,0.3499 -0.17,0.082 -0.3249,0.1221 -0.3764,0.1221 h -1.3611 c 0.044,-0.047 0.057,-0.064 0.1078,-0.118 0.313,-0.3385 0.7304,-0.8282 0.7304,-1.4486 0,-0.6205 -0.4174,-1.11 -0.7304,-1.4486 -0.05,-0.054 -0.064,-0.072 -0.1078,-0.118 z" stroke-opacity="1" fill-opacity="1" fill="#000000"/>
                                    <path  id="path150" stroke="none" gorn="0.1.0.0.0.0.0.0.1.15" style="stroke-linecap:square;" d="m 4038.7712,3036.2949 v 4.0792 h 0.4923 v -4.0792 z" stroke-opacity="1" stroke-width="0.240977" fill-opacity="1" fill="#000000"/>
                                    <path  id="path149" stroke="none" gorn="0.1.0.0.0.0.0.0.1.16" style="stroke-linecap:square;" d="m 4048.7709,3036.8238 v 3.5788 h 0.4924 v -3.5788 z" stroke-opacity="1" stroke-width="0.225788" fill-opacity="1" fill="#000000"/>
                                    <path  id="path148" stroke="none" gorn="0.1.0.0.0.0.0.0.1.17" style="stroke-linecap:square;" d="m 4039.7193,3037.4627 v 2.1485 h 0.4923 v -2.1485 z" stroke-opacity="1" stroke-width="0.174903" fill-opacity="1" fill="#000000"/>
                                    <path  id="path147" stroke="none" gorn="0.1.0.0.0.0.0.0.1.18" style="stroke-linecap:square;" d="m 4043.77,3039.365 v 1.0376 h 0.4924 v -1.0376 z" stroke-opacity="1" stroke-width="0.121634" fill-opacity="1" fill="#000000"/>
                                    <path  id="path146" stroke="none" gorn="0.1.0.0.0.0.0.0.1.19" style="stroke-linecap:square;" d="m 4029.2638,3032.0101 v 0.4924 h 2.771 l 0,-0 c 0.1138,-0.1568 0.2132,-0.3216 0.2685,-0.4883 z" stroke-opacity="1" stroke-width="0.426905" fill-opacity="1" fill="#000000"/>
                                    <path  id="path145" stroke="none" gorn="0.1.0.0.0.0.0.0.1.20" style="stroke-linecap:square;" d="m 4030.2139,3030.8444 v 0.4903 h 2.0366 v -0.014 c -0.01,-0.017 -0.014,-0.032 -0.024,-0.049 -0.021,-0.042 -0.043,-0.083 -0.067,-0.1241 -0.01,-0.012 -0.013,-0.023 -0.02,-0.035 -0.01,-0.01 -0.012,-0.017 -0.016,-0.026 -0.02,-0.032 -0.041,-0.063 -0.063,-0.094 -0.014,-0.02 -0.028,-0.039 -0.043,-0.059 -0.015,-0.02 -0.031,-0.039 -0.047,-0.059 v -0.01 c -3e-4,-4e-4 3e-4,-0 0,-0 -0.01,-0.01 -0.01,-0.01 -0.01,-0.012 -0,-0 -0.01,-0.01 -0.01,-0.01 z" stroke-opacity="1" stroke-width="0.330148" fill-opacity="1" fill="#000000"/>
                                    <path  id="path144" stroke="none" gorn="0.1.0.0.0.0.0.0.1.21" style="stroke-linecap:square;" d="m 4036.5657,3031.4791 c 6e-4,0 0,0.01 0,0.01 2e-4,0 -4e-4,0 0,0 0,0.01 0,0.01 0,0.014 0,0.01 0,0.012 0,0.018 0.01,0.066 0.014,0.1329 0.014,0.2014 0,0.061 -0.01,0.1218 -0.012,0.1811 -6e-4,0 0,0.01 0,0.014 0,0.014 -4e-4,0.027 -0.01,0.041 -2e-4,0 2e-4,0 0,0 h 2.2014 v -0.4883 z" stroke-opacity="1" stroke-width="0.376493" fill-opacity="1" fill="#000000"/>
                                    <path  id="path143" stroke="none" gorn="0.1.0.0.0.0.0.0.1.22" style="stroke-linecap:square;" d="m 4029.7216,3028.9421 v 0.2461 h 0.4923 v 0.2462 h 3.5584 v -0.4923 z" stroke-opacity="1" stroke-width="0.47443" fill-opacity="1" fill="#000000"/>
                                    <path  id="path142" stroke="none" gorn="0.1.0.0.0.0.0.0.1.23" style="stroke-linecap:square;" d="m 4031.6015,3029.6725 c -0.036,0 -0.075,0.01 -0.1221,0.028 -0.063,0.025 -0.154,0.099 -0.179,0.1933 -0.025,0.094 9e-4,0.1605 0.02,0.2055 0.02,0.046 0.039,0.077 0.063,0.1078 0.094,0.1259 0.226,0.2509 0.3723,0.409 0.2926,0.3164 0.6002,0.7318 0.6002,1.1149 0,0.3832 -0.3076,0.7985 -0.6002,1.1149 -0.1463,0.1582 -0.2783,0.2811 -0.3723,0.4069 -0.023,0.031 -0.043,0.065 -0.063,0.1099 -0.021,0.045 -0.045,0.1115 -0.02,0.2055 0.025,0.094 0.116,0.1693 0.179,0.1933 0.048,0.016 0.086,0.026 0.1221,0.026 0.012,4e-4 0.022,0 0.034,0 l 0.3764,-0.4903 c 0.045,-0.046 0.058,-0.064 0.1079,-0.118 0.313,-0.3386 0.7324,-0.8281 0.7324,-1.4486 0,-0.6204 -0.4194,-1.1101 -0.7324,-1.4486 -0.051,-0.054 -0.064,-0.071 -0.1079,-0.118 l -0.3764,-0.4923 c -0.012,0 -0.023,-5e-4 -0.034,0 z m 1.18,0 c -0.036,0 -0.075,0.01 -0.1221,0.028 -0.063,0.025 -0.154,0.099 -0.179,0.1933 -0.025,0.094 8e-4,0.1605 0.022,0.2055 0.02,0.046 0.039,0.077 0.063,0.1078 0.094,0.1259 0.2261,0.2509 0.3724,0.409 0.2923,0.3164 0.6001,0.7318 0.6001,1.1149 0,0.3832 -0.3078,0.7985 -0.6001,1.1149 -0.1463,0.1582 -0.2784,0.2811 -0.3724,0.4069 -0.023,0.031 -0.043,0.065 -0.063,0.1099 -0.021,0.045 -0.047,0.1115 -0.022,0.2055 0.025,0.094 0.116,0.1693 0.179,0.1933 0.063,0.025 0.1097,0.026 0.1567,0.026 h 1.7375 c 0.1892,0 0.3794,-0.066 0.59,-0.1668 0.2106,-0.1012 0.4328,-0.2413 0.6429,-0.4191 0.4203,-0.3556 0.8016,-0.8623 0.8016,-1.471 0,-0.6086 -0.3813,-1.1154 -0.8016,-1.471 -0.2101,-0.1778 -0.4323,-0.3199 -0.6429,-0.4211 -0.2106,-0.1008 -0.4008,-0.1668 -0.59,-0.1668 h -1.7375 c -0.012,0 -0.023,-5e-4 -0.035,0 z m 0.411,0.4923 h 1.3611 c 0.052,0 0.2064,0.038 0.3764,0.1201 0.17,0.082 0.3642,0.2023 0.5411,0.3519 0.3538,0.2994 0.6246,0.6997 0.6246,1.0946 0,0.395 -0.2708,0.7933 -0.6246,1.0926 -0.1769,0.1497 -0.3711,0.272 -0.5411,0.354 -0.17,0.082 -0.3244,0.12 -0.3764,0.12 h -1.3611 c 0.044,-0.046 0.058,-0.064 0.1078,-0.118 0.313,-0.3386 0.7304,-0.8281 0.7304,-1.4486 0,-0.6204 -0.4174,-1.1101 -0.7304,-1.4486 -0.051,-0.054 -0.064,-0.071 -0.1078,-0.118 z" stroke-opacity="1" fill-opacity="1" fill="#000000"/>
                                    <path  id="path141" stroke="none" gorn="0.1.0.0.0.0.0.0.1.24" style="stroke-linecap:square;" d="m 4028.7714,3028.4253 v 4.0772 h 0.4924 v -4.0772 z" stroke-opacity="1" stroke-width="0.240977" fill-opacity="1" fill="#000000"/>
                                    <path  id="path140" stroke="none" gorn="0.1.0.0.0.0.0.0.1.25" style="stroke-linecap:square;" d="m 4038.7712,3028.3948 v 3.5808 h 0.4923 v -3.5808 z" stroke-opacity="1" stroke-width="0.225788" fill-opacity="1" fill="#000000"/>
                                    <path  id="path139" stroke="none" gorn="0.1.0.0.0.0.0.0.1.26" style="stroke-linecap:square;" d="m 4029.7216,3029.1882 v 2.1485 h 0.4923 v -2.1485 z" stroke-opacity="1" stroke-width="0.174903" fill-opacity="1" fill="#000000"/>
                                    <path  id="path138" stroke="none" gorn="0.1.0.0.0.0.0.0.1.27" style="stroke-linecap:square;" d="m 4033.7723,3028.3948 v 1.0396 h 0.4903 v -1.0396 z" stroke-opacity="1" stroke-width="0.121634" fill-opacity="1" fill="#000000"/>
                                    <path  id="path137" stroke="none" gorn="0.1.0.0.0.0.0.0.1.28" style="stroke-linecap:square;" d="m 4044.2685,3032.0142 v 0.4924 h 2.769 c 0.013,-0.017 0.026,-0.033 0.039,-0.051 0.064,-0.092 0.1208,-0.187 0.1669,-0.2828 -10e-5,-0 0,-1e-4 0,-0 3e-4,-9e-4 0,-0 0,-0 0.012,-0.024 0.02,-0.049 0.031,-0.073 0,-0.01 0.01,-0.021 0.01,-0.031 0.01,-0.015 0.013,-0.031 0.018,-0.047 l 0,-0 z" stroke-opacity="1" stroke-width="0.426905" fill-opacity="1" fill="#000000"/>
                                    <path  id="path136" stroke="none" gorn="0.1.0.0.0.0.0.0.1.29" style="stroke-linecap:square;" d="m 4045.2125,3030.8423 v 0.4924 h 2.0467 c -0.019,-0.042 -0.04,-0.084 -0.063,-0.1262 -0.01,-0.01 -0.011,-0.02 -0.016,-0.031 0,-0.01 -0,-0.01 -0.01,-0.012 -0,-0 -0.01,-0.01 -0.01,-0.01 -0.014,-0.023 -0.028,-0.046 -0.043,-0.069 -0.012,-0.019 -0.025,-0.04 -0.039,-0.059 -0.013,-0.019 -0.027,-0.038 -0.041,-0.057 l -0.03,-0.043 -0.01,-0.01 c -0.017,-0.023 -0.035,-0.047 -0.053,-0.069 z" stroke-opacity="1" stroke-width="0.330148" fill-opacity="1" fill="#000000"/>
                                    <path  id="path135" stroke="none" gorn="0.1.0.0.0.0.0.0.1.30" style="stroke-linecap:square;" d="m 4053.7697,3031.4812 -2.2034,0 c 3e-4,0 -2e-4,0 0,0 0,0.01 0,0.014 0,0.02 3e-4,4e-4 -3e-4,0 0,0 0.01,0.01 0.01,0.015 0.01,0.022 0.01,0.022 0.01,0.043 0.01,0.065 0,0.018 -9e-4,0.035 0,0.053 2e-4,0 -2e-4,0.01 0,0.01 v 0.059 0.01 c 0,7e-4 0,0 0,0 v 0.061 0.055 c 0,0.01 -0,0.01 -0.01,0.01 -0,0.013 -0,0.026 -0,0.039 -2e-4,0.01 0,0.01 0,0.012 v 0.022 c -5e-4,0 0,4e-4 0,0.01 -4e-4,0 4e-4,0.01 0,0.01 v 0.018 h 2.1932 z" stroke-opacity="1" stroke-width="0.376493" fill-opacity="1" fill="#000000"/>
                                    <path  id="path134" stroke="none" gorn="0.1.0.0.0.0.0.0.1.31" style="stroke-linecap:square;" d="m 4044.7201,3028.9421 v 0.2461 h 0.4924 v 0.2462 h 3.5584 v -0.4923 z" stroke-opacity="1" stroke-width="0.47443" fill-opacity="1" fill="#000000"/>
                                    <path  id="path133" stroke="none" gorn="0.1.0.0.0.0.0.0.1.32" style="stroke-linecap:square;" d="m 4046.6,3029.6725 c -0.036,0 -0.075,0.01 -0.122,0.028 -0.063,0.025 -0.1541,0.099 -0.1791,0.1933 -0.025,0.094 8e-4,0.1605 0.022,0.2055 0.02,0.046 0.039,0.077 0.063,0.1078 0.094,0.1259 0.226,0.2509 0.3723,0.409 0.2926,0.3164 0.6002,0.7318 0.6002,1.1149 0,0.3832 -0.3076,0.7985 -0.6002,1.1149 -0.1463,0.1582 -0.2783,0.2811 -0.3723,0.4069 -0.023,0.031 -0.043,0.065 -0.063,0.1099 -0.022,0.045 -0.047,0.1115 -0.022,0.2055 0.025,0.094 0.1161,0.1693 0.1791,0.1933 0.048,0.016 0.086,0.026 0.122,0.026 0.012,4e-4 0.023,0 0.035,0 l 0.3764,-0.4903 c 0.045,-0.046 0.058,-0.064 0.1079,-0.118 0.313,-0.3386 0.7324,-0.8281 0.7324,-1.4486 0,-0.6204 -0.4194,-1.1101 -0.7324,-1.4486 -0.051,-0.054 -0.064,-0.071 -0.1079,-0.118 l -0.3764,-0.4923 c -0.012,0 -0.023,-5e-4 -0.035,0 z m 1.1801,0 c -0.036,0 -0.075,0.01 -0.1221,0.028 -0.063,0.025 -0.154,0.099 -0.179,0.1933 -0.025,0.094 6e-4,0.1605 0.022,0.2055 0.02,0.046 0.039,0.077 0.063,0.1078 0.094,0.1259 0.226,0.2509 0.3723,0.409 0.2926,0.3164 0.6002,0.7318 0.6002,1.1149 0,0.3832 -0.3076,0.7985 -0.6002,1.1149 -0.1463,0.1582 -0.2783,0.2811 -0.3723,0.4069 -0.023,0.031 -0.043,0.065 -0.063,0.1099 -0.021,0.045 -0.047,0.1115 -0.022,0.2055 0.025,0.094 0.116,0.1693 0.179,0.1933 0.063,0.025 0.1097,0.026 0.1567,0.026 h 1.7375 c 0.1892,0 0.3794,-0.066 0.59,-0.1668 0.2106,-0.1012 0.4328,-0.2413 0.6429,-0.4191 0.4203,-0.3556 0.8016,-0.8623 0.8016,-1.471 0,-0.6086 -0.3813,-1.1154 -0.8016,-1.471 -0.2101,-0.1778 -0.4323,-0.3199 -0.6429,-0.4211 -0.2106,-0.1008 -0.4008,-0.1668 -0.59,-0.1668 h -1.7375 c -0.012,0 -0.023,-5e-4 -0.035,0 z m 0.411,0.4923 h 1.3611 c 0.052,0 0.2063,0.038 0.3763,0.1201 0.17,0.082 0.3643,0.2023 0.5412,0.3519 0.3538,0.2994 0.6246,0.6997 0.6246,1.0946 0,0.395 -0.2708,0.7933 -0.6246,1.0926 -0.1769,0.1497 -0.3712,0.272 -0.5412,0.354 -0.17,0.082 -0.3243,0.12 -0.3763,0.12 h -1.3611 c 0.044,-0.046 0.058,-0.064 0.1078,-0.118 0.313,-0.3386 0.7304,-0.8281 0.7304,-1.4486 0,-0.6204 -0.4174,-1.1101 -0.7304,-1.4486 -0.051,-0.054 -0.064,-0.071 -0.1078,-0.118 z" stroke-opacity="1" fill-opacity="1" fill="#000000"/>
                                    <path  id="path132" stroke="none" gorn="0.1.0.0.0.0.0.0.1.33" style="stroke-linecap:square;" d="m 4043.77,3028.4253 v 4.0772 h 0.4924 v -4.0772 z" stroke-opacity="1" stroke-width="0.240977" fill-opacity="1" fill="#000000"/>
                                    <path  id="path131" stroke="none" gorn="0.1.0.0.0.0.0.0.1.34" style="stroke-linecap:square;" d="m 4053.7697,3028.3948 v 3.5808 h 0.4924 v -3.5808 z" stroke-opacity="1" stroke-width="0.225788" fill-opacity="1" fill="#000000"/>
                                    <path  id="path130" stroke="none" gorn="0.1.0.0.0.0.0.0.1.35" style="stroke-linecap:square;" d="m 4044.7201,3029.1882 v 2.1485 h 0.4924 v -2.1485 z" stroke-opacity="1" stroke-width="0.174903" fill-opacity="1" fill="#000000"/>
                                    <path  id="path129" stroke="none" gorn="0.1.0.0.0.0.0.0.1.36" style="stroke-linecap:square;" d="m 4048.7709,3028.3948 v 1.0396 h 0.4903 v -1.0396 z" stroke-opacity="1" stroke-width="0.121634" fill-opacity="1" fill="#000000"/>
                                </g>
                                <g  id="copper1" gorn="0.1.0.0.0.0.0.0.2">
                                    <g  id="g5" gorn="0.1.0.0.0.0.0.0.2.0">
                                        <path  id="connector0pin" stroke="none" gorn="0.1.0.0.0.0.0.0.2.0.0" d="m 4024.0156,3041.3027 a 1.1299,1.1299 0 0 0 -1.1289,1.1309 v 5.7637 a 1.1299,1.1299 0 0 0 1.1289,1.1308 1.1299,1.1299 0 0 0 1.1309,-1.1308 v -5.7637 a 1.1299,1.1299 0 0 0 -1.1309,-1.1309 z" fill="#ffc000"/>
                                        <path  id="connector1pin" stroke="none" gorn="0.1.0.0.0.0.0.0.2.0.1" d="m 4029.0156,3041.3027 a 1.1299,1.1299 0 0 0 -1.1289,1.1309 v 5.7637 a 1.1299,1.1299 0 0 0 1.1289,1.1308 1.1299,1.1299 0 0 0 1.1309,-1.1308 v -5.7637 a 1.1299,1.1299 0 0 0 -1.1309,-1.1309 z" fill="#ffc000"/>
                                        <path  id="connector2pin" stroke="none" gorn="0.1.0.0.0.0.0.0.2.0.2" d="m 4034.0156,3041.3027 a 1.1299,1.1299 0 0 0 -1.1289,1.1309 v 5.7637 a 1.1299,1.1299 0 0 0 1.1289,1.1308 1.1299,1.1299 0 0 0 1.1309,-1.1308 v -5.7637 a 1.1299,1.1299 0 0 0 -1.1309,-1.1309 z" fill="#ffc000"/>
                                    </g>
                                    <g  id="g6" gorn="0.1.0.0.0.0.0.0.2.1">
                                        <path  id="connector3pin" stroke="none" gorn="0.1.0.0.0.0.0.0.2.1.0" d="m 4039.0156,3041.3027 a 1.1299,1.1299 0 0 0 -1.1289,1.1309 v 5.7637 a 1.1299,1.1299 0 0 0 1.1289,1.1308 1.1299,1.1299 0 0 0 1.1309,-1.1308 v -5.7637 a 1.1299,1.1299 0 0 0 -1.1309,-1.1309 z" fill="#ffc000"/>
                                        <path  id="connector4pin" stroke="none" gorn="0.1.0.0.0.0.0.0.2.1.1" d="m 4044.0156,3041.3027 a 1.1299,1.1299 0 0 0 -1.1289,1.1309 v 5.7637 a 1.1299,1.1299 0 0 0 1.1289,1.1308 1.1299,1.1299 0 0 0 1.1309,-1.1308 v -5.7637 a 1.1299,1.1299 0 0 0 -1.1309,-1.1309 z" fill="#ffc000"/>
                                        <path  id="connector5pin" stroke="none" gorn="0.1.0.0.0.0.0.0.2.1.2" d="m 4049.0156,3041.3027 a 1.1299,1.1299 0 0 0 -1.1289,1.1309 v 5.7637 a 1.1299,1.1299 0 0 0 1.1289,1.1308 1.1299,1.1299 0 0 0 1.1309,-1.1308 v -5.7637 a 1.1299,1.1299 0 0 0 -1.1309,-1.1309 z" fill="#ffc000"/>
                                    </g>
                                    <path  id="connector6pin" stroke="none" gorn="0.1.0.0.0.0.0.0.2.2" d="m 4054.0156,3041.3027 a 1.1299,1.1299 0 0 0 -1.1289,1.1309 v 5.7637 a 1.1299,1.1299 0 0 0 1.1289,1.1308 1.1299,1.1299 0 0 0 1.1309,-1.1308 v -5.7637 a 1.1299,1.1299 0 0 0 -1.1309,-1.1309 z" fill="#FFc000"/>
                                    <g  id="g7" gorn="0.1.0.0.0.0.0.0.2.3">
                                        <path  id="connector7pin" stroke="none" gorn="0.1.0.0.0.0.0.0.2.3.0" d="m 4054.0156,3019.5 a 1.1299,1.1299 0 0 0 -1.1289,1.1289 v 5.7637 a 1.1299,1.1299 0 0 0 1.1289,1.1308 1.1299,1.1299 0 0 0 1.1309,-1.1308 v -5.7637 a 1.1299,1.1299 0 0 0 -1.1309,-1.1289 z" fill="#ffc000"/>
                                        <path  id="connector8pin" stroke="none" gorn="0.1.0.0.0.0.0.0.2.3.1" d="m 4049.0156,3019.5 a 1.1299,1.1299 0 0 0 -1.1289,1.1289 v 5.7637 a 1.1299,1.1299 0 0 0 1.1289,1.1308 1.1299,1.1299 0 0 0 1.1309,-1.1308 v -5.7637 a 1.1299,1.1299 0 0 0 -1.1309,-1.1289 z" fill="#ffc000"/>
                                        <path  id="connector9pin" stroke="none" gorn="0.1.0.0.0.0.0.0.2.3.2" d="m 4044.0156,3019.5 a 1.1299,1.1299 0 0 0 -1.1289,1.1289 v 5.7637 a 1.1299,1.1299 0 0 0 1.1289,1.1308 1.1299,1.1299 0 0 0 1.1309,-1.1308 v -5.7637 a 1.1299,1.1299 0 0 0 -1.1309,-1.1289 z" fill="#ffc000"/>
                                    </g>
                                    <g  id="g8" gorn="0.1.0.0.0.0.0.0.2.4">
                                        <path  id="connector10pin" stroke="none" gorn="0.1.0.0.0.0.0.0.2.4.0" d="m 4039.0156,3019.5 a 1.1299,1.1299 0 0 0 -1.1289,1.1289 v 5.7637 a 1.1299,1.1299 0 0 0 1.1289,1.1308 1.1299,1.1299 0 0 0 1.1309,-1.1308 v -5.7637 a 1.1299,1.1299 0 0 0 -1.1309,-1.1289 z" fill="#ffc000"/>
                                        <path  id="connector11pin" stroke="none" gorn="0.1.0.0.0.0.0.0.2.4.1" d="m 4034.0156,3019.5 a 1.1299,1.1299 0 0 0 -1.1289,1.1289 v 5.7637 a 1.1299,1.1299 0 0 0 1.1289,1.1308 1.1299,1.1299 0 0 0 1.1309,-1.1308 v -5.7637 a 1.1299,1.1299 0 0 0 -1.1309,-1.1289 z" fill="#ffc000"/>
                                        <path  id="connector12pin" stroke="none" gorn="0.1.0.0.0.0.0.0.2.4.2" d="m 4029.0156,3019.5 a 1.1299,1.1299 0 0 0 -1.1289,1.1289 v 5.7637 a 1.1299,1.1299 0 0 0 1.1289,1.1308 1.1299,1.1299 0 0 0 1.1309,-1.1308 v -5.7637 a 1.1299,1.1299 0 0 0 -1.1309,-1.1289 z" fill="#ffc000"/>
                                    </g>
                                    <path  id="connector13pin" stroke="none" gorn="0.1.0.0.0.0.0.0.2.5" d="m 4024.0156,3019.5 a 1.1299,1.1299 0 0 0 -1.1289,1.1289 v 5.7637 a 1.1299,1.1299 0 0 0 1.1289,1.1308 1.1299,1.1299 0 0 0 1.1309,-1.1308 v -5.7637 a 1.1299,1.1299 0 0 0 -1.1309,-1.1289 z" fill="#FFc000"/>
                                </g>
                            </g>
                        </g>
                    </g>
                </g>
            </g>
        </g>
    </g>
</svg>
