<?xml version='1.0' encoding='UTF-8' standalone='no'?>
<!-- Creator: CorelDRAW 2018 -->
<svg xmlns="http://www.w3.org/2000/svg" text-rendering="geometricPrecision" version="1.0" height="25mm" xml:space="preserve" shape-rendering="geometricPrecision" clip-rule="evenodd" id="svg33" width="23.565001mm"  viewBox="0 0 1070.7499 1135.9526" gorn="0" xmlns:xml="http://www.w3.org/XML/1998/namespace" fill-rule="evenodd" image-rendering="optimizeQuality">
    <desc >
        <referenceFile >ninomegadriver-caricatura.svg</referenceFile>
    </desc>
    <defs id="defs33" />
    <g id="silkscreen"  gorn="0.2">
        <path id="path101"  gorn="0.2.0" stroke="none" fill="black" d="M 232.95303 0.070442405 C 219.59665 0.6070023 204.22384 8.5021719 184.5591 28.552655 C 174.37975 38.931832 164.6335 49.929277 164.43605 65.534917 C 112.42598 69.222226 95.228984 122.12743 144.31301 120.38607 C 135.53008 113.21366 109.46832 111.11807 127.52423 87.935602 C 136.19368 76.805846 152.10116 71.932568 171.40985 72.860927 C 171.77296 72.787437 172.118 72.714679 172.44301 72.626119 L 170.65847 57.833214 C 192.98094 38.718615 212.34115 33.82119 226.07316 33.624508 C 229.02605 32.746164 231.63956 33.04002 234.62017 34.094124 C 242.76557 35.179096 247.43415 37.653843 247.46417 37.663206 C 252.47653 46.598388 257.16203 50.573991 260.40209 62.271086 C 249.6399 57.106475 256.97348 57.386213 249.57744 49.661895 C 253.19101 90.776573 299.31218 86.369663 317.78917 87.982564 L 319.59719 83.709058 C 287.12983 79.193887 303.94114 86.159294 282.84974 62.69374 C 288.2356 63.476401 308.45138 76.292047 319.64415 80.233899 C 342.0725 88.127117 349.72509 81.716282 372.21767 84.014308 C 398.52364 86.702475 405.39453 80.279334 423.99283 84.202155 C 435.18797 86.564411 453.4667 100.23447 453.22643 108.59871 C 456.61636 78.093961 414.82276 74.001727 386.25919 79.646879 C 367.45393 83.362734 371.41636 80.270724 357.33084 79.059859 C 386.92207 68.633103 435.73733 53.709825 454.44743 81.807113 C 444.93418 75.310312 443.13818 70.095086 426.17655 70.442405 C 442.71235 76.31593 458.07286 90.755136 458.97923 109.81971 C 459.92604 129.71452 447.43994 151.28785 439.34928 161.17222 C 449.76414 158.39128 449.44566 154.3913 455.99717 146.75501 C 466.5191 165.40565 473.26098 229.12937 476.28458 254.391 L 478.84399 255.70593 C 478.95818 255.80822 479.37537 256.16449 479.50145 256.29295 L 482.69484 260.49601 C 489.75781 246.75308 495.33138 228.61264 501.73777 213.2996 C 509.52395 194.69654 518.32764 183.1268 525.52382 167.72337 C 505.0105 175.78549 482.12672 243.78655 481.75561 249.6244 C 478.73439 215.54177 475.6588 194.4217 466.32872 162.2993 C 462.82934 150.25012 453.10507 137.39734 464.82595 133.81709 C 488.32006 126.63755 480.94184 115.56493 493.00291 105.64013 C 497.59419 128.98435 496.86841 119.49373 502.44219 122.21757 C 515.85687 128.77385 537.11591 155.9157 546.02256 168.89741 C 554.18221 180.79194 560.88837 193.4416 566.49782 208.32167 C 583.21442 252.6693 646.81947 315.88195 625.55204 387.31582 C 616.45747 417.85862 612.94753 414.558 598.99525 422.91272 C 592.91713 420.42675 594.25729 419.20715 586.97308 417.41821 C 586.79228 418.05338 587.64676 420.03253 587.30181 420.86989 L 582.93438 424.95555 C 587.97528 433.70041 593.52602 443.68167 590.30735 458.34525 C 582.10964 449.81687 591.00507 457.97416 587.53662 440.40592 L 586.47998 433.43212 C 586.41578 433.00868 586.33381 432.29816 586.19821 431.7415 C 575.35277 427.9638 576.75475 432.70619 567.83623 434.1835 C 572.75582 428.98082 576.93234 421.7448 576.59456 411.12536 C 569.31985 426.15531 564.00035 435.0101 540.73938 441.34515 C 513.77445 448.69121 504.00427 435.60693 485.11336 435.56887 L 489.48079 443.85759 C 487.12566 445.13267 486.27639 445.72771 484.40894 447.09794 C 481.28067 443.50819 479.25174 439.92733 472.97379 439.34928 C 474.9578 459.8293 472.17002 445.7972 471.68234 466.44612 C 436.9027 478.4382 385.9326 456.47846 360.21898 424.95555 C 349.90404 412.30927 340.28989 391.40338 334.20225 372.59336 C 323.88731 340.72072 327.68665 316.74756 320.95908 307.43414 C 318.97031 320.74651 318.97198 330.13658 309.05431 337.65393 C 301.52032 343.36329 290.61452 342.84199 282.12183 338.40531 C 276.67174 335.56016 277.25531 334.76438 276.08727 332.69948 L 276.08727 332.676 C 256.11653 324.60316 247.76628 265.76974 294.07356 284.2351 C 314.37992 292.3329 304.59001 297.22743 317.31955 295.92854 C 314.80742 289.98605 312.48885 284.21379 311.6372 276.97954 L 305.74352 277.49611 L 305.2739 271.7668 C 299.70725 240.05119 295.94267 228.94605 300.10813 194.60888 C 301.29044 184.872 305.09628 166.08841 308.65514 158.89458 C 313.28685 149.5312 321.32265 136.55155 326.97016 132.10299 C 327.41502 131.68192 328.03292 130.36907 328.28509 130.81155 C 328.52536 131.23262 329.30472 129.86082 329.62349 129.66099 C 331.64557 128.38589 331.5 128.42553 333.82656 127.54771 L 338.38183 127.00766 C 335.72934 120.47516 335.36651 122.41277 335.93983 120.03386 C 337.55509 119.22503 336.17883 118.91529 339.29758 119.16507 L 355.12364 120.99657 L 340.04897 129.09745 C 363.14818 131.68807 376.70576 110.44735 400.37115 110.03104 C 413.11973 109.80742 416.98412 119.19158 422.39614 128.01733 C 428.39574 137.79702 427.51565 147.25559 433.0799 157.36833 C 450.16048 137.81132 437.98022 106.8747 420.77596 97.492288 C 400.62184 86.49935 372.74089 87.582563 347.58631 90.001913 L 342.30313 95.660786 L 329.34172 95.519901 C 330.71198 94.639706 327.93649 94.246162 334.17877 93.242263 C 335.83333 92.975946 335.78915 93.158073 336.55033 93.124859 L 335.09452 92.772647 C 321.02803 91.271556 307.93772 95.912494 291.72548 92.796128 C 290.60739 101.77175 275.36061 99.400824 270.73364 95.449459 L 277.91877 94.486746 C 291.86391 93.725496 280.29138 95.108463 285.10389 90.80026 C 271.4894 91.644772 260.22954 82.260714 254.1562 76.430009 L 254.62581 81.102689 C 246.09264 77.24172 241.35588 72.007564 236.89781 62.482413 C 234.9923 58.4121 234.28403 52.860028 232.31905 49.051395 C 229.51432 43.617969 227.07705 44.044374 223.53723 40.12869 C 246.52224 38.758437 235.37134 49.559367 244.81084 45.69364 L 245.44482 38.790284 C 240.58695 36.664449 237.42752 35.086949 234.62017 34.094124 C 232.10912 33.759648 229.21335 33.579533 226.07316 33.624508 C 219.8777 35.46736 211.20298 42.20085 189.0909 57.152271 C 187.20204 58.429745 181.57809 61.874472 180.59085 62.764183 C 174.31291 68.440258 179.19885 66.729904 174.27451 72.179984 C 173.82995 72.397881 173.02295 72.468093 172.44301 72.626119 L 172.46649 72.837447 C 172.09467 72.815397 171.77917 72.878687 171.40985 72.860927 C 158.71201 75.430856 123.98089 69.744541 134.49803 112.84873 C 138.87998 113.97395 142.32337 114.95725 147.45943 116.22997 C 154.1632 117.89045 155.63716 119.8023 160.39736 117.92059 C 153.47235 105.79053 145.41742 116.57527 139.19419 105.87493 C 135.06203 96.27604 141.50132 87.301386 149.00917 83.333365 C 159.20993 77.942759 171.45319 80.710901 179.88642 76.336086 C 180.24801 76.005419 180.79826 75.000809 180.91958 75.302931 C 181.03853 75.605053 181.7229 74.439912 181.88229 74.175852 L 183.29114 71.546003 C 186.98795 64.980216 180.48594 71.59752 187.4942 65.628841 C 194.75701 59.443681 218.02496 43.878717 225.55658 47.853874 L 229.83009 66.286303 C 212.90652 68.339301 182.13756 74.710698 175.84772 93.594475 C 193.82514 88.194351 208.53577 76.826878 228.79693 72.837447 L 222.99717 102.79895 C 161.14079 109.14111 171.4549 148.64403 209.47223 145.11135 C 200.85107 141.26942 180.08932 138.56265 187.9873 122.4289 C 192.99965 112.1877 211.69534 109.91323 226.04968 108.857 L 224.28862 120.94961 C 226.3321 117.65243 233.26873 111.25744 235.72377 107.94125 C 267.35135 104.83439 256.95477 99.946021 278.90496 114.98549 C 301.01215 130.13437 300.49527 123.1157 325.7022 123.93167 C 315.38249 135.47413 315.754 128.93145 305.01561 150.98155 C 285.77025 190.4976 289.50609 237.8096 300.41338 276.34555 C 286.33023 272.41797 269.18387 267.5239 257.77224 278.38838 C 240.22778 295.09306 254.34352 335.89612 277.21434 347.42194 C 298.97899 358.39108 305.53136 347.52378 317.55436 340.75339 C 320.21637 343.52244 320.08981 340.96121 321.75742 351.0145 C 322.48061 355.37503 323.096 358.77436 323.9881 362.80187 C 325.64858 370.30494 328.45155 377.92556 329.7409 385.0147 C 329.73483 385.00962 329.7235 385.01981 329.71742 385.0147 C 329.05609 390.47907 330.87612 386.68888 328.07376 388.86556 C 324.16522 383.96026 324.99734 385.38326 318.86929 382.85447 L 190.66411 289.47132 C 183.79858 284.74205 177.39945 279.97116 169.2731 274.7019 C 155.24467 265.60496 158.17386 264.8972 146.56716 259.39242 C 144.96141 235.70562 140.89679 223.6501 117.68578 222.55104 C 116.06337 202.38979 103.73074 163.05641 80.750477 162.25234 C 66.981355 178.49552 72.755171 194.61283 77.110952 214.23883 C 69.833871 223.06934 66.915255 223.23856 64.947897 238.4945 C 54.794716 239.07257 53.703649 239.18422 47.125969 243.94205 C 43.962021 240.87325 40.665254 235.95887 37.310994 232.1312 C 18.662729 210.86377 2.9829766 213.13166 0.37569283 234.24448 C -3.1546075 262.8342 18.112097 283.20271 36.489166 291.11498 C 40.497628 317.59223 58.082854 339.12347 87.559909 332.62904 C 101.99037 363.01724 126.31417 354.66477 151.38073 380.83512 L 261.9753 485.0664 C 271.54327 493.78271 275.04681 499.77274 286.30141 508.26543 L 285.97268 513.59557 C 285.98208 513.58903 285.98684 513.60205 285.99616 513.59557 C 288.49602 511.85983 288.28158 512.55873 290.85669 511.24749 C 290.85669 506.88697 292.06202 507.69519 288.01551 508.03062 C 281.68998 502.22131 267.77787 481.29228 254.69626 470.29698 L 143.09201 362.12092 C 161.56899 355.39573 177.69478 316.22344 176.8574 288.64949 C 182.33127 290.87378 291.69193 373.30122 317.83613 384.45116 C 321.9445 390.62442 326.68301 391.56716 333.80308 395.81587 C 333.81245 395.66007 333.81698 395.61213 333.82656 395.46366 C 333.82456 395.57848 333.83816 395.60173 333.82656 395.79239 C 343.78466 413.77455 350.82207 432.45193 368.3903 447.0275 C 365.72354 462.69736 338.52972 496.66843 327.29889 510.42567 L 310.22835 528.83461 L 308.37337 531.27662 L 308.34989 531.27662 L 308.34989 531.25314 L 310.20487 528.83461 L 305.1565 527.96582 C 303.85286 517.99344 306.24534 523.69735 297.05562 516.06106 C 293.82506 513.37527 295.21455 513.94756 290.88017 511.24749 L 290.85669 511.24749 C 288.30283 512.54199 288.52692 511.83258 285.99616 513.59557 C 288.3275 520.11377 285.68392 514.60299 289.84702 519.48925 C 292.06654 522.09179 292.13933 521.88482 294.44925 525.28901 C 292.84586 529.87318 291.34541 532.74101 289.8705 537.33466 C 287.34884 545.18508 290.14089 543.9267 283.95333 548.01843 C 229.37642 548.09933 193.06151 563.33918 175.84772 601.78946 C 163.94843 628.36902 169.74367 680.29812 177.28005 706.16163 L 191.6503 734.64384 L 196.46387 728.77364 C 206.13414 712.82067 217.75358 701.0018 235.53592 692.02619 C 224.99498 709.46833 214.44427 712.32268 206.02055 748.40359 C 200.05187 773.9602 203.29844 801.88194 210.59931 825.37366 C 224.55637 870.28271 243.63617 891.21242 283.36631 905.09098 C 287.31531 906.47075 286.7148 906.6008 291.96029 906.7816 C 292.19342 906.7916 297.79295 906.55424 297.97137 906.52331 C 313.64363 903.72809 291.36164 898.80323 294.61362 854.56029 C 295.77929 838.68345 299.71639 817.52319 308.02116 806.35421 C 312.03676 823.94623 314.4817 839.88779 320.74775 855.7813 C 340.95182 907.0325 387.88375 938.33304 441.72084 913.84932 C 442.42738 903.92927 430.1795 884.69867 450.15045 850.7564 C 451.32088 854.24865 456.53269 867.57497 456.70159 868.71922 C 457.17024 871.92121 454.97868 887.39298 454.75268 892.50527 C 453.21829 927.10173 465.78165 992.29496 486.61613 1010.5198 L 484.36198 1012.5626 C 483.97897 1012.8266 481.3826 1014.2883 481.35643 1014.3002 C 499.14829 1020.3783 502.04089 1032.2318 520.68678 1039.1664 C 544.74705 1048.1134 556.30953 1043.453 579.31834 1038.8141 C 567.8853 1065.0036 559.82871 1117.3572 596.83502 1129.5205 C 612.4597 1134.6566 622.08961 1142.0114 645.20547 1127.4072 C 689.08207 1099.6882 690.13621 1033.9056 675.26089 986.87461 C 669.18039 967.65064 640.34574 908.64513 639.92229 898.56332 C 643.35744 881.02123 765.76793 793.98748 791.65523 778.17725 C 805.35774 769.80825 820.16631 761.21308 836.05742 754.27379 C 848.42537 748.87131 851.56373 754.03718 861.01751 745.11628 C 866.50805 739.93501 875.71037 738.063 885.06186 735.13694 C 949.44225 714.98521 948.61681 733.76387 960.43523 739.88006 C 982.21889 751.15371 989.01767 741.28072 1002.3015 741.00714 C 1077.0777 739.4656 1077.4017 606.27089 1064.056 557.97429 C 1055.3373 526.42518 1034.2437 484.85349 994.64676 491.50014 C 962.78366 496.85032 951.30081 546.81408 946.98073 581.94819 C 936.69434 576.441 942.11311 576.65214 931.78865 577.46335 C 929.37643 582.56848 928.42693 585.48425 928.00824 592.56151 C 917.89788 592.16899 919.71505 592.15565 912.08826 596.29496 C 896.56113 589.56501 877.3443 590.00012 858.99817 591.05874 C 844.56294 591.89136 851.2894 586.50826 836.43312 594.11124 C 829.58184 597.61776 819.67893 600.09273 811.75479 602.37648 L 807.81002 595.37921 C 802.17912 581.87652 804.86684 577.76169 796.06962 574.12908 L 853.15145 565.3003 L 858.45811 563.32791 C 857.98946 564.28899 857.17292 566.36716 856.5092 567.39009 L 861.6515 566.00472 C 859.95058 557.81177 859.87873 562.7547 868.39049 559.87623 C 872.02306 558.64871 875.65491 557.90684 878.95685 556.58892 C 886.05788 553.75327 889.40802 550.13617 896.12131 546.89135 C 943.37358 512.68978 901.59096 469.41845 874.51898 440.45288 C 870.64134 436.30405 864.74074 428.63537 861.18188 425.70693 C 851.24281 417.52587 852.35049 428.76778 848.38484 408.91816 L 886.4707 372.07678 C 885.73086 362.68248 886.75794 368.84309 883.98174 366.69968 C 870.81688 374.46205 858.86529 393.62792 846.10721 400.84076 L 840.14308 372.82817 C 844.45365 366.86425 865.08924 351.83008 873.95544 345.42607 C 880.26193 351.71828 886.94521 364.20922 889.82846 371.9359 C 891.91712 372.35697 894.2262 372.79949 898.04674 373.74392 C 903.27081 369.99477 904.29646 368.49599 910.16283 364.86818 C 914.60664 362.12053 917.37938 361.10531 922.02064 357.21343 L 923.68777 359.51455 C 928.89759 370.80961 920.11143 350.7693 924.83833 362.26181 C 927.16726 367.926 929.58846 376.03028 941.36882 373.90828 C 940.87876 363.90022 933.51253 367.76327 929.67538 354.72447 L 948.20173 343.52413 C 953.47814 348.93615 953.88759 355.39052 963.58166 354.18441 C 963.31046 345.9986 959.69842 347.36207 955.85647 338.02962 L 982.31934 322.43837 C 983.67767 323.64448 999.68987 345.16835 997.55838 331.17323 C 996.93748 327.09339 993.97779 326.34006 989.97408 318.611 C 997.95534 308.69333 1019.7601 301.53644 1019.8886 288.43817 C 1019.9696 280.32611 1012.4224 276.82907 1007.6551 271.22674 C 1002.4833 265.14626 1002.6173 256.31105 996.36085 250.02358 C 990.26134 260.83809 1009.7273 282.49712 1013.0792 288.50861 C 993.78148 316.66062 911.59118 345.40591 896.49701 365.0795 C 890.07634 360.2622 890.70107 358.60316 886.9638 351.74241 C 880.91663 340.6448 868.68934 317.98807 861.39321 310.79189 L 996.36085 250.02358 L 994.50587 248.37992 C 979.75902 250.02851 965.48412 256.84227 952.21695 261.20044 C 949.1529 256.42358 949.57699 251.87685 940.03041 256.17555 C 938.76485 259.81052 940.51263 260.02583 942.80115 264.41731 L 917.77061 272.9878 C 913.60041 268.97697 915.47855 269.18695 910.06891 268.40904 C 907.22375 274.5371 908.77482 273.48646 910.60897 280.66602 L 886.07153 292.1951 C 880.43115 285.61502 884.70333 282.91585 875.9513 280.71298 C 869.6924 288.67043 874.55418 287.228 876.18611 296.53904 L 851.27298 310.11095 L 857.37799 313.58611 C 864.57896 316.41461 867.47636 331.37503 870.43332 338.45227 C 864.58835 343.87857 842.97316 360.41745 837.48975 362.49662 C 833.58357 351.21821 833.44759 341.23116 819.76175 340.96472 C 807.22966 348.12525 795.89502 381.0027 801.93982 399.05622 L 788.06266 408.02589 C 778.98713 403.66772 776.49905 405.97658 771.55566 396.87251 C 762.17325 379.59211 756.25409 379.14174 750.75167 373.55607 C 745.97005 368.70071 730.20805 326.45707 661.19589 329.81134 C 645.26198 330.58446 646.24037 332.90672 636.14188 337.20779 C 633.09214 317.7626 619.51805 287.64991 610.59477 272.91736 C 602.76338 259.9856 581.26213 228.70409 578.21474 214.84933 C 574.04452 195.90132 557.44876 169.73054 547.26704 155.63075 C 537.29939 141.82833 526.25705 131.64685 514.79309 119.91645 C 509.79976 114.80418 507.31442 114.23998 501.3386 109.25617 C 498.6195 87.819823 503.26485 62.080103 489.97389 48.370451 C 485.81319 44.078901 483.86612 44.733993 479.54841 40.692229 C 473.62492 35.149371 467.2616 12.034178 445.10208 18.17414 C 432.48672 21.668758 419.78416 36.525574 412.06459 41.326211 C 407.90626 43.912085 404.05124 45.60039 399.29103 48.62874 C 381.9702 59.645518 361.59032 67.434945 340.02549 61.965835 C 292.46531 49.907416 270.79869 3.9777498 238.54146 0.28176962 C 236.70866 0.071770769 234.86109 -0.0062090085 232.95303 0.070442405 z M 336.55033 93.124859 L 339.69676 93.829283 C 338.90841 93.550194 338.98482 93.018622 336.55033 93.124859 z M 276.08727 332.676 C 282.3533 330.67059 282.01275 326.98407 283.90637 320.11377 L 294.37881 321.00604 C 290.9722 314.37604 295.14373 317.93361 287.75722 314.76015 L 290.95061 303.27803 C 282.37228 306.27068 287.35359 302.07822 282.26272 310.22835 C 277.33123 308.96039 273.30646 307.22149 268.10379 311.30847 L 278.2475 315.15932 L 276.08727 332.676 z M 233.25828 6.2458932 C 243.73801 6.0847595 252.97625 10.704035 261.8579 17.610601 C 266.28506 21.055261 267.58442 22.915997 269.79441 26.275017 C 261.25889 25.118867 242.65559 9.2098374 223.60767 17.493197 C 219.46124 19.296409 213.5868 30.090354 183.99556 39.353824 C 185.77974 35.131262 196.37869 24.082832 200.59649 20.569182 C 204.31948 17.464707 215.38378 10.325157 222.33971 8.1008766 C 226.13823 6.8876334 229.76504 6.2996046 233.25828 6.2458932 z M 454.54136 23.457321 C 459.65042 24.234889 464.45927 27.677682 468.11326 35.221202 C 453.28554 31.774164 446.00905 33.652273 430.37961 35.315126 C 436.66589 28.291398 446.02628 22.161373 454.54136 23.457321 z M 250.39927 31.675601 C 266.0858 31.423437 261.06294 43.791781 269.13695 54.47546 C 273.66164 60.463173 280.88413 64.437675 288.69646 78.261512 L 274.34969 71.358156 C 273.15071 74.850394 275.19185 75.789638 271.08585 74.833315 C 261.97225 72.713708 269.37572 74.764002 265.99052 69.784942 C 265.21261 53.791539 257.89996 39.504589 250.39927 31.675601 z M 272.33034 36.230877 C 289.59644 39.506633 300.47981 56.680268 309.12475 65.01834 C 296.75681 65.382313 285.77047 55.202536 278.90496 46.750276 C 276.38093 43.645799 274.95903 38.72873 272.33034 36.230877 z M 440.17111 48.699183 C 443.83047 49.105382 446.68579 50.906401 451.58278 56.612213 C 457.67753 63.715634 463.90091 72.075492 465.34253 83.943866 C 461.86218 80.994021 465.61728 85.565161 460.90465 79.318148 C 458.99915 76.791747 458.64806 75.669231 456.84248 73.494909 C 445.12159 59.34516 429.59203 59.878022 412.81597 58.819408 L 422.27874 55.907789 C 418.1989 53.464649 417.36848 54.067078 410.51485 54.052805 C 411.11672 53.674558 411.96573 52.409197 412.34636 52.949208 L 423.99283 49.168799 C 432.0609 49.281796 436.51177 48.292983 440.17111 48.699183 z M 453.3908 49.168799 C 472.23493 56.733096 473.78797 73.787997 474.92269 97.797539 C 480.6511 98.913247 475.28782 97.180439 478.82051 99.863849 L 476.07325 105.05311 C 473.96077 120.25433 473.94518 126.38343 461.67952 132.87786 C 465.1123 120.18876 470.42507 119.03306 471.77627 103.12768 L 472.12848 97.797539 C 473.71521 74.64362 462.75655 62.052967 453.3908 49.168799 z M 314.83059 59.500351 C 323.29 61.643748 323.79769 62.605474 329.97571 67.061169 C 315.79743 67.570257 320.34966 68.335619 314.83059 59.500351 z M 232.78867 72.673081 C 238.87867 80.411672 240.31168 82.630502 248.12163 87.58339 C 245.85928 89.650661 249.19649 87.462211 244.52907 90.471529 C 242.43802 91.82037 241.752 91.83179 239.33981 93.406629 C 234.17757 96.77992 235.47638 97.496527 229.92401 99.88733 L 232.78867 72.673081 z M 302.3388 99.58208 C 304.57645 99.376009 306.98454 99.854427 313.13997 100.94397 C 307.17128 105.89923 301.56099 107.52126 292.54731 102.42326 C 298.02354 100.69261 300.10112 99.788152 302.3388 99.58208 z M 410.98447 102.54066 C 423.46958 106.09209 431.23826 116.9482 432.39896 132.59609 C 429.32302 127.79545 426.2287 119.83643 422.74835 115.50206 L 417.15992 109.16225 C 415.0336 106.66532 413.19056 104.71865 410.98447 102.54066 z M 336.55033 107.96473 C 331.84962 110.9669 323.11027 115.78237 316.38032 111.9095 C 320.85031 109.0334 329.50402 108.38579 336.55033 107.96473 z M 82.981153 170.02448 C 98.539215 173.91638 108.99238 205.19836 111.22856 226.42537 C 102.97375 230.15788 90.53896 242.65317 86.785043 249.88269 C 85.343423 252.65888 85.688183 253.3753 84.624809 255.47112 C 82.319646 260.01247 83.918037 257.52515 80.656554 260.28469 C 68.198208 247.37673 70.531385 230.60315 79.247705 222.95021 C 85.851557 224.89853 81.256064 223.27615 86.99637 228.02206 C 86.651429 205.09415 74.697793 196.94422 82.981153 170.02448 z M 514.58177 194.13927 C 524.69926 204.59219 552.19889 228.98007 535.64405 251.26806 C 530.05532 258.79025 526.86963 258.54269 519.20749 263.59548 C 562.55147 269.62603 548.15622 196.35394 514.58177 194.13927 z M 390.50921 208.57996 C 382.20442 211.66303 373.31475 222.40497 368.74251 228.42124 C 358.98661 236.82116 373.52326 229.6885 355.21757 243.33155 C 352.71019 245.20138 353.51377 244.74014 351.81285 246.5719 C 350.70665 247.36646 342.39208 253.08747 346.03657 256.73908 C 349.26476 259.9744 353.37843 252.91581 357.04907 249.88269 C 360.51039 247.60131 358.21712 249.82399 360.85296 246.92411 C 361.85924 245.81791 363.09293 243.7186 364.18723 242.29839 C 367.79366 237.62384 367.46869 239.20592 370.45661 233.77486 C 369.95317 233.77279 369.5298 233.73429 369.18864 233.68094 C 369.52839 233.73598 369.95318 233.77278 370.45661 233.77486 C 373.99014 230.14128 376.59976 227.22006 382.29093 224.54691 L 391.44844 235.77073 C 381.18583 244.16589 372.11124 253.95589 366.37095 266.69494 C 365.50027 268.62662 364.03032 272.52024 363.99939 274.53753 C 363.84476 284.87391 363.92048 277.33491 366.20658 280.17292 C 373.08162 276.89005 369.32742 276.96013 372.56988 268.85518 C 373.8878 265.55802 376.95855 261.05884 378.58096 258.75843 C 384.37359 250.54406 387.81149 245.86854 396.30897 241.61745 C 404.66845 248.70659 408.28995 257.49812 418.8975 262.16315 C 418.55018 262.59374 418.02021 263.10343 417.77042 263.38415 C 417.5254 263.6601 416.95229 264.24386 416.66682 264.58167 C 407.22729 275.69831 420.01446 279.58489 426.41136 268.97258 L 437.56474 278.95192 C 439.12766 286.56683 442.89092 283.64388 446.27612 276.72125 C 456.88842 277.06381 460.07339 277.54367 465.69474 271.1563 C 420.54781 274.25363 401.82043 230.28033 384.56857 220.17948 C 386.67154 214.64375 388.1636 214.61049 390.50921 208.57996 z M 437.32993 211.30373 C 437.8747 223.37432 450.47447 256.25172 460.62289 265.05129 C 458.263 251.38924 444.03606 221.64485 437.32993 211.30373 z M 12.750075 224.45298 C 24.290162 225.46164 33.140859 236.54286 38.391111 243.09674 C 43.698454 249.72439 42.284066 304.16164 72.555677 295.95202 C 84.083867 292.82614 85.162909 279.92112 91.293357 271.08585 C 106.78243 272.91524 114.94184 272.02702 121.2079 260.82474 C 114.3376 263.48434 104.52016 267.26711 96.905268 262.79713 C 89.939824 258.71018 96.483129 262.77154 92.819609 258.40622 C 97.296714 246.9042 112.57074 229.69872 130.03668 232.22513 C 144.99525 249.15107 139.43099 265.1469 128.76872 283.85941 C 117.25718 304.06109 111.88477 309.22981 97.304442 324.31683 C 94.613896 320.4654 95.219845 318.32167 94.275418 313.4687 C 84.146027 338.34733 46.155227 322.41237 42.969867 284.37599 C 29.82402 283.15561 21.241026 272.84651 15.23904 262.18663 C 7.0722467 247.67528 5.3421542 238.76925 12.750075 224.45298 z M 367.94416 233.04696 C 367.99149 233.12671 368.05856 233.19214 368.13201 233.25828 C 368.20546 233.32443 368.28834 233.39289 368.3903 233.44613 C 368.28834 233.3929 368.20436 233.32514 368.13201 233.25828 C 368.0646 233.19412 367.98774 233.12363 367.94416 233.04696 z M 502.677 238.87019 C 498.58767 244.32028 499.54084 242.89375 501.10379 249.85921 C 510.71695 248.9457 513.04904 241.69634 502.677 238.87019 z M 62.998991 243.84812 C 66.124876 250.92775 65.006196 254.61637 69.385769 260.23772 C 74.459982 266.75357 78.577927 266.06547 83.333365 270.42839 C 80.07664 278.42151 80.372734 282.56608 74.551545 285.97268 C 59.585832 294.72943 45.235198 268.98816 52.526553 247.6755 L 62.998991 243.84812 z M 501.9491 259.79159 C 501.566 259.78559 501.17391 259.81365 500.77506 259.83855 C 496.94614 260.07671 492.39086 261.719 486.7805 264.51123 C 474.7575 270.49419 470.60743 274.62375 465.1312 286.09009 C 477.64424 281.62249 485.47746 264.29405 505.94083 267.28196 C 511.44088 284.32924 484.34536 309.51803 466.42264 310.69797 C 453.28869 311.56388 455.12173 305.38056 457.26513 294.61362 C 448.52265 300.19928 449.0517 302.58312 450.12697 313.44522 C 484.35708 331.8199 504.19598 293.26261 514.72265 276.29859 C 530.64468 280.58302 543.34377 281.0562 548.93418 267.79854 C 534.27536 273.50318 533.33001 274.0762 515.12183 271.62591 C 511.70402 263.49115 507.6956 259.88273 501.9491 259.79159 z M 147.83513 268.9491 C 153.80143 272.6364 160.41425 277.27321 153.494 288.13292 C 150.41093 286.20362 150.38735 288.47531 148.58651 281.44089 C 147.58261 277.52282 147.88984 273.01702 147.83513 268.9491 z M 356.03939 282.94366 C 354.17126 282.92296 352.31603 282.96616 350.47444 283.10803 C 374.84161 300.0197 416.3387 292.84621 445.10208 288.62601 L 454.68224 286.13705 C 451.84984 284.72307 451.10455 284.00699 450.4557 284.0003 C 450.4097 283.99982 450.36049 283.9933 450.31481 284.0003 C 449.63013 284.0996 448.90618 285.00535 445.78302 286.67711 C 429.27101 286.61051 412.92563 288.14278 396.30897 287.38153 C 382.79141 286.76123 369.1164 283.08928 356.03939 282.94366 z M 425.61301 301.07084 C 413.71371 306.0023 403.42761 312.58759 389.17081 317.34303 C 374.64095 322.19027 380.41756 320.50086 377.28952 323.54197 C 403.08412 323.55957 410.24878 313.48306 425.61301 301.07084 z M 139.28812 310.76841 C 145.54703 312.63348 147.33912 314.77567 145.93318 321.00604 C 139.77419 322.62846 134.25911 318.72347 139.28812 310.76841 z M 490.60787 319.52675 C 472.41846 319.88371 463.66532 337.88698 465.48341 362.7549 C 467.27711 387.25766 488.24491 411.31663 502.98225 418.66269 C 526.52632 430.40023 577.48697 412.0745 535.62057 347.89156 C 528.09368 336.35148 524.51317 331.9764 511.90496 325.44391 C 503.78932 321.23979 496.67097 319.40776 490.60787 319.52675 z M 495.56232 325.56131 C 507.28082 327.0743 504.92341 328.65052 510.04997 337.95918 L 500.91594 338.52272 L 495.56232 325.56131 z M 489.03466 325.63176 C 490.42962 325.53956 489.67724 326.98851 492.29849 331.00886 C 495.13177 335.35752 495.66924 336.0016 496.47807 339.93156 C 485.65639 340.88312 491.8972 337.65996 483.00009 327.22845 C 486.58272 326.30514 488.19766 325.68707 489.03466 325.63176 z M 481.0277 330.4688 L 485.84127 341.66914 L 473.11467 345.82525 C 473.19797 342.20456 473.26615 340.28588 474.80529 337.04343 C 477.8051 330.72741 478.30384 332.28867 481.0277 330.4688 z M 121.70099 330.51576 C 123.6065 337.9213 124.55377 337.18322 117.49793 340.16637 C 113.38718 333.66957 114.57616 333.49416 121.70099 330.51576 z M 666.29123 337.16083 C 696.7432 337.10263 730.34005 349.39595 743.68395 372.78121 C 738.7477 381.82106 734.80918 388.87504 736.54578 404.26896 C 737.85894 415.91848 743.08167 426.53166 747.15911 435.00533 L 738.42425 443.92804 C 734.35633 447.7676 731.34948 449.22281 727.36479 453.03859 C 719.5715 460.50122 714.45044 466.24668 705.92682 470.76659 C 694.72454 449.88929 680.51214 436.03223 665.39896 420.75248 C 659.69194 414.98365 662.30624 414.18422 657.97902 410.06872 C 653.23309 405.55591 639.5195 401.41155 631.28135 400.48855 C 637.94228 372.91462 637.32671 371.46152 637.76205 341.38737 C 646.34931 338.57728 656.14057 337.18022 666.29123 337.16083 z M 821.75761 348.76035 C 824.31732 350.47554 824.95899 349.85473 827.60433 356.90818 L 836.31571 391.9885 C 838.74934 403.16937 845.34946 432.33534 849.46496 439.41972 C 867.29251 470.10528 823.53019 497.58622 793.65109 495.42143 C 793.46791 495.81157 793.21571 495.9936 793.11104 496.59547 L 789.65936 501.97258 C 773.14258 497.89274 774.67864 492.95326 771.41478 489.17554 C 768.08905 485.32646 771.76188 489.32135 767.98658 486.40481 C 753.99145 475.58791 762.12633 462.17571 766.9769 451.0662 C 758.88862 436.58816 733.17363 405.76706 747.51132 382.5727 C 771.3575 394.91211 772.53989 428.72415 789.54195 440.68768 C 789.26362 429.48303 783.61478 421.6652 780.22008 412.83945 C 785.40849 413.8386 791.59169 416.12439 794.68425 419.93066 C 798.98295 425.22609 796.6939 430.68096 801.61109 437.14208 C 806.20953 423.02088 803.33594 418.40521 796.16354 410.91403 C 802.21312 405.37116 806.27134 403.03038 815.74653 403.1184 C 820.42583 412.34859 820.66295 426.06673 825.77283 433.4556 C 826.03451 432.99172 826.49029 431.81092 826.57118 432.07023 C 827.54177 435.18182 830.44528 403.53113 819.40953 397.41257 L 806.40117 395.69847 C 809.2154 378.61316 811.16195 360.27426 821.75761 348.76035 z M 502.08998 368.24941 C 516.39568 367.95318 504.64764 384.12562 502.34827 386.54096 L 486.05259 396.70814 C 481.00456 390.85604 479.19318 387.18639 475.43927 378.51052 L 498.87311 368.53118 C 500.06911 368.3559 501.13628 368.26915 502.08998 368.24941 z M 522.51828 393.35039 L 524.70199 407.0397 C 533.70853 405.01286 532.9891 403.80532 535.83189 396.09764 C 541.822 401.51205 540.33193 398.80757 541.51425 407.48583 C 526.13697 413.89224 529.84751 418.21616 508.21847 414.62399 C 510.42849 405.03938 514.2492 395.42956 522.51828 393.35039 z M 498.66178 395.39322 C 502.92956 400.23903 502.68242 403.211 503.1701 410.56182 C 494.59652 407.7214 497.30852 406.76775 491.57058 401.66259 C 494.66555 397.12366 493.23789 397.61512 498.66178 395.39322 z M 629.09764 406.82837 C 648.57376 409.34051 659.75083 423.59605 670.51777 435.73324 C 680.77325 447.28997 696.31104 463.83058 703.22653 475.22794 C 674.45602 503.21104 565.41456 599.98112 534.49349 615.40833 C 529.53586 612.13021 527.28659 610.43748 522.98789 607.35441 C 516.15803 602.45149 513.5172 604.38834 512.67982 595.54357 C 516.97614 593.43823 516.15904 594.66483 520.19368 593.07809 C 524.92531 591.21778 523.46739 590.82322 527.77798 588.52281 C 536.41579 583.91013 557.60557 583.45121 577.72164 568.21192 C 610.87411 543.09066 597.47085 526.36071 588.99243 511.24749 C 596.68108 485.77414 593.80431 504.35215 596.83502 471.1188 C 599.1045 446.2378 594.11024 448.65785 595.63749 437.0012 C 595.70409 436.49925 596.94061 433.30193 596.76457 432.65725 L 596.76457 432.63377 C 601.88162 428.26372 607.34648 427.56625 614.84479 422.70139 C 619.21961 419.86097 625.10344 411.20319 629.09764 406.82837 z M 631.0935 410.93751 C 624.5848 415.79048 621.11337 428.23677 601.06156 433.05642 C 599.19411 455.34204 606.5695 483.05979 593.03113 511.24749 C 601.55713 523.49649 605.71437 529.72727 599.81708 546.18693 C 598.65617 549.42224 597.09709 552.66728 596.62369 554.68698 C 595.19398 560.78411 599.11738 557.98683 595.30876 561.73122 C 591.00769 565.96092 592.85861 561.26835 586.78523 565.27682 L 566.92047 579.52966 C 562.57184 581.78009 555.19352 584.35257 549.26291 585.98689 C 543.88419 587.46894 536.86836 589.55763 530.99485 591.78664 L 518.00996 598.73696 C 517.82498 598.38419 517.17684 599.22584 516.78896 599.48835 C 523.98518 601.4795 526.58944 606.04587 534.77526 611.534 L 629.82554 536.0667 C 647.8529 522.70198 636.11862 526.33525 655.49006 513.54861 C 661.38976 509.65436 667.62178 499.61839 674.93216 494.83441 C 676.61167 493.73535 676.5464 494.33871 679.72225 491.64102 L 694.39775 478.21001 C 697.15728 475.13648 695.77083 477.36101 697.2624 473.11467 C 694.20074 468.56381 693.18547 468.63023 689.79551 464.61462 L 675.21393 447.05098 C 672.44487 443.28994 671.02447 442.3136 667.98184 438.24568 C 659.06331 426.32259 646.36848 414.63434 631.0935 410.93751 z M 854.11416 429.11165 C 873.73539 446.39919 923.24874 496.93889 904.76225 526.06388 C 896.3861 539.25491 876.14708 548.93805 856.5092 554.07648 C 839.62611 558.49412 807.00399 566.68548 789.65936 565.7934 C 779.87015 556.33248 776.5772 549.50966 766.50729 540.43413 L 742.46295 517.82212 C 745.69349 513.29266 760.01129 495.47474 766.08463 494.62309 C 775.11734 530.98233 774.41725 517.05019 790.59859 534.39956 C 800.88975 545.43532 801.51549 538.46131 813.42193 534.86918 C 830.82125 529.6213 841.24928 523.67891 851.01469 508.40632 C 854.52121 502.91816 859.18179 494.16315 860.59486 486.17 C 865.92027 456.00849 854.36321 435.29143 854.11416 429.11165 z M 753.5224 442.66007 L 760.16747 446.67529 C 750.47342 470.05283 751.20035 464.85833 759.1578 489.17554 C 746.21416 500.18989 721.54225 528.99825 706.63124 544.63719 C 700.57453 550.98888 694.14112 555.65709 688.03445 562.15387 L 619.07133 637.97338 C 580.2523 636.10831 580.5229 643.95715 555.15659 650.95826 C 555.01385 634.73172 545.56371 627.24055 539.65926 619.61139 C 555.24113 607.09358 572.63186 598.95307 595.21484 579.74099 C 599.73237 575.8967 603.14898 572.82112 608.2232 568.65805 L 648.02316 534.16476 C 652.48125 529.50922 656.15651 527.46313 661.07849 523.12878 C 673.6082 512.09302 741.40187 448.3076 753.5224 442.66007 z M 530.57219 444.32721 C 539.96411 446.03289 546.05075 455.50883 551.30574 462.57179 C 561.37327 476.10303 551.98916 481.28916 547.26704 489.19902 C 547.89507 492.58422 548.23481 497.67784 548.93418 501.12727 C 550.264 507.68828 552.82741 507.75256 552.4563 511.27097 C 552.10184 514.62046 543.75563 519.18327 543.11094 537.35814 L 538.69655 540.66894 C 542.72915 542.58173 541.31345 537.91563 542.21867 543.43967 C 543.68646 552.40101 542.856 543.94813 540.78634 548.01843 C 540.76224 547.98153 540.7435 547.94552 540.7159 547.90102 C 538.76274 554.5509 541.64394 550.45085 536.95897 553.53642 L 540.62198 547.76014 C 540.32021 547.26164 539.90066 546.53 539.84711 546.72698 L 538.67307 540.66894 C 536.54632 542.78615 538.51425 540.43568 535.55012 544.12062 L 528.34152 557.17594 C 516.83472 546.24723 529.25475 572.11749 503.35794 570.79481 C 512.71656 564.56445 511.23828 559.66371 514.48784 555.22703 C 519.98552 547.71445 519.99799 555.00918 529.84429 540.29325 C 533.91699 534.20799 537.47758 530.83938 540.76286 521.2738 C 543.56285 513.12125 543.6661 501.64905 543.7684 492.36893 L 519.51274 507.79582 C 519.6293 508.8235 519.39388 509.05268 519.32489 509.90909 L 517.79864 516.48371 C 514.25881 526.28243 510.80501 517.48726 506.17564 538.97832 C 503.22581 552.67132 500.3742 562.21596 489.26946 567.39009 C 488.99588 567.93011 488.87689 568.22161 488.7294 569.10419 C 487.58755 575.92451 483.6664 575.41771 480.62853 576.35976 C 480.97109 575.7127 481.45471 574.06115 481.66168 574.41085 L 487.36752 565.27682 C 487.63872 564.93188 488.16301 564.38327 488.56504 563.93841 C 493.89856 558.60492 497.37788 548.8173 499.69494 539.35401 L 494.57612 535.29183 C 509.2421 523.53051 498.98494 516.32136 518.62047 501.12727 C 529.51349 492.69642 545.36766 486.43387 550.06126 473.13815 C 545.95525 461.75507 536.09839 456.3407 530.57219 444.32721 z M 540.62198 547.76014 C 540.66448 547.83034 540.6781 547.84023 540.7159 547.90102 C 540.8137 547.56803 540.68502 547.82393 540.80982 547.43141 L 540.62198 547.76014 z M 372.24115 457.00684 C 383.69797 455.6937 387.27562 460.37673 395.08797 464.33285 C 416.85974 475.35196 449.46646 480.59927 470.71963 468.72376 C 481.56983 495.14155 473.00441 485.04 496.00845 491.96976 C 498.24939 492.64536 503.61148 496.15756 506.15216 497.69907 C 507.81962 514.95649 496.60872 527.85442 484.62026 537.00593 C 468.02736 529.57899 475.8574 531.96633 467.69061 534.18824 C 446.96557 539.82386 427.50522 542.37076 428.61855 569.40944 C 431.42329 570.34673 433.80009 571.03547 437.65866 571.85144 C 446.03006 573.6237 442.78677 572.15604 446.417 575.46749 L 445.43081 579.50618 C 444.42929 579.89157 443.22514 582.11942 436.76639 579.41226 C 432.59855 577.66375 426.54779 572.5174 415.65715 570.23127 C 409.41726 568.92049 391.54791 559.76755 364.30464 556.37759 L 304.0529 547.38445 C 306.45798 538.63483 308.60751 542.43818 322.79058 528.03627 C 339.45243 511.11748 345.15642 501.88859 357.44824 482.46003 C 362.75322 474.07439 362.64667 477.31451 367.19278 472.12848 C 372.74754 465.79108 368.53955 464.66932 372.24115 457.00684 z M 489.50427 458.25132 C 493.6531 468.16426 500.91857 476.31097 506.15216 484.78463 C 499.9575 481.7753 489.59026 474.31487 487.48492 467.9489 C 483.44553 455.73082 488.57887 459.25523 489.50427 458.25132 z M 376.25637 459.19056 C 374.73624 461.65748 375.87653 458.80295 374.56575 463.34666 C 372.85293 469.27729 374.71255 468.21114 370.26876 473.16163 L 376.32681 481.23903 C 367.31789 481.07726 368.69549 478.87383 364.3516 477.29425 C 351.82905 499.24206 337.41999 522.43392 317.60132 538.90788 C 312.1774 543.41589 314.50893 539.59333 310.15791 545.22421 L 371.79501 553.77123 C 385.61172 556.20723 411.42281 563.0438 424.34505 569.38596 C 424.44734 560.22717 426.19032 551.61744 431.10752 546.04604 C 443.41599 532.0985 462.89902 532.99841 471.89367 528.59981 C 482.6392 523.34719 484.51226 520.09974 490.49046 527.16748 C 496.09516 519.04589 502.28096 514.93082 502.58308 501.22119 C 490.50774 490.99662 494.42502 497.96341 481.26251 492.60374 C 470.45275 488.20037 472.89054 484.31507 468.44199 475.25142 C 462.05699 477.61131 467.4973 478.3256 458.13392 477.74039 C 446.42493 477.00768 430.43041 486.38165 389.5465 465.88258 C 384.01314 463.1088 381.28063 460.62979 376.25637 459.19056 z M 505.75299 462.21958 C 511.6717 464.99578 508.67562 461.30617 510.54307 467.10359 C 502.30016 464.4511 508.84317 466.97976 505.75299 462.21958 z M 858.12938 470.03869 C 857.32533 479.14277 859.70324 475.79731 853.85587 479.87714 C 852.74254 477.50061 848.65824 483.838 853.29233 474.80529 C 855.00753 471.46291 857.90338 470.24328 858.12938 470.03869 z M 477.5995 471.40057 C 478.14903 471.87635 478.97672 471.78144 479.24316 472.8329 C 479.49295 473.82015 480.40606 473.82306 480.72245 474.24175 C 483.39873 477.79109 481.1693 474.3768 483.46971 478.63266 C 484.89702 481.27563 484.59952 481.55653 486.38132 484.59678 C 478.64985 482.06562 478.59151 479.45555 477.5995 471.40057 z M 579.52966 482.1313 C 582.70076 493.30265 576.11239 489.49348 575.63185 490.3261 C 575.07518 483.65325 574.95264 485.44748 579.52966 482.1313 z M 1000.2117 499.17836 C 1019.1692 498.01954 1043.041 513.35514 1055.0629 554.87482 C 1066.0391 592.78749 1066.2084 674.18523 1046.5158 697.21544 L 1046.5158 697.23892 C 1024.2183 692.04338 991.30272 675.40798 966.86897 682.53994 L 1044.8487 701.04281 C 1028.6174 740.96802 986.31788 739.6652 970.39109 717.83159 C 964.53898 709.80515 964.60626 692.67621 963.81646 681.83552 C 958.07855 603.10077 969.38934 586.87209 972.76265 527.2614 C 973.68581 510.95353 985.46695 500.07966 1000.2117 499.17836 z M 835.79913 503.00573 C 835.92997 503.17939 842.75593 505.88188 836.4566 511.88148 C 830.57592 517.4862 828.9019 515.14653 825.35018 511.24749 L 825.37366 511.24749 C 828.53285 505.19554 828.19612 506.95235 835.79913 503.00573 z M 571.68708 505.79995 C 574.32053 509.38734 576.14573 514.33803 569.83209 516.29587 L 571.68708 505.79995 z M 783.57783 513.21988 C 784.23025 513.20898 784.85231 513.85796 786.7947 515.26271 C 779.03709 522.96322 782.82353 518.30481 780.14963 515.12183 C 782.23475 513.91572 782.92541 513.23089 783.57783 513.21988 z M 803.70088 515.05138 L 808.09179 527.33184 C 797.83629 527.81239 796.22512 525.89731 790.38726 521.71993 C 794.85249 517.97792 795.45081 515.60091 803.70088 515.05138 z M 581.90123 524.67851 C 583.00503 531.17055 583.52439 528.40217 580.93851 533.50729 C 575.58596 530.4742 573.02549 529.03666 581.90123 524.67851 z M 735.46567 525.00724 C 749.94609 531.24952 801.42767 584.549 803.44259 605.45247 C 784.33282 617.68006 770.64405 617.8678 729.73635 648.04664 L 682.23469 686.78997 C 676.56339 692.22816 672.59454 697.79556 666.71388 701.77072 C 655.06674 689.65256 669.71131 693.49694 657.11023 663.89618 C 650.0853 647.39131 635.65693 645.6538 627.05481 639.68748 C 630.47092 631.24237 645.5537 617.77844 652.20275 610.64173 L 735.46567 525.00724 z M 736.17009 531.22966 L 632.90153 637.52724 L 631.89185 638.58388 L 633.25374 639.10046 C 644.84856 643.33255 653.38512 650.29486 659.08262 659.81053 C 664.80866 669.37137 667.7032 681.52084 668.00533 696.01792 L 669.7429 696.55798 C 678.72329 683.65001 690.83188 670.02143 710.69342 654.69171 C 730.60255 639.3263 758.29795 622.23565 798.37074 602.37648 L 799.33345 601.88339 L 798.74643 600.99112 C 789.7803 587.5812 780.24269 574.9605 769.98245 563.35139 C 759.71743 551.73752 748.71942 541.13103 736.85104 531.74623 L 736.17009 531.22966 z M 471.82323 539.80015 C 473.63678 539.79215 475.67745 540.08194 477.99868 540.66894 C 470.93093 544.78443 468.89366 546.25199 459.58973 547.57229 C 462.93151 542.50164 466.38258 539.82503 471.82323 539.80015 z M 571.49923 540.1054 L 576.28931 543.06398 C 573.55357 548.67821 572.10102 550.62344 565.88732 552.90244 C 567.83327 545.46833 566.88414 545.58401 571.49923 540.1054 z M 452.8977 545.24769 L 453.83693 558.09169 L 437.07164 558.23258 C 442.50687 551.24171 443.62346 548.00378 452.8977 545.24769 z M 581.71338 554.21736 C 579.72223 558.28768 582.23406 559.2457 570.86525 563.32791 C 570.54886 563.71092 570.09255 563.83141 569.92602 564.47847 L 565.39422 568.16496 C 561.45237 570.5177 561.14879 570.37132 556.9881 571.52271 C 561.09884 566.62929 563.67142 565.22388 570.86525 563.32791 C 571.15548 562.95918 571.63588 561.89364 571.781 562.22431 C 571.92373 562.55022 572.48978 561.38147 572.69675 561.19116 L 581.71338 554.21736 z M 280.45469 557.38727 C 282.68276 557.50284 283.65956 557.87463 284.77516 558.56131 C 285.89076 559.24798 287.14517 560.24953 289.94094 561.59033 C 297.40348 558.99021 297.1851 557.19692 307.31673 558.11517 L 370.1044 565.67599 C 375.86382 566.5466 382.56033 567.74733 389.17081 569.17463 L 389.19429 569.17463 C 395.80472 570.6021 402.30452 572.26187 407.69716 574.05864 L 407.72064 574.05864 C 414.41269 576.28853 419.69648 578.80814 425.00251 581.1968 L 425.02599 581.1968 C 427.67596 582.39041 430.32803 583.56496 433.17383 584.64848 C 436.03297 585.73698 439.07489 586.7295 442.49571 587.60706 C 441.59798 591.02194 440.86588 594.32372 440.33547 597.469 C 439.27744 603.7596 439.01753 609.44928 439.84238 614.30473 C 440.2548 616.73245 440.94701 618.94659 441.93217 620.92632 C 442.91734 622.90604 444.20296 624.64264 445.82998 626.11557 C 447.45839 627.5885 449.40665 628.80179 451.74714 629.70814 L 451.77062 629.70814 C 456.44929 631.51509 462.62306 632.13721 470.55526 631.32831 L 480.15891 619.91664 C 479.11339 618.95675 478.83448 618.8717 478.5857 618.69564 C 478.33075 618.51987 478.11827 618.25248 477.22381 616.93458 C 476.03716 615.1868 474.93582 612.79063 474.0539 610.12515 C 473.16919 607.45123 472.51566 604.51698 472.24588 601.67206 C 471.98671 598.93899 472.1043 596.29672 472.69202 594.08776 C 472.70102 594.05366 472.68302 594.00427 472.69202 593.97036 C 472.69702 593.95226 472.7104 593.9414 472.7155 593.9234 C 473.34902 591.65089 474.50153 589.85596 476.35502 588.8985 C 477.23818 588.44205 478.60678 588.51559 480.32328 588.99243 C 481.93447 589.43982 483.88235 590.27983 486.00563 591.34051 C 486.40214 591.53848 486.84008 591.80617 487.25011 592.02145 C 490.85225 593.91166 494.89636 596.52379 499.014 599.25354 C 500.78645 600.42801 501.7074 600.95147 503.45187 602.16516 C 513.39533 609.04041 522.3937 616.02819 523.66884 616.86414 C 523.69814 616.88264 523.70978 616.8923 523.73928 616.9111 C 523.74228 616.9131 523.78324 616.95606 523.78624 616.95806 C 522.44218 616.10463 521.37609 615.50504 520.42849 615.12656 C 519.48088 614.74809 518.64721 614.58312 517.77516 614.60998 C 516.06622 614.66378 514.14553 615.46012 510.89528 616.67629 C 510.85148 616.69269 510.84556 616.68327 510.80136 616.69977 C 510.78146 616.70677 510.7744 616.71575 510.7544 616.72325 C 510.34999 617.16573 509.69516 617.19366 509.53339 618.03818 C 509.35498 618.97785 507.79652 620.22555 507.56101 620.66803 C 506.19625 623.25017 507.39286 621.22421 506.17564 624.73021 C 505.81362 627.94165 505.31451 630.78111 504.76679 633.51203 C 504.75779 633.55813 504.75261 633.60682 504.74331 633.65291 L 504.74331 633.67639 C 504.46508 635.05498 504.16712 636.4129 503.87452 637.76205 C 503.58256 639.11581 503.28668 640.46599 503.00573 641.84771 C 502.45565 644.55303 501.94779 647.38048 501.5734 650.53561 C 501.5704 650.55821 501.5754 650.58275 501.5734 650.60605 C 501.5684 650.64905 501.55492 650.68035 501.54992 650.72346 C 501.54792 650.77086 501.55492 650.81886 501.54992 650.86434 C 501.54392 650.91294 501.53194 650.97995 501.52644 651.02871 C 501.17256 654.1549 500.94797 657.60696 500.93942 661.61855 C 500.93931 661.67175 500.93946 661.70604 500.93942 661.75943 C 500.93938 661.80273 500.93942 661.83364 500.93942 661.87684 C 500.93999 668.84 501.46923 675.19109 501.9491 681.57723 C 501.9551 681.65353 501.96688 681.73573 501.97258 681.81204 C 501.99068 682.05374 502.00154 682.29811 502.01954 682.53994 C 502.20255 685.00565 502.36545 687.48794 502.48915 690.00684 C 502.52515 690.74805 502.55608 691.48758 502.58308 692.23751 C 502.69889 695.41522 502.73696 698.67754 502.60656 702.09945 C 511.8724 696.44476 507.20276 677.97131 506.76266 665.77465 C 506.23455 651.14197 508.08375 639.37683 508.87593 626.02165 L 516.15498 622.99263 C 516.50468 622.84275 517.18681 622.52931 517.46991 622.40561 C 517.74348 622.28428 518.32156 621.98812 518.73787 621.77163 C 527.25373 631.34907 522.94193 622.84285 535.15095 637.29244 C 539.85641 642.86147 550.32333 651.82753 547.314 659.76356 L 552.15105 661.68899 C 556.6805 697.43208 511.84378 693.95338 518.73787 730.4173 C 519.93649 731.21477 521.16641 731.80078 522.42436 732.2488 C 524.16105 732.86724 525.94177 733.08947 527.73102 733.09411 C 528.11542 733.09511 528.49672 733.14259 528.88158 733.11759 C 530.66108 732.99865 532.44117 732.56915 534.18824 731.92007 C 534.5492 731.78641 534.91056 731.65211 535.26835 731.49741 C 536.98737 730.75095 538.66472 729.78119 540.26976 728.58579 C 542.34309 727.04357 544.31546 725.19874 546.06952 723.02084 C 549.79214 718.3987 552.62724 712.50554 553.88863 705.92682 C 554.52004 702.64325 554.76383 699.20675 554.52261 695.66571 C 554.40178 693.89599 554.1424 692.09388 553.77123 690.28861 C 553.39974 688.48318 552.91195 686.6629 552.26845 684.84106 C 553.34473 683.98477 554.26945 683.05355 555.06267 682.09381 C 555.8573 681.13092 556.5184 680.11621 557.05854 679.06478 C 557.80051 677.61945 558.2557 676.08771 558.58479 674.50951 C 558.65269 674.18268 558.7204 673.85481 558.77264 673.52331 C 558.90307 672.69863 558.8963 671.83718 558.937 670.98739 C 559.014 669.35123 558.97041 667.68568 558.77264 665.98598 C 558.70174 665.37491 558.66106 664.77036 558.56131 664.15447 C 558.19668 661.91041 557.72033 659.64411 557.08202 657.392 C 560.89834 655.53023 564.74782 653.91143 568.61109 652.46103 C 569.66976 652.06361 570.72192 651.77057 571.781 651.4044 C 574.49297 650.46627 577.20676 649.57667 579.90536 648.84499 C 581.3962 648.44124 582.86184 648.1285 584.34323 647.78835 C 586.73535 647.23811 589.10358 646.73908 591.45791 646.35603 C 592.76214 646.14408 594.04345 645.97621 595.33224 645.81597 C 597.80783 645.50753 600.23103 645.29802 602.63477 645.18199 C 603.86877 645.12259 605.08658 645.07291 606.29778 645.06458 C 608.66719 645.04788 610.95743 645.16584 613.22461 645.34635 C 614.37355 645.43775 615.53392 645.48571 616.65281 645.62812 C 618.96421 645.9222 621.15503 646.38238 623.32136 646.89608 C 624.23009 647.11128 625.18822 647.2525 626.06861 647.50659 C 629.04278 648.36621 631.88945 649.41487 634.49822 650.72346 L 634.49822 650.74694 L 634.5217 650.74694 C 637.26931 652.12684 639.79115 653.7454 642.05904 655.63094 C 644.33047 657.51984 646.35595 659.66048 648.07012 662.06468 C 649.78974 664.47381 651.18972 667.13675 652.27319 670.07164 C 653.35346 672.99936 654.10912 676.19298 654.48038 679.6518 C 655.22794 686.57901 654.47538 694.5662 651.92098 703.67266 C 650.64507 708.21922 648.92127 713.03516 646.70824 718.13684 L 646.70824 718.16032 C 644.4948 723.26247 641.78704 728.62631 638.5604 734.29163 C 635.33043 739.96435 631.58835 745.91513 627.26613 752.16052 C 622.97238 758.36453 618.45304 764.22343 613.74119 769.84156 L 613.74119 769.86504 C 609.49855 774.924 605.03726 779.72149 600.47454 784.42314 C 599.05242 785.88837 597.58253 787.32935 596.13059 788.76709 C 593.47514 791.3966 590.71189 793.98579 587.95927 796.53923 C 580.96167 803.03019 573.77659 809.39249 566.19257 815.62912 C 558.57303 821.89389 544.42536 832.00702 529.0929 841.17624 C 521.42667 845.76084 513.46659 850.11541 505.87039 853.62106 C 498.2742 857.12673 491.04907 859.79418 484.85507 861.01751 L 473.84258 862.9899 C 468.02862 865.90165 461.36546 863.9319 459.14359 857.19014 C 458.32288 856.28379 457.85713 856.10365 457.57038 856.18047 C 457.2996 856.26657 457.1734 856.56913 457.07728 856.72053 C 456.87836 857.03766 456.72451 856.63442 455.19882 851.78956 C 454.09502 848.28308 454.45734 846.44438 454.23611 842.89034 L 454.09522 842.20939 L 449.75127 841.92762 C 449.58713 842.14647 449.07195 842.73915 448.76508 843.17211 C 446.37192 847.22689 443.81225 849.51982 441.2747 853.26885 C 438.73716 857.01788 436.22172 862.22304 433.94869 872.12393 C 433.93869 872.16563 433.93471 872.19973 433.92521 872.24134 C 433.92121 872.25874 433.92921 872.2709 433.92521 872.2883 C 432.8944 876.83238 432.43646 880.82393 432.32852 884.35743 C 432.31322 884.85786 432.37758 885.23688 432.37548 885.71932 C 432.36508 888.51999 432.53815 891.09639 432.82162 893.35058 C 432.94846 894.35802 433.07296 895.32489 433.22079 896.23872 C 433.51773 898.05492 433.80329 899.87988 434.04262 901.38101 C 434.357 903.37547 434.56543 905.21168 434.39483 906.80508 C 434.29417 907.74459 433.96687 908.61963 433.4556 909.43493 C 430.89921 913.51144 423.45806 915.95316 413.59084 916.00955 C 405.68397 916.05475 396.22384 914.56726 386.47051 911.14903 C 381.64925 909.45933 376.76921 907.30062 371.95938 904.62136 C 371.92948 904.60466 371.89536 904.5911 371.86546 904.5744 C 367.02381 901.87007 362.27022 898.63436 357.75349 894.82987 C 357.74089 894.81927 357.71923 894.81709 357.70653 894.80639 C 355.60449 893.03367 353.55985 891.10364 351.57804 889.07707 C 351.43266 888.92845 351.27655 888.80444 351.13191 888.65442 C 349.0001 886.44285 346.95366 884.08423 345.00342 881.56322 C 337.98099 872.48542 332.41764 863.01785 327.93288 852.07133 C 326.43577 848.42249 325.04949 844.606 323.77677 840.58922 C 319.94727 828.49891 316.07694 797.60417 312.08333 790.50467 C 309.74827 790.87154 307.48973 792.47813 305.34434 794.94254 C 305.26894 795.02924 305.18464 795.06487 305.10954 795.15387 L 305.08606 795.17735 C 303.98283 796.48805 302.92638 798.04305 301.89267 799.80306 L 301.86919 799.82655 C 298.75609 805.13482 295.97882 812.33314 293.72135 820.41921 C 290.7066 831.21777 288.61594 843.61524 287.82767 855.31168 L 287.82767 855.33516 C 287.43502 861.17466 287.37452 866.8344 287.68678 872.03001 L 287.68678 872.05349 C 288.31407 882.44826 290.44578 890.98077 294.49621 895.32297 C 290.93612 897.65356 291.99294 895.34976 289.61221 901.45145 C 284.51159 900.07498 279.64357 898.24734 275.00715 896.02739 C 270.37072 893.80744 265.97227 891.20607 261.81094 888.23176 C 257.64961 885.25746 253.72239 881.91546 250.04706 878.2759 C 242.69166 870.99213 236.32402 862.47007 230.98065 853.05752 C 228.31007 848.3555 225.90031 843.43457 223.74856 838.33506 C 219.4447 828.1339 216.19109 817.23654 214.02751 805.97852 C 206.20338 765.26884 213.5805 734.79263 235.95858 704.07184 C 238.5631 700.4947 242.44236 696.91429 245.84399 693.03586 C 245.96559 692.89703 246.07573 692.77627 246.1962 692.63669 C 247.54605 691.07438 248.63465 689.38855 249.69484 687.70572 C 250.04944 687.14086 250.56398 686.64365 250.86888 686.06206 C 250.88538 686.03066 250.89945 685.99954 250.91585 685.96814 C 251.49579 684.84993 251.97568 683.68129 252.32469 682.49298 C 252.33169 682.46968 252.34147 682.44584 252.34817 682.42254 C 252.69879 681.20922 252.91318 679.96329 252.95868 678.66561 C 251.54047 678.31766 249.96501 678.31457 248.33296 678.45428 C 247.87608 678.49348 247.4186 678.54479 246.94759 678.61865 C 246.14858 678.74363 245.29398 679.03405 244.45863 679.25263 C 242.60418 679.73955 240.67165 680.4081 238.68235 681.29546 C 238.02361 681.58904 237.37906 681.85636 236.70996 682.18773 C 234.09573 683.48419 231.41683 684.95978 228.72649 686.71952 C 225.71749 688.68771 222.71129 690.8921 219.7803 693.20023 C 219.7405 693.23163 219.70271 693.26275 219.6629 693.29415 C 219.5667 693.36995 219.50057 693.45288 219.40461 693.52896 C 213.85809 697.92599 208.61049 702.67747 204.32994 706.93649 C 199.81226 711.43176 196.33282 715.3745 194.65585 717.73766 C 191.932 718.79627 191.78849 718.32636 189.27874 719.82745 C 187.02811 713.63577 184.94904 706.96871 183.15025 699.98618 C 182.73531 698.37539 182.50016 696.62646 182.1171 694.98477 C 180.83385 689.48521 179.56542 683.94162 178.71238 678.19599 L 178.71238 678.17251 L 178.71238 678.14903 C 176.73144 664.78527 176.16906 650.99976 177.51486 637.71509 C 177.59866 636.88557 177.62649 636.05127 177.72619 635.22613 C 177.91366 633.67711 178.18551 632.15502 178.43061 630.62389 C 178.75798 628.57642 179.12262 626.55125 179.55769 624.54236 C 179.8491 623.1971 180.17867 621.87574 180.5204 620.55062 C 181.02765 618.58261 181.58838 616.64475 182.21102 614.72739 C 182.64563 613.38994 183.10343 612.06885 183.59639 610.75913 C 184.31806 608.84043 185.13981 606.97623 185.99143 605.12374 C 186.55494 603.89831 187.08311 602.6543 187.70553 601.46073 C 188.73683 599.48252 189.91113 597.59022 191.11024 595.70794 C 191.69679 594.78735 192.21981 593.83297 192.84782 592.9372 C 194.78543 590.17311 196.88521 587.50458 199.2346 585.00069 C 201.44184 582.6483 203.89839 580.47053 206.49017 578.37911 C 207.30407 577.72242 208.17285 577.10624 209.0261 576.47716 C 210.97619 575.03898 213.04017 573.67743 215.20155 572.3915 C 216.20105 571.79691 217.18469 571.19077 218.23057 570.63044 C 221.38194 568.94187 224.66939 567.36263 228.25687 566.00472 C 241.07425 561.15184 259.3829 558.19217 273.90355 557.50467 C 276.91284 557.36194 278.9693 557.31021 280.45469 557.38727 z M 456.51374 571.781 C 467.75409 577.62359 456.8356 575.07114 456.27894 579.20093 C 454.30206 574.89748 454.08488 576.49361 456.51374 571.781 z M 544.3789 573.75339 C 544.93449 573.74269 545.37488 574.07071 545.43554 574.95091 C 545.44744 575.12933 545.47004 576.85999 544.80156 576.85285 C 540.14662 576.80825 542.71214 573.78563 544.3789 573.75339 z M 936.06216 583.73273 C 939.84224 585.47885 941.26768 586.85092 943.99867 589.3916 L 943.7169 607.26049 C 936.58967 600.09759 933.42396 596.7073 936.06216 583.73273 z M 466.32872 583.99102 L 461.23339 601.88339 C 459.75846 606.88621 462.26844 599.87993 460.12979 605.35855 L 458.34525 608.69282 C 456.57771 597.48578 458.45455 590.17381 466.32872 583.99102 z M 995.79732 586.90264 C 992.40504 586.89364 989.07763 587.14816 985.88842 587.72446 C 991.75482 592.28006 1000.4372 593.59489 1008.9466 595.02699 C 1018.3409 596.60659 1026.9859 596.99278 1036.4895 597.14027 C 1026.3207 591.93007 1010.495 586.94077 995.79732 586.90264 z M 919.90736 599.74663 C 935.23465 602.03277 927.06214 605.45073 936.10912 613.01329 C 924.47863 613.7008 924.66763 613.68023 918.45156 619.47051 C 917.53805 628.61741 918.47986 630.87528 921.55102 637.38636 C 908.82148 629.87852 914.90451 609.24562 919.90736 599.74663 z M 869.65845 599.77012 C 885.33427 600.11447 901.67507 602.38588 909.15316 603.29224 C 902.62306 660.59777 920.47271 626.58441 918.522 657.62681 C 915.67922 702.85937 925.58523 704.86268 927.56211 721.02498 C 902.35519 721.77195 884.40417 726.21981 861.22884 733.39936 C 853.67343 735.74021 848.2904 739.49204 839.81435 740.4436 C 820.96387 728.71794 814.76818 701.7674 815.79349 673.75812 C 816.40487 657.03439 824.55956 621.32642 834.10852 607.84751 C 838.94839 601.0153 853.98262 599.42577 869.65845 599.77012 z M 824.08221 608.69282 C 812.56353 641.44325 798.03826 677.36267 812.45922 719.38132 C 818.12579 735.89333 824.57765 737.72661 830.37507 746.8069 C 780.52503 765.10548 723.26803 813.73217 680.638 847.77434 C 672.77569 854.05227 666.04352 861.99445 659.24699 868.50789 C 651.21342 876.20605 647.76914 882.56038 641.82423 892.2235 C 641.88373 881.51365 644.77959 881.14863 639.59356 874.0024 C 630.96526 882.20962 629.51548 911.43186 628.98023 922.58418 C 627.56953 951.99939 633.5785 951.49278 618.48431 972.22259 C 604.82465 990.98505 579.76441 1013.7663 548.60545 1020.8983 C 508.89197 1029.9857 492.59199 1012.6356 477.55254 977.8345 C 465.49386 949.93468 458.29539 906.54264 463.22925 872.61703 C 494.04324 868.61331 487.47041 873.53937 522.47132 856.18047 C 551.43452 841.81423 591.1076 810.38167 610.71217 787.87482 C 676.332 712.54191 619.59969 751.09377 678.66561 699.32871 C 712.93853 669.295 777.09401 618.35356 824.08221 608.69282 z M 511.99888 617.54508 C 512.38424 618.72856 512.60608 618.84131 512.93811 618.81305 C 512.59129 618.85209 512.39207 618.75258 511.99888 617.54508 z M 514.62873 619.16526 C 516.59008 620.39156 516.47522 620.13836 516.43675 620.03405 C 516.47525 620.13836 516.59013 620.3916 514.62873 619.16526 z M 931.95302 619.47051 C 933.94923 619.16451 936.41107 619.73496 941.55666 620.52714 C 940.01275 625.77976 934.53592 631.5922 928.73615 632.97197 C 926.38578 630.06018 925.64729 628.88636 925.19055 623.62661 C 928.42468 620.93724 929.95683 619.77649 931.95302 619.47051 z M 530.807 623.34484 C 536.72336 626.82043 540.31799 629.89088 542.75873 635.71922 C 548.23498 637.61283 551.21939 643.10877 552.80851 649.61986 C 548.44797 644.57418 545.97978 642.12561 542.75873 635.71922 C 538.89777 634.69153 541.10209 637.54443 535.76145 630.60041 C 533.39681 627.52685 532.61497 626.1924 530.807 623.34484 z M 988.02517 629.89598 C 983.48279 629.95328 978.73147 630.39725 973.44359 631.35179 C 979.14583 635.25794 984.51965 634.83681 992.29868 636.07143 L 1054.0062 645.01762 C 1040.5154 640.85927 1048.5134 639.06824 1018.4798 633.58247 C 1007.0034 631.48739 998.01839 629.76999 988.02517 629.89598 z M 941.22793 634.85043 C 940.93056 649.18574 939.64568 663.52781 939.25555 677.8203 C 938.85589 692.48626 941.05938 707.87419 940.47655 721.40067 C 925.97471 717.22808 919.60869 655.2334 931.06075 642.78694 L 941.22793 634.85043 z M 476.58983 654.31602 C 476.54693 654.31602 476.72245 654.97939 476.49591 655.20829 C 476.6695 655.20029 476.83732 655.21527 477.01248 655.23177 C 476.77305 654.6895 476.6125 654.31628 476.58983 654.31602 z M 477.01248 655.23177 C 477.24669 655.7622 477.546 656.45292 478.16304 657.81466 C 483.42756 669.43563 488.6557 693.7916 496.33718 701.06629 C 499.01254 694.96143 486.84565 656.16231 477.01248 655.23177 z M 476.49591 655.20829 C 476.36283 655.21429 476.22879 655.23445 476.09673 655.25525 C 476.29654 655.32755 476.41793 655.28709 476.49591 655.20829 z M 442.49571 660.13926 C 446.10927 667.88736 481.62022 709.15678 487.71973 711.04563 C 485.37649 700.85914 475.01057 691.44704 468.23066 684.13664 C 460.08529 675.35371 451.91142 665.33716 442.49571 660.13926 z M 513.97127 669.88379 C 513.60659 669.89429 513.24287 669.92023 512.86767 669.95423 C 507.54605 680.45473 512.15533 689.46806 517.65775 691.18088 C 525.64136 693.66683 524.22577 689.40026 524.37326 689.27893 C 531.41142 680.36024 525.27625 669.56145 513.97127 669.88379 z M 519.20749 675.6131 C 520.86318 681.57226 521.99328 680.13118 519.01964 685.35764 C 518.23698 683.69715 517.06804 681.61345 517.09421 679.72225 C 517.16801 674.45771 516.86663 678.61767 519.20749 675.6131 z M 948.10781 681.48331 L 954.91724 723.37306 C 943.52702 720.32805 949.72093 718.23635 948.27217 707.47655 C 946.96515 697.77144 947.37656 691.28113 948.10781 681.48331 z M 367.54499 686.81345 C 366.06374 686.7951 364.64558 686.85603 363.27148 686.97781 L 363.248 686.97781 C 363.12529 686.98881 363.0128 687.01317 362.89579 687.02477 C 362.85519 687.02877 362.81888 687.02077 362.77838 687.02477 C 360.17493 687.29058 357.77731 687.82509 355.56978 688.59799 C 355.55338 688.60399 355.53932 688.61597 355.52282 688.62147 C 355.39765 688.66277 355.27145 688.69777 355.14712 688.73887 C 352.87532 689.57561 350.81054 690.66123 348.94819 692.02619 L 348.92471 692.04967 C 348.84451 692.10857 348.76931 692.17764 348.6899 692.23751 C 346.88009 693.6022 345.26296 695.22066 343.82938 697.07456 C 343.74368 697.18397 343.6557 697.29136 343.57109 697.40329 C 343.55399 697.42589 343.54123 697.45073 343.52413 697.47373 C 342.11335 699.36569 340.86588 701.47407 339.81416 703.83703 C 339.80716 703.85243 339.79728 703.86799 339.79068 703.88399 C 339.76428 703.94349 339.74634 704.01209 339.72024 704.07184 C 339.70484 704.11164 339.68958 704.15183 339.67328 704.18924 C 338.64295 706.56316 337.80668 709.16404 337.11387 711.98487 C 337.06747 712.18764 337.01906 712.39018 336.97298 712.59537 C 336.96398 712.63457 336.9587 712.67347 336.9495 712.71277 C 336.29309 715.5314 335.76944 718.54258 335.42325 721.77636 C 335.41725 721.83476 335.40597 721.8822 335.39977 721.94073 C 335.03091 725.45006 334.90058 728.74191 334.97712 731.84962 C 334.97767 731.87312 334.97512 731.89677 334.97712 731.92007 C 334.97787 731.94947 334.97633 731.98469 334.97712 732.01399 C 334.98212 732.06899 334.999 732.12323 335.0006 732.17836 C 335.0026 732.25316 335.02158 732.31508 335.02408 732.38968 C 335.12028 735.33543 335.36721 738.11354 335.79894 740.74885 C 335.80294 740.77185 335.81722 740.79519 335.82242 740.81929 C 335.82742 740.84859 335.81742 740.88391 335.82242 740.91321 C 335.83592 740.97011 335.86039 741.02471 335.86939 741.07758 C 335.88319 741.15938 335.90215 741.23093 335.91635 741.31239 C 336.37527 743.95693 336.9702 746.48976 337.70089 748.87321 C 339.23942 753.89174 341.31264 758.38386 343.59457 762.60947 C 344.73553 764.72228 345.93069 766.77765 347.14017 768.78493 C 349.35354 772.45938 351.59676 776.01881 353.66783 779.63306 C 353.85598 779.96125 354.07004 780.28985 354.25485 780.61925 L 354.25485 780.64273 L 353.9496 784.39966 L 357.65957 784.23529 C 360.12414 785.7312 362.85802 787.82195 365.80741 790.05853 C 365.9263 790.14863 366.01645 790.20268 366.13614 790.29334 C 366.18704 790.33184 366.22604 790.37214 366.27702 790.41074 C 369.32556 792.71875 372.61562 795.18653 376.18592 797.36106 C 377.94774 798.43411 379.7891 799.43782 381.68043 800.31964 C 381.73313 800.34414 381.78873 800.36788 381.8448 800.39008 C 381.8606 800.39708 381.87586 800.40627 381.89176 800.41357 C 381.91466 800.42257 381.9404 800.42695 381.9622 800.43705 C 383.81497 801.28628 385.71369 802.01053 387.69152 802.5738 C 387.71542 802.5808 387.73806 802.59048 387.76196 802.59728 C 387.84086 802.61958 387.91771 802.64602 387.99677 802.66772 C 390.04922 803.23218 392.1721 803.62443 394.36006 803.77132 C 396.58859 803.92093 398.89256 803.81583 401.26342 803.41911 L 387.57411 796.44531 C 336.12782 780.17357 323.37673 687.86804 371.27844 692.91846 C 393.64731 695.27833 416.81121 710.33869 436.10893 718.32468 C 458.20661 727.47157 491.85733 734.22457 500.3524 708.41578 C 498.38297 710.68082 496.33686 712.61504 494.22391 714.2625 C 492.16922 715.86455 490.03577 717.18155 487.86062 718.25424 C 487.79892 718.28464 487.73453 718.31816 487.67277 718.34816 C 487.61857 718.37456 487.56266 718.39261 487.5084 718.41861 C 485.37361 719.44371 483.19067 720.242 480.95726 720.81365 C 480.90216 720.82775 480.84801 720.84671 480.79289 720.86061 C 480.76909 720.86661 480.74615 720.87819 480.72245 720.88409 C 478.42 721.45631 476.06843 721.79244 473.67821 721.94073 C 473.66261 721.94169 473.64685 721.93979 473.63125 721.94073 L 473.60777 721.94073 C 471.16859 722.0882 468.70096 722.03482 466.18784 721.79984 C 463.67471 721.56487 461.12627 721.16096 458.55657 720.60232 C 455.98687 720.04368 453.39329 719.33607 450.78443 718.51253 C 448.17556 717.68898 445.54899 716.74797 442.91836 715.71831 C 437.77189 713.70389 432.59933 711.35619 427.46799 708.8854 C 427.38839 708.8471 427.31278 708.8064 427.23319 708.768 C 427.19759 708.7509 427.15138 708.73824 427.11578 708.72104 C 421.87294 706.19054 416.6814 703.52813 411.59497 700.99585 C 406.50668 698.46329 401.52402 696.06282 396.73162 693.99857 C 394.33542 692.96645 391.9835 692.00777 389.68738 691.18088 C 387.39128 690.35398 385.15049 689.65399 382.97187 689.09108 C 379.2947 688.14088 375.87321 687.52446 372.6638 687.16566 C 372.52886 687.15056 372.39779 687.11692 372.26463 687.09522 C 372.23083 687.09122 372.20441 687.09822 372.17071 687.09522 C 370.57057 686.92942 369.02623 686.8318 367.54499 686.81345 z M 548.65241 694.18642 C 548.79039 699.64124 548.40108 702.67868 546.23389 707.26523 C 543.56237 712.92226 542.20151 713.87142 538.81395 716.32881 C 539.47291 705.82594 540.01461 697.64772 548.65241 694.18642 z M 530.90092 709.91856 C 535.40894 717.74518 536.16446 722.12061 526.62742 724.5471 L 530.90092 709.91856 z M 432.44592 732.43664 C 431.4561 732.48194 430.43217 732.64115 429.34646 732.90626 C 423.08042 749.89406 438.16823 770.62194 446.86314 762.58599 C 452.0892 757.75468 448.53726 732.76692 433.43212 732.43664 C 433.11209 732.42964 432.77586 732.42155 432.44592 732.43664 z M 979.666 732.46013 C 979.82788 732.28475 980.21759 732.30372 981.00441 732.64797 C 982.05351 733.10701 983.80828 734.13143 986.68676 736.02921 C 983.4562 737.79437 983.63909 737.95169 979.64252 736.00573 C 980.7264 735.27245 979.18033 732.98621 979.666 732.46013 z M 516.90637 734.59688 C 510.82348 739.32853 504.96188 750.35714 498.96703 756.3401 L 482.10782 773.64545 C 479.26264 776.93547 481.72463 773.37821 479.94758 777.33194 C 488.44877 774.85092 487.60519 771.56768 495.11618 767.49348 C 494.92527 770.51856 494.55499 773.24976 494.03607 775.73524 C 493.51718 778.22074 492.85207 780.46306 492.06368 782.52119 C 491.27528 784.57933 490.3628 786.46054 489.36339 788.20355 C 488.43926 789.81527 487.43758 791.30234 486.38132 792.73534 C 486.29532 792.85207 486.2098 792.97156 486.12304 793.08756 L 486.12304 793.11104 C 486.04254 793.21857 485.94583 793.3094 485.86475 793.41629 C 483.62786 796.36521 481.17232 799.08185 478.7031 801.91634 C 477.42161 803.38838 476.13421 804.88971 474.87573 806.49509 C 473.61725 808.10047 472.38969 809.81009 471.21273 811.66087 C 472.66647 811.64507 473.97326 811.45183 475.20446 811.14429 C 475.27366 811.12699 475.34718 811.11543 475.41579 811.09733 C 475.49609 811.07623 475.57115 811.04909 475.6506 811.02689 C 476.83717 810.69315 477.94441 810.24437 478.96139 809.68848 C 480.05039 809.09322 481.07165 808.38599 482.0139 807.59869 C 482.93068 806.83266 483.77284 805.99701 484.59678 805.10973 C 484.62368 805.08073 484.64043 805.06828 484.66723 805.03928 L 484.66723 805.0158 C 484.68223 804.9996 484.69539 804.98054 484.71419 804.96884 C 484.72489 804.95714 484.75035 804.95706 484.76115 804.94536 C 486.21174 803.3648 487.55127 801.63329 488.91725 799.94395 C 489.01155 799.82713 489.10436 799.70812 489.19902 799.59174 C 489.29672 799.47159 489.40622 799.3591 489.50427 799.23953 C 491.10408 797.28863 492.74546 795.41491 494.64657 793.86242 C 498.91144 794.6398 502.55243 795.61231 505.91735 796.46879 C 505.95865 796.47929 505.99356 796.48177 506.03476 796.49227 C 509.34909 797.33435 512.38919 798.05388 515.47404 798.37074 C 517.03565 798.53114 518.61511 798.59986 520.24064 798.51162 C 521.86617 798.42342 523.54054 798.19726 525.31249 797.78372 C 527.08444 797.37018 528.94702 796.76771 530.94789 795.95221 C 532.94875 795.13672 535.09282 794.0999 537.40511 792.80579 C 543.47842 789.40752 547.76721 785.77094 551.00049 781.01842 C 552.57041 778.71083 553.8888 776.10532 555.03919 773.17584 C 555.07049 773.09604 555.10211 773.02139 555.13311 772.94103 C 555.18031 772.81894 555.22732 772.68868 555.274 772.56533 C 556.39339 769.60985 557.35516 766.33753 558.23258 762.56251 C 556.92927 764.86098 555.49854 767.15823 553.95907 769.37195 C 553.92077 769.42705 553.88018 769.48128 553.84167 769.53631 C 553.82557 769.55931 553.81081 769.58385 553.79471 769.60675 C 552.22503 771.84675 550.53061 774.00474 548.69937 776.06397 C 546.84935 778.14428 544.8714 780.10779 542.73525 781.91069 C 540.59913 783.7136 538.32045 785.36235 535.87885 786.7947 C 533.43726 788.22707 530.82616 789.44207 528.05975 790.41074 C 525.3782 791.34969 522.53711 792.03799 519.53622 792.45357 C 519.34851 792.47977 519.16168 792.50002 518.97268 792.52402 C 516.04089 792.89303 512.95444 793.01036 509.69776 792.80579 C 509.47952 792.79229 509.26002 792.77512 509.0403 792.75882 C 505.6681 792.50752 502.10906 791.94656 498.38001 790.99776 C 497.86555 789.85495 497.5769 788.79084 497.44078 787.80437 C 497.42258 787.67088 497.40632 787.53631 497.39382 787.4052 C 497.30642 786.51939 497.36484 785.69012 497.48774 784.89276 C 497.50884 784.75824 497.53269 784.62622 497.55819 784.49358 C 497.86644 782.87173 498.47892 781.38454 499.03748 779.86786 C 499.40709 778.86205 499.73619 777.8485 499.92975 776.7684 C 500.09527 775.84474 500.16441 774.876 500.04715 773.8333 C 499.92989 772.7906 499.6265 771.67346 499.08444 770.45206 C 498.54238 769.23067 497.7513 767.89659 496.64243 766.43685 C 499.91582 755.44151 512.2318 750.58553 516.90637 734.59688 z M 479.94758 777.33194 C 477.54862 777.95641 477.14942 777.89713 477.12989 777.82503 C 477.01444 777.92682 476.61723 778.21544 475.36883 778.90515 C 475.14759 779.02648 472.0031 781.26389 471.89367 781.34715 C 468.6964 783.7451 467.75807 784.46966 464.54418 787.94526 C 472.56109 785.74 475.92008 783.64081 479.94758 777.33194 z M 434.88793 738.94083 C 440.34512 743.11104 441.72463 748.03811 442.51919 756.12877 C 437.29271 752.6199 433.7056 748.1139 434.88793 738.94083 z M 645.81597 935.05248 C 664.93525 972.72488 687.17098 1029.2336 670.63517 1078.5437 C 650.25032 1139.3295 590.63767 1143.6315 580.18713 1083.5451 L 578.40259 1093.454 C 576.2473 1074.0849 579.61942 1055.9494 584.10842 1037.5462 C 584.16072 1037.3345 584.74663 1036.8069 584.60152 1036.4191 L 584.60152 1036.3956 C 608.20266 1021.5774 611.97397 1021.1458 627.12525 998.96722 C 644.634 973.33686 644.67409 974.00236 645.81597 935.05248 z M 636.7289 959.14378 C 636.60044 1016.1829 560.02051 1044.4617 532.21585 1031.2064 C 588.88858 1027.1289 615.27826 995.13668 636.7289 959.14378 z "/>
    </g>
    <g id="copper1"  gorn="0.3">
        <path id="path108"  gorn="0.3.0" stroke="none" fill="#ffc000" d="m 995.28074,250.70452 c -0.33388,0 -2.18173,0.72473 -4.10914,1.59669 -1.92742,0.87197 -16.48001,7.43452 -32.35655,14.58158 -15.87652,7.14704 -39.70582,17.857 -52.92572,23.80953 -13.21989,5.95256 -28.46653,12.8372 -33.90628,15.28601 -8.38291,3.77368 -9.91683,4.52249 -9.97934,4.95444 -0.0509,0.35118 0.31457,0.96081 1.17404,1.94891 3.45975,3.97741 8.42511,11.63924 15.286,23.62169 3.59319,6.27547 8.68343,15.63437 10.56636,19.41862 2.21316,4.44787 3.30293,5.89795 6.24589,8.26524 0.42078,0.33855 0.89879,0.6105 1.05664,0.6105 0.15789,0 1.30379,-1.01861 2.55941,-2.25415 6.37768,-6.27573 16.33399,-12.43381 41.63146,-25.8054 32.30896,-17.07771 42.22307,-22.73805 53.23098,-30.43112 8.52601,-5.95857 16.10161,-12.87568 19.01941,-17.32883 0.4202,-0.64124 0.3778,-0.70389 -4.1326,-6.9738 -5.7332,-7.96982 -9.25625,-13.66975 -11.05944,-17.89237 -2.22127,-5.20164 -2.72215,-8.61897 -1.85499,-12.65616 0.14932,-0.69464 0.11831,-0.75138 -0.44613,-0.75138 z m -119.39988,99.08898 -34.16456,28.88139 2.9351,3.47516 34.16456,-28.90487 z m 4.39091,6.19893 -34.77507,34.23501 3.19339,3.24035 34.75159,-34.25849 z m -121.58359,88.96876 -211.23329,183.3381 2.98206,3.4282 211.20981,-183.3381 z m -6.57462,22.30676 c -0.0387,0.0422 -0.0577,0.0308 -0.16437,0.14089 -0.36104,0.37258 -1.14535,1.15044 -2.70029,2.62985 -3.10991,2.95879 -9.31975,8.74727 -21.69626,20.00564 -24.753,22.51673 -74.13002,66.92074 -172.58389,154.38627 l 3.00554,3.40472 c 98.46064,-87.47155 147.85191,-131.86943 172.63085,-154.40975 12.38946,-11.27015 18.63277,-17.09556 21.79019,-20.09957 1.5787,-1.502 2.37636,-2.29181 2.81769,-2.74725 0.22067,-0.22773 0.35858,-0.36183 0.46962,-0.4931 0.0555,-0.0656 0.0899,-0.12715 0.16436,-0.23481 0.0372,-0.0538 0.0826,-0.12654 0.14089,-0.23481 0.0291,-0.0541 0.0571,-0.12252 0.0939,-0.21132 0.0368,-0.0888 0.11741,-0.35222 0.11741,-0.35222 l -4.41439,-1.00967 c 0,0 0.081,-0.2877 0.1174,-0.37569 0.0365,-0.088 0.0658,-0.13565 0.0939,-0.18785 0.0561,-0.10439 0.0873,-0.16784 0.11741,-0.21133 z m 2.11327,10.09675 -158.6363,158.23712 3.24035,3.16991 158.65978,-158.21364 z m -473.77214,80.02257 c -1.48542,-0.0771 -3.54181,-0.0253 -6.55114,0.1174 -14.52085,0.6875 -32.82913,3.6471 -45.64668,8.50005 -64.34704,24.35525 -56.946,104.39143 -38.97813,153.82273 2.50971,-1.50106 2.65329,-1.03119 5.37711,-2.08979 6.62762,-9.33958 41.17946,-43.27318 58.30283,-39.07205 -0.36398,10.38154 -11.52149,17.88174 -17.0001,25.40623 -22.37839,30.72119 -29.7553,61.19646 -21.93107,101.90668 8.65446,45.03271 34.7793,84.46097 75.5847,95.47293 1.15739,-2.96514 1.49294,-3.90193 1.9489,-4.39091 0.008,-0.008 0.0389,-0.0622 0.047,-0.0704 0.47922,-0.48436 1.10032,-0.49675 2.88813,-1.66713 -16.21464,-17.38265 -1.79888,-101.80186 17.61061,-104.8183 3.99418,7.09628 7.86101,37.99256 11.69343,50.08455 5.09085,16.06714 11.83981,28.87011 21.20317,40.974 31.08991,40.18924 87.78089,40.27418 89.39141,25.24186 0.71367,-6.66569 -4.72341,-16.03766 -0.44614,-34.68115 4.54611,-19.80202 10.03002,-20.84213 14.81639,-28.95182 0.30688,-0.43296 0.82204,-1.02562 0.98619,-1.24449 l 4.34395,0.28177 0.14089,0.68095 c 0.22124,3.55408 -0.14112,5.3927 0.96271,8.89922 3.03311,9.63932 0.66187,1.77513 3.94477,5.40058 2.22189,6.74184 8.88496,8.71154 14.69899,5.79976 l 11.01249,-1.97239 c 24.77631,-4.89341 66.09821,-32.85869 81.3375,-45.38839 23.25856,-19.12639 43.89548,-38.64947 61.07356,-63.4686 69.07629,-99.81178 -6.20341,-125.98214 -70.18411,-94.76852 2.86421,10.10559 3.83374,20.56927 -4.81357,27.44906 10.31018,29.17728 -15.65311,57.47075 -33.53058,45.57624 l -1.8315,4.17958 c -1.16864,3.99713 -2.80955,7.29174 -4.67268,10.16719 -1.86413,2.87731 -3.95228,5.33833 -5.98761,7.63126 -4.07248,4.58699 -7.96696,8.5439 -9.60365,14.04152 8.87097,11.67806 -2.66816,14.77411 1.73758,24.56091 30.8544,7.85041 49.16415,-9.58954 59.85257,-28.43525 -3.64209,15.66986 -8.68078,23.44672 -20.82747,30.24328 -18.49837,10.35299 -25.71129,4.16347 -42.75854,1.05663 -7.5887,6.19942 -11.18961,17.66523 -23.43384,17.79845 9.4157,-14.80632 22.37619,-19.96677 23.90345,-44.16739 -1.75613,0.95258 -2.99324,1.85781 -4.06218,2.72377 -0.36547,0.29674 -0.71217,0.58214 -1.03315,0.86879 -0.81337,0.72653 -1.61505,1.42903 -2.34808,2.0898 -0.82857,0.74675 -1.69088,1.47623 -2.8177,2.13675 l -0.0235,0.0235 c -1.22706,0.7154 -2.7529,1.3781 -4.86052,1.99587 h -0.0235 c -1.00785,1.57874 -1.9758,2.8966 -2.98206,4.01521 -1.00654,1.11844 -2.0442,2.04664 -3.21687,2.84118 -0.90941,0.61735 -1.98071,1.13655 -3.12294,1.62018 -0.65242,0.29204 -1.39596,0.57862 -2.13676,0.84531 -1.21564,0.4377 -2.43209,0.87488 -3.94477,1.29144 -9.62507,5.67844 -19.78569,10.05231 -33.31926,12.93792 -22.90175,4.88389 -26.52744,-4.59012 -43.65081,-4.43787 l 13.68931,6.9738 c -18.96704,3.17347 -33.35076,-12.96058 -43.60385,-19.18382 l -3.70997,0.16437 0.30525,-3.78041 c -8.89472,-15.85304 -21.85486,-30.13876 -18.85508,-58.67852 2.93083,-27.87838 17.01744,-40.74525 47.5721,-32.84965 34.85811,9.00655 85.86955,55.56497 117.38053,19.3247 l 2.25416,-6.31633 c 0.54953,-14.48041 -1.67903,-26.14984 -1.66714,-40.34002 0.0119,-16.78317 3.76605,-23.96904 5.23622,-37.02922 0.61567,-1.77332 0.6096,-2.1401 0.63398,-2.39504 0.0241,-0.25547 0.0729,-0.3865 0.75139,-1.66714 v -0.0235 c 0.11745,-0.22063 0.56964,-0.62311 1.00967,-1.1036 v -0.0235 c 0.44005,-0.48093 0.87194,-1.01032 0.96271,-1.47929 0.16176,-0.84451 0.81659,-0.87246 1.22101,-1.31493 6.73467,-2.51448 7.65553,-3.17893 13.03184,0.23481 -2.49785,-1.60576 -40.36584,-31.71119 -47.43122,-28.05956 -7.39124,3.81812 -3.86522,21.06348 0.86879,28.03608 1.78895,2.63584 0.8699,1.0599 2.95858,2.98206 l -9.62713,11.41167 c -31.77266,3.24007 -35.24146,-16.40188 -28.05955,-43.72125 -13.65018,-3.50175 -21.3747,-9.08324 -34.77507,-13.54842 -10.78835,-3.59454 -26.09519,-6.63893 -37.61624,-8.38265 l -62.78767,-7.56082 c -10.13176,-0.91826 -9.91315,0.87502 -17.37579,3.47516 -5.5916,-2.68162 -5.03005,-3.97191 -9.48625,-4.20306 z m 196.13514,96.92875 c 0.0227,2.6e-4 0.18322,0.37348 0.42265,0.91575 1.42653,0.135 2.89512,1.23371 4.36743,2.74725 l 0.0235,0.0235 c 0.86548,0.88887 1.73069,1.94737 2.58289,3.19339 0.0241,0.0354 0.0464,0.0818 0.0704,0.11741 0.54825,0.81135 1.06142,1.72478 1.59669,2.65333 0.49957,0.8636 0.99584,1.75526 1.47929,2.70029 0.48663,0.95517 0.9667,1.84529 1.43233,2.86466 0.0226,0.0491 0.0479,0.0917 0.0704,0.14088 0.0613,0.13487 0.10346,0.28688 0.16437,0.42266 1.24282,2.771 2.35994,5.66506 3.38123,8.61745 0.28119,0.80766 0.51478,1.54462 0.77487,2.34808 0.78939,2.44857 1.45968,4.75719 2.01935,7.02076 0.20696,0.83249 0.43969,1.67777 0.6105,2.46548 0.14387,0.66555 0.25923,1.25233 0.37569,1.87847 0.26582,1.42104 0.4525,2.70816 0.56354,3.87433 0.0423,0.4495 0.12373,0.93557 0.14089,1.33841 0.0649,1.43971 -0.0208,2.56361 -0.30525,3.28731 -0.008,0.0193 -0.0156,0.0517 -0.0235,0.0704 -0.006,0.0148 0.006,0.056 0,0.0704 h -0.0235 c -0.96058,-0.91076 -1.88257,-2.0887 -2.77073,-3.47515 -0.88627,-1.38311 -1.73521,-2.97886 -2.55941,-4.71965 -1.64967,-3.48546 -3.18937,-7.58947 -4.6492,-11.81084 -2.92103,-8.44768 -5.53964,-17.4368 -8.17132,-23.24599 -1.01879,-2.24936 -0.99852,-2.20972 -1.12707,-2.46549 -0.31513,-0.0312 -0.62943,-0.14263 -0.93924,-0.0939 0.22105,0.0799 0.32327,0.0281 0.39918,-0.0704 0.0592,-0.0815 0.0121,-0.16406 0.0235,-0.28177 0.0148,-0.24126 0.0572,-0.49994 0.0704,-0.54006 0,-0.002 -0.002,-0.047 0,-0.047 z m 0.44614,1.03315 h 0.0235 c -0.0108,-0.0244 -0.0365,-0.0937 -0.047,-0.1174 h -0.0235 c 0.0138,0.0304 0.0412,0.10586 0.047,0.1174 z m -34.54026,4.79009 c 2.35452,1.30007 4.63974,2.88813 6.85639,4.69616 2.188,1.78445 4.31846,3.79641 6.41026,5.89368 0.024,0.024 0.0465,0.0464 0.0704,0.0704 0.0467,0.0469 0.0942,0.0939 0.14089,0.14089 4.19009,4.22094 8.22545,8.84914 12.25697,13.19621 3.39114,3.6552 7.68117,7.8347 11.41167,12.37438 1.86523,2.26983 3.59498,4.6388 5.00142,7.06772 1.40726,2.42906 2.49016,4.92028 3.07598,7.46689 -0.009,-0.003 -0.0376,-0.0204 -0.047,-0.0235 -0.75409,-0.24575 -1.94142,-1.07198 -3.45168,-2.34808 -0.0135,-0.0114 -0.0334,-0.0354 -0.047,-0.047 -1.59595,-1.35332 -3.57492,-3.21148 -5.7528,-5.40058 -4.00892,-4.03193 -8.77817,-9.22958 -13.52494,-14.62854 -0.25697,-0.292 -0.47119,-0.50526 -0.7279,-0.79835 -10.09185,-11.52195 -19.86601,-23.78634 -21.67278,-27.66038 z"/>
    </g>
</svg>
