<?xml version='1.0' encoding='UTF-8' standalone='no'?>
<!-- Creator: CorelDRAW 2018 -->
<svg xmlns="http://www.w3.org/2000/svg" clip-rule="evenodd" viewBox="0 0 5992.137 1345.2582"  xmlns:xml="http://www.w3.org/XML/1998/namespace" height="15mm" shape-rendering="geometricPrecision" text-rendering="geometricPrecision" id="svg5" width="66.814003mm" version="1.0" gorn="0" image-rendering="optimizeQuality" fill-rule="evenodd" xml:space="preserve">
    <desc >
        <referenceFile >Logo-MegaDriver-2025-PCB.svg</referenceFile>
    </desc>
    <defs  id="defs5"/>
    <g  id="silkscreen" gorn="0.2">
        <path  id="SilkLOGO" d="M 388.25479,764.95625 V 98.470831 h 174.16469 c 32.04744,0 60.67067,7.563369 85.83625,22.660039 24.83486,14.88622 45.17645,36.59751 61.00808,65.08042 l 3.09017,6.17698 3.09015,-6.17698 c 15.82161,-28.48291 36.17323,-50.1942 61.00809,-65.08042 25.16558,-15.08665 53.79882,-22.660039 85.83626,-22.660039 h 174.16462 v 76.011219 c 4.0222,-4.9643 8.295,-9.71145 12.8183,-14.2448 41.1209,-41.16425 100.0377,-61.766419 176.7104,-61.766419 H 1528.52 v 76.455539 c 4.1291,-5.12466 8.5221,-10.0188 13.1824,-14.68912 41.1176,-41.16425 100.0377,-61.766419 176.7104,-61.766419 h 302.5415 V 561.25299 l 131.3267,-361.25792 1.961,-4.81731 c 15.4341,-30.95169 35.5018,-54.66407 60.1629,-71.11373 l -0.06,-0.0869 c 25.513,-17.00423 54.7977,-25.506339 87.8139,-25.506339 36.4004,0 67.4524,8.572259 93.1258,25.686739 25.9539,17.32493 44.7989,42.4404 56.4412,75.30967 l 155.5803,413.0557 V 98.470831 h 302.5415 c 76.6727,0 135.5895,20.605509 176.7103,61.766419 4.6603,4.6603 9.0533,9.56446 13.1791,14.68912 V 98.470831 h 345.5399 c 30.8916,0 60.4635,6.364049 88.7126,19.085489 27.17,12.23034 52.7565,30.37375 76.6994,54.40349 8.9297,8.96981 17.0543,18.2904 24.3572,27.96511 V 98.714703 h 227.2185 l -0.084,-0.243872 h 674.423 l 198.4449,-0.08352 5.1948,-0.03675 h 75.43 524.308 c 30.8882,0 60.4602,6.360719 88.7126,19.085489 27.17,12.23034 52.7565,30.37375 76.6961,54.40348 24.1099,24.18343 42.2867,50.99263 54.4736,80.34749 12.3006,29.6154 18.4709,61.34548 18.4709,95.12009 0,32.91269 -4.4365,62.42788 -13.276,88.55892 -9.4243,27.83815 -23.8494,51.49375 -43.2289,70.95004 v 0.18041 c -14.0677,14.07109 -27.0831,26.56868 -39.0796,37.50617 l -1.029,0.93205 122.1766,265.07214 h -107.297 l 0.06,0.12027 h -159.1983 -26.1444 -33.3537 -31.8403 -145.0003 v -0.12027 h -58.3489 v 0.12027 h -316.7028 c -69.8042,-2.41867 -123.9972,-22.93399 -162.5457,-61.52589 -40.9972,-41.06737 -61.5259,-99.98416 -61.5259,-176.71029 V 395.75745 l -118.2746,314.24408 c -11.7659,32.88931 -30.651,58.04154 -56.6484,75.39653 l 0.06,0.0869 c -22.4595,14.97307 -49.2353,23.35826 -80.2639,25.1422 h -24.4975 c -28.2423,-1.78728 -53.6083,-10.16913 -76.078,-25.1422 l 0.06,-0.0869 c -24.4506,-16.31269 -44.4849,-40.03843 -60.066,-71.11373 l -2.138,-4.81397 L 3918.569,253.7204 v 556.90672 h -283.5296 -31.2825 -180.8961 -6.3875 -33.21 -43.1086 -133.732 -106.6924 v -76.09474 c -4.1257,5.12466 -8.5221,10.03216 -13.1791,14.68911 -37.9872,38.03067 -91.1646,58.51257 -159.5022,61.40563 H 1701.2014 c -68.3343,-2.88971 -121.515,-23.37162 -159.499,-61.40563 -4.6603,-4.66697 -9.0533,-9.56445 -13.1824,-14.68911 v 76.09474 h -319.7495 c -68.3344,-2.88971 -121.5118,-23.37162 -159.4991,-61.40563 -4.5199,-4.53 -8.7927,-9.28049 -12.8183,-14.24146 v 29.97622 45.67087 H 929.02584 752.18528 741.63866 682.34769 671.78436 494.94378 433.91899 388.24811 v -45.67087 z m 152.3632,0 h 85.50218 V 572.63146 l 85.70931,192.32479 h 0.33073 L 797.8595,572.63146 v 192.32479 h 85.50217 V 251.44872 c -14.24812,0 -23.74242,4.74715 -28.49959,14.24813 L 711.99318,572.63146 569.1176,265.69685 c -4.74715,-9.50432 -14.24814,-14.24813 -28.49961,-14.24813 z M 1482.495,572.51119 h -64.1951 v -0.12361 h -171.2483 c -14.2481,0 -21.4406,-7.06895 -21.4406,-21.18679 h 192.6855 v -85.50553 h -278.1877 v 106.81593 c 0,56.87896 28.5029,85.37857 85.5022,85.37857 h 256.8807 V 572.51119 Z M 433.92567,764.95625 V 144.1417 h 128.49715 c 47.62853,0 83.30733,21.44069 107.06647,64.19178 l 42.87137,85.6258 42.87135,-85.6258 C 778.98782,165.58239 814.67665,144.1417 862.2985,144.1417 H 990.79565 V 764.95625 H 905.29343 V 229.64389 h -21.43065 c -28.61986,0 -50.0639,14.25147 -64.31538,42.87469 L 712.364,507.95527 605.18059,272.51858 C 590.93245,243.89871 569.49844,229.64389 540.87522,229.64389 H 519.43454 V 764.95625 H 433.93235 Z M 1033.4198,336.9509 c 0,-128.49715 64.1918,-192.8092 192.5653,-192.8092 h 256.8707 v 85.50219 h -256.8707 c -71.371,0 -107.0665,35.69217 -107.0665,107.1834 v 235.80417 c 0,71.49123 35.6922,107.1834 107.0665,107.1834 h 256.8707 v 85.50219 h -256.8707 c -128.3769,0 -192.5653,-64.31205 -192.5653,-192.80586 z m 106.6923,106.82261 V 336.9509 c 0,-56.87896 28.5029,-85.38192 85.5022,-85.38192 h 256.8807 v 85.50218 h -235.44 c -14.2481,0 -21.4407,7.07229 -21.4407,21.19014 h 192.6856 v 85.51221 z M 1525.8474,336.9509 c 0,-128.49715 64.1952,-192.8092 192.5654,-192.8092 h 256.8707 v 85.50219 h -256.8707 c -71.371,0 -107.0632,35.69217 -107.0632,107.1834 v 235.80417 c 0,71.49123 35.6888,107.1834 107.0632,107.1834 h 171.3685 V 443.77017 h -149.8176 v -85.51221 h 235.3164 v 407.05575 h -256.8707 c -128.3735,0 -192.5653,-64.31205 -192.5653,-192.80586 v -214.24989 -21.3104 z m 106.6924,0.12026 c 0,-56.99922 28.6298,-85.50218 85.7527,-85.50218 h 256.991 v 85.50218 h -235.8009 c -14.2514,0 -21.444,7.18922 -21.444,21.4407 v 192.43837 c 0,14.24814 7.1892,21.4407 21.6812,21.4407 h 43.3658 v -21.1868 h -42.8713 V 465.6986 h 128.3735 v 192.1945 h -150.1784 c -57.2431,0 -85.873,-28.49961 -85.873,-85.50217 V 337.0745 Z m 1469.8698,-0.12026 v 235.56029 c 0,128.49715 -64.1851,192.80586 -192.5653,192.80586 H 2652.9736 V 358.63212 h 85.5022 v 321.18274 h 171.3685 c 71.381,0 107.0665,-35.69217 107.0665,-107.1834 V 336.82729 c 0,-71.49123 -35.6822,-107.1834 -107.0665,-107.1834 H 2652.9736 V 144.1417 h 256.8707 c 128.3836,0 192.5653,64.31539 192.5653,192.8092 z m -106.6923,0.12026 v 235.31642 c 0,57.00257 -28.6199,85.50218 -85.873,85.50218 H 2759.6659 V 358.2613 h 85.5022 v 214.12628 h 43.3658 c 14.492,0 21.6812,-7.18921 21.6812,-21.44069 V 358.50851 c 0,-14.24813 -7.1892,-21.44069 -21.4407,-21.44069 h -235.8041 v -85.50218 h 257.1212 c 57.1228,0 85.6258,28.50296 85.6258,85.50218 z m 642.2452,10.35621 c 0,56.14735 -14.3785,98.53765 -43.1219,127.39806 -28.7401,28.74348 -53.1006,48.10959 -73.0714,58.09832 l 116.1933,232.02916 h -85.5022 L 3402.6428,465.20083 h 42.751 c 25.2124,0 49.329,-11.56554 72.4701,-34.71667 23.0209,-23.01751 34.5964,-50.78551 34.5964,-83.06013 0,-31.91716 -11.5722,-59.44463 -34.5964,-82.82627 -23.1378,-23.26138 -47.2577,-34.95721 -72.4701,-34.95721 h -299.9925 v -85.50219 h 299.8723 c 48.9547,0 93.2994,19.97412 133.1207,59.92904 39.7043,39.82796 59.5649,87.69369 59.5649,143.35997 z m -107.4239,0.24387 c 0,26.55198 -9.3841,49.20869 -28.1389,67.96345 -18.8783,18.75476 -38.0039,28.13882 -57.4936,28.13882 h -213.9994 v 321.18274 h -85.5021 V 358.2613 h 278.1878 c 14.2514,0 21.4306,-3.53113 21.4306,-10.59006 0,-7.07228 -7.1792,-10.60008 -21.4306,-10.60008 h -278.1878 v -85.50218 h 299.5015 c 19.4897,0 38.7389,9.50432 57.4936,28.50296 18.7548,18.99862 28.1389,41.53507 28.1389,67.5993 z m -0.2506,417.64581 h -85.6258 L 3337.5991,551.20079 v 214.11626 h -85.5022 V 465.56497 h 128.3836 z m 150.4256,0 V 144.38223 h 85.5056 v 620.93482 z m 106.6923,0 V 144.38223 h 85.5022 v 620.93482 z m 393.1618,-535.6765 v -85.50219 h 367.4649 l -206.9404,549.80437 c -16.6835,47.61851 -52.3757,71.37098 -107.0632,71.37098 -47.4982,0 -83.1836,-23.75247 -107.0564,-71.37098 L 3927.2147,144.13836 h 85.6325 l 192.6789,521.42502 c 7.0689,9.50099 16.6935,14.24814 28.5029,14.24814 14.2482,0 23.8728,-4.74715 28.6299,-14.24814 l 171.2483,-435.92283 h -253.3429 z m 0,21.92509 h 217.6506 l -149.9345,392.55371 c -2.3117,9.50433 -7.0622,14.25148 -14.2481,14.25148 -7.0622,0 -11.806,-4.74715 -14.2514,-14.25148 L 4034.2879,144.13502 h 85.6224 l 60.6607,153.82977 V 251.5623 Z m 53.4647,185.37611 39.3402,-99.87393 h -78.5535 z m 313.6461,-100.1178 c 0,-128.49715 64.1918,-192.80586 192.5653,-192.80586 h 256.8707 v 85.50219 h -256.8707 c -71.3709,0 -107.0665,35.69217 -107.0665,107.1834 v 235.80417 c 0,71.49123 35.6922,107.1834 107.0665,107.1834 h 256.8707 v 85.50219 h -256.8707 c -128.3769,0 -192.5653,-64.31539 -192.5653,-192.8092 z m 106.6923,106.82596 V 336.82395 c 0,-56.87896 28.503,-85.37857 85.5022,-85.37857 h 256.8807 v 85.50218 h -235.44 c -14.2482,0 -21.4407,7.06895 -21.4407,21.1868 h 192.6856 v 85.51555 z m 0,21.92174 h 278.1878 v 74.06693 11.43526 H 4739.873 c 0,14.12119 7.1892,21.19014 21.4407,21.19014 h 235.44 v 85.50218 H 4739.873 c -56.9992,0 -85.5022,-28.50296 -85.5022,-85.38192 z m 878.2966,-118.26788 c 0,56.14734 -14.3818,98.5343 -43.1219,127.39805 -28.7401,28.74014 -49.9336,48.1096 -63.821,58.09832 l 106.9429,232.0325 h -85.5022 L 5321.5845,499.30617 c -5.7226,-12.42077 -4.2627,-19.97413 4.2661,-22.90059 34.7067,-7.54333 63.5771,-22.8939 86.7182,-46.04169 23.0175,-23.02084 34.5964,-50.7855 34.5964,-83.06012 0,-31.9205 -11.5755,-59.44464 -34.7167,-82.82627 -23.0208,-23.26138 -47.2577,-34.95722 -72.47,-34.95722 h -214.3702 v 535.31236 h -85.5056 V 539.63858 358.1377 144.02144 h 299.8758 c 48.9547,0 93.296,19.97078 133.1207,59.92903 39.7043,39.82463 59.5648,87.69369 59.5648,143.35998 z m -107.4273,0.48106 c 0,26.67224 -9.3807,49.32895 -28.2591,68.20731 -18.7547,18.75476 -50.7955,33.86146 -96.1023,45.31677 -10.4764,2.79617 -13.276,9.4943 -8.5255,19.97077 l 132.8869,284.03403 h -85.7527 L 5232.304,551.19745 v 214.11626 h -85.5022 V 251.44538 h 192.8092 c 19.4897,0 38.6153,9.50098 57.3734,28.49961 18.8783,19.12557 28.259,41.65868 28.259,67.84318 z m -192.9395,-10.84061 v 45.67756 c 16.2025,-2.8062 38.2478,-7.67696 65.9022,-14.25148 27.6478,-6.69479 41.5251,-17.17795 41.5251,-31.42608 z M 2248.5604,679.80818 h 253.3429 L 2330.655,243.88868 c -4.7472,-9.50432 -14.2515,-14.25147 -28.5029,-14.25147 -11.9364,0 -21.4307,4.74715 -28.6199,14.25147 l -192.689,521.42168 h -85.6224 L 2195.0889,215.506 c 23.7525,-47.61852 59.4447,-71.37098 107.0665,-71.37098 54.6875,0 90.3796,23.75246 106.9429,71.37098 l 207.0607,549.80436 h -367.5953 v -85.50218 z m 0,-21.9251 v -46.39914 l -60.654,153.82642 h -85.6224 l 185.4963,-499.98432 c 2.4354,-9.50433 7.1892,-14.24814 14.3718,-14.24814 7.0689,0 11.816,4.74715 14.2481,14.24814 l 149.8175,392.5537 H 2248.557 Z m 53.595,-185.37611 -39.3402,99.87393 h 78.5635 z" fill="#000000" gorn="0.2.0" stroke="none" style="stroke-width:1"/>
        <path  id="SilkNintenDONT" d="m 4090.2081,1255.8539 20.3582,-3.2739 c 1.1292,8.1513 4.3263,14.3917 9.5545,18.758 5.2248,4.3263 12.561,6.5144 21.9184,6.5144 9.4776,0 16.4931,-1.9109 21.1,-5.7727 4.5634,-3.8184 6.8651,-8.3484 6.8651,-13.5332 0,-4.6403 -2.0679,-8.305 -6.1602,-10.9609 -2.8897,-1.8307 -9.9086,-4.1325 -21.0633,-6.9821 -15.0532,-3.785 -25.4696,-7.0589 -31.3191,-9.8317 -5.8129,-2.8062 -10.2193,-6.628 -13.2192,-11.5422 -3.0067,-4.8775 -4.5234,-10.2961 -4.5234,-16.2225 0,-5.422 1.2461,-10.4164 3.7015,-15.0165 2.4956,-4.6035 5.8496,-8.4253 10.099,-11.462 3.1971,-2.3418 7.5667,-4.3329 13.0655,-5.9698 5.5356,-1.6336 11.4286,-2.4555 17.7459,-2.4555 9.5143,0 17.8628,1.3597 25.0353,4.1292 7.2193,2.7327 12.5244,6.4776 15.9553,11.1579 3.3908,4.7205 5.7694,10.9977 7.0622,18.875 l -20.1277,2.8062 c -0.8987,-6.3172 -3.5512,-11.2682 -7.9142,-14.8193 -4.3696,-3.5479 -10.5266,-5.3018 -18.5276,-5.3018 -9.3975,0 -16.1424,1.5602 -20.1612,4.6804 -4.0189,3.1235 -6.0467,6.785 -6.0467,10.9608 0,2.6526 0.8218,5.0679 2.4955,7.216 1.677,2.1848 4.2895,4.0189 7.8774,5.4587 2.0712,0.7784 8.0745,2.5356 18.1367,5.2683 14.5055,3.8586 24.6478,7.0557 30.4206,9.5144 5.7727,2.4554 10.2961,6.0835 13.57,10.7638 3.3139,4.7171 4.9509,10.57 4.9509,17.5855 0,6.8251 -1.9877,13.2593 -6.0033,19.306 -4.0122,6.0433 -9.7849,10.727 -17.3149,14.041 -7.5667,3.3139 -16.1055,4.9509 -25.6233,4.9509 -15.7548,0 -27.8114,-3.2739 -36.0797,-9.7916 -8.2649,-6.5478 -13.5332,-16.2225 -15.8316,-29.0542 z m -3216.19373,40.2622 v -15.4074 c -7.68364,11.9765 -18.99862,17.9764 -33.93159,17.9764 -9.67472,0 -18.56436,-2.6458 -26.63886,-7.9876 -8.11125,-5.3084 -14.39179,-12.7616 -18.87502,-22.2726 -4.44983,-9.5544 -6.66807,-20.5153 -6.66807,-32.916 0,-12.0933 2.02782,-23.0476 6.04669,-32.9194 4.05563,-9.825 10.10232,-17.3917 18.17013,-22.6166 8.03442,-5.265 17.08775,-7.8807 27.02639,-7.8807 7.33286,0 13.84724,1.5634 19.53981,4.6402 5.69591,3.0868 10.33282,7.1391 13.92074,12.0934 v -60.2564 h 20.59882 v 167.5467 z m -65.05369,-60.5671 c 0,15.5243 3.2739,27.1099 9.86513,34.7935 6.55113,7.6803 14.31495,11.4987 23.24469,11.4987 9.00989,0 16.65678,-3.6647 22.97406,-10.9976 6.28054,-7.3328 9.44085,-18.5209 9.44085,-33.5775 0,-16.5365 -3.19706,-28.7034 -9.63795,-36.4639 -6.39412,-7.7605 -14.30492,-11.6257 -23.71236,-11.6257 -9.16359,0 -16.80714,3.7082 -22.97075,11.158 -6.12019,7.4498 -9.20367,19.1891 -9.20367,35.2145 z m 109.08424,-0.157 c 0,-22.4229 6.24379,-39.0363 18.75817,-49.8401 10.413,-8.9698 23.16783,-13.4597 38.18098,-13.4597 16.65344,0 30.30353,5.462 40.91033,16.3828 10.5667,10.8807 15.8717,25.974 15.8717,45.1999 0,15.5978 -2.3385,27.8448 -7.0188,36.7779 -4.6804,8.933 -11.5054,15.875 -20.4752,20.8293 -8.92975,4.9509 -18.71803,7.4063 -29.28803,7.4063 -17.00422,0 -30.72785,-5.4153 -41.22111,-16.2959 -10.49651,-10.8807 -15.72138,-26.5587 -15.72138,-47.0005 z m 21.06326,0.04 c 0,15.5243 3.39416,27.1433 10.17915,34.8302 6.82507,7.7204 15.36726,11.5789 25.70008,11.5789 10.21589,0 18.72134,-3.8585 25.54309,-11.6223 6.785,-7.7605 10.1791,-19.5799 10.1791,-35.4483 0,-14.9764 -3.4376,-26.3248 -10.256,-34.0085 -6.83171,-7.7204 -15.33048,-11.5856 -25.46953,-11.5856 -10.33282,0 -18.87501,3.8252 -25.70008,11.5121 -6.78165,7.6803 -10.17915,19.2659 -10.17915,34.7468 z m 116.80122,-83.461 v -23.3984 h 20.5956 v 23.3984 z m 0,144.1483 v -121.4449 h 20.5956 v 121.4449 z m 51.9882,0 v -121.4449 h 18.4875 v 17.2381 c 8.893,-13.2225 21.7647,-19.8138 38.5719,-19.8138 7.3328,0 14.041,1.3263 20.1611,3.9421 6.1269,2.6091 10.7271,6.0834 13.7705,10.3294 3.0401,4.2561 5.1848,9.324 6.3975,15.1736 0.7383,3.8184 1.1258,10.4931 1.1258,20.0075 v 74.568 h -20.5922 v -73.7862 c 0,-8.382 -0.7784,-14.6625 -2.3786,-18.8016 -1.5969,-4.1358 -4.4431,-7.4498 -8.5021,-9.942 -4.0523,-2.4587 -8.8529,-3.7082 -14.3116,-3.7082 -8.7326,0 -16.2592,2.7728 -22.6199,8.3485 -6.3541,5.5389 -9.5144,16.1089 -9.5144,31.6299 v 66.2596 h -20.5921 z m 126.3591,10.0623 19.894,2.8061 c 0.8184,6.1637 3.1569,10.6435 6.982,13.4932 5.1046,3.785 12.0867,5.6892 20.9463,5.6892 9.511,0 16.8839,-1.9042 22.0687,-5.6892 5.1881,-3.7851 8.6992,-9.1302 10.5299,-15.9519 1.0524,-4.1726 1.5601,-12.9486 1.4833,-26.3248 -9.0099,10.6034 -20.2013,15.9085 -33.6176,15.9085 -16.6935,0 -29.6387,-6.0033 -38.7655,-18.0532 -9.1636,-12.0166 -13.727,-26.4451 -13.727,-43.2556 0,-11.5822 2.1046,-22.2692 6.2805,-32.0575 4.1726,-9.7916 10.256,-17.3149 18.2136,-22.6634 7.9575,-5.3418 17.3182,-7.9943 28.0786,-7.9943 14.3116,0 26.1311,5.8529 35.4149,17.5554 v -14.9764 h 18.9519 v 104.8717 c 0,18.9184 -1.9075,32.2946 -5.7727,40.172 -3.8185,7.8774 -9.9487,14.1145 -18.2504,18.6813 -8.3484,4.5634 -18.6011,6.8651 -30.7713,6.8651 -14.4719,0 -26.131,-3.2371 -35.024,-9.7482 -8.9297,-6.4743 -13.2225,-16.2659 -12.9118,-29.328 z m 16.8539,-72.8543 c 0,15.8718 3.157,27.4573 9.4743,34.7468 6.3573,7.2961 14.2748,10.9608 23.7925,10.9608 9.4809,0 17.3984,-3.628 23.8293,-10.8773 6.4008,-7.2527 9.5978,-18.6412 9.5978,-34.1654 0,-14.8195 -3.3173,-26.0142 -9.9052,-33.5442 -6.5945,-7.5233 -14.5488,-11.2716 -23.8326,-11.2716 -9.1636,0 -16.9207,3.7082 -23.3582,11.1213 -6.3975,7.4063 -9.5946,18.4039 -9.5946,33.033 z m 203.9271,62.7887 -36.6944,-121.4449 h 21.5275 l 19.3829,70.0815 6.8685,26.0909 c 0.2739,-1.2862 2.3786,-9.6279 6.2805,-25.0319 l 19.2292,-71.1405 h 21.0965 l 18.2904,70.5158 5.9699,23.121 6.9787,-23.4351 20.9864,-70.2017 h 20.0076 l -38.1076,121.4449 h -21.2937 l -19.2692,-72.6538 -4.8741,-20.7893 -24.5709,93.4431 h -21.8015 z m 147.1517,0 v -167.5467 h 20.5921 v 60.2965 c 9.5511,-11.1948 21.6011,-16.7737 36.1933,-16.7737 8.9297,0 16.6902,1.7572 23.3181,5.3083 6.5913,3.5479 11.3117,8.422 14.1613,14.6591 2.843,6.2404 4.2494,15.3305 4.2494,27.1833 v 76.8699 h -20.5921 v -76.793 c 0,-10.256 -2.2216,-17.7425 -6.6313,-22.4262 -4.4432,-4.677 -10.687,-7.0188 -18.7982,-7.0188 -6.0467,0 -11.7426,1.5634 -17.0844,4.7204 -5.3418,3.1603 -9.1268,7.4464 -11.4286,12.8684 -2.255,5.3852 -3.3875,12.8317 -3.3875,22.3494 v 66.2998 h -20.5921 z m 209.4693,-15.2069 c -7.6436,6.511 -15.0165,11.0744 -22.0721,13.767 -7.0589,2.6893 -14.6256,4.0122 -22.7369,4.0122 -13.3428,0 -23.5954,-3.2338 -30.7712,-9.7448 -7.1792,-6.4776 -10.7638,-14.786 -10.7638,-24.885 0,-5.9264 1.363,-11.3484 4.0556,-16.2625 2.726,-4.9176 6.2772,-8.8162 10.6435,-11.776 4.4031,-2.9666 9.3206,-5.2249 14.8227,-6.7516 4.0523,-1.0523 10.1758,-2.0612 18.3305,-3.0801 16.6167,-1.9477 28.9005,-4.3296 36.7345,-7.0557 0.08,-2.8095 0.1169,-4.6035 0.1169,-5.3451 0,-8.3485 -1.9476,-14.2348 -5.8496,-17.6691 -5.2616,-4.6402 -13.1056,-6.9453 -23.4752,-6.9453 -9.7147,0 -16.8873,1.7205 -21.4908,5.1113 -4.6402,3.3942 -8.0344,9.4007 -10.2626,18.0599 l -20.1211,-2.8129 c 1.834,-8.6124 4.8373,-15.5978 9.0466,-20.8995 4.2127,-5.3017 10.2961,-9.364 18.2537,-12.2437 7.9175,-2.8496 17.1612,-4.2928 27.6143,-4.2928 10.3762,0 18.8349,1.2093 25.3493,3.6681 6.4709,2.4554 11.2682,5.5021 14.3116,9.2036 3.04,3.7082 5.1848,8.3819 6.4342,14.0411 0.6615,3.511 1.0122,9.8317 1.0122,18.9184 v 27.3004 c 0,19.0654 0.4276,31.122 1.2862,36.23 0.8218,5.1112 2.5423,9.9853 5.0345,14.6657 h -21.5276 c -2.0679,-4.3296 -3.3941,-9.3974 -3.9821,-15.2069 z m -1.6403,-45.6341 c -7.4865,3.04 -18.718,5.6191 -33.6944,7.7237 -8.4988,1.2093 -14.5087,2.5757 -18.0198,4.0924 -3.5077,1.5233 -6.2004,3.7449 -8.1146,6.6346 -1.9075,2.9231 -2.883,6.1636 -2.883,9.7482 0,5.4186 2.0679,9.9821 6.2371,13.6101 4.1725,3.6246 10.2593,5.4587 18.2536,5.4587 7.9142,0 14.9731,-1.7171 21.1768,-5.1848 6.1603,-3.4309 10.7237,-8.1513 13.61,-14.1212 2.2216,-4.6402 3.3107,-11.462 3.3107,-20.4752 l 0.1169,-7.4865 z m 97.1513,42.4738 2.8095,18.1701 c -5.7728,1.2093 -10.9609,1.8374 -15.4842,1.8374 -7.4464,0 -13.2225,-1.1726 -17.355,-3.5512 -4.0924,-2.3786 -6.9821,-5.4587 -8.6558,-9.3206 -1.6803,-3.8585 -2.4955,-11.9731 -2.4955,-24.3337 v -69.9679 h -15.2102 v -15.9118 h 15.2102 v -30.033 l 20.5922,-12.3573 v 42.3903 h 20.5888 v 15.9118 h -20.5888 v 71.1371 c 0,5.8897 0.3507,9.6747 1.0924,11.3484 0.6982,1.6737 1.8708,3.0067 3.5044,4.0189 1.6436,0.9755 3.9821,1.4799 7.0221,1.4799 2.2584,0 5.265,-0.2739 8.9665,-0.8184 z m 106.8393,14.9663 h 3.3173 v 0 h 10.7237 10.8807 26.8359 v -16.1089 -16.1055 -16.1089 -10.7604 -26.8361 -10.8439 -37.4794 l 83.8886,134.2398 h 2.1448 v 0 h 10.7604 10.727 26.8326 v -16.1089 -10.7604 -21.4507 -16.2225 -21.3706 -10.844 -16.1456 -10.727 -26.8293 -10.7671 -21.4908 h -10.727 10.727 -10.727 -10.727 -10.8807 -21.4474 v 123.6398 l -80.5746,-123.6398 h -10.7271 10.7271 -10.7271 -10.8807 -10.727 -19.4229 v 182.7202 z m 200.5395,-173.1223 v -10.8439 37.9471 h 10.8441 -10.8441 10.8441 10.8406 10.8807 27.0664 v -10.844 10.844 -10.844 -27.1065 h -10.8406 10.8406 -10.8406 -10.884 -10.8406 -27.0666 v 10.844 z m 0,173.59 h 10.8441 -10.8441 10.8441 10.8406 10.8807 27.0664 v -10.8806 10.8806 -10.8806 -10.844 -10.8406 -27.1099 -10.8439 -27.0665 -5.4988 5.4988 -5.4988 l 0.3508,-21.718 h -16.5733 10.8439 -10.8439 -10.8439 -10.8807 -21.6813 v 124.799 z m 134.0461,-110.8414 0.1169,-15.3205 h -16.5766 10.844 -10.844 -10.9942 -10.9609 -17.3517 v 126.045 h 6.3975 v 0 h 10.9575 10.9609 27.3404 v -21.9585 -10.9575 -27.4172 -10.8439 -21.9553 c 5.6158,-9.982 14.1145,-14.5454 25.4696,-13.6902 16.0655,1.2895 24.0632,7.6803 23.983,19.1857 v 87.6336 h 10.9608 -10.9608 10.9608 10.9977 10.9575 21.8415 v -16.4564 -10.9575 -10.9943 -10.9642 -27.3003 -5.4988 5.4988 -10.9609 2.7327 2.7294 -5.4621 c -1.0155,-32.2913 -21.3003,-46.8368 -60.9211,-43.6397 -16.61,1.7906 -31.0018,8.6558 -43.1721,20.5487 z M 2500.42,1157.894 h -10.413 -20.6724 v 20.7859 h 31.0854 v 114.1522 h 10.413 -10.413 10.413 10.2593 10.413 20.6657 v -15.5611 -10.3729 -25.9339 -10.413 -20.7826 -10.4164 -20.6656 h 10.4163 20.6656 v -20.7859 h -10.413 10.413 -10.413 -20.6723 v -25.9373 0 h -51.7509 v 25.9373 z m 161.8942,5.0278 c -42.0428,1.9911 -65.8722,23.0542 -71.4111,63.1829 l 0.1203,8.9298 c 5.6926,26.7156 18.0566,43.7933 37.0486,51.1663 19.032,7.3696 39.3903,8.7326 61.1483,4.0522 21.7247,-4.6803 35.9628,-20.6656 42.6709,-47.9325 v 0 h -9.9453 9.9453 -9.9453 -9.9486 -9.9453 -18.718 c 1.4465,15.992 -1.4833,26.2447 -8.736,30.7346 -7.2927,4.4865 -14.6223,4.9509 -21.9952,1.3262 -7.413,-3.628 -10.7638,-19.2692 -10.0622,-46.9169 v 0 h 14.8595 14.8561 9.9486 24.7647 9.942 16.1089 c -2.1047,-41.6587 -25.7001,-63.1829 -70.7062,-64.5493 z m 0.6615,13.9241 c 12.6747,1.6035 19.0721,11.8595 19.2291,30.7345 h -9.9486 -9.9453 -19.7737 c 0.3909,-19.7703 7.216,-30.0296 20.4352,-30.7345 z m 134.3935,5.4988 0.1236,-15.3205 h -16.5799 10.8439 -10.8439 -10.9977 -10.9575 -17.355 v 126.0451 h 6.3975 v 0 h 10.9609 10.9575 27.3437 v -21.9585 -10.9576 -27.4172 -10.8439 -21.9552 c 5.6157,-9.9821 14.1178,-14.5455 25.4662,-13.6903 16.0688,1.2896 24.0632,7.6803 23.9863,19.1857 v 87.6336 h 10.9576 -10.9576 10.9576 11.001 10.9575 21.8416 v -16.4563 -10.9575 -10.9943 -10.9642 -27.3004 -5.4988 5.4988 -10.9609 2.7327 2.7294 -5.4621 c -1.0122,-32.2913 -21.297,-46.8367 -60.9179,-43.6397 -16.6134,1.7907 -31.0018,8.6558 -43.1754,20.5488 z m 375.2254,54.9548 c 0,36.544 -24.3771,54.8377 -73.1282,54.8377 h -182.8371 v -182.8371 h 182.8371 c 48.7511,0 73.1282,18.287 73.1282,54.8745 z m -100.5855,9.1268 c 24.3772,0 36.5808,-9.1268 36.5808,-27.414 v -36.5841 c 0,-18.2536 -12.207,-27.4205 -36.5808,-27.4205 h -91.3785 v 91.4186 z m 118.8358,-9.1268 v -73.1249 c 0,-36.5841 24.3739,-54.8745 73.1249,-54.8745 h 109.7089 c 48.7478,0 73.1216,18.287 73.1216,54.8745 v 73.1249 c 0,36.544 -24.3772,54.8377 -73.1216,54.8377 h -109.7089 c -48.751,0 -73.1249,-18.2937 -73.1249,-54.8377 z m 63.9981,-54.8746 v 36.5841 c 0,18.2871 12.1669,27.4139 36.544,27.4139 h 54.8378 c 24.3705,0 36.5808,-9.1268 36.5808,-27.4139 v -36.5841 c 0,-18.2537 -12.2103,-27.4206 -36.5808,-27.4206 h -54.8378 c -24.3771,0 -36.544,9.1669 -36.544,27.4206 z m 210.2143,109.709 v -182.8372 h 63.9947 c 12.1702,0 22.5464,4.2895 31.0853,12.8284 l 88.6525,88.649 c 5.4988,5.5022 8.2248,5.1848 8.2248,-0.8919 v -100.5855 h 64.0047 v 182.8372 h -64.0047 c -12.2036,0 -22.1088,-4.2561 -29.719,-12.795 l -89.1135,-87.7538 c -6.0834,-6.0834 -9.1301,-6.0834 -9.1301,0 v 100.5488 z m 274.2089,-159.98 c 0,-6.2405 2.2249,-11.5823 6.6347,-16.1089 4.403,-4.4833 9.825,-6.7449 16.2225,-6.7449 6.2372,0 11.6224,2.2616 16.1056,6.7449 4.4866,4.5266 6.7482,9.8684 6.7482,16.1089 0,1.52 -0.1536,3.0801 -0.4643,4.6035 0.3107,18.2503 -8.6625,33.5006 -26.9496,45.6708 3.9354,-7.9141 5.3017,-17.041 4.0924,-27.4205 -6.2371,-0.1537 -11.5455,-2.3786 -15.8717,-6.7449 -4.3329,-4.3296 -6.5178,-9.7148 -6.5178,-16.1056 z m 86.8552,22.8504 -22.8571,-45.7042 h 191.9606 l 22.8505,45.7042 h -41.1442 v 137.1296 h -82.2483 v -137.1296 z m 389.2732,-7.0155 v -23.405 h 20.5921 v 23.405 z m 0,144.1484 v -121.4516 h 20.5921 v 121.4516 z m 51.9847,0 v -121.4516 h 18.491 v 17.2414 c 8.8896,-13.2259 21.7613,-19.8137 38.5718,-19.8137 7.3329,0 14.041,1.3229 20.1612,3.9353 6.1235,2.6158 10.727,6.0835 13.767,10.3362 3.0401,4.2494 5.1848,9.3239 6.4008,15.1735 0.7383,3.8184 1.1259,10.4898 1.1259,20.0042 v 74.5714 h -20.5955 v -73.7931 c 0,-8.3818 -0.7784,-14.6623 -2.3786,-18.7981 -1.5969,-4.1325 -4.4398,-7.4465 -8.4988,-9.9453 -4.0522,-2.4554 -8.8495,-3.7049 -14.3116,-3.7049 -8.7359,0 -16.2625,2.7695 -22.6166,8.3485 -6.3607,5.5355 -9.5177,16.1055 -9.5177,31.6265 v 66.263 h -20.5955 z m 209.4727,-44.4648 20.1245,2.8062 c -2.2249,13.8472 -7.8373,24.6544 -16.9274,32.4884 -9.0867,7.8373 -20.2814,11.7392 -33.5006,11.7392 -16.5733,0 -29.9127,-5.4186 -39.975,-16.2659 -10.1024,-10.8373 -15.1301,-26.3582 -15.1301,-46.5662 0,-13.1023 2.1848,-24.5275 6.5144,-34.3592 4.3262,-9.7883 10.9175,-17.1579 19.8138,-22.0287 8.8529,-4.9209 18.4808,-7.3729 28.9339,-7.3729 13.149,0 23.9462,3.314 32.2946,9.982 8.3852,6.6681 13.7637,16.149 16.1056,28.3894 l -19.8939,3.0433 c -1.9042,-8.1513 -5.2617,-14.2748 -10.1358,-18.4073 -4.834,-4.099 -10.6869,-6.1636 -17.552,-6.1636 -10.373,0 -18.7982,3.7015 -25.3126,11.1146 -6.4676,7.4498 -9.7081,19.1523 -9.7081,35.2178 0,16.2993 3.1236,28.1188 9.3607,35.4884 6.2772,7.3729 14.4285,11.0778 24.4506,11.0778 8.1146,0 14.8562,-2.4588 20.2414,-7.4131 5.422,-4.9141 8.8529,-12.5143 10.296,-22.7769 z m 120.5129,5.1513 21.3004,2.8062 c -3.3207,12.364 -9.5211,21.9986 -18.5677,28.8237 -9.0466,6.825 -20.5921,10.256 -34.6732,10.256 -17.7025,0 -31.7435,-5.4588 -42.1231,-16.3762 -10.3729,-10.8807 -15.5544,-26.2112 -15.5544,-45.9014 0,-20.3583 5.2249,-36.1933 15.7114,-47.4248 10.4932,-11.2749 24.1033,-16.8873 40.8403,-16.8873 16.179,0 29.4049,5.4955 39.6575,16.5366 10.256,11.0377 15.4074,26.5586 15.4074,46.5662 0,1.2127 -0.037,3.0434 -0.117,5.4621 h -90.4431 c 0.7818,13.296 4.5267,23.5152 11.3118,30.5741 6.7515,7.0623 15.2069,10.6101 25.3092,10.6101 7.5299,0 13.9641,-1.991 19.2692,-5.9698 5.3418,-3.9755 9.5544,-10.3295 12.6746,-19.0654 z m -67.3922,-32.9962 h 67.626 c -0.8986,-10.2159 -3.511,-17.8595 -7.7604,-22.9708 -6.5177,-7.9141 -15.0165,-11.8929 -25.4328,-11.8929 -9.4342,0 -17.3517,3.157 -23.7892,9.4776 -6.3942,6.3173 -9.9421,14.7826 -10.6436,25.3894 z m 281.9728,52.6496 v 19.6601 h -110.9216 c -0.157,-4.9509 0.6648,-9.7148 2.422,-14.3183 2.8463,-7.5233 7.4097,-14.973 13.6902,-22.2625 6.2772,-7.2961 15.2504,-15.7213 26.9094,-25.2724 18.1334,-14.9431 30.4606,-26.7592 36.8915,-35.4952 6.4776,-8.7326 9.7148,-17.0042 9.7148,-24.8014 0,-8.148 -2.9231,-15.0165 -8.7761,-20.6322 -5.8496,-5.5823 -13.4931,-8.3885 -22.8939,-8.3885 -9.9486,0 -17.8995,2.9665 -23.866,8.8929 -5.9698,5.8897 -8.9731,14.0811 -9.0466,24.571 l -21.0632,-2.1047 c 1.4465,-15.7548 6.9019,-27.7713 16.3394,-36.0362 9.4809,-8.265 22.1523,-12.4007 38.1075,-12.4007 16.0688,0 28.8169,4.4464 38.181,13.3762 9.3941,8.9297 14.0778,20.0041 14.0778,33.1866 0,6.7081 -1.3664,13.3027 -4.1391,19.777 -2.7294,6.511 -7.2928,13.3394 -13.6502,20.5119 -6.3942,7.1358 -16.9642,17.0043 -31.7034,29.4852 -12.3606,10.3729 -20.3182,17.3951 -23.8293,21.0999 -3.5111,3.7082 -6.3941,7.4097 -8.6992,11.1547 h 82.255 z m 22.2692,-63.0225 c 0,-19.7704 2.0245,-35.7657 6.0834,-47.8557 4.0924,-12.1268 10.1391,-21.4474 18.1702,-27.9618 8.001,-6.511 18.0999,-9.7481 30.2668,-9.7481 8.9698,0 16.8472,1.7973 23.6723,5.4186 6.7883,3.628 12.4041,8.8529 16.7738,15.6779 4.3696,6.7884 7.7972,15.0967 10.296,24.8783 2.5356,9.7916 3.785,23.0175 3.785,39.5908 0,19.6534 -2.0278,35.5652 -6.04,47.6586 -4.0222,12.1301 -10.0622,21.4474 -18.1033,28.0018 -7.9944,6.5512 -18.1334,9.8284 -30.3805,9.8284 -16.1055,0 -28.7835,-5.7327 -37.9872,-17.2381 -11.0377,-14.041 -16.5331,-36.7778 -16.5331,-68.2507 z m 21.0565,0.077 c 0,27.571 3.1971,45.9014 9.6346,54.9514 6.4342,9.0867 14.3918,13.6101 23.8293,13.6101 9.4375,0 17.3917,-4.5634 23.8293,-13.6502 6.4342,-9.1235 9.638,-27.4172 9.638,-54.9113 0,-27.5776 -3.2038,-45.9014 -9.638,-54.9513 -6.3941,-9.0901 -14.4285,-13.6134 -24.0632,-13.6134 -9.4341,0 -17.0042,4.0188 -22.66,12.0098 -7.0589,10.1825 -10.57,29.0575 -10.57,56.5549 z m 109.0876,-0.077 c 0,-19.7704 2.0245,-35.7657 6.0835,-47.8557 4.0923,-12.1268 10.139,-21.4474 18.1734,-27.9618 7.9977,-6.511 18.0967,-9.7481 30.2635,-9.7481 8.9698,0 16.8472,1.7973 23.6723,5.4186 6.7884,3.628 12.4041,8.8529 16.7738,15.6779 4.3696,6.7884 7.8005,15.0967 10.296,24.8783 2.5356,9.7916 3.7851,23.0175 3.7851,39.5908 0,19.6534 -2.0278,35.5652 -6.04,47.6586 -4.0223,12.1301 -10.0623,21.4474 -18.1033,28.0018 -7.9944,6.5512 -18.1335,9.8284 -30.3805,9.8284 -16.1056,0 -28.7836,-5.7327 -37.9839,-17.2381 -11.0344,-14.041 -16.5365,-36.7778 -16.5365,-68.2507 z m 21.0565,0.077 c 0,27.571 3.2004,45.9014 9.6346,54.9514 6.4342,9.0867 14.3918,13.6101 23.8293,13.6101 9.4375,0 17.3984,-4.5634 23.8293,-13.6502 6.441,-9.1235 9.638,-27.4172 9.638,-54.9113 0,-27.5776 -3.197,-45.9014 -9.638,-54.9513 -6.3941,-9.0901 -14.4285,-13.6134 -24.0631,-13.6134 -9.4342,0 -17.0042,4.0188 -22.6601,12.0098 -7.0589,10.1825 -10.57,29.0575 -10.57,56.5549 z m 109.0877,38.141 20.5921,-2.8062 c 2.3752,11.7025 6.354,20.1244 12.0098,25.2758 5.6559,5.1447 12.5979,7.7204 20.8227,7.7204 9.7549,0 17.983,-3.3541 24.6143,-10.0623 6.6281,-6.7014 9.9488,-15.0131 9.9488,-24.9217 0,-9.4341 -3.0869,-17.238 -9.284,-23.3984 -6.1602,-6.1268 -14.0042,-9.2003 -23.5553,-9.2003 -3.902,0 -8.736,0.7784 -14.5488,2.2951 l 2.3017,-18.0165 c 1.3664,0.157 2.4989,0.2339 3.3207,0.2339 8.8128,0 16.6869,-2.2984 23.7458,-6.8618 7.0222,-4.5635 10.5266,-11.5856 10.5266,-21.0632 0,-7.53 -2.5691,-13.7671 -7.6803,-18.718 -5.1113,-4.9509 -11.7025,-7.413 -19.777,-7.413 -8.0311,0 -14.7025,2.5389 -20.0443,7.6034 -5.3418,5.0745 -8.7727,12.678 -10.2961,22.8171 l -20.5921,-3.745 c 2.5356,-13.8071 8.2248,-24.5275 17.1579,-32.1343 8.893,-7.6034 20.0075,-11.3884 33.2668,-11.3884 9.1268,0 17.5487,1.9509 25.2324,5.8896 7.7204,3.8986 13.6067,9.2438 17.6691,15.9887 4.0923,6.7883 6.1201,13.9641 6.1201,21.5709 0,7.216 -1.9476,13.7671 -5.8128,19.6902 -3.8986,5.9297 -9.6747,10.6502 -17.2716,14.1612 9.9053,2.2584 17.5856,7.0155 23.0844,14.2315 5.4588,7.1792 8.1915,16.2259 8.1915,27.0297 0,14.6223 -5.3418,27.0631 -15.992,37.2456 -10.6836,10.1758 -24.1768,15.2437 -40.4795,15.2437 -14.7025,0 -26.9127,-4.4064 -36.6242,-13.1825 -9.7448,-8.776 -15.2871,-20.1244 -16.6501,-34.0852 z" fill="#000000" gorn="0.2.1" stroke="none" style="stroke-width:1"/>
        <path  id="SilkFRAME" d="M 341.81556,1.8808209 5627.1962,0 l 90.0756,202.82131 273.6645,-0.94208 0.5412,16.65679 c 8.2649,254.57228 -59.0372,459.23098 -197.1622,608.31025 -137.6708,148.59491 -345.1089,241.19273 -617.5774,272.19123 l -0.578,0.07 c -1447.9214,-3.8185 -2896.4073,-0.04 -4344.38883,-0.04 l -0.98551,-0.1337 c -26.53528,-3.6213 -53.26097,-7.834 -80.07353,-12.668 C 536.62584,1047.664 333.5072,971.04481 192.6394,836.38405 50.619048,700.62416 -27.924434,506.90628 9.1407663,235.38323 11.238734,220.01261 13.767653,204.12085 16.720842,187.71127 L 19.176265,174.10789 265.48697,165.05122 330.10636,1.8875023 Z M 5478.9488,533.47497 l 441.2846,1.86078 c 1.961,-6.5144 3.8485,-13.07889 5.6525,-19.70353 l -436.2068,0.0401 v -34.26903 l 444.779,-0.0434 c 17.0711,-75.07915 24.875,-156.86313 23.1713,-245.09802 l -262.57,0.90534 L 5604.9537,34.272365 353.52141,36.146504 289.23275,198.49174 48.090129,207.35466 c -1.814007,10.86733 -3.46766,21.73467 -4.947595,32.59533 -12.163533,89.08677 -11.365102,169.31062 0.37416,241.45329 l 381.160846,-0.0434 v 34.26903 l -374.619732,0.0401 c 1.433165,6.5478 2.963211,13.0221 4.583457,19.42959 l 368.091985,1.87413 -0.13697,34.26902 -358.203477,-1.82737 c 30.684444,96.84057 83.484397,176.69695 151.902177,242.10809 135.4926,129.51938 332.39417,203.49273 540.46708,241.00893 25.46959,4.5901 51.39017,8.6691 77.61476,12.2671 l 4339.15398,0.037 c 263.7793,-30.1031 463.8412,-118.97271 595.6523,-261.24024 61.5059,-66.38329 108.2758,-144.58936 139.8656,-234.04027 l -430.2403,-1.80732 0.137,-34.26902 z" fill="#000000" gorn="0.2.2" stroke="none" style="stroke-width:1"/>
    </g>
    <g  id="copper1" gorn="0.3">
        <path  id="CopperTRUE" d="m 652.9795,895.40437 -17.01759,-34.03181 h 180.36505 l 17.01758,34.03181 h -68.06701 v 102.1022 h -61.24527 v -102.1022 h -51.04942 z m 193.98514,102.1022 V 861.36922 h 47.65189 V 997.50657 Z M 989.897,946.4571 H 921.82995 L 904.81237,912.42195 H 989.897 v -51.04939 h 30.6376 l 17.0176,34.03181 v 102.1022 H 989.897 Z m 61.2452,51.04947 V 861.36922 h 173.5701 l 17.0176,34.03181 h -142.9324 v 17.01758 h 98.678 v 34.03515 h -98.678 V 963.468 h 142.9324 v 34.03523 h -190.5877 z m 308.3144,-102.1022 -17.0176,-34.03181 h 142.9324 l 17.0176,34.03181 h -30.6344 v 102.1022 h -61.2453 v -102.1022 h -51.0494 z m 299.4814,102.1022 c -12.2537,-22.68008 -19.0788,-36.30024 -20.415,-40.83024 h 61.2452 c 2.7294,13.59009 9.5244,27.21017 20.4152,40.83024 z m -142.9323,0 V 940.3269 c 0,-18.58437 11.325,-27.90495 34.0318,-27.90495 h 95.2771 c 9.0634,0 13.6802,-2.93314 13.7938,-8.8295 -0.1136,-5.45872 -4.7304,-8.18808 -13.7938,-8.18808 h -129.3123 l -17.0175,-34.03181 h 166.7449 c 27.2402,0 40.8302,11.35173 40.8302,34.03181 v 17.01758 c 0,22.71014 -13.59,34.03515 -40.8302,34.03515 h -93.2426 c -5.8964,0 -8.8596,2.95987 -8.8596,8.85622 v 42.19325 z m 210.9727,-40.83024 v -95.30377 h 47.6518 v 81.68704 c 0,13.61673 9.0601,20.41174 27.2101,20.41174 h 40.8303 c 18.15,0 27.2368,-6.79501 27.2368,-20.41174 v -81.68704 h 30.6376 l 17.0176,34.03181 v 61.27196 c 0,27.21017 -18.1501,40.83024 -54.4502,40.83024 h -81.6871 c -36.2969,0 -54.4469,-13.62007 -54.4469,-40.83024 z m 204.1776,40.83024 V 861.36922 h 173.57 l 17.0176,34.03181 h -142.9323 v 17.01758 h 98.6779 v 34.03515 h -98.6779 V 963.468 h 142.9323 v 34.03523 H 1931.156 Z m 291.2967,-40.83024 v -54.44689 c 0,-27.24015 18.1501,-40.85688 54.4469,-40.85688 h 119.1198 l 17.0176,34.03181 h -115.7223 c -18.1501,0 -27.2101,6.82507 -27.2101,20.41508 v 27.24015 c 0,13.61673 9.06,20.41174 27.2101,20.41174 h 68.0671 V 946.4571 h -40.8269 l -17.0176,-34.03515 h 105.4997 v 85.08462 h -136.1374 c -36.2968,0 -54.4469,-13.62007 -54.4469,-40.83024 z m 347.1066,40.83024 -37.2556,-74.51462 c -2.3819,-4.76385 -4.8206,-4.76385 -7.3194,0 l -20.0944,40.47939 h 17.0176 l 17.0175,34.03523 h -112.2947 l 61.242,-122.51728 c 4.5601,-9.06 11.3551,-13.61673 20.4452,-13.61673 h 40.8301 c 9.06,0 15.8817,4.55673 20.4117,13.61673 l 61.2454,122.51728 z m 118.0742,-122.51728 c 2.9632,-9.06 8.9731,-13.61673 18.0331,-13.61673 h 27.2402 c 9.0601,0 15.07,4.55673 18.0332,13.61673 l 22.797,64.67281 22.7937,-64.67281 c 2.9632,-9.06 8.9731,-13.61673 18.0331,-13.61673 h 27.2402 c 9.06,0 15.0699,4.55673 18.0331,13.61673 l 43.2089,122.51728 h -47.6219 l -23.1445,-67.71961 c -2.7293,-6.70815 -5.4587,-6.59122 -8.1613,0.34743 l -19.3962,55.81333 c -2.4988,7.69699 -8.305,11.55885 -17.3683,11.55885 h -27.2369 c -9.06,0 -14.8394,-3.86186 -17.3382,-11.55885 l -19.3963,-55.81333 c -2.7293,-6.93865 -5.4587,-7.05558 -8.1613,-0.34743 l -23.1445,67.71961 h -47.6519 z m 229.0359,122.51728 V 861.36922 h 173.57 l 17.0176,34.03181 h -142.9324 v 17.01758 h 98.678 v 34.03515 h -98.678 V 963.468 h 142.9324 v 34.03523 h -190.5876 z m 334.5055,-122.51728 c 2.9632,-9.06 8.9732,-13.61673 18.0332,-13.61673 h 27.2401 c 9.06,0 15.0699,4.55673 18.0332,13.61673 l 22.797,64.67281 22.7936,-64.67281 c 2.9632,-9.06 8.9732,-13.61673 18.0333,-13.61673 h 27.2401 c 9.06,0 15.07,4.55673 18.0332,13.61673 l 43.2087,122.51728 h -47.6218 l -23.1445,-67.71961 c -2.7293,-6.70815 -5.4587,-6.59122 -8.1613,0.34743 l -19.3963,55.81333 c -2.4988,7.69699 -8.305,11.55885 -17.3683,11.55885 h -27.2368 c -9.06,0 -14.8394,-3.86186 -17.3383,-11.55885 l -19.3962,-55.81333 c -2.7293,-6.93865 -5.4587,-7.05558 -8.1613,-0.34743 l -23.1444,67.71961 h -47.652 z m 229.0358,122.51728 V 861.36922 h 173.5701 l 17.0176,34.03181 H 3527.866 v 17.01758 h 98.6779 v 34.03515 H 3527.866 V 963.468 h 142.9324 v 34.03523 h -190.5877 z m 221.1953,-102.1022 -17.0176,-34.03181 h 180.365 l 17.0176,34.03181 h -68.067 v 102.1022 h -61.2453 v -102.1022 h -51.0494 z m 336.9142,102.1022 -37.2557,-74.51462 c -2.382,-4.76385 -4.8207,-4.76385 -7.3195,0 l -20.0944,40.47939 h 17.0176 l 17.0176,34.03523 h -112.2947 l 61.2419,-122.51728 c 4.5601,-9.06 11.3551,-13.61673 20.4452,-13.61673 h 40.8301 c 9.0601,0 15.8818,4.55673 20.4119,13.61673 l 61.2452,122.51728 z m 74.8653,-34.03523 V 861.37256 h 47.6519 v 88.48204 c 0,9.08673 6.795,13.61674 20.4151,13.61674 h 122.5173 v 34.03523 h -142.9324 c -31.7669,0 -47.6519,-11.35507 -47.6519,-34.03523 z m 308.3143,34.03523 v -34.03523 h 112.2946 c 9.0869,0 13.677,-2.93315 13.7939,-8.85623 -0.1169,-5.42865 -4.707,-8.15801 -13.7939,-8.15801 h -112.2946 v -34.03515 h 112.2946 c 9.0869,0 13.677,-2.93314 13.7939,-8.8295 -0.1169,-5.45872 -4.707,-8.18808 -13.7939,-8.18808 h -112.2946 l -17.0176,-34.03181 h 142.9324 c 31.7702,0 47.6552,13.61673 47.6552,40.85688 v 3.3975 c 0,9.64129 -2.0044,17.5688 -5.9832,23.81258 3.9788,6.24379 5.9832,14.1713 5.9832,23.83931 v 3.3975 c 0,27.21017 -15.885,40.83024 -47.6552,40.83024 z m 330.0891,0 -37.2556,-74.51462 c -2.382,-4.76385 -4.8207,-4.76385 -7.3195,0 l -20.0944,40.47939 h 17.0176 l 17.0175,34.03523 h -112.2947 l 61.242,-122.51728 c 4.5601,-9.06 11.3551,-13.61673 20.4452,-13.61673 h 40.8301 c 9.06,0 15.8818,4.55673 20.4118,13.61673 l 61.2453,122.51728 z m 74.8653,0 V 861.36922 h 47.6519 c 9.06,0 16.7871,3.19372 23.1445,9.55109 l 66.0058,66.00575 c 4.0957,4.09571 6.1269,3.8652 6.1269,-0.66481 v -74.89203 h 47.6552 v 136.13735 h -47.6552 c -9.0868,0 -16.4631,-3.16365 -22.1256,-9.52436 l -66.3566,-65.33769 c -4.53,-4.53 -6.795,-4.53 -6.795,0 v 74.86205 z m 394.762,-40.83024 c 0,27.21017 -18.1501,40.83024 -54.4504,40.83024 H 5030.6285 V 861.36922 h 136.1373 c 36.3003,0 54.4504,13.61673 54.4504,40.85688 v 54.44689 z m -74.8922,6.79501 c 18.1501,0 27.2368,-6.79501 27.2368,-20.41174 v -27.24015 c 0,-13.59001 -9.0867,-20.41508 -27.2368,-20.41508 h -68.0402 v 68.06697 z" fill="#ffc000" gorn="0.3.0" stroke="none" style="stroke-width:1"/>
        <path  id="CopperLOGO" d="M 433.92233,764.95625 V 144.1417 h 128.49715 c 47.62853,0 83.30733,21.44069 107.06647,64.19178 l 42.87137,85.6258 42.87135,-85.6258 C 778.98448,165.58239 814.6733,144.1417 862.29516,144.1417 H 990.79231 V 764.95625 H 905.29009 V 229.64389 h -21.43065 c -28.61986,0 -50.0639,14.25147 -64.31538,42.87469 L 712.36066,507.95527 605.17725,272.51858 C 590.92911,243.89871 569.4951,229.64389 540.87188,229.64389 H 519.4312 v 535.31236 h -85.50219 z m 106.69232,0.36414 V 251.45206 c 14.24813,0 23.75246,4.74715 28.49961,14.24813 L 711.98984,572.6348 854.85874,265.70019 c 4.75383,-9.50432 14.24812,-14.24813 28.49959,-14.24813 V 765.32039 H 797.85615 V 572.6348 L 711.99318,765.32039 626.12017,572.6348 V 765.32039 H 540.61799 Z M 1033.4164,336.95424 c 0,-128.49715 64.1918,-192.8092 192.5654,-192.8092 h 256.8707 v 85.50219 h -256.8707 c -71.371,0 -107.0665,35.69217 -107.0665,107.1834 V 572.6348 c 0,71.49123 35.6921,107.1834 107.0665,107.1834 h 256.8707 v 85.50219 h -256.8707 c -128.3769,0 -192.5654,-64.31205 -192.5654,-192.80586 z m 106.6924,106.82261 V 336.95424 c 0,-56.87896 28.5029,-85.38192 85.5022,-85.38192 h 256.8807 v 85.50218 h -235.4401 c -14.2481,0 -21.4406,7.07229 -21.4406,21.19014 h 192.6855 v 85.51221 z m 0,21.92175 h 278.1877 v 85.50553 H 1225.611 c 0,14.12119 7.1892,21.1868 21.4406,21.1868 h 235.4401 V 657.8931 H 1225.611 c -56.9993,0 -85.5022,-28.49961 -85.5022,-85.37857 z m 385.7353,-128.74436 c 0,-128.49715 64.1951,-192.8092 192.5653,-192.8092 h 256.8707 v 85.50219 h -256.8707 c -71.371,0 -107.0631,35.69217 -107.0631,107.1834 V 572.6348 c 0,71.49123 35.6888,107.1834 107.0631,107.1834 h 171.3685 V 443.77351 H 1739.9604 V 358.2613 h 235.3164 v 407.05575 h -256.8707 c -128.3735,0 -192.5654,-64.31205 -192.5654,-192.80586 V 336.9509 Z m 106.6923,0.12026 c 0,-56.99922 28.6299,-85.50218 85.7528,-85.50218 h 256.9909 v 85.50218 h -235.8008 c -14.2515,0 -21.444,7.18922 -21.444,21.4407 v 192.43837 c 0,14.24814 7.1892,21.4407 21.6812,21.4407 h 43.3657 v -21.1868 h -42.8713 v -85.50553 h 128.3736 v 192.1945 h -150.1784 c -57.2431,0 -85.873,-28.49961 -85.873,-85.50217 V 337.07784 Z m 1469.8698,-0.12026 v 235.56029 c 0,128.49715 -64.185,192.80586 -192.5652,192.80586 H 2652.9703 V 358.63546 h 85.5022 V 679.8182 h 171.3685 c 71.3809,0 107.0665,-35.69217 107.0665,-107.1834 V 336.83063 c 0,-71.49123 -35.6822,-107.1834 -107.0665,-107.1834 h -256.8707 v -85.50219 h 256.8707 c 128.3835,0 192.5652,64.31539 192.5652,192.8092 z m -106.6922,0.12026 v 235.31643 c 0,57.00256 -28.6199,85.50217 -85.873,85.50217 H 2759.6626 V 358.26464 h 85.5021 v 214.12629 h 43.3659 c 14.492,0 21.6812,-7.18922 21.6812,-21.4407 V 358.51186 c 0,-14.24814 -7.1892,-21.4407 -21.4407,-21.4407 h -235.8042 v -85.50218 h 257.1213 c 57.1228,0 85.6258,28.50296 85.6258,85.50218 z m 642.2452,10.35621 c 0,56.14735 -14.3785,98.53765 -43.122,127.39806 -28.7401,28.74348 -53.1005,48.10959 -73.0713,58.09832 l 116.1933,232.02916 H 3552.457 L 3402.6394,465.20417 h 42.7511 c 25.2123,0 49.3289,-11.56554 72.4701,-34.71667 23.0208,-23.01751 34.5964,-50.78551 34.5964,-83.06013 0,-31.91716 -11.5722,-59.44463 -34.5964,-82.82627 -23.1378,-23.26138 -47.2578,-34.95721 -72.4701,-34.95721 H 3145.3979 V 144.1417 h 299.8723 c 48.9548,0 93.2995,19.97412 133.1207,59.92904 39.7044,39.82797 59.565,87.69369 59.565,143.35997 z m -107.4239,0.24387 c 0,26.55198 -9.3841,49.20869 -28.1389,67.96345 -18.8784,18.75476 -38.0039,28.13882 -57.4936,28.13882 h -213.9994 v 321.18274 h -85.5021 V 358.26464 h 278.1877 c 14.2515,0 21.4307,-3.53113 21.4307,-10.59006 0,-7.07228 -7.1792,-10.60008 -21.4307,-10.60008 h -278.1877 v -85.50218 h 299.5015 c 19.4897,0 38.7388,9.50432 57.4936,28.50296 18.7548,18.99862 28.1389,41.53507 28.1389,67.5993 z m -0.2506,417.64581 h -85.6258 L 3337.5957,551.20413 v 214.11626 h -85.5021 V 465.56831 h 128.3836 z m 150.4256,0 V 144.38557 h 85.5055 v 620.93482 z m 106.6923,0 V 144.38557 h 85.5021 v 620.93482 z m 393.1617,-535.6765 V 144.1417 h 367.465 l -206.9404,549.80437 c -16.6836,47.61851 -52.3757,71.37098 -107.0632,71.37098 -47.4982,0 -83.1837,-23.75247 -107.0565,-71.37098 L 3927.2114,144.1417 h 85.6324 l 192.679,521.42502 c 7.0689,9.50099 16.6935,14.24814 28.5029,14.24814 14.2481,0 23.8727,-4.74715 28.6299,-14.24814 L 4433.9039,229.64389 H 4180.561 Z m 0,21.92509 h 217.6507 l -149.9345,392.55371 c -2.3118,9.50433 -7.0623,14.25148 -14.2481,14.25148 -7.0623,0 -11.8061,-4.74715 -14.2515,-14.25148 L 4034.2846,144.13836 h 85.6224 l 60.6607,153.82977 v -46.40249 z m 53.4647,185.37611 39.3402,-99.87393 h -78.5534 z m 313.6462,-100.1178 c 0,-128.49715 64.1917,-192.80585 192.5653,-192.80585 h 256.8707 v 85.50218 h -256.8707 c -71.371,0 -107.0665,35.69217 -107.0665,107.18341 v 235.80416 c 0,71.49123 35.6922,107.1834 107.0665,107.1834 h 256.8707 v 85.50219 h -256.8707 c -128.3769,0 -192.5653,-64.31539 -192.5653,-192.8092 z m 106.6922,106.82596 V 336.82729 c 0,-56.87896 28.5031,-85.37857 85.5022,-85.37857 h 256.8808 v 85.50218 h -235.4401 c -14.2481,0 -21.4407,7.06895 -21.4407,21.1868 h 192.6857 v 85.51555 z m 0,21.92174 h 278.1879 v 85.50219 h -192.6857 c 0,14.12119 7.1893,21.19014 21.4407,21.19014 h 235.4401 v 85.50218 h -256.8808 c -56.9991,0 -85.5022,-28.50296 -85.5022,-85.38192 z M 5532.664,347.30711 c 0,56.14734 -14.3817,98.5343 -43.1219,127.39805 -28.7401,28.74014 -49.9335,48.1096 -63.821,58.09832 l 106.9429,232.0325 h -85.5021 L 5321.5812,499.30951 c -5.7226,-12.42077 -4.2628,-19.97413 4.2661,-22.90059 34.7066,-7.54333 63.577,-22.8939 86.7181,-46.04169 23.0176,-23.02084 34.5965,-50.7855 34.5965,-83.06012 0,-31.9205 -11.5756,-59.44464 -34.7167,-82.82627 -23.0209,-23.26138 -47.2577,-34.95722 -72.4701,-34.95722 H 5125.605 v 535.31236 h -85.5056 V 144.02144 h 299.8757 c 48.9548,0 93.296,19.97078 133.1207,59.92903 39.7044,39.82463 59.5649,87.69369 59.5649,143.35998 z m -107.4273,0.48106 c 0,26.67224 -9.3807,49.32895 -28.259,68.20731 -18.7548,18.75477 -50.7955,33.86146 -96.1023,45.31677 -10.4765,2.79617 -13.276,9.4943 -8.5255,19.97077 l 132.8868,284.03403 h -85.7526 L 5232.3006,551.20079 v 214.11626 h -85.5022 V 251.44872 h 192.8093 c 19.4897,0 38.6152,9.50098 57.3733,28.49961 18.8784,19.12557 28.2591,41.65868 28.2591,67.84318 z m -192.9394,-10.84061 v 45.67756 c 16.2024,-2.8062 38.2478,-7.67696 65.9022,-14.25148 27.6478,-6.69479 41.5251,-17.17795 41.5251,-31.42608 z M 2248.557,679.81152 h 253.3429 l -171.2482,-435.9195 c -4.7472,-9.50432 -14.2515,-14.25147 -28.503,-14.25147 -11.9363,0 -21.4306,4.74715 -28.6198,14.25147 l -192.689,521.42169 h -85.6224 l 199.8681,-549.80437 c 23.7524,-47.61852 59.4446,-71.37098 107.0665,-71.37098 54.6875,0 90.3796,23.75246 106.9428,71.37098 l 207.0608,549.80437 h -367.5953 v -85.50219 z m 0,-21.9251 v -46.39914 l -60.654,153.82643 h -85.6224 L 2287.777,265.32938 c 2.4354,-9.50433 7.1892,-14.24814 14.3717,-14.24814 7.069,0 11.8161,4.74715 14.2481,14.24814 l 149.8176,392.5537 h -217.6607 z m 53.5951,-185.37611 -39.3402,99.87393 h 78.5634 z" fill="#ffc000" gorn="0.3.1" stroke="none" style="stroke-width:1"/>
    </g>
</svg>
