<?xml version="1.0" encoding="UTF-8" standalone="no"?>
<!-- Creator: CorelDRAW 2018 -->

<svg
   xml:space="preserve"
   width="81.9999mm"
   height="6.0968mm"
   version="1.0"
   shape-rendering="geometricPrecision"
   text-rendering="geometricPrecision"
   image-rendering="optimizeQuality"
   fill-rule="evenodd"
   clip-rule="evenodd"
   viewBox="0 0 3192.5 237.37"
   id="svg4727"
   xmlns="http://www.w3.org/2000/svg"
   xmlns:svg="http://www.w3.org/2000/svg"
   xmlns:rdf="http://www.w3.org/1999/02/22-rdf-syntax-ns#"
   xmlns:cc="http://creativecommons.org/ns#"
   xmlns:dc="http://purl.org/dc/elements/1.1/"><metadata
     id="metadata4733"><rdf:RDF><cc:Work
         rdf:about=""><dc:format>image/svg+xml</dc:format><dc:type
           rdf:resource="http://purl.org/dc/dcmitype/StillImage" /></cc:Work></rdf:RDF></metadata><defs
     id="defs4731">
  </defs><g
     id="silkscreen"><path
       id="silke"
       d="m 3192.5,0 v 217.89 c 0,10.71 -8.76,19.47 -19.47,19.47 H 19.46 c -10.71,0 -19.47,-8.76 -19.47,-19.47 V 0 h 3192.5 z m -3.89,217.89 V 3.89 H 3.89 v 214 c 0,4.29 1.75,8.18 4.56,10.99 l 0.02,0.02 c 2.81,2.81 6.71,4.56 10.99,4.56 h 3153.57 c 4.29,0 8.18,-1.75 10.99,-4.56 v -0.02 c 2.82,-2.82 4.58,-6.72 4.58,-10.99 z"
       fill="black"
       stroke="none" /></g><g
     id="copper1"><path
       d="m 28.827978,0 v 237.36945 h 69.21096 V 0 Z"
       fill="#ffc000" stroke="none"
       id="connector0pin" /><path
       d="m 127.75539,0 v 237.36945 h 69.21096 V 0 Z"
       fill="#ffc000" stroke="none"
       id="connector1pin" /><path
       d="m 226.64256,0 v 237.36945 h 69.21096 V 0 Z"
       fill="#ffc000" stroke="none"
       id="connector2pin" /><path
       d="m 325.50961,0 v 237.36945 h 69.21096 V 0 Z"
       fill="#ffc000" stroke="none"
       id="connector3pin" /><path
       d="M 424.45714,0 V 237.36945 H 493.6681 V 0 Z"
       fill="#ffc000" stroke="none"
       id="connector4pin" /><path
       d="m 523.32419,0 v 237.36945 h 69.21096 V 0 Z"
       fill="#ffc000" stroke="none"
       id="connector5pin" /><path
       d="m 622.15101,0 v 237.36945 h 69.21096 V 0 Z"
       fill="#ffc000" stroke="none"
       id="connector6pin" /><path
       d="m 721.09853,0 v 237.36945 h 69.21096 V 0 Z"
       fill="#ffc000" stroke="none"
       id="connector7pin" /><path
       d="m 819.96559,0 v 237.36945 h 69.21096 V 0 Z"
       fill="#ffc000" stroke="none"
       id="connector8pin" /><path
       d="M 918.83264,0 V 237.36945 H 988.0436 V 0 Z"
       fill="#ffc000" stroke="none"
       id="connector9pin" /><path
       d="m 1017.7802,0 v 237.36945 h 69.2109 V 0 Z"
       fill="#ffc000" stroke="none"
       id="connector10pin" /><path
       d="m 1116.6673,0 v 237.36945 h 69.211 V 0 Z"
       fill="#ffc000" stroke="none"
       id="connector11pin" /><path
       d="m 1215.5344,0 v 237.36945 h 69.211 V 0 Z"
       fill="#ffc000" stroke="none"
       id="connector12pin" /><path
       d="m 1314.4618,0 v 237.36945 h 69.211 V 0 Z"
       fill="#ffc000" stroke="none"
       id="connector13pin" /><path
       d="m 1413.349,0 v 237.36945 h 69.2109 V 0 Z"
       fill="#ffc000" stroke="none"
       id="connector14pin" /><path
       d="m 1512.216,0 v 237.36945 h 69.211 V 0 Z"
       fill="#ffc000" stroke="none"
       id="connector15pin" /><path
       d="m 1611.1636,0 v 237.36945 h 69.2109 V 0 Z"
       fill="#ffc000" stroke="none"
       id="connector16pin" /><path
       d="m 1710.0306,0 v 237.36945 h 69.211 V 0 Z"
       fill="#ffc000" stroke="none"
       id="connector17pin" /><path
       d="m 1808.8775,0 v 237.36945 h 69.211 V 0 Z"
       fill="#ffc000" stroke="none"
       id="connector18pin" /><path
       d="m 1907.8049,0 v 237.36945 h 69.211 V 0 Z"
       fill="#ffc000" stroke="none"
       id="connector19pin" /><path
       d="m 2006.672,0 v 237.36945 h 69.211 V 0 Z"
       fill="#ffc000" stroke="none"
       id="connector20pin" /><path
       d="M 2105.5592,0 V 237.36945 H 2174.75 V 0 Z"
       fill="#ffc000" stroke="none"
       id="connector21pin" /><path
       d="m 2204.4866,0 v 237.36945 h 69.2109 V 0 Z"
       fill="#ffc000" stroke="none"
       id="connector22pin" /><path
       d="m 2303.3738,0 v 237.36945 h 69.2109 V 0 Z"
       fill="#ffc000" stroke="none"
       id="connector23pin" /><path
       d="m 2402.1804,0 v 237.36945 h 69.211 V 0 Z"
       fill="#ffc000" stroke="none"
       id="connector24pin" /><path
       d="m 2501.128,0 v 237.36945 h 69.2109 V 0 Z"
       fill="#ffc000" stroke="none"
       id="connector25pin" /><path
       d="m 2599.995,0 v 237.36945 h 69.211 V 0 Z"
       fill="#ffc000" stroke="none"
       id="connector26pin" /><path
       d="m 2698.8822,0 v 237.36945 h 69.211 V 0 Z"
       fill="#ffc000" stroke="none"
       id="connector27pin" /><path
       d="m 2797.8297,0 v 237.36945 h 69.1909 V 0 Z"
       fill="#ffc000" stroke="none"
       id="connector28pin" /><path
       d="m 2896.6968,0 v 237.36945 h 69.2109 V 0 Z"
       fill="#ffc000" stroke="none"
       id="connector29pin" /><path
       d="m 2995.5236,0 v 237.36945 h 69.211 V 0 Z"
       fill="#ffc000" stroke="none"
       id="connector30pin" /><path
       d="m 3094.451,0 v 237.36945 h 69.211 V 0 Z"
       fill="#ffc000" stroke="none"
       id="connector31pin" /></g><g
     id="copper0"><path
       d="m 28.827978,0 v 237.36945 h 69.21096 V 0 Z"
       fill="#ffc000" stroke="none"
       id="connector32pin" /><path
       d="m 127.75539,0 v 237.36945 h 69.21096 V 0 Z"
       fill="#ffc000" stroke="none"
       id="connector33pin" /><path
       d="m 226.64256,0 v 237.36945 h 69.21096 V 0 Z"
       fill="#ffc000" stroke="none"
       id="connector34pin" /><path
       d="m 325.50961,0 v 237.36945 h 69.21096 V 0 Z"
       fill="#ffc000" stroke="none"
       id="connector35pin" /><path
       d="M 424.45714,0 V 237.36945 H 493.6681 V 0 Z"
       fill="#ffc000" stroke="none"
       id="connector36pin" /><path
       d="m 523.32419,0 v 237.36945 h 69.21096 V 0 Z"
       fill="#ffc000" stroke="none"
       id="connector37pin" /><path
       d="m 622.15101,0 v 237.36945 h 69.21096 V 0 Z"
       fill="#ffc000" stroke="none"
       id="connector38pin" /><path
       d="m 721.09853,0 v 237.36945 h 69.21096 V 0 Z"
       fill="#ffc000" stroke="none"
       id="connector39pin" /><path
       d="m 819.96559,0 v 237.36945 h 69.21096 V 0 Z"
       fill="#ffc000" stroke="none"
       id="connector40pin" /><path
       d="M 918.83264,0 V 237.36945 H 988.0436 V 0 Z"
       fill="#ffc000" stroke="none"
       id="connector41pin" /><path
       d="m 1017.7802,0 v 237.36945 h 69.2109 V 0 Z"
       fill="#ffc000" stroke="none"
       id="connector42pin" /><path
       d="m 1116.6673,0 v 237.36945 h 69.211 V 0 Z"
       fill="#ffc000" stroke="none"
       id="connector43pin" /><path
       d="m 1215.5344,0 v 237.36945 h 69.211 V 0 Z"
       fill="#ffc000" stroke="none"
       id="connector44pin" /><path
       d="m 1314.4618,0 v 237.36945 h 69.211 V 0 Z"
       fill="#ffc000" stroke="none"
       id="connector45pin" /><path
       d="m 1413.349,0 v 237.36945 h 69.2109 V 0 Z"
       fill="#ffc000" stroke="none"
       id="connector46pin" /><path
       d="m 1512.216,0 v 237.36945 h 69.211 V 0 Z"
       fill="#ffc000" stroke="none"
       id="connector47pin" /><path
       d="m 1611.1636,0 v 237.36945 h 69.2109 V 0 Z"
       fill="#ffc000" stroke="none"
       id="connector48pin" /><path
       d="m 1710.0306,0 v 237.36945 h 69.211 V 0 Z"
       fill="#ffc000" stroke="none"
       id="connector49pin" /><path
       d="m 1808.8775,0 v 237.36945 h 69.211 V 0 Z"
       fill="#ffc000" stroke="none"
       id="connector50pin" /><path
       d="m 1907.8049,0 v 237.36945 h 69.211 V 0 Z"
       fill="#ffc000" stroke="none"
       id="connector51pin" /><path
       d="m 2006.672,0 v 237.36945 h 69.211 V 0 Z"
       fill="#ffc000" stroke="none"
       id="connector52pin" /><path
       d="M 2105.5592,0 V 237.36945 H 2174.75 V 0 Z"
       fill="#ffc000" stroke="none"
       id="connector53pin" /><path
       d="m 2204.4866,0 v 237.36945 h 69.2109 V 0 Z"
       fill="#ffc000" stroke="none"
       id="connector54pin" /><path
       d="m 2303.3738,0 v 237.36945 h 69.2109 V 0 Z"
       fill="#ffc000" stroke="none"
       id="connector55pin" /><path
       d="m 2402.1804,0 v 237.36945 h 69.211 V 0 Z"
       fill="#ffc000" stroke="none"
       id="connector56pin" /><path
       d="m 2501.128,0 v 237.36945 h 69.2109 V 0 Z"
       fill="#ffc000" stroke="none"
       id="connector57pin" /><path
       d="m 2599.995,0 v 237.36945 h 69.211 V 0 Z"
       fill="#ffc000" stroke="none"
       id="connector58pin" /><path
       d="m 2698.8822,0 v 237.36945 h 69.211 V 0 Z"
       fill="#ffc000" stroke="none"
       id="connector59pin" /><path
       d="m 2797.8297,0 v 237.36945 h 69.1909 V 0 Z"
       fill="#ffc000" stroke="none"
       id="connector60pin" /><path
       d="m 2896.6968,0 v 237.36945 h 69.2109 V 0 Z"
       fill="#ffc000" stroke="none"
       id="connector61pin" /><path
       d="m 2995.5236,0 v 237.36945 h 69.211 V 0 Z"
       fill="#ffc000" stroke="none"
       id="connector62pin" /><path
       d="m 3094.451,0 v 237.36945 h 69.211 V 0 Z"
       fill="#ffc000" stroke="none"
       id="connector63pin" /></g></svg>
