<?xml version='1.0' encoding='UTF-8' standalone='no'?>
<svg xmlns="http://www.w3.org/2000/svg" xmlns:xml="http://www.w3.org/XML/1998/namespace" id="svg1311" gorn="0" clip-rule="evenodd" fill-rule="evenodd" height="7.529mm" xml:space="preserve" shape-rendering="geometricPrecision" version="1.0" text-rendering="geometricPrecision" viewBox="0 0 4310.94 420.51" width="77.1857mm" image-rendering="optimizeQuality" >
    <desc >
        <referenceFile >GenesisCartEdge.svg</referenceFile>
    </desc>
    <metadata id="metadata1317" >
        <rdf:RDF xmlns:rdf="http://www.w3.org/1999/02/22-rdf-syntax-ns#">
            <cc:Work xmlns:rdf="http://www.w3.org/1999/02/22-rdf-syntax-ns#" xmlns:cc="http://creativecommons.org/ns#" rdf:about="">
                <dc:format xmlns:dc="http://purl.org/dc/elements/1.1/">image/svg+xml</dc:format>
                <dc:type rdf:resource="http://purl.org/dc/dcmitype/StillImage" xmlns:rdf="http://www.w3.org/1999/02/22-rdf-syntax-ns#" xmlns:dc="http://purl.org/dc/elements/1.1/"/>
                <dc:title xmlns:dc="http://purl.org/dc/elements/1.1/"/>
            </cc:Work>
        </rdf:RDF>
    </metadata>
    <defs id="defs1315" />
    <g id="silkscreen" gorn="0.3" style="display:inline" >
        <path id="path1306" gorn="0.3.0" style="fill:#000000;stroke-width:1"  d="M 4255.0901,420.51 H 55.850002 C 25.13,420.51 0,395.38 0,364.66 V 0.0099934 H 4310.9401 V 364.66 c 0,30.72 -25.1299,55.85 -55.85,55.85 z M 55.850002,414.92 H 4255.0901 c 13.8201,0 26.4,-5.66 35.5101,-14.75999 9.1,-9.11 14.7599,-21.69002 14.7599,-35.51001 V 5.5799936 H 5.5900001 V 364.65 c 0,13.81999 5.6600009,26.40001 14.7600009,35.51001 9.11,9.09999 21.69,14.75999 35.510001,14.75999 z"/>
    </g>
    <g id="copper1" gorn="0.4" >
        <g id="copper0" gorn="0.4.0" style="display:inline" >
            <rect id="connector0pin" x="87.75" gorn="0.4.0.0" y="53.700001" height="313.10999" style="fill:#f7bd13;stroke-width:1" width="91.300011" />
            <rect id="connector1pin" x="218.25002" gorn="0.4.0.1" y="53.700001" height="313.10999" style="fill:#f7bd13;stroke-width:1" width="91.300011" />
            <rect id="connector2pin" x="348.70001" gorn="0.4.0.2" y="53.700001" height="313.10999" style="fill:#f7bd13;stroke-width:1" width="91.300011" />
            <rect id="connector3pin" x="479.14001" gorn="0.4.0.3" y="53.700001" height="313.10999" style="fill:#f7bd13;stroke-width:1" width="91.300011" />
            <rect id="connector4pin" x="609.58002" gorn="0.4.0.4" y="53.700001" height="313.10999" style="fill:#f7bd13;stroke-width:1" width="91.300011" />
            <rect id="connector5pin" x="740.02002" gorn="0.4.0.5" y="53.700001" height="313.10999" style="fill:#f7bd13;stroke-width:1" width="91.300011" />
            <rect id="connector6pin" x="870.53003" gorn="0.4.0.6" y="53.700001" height="313.10999" style="fill:#f7bd13;stroke-width:1" width="91.300011" />
            <rect id="connector7pin" x="1000.97" gorn="0.4.0.7" y="53.700001" height="313.10999" style="fill:#f7bd13;stroke-width:1" width="91.300011" />
            <rect id="connector8pin" x="1131.34" gorn="0.4.0.8" y="53.700001" height="313.10999" style="fill:#f7bd13;stroke-width:1" width="91.300011" />
            <rect id="connector9pin" x="1261.85" gorn="0.4.0.9" y="53.700001" height="313.10999" style="fill:#f7bd13;stroke-width:1" width="91.300011" />
            <rect id="connector10pin" x="1392.29" gorn="0.4.0.10" y="53.700001" height="313.10999" style="fill:#f7bd13;stroke-width:1" width="91.300011" />
            <rect id="connector11pin" x="1522.7301" gorn="0.4.0.11" y="53.700001" height="313.10999" style="fill:#f7bd13;stroke-width:1" width="91.300011" />
            <rect id="connector12pin" x="1653.1702" gorn="0.4.0.12" y="53.700001" height="313.10999" style="fill:#f7bd13;stroke-width:1" width="91.300011" />
            <rect id="connector13pin" x="1783.61" gorn="0.4.0.13" y="53.700001" height="313.10999" style="fill:#f7bd13;stroke-width:1" width="91.300011" />
            <rect id="connector14pin" x="1914.1201" gorn="0.4.0.14" y="53.700001" height="313.10999" style="fill:#f7bd13;stroke-width:1" width="91.300011" />
            <rect id="connector15pin" x="2044.5701" gorn="0.4.0.15" y="53.700001" height="313.10999" style="fill:#f7bd13;stroke-width:1" width="91.300011" />
            <rect id="connector16pin" x="2175.0701" gorn="0.4.0.16" y="53.700001" height="313.10999" style="fill:#f7bd13;stroke-width:1" width="91.300011" />
            <rect id="connector17pin" x="2305.5801" gorn="0.4.0.17" y="53.700001" height="313.10999" style="fill:#f7bd13;stroke-width:1" width="91.300011" />
            <rect id="connector18pin" x="2436.02" gorn="0.4.0.18" y="53.700001" height="313.10999" style="fill:#f7bd13;stroke-width:1" width="91.300011" />
            <rect id="connector19pin" x="2566.4602" gorn="0.4.0.19" y="53.700001" height="313.10999" style="fill:#f7bd13;stroke-width:1" width="91.300011" />
            <rect id="connector20pin" x="2696.9099" gorn="0.4.0.20" y="53.700001" height="313.10999" style="fill:#f7bd13;stroke-width:1" width="91.300011" />
            <rect id="connector21pin" x="2827.3501" gorn="0.4.0.21" y="53.700001" height="313.10999" style="fill:#f7bd13;stroke-width:1" width="91.300011" />
            <rect id="connector22pin" x="2957.8604" gorn="0.4.0.22" y="53.700001" height="313.10999" style="fill:#f7bd13;stroke-width:1" width="91.300011" />
            <rect id="connector23pin" x="3088.3003" gorn="0.4.0.23" y="53.700001" height="313.10999" style="fill:#f7bd13;stroke-width:1" width="91.300011" />
            <rect id="connector24pin" x="3218.6702" gorn="0.4.0.24" y="53.700001" height="313.10999" style="fill:#f7bd13;stroke-width:1" width="91.300011" />
            <rect id="connector25pin" x="3349.1699" gorn="0.4.0.25" y="53.700001" height="313.10999" style="fill:#f7bd13;stroke-width:1" width="91.300011" />
            <rect id="connector26pin" x="3479.6104" gorn="0.4.0.26" y="53.700001" height="313.10999" style="fill:#f7bd13;stroke-width:1" width="91.300011" />
            <rect id="connector27pin" x="3610.0601" gorn="0.4.0.27" y="53.700001" height="313.10999" style="fill:#f7bd13;stroke-width:1" width="91.300011" />
            <rect id="connector28pin" x="3740.5" gorn="0.4.0.28" y="53.700001" height="313.10999" style="fill:#f7bd13;stroke-width:1" width="91.300011" />
            <rect id="connector29pin" x="3870.9402" gorn="0.4.0.29" y="53.700001" height="313.10999" style="fill:#f7bd13;stroke-width:1" width="91.300011" />
            <rect id="connector30pin" x="4001.4502" gorn="0.4.0.30" y="53.700001" height="313.10999" style="fill:#f7bd13;stroke-width:1" width="91.300011" />
            <rect id="connector31pin" x="4131.8901" gorn="0.4.0.31" y="53.700001" height="313.10999" style="fill:#f7bd13;stroke-width:1" width="91.300011" />
        </g>
    </g>
</svg>
