<?xml version='1.0' encoding='UTF-8' standalone='no'?>
<svg xmlns="http://www.w3.org/2000/svg"  style="clip-rule:evenodd;fill-rule:evenodd;image-rendering:optimizeQuality;shape-rendering:geometricPrecision;text-rendering:geometricPrecision" viewBox="0 0 946.50002 690.00001" width="9.4650002mm" gorn="0" xml:space="preserve" id="svg1196" height="6.9000001mm" xmlns:xml="http://www.w3.org/XML/1998/namespace" version="1.0">
    <desc >
        <referenceFile >74HCT4066.svg</referenceFile>
    </desc>
    <defs  id="defs1200"/>
    <g  style="display:inline" gorn="0.2" id="silkscreen">
        <path  style="fill:#000000" gorn="0.2.0" d="M 10,485 H 936.5 V 205.01 H 10 Z M 0,495 H 946.5 V 195.01 H 0 Z" id="path1157"/>
        <path  style="stroke-width:7.00985" gorn="0.2.1" d="m 725.38186,476.14665 c -0.50081,0.0936 -0.98481,0.41633 -1.49861,0.93018 -0.9575,0.9575 -0.93018,0.97186 -0.93018,4.90926 0,3.64926 0.0296,4.05138 0.72347,4.85758 h 4.13412 c 0.67693,-0.65594 0.73028,-1.00486 0.72347,-4.80591 -0.014,-4.31236 -0.1729,-4.79597 -1.5503,-5.52937 -0.58005,-0.30895 -1.10115,-0.45539 -1.60197,-0.36174 z" id="path93"/>
        <path  style="stroke-width:7.00985" gorn="0.2.2" d="m 607.02164,476.14665 c -0.5193,-0.0722 -1.0518,0.10044 -1.757,0.46509 -1.2998,0.6722 -1.77087,2.4849 -1.60197,6.3562 0.1185,2.7146 0.21258,3.12206 0.93018,3.82406 0.032,0.0313 0.0709,0.022 0.10335,0.0517 h 4.03076 c 0.7665,-0.7695 0.82683,-1.00541 0.82683,-4.80591 0,-3.97436 -0.0183,-4.00263 -0.98185,-4.96093 -0.5394,-0.5394 -1.031,-0.85794 -1.5503,-0.93018 z" id="path92"/>
        <path  style="stroke-width:7.00985" gorn="0.2.3" d="m 726.20869,458.68002 c -0.55998,-0.0729 -1.18465,0.0569 -1.757,0.36173 -1.3728,0.7311 -1.48452,1.26264 -1.49862,5.4777 -0.01,3.8679 0.006,4.08549 0.77515,4.85759 0.558,0.5582 1.19868,0.77515 2.01538,0.77515 0.8167,0 1.4057,-0.21685 1.9637,-0.77515 0.7736,-0.7728 0.82683,-0.99654 0.82683,-4.96094 0,-3.96436 -0.054,-4.18804 -0.82683,-4.96094 -0.43705,-0.437 -0.93864,-0.70223 -1.49861,-0.77514 z" id="path91"/>
        <path  style="stroke-width:7.00985" gorn="0.2.4" d="m 606.60823,458.62834 c -0.66055,-0.0309 -1.3048,0.27132 -1.86035,0.82682 -1.0122,1.0122 -1.26261,2.4418 -1.08521,6.1495 0.1324,2.7725 0.19833,3.05378 1.03353,3.77238 1.2245,1.0529 2.9592,1.0719 4.03076,0 0.7641,-0.7675 0.82683,-1.00961 0.82683,-4.80591 0,-3.9744 -0.0183,-4.00264 -0.98185,-4.96094 -0.60945,-0.6094 -1.30316,-0.95095 -1.96371,-0.98185 z" id="path90"/>
        <path  style="stroke-width:7.00985" gorn="0.2.5" d="m 129.88496,445.41738 c 0.3555,0 0.21579,0.78455 -0.41341,2.17041 -1.1059,2.4351 -3.5815,3.7891 -6.1495,3.3073 l -1.18856,-0.25839 0.98186,-1.03352 c 0.55556,-0.5762 1.16368,-1.43463 1.34358,-1.91203 0.2997,-0.7953 0.4397,-0.87187 1.757,-0.72347 1.2055,0.136 1.62477,0.0483 2.48047,-0.6718 0.5614,-0.4723 1.07886,-0.8785 1.18856,-0.8785 z" id="path89"/>
        <path  style="stroke-width:7.00985" gorn="0.2.6" d="m 381.7124,445.29582 c 0.16311,-0.0398 0.2137,0.0888 0.2067,0.36174 -0.035,1.67316 -1.8924,4.06343 -3.7207,4.75423 -1.0861,0.4103 -3.18068,0.42717 -3.77238,0.0517 -0.1509,-0.096 -0.19145,-0.22581 -0.10335,-0.41341 0.088,-0.1876 0.31899,-0.43704 0.67179,-0.77514 0.5307,-0.5085 1.13679,-1.31008 1.34359,-1.80868 0.3456,-0.8345 0.49197,-0.92351 1.80867,-0.77515 1.1958,0.1348 1.59502,0.0301 2.58382,-0.72347 0.52465,-0.40001 0.81874,-0.63201 0.98186,-0.67179 z" id="path88"/>
        <path  style="stroke-width:7.00985" gorn="0.2.7" d="m 725.7436,441.16171 c -0.8167,0 -1.45738,0.26852 -2.01538,0.82682 -0.77,0.7722 -0.78215,0.98972 -0.77515,4.85758 0.014,4.2151 0.12602,4.74661 1.49862,5.47771 1.1447,0.6097 2.38151,0.46068 3.25561,-0.41342 0.7736,-0.77276 0.82683,-0.99657 0.82683,-4.96093 0,-3.9644 -0.054,-4.18804 -0.82683,-4.96094 -0.558,-0.5583 -1.147,-0.82682 -1.9637,-0.82682 z" id="path87"/>
        <path  style="stroke-width:7.00985" gorn="0.2.8" d="m 606.76326,441.16171 c -0.71551,-0.006 -1.45481,0.30042 -2.06706,0.82682 -0.8358,0.7186 -0.90103,0.94824 -1.03353,3.7207 -0.1774,3.7077 0.0732,5.18891 1.08521,6.20117 1.1111,1.111 2.60526,1.06384 3.82406,-0.15502 0.95826,-0.9583 0.98185,-0.98658 0.98185,-4.96094 0,-3.8005 -0.054,-4.03641 -0.82683,-4.80591 -0.53576,-0.5359 -1.24819,-0.82095 -1.9637,-0.82682 z" id="path86"/>
        <path  style="stroke-width:7.00985" gorn="0.2.9" d="m 186.7807,439.83633 c 2.4318,0 2.76961,0.24946 1.65365,1.18856 -1.9252,1.6199 -2.51382,4.18077 -1.49862,6.71793 0.2927,0.7316 0.99429,1.68354 1.55029,2.11874 l 1.03353,0.77514 -1.24023,0.20671 c -3.7347,0.7006 -6.76962,-1.84147 -6.76962,-5.63273 0,-3.0059 2.3288,-5.37435 5.271,-5.37435 z" id="path85"/>
        <path  style="stroke-width:7.00985" gorn="0.2.10" d="m 124.3039,439.83633 c 2.4293,0.01 2.65476,0.31939 1.18856,1.55029 l -1.24023,1.03353 -1.03353,-1.0852 c -0.5718,-0.59 -0.95079,-1.16791 -0.82683,-1.29191 0.124,-0.1239 0.99113,-0.20951 1.91203,-0.20671 z" id="path84"/>
        <path  style="stroke-width:7.00985" gorn="0.2.11" d="m 439.79671,439.55974 c 1.05063,0.0799 1.61109,0.46975 0.67179,1.0852 -1.0131,0.6638 -2.22209,3.05048 -2.22209,4.44418 0,0.58276 0.19659,1.57858 0.46509,2.22208 0.2689,0.6435 0.95322,1.60934 1.49862,2.11874 1.1464,1.07086 0.89383,1.30101 -1.39527,1.29191 -2.77616,-0.011 -4.68889,-1.92103 -5.27099,-4.18579 -0.1456,-0.5662 -0.17803,-1.1732 -0.15503,-1.757 0.069,-1.7515 0.92315,-3.46755 2.73885,-4.49585 1.06905,-0.6055 2.61836,-0.80339 3.66903,-0.72347 z" id="path83"/>
        <path  style="stroke-width:7.00985" gorn="0.2.12" d="m 376.33805,439.55974 c 2.29446,0 2.55618,0.35587 1.13688,1.60197 l -1.24024,1.0852 -1.0852,-1.0852 c -0.6512,-0.6314 -0.95555,-1.05011 -0.77515,-1.29191 0.1804,-0.2419 0.84161,-0.31006 1.96371,-0.31006 z" id="path82"/>
        <path  style="stroke-width:7.00985" gorn="0.2.13" d="m 187.24579,436.89077 c -4.53286,-0.16564 -8.74329,3.42913 -8.73332,8.68164 0.01,4.8173 4.76098,8.92823 9.56014,8.26823 0.9302,-0.128 2.38662,-0.69582 3.46232,-1.34358 l 1.91203,-1.13689 h 11.16211 11.11043 v 34.77824 h 11.57552 v -0.51676 -46.09538 h -16.94987 -16.94987 l -1.65364,-1.13688 c -1.4383,-0.9679 -2.9849,-1.4434 -4.49585,-1.49862 z" id="path81"/>
        <path  style="stroke-width:7.00985" gorn="0.2.14" d="m 439.79671,436.66586 c -4.40533,-0.45519 -8.84666,2.64714 -9.35344,7.59643 -0.7367,7.192 7.5441,12.03364 13.3842,7.80314 l 1.34358,-0.98185 h 11.21379 11.16211 v 35.76009 h 11.52384 V 485.81014 439.198 h -16.94987 -17.00154 l -1.08521,-0.82682 c -1.31779,-1.00515 -2.76904,-1.5536 -4.23746,-1.70532 z" id="path80"/>
        <path  style="stroke-width:7.00985" gorn="0.2.15" d="m 605.83308,423.69507 c -1.62676,0.6221 -2.02951,1.52217 -2.17041,4.75423 -0.1696,3.8872 0.31245,5.66271 1.65365,6.35621 1.2801,0.66186 2.69157,0.33595 3.56567,-0.77515 0.5769,-0.7328 0.6718,-1.32494 0.6718,-4.5992 0,-2.071 -0.16614,-4.07838 -0.36174,-4.44418 -0.4991,-0.9319 -2.40607,-1.65631 -3.35897,-1.29191 z" id="path79"/>
        <path  style="stroke-width:7.00985" gorn="0.2.16" d="m 725.64025,423.59172 c -0.73188,0.0299 -1.45601,0.33998 -1.96371,0.93018 -0.6947,0.80326 -0.72347,1.21148 -0.72347,4.85758 0,3.9375 -0.0234,3.95176 0.93018,4.90926 1.3193,1.3193 3.0772,1.20114 4.23746,-0.31006 0.265,-0.3452 0.40642,-1.91508 0.41342,-4.65088 0.01,-4.00996 -0.0184,-4.20463 -0.82683,-4.96093 -0.582,-0.54675 -1.33518,-0.80504 -2.06705,-0.77515 z" id="path78"/>
        <path  style="stroke-width:7.00985" gorn="0.2.17" d="m 165.90342,406.71174 c -0.51691,-0.12506 -1.04209,-0.0947 -1.55029,0.10335 -0.4459,0.1737 -3.57298,2.82084 -6.92464,5.83944 l -6.09782,5.4777 -0.20671,-1.39527 c -0.3498,-2.51166 -3.02603,-3.53687 -4.75423,-1.80867 -0.7206,0.7206 -0.77515,1.11398 -0.77515,3.41064 0,1.8305 0.14197,2.7722 0.51677,3.3073 0.2902,0.41436 0.47721,0.82529 0.41341,0.87849 -0.064,0.053 -3.98662,3.58556 -8.73332,7.85482 l -8.62995,7.75147 -1.70532,-0.62012 c -2.8843,-1.0959 -6.0134,-0.64954 -8.42326,1.18856 l -1.08521,0.82682 H 100.94616 83.996287 v 46.09538 0.51676 h 11.8339 v -34.77824 h 11.265463 11.21379 l 0.98185,0.82683 c 1.3287,1.118 4.29337,1.92564 5.99447,1.65364 2.86276,-0.4578 5.42023,-2.1972 6.71793,-4.5992 0.3133,-0.5799 0.61837,-2.16716 0.72347,-3.82406 l 0.15503,-2.8422 17.00154,-15.24455 c 9.33046,-8.38186 17.20131,-15.54974 17.51831,-15.91634 0.7981,-0.9231 0.77982,-3.04413 -0.0517,-3.87573 -0.4214,-0.42135 -0.93003,-0.70177 -1.44694,-0.82682 z" id="path77"/>
        <path  style="stroke-width:7.00985" gorn="0.2.18" d="m 417.67919,406.5385 c -0.48526,-0.0908 -0.99497,-0.06 -1.49861,0.15503 -0.519,0.2217 -8.61674,7.28497 -17.9834,15.70963 -9.36666,8.42456 -17.09755,15.30463 -17.20825,15.29623 -0.111,-0.01 -1.09835,-0.28972 -2.17041,-0.62012 -1.3088,-0.4037 -2.46,-0.53821 -3.514,-0.41341 -1.6746,0.1983 -3.84093,1.16388 -4.54753,2.01538 -0.3811,0.4592 -2.37825,0.51676 -17.51831,0.51676 h -17.1049 l -0.10335,46.56047 v 1.0852 h 11.6272 v -35.76009 h 11.31714 c 9.89796,0 11.40652,0.0642 11.78222,0.51677 1.4149,1.70516 5.1182,2.46954 7.9065,1.65364 2.26796,-0.6636 3.84199,-1.95149 5.06429,-4.18579 0.8271,-1.5116 0.94417,-2.11439 0.93017,-4.18579 v -2.42879 l 17.56999,-15.81299 c 13.47226,-12.12686 17.56452,-16.01247 17.72502,-16.74317 0.35685,-1.62432 -0.81797,-3.08643 -2.27377,-3.35896 z" id="path76"/>
        <path  style="stroke-width:7.00985" gorn="0.2.19" d="m 401.81453,406.07341 c -0.91845,0.0846 -1.79627,0.62689 -2.27377,1.55029 -0.29266,0.5659 -0.49496,2.21841 -0.51676,3.92741 -0.022,1.7089 0.13821,3.44767 0.41341,4.23747 0.5335,1.5305 2.12131,2.21859 3.72071,1.55029 0.63706,-0.2662 1.33181,-0.82453 1.49861,-1.24023 0.1668,-0.4157 0.29606,-2.43038 0.31006,-4.44418 0.018,-3.17226 -0.0531,-3.77595 -0.62012,-4.49585 -0.6448,-0.8198 -1.61369,-1.1698 -2.53214,-1.0852 z" id="path75"/>
        <path  style="stroke-width:7.00985" gorn="0.2.20" d="m 725.38186,405.97006 c -0.49988,0.0937 -0.98471,0.41632 -1.49861,0.93017 -0.9574,0.9574 -0.93018,0.9718 -0.93018,4.90926 0,3.6493 0.0329,4.05129 0.72347,4.85759 0.991,1.1521 2.92694,1.18895 4.08244,0.10335 0.766,-0.7167 0.78215,-0.89432 0.77515,-4.85758 -0.014,-4.3123 -0.1728,-4.84756 -1.5503,-5.58106 -0.58005,-0.3089 -1.10208,-0.4554 -1.60197,-0.36173 z" id="path74"/>
        <path  style="stroke-width:7.00985" gorn="0.2.21" d="m 607.02164,405.97006 c -0.5193,-0.0731 -1.0518,0.10038 -1.757,0.46508 -1.2998,0.6722 -1.77087,2.48491 -1.60197,6.35621 0.1185,2.71456 0.21258,3.12205 0.93018,3.82405 1.2557,1.2278 2.92555,1.25988 4.13411,0.0517 0.7665,-0.7695 0.82683,-1.00541 0.82683,-4.80591 0,-3.9743 -0.0183,-4.00254 -0.98185,-4.96094 -0.5394,-0.53935 -1.031,-0.85704 -1.5503,-0.93017 z" id="path73"/>
        <path  style="stroke-width:7.00985" gorn="0.2.22" d="m 148.38511,396.68651 c -0.8167,0 -1.45708,0.21698 -2.01538,0.77514 -0.7714,0.7712 -0.77515,1.02677 -0.77515,4.90927 0,3.59176 0.0487,4.14073 0.62012,4.75423 1.2584,1.3506 3.04268,1.3377 4.28914,0 0.5963,-0.64 0.6718,-1.12057 0.6718,-4.75423 0,-3.8825 -0.0551,-4.13807 -0.82682,-4.90927 -0.5582,-0.55816 -1.14701,-0.77514 -1.96371,-0.77514 z" id="path72"/>
        <path  style="stroke-width:7.00985" gorn="0.2.23" d="m 726.20869,388.50342 c -0.55998,-0.0738 -1.18465,0.0569 -1.757,0.36174 -1.3728,0.7312 -1.48452,1.2625 -1.49862,5.4777 -0.01,3.86786 0.006,4.08548 0.77515,4.85758 0.558,0.5583 1.19868,0.82683 2.01538,0.82683 0.8167,0 1.4057,-0.26853 1.9637,-0.82683 0.7735,-0.7728 0.82683,-0.99657 0.82683,-4.96093 0,-3.9644 -0.054,-4.18814 -0.82683,-4.96094 -0.43705,-0.43705 -0.93864,-0.70132 -1.49861,-0.77515 z" id="path71"/>
        <path  style="stroke-width:7.00985" gorn="0.2.24" d="m 606.60823,388.50342 c -0.66055,-0.03 -1.3048,0.21965 -1.86035,0.77515 -1.0122,1.0123 -1.26261,2.49347 -1.08521,6.20117 0.1324,2.7725 0.19833,3.05368 1.03353,3.77238 1.2245,1.0529 2.9592,1.02022 4.03076,-0.0517 0.7665,-0.7696 0.82683,-1.00541 0.82683,-4.80591 0,-3.97426 -0.0183,-4.00263 -0.98185,-4.96093 -0.60945,-0.6094 -1.30316,-0.9002 -1.96371,-0.93018 z" id="path70"/>
        <path  style="stroke-width:7.00985" gorn="0.2.25" d="m 591.9838,388.50342 c -3.2743,0 -3.8665,0.0442 -4.5992,0.62012 -0.913,0.7181 -1.21823,1.77425 -1.03353,2.73885 0.1849,0.9646 0.8423,1.85209 1.9637,2.22209 0.7307,0.2414 2.46198,0.33808 4.44418,0.25838 3.40566,-0.1367 4.31887,-0.49786 4.96093,-2.06706 0.1479,-0.3623 0.24439,-0.72405 0.25839,-0.77515 0.1,-0.44206 -1.0259,-2.40657 -1.5503,-2.68717 -0.3659,-0.1958 -2.37317,-0.31006 -4.44417,-0.31006 z" id="path69"/>
        <path  style="stroke-width:7.00985" gorn="0.2.26" d="m 574.62052,388.50342 c -3.9741,0 -4.00254,-0.0298 -4.96094,0.93018 -0.6093,0.6094 -0.95125,1.3033 -0.98185,1.9637 -0.028,0.6604 0.27132,1.30495 0.82682,1.86035 1.0121,1.0124 2.4417,1.26251 6.1495,1.08521 2.77256,-0.1325 3.05368,-0.19803 3.77238,-1.03353 1.05,-1.2245 1.0703,-2.95926 0,-4.03076 -0.7696,-0.7693 -1.00541,-0.77515 -4.80591,-0.77515 z" id="path68"/>
        <path  style="stroke-width:7.00985" gorn="0.2.27" d="m 556.6888,388.50342 c -3.4971,0 -3.78081,0.0163 -4.59921,0.77515 -0.5699,0.5281 -0.8616,1.2505 -0.8785,1.9637 -0.014,0.7131 0.28463,1.43646 0.82683,2.06706 0.7188,0.8355 0.99988,0.90103 3.77238,1.03353 3.70766,0.1773 5.13719,-0.0726 6.14949,-1.08521 1.2727,-1.2726 0.88993,-3.65739 -0.72347,-4.39249 -0.4417,-0.2012 -2.49906,-0.36174 -4.54752,-0.36174 z" id="path67"/>
        <path  style="stroke-width:7.00985" gorn="0.2.28" d="m 539.37719,388.50342 c -3.80056,0 -4.03631,0.006 -4.80591,0.77515 -0.5665,0.5657 -0.83212,1.35823 -0.82682,2.11873 0.01,0.7605 0.305,1.47648 0.8785,2.01538 0.7415,0.6965 1.21284,0.81488 4.08244,0.93018 3.78906,0.1522 5.40332,-0.27053 6.09782,-1.55029 0.7302,-1.3447 0.59131,-2.30207 -0.46509,-3.35897 -0.9584,-0.9584 -0.98654,-0.93018 -4.96094,-0.93018 z" id="path66"/>
        <path  style="stroke-width:7.00985" gorn="0.2.29" d="m 521.96223,388.50342 c -3.39916,0 -4.01793,0.0412 -4.75423,0.62012 -0.913,0.7181 -1.21823,1.77425 -1.03353,2.73885 0.1848,0.9646 0.84251,1.85199 1.96371,2.22209 0.7307,0.2413 2.46197,0.33798 4.44417,0.25838 3.4039,-0.1368 4.29984,-0.49296 4.96094,-2.06706 0.4115,-0.9795 0.0578,-2.21321 -0.8785,-3.04891 -0.7609,-0.6802 -1.13376,-0.72347 -4.70256,-0.72347 z" id="path65"/>
        <path  style="stroke-width:7.00985" gorn="0.2.30" d="m 504.44392,388.50342 c -3.97426,0 -4.00267,-0.0298 -4.96093,0.93018 -0.6093,0.6094 -0.89958,1.3033 -0.93018,1.9637 -0.031,0.6604 0.21955,1.30485 0.77515,1.86035 1.009,1.0089 2.49483,1.26001 6.14949,1.08521 2.531,-0.1209 3.05848,-0.25948 3.77238,-0.93018 1.1384,-1.0699 1.1272,-3.00661 0,-4.13411 -0.7695,-0.7693 -1.00541,-0.77515 -4.80591,-0.77515 z" id="path64"/>
        <path  style="stroke-width:7.00985" gorn="0.2.31" d="m 486.82226,388.50342 c -3.4935,0 -4.52827,0.20564 -5.32267,1.24024 -0.3317,0.4322 -0.47881,1.10613 -0.41341,1.75699 0.065,0.651 0.35034,1.31478 0.77514,1.80868 0.7187,0.8355 0.99988,0.90103 3.77238,1.03353 3.7078,0.1773 5.18897,-0.0726 6.20117,-1.08521 0.8672,-0.8672 1.04524,-2.62409 0.36174,-3.51399 -0.7943,-1.0347 -1.88095,-1.24024 -5.37435,-1.24024 z" id="path63"/>
        <path  style="stroke-width:7.00985" gorn="0.2.32" d="m 469.2006,388.50342 c -3.8005,0 -4.03651,0.006 -4.80591,0.77515 -0.5666,0.5657 -0.83213,1.35823 -0.82683,2.11873 0.01,0.7605 0.3049,1.47648 0.8785,2.01538 0.7414,0.6965 1.21288,0.81488 4.08244,0.93018 3.7893,0.1522 5.40322,-0.27053 6.09782,-1.55029 0.7302,-1.3447 0.59191,-2.30207 -0.46509,-3.35897 -0.9583,-0.9584 -0.98657,-0.93018 -4.96093,-0.93018 z" id="path62"/>
        <path  style="stroke-width:7.00985" gorn="0.2.33" d="m 451.78564,388.50342 c -3.3991,0 -4.01793,0.0412 -4.75423,0.62012 -0.9129,0.7181 -1.21823,1.77425 -1.03353,2.73885 0.1847,0.9646 0.89408,1.85199 2.01538,2.22209 0.7306,0.2413 2.4104,0.33798 4.3925,0.25838 3.40416,-0.1368 4.29993,-0.49296 4.96093,-2.06706 0.4115,-0.9795 0.0567,-2.21321 -0.8785,-3.04891 -0.761,-0.6802 -1.13369,-0.72347 -4.70255,-0.72347 z" id="path61"/>
        <path  style="stroke-width:7.00985" gorn="0.2.34" d="m 434.26733,388.50342 c -3.9744,0 -4.00254,-0.0298 -4.96094,0.93018 -0.51,0.5099 -0.7805,0.96204 -0.8785,1.44694 -0.098,0.485 -0.006,1.00592 0.25838,1.70532 0.5389,1.4173 2.2455,1.9015 6.1495,1.757 3.0058,-0.1113 3.48667,-0.22558 4.23747,-0.93018 1.15246,-1.0812 1.13326,-3.00101 0,-4.13411 -0.7695,-0.7693 -1.00545,-0.77515 -4.80591,-0.77515 z" id="path60"/>
        <path  style="stroke-width:7.00985" gorn="0.2.35" d="m 416.69734,388.50342 c -3.4934,0 -4.57995,0.20564 -5.37435,1.24024 -0.3317,0.4322 -0.42713,1.10613 -0.36173,1.75699 0.065,0.651 0.29857,1.31478 0.72347,1.80868 0.7187,0.8355 0.99988,0.90103 3.77238,1.03353 3.70776,0.1773 5.18887,-0.0726 6.20117,-1.08521 0.8671,-0.8672 1.04523,-2.62409 0.36173,-3.51399 -0.7943,-1.0347 -1.82917,-1.24024 -5.32267,-1.24024 z" id="path59"/>
        <path  style="stroke-width:7.00985" gorn="0.2.36" d="m 399.024,388.50342 0.10335,4.90926 c 0.1008,4.677 0.1186,4.92819 0.8785,5.73609 1.3205,1.4039 3.61051,1.10388 4.59921,-0.62012 0.22076,-0.3858 0.35573,-2.2077 0.36173,-4.3925 0.01,-3.69046 0.0218,-3.75015 -0.93018,-4.70255 -0.85546,-0.8554 -1.19783,-0.93018 -2.99723,-0.93018 z" id="path58"/>
        <path  style="stroke-width:7.00985" gorn="0.2.37" d="m 148.48846,379.06484 c -0.7185,-0.022 -1.4694,0.2137 -2.06705,0.77515 -0.8052,0.7565 -0.82683,0.92954 -0.82683,4.96094 0,4.03136 0.0216,4.20434 0.82683,4.96094 1.1953,1.12286 2.95298,1.08954 3.97908,-0.10336 0.7268,-0.845 0.77515,-1.21242 0.77515,-4.85758 0,-3.6452 -0.0477,-3.96091 -0.77515,-4.80591 -0.51305,-0.59645 -1.19353,-0.90815 -1.91203,-0.93018 z" id="path57"/>
        <path  style="stroke-width:7.00985" gorn="0.2.38" d="m 778.45356,373.98234 c -3.9644,0 -4.18814,0.0544 -4.96094,0.82683 -0.558,0.5583 -0.82682,1.147 -0.82682,1.9637 0,0.8166 0.26862,1.45708 0.82682,2.01538 0.7721,0.7721 0.98969,0.78495 4.85759,0.77515 4.16956,-0.01 4.67142,-0.13124 5.42602,-1.44694 0.6287,-1.096 0.45929,-2.43439 -0.41341,-3.30729 -0.7729,-0.7728 -0.94486,-0.82683 -4.90926,-0.82683 z" id="path56"/>
        <path  style="stroke-width:7.00985" gorn="0.2.39" d="m 760.78022,373.98234 c -4.0099,-0.01 -4.15306,0.0225 -4.90926,0.82683 -0.5468,0.582 -0.80435,1.33495 -0.77515,2.06705 0.028,0.732 0.33988,1.45601 0.93018,1.96371 0.8033,0.6908 1.15981,0.72347 4.80591,0.72347 3.93746,0 4.00357,0.0234 4.96093,-0.93018 1.0276,-1.0277 1.18594,-1.94058 0.56844,-3.10058 -0.73346,-1.3772 -1.26865,-1.5391 -5.58105,-1.5503 z" id="path55"/>
        <path  style="stroke-width:7.00985" gorn="0.2.40" d="m 743.46862,373.98234 c -2.2183,0 -4.25453,0.0942 -4.54753,0.20671 -0.6512,0.2499 -1.49862,1.83593 -1.49862,2.79053 0,0.3853 0.45219,1.12404 0.98185,1.65364 0.9539,0.9538 0.95484,0.93018 4.75424,0.93018 2.11346,0 4.12985,-0.11426 4.49585,-0.31006 0.3652,-0.1954 0.90338,-0.84036 1.13688,-1.39526 0.504,-1.1996 0.29258,-2.14347 -0.62012,-3.15227 -0.6259,-0.6914 -0.93829,-0.72347 -4.70255,-0.72347 z" id="path54"/>
        <path  style="stroke-width:7.00985" gorn="0.2.41" d="m 722.95307,373.98234 v 3.41065 c 0,2.9568 0.0901,3.45834 0.67179,4.08244 1.5041,1.6145 3.73916,1.297 4.70256,-0.6718 0.3323,-0.6785 0.82021,-1.24023 1.08521,-1.24023 0.265,0 0.84751,-0.33045 1.29191,-0.77515 0.558,-0.5582 0.77514,-1.19878 0.77514,-2.01538 0,-0.8167 -0.21684,-1.4055 -0.77514,-1.9637 -0.7563,-0.756 -1.04015,-0.82683 -4.28915,-0.82683 z" id="path53"/>
        <path  style="stroke-width:7.00985" gorn="0.2.42" d="m 149.00523,361.54653 c -1.0016,-0.2513 -2.66939,0.43454 -3.10059,1.24024 -0.1743,0.3256 -0.31006,2.35326 -0.31006,4.54752 0,3.7965 0.006,4.03641 0.77515,4.80591 0.5583,0.5582 1.19868,0.82683 2.01538,0.82683 0.8167,0 1.40551,-0.26863 1.96371,-0.82683 0.77136,-0.7713 0.82682,-0.97502 0.82682,-4.85758 0,-3.6336 -0.0757,-4.16591 -0.6718,-4.80591 -0.3673,-0.3944 -1.04721,-0.81668 -1.49861,-0.93018 z" id="path52"/>
        <path  style="stroke-width:7.00985" gorn="0.2.43" d="m 783.98294,359.30624 c -0.90916,0.0755 -1.74909,0.58391 -2.22209,1.49861 -0.3477,0.6709 -0.56214,2.47865 -0.56844,4.28915 -0.01,1.8104 0.17407,3.57427 0.51677,4.23747 0.97526,1.88936 3.95093,1.96245 4.96093,0.10335 0.3281,-0.6034 0.45809,-2.01063 0.46509,-4.54753 0.014,-3.18216 -0.0437,-3.76345 -0.62012,-4.49585 -0.64655,-0.82195 -1.62298,-1.16074 -2.53214,-1.0852 z" id="path51"/>
        <path  style="stroke-width:7.00985" gorn="0.2.44" d="m 148.38511,343.97655 c -0.8167,0 -1.45708,0.21714 -2.01538,0.77514 -0.7728,0.7728 -0.77515,0.99654 -0.77515,4.96094 0,3.9644 0.002,4.18814 0.77515,4.96094 0.5583,0.5583 1.19868,0.82682 2.01538,0.82682 0.8167,0 1.40551,-0.26882 1.96371,-0.82682 0.77276,-0.7728 0.82682,-0.99654 0.82682,-4.96094 0,-3.9644 -0.0541,-4.18814 -0.82682,-4.96094 -0.5582,-0.5583 -1.14701,-0.77514 -1.96371,-0.77514 z" id="path50"/>
        <path  style="stroke-width:7.00985" gorn="0.2.45" d="m 784.293,341.73625 c -0.65834,-0.0282 -1.32461,0.2254 -1.96371,0.77515 -0.9211,0.7923 -0.93017,0.80386 -0.93017,4.90926 0,3.90656 0.0201,4.15484 0.77514,4.96094 1.3199,1.40496 3.61021,1.10448 4.59921,-0.62012 0.2209,-0.3858 0.35613,-2.2077 0.36173,-4.3925 0.01,-3.6905 0.0225,-3.75019 -0.93017,-4.70255 -0.60355,-0.60335 -1.2537,-0.90193 -1.91203,-0.93018 z" id="path49"/>
        <path  style="stroke-width:7.00985" gorn="0.2.46" d="m 217.32147,329.19709 c -2.7725,0.1325 -3.05368,0.19803 -3.77238,1.03353 -0.4248,0.4939 -0.65807,1.15777 -0.72347,1.80867 -0.065,0.651 0.0305,1.3248 0.36174,1.757 0.8392,1.0928 1.86153,1.29191 6.51123,1.29191 h 4.5992 v -2.01538 c 0,-1.6601 -0.11935,-2.13433 -0.77515,-2.79053 -1.0123,-1.0122 -2.49347,-1.2626 -6.20117,-1.0852 z" id="path48"/>
        <path  style="stroke-width:7.00985" gorn="0.2.47" d="m 200.1649,329.19709 c -2.8088,0.1031 -3.22519,0.22137 -3.97909,0.93017 -0.5791,0.5446 -0.871,1.25418 -0.8785,2.01538 -0.01,0.7612 0.25856,1.55044 0.82682,2.11874 0.7695,0.7665 1.00545,0.82682 4.80591,0.82682 3.9744,0 4.00264,-0.0282 4.96094,-0.98185 1.0787,-1.0786 1.19419,-1.89753 0.46509,-3.30729 -0.6821,-1.3194 -2.33011,-1.74427 -6.20117,-1.60197 z" id="path47"/>
        <path  style="stroke-width:7.00985" gorn="0.2.48" d="m 166.98863,329.19709 c -3.6546,-0.1748 -5.1406,0.0766 -6.1495,1.0852 -0.5555,0.5555 -0.80565,1.19995 -0.77515,1.86035 0.031,0.6605 0.37246,1.35431 0.98186,1.96371 0.9583,0.9584 0.98657,0.98185 4.96093,0.98185 3.8005,0 4.03641,-0.058 4.80591,-0.82682 1.1273,-1.1275 1.08749,-3.06432 -0.0517,-4.13412 -0.7139,-0.671 -1.24132,-0.80897 -3.77238,-0.93017 z" id="path46"/>
        <path  style="stroke-width:7.00985" gorn="0.2.49" d="m 183.52508,329.14541 c -1.62136,0 -3.40298,0.16124 -3.97908,0.36174 -1.0475,0.3652 -1.65308,1.26048 -1.80868,2.22208 -0.1556,0.9616 0.15663,1.99748 1.03353,2.68718 0.7347,0.5783 1.30682,0.67179 4.65088,0.67179 4.0951,0 5.03993,-0.288 5.63273,-1.757 0.3794,-0.9406 0.4048,-0.95653 0,-2.11873 -0.5263,-1.5097 -2.01288,-2.06706 -5.52938,-2.06706 z" id="path45"/>
        <path  style="stroke-width:7.00985" gorn="0.2.50" d="m 145.59458,329.04206 v 3.61735 c 0,3.12276 0.0577,3.68564 0.62012,4.28914 0.8071,0.8663 1.81484,1.18818 2.8422,0.93018 0.9711,-0.2436 2.11874,-1.41251 2.11874,-2.17041 0,-0.3217 0.35932,-0.65815 0.82682,-0.77515 0.4479,-0.1125 1.13132,-0.53561 1.49862,-0.93017 0.9155,-0.9827 0.82727,-2.63042 -0.15503,-3.77238 -0.7516,-0.8737 -0.94935,-0.91013 -4.28915,-1.03353 z" id="path44"/>
        <path  style="stroke-width:7.00985" gorn="0.2.51" d="m 784.18964,324.26962 c -0.84906,-0.01 -1.43988,0.21412 -2.01538,0.82682 -0.7566,0.8061 -0.77514,1.05434 -0.77514,4.96094 0,4.10536 0.006,4.11696 0.93017,4.90926 1.2782,1.0998 2.66864,1.05197 3.87574,-0.15503 0.94886,-0.9491 0.93017,-1.03328 0.93017,-4.65088 0,-4.7586 -0.53256,-5.87011 -2.94556,-5.89111 z" id="path43"/>
        <path  style="stroke-width:7.00985" gorn="0.2.52" d="m 221.66229,311.67878 c -0.9546,0 -2.48895,0.84741 -2.73885,1.49861 -0.1125,0.2933 -0.2067,2.32933 -0.2067,4.54753 0,3.7594 0.0329,4.11423 0.72347,4.75423 1.21996,1.1301 2.91507,1.11612 4.08243,-0.0517 0.7693,-0.7695 0.77515,-1.00534 0.77515,-4.8059 0,-3.9742 0.0233,-4.00264 -0.93018,-4.96094 -0.52956,-0.5297 -1.32012,-0.98185 -1.70532,-0.98185 z" id="path42"/>
        <path  style="stroke-width:7.00985" gorn="0.2.53" d="m 783.15612,306.85466 c -0.62244,0.22945 -1.13639,0.69126 -1.44694,1.29191 -0.3322,0.6432 -0.51537,2.42987 -0.51677,4.23747 0,1.80756 0.18457,3.59586 0.51677,4.23746 0.95506,1.847 3.5161,2.10469 4.8059,0.46509 0.5607,-0.7134 0.62012,-1.35697 0.62012,-4.44417 0,-4.0977 -0.39284,-5.24026 -1.9637,-5.78776 -0.6773,-0.23615 -1.39298,-0.22945 -2.01538,0 z" id="path41"/>
        <path  style="stroke-width:7.00985" gorn="0.2.54" d="m 519.78002,300.86019 c -3.548,-0.01 -4.08609,0.065 -4.85759,0.6718 -0.7004,0.55076 -0.8785,0.96143 -0.8785,2.11873 0,1.1574 0.1782,1.56773 0.8785,2.11873 0.7715,0.6091 1.30959,0.6788 4.85759,0.6718 4.10756,-0.011 4.62135,-0.13408 5.37435,-1.44694 0.4871,-0.8512 0.53037,-1.68593 0.0517,-2.58383 -0.7295,-1.36986 -1.27346,-1.53629 -5.42602,-1.55029 z" id="path40"/>
        <path  style="stroke-width:7.00985" gorn="0.2.55" d="m 502.055,300.86019 c -3.897,0 -4.05191,0.0243 -4.80591,0.82682 -0.5109,0.5437 -0.77514,1.22251 -0.77514,1.96371 0,0.7412 0.26414,1.4197 0.77514,1.9637 0.7529,0.8045 0.91587,0.82683 4.75423,0.82683 4.2558,0 5.1737,-0.273 5.78776,-1.757 0.4248,-1.0271 0.0696,-2.25329 -0.87849,-3.10059 -0.7648,-0.6851 -1.13149,-0.72347 -4.85759,-0.72347 z" id="path39"/>
        <path  style="stroke-width:7.00985" gorn="0.2.56" d="m 484.64004,300.86019 c -3.63366,0 -4.16591,0.0753 -4.80591,0.6718 -0.66926,0.62316 -0.98555,1.36073 -0.98185,2.11873 0,0.758 0.35813,1.54121 1.03353,2.17041 0.6135,0.5713 1.16237,0.62012 4.75423,0.62012 3.8825,0 4.08639,-0.003 4.85759,-0.77515 0.5583,-0.5583 0.82682,-1.19868 0.82682,-2.01538 0,-0.8166 -0.26882,-1.40571 -0.82682,-1.96371 -0.7712,-0.77346 -0.97509,-0.82682 -4.85759,-0.82682 z" id="path38"/>
        <path  style="stroke-width:7.00985" gorn="0.2.57" d="m 467.12173,300.86019 c -3.96426,0 -4.18804,0.0541 -4.96094,0.82682 -0.55826,0.5583 -0.82682,1.14701 -0.82682,1.96371 0,0.8167 0.26896,1.45738 0.82682,2.01538 0.7729,0.7735 0.99668,0.77515 4.96094,0.77515 3.9644,0 4.18814,-0.002 4.96094,-0.77515 0.5584,-0.5582 0.77515,-1.19868 0.77515,-2.01538 0,-0.8167 -0.21715,-1.40571 -0.77515,-1.96371 -0.7728,-0.77336 -0.99654,-0.82682 -4.96094,-0.82682 z" id="path37"/>
        <path  style="stroke-width:7.00985" gorn="0.2.58" d="m 449.55174,300.86019 c -3.86776,-0.01 -4.08548,0.0554 -4.85758,0.82682 -0.5583,0.5583 -0.82682,1.14701 -0.82682,1.96371 0,0.8167 0.26882,1.45738 0.82682,2.01538 0.7721,0.7701 0.98982,0.78225 4.85758,0.77515 4.1699,-0.011 4.72321,-0.13128 5.47771,-1.44694 0.4872,-0.8512 0.4776,-1.68593 0,-2.58383 -0.7311,-1.37276 -1.26251,-1.53629 -5.47771,-1.55029 z" id="path36"/>
        <path  style="stroke-width:7.00985" gorn="0.2.59" d="m 432.03343,300.86019 c -4.03136,0 -4.20433,0.0223 -4.96093,0.82682 -0.5108,0.5437 -0.77515,1.22251 -0.77515,1.96371 0,0.7412 0.26415,1.4197 0.77515,1.9637 0.753,0.8045 0.91593,0.82683 4.75423,0.82683 4.25556,0 5.17376,-0.273 5.78776,-1.757 0.3926,-0.949 0.11833,-2.19919 -0.72347,-3.10059 -0.6469,-0.6921 -0.96039,-0.72347 -4.85759,-0.72347 z" id="path35"/>
        <path  style="stroke-width:7.00985" gorn="0.2.60" d="m 414.46345,300.86019 c -3.6336,0 -4.11427,0.0753 -4.75423,0.6718 -0.6693,0.62316 -1.03723,1.36073 -1.03353,2.11873 0,0.758 0.35813,1.54121 1.03353,2.17041 0.61346,0.5713 1.16243,0.62012 4.75423,0.62012 3.88246,0 4.13796,-0.003 4.90926,-0.77515 0.5582,-0.5583 0.77514,-1.19868 0.77514,-2.01538 0,-0.8166 -0.21724,-1.40571 -0.77514,-1.96371 -0.7712,-0.77346 -1.0267,-0.82682 -4.90926,-0.82682 z" id="path34"/>
        <path  style="stroke-width:7.00985" gorn="0.2.61" d="m 396.94514,300.86019 c -3.9644,0 -4.18804,0.0541 -4.96094,0.82682 -0.5583,0.5583 -0.82682,1.14701 -0.82682,1.96371 0,0.8167 0.26892,1.45738 0.82682,2.01538 0.7729,0.7735 0.99654,0.77515 4.96094,0.77515 3.96426,0 4.18813,-0.002 4.96093,-0.77515 0.5584,-0.5582 0.82683,-1.19868 0.82683,-2.01538 0,-0.8167 -0.26883,-1.40571 -0.82683,-1.96371 -0.7728,-0.77336 -0.99667,-0.82682 -4.96093,-0.82682 z" id="path33"/>
        <path  style="stroke-width:7.00985" gorn="0.2.62" d="m 379.37515,300.86019 c -3.8679,-0.01 -4.08549,0.054 -4.85759,0.82682 -0.55826,0.5583 -0.77514,1.14701 -0.77514,1.96371 0,0.8167 0.21718,1.45738 0.77514,2.01538 0.7721,0.77 0.98969,0.78225 4.85759,0.77515 4.1698,-0.011 4.7232,-0.13128 5.4777,-1.44694 0.4872,-0.8511 0.4776,-1.68593 0,-2.58383 -0.7312,-1.37276 -1.2626,-1.53629 -5.4777,-1.55029 z" id="path32"/>
        <path  style="stroke-width:7.00985" gorn="0.2.63" d="m 361.85684,300.86019 c -4.0314,0 -4.20434,0.0223 -4.96094,0.82682 -0.5109,0.5437 -0.77515,1.22251 -0.77515,1.96371 0,0.7412 0.26415,1.4197 0.77515,1.9637 0.7566,0.8045 0.92954,0.82683 4.96094,0.82683 3.90236,0 4.22598,-0.0289 4.85758,-0.72347 0.3711,-0.4077 0.72383,-0.96834 0.82683,-1.24024 0.2934,-0.7734 -0.0688,-2.08208 -0.82683,-2.89388 -0.647,-0.6921 -0.96032,-0.72347 -4.85758,-0.72347 z" id="path31"/>
        <path  style="stroke-width:7.00985" gorn="0.2.64" d="m 536.67821,297.91463 c -0.87657,0.19444 -1.65246,0.81653 -2.06706,1.80868 -0.2586,0.6196 -0.70415,1.13688 -0.98185,1.13688 -0.9557,0 -2.11873,1.52943 -2.11873,2.79053 0,0.8167 0.26852,1.45738 0.82682,2.01538 0.7562,0.7594 0.98847,0.77515 4.23747,0.77515 h 3.514 v -3.46232 c 0,-3.249 -0.068,-3.53285 -0.82683,-4.28915 -0.7376,-0.7375 -1.70725,-0.96955 -2.58382,-0.77515 z" id="path30"/>
        <path  style="stroke-width:7.00985" gorn="0.2.65" d="m 221.92067,294.31549 c -0.85231,-0.13942 -1.73051,0.077 -2.37711,0.72347 -0.7756,0.7754 -0.82682,0.9664 -0.82682,5.0643 0,4.22426 0.0201,4.28593 0.8785,4.96093 1.20496,0.9482 2.9083,0.91585 3.9274,-0.10335 0.7644,-0.7647 0.77515,-1.01704 0.77515,-4.5992 0,-2.0833 -0.16053,-4.15761 -0.36173,-4.59921 -0.3706,-0.81331 -1.16304,-1.30751 -2.01539,-1.44694 z" id="path29"/>
        <path  style="stroke-width:7.00985" gorn="0.2.66" d="m 347.6975,294.96908 c -0.55998,-0.0729 -1.1846,0.0568 -1.757,0.36173 -1.3728,0.7311 -1.5363,1.26251 -1.5503,5.47771 -0.01,3.86776 0.0539,4.08548 0.82683,4.85758 0.5582,0.5583 1.147,0.77515 1.9637,0.77515 0.8166,0 1.45738,-0.21725 2.01538,-0.77515 0.7735,-0.7728 0.82683,-0.99654 0.82683,-4.96094 0,-3.96426 -0.054,-4.18814 -0.82683,-4.96094 -0.437,-0.43701 -0.93864,-0.70222 -1.49861,-0.77514 z" id="path28"/>
        <path  style="stroke-width:7.00985" gorn="0.2.67" d="m 11.317139,294.60734 h 0.775146 c 3.082688,0 11.807361,2.19747 16.794841,4.23747 17.224632,7.04556 29.598482,21.66899 33.17627,39.22241 0.615496,3.0195 1.105346,11.75022 0.775146,14.00432 -1.365292,9.31966 -3.518475,15.65735 -7.544759,22.11751 -8.550364,13.71826 -24.183046,23.63847 -40.824382,25.94157 l -3.152262,0.41341 v -52.96834 z" id="path27"/>
        <path  style="stroke-width:7.00985" gorn="0.2.68" d="m 783.98294,289.12964 c -0.90916,0.0755 -1.74909,0.58392 -2.22209,1.49862 -0.3477,0.6709 -0.56214,2.47874 -0.56844,4.28914 -0.01,1.8104 0.17407,3.62595 0.51677,4.28915 0.97526,1.88926 3.95093,1.91077 4.96093,0.0517 0.3281,-0.6034 0.45809,-2.01066 0.46509,-4.54752 0.014,-3.1822 -0.0437,-3.76345 -0.62012,-4.49585 -0.64655,-0.8219 -1.62298,-1.16073 -2.53214,-1.08521 z" id="path26"/>
        <path  style="stroke-width:7.00985" gorn="0.2.69" d="m 537.24665,280.448 c -0.8167,0 -1.4057,0.21725 -1.9637,0.77515 -0.7665,0.7695 -0.82683,1.00931 -0.82683,4.80591 0,2.19426 0.13546,4.2739 0.31006,4.5992 0.4311,0.8053 2.1508,1.43956 3.15226,1.18856 0.4513,-0.1133 1.13132,-0.53548 1.49862,-0.93018 0.5965,-0.6401 0.6718,-1.12057 0.6718,-4.75423 0,-3.8825 -0.054,-4.13806 -0.82683,-4.90926 -0.558,-0.5583 -1.19878,-0.77515 -2.01538,-0.77515 z" id="path25"/>
        <path  style="stroke-width:7.00985" gorn="0.2.70" d="m 221.61062,276.79718 c -0.70277,-0.0219 -1.41297,0.1979 -2.01538,0.6718 -0.8582,0.6749 -0.8785,0.68506 -0.8785,4.90926 0,4.09796 0.051,4.34067 0.82682,5.11597 1.2533,1.25346 3.6475,0.91838 4.3925,-0.62012 0.1873,-0.387 0.34983,-2.46224 0.36173,-4.5992 0.021,-3.7008 -0.005,-3.93246 -0.77515,-4.70256 -0.5096,-0.5094 -1.20926,-0.75322 -1.91202,-0.77515 z" id="path24"/>
        <path  style="stroke-width:7.00985" gorn="0.2.71" d="m 347.18073,277.45077 c -0.8167,0 -1.4057,0.26892 -1.9637,0.82682 -0.7701,0.7721 -0.83383,0.98979 -0.82683,4.85759 0.011,4.21516 0.1775,4.7466 1.5503,5.4777 1.1448,0.6096 2.38161,0.46045 3.25561,-0.41341 0.7735,-0.7729 0.82683,-0.99658 0.82683,-4.96094 0,-3.9644 -0.054,-4.18804 -0.82683,-4.96094 -0.5582,-0.5582 -1.19878,-0.82682 -2.01538,-0.82682 z" id="path23"/>
        <path  style="stroke-width:7.00985" gorn="0.2.72" d="m 784.293,271.55965 c -0.65834,-0.0282 -1.32461,0.2254 -1.96371,0.77515 -0.9211,0.7923 -0.93017,0.8039 -0.93017,4.90926 0,3.9065 0.0201,4.15484 0.77514,4.96094 1.3199,1.4051 3.61021,1.10458 4.59921,-0.62012 0.2209,-0.3858 0.35613,-2.20763 0.36173,-4.39249 0.01,-3.6904 0.0225,-3.75016 -0.93017,-4.70256 -0.60355,-0.60335 -1.2537,-0.90193 -1.91203,-0.93018 z" id="path22"/>
        <path  style="stroke-width:7.00985" gorn="0.2.73" d="m 347.12906,259.93246 c -0.74415,0.0234 -1.46821,0.3024 -1.96371,0.8785 -0.6965,0.8062 -0.77515,1.20828 -0.77515,4.85758 0,3.9375 0.0284,3.95186 0.98186,4.90926 0.5296,0.5297 1.26814,0.98185 1.65364,0.98185 0.8767,0 2.51455,-0.83796 2.73885,-1.39526 0.092,-0.2302 0.19261,-2.3208 0.20671,-4.5992 0.025,-3.973 -0.0136,-4.13909 -0.77515,-4.85759 -0.5778,-0.5429 -1.32294,-0.79854 -2.06705,-0.77514 z" id="path21"/>
        <path  style="stroke-width:7.00985" gorn="0.2.74" d="m 220.78379,259.17552 c -0.3272,0.1158 -0.93598,0.5112 -1.34358,0.8785 -0.6921,0.6228 -0.72347,0.93726 -0.72347,4.70256 0,2.21826 0.0942,4.3062 0.2067,4.5992 0.25,0.6511 1.78425,1.49861 2.73885,1.49861 0.3853,0 1.17576,-0.45265 1.70532,-0.98185 0.9538,-0.954 0.93018,-1.00621 0.93018,-4.80591 0,-2.11726 -0.16523,-4.12855 -0.36173,-4.49585 -0.4412,-0.8246 -2.35197,-1.67846 -3.15227,-1.39526 z" id="path20"/>
        <path  style="stroke-width:7.00985" gorn="0.2.75" d="m 513.57885,247.16838 1.29191,1.0852 c 1.27836,1.0733 1.25598,1.13189 0.46508,1.34359 -1.0986,0.2931 -3.01699,0.26372 -3.51399,-0.0517 -0.1487,-0.094 -0.15728,-0.25738 -0.0517,-0.46508 0.1051,-0.2077 0.33617,-0.45143 0.72347,-0.82683 z" id="path19"/>
        <path  style="stroke-width:7.00985" gorn="0.2.76" d="m 760.57351,247.1167 1.13689,1.13688 c 1.27636,1.2763 1.05476,1.5503 -1.24024,1.5503 -1.0879,0 -1.65747,-0.0391 -1.80867,-0.25839 -0.1514,-0.2192 0.13104,-0.64811 0.77514,-1.29191 z" id="path18"/>
        <path  style="stroke-width:7.00985" gorn="0.2.77" d="m 347.0257,242.20744 c -0.3853,0 -1.12364,0.45265 -1.65364,0.98185 -0.9573,0.9575 -0.98186,0.9718 -0.98186,4.90926 0,3.6493 0.0817,4.05129 0.77515,4.85759 0.9911,1.152 2.87516,1.18885 4.03076,0.10335 0.7624,-0.7135 0.82683,-0.91313 0.82683,-4.75423 0,-2.2182 -0.0948,-4.3061 -0.20671,-4.5992 -0.2499,-0.6511 -1.83593,-1.49862 -2.79053,-1.49862 z" id="path17"/>
        <path  style="stroke-width:7.00985" gorn="0.2.78" d="m 221.66229,241.50218 c -0.9546,0 -2.48895,0.84742 -2.73885,1.49862 -0.1125,0.2933 -0.2067,2.381 -0.2067,4.5992 0,3.7596 0.0329,4.06259 0.72347,4.70255 1.21996,1.1301 2.91507,1.11613 4.08243,-0.0517 0.7693,-0.7696 0.77515,-1.00541 0.77515,-4.80591 0,-3.9743 0.0233,-4.00254 -0.93018,-4.96094 -0.52956,-0.5296 -1.32012,-0.98185 -1.70532,-0.98185 z" id="path16"/>
        <path  style="stroke-width:7.00985" gorn="0.2.79" d="m 577.45092,238.74512 1.18855,0.20671 -0.8785,0.72347 c -1.10766,0.87136 -2.11873,3.03262 -2.11873,4.54752 0,0.6341 0.28442,1.74147 0.62012,2.48047 0.3358,0.739 1.00795,1.62908 1.49861,2.01538 l 0.93018,0.72347 -0.8785,0.20671 c -1.5412,0.3868 -3.75551,-0.0224 -5.01261,-0.98186 -1.3921,-1.06186 -2.11874,-2.57147 -2.11874,-4.44417 0,-3.6794 3.07322,-6.1709 6.76962,-5.4777 z" id="path15"/>
        <path  style="stroke-width:7.00985" gorn="0.2.80" d="m 823.3087,238.59009 c 1.8959,0.01 2.20786,0.39139 1.18856,1.34359 -0.4718,0.4411 -1.03751,1.21602 -1.29191,1.70532 -0.5545,1.0655 -0.61855,3.95584 -0.10335,4.96094 0.2033,0.3957 0.80939,1.192 1.34359,1.757 1.09276,1.15556 0.82936,1.44694 -1.24024,1.44694 -2.7016,0 -4.97498,-2.03348 -5.52938,-4.44418 -0.1851,-0.8035 -0.14394,-1.65427 0.10336,-2.48047 0.77866,-2.59906 2.95091,-4.29614 5.52937,-4.28914 z" id="path14"/>
        <path  style="stroke-width:7.00985" gorn="0.2.81" d="m 760.36681,238.59009 c 1.70835,-0.006 3.5669,0.81711 4.5992,2.17041 0.4514,0.5918 0.92133,1.63284 1.03353,2.32544 l 0.20671,1.29191 -1.13689,-0.98185 c -0.97426,-0.8203 -1.30663,-0.88127 -2.63549,-0.72347 -1.4912,0.1765 -1.50823,0.13571 -1.91203,-0.98185 -0.2264,-0.6262 -0.85697,-1.46216 -1.39527,-1.86036 -0.4326,-0.3197 -0.66957,-0.48661 -0.72347,-0.62011 -0.056,-0.1335 0.0472,-0.20706 0.31006,-0.31006 0.49888,-0.19695 1.0842,-0.30808 1.65365,-0.31006 z" id="path13"/>
        <path  style="stroke-width:7.00985" gorn="0.2.82" d="m 513.42382,238.59009 c 2.40616,-0.01 4.21349,1.17322 5.27099,3.46232 1.0367,2.2478 0.75379,2.59987 -0.93017,1.08521 -0.5739,-0.5159 -1.05899,-0.64787 -2.22209,-0.51677 -1.3658,0.154 -1.46108,0.11663 -1.80868,-0.72347 -0.2066,-0.4987 -0.81298,-1.35145 -1.34358,-1.86035 -0.5589,-0.5355 -0.78892,-0.85654 -0.62012,-1.0852 0.1688,-0.2286 0.69625,-0.35824 1.65365,-0.36174 z" id="path12"/>
        <path  style="stroke-width:7.00985" gorn="0.2.83" d="m 221.92067,224.1389 c -0.85231,-0.14034 -1.73051,0.0769 -2.37711,0.72347 -0.7756,0.7753 -0.82682,0.96629 -0.82682,5.06429 0,4.2242 0.0201,4.28594 0.8785,4.96094 1.20496,0.9482 2.9083,0.91574 3.9274,-0.10336 0.7644,-0.7647 0.77515,-1.0169 0.77515,-4.5992 0,-2.0832 -0.16053,-4.1576 -0.36173,-4.5992 -0.3706,-0.81335 -1.16304,-1.3066 -2.01539,-1.44694 z" id="path11"/>
        <path  style="stroke-width:7.00985" gorn="0.2.84" d="m 347.6975,224.79248 c -0.55998,-0.0738 -1.18465,0.0568 -1.757,0.36174 -1.3728,0.7311 -1.5363,1.2626 -1.5503,5.4777 -0.01,3.8678 0.0543,4.08548 0.82683,4.85758 0.5582,0.5583 1.147,0.82683 1.9637,0.82683 0.8167,0 1.45738,-0.26883 2.01538,-0.82683 0.7734,-0.7728 0.82683,-0.99667 0.82683,-4.96093 0,-3.9644 -0.054,-4.18804 -0.82683,-4.96094 -0.43705,-0.43705 -0.93864,-0.70132 -1.49861,-0.77515 z" id="path10"/>
        <path  style="stroke-width:7.00985" gorn="0.2.85" d="m 347.18073,207.32585 c -0.8167,0 -1.4057,0.21728 -1.9637,0.77514 -0.7701,0.7722 -0.83383,0.98979 -0.82683,4.85759 0.011,4.2151 0.1775,4.7467 1.5503,5.4777 1.1447,0.6096 2.38151,0.46069 3.25561,-0.41341 0.7734,-0.7728 0.82683,-0.99654 0.82683,-4.96094 0,-3.96426 -0.054,-4.18804 -0.82683,-4.96094 -0.5583,-0.55816 -1.19868,-0.77514 -2.01538,-0.77514 z" id="path9"/>
        <path  style="stroke-width:7.00985" gorn="0.2.86" d="m 221.61062,206.62059 c -0.70277,-0.0228 -1.41297,0.19789 -2.01538,0.67179 -0.8582,0.6749 -0.8785,0.73664 -0.8785,4.96094 0,4.0979 0.051,4.28889 0.82682,5.06429 1.2533,1.2534 3.6475,0.91838 4.3925,-0.62012 0.1873,-0.387 0.34983,-2.4622 0.36173,-4.5992 0.021,-3.7008 -0.005,-3.93246 -0.77515,-4.70256 -0.5096,-0.50931 -1.20926,-0.7523 -1.91202,-0.77514 z" id="path8"/>
        <path  style="stroke-width:7.00985" gorn="0.2.87" d="m 935.29176,197.81738 v 147.32951 141.69678 h 11.21378 V 345.14689 197.81738 Z" id="path7"/>
        <path  style="stroke-width:7.00985" gorn="0.2.88" d="m 851.73074,197.81738 v 0.25839 40.20426 h -11.11043 -11.11043 l -1.44694,-0.98185 c -2.867,-1.9432 -5.93984,-2.12609 -8.9917,-0.46509 -2.8384,1.5448 -4.23747,3.99411 -4.23747,7.44141 0,6.82516 7.55294,10.82924 13.07414,6.92464 l 1.29191,-0.8785 17.1049,-0.20671 17.15657,-0.15502 0.0517,-46.04371 v -6.09782 z" id="path6"/>
        <path  style="stroke-width:7.00985" gorn="0.2.89" d="m 720.31757,197.81738 v 6.20118 46.09537 h 17.00155 16.94987 l 1.13688,0.8785 c 0.6141,0.4681 1.83498,1.03535 2.68718,1.29191 2.41836,0.7281 3.80433,0.62709 6.71793,-0.62011 0.3813,-0.1632 5.21447,3.98976 17.77669,15.29622 9.4935,8.54436 17.55803,15.67069 17.93173,15.81299 1.0474,0.3982 2.43286,-0.0173 3.15226,-0.93018 0.7275,-0.92476 0.81847,-2.61664 0.20671,-3.41064 -0.2208,-0.2865 -8.16348,-7.51371 -17.67334,-16.07137 l -17.31161,-15.55461 0.10335,-2.11873 c 0.368,-7.15256 -7.66231,-11.57213 -13.43587,-7.38973 l -1.29191,0.98185 H 743.0552 731.84142 v -40.20426 -0.25839 z" id="path5"/>
        <path  style="stroke-width:7.00985" gorn="0.2.90" d="m 604.99445,197.81738 v 0.25839 40.20426 h -11.21378 -11.21379 l -1.34358,-0.98185 c -5.5627,-4.0298 -13.48755,0.0535 -13.48755,6.92464 0,6.87216 7.92485,10.90273 13.48755,6.87297 l 1.34358,-0.98186 h 16.94987 17.00155 v -46.09537 -6.20118 z" id="path4"/>
        <path  style="stroke-width:7.00985" gorn="0.2.91" d="m 473.27123,197.81738 v 6.09782 l 0.10335,46.04371 17.1049,0.15502 17.15658,0.15503 1.29191,0.93018 c 2.40566,1.7009 5.52621,1.98167 8.16487,0.72347 l 1.18856,-0.56844 16.89819,15.24455 c 9.30226,8.37956 17.25134,15.47951 17.67334,15.76131 2.6505,1.7698 5.78206,-1.57524 3.82406,-4.08244 -0.3449,-0.4417 -8.29758,-7.69485 -17.67334,-16.12305 l -17.05322,-15.3479 v -2.27376 c 0,-3.685 -1.33077,-6.11769 -4.23747,-7.69979 -3.052,-1.6607 -6.07296,-1.47771 -8.94002,0.46509 l -1.49862,0.98185 h -11.11043 -11.11044 v -40.20426 -0.25839 z" id="path3"/>
        <path  style="stroke-width:7.00985" gorn="0.2.92" d="m 344.49356,197.81738 c 0.0713,1.28194 0.23587,1.93857 0.8785,2.58383 0.5296,0.5296 1.26814,0.98185 1.65364,0.98185 0.8767,0 2.51445,-0.83797 2.73885,-1.39527 0.0439,-0.10992 0.0694,-1.40388 0.10336,-2.17041 z" id="path2"/>
        <path  style="stroke-width:7.00985" gorn="0.2.93" d="m 236.72974,197.81738 c 0.0364,0.71174 0.0522,1.93381 0.10335,2.06706 0.25,0.6511 1.78425,1.49862 2.73885,1.49862 0.3853,0 1.17576,-0.45265 1.70532,-0.98185 0.6435,-0.64349 0.80749,-1.30427 0.8785,-2.58383 z" id="path1"/>
        <path  style="stroke-width:7.00985" gorn="0.2.94" d="m 0,197.81738 v 147.17449 141.8518 H 11.058757 V 471.6508 l -0.103353,-60.66813 4.289144,-0.51676 c 18.596324,-2.4191 35.68048,-12.17438 46.405436,-26.45834 16.147636,-21.50622 16.626898,-49.67472 1.188558,-71.4685 -2.730488,-3.8547 -8.225595,-9.71791 -11.885579,-12.71241 -9.633964,-7.88216 -21.939235,-13.21982 -34.674887,-15.08952 -2.459188,-0.361 -4.682761,-0.67079 -4.909261,-0.67179 -0.327996,0 -0.413411,-12.85222 -0.413411,-63.09692 v -23.15105 z" id="path203"/>
        <rect  style="font-variation-settings:normal;opacity:1;vector-effect:none;fill:#000000;fill-opacity:1;stroke:none;stroke-width:10.2882;stroke-linecap:square;stroke-linejoin:round;stroke-miterlimit:4;stroke-dasharray:10.2882, 41.1531;stroke-dashoffset:0;stroke-opacity:1;-inkscape-stroke:none" width="66.667999" gorn="0.2.95" id="rect93" height="195.80893" x="122.47021" y="494.25485"/>
        <rect  style="font-variation-settings:normal;clip-rule:evenodd;display:inline;vector-effect:none;fill:#000000;fill-opacity:1;fill-rule:evenodd;stroke:none;stroke-width:10.2882;stroke-linecap:square;stroke-linejoin:round;stroke-miterlimit:4;stroke-dasharray:10.2882, 41.1531;stroke-dashoffset:0;stroke-opacity:1;-inkscape-stroke:none;image-rendering:optimizeQuality;shape-rendering:geometricPrecision;text-rendering:geometricPrecision" width="66.667999" gorn="0.2.96" id="rect93-8" height="195.80893" x="376.67157" y="492.96271"/>
        <rect  style="font-variation-settings:normal;clip-rule:evenodd;display:inline;vector-effect:none;fill:#000000;fill-opacity:1;fill-rule:evenodd;stroke:none;stroke-width:10.2882;stroke-linecap:square;stroke-linejoin:round;stroke-miterlimit:4;stroke-dasharray:10.2882, 41.1531;stroke-dashoffset:0;stroke-opacity:1;-inkscape-stroke:none;image-rendering:optimizeQuality;shape-rendering:geometricPrecision;text-rendering:geometricPrecision" width="66.667999" gorn="0.2.97" id="rect93-8-2" height="195.80893" x="503.51987" y="0.37824917"/>
        <rect  style="font-variation-settings:normal;clip-rule:evenodd;display:inline;vector-effect:none;fill:#000000;fill-opacity:1;fill-rule:evenodd;stroke:none;stroke-width:10.2882;stroke-linecap:square;stroke-linejoin:round;stroke-miterlimit:4;stroke-dasharray:10.2882, 41.1531;stroke-dashoffset:0;stroke-opacity:1;-inkscape-stroke:none;image-rendering:optimizeQuality;shape-rendering:geometricPrecision;text-rendering:geometricPrecision" width="66.667999" gorn="0.2.98" id="rect93-8-2-2" height="195.80893" x="757.82349" y="-0.65406793"/>
    </g>
    <g  style="clip-rule:evenodd;fill-rule:evenodd;image-rendering:optimizeQuality;shape-rendering:geometricPrecision;text-rendering:geometricPrecision" gorn="0.3" id="copper1">
        <rect  style="fill:#f7bd13" width="60.080002" gorn="0.3.0" height="195" id="connector13pin" x="62.230011" y="0.0099999998"/>
        <rect  style="fill:#f7bd13" width="60.080002" gorn="0.3.1" height="195" id="connector12pin" x="189.29007" y="0.0099999998"/>
        <rect  style="fill:#f7bd13" width="60.080002" gorn="0.3.2" height="195" id="connector11pin" x="316.20999" y="0.0099999998"/>
        <rect  style="fill:#f7bd13" width="60.080002" gorn="0.3.3" height="195" id="connector10pin" x="443.27005" y="0.0099999998"/>
        <rect  style="fill:#f7bd13" width="60.080002" gorn="0.3.4" height="195" id="connector9pin" x="570.32007" y="0.0099999998"/>
        <rect  style="fill:#f7bd13" width="60.080002" gorn="0.3.5" height="195" id="connector8pin" x="697.22998" y="0.0099999998"/>
        <rect  style="fill:#f7bd13" width="60.080002" gorn="0.3.6" height="195" id="connector7pin" x="824.19019" y="0.0099999998"/>
        <rect  style="fill:#f7bd13" width="60.080002" gorn="0.3.7" height="195" id="connector0pin" x="62.230011" y="495.00024"/>
        <rect  style="fill:#f7bd13" width="60.080002" gorn="0.3.8" height="195" id="connector1pin" x="189.29007" y="495.00024"/>
        <rect  style="fill:#f7bd13" width="60.080002" gorn="0.3.9" height="195" id="connector2pin" x="316.20999" y="495.00024"/>
        <rect  style="fill:#f7bd13" width="60.080002" gorn="0.3.10" height="195" id="connector3pin" x="443.27005" y="495.00024"/>
        <rect  style="fill:#f7bd13" width="60.080002" gorn="0.3.11" height="195" id="connector4pin" x="570.32007" y="495.00024"/>
        <rect  style="fill:#f7bd13" width="60.080002" gorn="0.3.12" height="195" id="connector5pin" x="697.22998" y="495.00024"/>
        <rect  style="fill:#f7bd13" width="60.080002" gorn="0.3.13" height="195" id="connector6pin" x="824.19019" y="495.00024"/>
    </g>
    <metadata  id="metadata1804">
        <rdf:RDF xmlns:rdf="http://www.w3.org/1999/02/22-rdf-syntax-ns#">
            <cc:Work xmlns:cc="http://creativecommons.org/ns#" xmlns:rdf="http://www.w3.org/1999/02/22-rdf-syntax-ns#" rdf:about=""/>
        </rdf:RDF>
    </metadata>
</svg>
