<?xml version='1.0' encoding='UTF-8' standalone='no'?>
<!-- Creator: CorelDRAW 2018 -->
<svg xmlns="http://www.w3.org/2000/svg" viewBox="0 0 11409.54 4100.71" image-rendering="optimizeQuality" gorn="0" width="114.036mm" version="1.0" shape-rendering="geometricPrecision" id="svg20" xmlns:xml="http://www.w3.org/XML/1998/namespace"  xml:space="preserve" text-rendering="geometricPrecision" clip-rule="evenodd" height="40.9857mm" fill-rule="evenodd">
    <desc >
        <referenceFile >findme.svg</referenceFile>
    </desc>
    <defs id="defs20" />
    <g gorn="0.2" id="Layer_x0020_1" >
        <g gorn="0.2.0" id="copper1" >
            <g gorn="0.2.0.0" id="_379240936" >
                <path gorn="0.2.0.0.0" id="polygon1"  d="m 1835.3,935.44 1642.43,312.72 -4.27,395.5 -599.39,-101.98 -7.32,1132.3 -441.16,-104.97 20.44,7.71 -35.16,-1133.09 -594.97,-134 z" style="fill:#ffc000"/>
                <path gorn="0.2.0.0.1" id="polygon2"  d="m 3460.49,2839.75 516.91,-1496.16 624.67,120.48 -326.96,552.57 -409.55,923.46 z" style="fill:#ffc000"/>
                <path gorn="0.2.0.0.2" id="polygon3"  d="m 3977.4,1343.59 624.67,120.48 406.48,1763.16 -479.01,-138.78 -254.43,-1071.81 z" style="fill:#ffc000"/>
                <path gorn="0.2.0.0.3" id="polygon4"  d="m 4031.28,2141.85 91.2,203.32 386.34,59.65 155.53,384.74 -196.32,68.32 -509.9,-122.87 -145.09,-92.8 z" style="fill:#ffc000"/>
                <path gorn="0.2.0.0.4" id="polygon5"  d="M 5974.53,1684.35 V 3350.6 l -296.55,59.48 -55.62,-119.89 v -1590.12 0 l 346.52,-77.81 z" style="fill:#ffc000"/>
                <path gorn="0.2.0.0.5" id="polygon6"  d="M 6828.97,3122.61 V 1941.16 l -565.89,72.48 V 1592.31 L 7851.9,1280.53 v 435.8 l -541.58,106.89 v 1198.17 l -436.75,91.36 z" style="fill:#ffc000"/>
                <path gorn="0.2.0.0.6" id="polygon7"  d="m 8073.38,1856.33 8.54,-132.9 32.35,-141.86 36.5,-94.12 82.21,-141.28 133.63,-146.77 144.51,-102.77 244.78,-94.89 160.16,-20.6 v 534.71 l -103.44,16.98 -136.1,70.57 -71.27,79.92 -33.61,72.44 -15.41,84.37 17.43,132.64 66.6,122.34 73.68,67.28 169.71,57.93 72.4,-1.43 v 508.08 l -58.34,1.58 -132.84,-15.71 -119.46,-33.52 -17.03,-20.69 -98.77,-31.77 -101.71,-65.56 -82.73,-70.43 -101.88,-116.93 -28.9,-42.09 -51.54,-91.06 -38.47,-90.94 -29.17,-100.4 -15.93,-96.55 z" style="fill:#ffc000"/>
                <path gorn="0.2.0.0.7" id="polygon8"  d="m 8703.21,1012.29 83.64,-18.77 68.22,-9.12 78.74,-3.82 60.2,2.05 79.75,9.61 65.64,14.06 52.8,15.57 94.38,38.14 61.53,32.7 79.71,53.05 57.06,46.69 43.47,41.48 63.38,72.07 69.14,100.82 52.33,103.05 39.24,111.46 19.66,89.57 9.3,76.47 2.33,107.49 -13.77,125.32 -28.3,111.3 -33.28,85.85 -54.47,101.9 -63.56,88.91 -89.45,94.68 -64.59,53.58 -10.5,13.31 -76.65,44.48 -129.62,61.48 -143.16,39.5 -151.98,13.95 -173.58,-17.08 -152.56,-47.17 -5.06,-6.85 177.94,-460.35 112.15,23.2 106.35,-8.96 109.31,-41.91 111.48,-102.37 45.51,-84.73 19.22,-82.67 -5.49,-101.57 -47.38,-115.15 -61.73,-71.47 -82.68,-56.58 -64.62,-25.44 -85.61,-13.92 -125.35,16.69 -81.02,33.87 z" style="fill:#ffc000"/>
                <path gorn="0.2.0.0.8" id="polygon9"  d="m 749.67,337.55 4929.74,936.57 5019.64,-907.59 -163.04,224.29 -4856.6,815.94 L 870.35,492.15 Z" style="fill:#ffc000"/>
                <path gorn="0.2.0.0.9" id="polygon10"  d="m 1221.69,2601.49 85.87,-123.29 4371.85,1182.25 4374.27,-1122.27 180.62,-15.1 -16.24,67.33 -4538.65,1186.74 z" style="fill:#ffc000"/>
                <path gorn="0.2.0.0.10" id="polygon11"  d="m 10699.05,366.53 -472.87,2190.21 -172.5,-18.56 459.1,-1944.6 z" style="fill:#ffc000"/>
                <path gorn="0.2.0.0.11" id="polygon12"  d="M 728.68,392.2 1221.69,2601.49 1307.56,2478.2 870.35,492.15 Z" style="fill:#ffc000"/>
                <path gorn="0.2.0.0.12" id="polygon13"  d="m 749.67,337.55 -20.99,54.65 117.86,109.1 74.89,-42.97 -80.84,-76.43 -5.87,-2.21 z" style="fill:#ffc000"/>
                <path gorn="0.2.0.0.13" id="polygon14"  d="M 338.47,8.82 511.33,164.4 5679.41,1153.59 10878.85,223.4 9857.01,198.68 5684.09,1011.57 1532.93,156.71 Z" style="fill:#ffc000"/>
                <path gorn="0.2.0.0.14" id="polygon15"  d="m 338.47,8.82 h 10726.65 l -144.13,214.58 -1009.66,-0.53 -54.32,-24.19 H 1532.93 Z" style="fill:#ffc000"/>
                <path gorn="0.2.0.0.15" id="polygon16"  d="M 10878.85,223.4 10301.81,2759.19 5664.61,3935.06 1084.73,2694.56 944.6,2820.84 5701.81,4100.71 10434.35,2907.05 11065.12,9.48 Z" style="fill:#ffc000"/>
                <path gorn="0.2.0.0.16" id="polygon17"  d="M 338.47,8.82 944.6,2820.84 1084.73,2694.56 555.3,171.73 Z" style="fill:#ffc000"/>
                <path gorn="0.2.0.0.17" id="polygon18"  d="M 5384.3,1684.35 V 3350.6 l 300.23,56.15 22.52,-116.56 v -1590.12 0 l -322.75,-79.2 z" style="fill:#ffc000"/>
            </g>
        </g>
        <g gorn="0.2.1" id="silkscreen" >
            <path gorn="0.2.1.0" id="rect19"  d="M 8.8199997,15.05 H 45.630001 v 6.66 H 8.8199997 Z" style="fill:none;stroke:#000000;stroke-width:17.65;stroke-miterlimit:2.61313"/>
            <path gorn="0.2.1.1" id="rect20"  d="M 11355.076,-0.00585938 V 8.8203125 24.304687 h 54.459 V -0.00585938 Z" style="color:#000000;fill:#000000;stroke-miterlimit:2.61313;-inkscape-stroke:none"/>
        </g>
    </g>
</svg>
