<?xml version='1.0' encoding='UTF-8' standalone='no'?>
<!-- Created with Fritzing (https://fritzing.org/) -->
<svg xmlns="http://www.w3.org/2000/svg"  height="1.77165in" id="svg2" viewBox="0 0 357.163 127.558" y="0in" width="4.96059in" gorn="0" version="1.2" x="0in">
    <desc >
        <referenceFile >Antenna-TOP.svg</referenceFile>
    </desc>
    <defs  id="defs2"/>
    <g  id="copper1" gorn="0.2">
        <path  id="nonconn1" fill="#FFC000" d="m 81.8053,15.0171 -1.82903,0.425199 c -1.67829,0.390104 -3.32824,0.939038 -4.96244,1.48302 -0.926886,0.307763 -1.85062,0.615527 -2.73026,0.884145 -2.48684,0.75996 -5.61981,1.76649 -8.82117,2.79462 -5.2612,1.68955 -10.71,3.44029 -15.0174,4.61645 -1.06997,0.292465 -2.4216,0.737912 -3.78134,1.18561 -1.25805,0.414851 -2.52599,0.832851 -4.06705,1.2576 -0.537684,0.148482 -1.15861,0.33431 -1.80428,0.532737 l -1.95411,0.620026 H 36.81617 L 13.9946,35.91 13.303485,32.95025 c -0.146232,-0.626326 -1.10416,-4.16605 -1.95861,-6.80364 -0.378853,-1.17076 -0.378404,-1.78809 -0.501688,-1.90417 -0.0378,-0.03555 -1.26749,0.570532 -2.67897,1.14826 -0.774355,0.317212 -1.56716,0.642074 -2.30957,0.893594 -0.611025,0.207425 -0.446795,0.152982 -0.483691,0.16513 -1.05287,0.348259 -2.53679,0.826102 -2.53679,0.832401 L 2.8342,84.3114 c 1.95861,0.122385 3.63735,0.664571 5.65805,2.85086 0.375704,0.406302 0.704613,0.832401 0.986279,1.27245 l 0.00495,-0.0031 c 1.22475,1.91272 1.64725,4.14806 1.35793,6.2727 -0.287515,2.1143 -1.28954,4.13861 -2.91384,5.64053 -0.390552,0.36086 -0.8117,0.68932 -1.2612,0.97728 l 0.00315,0.005 c -1.48527,0.95119 -2.60923,1.23735 -3.83353,1.30709 v 2.18809 c 0,0.73882 2.0351,0.62858 3.19191,1.40608 0.511587,0.34421 0.921937,0.61958 1.08842,0.74511 7.15772,5.26032 14.4243,10.4725 21.5132,15.8134 0.702364,0.53049 1.54556,1.93612 2.05445,1.93612 l 138.595031,9e-5 v -3.86639 c 0,-3.90689 2.72622,-6.59892 6.21149,-7.75528 1.21305,-0.40225 2.52374,-0.61328 3.82813,-0.61418 1.32149,-4.5e-4 2.65377,0.21328 3.89247,0.66008 3.43713,1.23915 6.1197,4.10306 6.1197,8.90624 v 2.66952 l 136.675,0.002 c 0.56558,0 -0.21102,-0.28211 0.0158,-0.46164 h 0.0112 c 0.26501,-0.20968 0.11293,-0.10394 0.32351,-0.26277 l 27.1209,-19.8849 0.002,0.003 0.33251,-0.26817 -0.004,-0.005 c 0.17142,-0.13858 0.34555,-0.27941 0.52688,-0.418 v -0.79325 c -2.10079,-0.0837 -3.91947,-0.60518 -6.06975,-3.064593 -1.56086,-1.78629 -2.24342,-3.90914 -2.24342,-5.99239 0,-1.37639 0.30956,-2.75142 0.86794,-4.00497 0.55749,-1.25175 1.37458,-2.38157 2.38921,-3.26751 1.38718,-1.21171 3.12172,-1.97707 5.06683,-2.02296 l -10e-4,-56.2802 h -0.0112 c 0,-0.128235 -0.0535,-0.373456 -0.13229,-0.633525 l 0.0104,-0.0031 c -0.0144,-0.05264 0.027,-0.0387 0.0657,-0.0198 l 0.0234,-0.0072 c -0.19213,-0.192577 -0.64027,0.06074 -1.73949,-0.214175 -2.06345,-0.516539 -4.43556,-1.00248 -4.95884,-1.03308 -0.54848,-0.03195 -0.0657,1.68775 -0.61373,3.16582 l -0.004,-0.0013 c -0.17322,0.468394 -0.34465,0.92824 -0.57907,1.51092 -0.12239,0.303714 -0.25827,0.606078 -0.38876,0.896743 -0.18852,0.4198 -0.3604,0.802705 -0.47424,1.2891 l -0.52328,2.23173 -2.28932,-0.05039 c -1.50057,-0.03285 -2.66007,-0.440948 -3.78718,-0.8378 l 10e-4,-0.0036 c -0.31632,-0.111137 -0.62993,-0.221824 -0.94444,-0.314063 -20.5881,-6.86258 -42.1247,-12.9256 -62.9459,-19.3153 l 1.42138,-2.95705 c 0.19573,-0.407202 0.89314,-2.8940597 1.50417,-5.3336697 0.36446,-1.45468 0.67852,-2.81127 0.7964,-3.53658 h -15.8147 c -1.51226,0 -3.19326,0.600679 -4.74512,1.55277 -1.71384,1.05153 -3.20676,2.48415 -4.12419,3.99598 -0.52733,0.868397 -0.82789,1.7102497 -1.00023,2.6029397 -0.19752,1.02183 -0.24477,2.1242 -0.25916,3.3845 l 0.001,0.583581 c 0.0243,3.30261 0.0589,7.9834 -6.17144,7.9834 h -20.2835 v -2.83466 h 20.2835 c 3.73049,0 3.32374,-3.65582 3.34669,-5.75392 0.0324,-2.86796 0.22002,-5.0402997 1.66884,-7.4268197 2.24477,-3.69856 7.07088,-6.92153003 11.2833,-6.92153003 h 16.0608 c 1.25535,0 2.63848,1.06862003 2.63848,2.39237003 0,1.51812 -2.14714,9.5087197 -2.63848,10.5309997 l 59.7752,18.3416 c 1.27379,0.374805 2.55704,1.01283 3.98876,1.04433 0.24567,-1.04838 0.61327,-1.6459 0.99572,-2.59529 1.04702,-2.59754 2.11744,-6.55527 3.97571,-6.44683 1.13746,0.06614 8.07516,1.55592 8.63129,2.16199 0.38561,0.4207 0.77931,1.78719 0.77931,2.57234 l 10e-4,59.1126 h -2.63668 c -4.70102,0 -7.63556,6.59577 -4.14174,10.5953 2.17368,2.486402 4.03015,2.08865 6.77842,2.08865 v 5.264372 c -0.69922,0.18763 -1.40338,0.87065 -2.0198,1.33544 l -27.0876,19.8629 c -0.45625,0.34601 -1.55951,1.2999 -2.05535,1.2999 l -139.509,-0.002 v -5.5042 c 0,-9.41783 -14.382,-8.16338 -14.382,-1.19686 v 6.70105 L 30.6844,127.559 c -0.483241,0 -3.42498,-2.26368 -4.00811,-2.69878 L 5.41149,109.234 C 4.563794,108.59553 0.0018,105.78696 0.0018,104.82362 v -5.02635 c 2.20878,0 3.37818,0.27897 5.14017,-0.849499 3.28055,-2.10035 4.01981,-6.90578 1.28009,-9.86913 C 4.36716,86.855901 2.65287,87.113271 0,87.113271 V 27.2831 c 0,-2.21509 3.09427,-3.04794 4.94714,-3.67696 3.05153,-1.03488 6.15479,-3.00429 7.83399,-1.42228 0.741509,0.698317 3.04478,9.11952 3.27965,10.1247 L 35.9857,26.1155 c 1.28819,-0.408551 2.69562,-0.853998 3.85828,-1.17481 2.70282,-0.745111 5.22521,-1.7242 7.85918,-2.44321 6.66458,-1.82003 16.5436,-5.18338 23.7611,-7.38902 2.58988,-0.790556 5.22791,-1.80609 7.88078,-2.42296 -0.524636,-2.24838 -2.63668,-8.62817 -2.63668,-10.2921 0,-1.16536 1.35388,-2.39237 2.63668,-2.39237 l 23.4921,-0.00134984 c 1.24185,0 2.16693,1.01598004 2.53904,2.01126004 0.28437,0.762659 0.48954,2.89496 0.55298,3.75615 0.19798,2.62679 1.12216,4.2843898 4.33747,4.2843898 h 11.506 v 1.93477 H 91.860332 l -10.0554,3.03129 z" gorn="0.2.0" stroke="none"/>
        <circle  style="clip-rule:evenodd;fill-rule:evenodd;stroke-linecap:round;stroke-linejoin:round;image-rendering:optimizeQuality;shape-rendering:geometricPrecision;text-rendering:geometricPrecision" id="connector0pin" fill-opacity="1" cx="230.175" stroke-width="0.321732" fill="#000000" gorn="0.2.1" stroke="none" cy="21.545799" r="1.41732"/>
        <circle  style="stroke-linecap:round;stroke-linejoin:round" id="connector1pin" fill-opacity="1" cx="82.735802" stroke-width="0.643466" fill="#000000" gorn="0.2.2" stroke="none" cy="4.7516198" r="2.83465"/>
    </g>
</svg>
