<?xml version='1.0' encoding='UTF-8' standalone='no'?>
<!-- Created with Inkscape (http://www.inkscape.org/) -->
<svg xmlns="http://www.w3.org/2000/svg" id="svg1" width="3.8499999mm" gorn="0" height="1.7mm" viewBox="0 0 3.8499998 1.7"  version="1.1">
    <desc >
        <referenceFile >SOD-123-PCB.svg</referenceFile>
    </desc>
    <defs id="defs1" />
    <g id="silkscreen" gorn="0.2" >
        <path fill="black" id="rect2" d="M 0.66714274 0.00051676432 L 0.57515869 0.091984049 L 0.57515869 0.50022786 L 0.75912679 0.50022786 L 0.75912679 0.1839681 L 1.098641 0.1839681 L 1.098641 0.50022786 L 1.4376383 0.50022786 L 1.4376383 0.1839681 L 3.0907674 0.1839681 L 3.0907674 0.50022786 L 3.2747355 0.50022786 L 3.2747355 0.091984049 L 3.1827515 0.00051676432 L 1.4376383 0.00051676432 L 1.098641 0.00051676432 L 0.66714274 0.00051676432 z M 0.57515869 1.1999268 L 0.57515869 1.6076538 L 0.66714274 1.6996379 L 1.098641 1.6996379 L 1.098641 1.7001546 L 1.4376383 1.7001546 L 1.4376383 1.6996379 L 3.1827515 1.6996379 L 3.2747355 1.6076538 L 3.2747355 1.1999268 L 3.0907674 1.1999268 L 3.0907674 1.5161865 L 1.4376383 1.5161865 L 1.4376383 1.2004435 L 1.098641 1.2004435 L 1.098641 1.5161865 L 0.75912679 1.5161865 L 0.75912679 1.1999268 L 0.57515869 1.1999268 z " stroke="none" gorn="0.2.0" />
    </g>
    <g id="copper1" style="display:inline" gorn="0.3" >
        <path fill="#ffc000" id="connector1pin" d="m 2.4124999,0.50000002 h 1.4375 V 1.2 h -1.4375 z" stroke="none" gorn="0.3.0" />
        <path fill="#ffc000" id="connector0pin" d="M 0,0.50000002 H 1.4375 V 1.2 H 0 Z" stroke="none" gorn="0.3.1" />
    </g>
</svg>
