<?xml version='1.0' encoding='UTF-8' standalone='no'?>
<svg xmlns="http://www.w3.org/2000/svg" height="10.48mm" width="10.48mm" id="svg82" version="1.1"  viewBox="0 0 41.259841 41.260569" gorn="0">
    <defs id="defs3" >
        <defs id="defs82" />
    </defs>
    <desc id="desc1" >
        <referenceFile >rp2350b-PCB.svg</referenceFile>
    </desc>
    <g transform="translate(-367.1,-263.1)" >
        <g >
            <g id="silkscreen"  gorn="0.2.0.0">
                <path stroke="none" id="path2" d="m 408.3602,263.1 v 0.5005 2.56352 h -0.50049 v -2.56352 h -2.56352 V 263.1 h 2.56352 z" fill="#000000"  gorn="0.2.0.0.0"/>
                <path stroke="none" id="path2-2" d="m 367.09964,263.1 v 0.5005 2.56352 h 0.50049 v -2.56352 h 2.56352 V 263.1 h -2.56352 z" fill="#000000"  gorn="0.2.0.0.1"/>
                <path stroke="none" id="path2-8" d="m 408.3602,304.36057 v -0.5005 -2.56352 h -0.50049 v 2.56352 h -2.56352 v 0.5005 h 2.56352 z" fill="#000000"  gorn="0.2.0.0.2"/>
                <path stroke="none" id="path2-2-7" d="m 367.09964,304.36057 v -0.5005 -2.56352 h 0.50049 v 2.56352 h 2.56352 v 0.5005 h -2.56352 z" fill="#000000"  gorn="0.2.0.0.3"/>
                <path stroke="none" id="path3" d="m 370.74064,265.2768 a 1.3736445,1.3736445 0 0 1 -1.37364,1.37365 1.3736445,1.3736445 0 0 1 -1.37365,-1.37365 1.3736445,1.3736445 0 0 1 1.37365,-1.37364 1.3736445,1.3736445 0 0 1 1.37364,1.37364 z" fill="#000000"  gorn="0.2.0.0.4"/>
            </g>
        </g>
    </g>
    <g transform="translate(-367.1,-263.1)" >
        <g >
            <g id="copper1"  gorn="0.3.0.0">
                <path stroke="none" id="connector0pin" d="m 367.09964,268.37557 v 0.78736 h 2.61845 v -0.78736 z" fill="#ffc000"  gorn="0.3.0.0.0"/>
                <path stroke="none" id="connector1pin" d="m 367.09964,269.9503 v 0.78737 h 2.61845 v -0.78737 z" fill="#ffc000"  gorn="0.3.0.0.1"/>
                <path stroke="none" id="connector2pin" d="m 367.09964,271.52503 v 0.78737 h 2.61845 v -0.78737 z" fill="#ffc000"  gorn="0.3.0.0.2"/>
                <path stroke="none" id="connector3pin" d="m 367.09964,273.09977 v 0.78737 h 2.61845 v -0.78737 z" fill="#ffc000"  gorn="0.3.0.0.3"/>
                <path stroke="none" id="connector4pin" d="m 367.09964,274.6745 v 0.78737 h 2.61845 v -0.78737 z" fill="#ffc000"  gorn="0.3.0.0.4"/>
                <path stroke="none" id="connector5pin" d="m 367.09964,276.24924 v 0.78737 h 2.61845 v -0.78737 z" fill="#ffc000"  gorn="0.3.0.0.5"/>
                <path stroke="none" id="connector6pin" d="m 367.09964,277.82397 v 0.78737 h 2.61845 v -0.78737 z" fill="#ffc000"  gorn="0.3.0.0.6"/>
                <path stroke="none" id="connector7pin" d="m 367.09964,279.39871 v 0.78737 h 2.61845 v -0.78737 z" fill="#ffc000"  gorn="0.3.0.0.7"/>
                <path stroke="none" id="connector8pin" d="m 367.09964,280.97344 v 0.78737 h 2.61845 v -0.78737 z" fill="#ffc000"  gorn="0.3.0.0.8"/>
                <path stroke="none" id="connector9pin" d="m 367.09964,282.55021 v 0.78737 h 2.61845 v -0.78737 z" fill="#ffc000"  gorn="0.3.0.0.9"/>
                <path stroke="none" id="connector10pin" d="m 367.09964,284.12291 v 0.78737 h 2.61845 v -0.78737 z" fill="#ffc000"  gorn="0.3.0.0.10"/>
                <path stroke="none" id="connector11pin" d="m 367.09964,285.69765 v 0.78737 h 2.61845 v -0.78737 z" fill="#ffc000"  gorn="0.3.0.0.11"/>
                <path stroke="none" id="connector12pin" d="m 367.09964,287.27238 v 0.7894 h 2.61845 v -0.7894 z" fill="#ffc000"  gorn="0.3.0.0.12"/>
                <path stroke="none" id="connector13pin" d="m 367.09964,288.84915 v 0.78737 h 2.61845 v -0.78737 z" fill="#ffc000"  gorn="0.3.0.0.13"/>
                <path stroke="none" id="connector14pin" d="m 367.09964,290.42389 v 0.78736 h 2.61845 v -0.78736 z" fill="#ffc000"  gorn="0.3.0.0.14"/>
                <path stroke="none" id="connector15pin" d="m 367.09964,291.99659 v 0.78736 h 2.61845 v -0.78736 z" fill="#ffc000"  gorn="0.3.0.0.15"/>
                <path stroke="none" id="connector16pin" d="m 367.09964,293.57336 v 0.78736 h 2.61845 v -0.78736 z" fill="#ffc000"  gorn="0.3.0.0.16"/>
                <path stroke="none" id="connector17pin" d="m 367.09964,295.14809 v 0.78737 h 2.61845 v -0.78737 z" fill="#ffc000"  gorn="0.3.0.0.17"/>
                <path stroke="none" id="connector18pin" d="m 367.09964,296.72283 v 0.78736 h 2.61845 v -0.78736 z" fill="#ffc000"  gorn="0.3.0.0.18"/>
                <path stroke="none" id="connector19pin" d="m 367.09964,298.29756 v 0.78737 h 2.61845 v -0.78737 z" fill="#ffc000"  gorn="0.3.0.0.19"/>
                <path stroke="none" id="connector20pin" d="m 372.3752,301.74204 v 2.61845 h 0.78737 v -2.61845 z" fill="#ffc000"  gorn="0.3.0.0.20"/>
                <path stroke="none" id="connector21pin" d="m 373.94994,301.74204 v 2.61845 h 0.78736 v -2.61845 z" fill="#ffc000"  gorn="0.3.0.0.21"/>
                <path stroke="none" id="connector22pin" d="m 375.52467,301.74204 v 2.61845 h 0.78737 v -2.61845 z" fill="#ffc000"  gorn="0.3.0.0.22"/>
                <path stroke="none" id="connector23pin" d="m 377.09941,301.74204 v 2.61845 h 0.78736 v -2.61845 z" fill="#ffc000"  gorn="0.3.0.0.23"/>
                <path stroke="none" id="connector24pin" d="m 378.67414,301.74204 v 2.61845 h 0.78737 v -2.61845 z" fill="#ffc000"  gorn="0.3.0.0.24"/>
                <path stroke="none" id="connector25pin" d="m 380.24888,301.74204 v 2.61845 h 0.78736 v -2.61845 z" fill="#ffc000"  gorn="0.3.0.0.25"/>
                <path stroke="none" id="connector26pin" d="m 381.82361,301.74204 v 2.61845 h 0.78737 v -2.61845 z" fill="#ffc000"  gorn="0.3.0.0.26"/>
                <path stroke="none" id="connector27pin" d="m 383.39834,301.74204 v 2.61845 h 0.78737 v -2.61845 z" fill="#ffc000"  gorn="0.3.0.0.27"/>
                <path stroke="none" id="connector28pin" d="m 384.97308,301.74204 v 2.61845 h 0.78737 v -2.61845 z" fill="#ffc000"  gorn="0.3.0.0.28"/>
                <path stroke="none" id="connector29pin" d="m 386.54985,301.74204 v 2.61845 h 0.78737 v -2.61845 z" fill="#ffc000"  gorn="0.3.0.0.29"/>
                <path stroke="none" id="connector30pin" d="m 388.12255,301.74204 v 2.61845 h 0.78737 v -2.61845 z" fill="#ffc000"  gorn="0.3.0.0.30"/>
                <path stroke="none" id="connector31pin" d="m 389.69728,301.74204 v 2.61845 h 0.78737 v -2.61845 z" fill="#ffc000"  gorn="0.3.0.0.31"/>
                <path stroke="none" id="connector32pin" d="m 391.27202,301.74204 v 2.61845 h 0.78737 v -2.61845 z" fill="#ffc000"  gorn="0.3.0.0.32"/>
                <path stroke="none" id="connector33pin" d="m 392.84879,301.74204 v 2.61845 h 0.78737 v -2.61845 z" fill="#ffc000"  gorn="0.3.0.0.33"/>
                <path stroke="none" id="connector34pin" d="m 394.42352,301.74204 v 2.61845 h 0.78737 v -2.61845 z" fill="#ffc000"  gorn="0.3.0.0.34"/>
                <path stroke="none" id="connector35pin" d="m 395.99622,301.74204 v 2.61845 h 0.78737 v -2.61845 z" fill="#ffc000"  gorn="0.3.0.0.35"/>
                <path stroke="none" id="connector36pin" d="m 397.57096,301.74204 v 2.61845 h 0.78737 v -2.61845 z" fill="#ffc000"  gorn="0.3.0.0.36"/>
                <path stroke="none" id="connector37pin" d="m 399.14773,301.74204 v 2.61845 h 0.78736 v -2.61845 z" fill="#ffc000"  gorn="0.3.0.0.37"/>
                <path stroke="none" id="connector38pin" d="m 400.72246,301.74204 v 2.61845 h 0.78737 v -2.61845 z" fill="#ffc000"  gorn="0.3.0.0.38"/>
                <path stroke="none" id="connector39pin" d="m 402.2972,301.74204 v 2.61845 h 0.78736 v -2.61845 z" fill="#ffc000"  gorn="0.3.0.0.39"/>
                <path stroke="none" id="connector40pin" d="m 405.74168,298.29756 v 0.78737 h 2.61845 v -0.78737 z" fill="#ffc000"  gorn="0.3.0.0.40"/>
                <path stroke="none" id="connector41pin" d="m 405.74168,296.72283 v 0.78736 h 2.61845 v -0.78736 z" fill="#ffc000"  gorn="0.3.0.0.41"/>
                <path stroke="none" id="connector42pin" d="m 405.74168,295.14809 v 0.78737 h 2.61845 v -0.78737 z" fill="#ffc000"  gorn="0.3.0.0.42"/>
                <path stroke="none" id="connector43pin" d="m 405.74168,293.57336 v 0.78736 h 2.61845 v -0.78736 z" fill="#ffc000"  gorn="0.3.0.0.43"/>
                <path stroke="none" id="connector44pin" d="m 405.74168,291.99659 v 0.78736 h 2.61845 v -0.78736 z" fill="#ffc000"  gorn="0.3.0.0.44"/>
                <path stroke="none" id="connector45pin" d="m 405.74168,290.42389 v 0.78736 h 2.61845 v -0.78736 z" fill="#ffc000"  gorn="0.3.0.0.45"/>
                <path stroke="none" id="connector46pin" d="m 405.74168,288.84915 v 0.78737 h 2.61845 v -0.78737 z" fill="#ffc000"  gorn="0.3.0.0.46"/>
                <path stroke="none" id="connector47pin" d="m 405.74168,287.27238 v 0.7894 h 2.61845 v -0.7894 z" fill="#ffc000"  gorn="0.3.0.0.47"/>
                <path stroke="none" id="connector48pin" d="m 405.74168,285.69765 v 0.78737 h 2.61845 v -0.78737 z" fill="#ffc000"  gorn="0.3.0.0.48"/>
                <path stroke="none" id="connector49pin" d="m 405.74168,284.12291 v 0.78737 h 2.61845 v -0.78737 z" fill="#ffc000"  gorn="0.3.0.0.49"/>
                <path stroke="none" id="connector50pin" d="m 405.74168,282.55021 v 0.78737 h 2.61845 v -0.78737 z" fill="#ffc000"  gorn="0.3.0.0.50"/>
                <path stroke="none" id="connector51pin" d="m 405.74168,280.97344 v 0.78737 h 2.61845 v -0.78737 z" fill="#ffc000"  gorn="0.3.0.0.51"/>
                <path stroke="none" id="connector52pin" d="m 405.74168,279.39871 v 0.78737 h 2.61845 v -0.78737 z" fill="#ffc000"  gorn="0.3.0.0.52"/>
                <path stroke="none" id="connector53pin" d="m 405.74168,277.82397 v 0.78737 h 2.61845 v -0.78737 z" fill="#ffc000"  gorn="0.3.0.0.53"/>
                <path stroke="none" id="connector54pin" d="m 405.74168,276.24924 v 0.78737 h 2.61845 v -0.78737 z" fill="#ffc000"  gorn="0.3.0.0.54"/>
                <path stroke="none" id="connector55pin" d="m 405.74168,274.6745 v 0.78737 h 2.61845 v -0.78737 z" fill="#ffc000"  gorn="0.3.0.0.55"/>
                <path stroke="none" id="connector56pin" d="m 405.74168,273.09977 v 0.78737 h 2.61845 v -0.78737 z" fill="#ffc000"  gorn="0.3.0.0.56"/>
                <path stroke="none" id="connector57pin" d="m 405.74168,271.52503 v 0.78737 h 2.61845 v -0.78737 z" fill="#ffc000"  gorn="0.3.0.0.57"/>
                <path stroke="none" id="connector58pin" d="m 405.74168,269.9503 v 0.78737 h 2.61845 v -0.78737 z" fill="#ffc000"  gorn="0.3.0.0.58"/>
                <path stroke="none" id="connector59pin" d="m 405.74168,268.37557 v 0.78736 h 2.61845 v -0.78736 z" fill="#ffc000"  gorn="0.3.0.0.59"/>
                <path stroke="none" id="connector60pin" d="m 402.2972,263.1 v 2.61845 h 0.78736 V 263.1 Z" fill="#ffc000"  gorn="0.3.0.0.60"/>
                <path stroke="none" id="connector61pin" d="m 400.72246,263.1 v 2.61845 h 0.78737 V 263.1 Z" fill="#ffc000"  gorn="0.3.0.0.61"/>
                <path stroke="none" id="connector62pin" d="m 399.14773,263.1 v 2.61845 h 0.78736 V 263.1 Z" fill="#ffc000"  gorn="0.3.0.0.62"/>
                <path stroke="none" id="connector63pin" d="m 397.57096,263.1 v 2.61845 h 0.78737 V 263.1 Z" fill="#ffc000"  gorn="0.3.0.0.63"/>
                <path stroke="none" id="connector64pin" d="m 395.99622,263.1 v 2.61845 h 0.78737 V 263.1 Z" fill="#ffc000"  gorn="0.3.0.0.64"/>
                <path stroke="none" id="connector65pin" d="m 394.42352,263.1 v 2.61845 h 0.78737 V 263.1 Z" fill="#ffc000"  gorn="0.3.0.0.65"/>
                <path stroke="none" id="connector66pin" d="m 392.84879,263.1 v 2.61845 h 0.78737 V 263.1 Z" fill="#ffc000"  gorn="0.3.0.0.66"/>
                <path stroke="none" id="connector67pin" d="m 391.27202,263.1 v 2.61845 h 0.78737 V 263.1 Z" fill="#ffc000"  gorn="0.3.0.0.67"/>
                <path stroke="none" id="connector68pin" d="m 389.69728,263.1 v 2.61845 h 0.78737 V 263.1 Z" fill="#ffc000"  gorn="0.3.0.0.68"/>
                <path stroke="none" id="connector69pin" d="m 388.12255,263.1 v 2.61845 h 0.78737 V 263.1 Z" fill="#ffc000"  gorn="0.3.0.0.69"/>
                <path stroke="none" id="connector70pin" d="m 386.54985,263.1 v 2.61845 h 0.78737 V 263.1 Z" fill="#ffc000"  gorn="0.3.0.0.70"/>
                <path stroke="none" id="connector71pin" d="m 384.97308,263.1 v 2.61845 h 0.78737 V 263.1 Z" fill="#ffc000"  gorn="0.3.0.0.71"/>
                <path stroke="none" id="connector72pin" d="m 383.39834,263.1 v 2.61845 h 0.78737 V 263.1 Z" fill="#ffc000"  gorn="0.3.0.0.72"/>
                <path stroke="none" id="connector73pin" d="m 381.82361,263.1 v 2.61845 h 0.78737 V 263.1 Z" fill="#ffc000"  gorn="0.3.0.0.73"/>
                <path stroke="none" id="connector74pin" d="m 380.24888,263.1 v 2.61845 h 0.78736 V 263.1 Z" fill="#ffc000"  gorn="0.3.0.0.74"/>
                <path stroke="none" id="connector75pin" d="m 378.67414,263.1 v 2.61845 h 0.78737 V 263.1 Z" fill="#ffc000"  gorn="0.3.0.0.75"/>
                <path stroke="none" id="connector76pin" d="m 377.09941,263.1 v 2.61845 h 0.78736 V 263.1 Z" fill="#ffc000"  gorn="0.3.0.0.76"/>
                <path stroke="none" id="connector77pin" d="m 375.52467,263.1 v 2.61845 h 0.78737 V 263.1 Z" fill="#ffc000"  gorn="0.3.0.0.77"/>
                <path stroke="none" id="connector78pin" d="m 373.94994,263.1 v 2.61845 h 0.78736 V 263.1 Z" fill="#ffc000"  gorn="0.3.0.0.78"/>
                <path stroke="none" id="connector79pin" d="m 372.3752,263.1 v 2.61845 h 0.78737 V 263.1 Z" fill="#ffc000"  gorn="0.3.0.0.79"/>
                <path stroke="none" id="connector80pin" d="m 381.03624,277.03661 v 13.38728 h 13.38525 v -13.38728 z" fill="#ffc000"  gorn="0.3.0.0.80"/>
            </g>
        </g>
    </g>
</svg>
