<?xml version='1.0' encoding='UTF-8' standalone='no'?>
<!-- Created with Fritzing (https://fritzing.org/) -->
<svg xmlns="http://www.w3.org/2000/svg" x="0in" width="17.128mm" viewBox="0 0 48.551812 57.599998" gorn="0" height="20.32mm"  id="svg9" y="0in" version="1.2">
    <desc >
        <referenceFile >Borne-RGB-Right.svg</referenceFile>
    </desc>
    <defs  id="defs9"/>
    <g gorn="0.2"  id="copper0">
        <g gorn="0.2.0"  id="copper1">
            <circle cx="37.497555" stroke-width="1.44" stroke="#ffbf00" gorn="0.2.0.0" fill="none"  r="2.0880001" id="connector0pin" cy="7.2000003"/>
            <circle cx="37.497555" stroke-width="1.44" stroke="#ffbf00" gorn="0.2.0.1" fill="none"  r="2.0880001" id="connector1pin" cy="21.6"/>
            <circle cx="37.497555" stroke-width="1.44" stroke="#ffbf00" gorn="0.2.0.2" fill="none"  r="2.0880001" id="connector2pin" cy="36"/>
            <circle cx="37.497555" stroke-width="1.44" stroke="#ffbf00" gorn="0.2.0.3" fill="none"  r="2.0880001" id="connector3pin" cy="50.400002"/>
        </g>
    </g>
    <g gorn="0.3"  id="silkscreen">
        <path style="color:#000000;fill:#000000;fill-opacity:1;stroke:none;stroke-linecap:square;stroke-linejoin:round;stroke-opacity:1;-inkscape-stroke:none" d="M 26.68853,0 A 0.2470472,0.2470472 0 0 0 26.442436,0.24609375 V 28.552734 a 0.2470472,0.2470472 0 0 0 0.246094,0.248047 h 21.617187 a 0.2470472,0.2470472 0 0 0 0.246094,-0.248047 V 0.24609375 A 0.2470472,0.2470472 0 0 0 48.305717,0 Z m 0.248047,0.49414063 H 48.05767 V 28.306641 H 26.936577 Z" gorn="0.3.0"  id="rect41-8"/>
        <path style="color:#000000;fill:#000000;fill-opacity:1;stroke:none;stroke-linecap:square;stroke-linejoin:round;stroke-opacity:1;-inkscape-stroke:none" d="m 26.68853,28.800781 a 0.24663866,0.24663866 0 0 0 -0.246094,0.246094 v 28.306641 a 0.24663866,0.24663866 0 0 0 0.246094,0.246093 h 21.617187 a 0.24663866,0.24663866 0 0 0 0.246094,-0.246093 V 29.046875 a 0.24663866,0.24663866 0 0 0 -0.246094,-0.246094 z m 0.248047,0.492188 h 21.123046 v 27.8125 H 26.936577 Z" gorn="0.3.1"  id="rect41-8-2"/>
        <path style="font-size:5.61543px;line-height:14.2632px;font-family:Droid Sans;-inkscape-font-specification:Droid Sans;letter-spacing:0px;word-spacing:0px;fill:#000000;fill-opacity:1;stroke:none;stroke-width:0.749999;stroke-opacity:1" d="m 15.354691,9.3192108 v 0.542898 h -0.540156 v -0.542898 z m -0.540156,0 V 8.7817966 h 0.540156 v 0.5374142 z m 0,-0.5374142 V 8.2306729 h 0.540156 v 0.5511237 z m 0,-0.5511237 V 7.6822911 h 0.540156 v 0.5483818 z m 0,-0.5483818 V 7.1311674 h 0.540156 v 0.5511237 z m 0,-0.5511237 V 6.5827855 h 0.540156 v 0.5483819 z m 0,-0.5483819 V 6.0316618 h 0.540156 v 0.5511237 z m 0,-0.5511237 V 5.4805381 h 0.540156 v 0.5511237 z m 0,3.287549 v 0.542898 h -0.548382 v -0.542898 z m -0.548382,0 V 8.7817966 h 0.548382 v 0.5374142 z m 0,-0.5374142 V 8.2306729 h 0.548382 v 0.5511237 z m 0,-0.5511237 V 7.6822911 h 0.548382 v 0.5483818 z m 0,-0.5483818 V 7.1311674 h 0.548382 v 0.5511237 z m 0,-0.5511237 V 6.5827855 h 0.548382 v 0.5483819 z m 0,-0.5483819 V 6.0316618 h 0.548382 v 0.5511237 z m 0,-0.5511237 V 5.4805381 h 0.548382 v 0.5511237 z m 0,-0.5511237 V 4.9431239 h 0.548382 V 5.4805381 Z M 13.71503,4.9431239 V 4.3920001 h 0.551123 v 0.5511238 z m 0.551123,4.3760869 v 0.542898 H 13.71503 v -0.542898 z m -0.551123,0 V 8.7817966 h 0.551123 v 0.5374142 z m 0,-2.1880434 V 6.5827855 h 0.551123 v 0.5483819 z m 0,-1.6506293 V 4.9431239 h 0.551123 V 5.4805381 Z M 13.166648,4.9431239 V 4.3920001 h 0.548382 v 0.5511238 z m 0.548382,4.3760869 v 0.542898 h -0.548382 v -0.542898 z m -0.548382,0 V 8.7817966 H 13.71503 V 9.3192108 Z M 12.615524,4.9431239 V 4.3920001 h 0.551124 v 0.5511238 z m 0,4.3760869 V 8.7817966 h 0.551124 v 0.5374142 z m 0,-0.5374142 V 8.2306729 h 0.551124 v 0.5511237 z m 0,-0.5511237 V 7.6822911 h 0.551124 v 0.5483818 z m 0,-0.5483818 V 7.1311674 h 0.551124 v 0.5511237 z m 0,-1.0995056 V 6.0316618 h 0.551124 v 0.5511237 z m 0,-0.5511237 V 5.4805381 h 0.551124 V 6.0316618 Z M 12.0644,4.9431239 V 4.3920001 h 0.551124 v 0.5511238 z m 0.551124,4.3760869 v 0.542898 H 12.0644 v -0.542898 z m -0.551124,0 V 8.7817966 h 0.551124 v 0.5374142 z m 0,-0.5374142 V 8.2306729 h 0.551124 v 0.5511237 z m 0,-0.5511237 V 7.6822911 h 0.551124 v 0.5483818 z m 0,-0.5483818 V 7.1311674 h 0.551124 v 0.5511237 z m 0,-1.0995056 V 6.0316618 h 0.551124 v 0.5511237 z m 0,-0.5511237 V 5.4805381 h 0.551124 V 6.0316618 Z M 11.526986,4.9431239 V 4.3920001 H 12.0644 V 4.9431239 Z M 12.0644,9.3192108 v 0.542898 h -0.537414 v -0.542898 z m -0.537414,0 V 8.7817966 H 12.0644 v 0.5374142 z m 0,-0.5374142 V 8.2306729 H 12.0644 v 0.5511237 z m 0,-0.5511237 V 7.6822911 H 12.0644 v 0.5483818 z m 0,-0.5483818 V 7.1311674 H 12.0644 v 0.5511237 z m 0,-1.0995056 V 6.0316618 H 12.0644 v 0.5511237 z m 0,-0.5511237 V 5.4805381 H 12.0644 V 6.0316618 Z M 10.975862,4.9431239 V 4.3920001 h 0.551124 v 0.5511238 z m 0.551124,4.3760869 v 0.542898 h -0.551124 v -0.542898 z m -0.551124,0 V 8.7817966 h 0.551124 V 9.3192108 Z M 10.427481,4.9431239 V 4.3920001 h 0.548381 v 0.5511238 z m 0.548381,4.3760869 v 0.542898 h -0.548381 v -0.542898 z m -0.548381,0 V 8.7817966 h 0.548381 V 9.3192108 Z M 9.876357,4.9431239 V 4.3920001 h 0.551124 v 0.5511238 z m 0,4.3760869 V 8.7817966 h 0.551124 v 0.5374142 z m 0,-0.5374142 V 8.2306729 h 0.551124 v 0.5511237 z m 0,-0.5511237 V 7.6822911 h 0.551124 v 0.5483818 z m 0,-0.5483818 V 7.1311674 h 0.551124 v 0.5511237 z m 0,-0.5511237 V 6.5827855 h 0.551124 v 0.5483819 z m 0,-0.5483819 V 6.0316618 h 0.551124 v 0.5511237 z m 0,-0.5511237 V 5.4805381 h 0.551124 v 0.5511237 z m 0,-0.5511237 V 4.9431239 h 0.551124 V 5.4805381 Z M 20.29287,9.3192108 v 0.542898 h -0.540156 v -0.542898 z m -0.540156,0 V 8.7817966 h 0.540156 v 0.5374142 z m 0,-0.5374142 V 8.2306729 h 0.540156 v 0.5511237 z m 0,-2.1990111 V 6.0316618 h 0.540156 v 0.5511237 z m 0,-0.5511237 V 5.4805381 h 0.540156 v 0.5511237 z m 0,-0.5511237 V 4.9431239 H 20.29287 V 5.4805381 Z M 19.204332,4.9431239 V 4.3920001 h 0.548382 v 0.5511238 z m 0.548382,4.3760869 v 0.542898 h -0.548382 v -0.542898 z m -0.548382,0 V 8.7817966 h 0.548382 v 0.5374142 z m 0,-0.5374142 V 8.2306729 h 0.548382 v 0.5511237 z m 0,-0.5511237 V 7.6822911 h 0.548382 v 0.5483818 z m 0,-0.5483818 V 7.1311674 h 0.548382 v 0.5511237 z m 0,-0.5511237 V 6.5827855 h 0.548382 v 0.5483819 z m 0,-0.5483819 V 6.0316618 h 0.548382 v 0.5511237 z m 0,-0.5511237 V 5.4805381 h 0.548382 v 0.5511237 z m 0,-0.5511237 V 4.9431239 h 0.548382 V 5.4805381 Z M 18.653208,4.9431239 V 4.3920001 h 0.551124 v 0.5511238 z m 0.551124,4.3760869 v 0.542898 h -0.551124 v -0.542898 z m -0.551124,0 V 8.7817966 h 0.551124 v 0.5374142 z m 0,-1.0885379 V 7.6822911 h 0.551124 v 0.5483818 z m 0,-0.5483818 V 7.1311674 h 0.551124 v 0.5511237 z m 0,-0.5511237 V 6.5827855 h 0.551124 v 0.5483819 z m 0,-0.5483819 V 6.0316618 h 0.551124 v 0.5511237 z m 0,-0.5511237 V 5.4805381 h 0.551124 V 6.0316618 Z M 18.104826,4.9431239 V 4.3920001 h 0.548382 v 0.5511238 z m 0.548382,4.3760869 v 0.542898 h -0.548382 v -0.542898 z m -0.548382,0 V 8.7817966 h 0.548382 v 0.5374142 z m 0,-1.0885379 V 7.6822911 h 0.548382 v 0.5483818 z m 0,-0.5483818 V 7.1311674 h 0.548382 v 0.5511237 z m 0,-1.0995056 V 6.0316618 h 0.548382 v 0.5511237 z m 0,-0.5511237 V 5.4805381 h 0.548382 V 6.0316618 Z M 17.553703,4.9431239 V 4.3920001 h 0.551123 v 0.5511238 z m 0.551123,4.3760869 v 0.542898 h -0.551123 v -0.542898 z m -0.551123,0 V 8.7817966 h 0.551123 v 0.5374142 z m 0,-1.0885379 V 7.6822911 h 0.551123 v 0.5483818 z m 0,-0.5483818 V 7.1311674 h 0.551123 v 0.5511237 z m 0,-1.0995056 V 6.0316618 h 0.551123 v 0.5511237 z m 0,-0.5511237 V 5.4805381 h 0.551123 V 6.0316618 Z M 17.002579,4.9431239 V 4.3920001 h 0.551124 v 0.5511238 z m 0.551124,4.3760869 v 0.542898 h -0.551124 v -0.542898 z m -0.551124,0 V 8.7817966 h 0.551124 v 0.5374142 z m 0,-1.0885379 V 7.6822911 h 0.551124 v 0.5483818 z m 0,-0.5483818 V 7.1311674 h 0.551124 v 0.5511237 z m 0,-1.0995056 V 6.0316618 h 0.551124 v 0.5511237 z m 0,-0.5511237 V 5.4805381 h 0.551124 V 6.0316618 Z M 16.465165,4.9431239 V 4.3920001 h 0.537414 v 0.5511238 z m 0.537414,4.3760869 v 0.542898 h -0.537414 v -0.542898 z m -0.537414,0 V 8.7817966 h 0.537414 v 0.5374142 z m 0,-1.0885379 V 7.6822911 h 0.537414 v 0.5483818 z m 0,-0.5483818 V 7.1311674 h 0.537414 v 0.5511237 z m 0,-1.0995056 V 6.0316618 h 0.537414 v 0.5511237 z m 0,-0.5511237 V 5.4805381 h 0.537414 V 6.0316618 Z M 15.914041,4.9431239 V 4.3920001 h 0.551124 v 0.5511238 z m 0.551124,4.3760869 v 0.542898 h -0.551124 v -0.542898 z m -0.551124,0 V 8.7817966 h 0.551124 V 9.3192108 Z M 15.365659,4.9431239 V 4.3920001 h 0.548382 v 0.5511238 z m 0.548382,4.3760869 v 0.542898 h -0.548382 v -0.542898 z m -0.548382,0 V 8.7817966 h 0.548382 V 9.3192108 Z M 14.814535,4.9431239 V 4.3920001 h 0.551124 v 0.5511238 z m 0,4.3760869 V 8.7817966 h 0.551124 v 0.5374142 z m 0,-0.5374142 V 8.2306729 h 0.551124 v 0.5511237 z m 0,-0.5511237 V 7.6822911 h 0.551124 v 0.5483818 z m 0,-0.5483818 V 7.1311674 h 0.551124 v 0.5511237 z m 0,-0.5511237 V 6.5827855 h 0.551124 v 0.5483819 z m 0,-0.5483819 V 6.0316618 h 0.551124 v 0.5511237 z m 0,-0.5511237 V 5.4805381 h 0.551124 v 0.5511237 z m 0,-0.5511237 V 4.9431239 h 0.551124 v 0.5374142 z m 9.876357,3.3012585 V 8.2306729 h 0.540156 v 0.5511237 z m 0,-0.5511237 V 7.6822911 h 0.540156 v 0.5483818 z m 0,-0.5483818 V 7.1311674 h 0.540156 v 0.5511237 z m 0,-0.5511237 V 6.5827855 h 0.540156 v 0.5483819 z m 0,-0.5483819 V 6.0316618 h 0.540156 V 6.5827855 Z M 24.14251,9.3192108 V 8.7817966 h 0.548382 v 0.5374142 z m 0,-0.5374142 V 8.2306729 h 0.548382 v 0.5511237 z m 0,-0.5511237 V 7.6822911 h 0.548382 v 0.5483818 z m 0,-0.5483818 V 7.1311674 h 0.548382 v 0.5511237 z m 0,-0.5511237 V 6.5827855 h 0.548382 v 0.5483819 z m 0,-0.5483819 V 6.0316618 h 0.548382 v 0.5511237 z m 0,-0.5511237 V 5.4805381 h 0.548382 v 0.5511237 z m 0,3.287549 v 0.542898 h -0.551123 v -0.542898 z m -0.551123,0 V 8.7817966 h 0.551123 v 0.5374142 z m 0,-0.5374142 V 8.2306729 h 0.551123 v 0.5511237 z m 0,-0.5511237 V 7.6822911 h 0.551123 v 0.5483818 z m 0,-2.1990111 V 5.4805381 h 0.551123 v 0.5511237 z m 0,-0.5511237 V 4.9431239 H 24.14251 V 5.4805381 Z M 23.043005,4.9431239 V 4.3920001 h 0.548382 v 0.5511238 z m 0.548382,4.3760869 v 0.542898 h -0.548382 v -0.542898 z m -0.548382,0 V 8.7817966 h 0.548382 v 0.5374142 z m 0,-0.5374142 V 8.2306729 h 0.548382 v 0.5511237 z m 0,-3.3012585 V 4.9431239 h 0.548382 V 5.4805381 Z M 22.491881,4.9431239 V 4.3920001 h 0.551124 v 0.5511238 z m 0.551124,4.3760869 v 0.542898 h -0.551124 v -0.542898 z m -0.551124,0 V 8.7817966 h 0.551124 v 0.5374142 z m 0,-1.6369197 V 7.1311674 h 0.551124 v 0.5511237 z m 0,-0.5511237 V 6.5827855 h 0.551124 v 0.5483819 z m 0,-0.5483819 V 6.0316618 h 0.551124 V 6.5827855 Z M 21.940757,4.9431239 V 4.3920001 h 0.551124 v 0.5511238 z m 0.551124,4.3760869 v 0.542898 h -0.551124 v -0.542898 z m -0.551124,0 V 8.7817966 h 0.551124 v 0.5374142 z m 0,-1.0885379 V 7.6822911 h 0.551124 v 0.5483818 z m 0,-0.5483818 V 7.1311674 h 0.551124 v 0.5511237 z m 0,-0.5511237 V 6.5827855 h 0.551124 v 0.5483819 z m 0,-0.5483819 V 6.0316618 h 0.551124 v 0.5511237 z m 0,-0.5511237 V 5.4805381 h 0.551124 V 6.0316618 Z M 21.403343,4.9431239 V 4.3920001 h 0.537414 v 0.5511238 z m 0.537414,4.3760869 v 0.542898 h -0.537414 v -0.542898 z m -0.537414,0 V 8.7817966 h 0.537414 v 0.5374142 z m 0,-1.0885379 V 7.6822911 h 0.537414 v 0.5483818 z m 0,-0.5483818 V 7.1311674 h 0.537414 v 0.5511237 z m 0,-0.5511237 V 6.5827855 h 0.537414 v 0.5483819 z m 0,-0.5483819 V 6.0316618 h 0.537414 v 0.5511237 z m 0,-0.5511237 V 5.4805381 h 0.537414 V 6.0316618 Z M 20.852219,4.9431239 V 4.3920001 h 0.551124 v 0.5511238 z m 0.551124,4.3760869 v 0.542898 h -0.551124 v -0.542898 z m -0.551124,0 V 8.7817966 h 0.551124 V 9.3192108 Z M 20.303838,4.9431239 V 4.3920001 h 0.548381 v 0.5511238 z m 0.548381,4.3760869 v 0.542898 h -0.548381 v -0.542898 z m -0.548381,0 V 8.7817966 h 0.548381 V 9.3192108 Z M 19.752714,4.9431239 V 4.3920001 h 0.551124 v 0.5511238 z m 0,4.3760869 V 8.7817966 h 0.551124 v 0.5374142 z m 0,-0.5374142 V 8.2306729 h 0.551124 v 0.5511237 z m 0,-0.5511237 V 7.6822911 h 0.551124 v 0.5483818 z m 0,-0.5483818 V 7.1311674 h 0.551124 v 0.5511237 z m 0,-0.5511237 V 6.5827855 h 0.551124 v 0.5483819 z m 0,-0.5483819 V 6.0316618 h 0.551124 v 0.5511237 z m 0,-0.5511237 V 5.4805381 h 0.551124 v 0.5511237 z m 0,-0.5511237 V 4.9431239 h 0.551124 v 0.5374142 z" gorn="0.3.2"  id="path44"/>
        <path style="font-size:5.61543px;line-height:14.2632px;font-family:Droid Sans;-inkscape-font-specification:Droid Sans;letter-spacing:0px;word-spacing:0px;fill:#000000;fill-opacity:1;stroke:none;stroke-width:0.749999;stroke-opacity:1" d="m 5.478334,23.905741 v 0.542898 H 4.938178 v -0.542898 z m -0.540156,0 v -0.537414 h 0.540156 v 0.537414 z m 0,-0.537414 v -0.551124 h 0.540156 v 0.551124 z m 0,-0.551124 v -0.548382 h 0.540156 v 0.548382 z m 0,-0.548382 v -0.551124 h 0.540156 v 0.551124 z m 0,-0.551124 v -0.548381 h 0.540156 v 0.548381 z m 0,-0.548381 v -0.551124 h 0.540156 v 0.551124 z m 0,-0.551124 v -0.551124 h 0.540156 v 0.551124 z m 0,3.287549 v 0.542898 H 4.389796 v -0.542898 z m -0.548382,0 v -0.537414 h 0.548382 v 0.537414 z m 0,-0.537414 v -0.551124 h 0.548382 v 0.551124 z m 0,-0.551124 v -0.548382 h 0.548382 v 0.548382 z m 0,-0.548382 v -0.551124 h 0.548382 v 0.551124 z m 0,-0.551124 v -0.548381 h 0.548382 v 0.548381 z m 0,-0.548381 v -0.551124 h 0.548382 v 0.551124 z m 0,-0.551124 v -0.551124 h 0.548382 v 0.551124 z m 0,-0.551124 v -0.537414 h 0.548382 v 0.537414 z M 3.838673,19.529654 V 18.97853 h 0.551123 v 0.551124 z m 0.551123,4.376087 v 0.542898 H 3.838673 v -0.542898 z m -0.551123,0 v -0.537414 h 0.551123 v 0.537414 z m 0,-2.736425 v -0.551124 h 0.551123 v 0.551124 z m 0,-1.102248 v -0.537414 h 0.551123 v 0.537414 z M 3.290291,19.529654 V 18.97853 h 0.548382 v 0.551124 z m 0.548382,4.376087 v 0.542898 H 3.290291 v -0.542898 z m -0.548382,0 v -0.537414 h 0.548382 v 0.537414 z m 0,-0.537414 v -0.551124 h 0.548382 v 0.551124 z m 0,-2.199011 v -0.551124 h 0.548382 v 0.551124 z M 2.739167,19.529654 V 18.97853 h 0.551124 v 0.551124 z m 0.551124,4.376087 v 0.542898 H 2.739167 v -0.542898 z m -0.551124,0 v -0.537414 h 0.551124 v 0.537414 z m 0,-1.088538 v -0.548382 h 0.551124 v 0.548382 z m 0,-0.548382 v -0.551124 h 0.551124 v 0.551124 z m 0,-1.099505 v -0.551124 h 0.551124 v 0.551124 z m 0,-0.551124 v -0.551124 h 0.551124 v 0.551124 z M 2.188043,19.529654 V 18.97853 h 0.551124 v 0.551124 z m 0.551124,4.376087 v 0.542898 H 2.188043 v -0.542898 z m -0.551124,0 v -0.537414 h 0.551124 v 0.537414 z m 0,-1.088538 v -0.548382 h 0.551124 v 0.548382 z m 0,-0.548382 v -0.551124 h 0.551124 v 0.551124 z m 0,-0.551124 v -0.548381 h 0.551124 v 0.548381 z m 0,-0.548381 v -0.551124 h 0.551124 v 0.551124 z m 0,-0.551124 v -0.551124 h 0.551124 v 0.551124 z M 1.650629,19.529654 V 18.97853 h 0.537414 v 0.551124 z m 0.537414,4.376087 v 0.542898 H 1.650629 v -0.542898 z m -0.537414,0 v -0.537414 h 0.537414 v 0.537414 z m 0,-1.088538 v -0.548382 h 0.537414 v 0.548382 z m 0,-0.548382 v -0.551124 h 0.537414 v 0.551124 z m 0,-0.551124 v -0.548381 h 0.537414 v 0.548381 z m 0,-0.548381 v -0.551124 h 0.537414 v 0.551124 z m 0,-0.551124 v -0.551124 h 0.537414 v 0.551124 z M 1.099505,19.529654 V 18.97853 h 0.551124 v 0.551124 z m 0.551124,4.376087 v 0.542898 H 1.099505 v -0.542898 z m -0.551124,0 v -0.537414 h 0.551124 v 0.537414 z M 0.551124,19.529654 V 18.97853 h 0.548381 v 0.551124 z m 0,4.376087 v -0.537414 h 0.548381 v 0.537414 z m 0,-0.537414 v -0.551124 h 0.548381 v 0.551124 z m 0,-3.301259 v -0.537414 h 0.548381 v 0.537414 z M 0,23.368327 v -0.551124 h 0.551124 v 0.551124 z m 0,-0.551124 v -0.548382 h 0.551124 v 0.548382 z m 0,-0.548382 v -0.551124 h 0.551124 v 0.551124 z m 0,-0.551124 v -0.548381 h 0.551124 v 0.548381 z m 0,-0.548381 v -0.551124 h 0.551124 v 0.551124 z m 0,-0.551124 v -0.551124 h 0.551124 v 0.551124 z m 0,-0.551124 v -0.537414 h 0.551124 v 0.537414 z m 10.416513,3.838673 v 0.542898 H 9.876357 v -0.542898 z m -0.540156,0 v -0.537414 h 0.540156 v 0.537414 z m 0,-0.537414 v -0.551124 h 0.540156 v 0.551124 z m 0,-0.551124 v -0.548382 h 0.540156 v 0.548382 z m 0,-0.548382 v -0.551124 h 0.540156 v 0.551124 z m 0,-0.551124 v -0.548381 h 0.540156 v 0.548381 z m 0,-0.548381 v -0.551124 h 0.540156 v 0.551124 z m 0,-0.551124 v -0.551124 h 0.540156 v 0.551124 z m 0,3.287549 v 0.542898 H 9.327975 v -0.542898 z m -0.548382,0 v -0.537414 h 0.548382 v 0.537414 z m 0,-0.537414 v -0.551124 h 0.548382 v 0.551124 z m 0,-0.551124 v -0.548382 h 0.548382 v 0.548382 z m 0,-0.548382 v -0.551124 h 0.548382 v 0.551124 z m 0,-0.551124 v -0.548381 h 0.548382 v 0.548381 z m 0,-0.548381 v -0.551124 h 0.548382 v 0.551124 z m 0,-0.551124 v -0.551124 h 0.548382 v 0.551124 z m 0,-0.551124 v -0.537414 h 0.548382 v 0.537414 z M 8.776851,19.529654 V 18.97853 h 0.551124 v 0.551124 z m 0.551124,4.376087 v 0.542898 H 8.776851 v -0.542898 z m -0.551124,0 v -0.537414 h 0.551124 v 0.537414 z m 0,-2.188044 v -0.548381 h 0.551124 v 0.548381 z m 0,-1.650629 v -0.537414 h 0.551124 v 0.537414 z M 8.228469,19.529654 V 18.97853 h 0.548382 v 0.551124 z m 0.548382,4.376087 v 0.542898 H 8.228469 v -0.542898 z m -0.548382,0 v -0.537414 h 0.548382 v 0.537414 z M 7.677346,19.529654 V 18.97853 h 0.551123 v 0.551124 z m 0,4.376087 v -0.537414 h 0.551123 v 0.537414 z m 0,-0.537414 v -0.551124 h 0.551123 v 0.551124 z m 0,-0.551124 v -0.548382 h 0.551123 v 0.548382 z m 0,-0.548382 v -0.551124 h 0.551123 v 0.551124 z m 0,-1.099505 v -0.551124 h 0.551123 v 0.551124 z m 0,-0.551124 v -0.551124 h 0.551123 v 0.551124 z M 7.126222,19.529654 V 18.97853 h 0.551124 v 0.551124 z m 0.551124,4.376087 v 0.542898 H 7.126222 v -0.542898 z m -0.551124,0 v -0.537414 h 0.551124 v 0.537414 z m 0,-0.537414 v -0.551124 h 0.551124 v 0.551124 z m 0,-0.551124 v -0.548382 h 0.551124 v 0.548382 z m 0,-0.548382 v -0.551124 h 0.551124 v 0.551124 z m 0,-1.099505 v -0.551124 h 0.551124 v 0.551124 z m 0,-0.551124 v -0.551124 h 0.551124 v 0.551124 z M 6.588808,19.529654 V 18.97853 h 0.537414 v 0.551124 z m 0.537414,4.376087 v 0.542898 H 6.588808 v -0.542898 z m -0.537414,0 v -0.537414 h 0.537414 v 0.537414 z m 0,-0.537414 v -0.551124 h 0.537414 v 0.551124 z m 0,-0.551124 v -0.548382 h 0.537414 v 0.548382 z m 0,-0.548382 v -0.551124 h 0.537414 v 0.551124 z m 0,-1.099505 v -0.551124 h 0.537414 v 0.551124 z m 0,-0.551124 v -0.551124 h 0.537414 v 0.551124 z M 6.037684,19.529654 V 18.97853 h 0.551124 v 0.551124 z m 0.551124,4.376087 v 0.542898 H 6.037684 v -0.542898 z m -0.551124,0 v -0.537414 h 0.551124 v 0.537414 z M 5.489302,19.529654 V 18.97853 h 0.548382 v 0.551124 z m 0.548382,4.376087 v 0.542898 H 5.489302 v -0.542898 z m -0.548382,0 v -0.537414 h 0.548382 v 0.537414 z M 4.938178,19.529654 V 18.97853 h 0.551124 v 0.551124 z m 0,4.376087 v -0.537414 h 0.551124 v 0.537414 z m 0,-0.537414 v -0.551124 h 0.551124 v 0.551124 z m 0,-0.551124 v -0.548382 h 0.551124 v 0.548382 z m 0,-0.548382 v -0.551124 h 0.551124 v 0.551124 z m 0,-0.551124 v -0.548381 h 0.551124 v 0.548381 z m 0,-0.548381 v -0.551124 h 0.551124 v 0.551124 z m 0,-0.551124 v -0.551124 h 0.551124 v 0.551124 z m 0,-0.551124 v -0.537414 h 0.551124 v 0.537414 z m 10.416513,3.838673 v 0.542898 h -0.540156 v -0.542898 z m -0.540156,0 v -0.537414 h 0.540156 v 0.537414 z m 0,-0.537414 v -0.551124 h 0.540156 v 0.551124 z m 0,-2.199011 v -0.551124 h 0.540156 v 0.551124 z m 0,-0.551124 v -0.551124 h 0.540156 v 0.551124 z m 0,-0.551124 v -0.537414 h 0.540156 v 0.537414 z M 14.266153,19.529654 V 18.97853 h 0.548382 v 0.551124 z m 0.548382,4.376087 v 0.542898 h -0.548382 v -0.542898 z m -0.548382,0 v -0.537414 h 0.548382 v 0.537414 z m 0,-0.537414 v -0.551124 h 0.548382 v 0.551124 z m 0,-0.551124 v -0.548382 h 0.548382 v 0.548382 z m 0,-0.548382 v -0.551124 h 0.548382 v 0.551124 z m 0,-0.551124 v -0.548381 h 0.548382 v 0.548381 z m 0,-0.548381 v -0.551124 h 0.548382 v 0.551124 z m 0,-0.551124 v -0.551124 h 0.548382 v 0.551124 z m 0,-0.551124 v -0.537414 h 0.548382 v 0.537414 z M 13.71503,19.529654 V 18.97853 h 0.551123 v 0.551124 z m 0.551123,4.376087 v 0.542898 H 13.71503 v -0.542898 z m -0.551123,0 v -0.537414 h 0.551123 v 0.537414 z m 0,-1.088538 v -0.548382 h 0.551123 v 0.548382 z m 0,-0.548382 v -0.551124 h 0.551123 v 0.551124 z m 0,-0.551124 v -0.548381 h 0.551123 v 0.548381 z m 0,-0.548381 v -0.551124 h 0.551123 v 0.551124 z m 0,-0.551124 v -0.551124 h 0.551123 v 0.551124 z M 13.166648,19.529654 V 18.97853 h 0.548382 v 0.551124 z m 0.548382,4.376087 v 0.542898 h -0.548382 v -0.542898 z m -0.548382,0 v -0.537414 h 0.548382 v 0.537414 z m 0,-1.088538 v -0.548382 h 0.548382 v 0.548382 z m 0,-0.548382 v -0.551124 h 0.548382 v 0.551124 z m 0,-1.099505 v -0.551124 h 0.548382 v 0.551124 z m 0,-0.551124 v -0.551124 h 0.548382 v 0.551124 z M 12.615524,19.529654 V 18.97853 h 0.551124 v 0.551124 z m 0.551124,4.376087 v 0.542898 h -0.551124 v -0.542898 z m -0.551124,0 v -0.537414 h 0.551124 v 0.537414 z m 0,-1.088538 v -0.548382 h 0.551124 v 0.548382 z m 0,-0.548382 v -0.551124 h 0.551124 v 0.551124 z m 0,-1.099505 v -0.551124 h 0.551124 v 0.551124 z m 0,-0.551124 v -0.551124 h 0.551124 v 0.551124 z M 12.0644,19.529654 V 18.97853 h 0.551124 v 0.551124 z m 0.551124,4.376087 v 0.542898 H 12.0644 v -0.542898 z m -0.551124,0 v -0.537414 h 0.551124 v 0.537414 z m 0,-1.088538 v -0.548382 h 0.551124 v 0.548382 z m 0,-0.548382 v -0.551124 h 0.551124 v 0.551124 z m 0,-1.099505 v -0.551124 h 0.551124 v 0.551124 z m 0,-0.551124 v -0.551124 h 0.551124 v 0.551124 z M 11.526986,19.529654 V 18.97853 H 12.0644 v 0.551124 z m 0.537414,4.376087 v 0.542898 h -0.537414 v -0.542898 z m -0.537414,0 V 23.368327 H 12.0644 v 0.537414 z m 0,-1.088538 V 22.268821 H 12.0644 v 0.548382 z m 0,-0.548382 V 21.717697 H 12.0644 v 0.551124 z m 0,-1.099505 V 20.618192 H 12.0644 v 0.551124 z m 0,-0.551124 V 20.067068 H 12.0644 v 0.551124 z M 10.975862,19.529654 V 18.97853 h 0.551124 v 0.551124 z m 0.551124,4.376087 v 0.542898 h -0.551124 v -0.542898 z m -0.551124,0 v -0.537414 h 0.551124 v 0.537414 z M 10.427481,19.529654 V 18.97853 h 0.548381 v 0.551124 z m 0.548381,4.376087 v 0.542898 h -0.548381 v -0.542898 z m -0.548381,0 v -0.537414 h 0.548381 v 0.537414 z M 9.876357,19.529654 V 18.97853 h 0.551124 v 0.551124 z m 0,4.376087 v -0.537414 h 0.551124 v 0.537414 z m 0,-0.537414 v -0.551124 h 0.551124 v 0.551124 z m 0,-0.551124 v -0.548382 h 0.551124 v 0.548382 z m 0,-0.548382 v -0.551124 h 0.551124 v 0.551124 z m 0,-0.551124 v -0.548381 h 0.551124 v 0.548381 z m 0,-0.548381 v -0.551124 h 0.551124 v 0.551124 z m 0,-0.551124 v -0.551124 h 0.551124 v 0.551124 z m 0,-0.551124 v -0.537414 h 0.551124 v 0.537414 z m 10.416512,3.838673 v 0.542898 h -0.540156 v -0.542898 z m -0.540156,0 v -0.537414 h 0.540156 v 0.537414 z m 0,-0.537414 v -0.551124 h 0.540156 v 0.551124 z m 0,-2.199011 v -0.551124 h 0.540156 v 0.551124 z m 0,-0.551124 v -0.551124 h 0.540156 v 0.551124 z m 0,-0.551124 v -0.537414 h 0.540156 v 0.537414 z M 19.204332,19.529654 V 18.97853 h 0.548381 v 0.551124 z m 0.548381,4.376087 v 0.542898 h -0.548381 v -0.542898 z m -0.548381,0 v -0.537414 h 0.548381 v 0.537414 z m 0,-0.537414 v -0.551124 h 0.548381 v 0.551124 z m 0,-0.551124 v -0.548382 h 0.548381 v 0.548382 z m 0,-0.548382 v -0.551124 h 0.548381 v 0.551124 z m 0,-0.551124 v -0.548381 h 0.548381 v 0.548381 z m 0,-0.548381 v -0.551124 h 0.548381 v 0.551124 z m 0,-0.551124 v -0.551124 h 0.548381 v 0.551124 z m 0,-0.551124 v -0.537414 h 0.548381 v 0.537414 z M 18.653208,19.529654 V 18.97853 h 0.551124 v 0.551124 z m 0.551124,4.376087 v 0.542898 h -0.551124 v -0.542898 z m -0.551124,0 v -0.537414 h 0.551124 v 0.537414 z m 0,-1.088538 v -0.548382 h 0.551124 v 0.548382 z m 0,-0.548382 v -0.551124 h 0.551124 v 0.551124 z m 0,-0.551124 v -0.548381 h 0.551124 v 0.548381 z m 0,-0.548381 v -0.551124 h 0.551124 v 0.551124 z m 0,-0.551124 v -0.551124 h 0.551124 v 0.551124 z M 18.104826,19.529654 V 18.97853 h 0.548382 v 0.551124 z m 0.548382,4.376087 v 0.542898 h -0.548382 v -0.542898 z m -0.548382,0 v -0.537414 h 0.548382 v 0.537414 z m 0,-1.088538 v -0.548382 h 0.548382 v 0.548382 z m 0,-0.548382 v -0.551124 h 0.548382 v 0.551124 z m 0,-1.099505 v -0.551124 h 0.548382 v 0.551124 z m 0,-0.551124 v -0.551124 h 0.548382 v 0.551124 z M 17.553702,19.529654 V 18.97853 h 0.551124 v 0.551124 z m 0.551124,4.376087 v 0.542898 h -0.551124 v -0.542898 z m -0.551124,0 v -0.537414 h 0.551124 v 0.537414 z m 0,-1.088538 v -0.548382 h 0.551124 v 0.548382 z m 0,-0.548382 v -0.551124 h 0.551124 v 0.551124 z m 0,-1.099505 v -0.551124 h 0.551124 v 0.551124 z m 0,-0.551124 v -0.551124 h 0.551124 v 0.551124 z M 17.002578,19.529654 V 18.97853 h 0.551124 v 0.551124 z m 0.551124,4.376087 v 0.542898 h -0.551124 v -0.542898 z m -0.551124,0 v -0.537414 h 0.551124 v 0.537414 z m 0,-1.088538 v -0.548382 h 0.551124 v 0.548382 z m 0,-0.548382 v -0.551124 h 0.551124 v 0.551124 z m 0,-1.099505 v -0.551124 h 0.551124 v 0.551124 z m 0,-0.551124 v -0.551124 h 0.551124 v 0.551124 z M 16.465164,19.529654 V 18.97853 h 0.537414 v 0.551124 z m 0.537414,4.376087 v 0.542898 h -0.537414 v -0.542898 z m -0.537414,0 v -0.537414 h 0.537414 v 0.537414 z m 0,-1.088538 v -0.548382 h 0.537414 v 0.548382 z m 0,-0.548382 v -0.551124 h 0.537414 v 0.551124 z m 0,-1.099505 v -0.551124 h 0.537414 v 0.551124 z m 0,-0.551124 v -0.551124 h 0.537414 v 0.551124 z M 15.914041,19.529654 V 18.97853 h 0.551123 v 0.551124 z m 0.551123,4.376087 v 0.542898 h -0.551123 v -0.542898 z m -0.551123,0 v -0.537414 h 0.551123 v 0.537414 z M 15.365659,19.529654 V 18.97853 h 0.548382 v 0.551124 z m 0.548382,4.376087 v 0.542898 h -0.548382 v -0.542898 z m -0.548382,0 v -0.537414 h 0.548382 v 0.537414 z M 14.814535,19.529654 V 18.97853 h 0.551124 v 0.551124 z m 0,4.376087 v -0.537414 h 0.551124 v 0.537414 z m 0,-0.537414 v -0.551124 h 0.551124 v 0.551124 z m 0,-0.551124 v -0.548382 h 0.551124 v 0.548382 z m 0,-0.548382 v -0.551124 h 0.551124 v 0.551124 z m 0,-0.551124 v -0.548381 h 0.551124 v 0.548381 z m 0,-0.548381 v -0.551124 h 0.551124 v 0.551124 z m 0,-0.551124 v -0.551124 h 0.551124 v 0.551124 z m 0,-0.551124 v -0.537414 h 0.551124 v 0.537414 z m 10.416513,3.838673 v 0.542898 h -0.540156 v -0.542898 z m -0.540156,0 v -0.537414 h 0.540156 v 0.537414 z m 0,-0.537414 v -0.551124 h 0.540156 v 0.551124 z m 0,-0.551124 v -0.548382 h 0.540156 v 0.548382 z m 0,-0.548382 v -0.551124 h 0.540156 v 0.551124 z m 0,-0.551124 v -0.548381 h 0.540156 v 0.548381 z m 0,-0.548381 v -0.551124 h 0.540156 v 0.551124 z m 0,-0.551124 v -0.551124 h 0.540156 v 0.551124 z m 0,-0.551124 v -0.537414 h 0.540156 v 0.537414 z M 24.142511,19.529654 V 18.97853 h 0.548381 v 0.551124 z m 0.548381,4.376087 v 0.542898 h -0.548381 v -0.542898 z m -0.548381,0 v -0.537414 h 0.548381 v 0.537414 z m 0,-0.537414 v -0.551124 h 0.548381 v 0.551124 z m 0,-0.551124 v -0.548382 h 0.548381 v 0.548382 z m 0,-0.548382 v -0.551124 h 0.548381 v 0.551124 z m 0,-0.551124 v -0.548381 h 0.548381 v 0.548381 z m 0,-0.548381 v -0.551124 h 0.548381 v 0.551124 z m 0,-0.551124 v -0.551124 h 0.548381 v 0.551124 z m 0,-0.551124 v -0.537414 h 0.548381 v 0.537414 z M 23.591387,19.529654 V 18.97853 h 0.551124 v 0.551124 z m 0.551124,4.376087 v 0.542898 h -0.551124 v -0.542898 z m -0.551124,0 v -0.537414 h 0.551124 v 0.537414 z M 23.043005,19.529654 V 18.97853 h 0.548382 v 0.551124 z m 0.548382,4.376087 v 0.542898 h -0.548382 v -0.542898 z m -0.548382,0 v -0.537414 h 0.548382 v 0.537414 z M 22.491881,19.529654 V 18.97853 h 0.551124 v 0.551124 z m 0,4.376087 v -0.537414 h 0.551124 v 0.537414 z m 0,-0.537414 v -0.551124 h 0.551124 v 0.551124 z m 0,-0.551124 v -0.548382 h 0.551124 v 0.548382 z m 0,-1.647887 v -0.551124 h 0.551124 v 0.551124 z m 0,-0.551124 v -0.551124 h 0.551124 v 0.551124 z m 0,-0.551124 v -0.537414 h 0.551124 v 0.537414 z m 0,3.838673 v 0.542898 h -0.551124 v -0.542898 z m -0.551124,0 v -0.537414 h 0.551124 v 0.537414 z m 0,-0.537414 v -0.551124 h 0.551124 v 0.551124 z m 0,-0.551124 v -0.548382 h 0.551124 v 0.548382 z m 0,-0.548382 v -0.551124 h 0.551124 v 0.551124 z m 0,-1.650629 v -0.551124 h 0.551124 v 0.551124 z m 0,-0.551124 v -0.537414 h 0.551124 v 0.537414 z M 21.403343,19.529654 V 18.97853 h 0.537414 v 0.551124 z m 0.537414,4.376087 v 0.542898 h -0.537414 v -0.542898 z m -0.537414,0 v -0.537414 h 0.537414 v 0.537414 z m 0,-0.537414 v -0.551124 h 0.537414 v 0.551124 z m 0,-0.551124 v -0.548382 h 0.537414 v 0.548382 z m 0,-0.548382 v -0.551124 h 0.537414 v 0.551124 z m 0,-0.551124 v -0.548381 h 0.537414 v 0.548381 z m 0,-1.650629 v -0.537414 h 0.537414 v 0.537414 z M 20.85222,19.529654 V 18.97853 h 0.551123 v 0.551124 z m 0.551123,4.376087 v 0.542898 H 20.85222 v -0.542898 z m -0.551123,0 v -0.537414 h 0.551123 v 0.537414 z M 20.303838,19.529654 V 18.97853 h 0.548382 v 0.551124 z m 0.548382,4.376087 v 0.542898 h -0.548382 v -0.542898 z m -0.548382,0 v -0.537414 h 0.548382 v 0.537414 z M 19.752714,19.529654 V 18.97853 h 0.551124 v 0.551124 z m 0,4.376087 v -0.537414 h 0.551124 v 0.537414 z m 0,-0.537414 v -0.551124 h 0.551124 v 0.551124 z m 0,-0.551124 v -0.548382 h 0.551124 v 0.548382 z m 0,-0.548382 v -0.551124 h 0.551124 v 0.551124 z m 0,-0.551124 v -0.548381 h 0.551124 v 0.548381 z m 0,-0.548381 v -0.551124 h 0.551124 v 0.551124 z m 0,-0.551124 v -0.551124 h 0.551124 v 0.551124 z m 0,-0.551124 v -0.537414 h 0.551124 v 0.537414 z" gorn="0.3.3"  id="path45"/>
        <path style="font-size:5.61543px;line-height:14.2632px;font-family:Droid Sans;-inkscape-font-specification:Droid Sans;letter-spacing:0px;word-spacing:0px;fill:#000000;fill-opacity:1;stroke:none;stroke-width:0.749999;stroke-opacity:1" d="m 10.424738,38.492271 v -0.537414 h 0.540156 v 0.537414 z m 0,-0.537414 v -0.551124 h 0.540156 v 0.551124 z m 0,-0.551124 v -0.548382 h 0.540156 v 0.548382 z m 0,-0.548382 v -0.551124 h 0.540156 v 0.551124 z m 0,-0.551124 v -0.548381 h 0.540156 v 0.548381 z m 0,-0.548381 v -0.551124 h 0.540156 v 0.551124 z m 0,-0.551124 v -0.551124 h 0.540156 v 0.551124 z m 0,3.287549 v 0.542898 H 9.876356 v -0.542898 z m -0.548382,0 v -0.537414 h 0.548382 v 0.537414 z m 0,-0.537414 v -0.551124 h 0.548382 v 0.551124 z m 0,-0.551124 v -0.548382 h 0.548382 v 0.548382 z m 0,-0.548382 v -0.551124 h 0.548382 v 0.551124 z m 0,-0.551124 v -0.548381 h 0.548382 v 0.548381 z m 0,-0.548381 v -0.551124 h 0.548382 v 0.551124 z m 0,-0.551124 v -0.551124 h 0.548382 v 0.551124 z m 0,-0.551124 v -0.537414 h 0.548382 v 0.537414 z M 9.325233,34.116184 V 33.56506 h 0.551123 v 0.551124 z m 0.551123,4.376087 v 0.542898 H 9.325233 v -0.542898 z m -0.551123,0 v -0.537414 h 0.551123 v 0.537414 z m 0,-0.537414 v -0.551124 h 0.551123 v 0.551124 z m 0,-1.65063 v -0.548381 h 0.551123 v 0.548381 z m 0,-1.650629 v -0.537414 h 0.551123 v 0.537414 z M 8.776851,34.116184 V 33.56506 h 0.548382 v 0.551124 z m 0.548382,4.376087 v 0.542898 H 8.776851 v -0.542898 z m -0.548382,0 v -0.537414 h 0.548382 v 0.537414 z M 8.225727,34.116184 V 33.56506 h 0.551124 v 0.551124 z m 0.551124,4.376087 v 0.542898 H 8.225727 v -0.542898 z m -0.551124,0 v -0.537414 h 0.551124 v 0.537414 z m 0,-1.088538 v -0.548382 h 0.551124 v 0.548382 z m 0,-0.548382 v -0.551124 h 0.551124 v 0.551124 z m 0,-1.099505 v -0.551124 h 0.551124 v 0.551124 z m 0,-0.551124 v -0.551124 h 0.551124 v 0.551124 z M 7.674603,34.116184 V 33.56506 h 0.551124 v 0.551124 z m 0.551124,4.376087 v 0.542898 H 7.674603 v -0.542898 z m -0.551124,0 v -0.537414 h 0.551124 v 0.537414 z m 0,-1.088538 v -0.548382 h 0.551124 v 0.548382 z m 0,-0.548382 v -0.551124 h 0.551124 v 0.551124 z m 0,-1.099505 v -0.551124 h 0.551124 v 0.551124 z m 0,-0.551124 v -0.551124 h 0.551124 v 0.551124 z M 7.137189,34.116184 V 33.56506 h 0.537414 v 0.551124 z m 0.537414,4.376087 v 0.542898 H 7.137189 v -0.542898 z m -0.537414,0 v -0.537414 h 0.537414 v 0.537414 z m 0,-1.088538 v -0.548382 h 0.537414 v 0.548382 z m 0,-0.548382 v -0.551124 h 0.537414 v 0.551124 z m 0,-1.099505 v -0.551124 h 0.537414 v 0.551124 z m 0,-0.551124 v -0.551124 h 0.537414 v 0.551124 z M 6.586065,34.116184 V 33.56506 h 0.551124 v 0.551124 z m 0.551124,4.376087 v 0.542898 H 6.586065 v -0.542898 z m -0.551124,0 v -0.537414 h 0.551124 v 0.537414 z M 6.037684,34.116184 V 33.56506 h 0.548381 v 0.551124 z m 0.548381,4.376087 v 0.542898 H 6.037684 v -0.542898 z m -0.548381,0 v -0.537414 h 0.548381 v 0.537414 z M 5.48656,34.116184 V 33.56506 h 0.551124 v 0.551124 z m 0,4.376087 v -0.537414 h 0.551124 v 0.537414 z m 0,-0.537414 v -0.551124 h 0.551124 v 0.551124 z m 0,-0.551124 v -0.548382 h 0.551124 v 0.548382 z m 0,-0.548382 v -0.551124 h 0.551124 v 0.551124 z m 0,-0.551124 v -0.548381 h 0.551124 v 0.548381 z m 0,-0.548381 v -0.551124 h 0.551124 v 0.551124 z m 0,-0.551124 v -0.551124 h 0.551124 v 0.551124 z m 0,-0.551124 v -0.537414 h 0.551124 v 0.537414 z m 9.876357,3.838673 v 0.542898 h -0.548382 v -0.542898 z m -0.548382,0 v -0.537414 h 0.548382 v 0.537414 z m 0,-0.537414 v -0.551124 h 0.548382 v 0.551124 z m 0,0.537414 v 0.542898 h -0.551124 v -0.542898 z m -0.551124,0 v -0.537414 h 0.551124 v 0.537414 z m 0,-0.537414 v -0.551124 h 0.551124 v 0.551124 z m 0,-0.551124 v -0.548382 h 0.551124 v 0.548382 z m 0,1.088538 v 0.542898 h -0.548382 v -0.542898 z m -0.548382,0 v -0.537414 h 0.548382 v 0.537414 z m 0,-1.088538 v -0.548382 h 0.548382 v 0.548382 z m 0,1.088538 v 0.542898 h -0.551123 v -0.542898 z m -0.551123,0 v -0.537414 h 0.551123 v 0.537414 z m 0,-1.088538 v -0.548382 h 0.551123 v 0.548382 z m 0,1.088538 v 0.542898 h -0.551124 v -0.542898 z m -0.551124,0 v -0.537414 h 0.551124 v 0.537414 z m 0,-1.088538 v -0.548382 h 0.551124 v 0.548382 z m 0,-0.548382 v -0.551124 h 0.551124 v 0.551124 z m 0,-0.551124 v -0.548381 h 0.551124 v 0.548381 z m 0,-0.548381 v -0.551124 h 0.551124 v 0.551124 z m 0,-0.551124 v -0.551124 h 0.551124 v 0.551124 z m 0,-0.551124 v -0.537414 h 0.551124 v 0.537414 z M 12.075368,34.116184 V 33.56506 h 0.537414 v 0.551124 z m 0.537414,4.376087 v 0.542898 h -0.537414 v -0.542898 z m -0.537414,0 v -0.537414 h 0.537414 v 0.537414 z m 0,-1.088538 v -0.548382 h 0.537414 v 0.548382 z m 0,-0.548382 v -0.551124 h 0.537414 v 0.551124 z m 0,-0.551124 v -0.548381 h 0.537414 v 0.548381 z m 0,-0.548381 v -0.551124 h 0.537414 v 0.551124 z m 0,-0.551124 v -0.551124 h 0.537414 v 0.551124 z m 0,-0.551124 v -0.537414 h 0.537414 v 0.537414 z M 11.524244,34.116184 V 33.56506 h 0.551124 v 0.551124 z m 0.551124,4.376087 v 0.542898 h -0.551124 v -0.542898 z m -0.551124,0 v -0.537414 h 0.551124 v 0.537414 z M 10.975862,34.116184 V 33.56506 h 0.548382 v 0.551124 z m 0.548382,4.376087 v 0.542898 h -0.548382 v -0.542898 z m -0.548382,0 v -0.537414 h 0.548382 v 0.537414 z M 10.424738,34.116184 V 33.56506 h 0.551124 v 0.551124 z m 0,4.376087 v -0.537414 h 0.551124 v 0.537414 z m 0,-0.537414 v -0.551124 h 0.551124 v 0.551124 z m 0,-0.551124 v -0.548382 h 0.551124 v 0.548382 z m 0,-0.548382 v -0.551124 h 0.551124 v 0.551124 z m 0,-0.551124 v -0.548381 h 0.551124 v 0.548381 z m 0,-0.548381 v -0.551124 h 0.551124 v 0.551124 z m 0,-0.551124 v -0.551124 h 0.551124 v 0.551124 z m 0,-0.551124 v -0.537414 h 0.551124 v 0.537414 z m 9.327975,3.838673 v -0.537414 h 0.540157 v 0.537414 z m 0,-0.537414 v -0.551124 h 0.540157 v 0.551124 z m 0,-0.551124 v -0.548382 h 0.540157 v 0.548382 z m 0,-0.548382 v -0.551124 h 0.540157 v 0.551124 z m 0,-0.551124 v -0.548381 h 0.540157 v 0.548381 z m 0,-0.548381 v -0.551124 h 0.540157 v 0.551124 z m 0,-0.551124 v -0.551124 h 0.540157 v 0.551124 z m 0,-0.551124 v -0.537414 h 0.540157 v 0.537414 z M 19.204332,34.116184 V 33.56506 h 0.548381 v 0.551124 z m 0.548381,4.376087 v 0.542898 h -0.548381 v -0.542898 z m -0.548381,0 v -0.537414 h 0.548381 v 0.537414 z m 0,-0.537414 v -0.551124 h 0.548381 v 0.551124 z m 0,-0.551124 v -0.548382 h 0.548381 v 0.548382 z m 0,-0.548382 v -0.551124 h 0.548381 v 0.551124 z m 0,-0.551124 v -0.548381 h 0.548381 v 0.548381 z m 0,-0.548381 v -0.551124 h 0.548381 v 0.551124 z m 0,-0.551124 v -0.551124 h 0.548381 v 0.551124 z m 0,-0.551124 v -0.537414 h 0.548381 v 0.537414 z M 18.653208,34.116184 V 33.56506 h 0.551124 v 0.551124 z m 0.551124,4.376087 v 0.542898 h -0.551124 v -0.542898 z m -0.551124,0 v -0.537414 h 0.551124 v 0.537414 z m 0,-0.537414 v -0.551124 h 0.551124 v 0.551124 z M 18.104826,34.116184 V 33.56506 h 0.548382 v 0.551124 z m 0.548382,4.376087 v 0.542898 h -0.548382 v -0.542898 z m -0.548382,0 v -0.537414 h 0.548382 v 0.537414 z M 17.553702,34.116184 V 33.56506 h 0.551124 v 0.551124 z m 0.551124,4.376087 v 0.542898 h -0.551124 v -0.542898 z m -0.551124,0 v -0.537414 h 0.551124 v 0.537414 z m 0,-1.088538 v -0.548382 h 0.551124 v 0.548382 z m 0,-0.548382 v -0.551124 h 0.551124 v 0.551124 z m 0,-0.551124 v -0.548381 h 0.551124 v 0.548381 z m 0,-0.548381 v -0.551124 h 0.551124 v 0.551124 z m 0,-0.551124 v -0.551124 h 0.551124 v 0.551124 z m 0,-0.551124 v -0.537414 h 0.551124 v 0.537414 z m 0,3.838673 v 0.542898 h -0.551123 v -0.542898 z m -0.551123,0 v -0.537414 h 0.551123 v 0.537414 z m 0,-1.088538 v -0.548382 h 0.551123 v 0.548382 z m 0,-0.548382 v -0.551124 h 0.551123 v 0.551124 z m 0,-0.551124 v -0.548381 h 0.551123 v 0.548381 z m 0,-0.548381 v -0.551124 h 0.551123 v 0.551124 z m 0,-0.551124 v -0.551124 h 0.551123 v 0.551124 z m 0,-0.551124 v -0.537414 h 0.551123 v 0.537414 z M 16.465164,34.116184 V 33.56506 h 0.537415 v 0.551124 z m 0.537415,4.376087 v 0.542898 h -0.537415 v -0.542898 z m -0.537415,0 v -0.537414 h 0.537415 v 0.537414 z m 0,-1.088538 v -0.548382 h 0.537415 v 0.548382 z m 0,-0.548382 v -0.551124 h 0.537415 v 0.551124 z m 0,-0.551124 v -0.548381 h 0.537415 v 0.548381 z m 0,-0.548381 v -0.551124 h 0.537415 v 0.551124 z m 0,-0.551124 v -0.551124 h 0.537415 v 0.551124 z m 0,-0.551124 v -0.537414 h 0.537415 v 0.537414 z M 15.914041,34.116184 V 33.56506 h 0.551123 v 0.551124 z m 0.551123,4.376087 v 0.542898 h -0.551123 v -0.542898 z m -0.551123,0 v -0.537414 h 0.551123 v 0.537414 z M 15.365659,34.116184 V 33.56506 h 0.548382 v 0.551124 z m 0,4.376087 v -0.537414 h 0.548382 v 0.537414 z m 0,-0.537414 v -0.551124 h 0.548382 v 0.551124 z M 14.814535,34.116184 V 33.56506 h 0.551124 v 0.551124 z m 0,3.838673 v -0.551124 h 0.551124 v 0.551124 z m 0,-0.551124 v -0.548382 h 0.551124 v 0.548382 z m 0,-0.548382 v -0.551124 h 0.551124 v 0.551124 z m 0,-0.551124 v -0.548381 h 0.551124 v 0.548381 z m 0,-0.548381 v -0.551124 h 0.551124 v 0.551124 z m 0,-0.551124 v -0.551124 h 0.551124 v 0.551124 z m 0,-0.551124 v -0.537414 h 0.551124 v 0.537414 z m 10.416513,3.838673 v 0.542898 h -0.540156 v -0.542898 z m -0.540156,0 v -0.537414 h 0.540156 v 0.537414 z m 0,-0.537414 v -0.551124 h 0.540156 v 0.551124 z m 0,-2.199011 v -0.551124 h 0.540156 v 0.551124 z m 0,-0.551124 v -0.551124 h 0.540156 v 0.551124 z m 0,-0.551124 v -0.537414 h 0.540156 v 0.537414 z M 24.14251,34.116184 V 33.56506 h 0.548382 v 0.551124 z m 0.548382,4.376087 v 0.542898 H 24.14251 v -0.542898 z m -0.548382,0 v -0.537414 h 0.548382 v 0.537414 z m 0,-0.537414 v -0.551124 h 0.548382 v 0.551124 z m 0,-0.551124 v -0.548382 h 0.548382 v 0.548382 z m 0,-0.548382 v -0.551124 h 0.548382 v 0.551124 z m 0,-0.551124 v -0.548381 h 0.548382 v 0.548381 z m 0,-0.548381 v -0.551124 h 0.548382 v 0.551124 z m 0,-0.551124 v -0.551124 h 0.548382 v 0.551124 z m 0,-0.551124 v -0.537414 h 0.548382 v 0.537414 z M 23.591386,34.116184 V 33.56506 h 0.551124 v 0.551124 z m 0.551124,4.376087 v 0.542898 h -0.551124 v -0.542898 z m -0.551124,0 v -0.537414 h 0.551124 v 0.537414 z m 0,-1.088538 v -0.548382 h 0.551124 v 0.548382 z m 0,-0.548382 v -0.551124 h 0.551124 v 0.551124 z m 0,-0.551124 v -0.548381 h 0.551124 v 0.548381 z m 0,-0.548381 v -0.551124 h 0.551124 v 0.551124 z m 0,-0.551124 v -0.551124 h 0.551124 v 0.551124 z M 23.043004,34.116184 V 33.56506 h 0.548382 v 0.551124 z m 0.548382,4.376087 v 0.542898 h -0.548382 v -0.542898 z m -0.548382,0 v -0.537414 h 0.548382 v 0.537414 z m 0,-1.088538 v -0.548382 h 0.548382 v 0.548382 z m 0,-0.548382 v -0.551124 h 0.548382 v 0.551124 z m 0,-1.099505 v -0.551124 h 0.548382 v 0.551124 z m 0,-0.551124 v -0.551124 h 0.548382 v 0.551124 z M 22.49188,34.116184 V 33.56506 h 0.551124 v 0.551124 z m 0.551124,4.376087 v 0.542898 H 22.49188 v -0.542898 z m -0.551124,0 v -0.537414 h 0.551124 v 0.537414 z m 0,-1.088538 v -0.548382 h 0.551124 v 0.548382 z m 0,-0.548382 v -0.551124 h 0.551124 v 0.551124 z m 0,-1.099505 v -0.551124 h 0.551124 v 0.551124 z m 0,-0.551124 v -0.551124 h 0.551124 v 0.551124 z M 21.940757,34.116184 V 33.56506 h 0.551123 v 0.551124 z m 0.551123,4.376087 v 0.542898 h -0.551123 v -0.542898 z m -0.551123,0 v -0.537414 h 0.551123 v 0.537414 z m 0,-1.088538 v -0.548382 h 0.551123 v 0.548382 z m 0,-0.548382 v -0.551124 h 0.551123 v 0.551124 z m 0,-1.099505 v -0.551124 h 0.551123 v 0.551124 z m 0,-0.551124 v -0.551124 h 0.551123 v 0.551124 z M 21.403342,34.116184 V 33.56506 h 0.537415 v 0.551124 z m 0.537415,4.376087 v 0.542898 h -0.537415 v -0.542898 z m -0.537415,0 v -0.537414 h 0.537415 v 0.537414 z m 0,-1.088538 v -0.548382 h 0.537415 v 0.548382 z m 0,-0.548382 v -0.551124 h 0.537415 v 0.551124 z m 0,-1.099505 v -0.551124 h 0.537415 v 0.551124 z m 0,-0.551124 v -0.551124 h 0.537415 v 0.551124 z M 20.852219,34.116184 V 33.56506 h 0.551123 v 0.551124 z m 0.551123,4.376087 v 0.542898 h -0.551123 v -0.542898 z m -0.551123,0 v -0.537414 h 0.551123 v 0.537414 z M 20.303837,34.116184 V 33.56506 h 0.548382 v 0.551124 z m 0.548382,4.376087 v 0.542898 h -0.548382 v -0.542898 z m -0.548382,0 v -0.537414 h 0.548382 v 0.537414 z M 19.752713,34.116184 V 33.56506 h 0.551124 v 0.551124 z m 0,4.376087 v -0.537414 h 0.551124 v 0.537414 z m 0,-0.537414 v -0.551124 h 0.551124 v 0.551124 z m 0,-0.551124 v -0.548382 h 0.551124 v 0.548382 z m 0,-0.548382 v -0.551124 h 0.551124 v 0.551124 z m 0,-0.551124 v -0.548381 h 0.551124 v 0.548381 z m 0,-0.548381 v -0.551124 h 0.551124 v 0.551124 z m 0,-0.551124 v -0.551124 h 0.551124 v 0.551124 z m 0,-0.551124 v -0.537414 h 0.551124 v 0.537414 z" gorn="0.3.4"  id="path46"/>
        <path style="font-size:5.61543px;line-height:14.2632px;font-family:Droid Sans;-inkscape-font-specification:Droid Sans;letter-spacing:0px;word-spacing:0px;fill:#000000;fill-opacity:1;stroke:none;stroke-width:0.749999;stroke-opacity:1" d="m 10.424738,53.078801 v -0.537414 h 0.540156 v 0.537414 z m 0,-0.537414 v -0.551124 h 0.540156 v 0.551124 z m 0,-0.551124 v -0.548382 h 0.540156 v 0.548382 z m 0,-0.548382 v -0.551124 h 0.540156 v 0.551124 z m 0,-0.551124 v -0.548381 h 0.540156 v 0.548381 z m 0,-0.548381 v -0.551124 h 0.540156 v 0.551124 z m 0,-0.551124 v -0.551124 h 0.540156 v 0.551124 z m 0,3.287549 v 0.542898 H 9.876356 v -0.542898 z m -0.548382,0 v -0.537414 h 0.548382 v 0.537414 z m 0,-0.537414 v -0.551124 h 0.548382 v 0.551124 z m 0,-0.551124 v -0.548382 h 0.548382 v 0.548382 z m 0,-0.548382 v -0.551124 h 0.548382 v 0.551124 z m 0,-0.551124 v -0.548381 h 0.548382 v 0.548381 z m 0,-0.548381 v -0.551124 h 0.548382 v 0.551124 z m 0,-0.551124 v -0.551124 h 0.548382 v 0.551124 z m 0,-0.551124 v -0.537414 h 0.548382 v 0.537414 z M 9.325233,48.702714 V 48.15159 h 0.551123 v 0.551124 z m 0.551123,4.376087 v 0.542898 H 9.325233 v -0.542898 z m -0.551123,0 v -0.537414 h 0.551123 v 0.537414 z m 0,-0.537414 v -0.551124 h 0.551123 v 0.551124 z m 0,-1.65063 v -0.548381 h 0.551123 v 0.548381 z m 0,-0.548381 v -0.551124 h 0.551123 v 0.551124 z m 0,-1.102248 v -0.537414 h 0.551123 v 0.537414 z M 8.776851,48.702714 V 48.15159 h 0.548382 v 0.551124 z m 0.548382,4.376087 v 0.542898 H 8.776851 v -0.542898 z m -0.548382,0 v -0.537414 h 0.548382 v 0.537414 z m 0,-2.736425 v -0.551124 h 0.548382 v 0.551124 z M 8.225727,48.702714 V 48.15159 h 0.551124 v 0.551124 z m 0.551124,4.376087 v 0.542898 H 8.225727 v -0.542898 z m -0.551124,0 v -0.537414 h 0.551124 v 0.537414 z m 0,-1.088538 v -0.548382 h 0.551124 v 0.548382 z m 0,-0.548382 v -0.551124 h 0.551124 v 0.551124 z m 0,-1.099505 v -0.551124 h 0.551124 v 0.551124 z m 0,-0.551124 v -0.551124 h 0.551124 v 0.551124 z M 7.674603,48.702714 V 48.15159 h 0.551124 v 0.551124 z m 0.551124,4.376087 v 0.542898 H 7.674603 v -0.542898 z m -0.551124,0 v -0.537414 h 0.551124 v 0.537414 z m 0,-1.088538 v -0.548382 h 0.551124 v 0.548382 z m 0,-0.548382 v -0.551124 h 0.551124 v 0.551124 z m 0,-1.099505 v -0.551124 h 0.551124 v 0.551124 z m 0,-0.551124 v -0.551124 h 0.551124 v 0.551124 z M 7.137189,48.702714 V 48.15159 h 0.537414 v 0.551124 z m 0.537414,4.376087 v 0.542898 H 7.137189 v -0.542898 z m -0.537414,0 v -0.537414 h 0.537414 v 0.537414 z m 0,-1.088538 v -0.548382 h 0.537414 v 0.548382 z m 0,-0.548382 v -0.551124 h 0.537414 v 0.551124 z m 0,-1.099505 v -0.551124 h 0.537414 v 0.551124 z m 0,-0.551124 v -0.551124 h 0.537414 v 0.551124 z M 6.586065,48.702714 V 48.15159 h 0.551124 v 0.551124 z m 0.551124,4.376087 v 0.542898 H 6.586065 v -0.542898 z m -0.551124,0 v -0.537414 h 0.551124 v 0.537414 z m 0,-1.63692 v -0.551124 h 0.551124 v 0.551124 z M 6.037684,48.702714 V 48.15159 h 0.548381 v 0.551124 z m 0,4.376087 v -0.537414 h 0.548381 v 0.537414 z m 0,-0.537414 v -0.551124 h 0.548381 v 0.551124 z m 0,-1.099506 v -0.551124 h 0.548381 v 0.551124 z m 0,-0.551124 v -0.548381 h 0.548381 v 0.548381 z m 0,-1.650629 v -0.537414 h 0.548381 v 0.537414 z M 5.48656,52.541387 v -0.551124 h 0.551124 v 0.551124 z m 0,-0.551124 v -0.548382 h 0.551124 v 0.548382 z m 0,-0.548382 v -0.551124 h 0.551124 v 0.551124 z m 0,-0.551124 v -0.548381 h 0.551124 v 0.548381 z m 0,-0.548381 v -0.551124 h 0.551124 v 0.551124 z m 0,-0.551124 v -0.551124 h 0.551124 v 0.551124 z m 0,-0.551124 v -0.537414 h 0.551124 v 0.537414 z m 9.327975,2.201753 v -0.551124 h 0.548382 v 0.551124 z m 0,-0.551124 v -0.548381 h 0.548382 v 0.548381 z m 0,-0.548381 v -0.551124 h 0.548382 v 0.551124 z m 0,-0.551124 v -0.551124 h 0.548382 v 0.551124 z m 0,-0.551124 v -0.537414 h 0.548382 v 0.537414 z M 14.263411,48.702714 V 48.15159 h 0.551124 v 0.551124 z m 0,3.287549 v -0.548382 h 0.551124 v 0.548382 z m 0,-0.548382 v -0.551124 h 0.551124 v 0.551124 z m 0,-0.551124 v -0.548381 h 0.551124 v 0.548381 z m 0,-0.548381 v -0.551124 h 0.551124 v 0.551124 z m 0,-0.551124 v -0.551124 h 0.551124 v 0.551124 z m 0,-0.551124 v -0.537414 h 0.551124 v 0.537414 z M 13.715029,48.702714 V 48.15159 h 0.548382 v 0.551124 z m 0.548382,4.376087 v 0.542898 h -0.548382 v -0.542898 z m -0.548382,0 v -0.537414 h 0.548382 v 0.537414 z m 0,-0.537414 v -0.551124 h 0.548382 v 0.551124 z m 0,-0.551124 v -0.548382 h 0.548382 v 0.548382 z m 0,-0.548382 v -0.551124 h 0.548382 v 0.551124 z m 0,-0.551124 v -0.548381 h 0.548382 v 0.548381 z M 13.163906,48.702714 V 48.15159 h 0.551123 v 0.551124 z m 0.551123,4.376087 v 0.542898 h -0.551123 v -0.542898 z m -0.551123,0 v -0.537414 h 0.551123 v 0.537414 z m 0,-0.537414 v -0.551124 h 0.551123 v 0.551124 z m 0,-0.551124 v -0.548382 h 0.551123 v 0.548382 z m 0,-0.548382 v -0.551124 h 0.551123 v 0.551124 z M 12.612782,48.702714 V 48.15159 h 0.551124 v 0.551124 z m 0.551124,4.376087 v 0.542898 h -0.551124 v -0.542898 z m -0.551124,0 v -0.537414 h 0.551124 v 0.537414 z m 0,-2.736425 v -0.551124 h 0.551124 v 0.551124 z m 0,-0.551124 v -0.551124 h 0.551124 v 0.551124 z m 0,-0.551124 v -0.537414 h 0.551124 v 0.537414 z M 12.075368,48.702714 V 48.15159 h 0.537414 v 0.551124 z m 0.537414,4.376087 v 0.542898 h -0.537414 v -0.542898 z m -0.537414,0 v -0.537414 h 0.537414 v 0.537414 z m 0,-2.736425 v -0.551124 h 0.537414 v 0.551124 z m 0,-0.551124 v -0.551124 h 0.537414 v 0.551124 z m 0,-0.551124 v -0.537414 h 0.537414 v 0.537414 z M 11.524244,48.702714 V 48.15159 h 0.551124 v 0.551124 z m 0,4.376087 v -0.537414 h 0.551124 v 0.537414 z m 0,-0.537414 v -0.551124 h 0.551124 v 0.551124 z m 0,-0.551124 v -0.548382 h 0.551124 v 0.548382 z m 0,-0.548382 v -0.551124 h 0.551124 v 0.551124 z M 10.975862,48.702714 V 48.15159 h 0.548382 v 0.551124 z m 0,2.739167 v -0.551124 h 0.548382 v 0.551124 z m 0,-0.551124 v -0.548381 h 0.548382 v 0.548381 z M 10.424738,48.702714 V 48.15159 h 0.551124 v 0.551124 z m 0,2.188043 v -0.548381 h 0.551124 v 0.548381 z m 0,-0.548381 v -0.551124 h 0.551124 v 0.551124 z m 0,-0.551124 v -0.551124 h 0.551124 v 0.551124 z m 0,-0.551124 v -0.537414 h 0.551124 v 0.537414 z m 9.868132,3.838673 v 0.542898 h -0.540157 v -0.542898 z m -0.540157,0 v -0.537414 h 0.540157 v 0.537414 z m 0,-0.537414 v -0.551124 h 0.540157 v 0.551124 z m 0,-0.551124 v -0.548382 h 0.540157 v 0.548382 z m 0,-0.548382 v -0.551124 h 0.540157 v 0.551124 z m 0,-0.551124 v -0.548381 h 0.540157 v 0.548381 z m 0,-0.548381 v -0.551124 h 0.540157 v 0.551124 z m 0,-0.551124 v -0.551124 h 0.540157 v 0.551124 z m 0,-0.551124 v -0.537414 h 0.540157 v 0.537414 z M 19.204332,48.702714 V 48.15159 h 0.548381 v 0.551124 z m 0.548381,4.376087 v 0.542898 h -0.548381 v -0.542898 z m -0.548381,0 v -0.537414 h 0.548381 v 0.537414 z m 0,-0.537414 v -0.551124 h 0.548381 v 0.551124 z m 0,-0.551124 v -0.548382 h 0.548381 v 0.548382 z m 0,-0.548382 v -0.551124 h 0.548381 v 0.551124 z m 0,-0.551124 v -0.548381 h 0.548381 v 0.548381 z m 0,-0.548381 v -0.551124 h 0.548381 v 0.551124 z m 0,-0.551124 v -0.551124 h 0.548381 v 0.551124 z m 0,-0.551124 v -0.537414 h 0.548381 v 0.537414 z M 18.653208,48.702714 V 48.15159 h 0.551124 v 0.551124 z m 0.551124,4.376087 v 0.542898 h -0.551124 v -0.542898 z m -0.551124,0 v -0.537414 h 0.551124 v 0.537414 z M 18.104826,48.702714 V 48.15159 h 0.548382 v 0.551124 z m 0.548382,4.376087 v 0.542898 h -0.548382 v -0.542898 z m -0.548382,0 v -0.537414 h 0.548382 v 0.537414 z M 17.553702,48.702714 V 48.15159 h 0.551124 v 0.551124 z m 0,4.376087 v -0.537414 h 0.551124 v 0.537414 z m 0,-0.537414 v -0.551124 h 0.551124 v 0.551124 z m 0,-0.551124 v -0.548382 h 0.551124 v 0.548382 z m 0,-1.647887 v -0.551124 h 0.551124 v 0.551124 z m 0,-0.551124 v -0.551124 h 0.551124 v 0.551124 z m 0,-0.551124 v -0.537414 h 0.551124 v 0.537414 z m 0,3.838673 v 0.542898 h -0.551123 v -0.542898 z m -0.551123,0 v -0.537414 h 0.551123 v 0.537414 z m 0,-0.537414 v -0.551124 h 0.551123 v 0.551124 z m 0,-0.551124 v -0.548382 h 0.551123 v 0.548382 z m 0,-0.548382 v -0.551124 h 0.551123 v 0.551124 z m 0,-1.650629 v -0.551124 h 0.551123 v 0.551124 z m 0,-0.551124 v -0.537414 h 0.551123 v 0.537414 z M 16.465164,48.702714 V 48.15159 h 0.537415 v 0.551124 z m 0.537415,4.376087 v 0.542898 h -0.537415 v -0.542898 z m -0.537415,0 v -0.537414 h 0.537415 v 0.537414 z m 0,-0.537414 v -0.551124 h 0.537415 v 0.551124 z m 0,-0.551124 v -0.548382 h 0.537415 v 0.548382 z m 0,-0.548382 v -0.551124 h 0.537415 v 0.551124 z m 0,-0.551124 v -0.548381 h 0.537415 v 0.548381 z m 0,-1.650629 v -0.537414 h 0.537415 v 0.537414 z M 15.914041,48.702714 V 48.15159 h 0.551123 v 0.551124 z m 0.551123,4.376087 v 0.542898 h -0.551123 v -0.542898 z m -0.551123,0 v -0.537414 h 0.551123 v 0.537414 z M 15.365659,48.702714 V 48.15159 h 0.548382 v 0.551124 z m 0.548382,4.376087 v 0.542898 h -0.548382 v -0.542898 z m -0.548382,0 v -0.537414 h 0.548382 v 0.537414 z M 14.814535,48.702714 V 48.15159 h 0.551124 v 0.551124 z m 0,4.376087 v -0.537414 h 0.551124 v 0.537414 z m 0,-0.537414 v -0.551124 h 0.551124 v 0.551124 z m 0,-0.551124 v -0.548382 h 0.551124 v 0.548382 z m 0,-0.548382 v -0.551124 h 0.551124 v 0.551124 z m 0,-0.551124 v -0.548381 h 0.551124 v 0.548381 z m 0,-0.548381 v -0.551124 h 0.551124 v 0.551124 z m 0,-0.551124 v -0.551124 h 0.551124 v 0.551124 z m 0,-0.551124 v -0.537414 h 0.551124 v 0.537414 z m 9.876357,3.838673 v -0.537414 h 0.540156 v 0.537414 z m 0,-0.537414 v -0.551124 h 0.540156 v 0.551124 z m 0,-0.551124 v -0.548382 h 0.540156 v 0.548382 z m 0,-1.099506 v -0.548381 h 0.540156 v 0.548381 z m 0,-0.548381 v -0.551124 h 0.540156 v 0.551124 z m 0,-0.551124 v -0.551124 h 0.540156 v 0.551124 z m 0,3.287549 v 0.542898 H 24.14251 v -0.542898 z m -0.548382,0 v -0.537414 h 0.548382 v 0.537414 z m 0,-0.537414 v -0.551124 h 0.548382 v 0.551124 z m 0,-0.551124 v -0.548382 h 0.548382 v 0.548382 z m 0,-0.548382 v -0.551124 h 0.548382 v 0.551124 z m 0,-0.551124 v -0.548381 h 0.548382 v 0.548381 z m 0,-0.548381 v -0.551124 h 0.548382 v 0.551124 z m 0,-0.551124 v -0.551124 h 0.548382 v 0.551124 z m 0,-0.551124 v -0.537414 h 0.548382 v 0.537414 z M 23.591386,48.702714 V 48.15159 h 0.551124 v 0.551124 z m 0.551124,4.376087 v 0.542898 h -0.551124 v -0.542898 z m -0.551124,0 v -0.537414 h 0.551124 v 0.537414 z m 0,-0.537414 v -0.551124 h 0.551124 v 0.551124 z m 0,-1.099506 v -0.551124 h 0.551124 v 0.551124 z m 0,-0.551124 v -0.548381 h 0.551124 v 0.548381 z m 0,-0.548381 v -0.551124 h 0.551124 v 0.551124 z m 0,-1.102248 v -0.537414 h 0.551124 v 0.537414 z M 23.043004,48.702714 V 48.15159 h 0.548382 v 0.551124 z m 0.548382,4.376087 v 0.542898 h -0.548382 v -0.542898 z m -0.548382,0 v -0.537414 h 0.548382 v 0.537414 z m 0,-1.63692 v -0.551124 h 0.548382 v 0.551124 z m 0,-0.551124 v -0.548381 h 0.548382 v 0.548381 z m 0,-0.548381 v -0.551124 h 0.548382 v 0.551124 z M 22.49188,48.702714 V 48.15159 h 0.551124 v 0.551124 z m 0.551124,4.376087 v 0.542898 H 22.49188 v -0.542898 z m -0.551124,0 v -0.537414 h 0.551124 v 0.537414 z m 0,-1.088538 v -0.548382 h 0.551124 v 0.548382 z m 0,-0.548382 v -0.551124 h 0.551124 v 0.551124 z m 0,-0.551124 v -0.548381 h 0.551124 v 0.548381 z m 0,-0.548381 v -0.551124 h 0.551124 v 0.551124 z m 0,-0.551124 v -0.551124 h 0.551124 v 0.551124 z M 21.940757,48.702714 V 48.15159 h 0.551123 v 0.551124 z m 0.551123,4.376087 v 0.542898 h -0.551123 v -0.542898 z m -0.551123,0 v -0.537414 h 0.551123 v 0.537414 z m 0,-1.088538 v -0.548382 h 0.551123 v 0.548382 z m 0,-0.548382 v -0.551124 h 0.551123 v 0.551124 z m 0,-0.551124 v -0.548381 h 0.551123 v 0.548381 z m 0,-0.548381 v -0.551124 h 0.551123 v 0.551124 z m 0,-0.551124 v -0.551124 h 0.551123 v 0.551124 z M 21.403342,48.702714 V 48.15159 h 0.537415 v 0.551124 z m 0.537415,4.376087 v 0.542898 h -0.537415 v -0.542898 z m -0.537415,0 v -0.537414 h 0.537415 v 0.537414 z m 0,-1.088538 v -0.548382 h 0.537415 v 0.548382 z m 0,-0.548382 v -0.551124 h 0.537415 v 0.551124 z m 0,-0.551124 v -0.548381 h 0.537415 v 0.548381 z m 0,-0.548381 v -0.551124 h 0.537415 v 0.551124 z m 0,-0.551124 v -0.551124 h 0.537415 v 0.551124 z M 20.852219,48.702714 V 48.15159 h 0.551123 v 0.551124 z m 0.551123,4.376087 v 0.542898 h -0.551123 v -0.542898 z m -0.551123,0 v -0.537414 h 0.551123 v 0.537414 z M 20.303837,48.702714 V 48.15159 h 0.548382 v 0.551124 z m 0,4.376087 v -0.537414 h 0.548382 v 0.537414 z m 0,-0.537414 v -0.551124 h 0.548382 v 0.551124 z m 0,-3.301259 v -0.537414 h 0.548382 v 0.537414 z m -0.551124,3.301259 v -0.551124 h 0.551124 v 0.551124 z m 0,-0.551124 v -0.548382 h 0.551124 v 0.548382 z m 0,-0.548382 v -0.551124 h 0.551124 v 0.551124 z m 0,-0.551124 v -0.548381 h 0.551124 v 0.548381 z m 0,-0.548381 v -0.551124 h 0.551124 v 0.551124 z m 0,-0.551124 v -0.551124 h 0.551124 v 0.551124 z m 0,-0.551124 v -0.537414 h 0.551124 v 0.537414 z" gorn="0.3.5"  id="path47"/>
    </g>
</svg>
