<?xml version="1.0" encoding="UTF-8" standalone="no"?>
<svg
   viewBox="0 0 38.188459 58.401023"
   gorn="0"
   height="14.834mm"
   width="9.6999998mm"
   id="svg7"
   version="1.1"
   xmlns="http://www.w3.org/2000/svg"
   xmlns:svg="http://www.w3.org/2000/svg">
  <defs
     id="defs19">
    <defs
       id="defs7" />
  </defs>
  <desc
     id="desc1">
    <referenceFile>P2-Standard.svg</referenceFile>
  </desc>
  <g
     gorn="0.1.0.0.0.0.0.0.2.0.0.0.0.0.0"
     id="silkscreen"
     transform="matrix(0.99996373,0,0,0.99996373,-4030.9556,-3014.3315)">
    <path
       stroke="none"
       fill="#000000"
       stroke-opacity="1"
       gorn="0.1.0.0.0.0.0.0.2.0.0.0.0.0.0.0"
       fill-opacity="1"
       d="m 4037.4023,3054.791 a 0.5,0.5 0 0 0 -0.5,0.5 v 0.5899 a 0.5,0.5 0 0 0 0.5,0.5 0.5,0.5 0 0 0 0.5,-0.5 v -0.5899 a 0.5,0.5 0 0 0 -0.5,-0.5 z"
       id="gge61"
       style="color:#000000;stroke-linecap:round;stroke-linejoin:round;-inkscape-shape-rendering:crispEdges" />
    <path
       stroke="none"
       fill="#000000"
       stroke-opacity="1"
       gorn="0.1.0.0.0.0.0.0.2.0.0.0.0.0.0.1"
       fill-opacity="1"
       d="m 4040,3014.4414 a 0.5,0.5 0 0 0 -0.5,0.5 v 2.1563 a 0.5,0.5 0 0 0 0.5,0.5 0.5,0.5 0 0 0 0.5,-0.5 v -2.1563 a 0.5,0.5 0 0 0 -0.5,-0.5 z"
       id="gge64"
       style="color:#000000;stroke-linecap:round;stroke-linejoin:round;-inkscape-shape-rendering:crispEdges" />
    <path
       stroke="none"
       fill="#000000"
       stroke-opacity="1"
       gorn="0.1.0.0.0.0.0.0.2.0.0.0.0.0.0.2"
       fill-opacity="1"
       d="m 4060,3014.4414 a 0.5,0.5 0 0 0 -0.5,0.5 v 2.7246 a 0.5,0.5 0 0 0 0.5,0.5 0.5,0.5 0 0 0 0.5,-0.5 v -2.7246 a 0.5,0.5 0 0 0 -0.5,-0.5 z"
       id="gge67"
       style="color:#000000;stroke-linecap:round;stroke-linejoin:round;-inkscape-shape-rendering:crispEdges" />
    <path
       stroke="none"
       fill="#000000"
       stroke-opacity="1"
       gorn="0.1.0.0.0.0.0.0.2.0.0.0.0.0.0.3"
       fill-opacity="1"
       d="m 4062.5977,3070.7832 a 0.5,0.5 0 0 0 -0.5,0.5 v 1.0586 a 0.5,0.5 0 0 0 0.5,0.5 0.5,0.5 0 0 0 0.5,-0.5 v -1.0586 a 0.5,0.5 0 0 0 -0.5,-0.5 z"
       id="gge91"
       style="color:#000000;stroke-linecap:round;stroke-linejoin:round;-inkscape-shape-rendering:crispEdges" />
    <g
       stroke="none"
       fill="#000000"
       stroke-opacity="1"
       gorn="0.1.0.0.0.0.0.0.2.0.0.0.0.0.0.4"
       fill-opacity="1"
       id="circle5">
      <path
         stroke="none"
         fill="#000000"
         stroke-opacity="1"
         gorn="0.1.0.0.0.0.0.0.2.0.0.0.0.0.0.4.0"
         fill-opacity="1"
         d="m 4052.9528,3034.9404 a 2.9528,2.9528 0 0 1 -2.9528,2.9528 2.9528,2.9528 0 0 1 -2.9528,-2.9528 2.9528,2.9528 0 0 1 2.9528,-2.9528 2.9528,2.9528 0 0 1 2.9528,2.9528 z"
         id="path13"
         style="color:#000000;-inkscape-shape-rendering:crispEdges" />
      <path
         stroke="none"
         fill="#000000"
         stroke-opacity="1"
         gorn="0.1.0.0.0.0.0.0.2.0.0.0.0.0.0.4.1"
         fill-opacity="1"
         d="m 4050,3031.4883 c -1.901,0 -3.4531,1.5501 -3.4531,3.4512 0,1.901 1.5521,3.4531 3.4531,3.4531 1.901,0 3.4531,-1.5521 3.4531,-3.4531 0,-1.9011 -1.5521,-3.4512 -3.4531,-3.4512 z m 0,1 c 1.3606,0 2.4531,1.0906 2.4531,2.4512 0,1.3605 -1.0925,2.4531 -2.4531,2.4531 -1.3606,0 -2.4531,-1.0926 -2.4531,-2.4531 0,-1.3606 1.0925,-2.4512 2.4531,-2.4512 z"
         id="path19"
         style="color:#000000;-inkscape-shape-rendering:crispEdges" />
    </g>
    <g
       stroke="none"
       fill="#000000"
       stroke-opacity="1"
       gorn="0.1.0.0.0.0.0.0.2.0.0.0.0.0.0.5"
       fill-opacity="1"
       id="circle6">
      <path
         stroke="none"
         fill="#000000"
         stroke-opacity="1"
         gorn="0.1.0.0.0.0.0.0.2.0.0.0.0.0.0.5.0"
         fill-opacity="1"
         d="m 4052.9528,3058.5635 a 2.9528,2.9528 0 0 1 -2.9528,2.9528 2.9528,2.9528 0 0 1 -2.9528,-2.9528 2.9528,2.9528 0 0 1 2.9528,-2.9528 2.9528,2.9528 0 0 1 2.9528,2.9528 z"
         id="path11"
         style="color:#000000;-inkscape-shape-rendering:crispEdges" />
      <path
         stroke="none"
         fill="#000000"
         stroke-opacity="1"
         gorn="0.1.0.0.0.0.0.0.2.0.0.0.0.0.0.5.1"
         fill-opacity="1"
         d="m 4050,3055.1113 c -1.901,0 -3.4531,1.5521 -3.4531,3.4532 0,1.901 1.5521,3.4511 3.4531,3.4511 1.901,0 3.4531,-1.5501 3.4531,-3.4511 0,-1.9011 -1.5521,-3.4532 -3.4531,-3.4532 z m 0,1 c 1.3606,0 2.4531,1.0926 2.4531,2.4532 0,1.3605 -1.0925,2.4511 -2.4531,2.4511 -1.3606,0 -2.4531,-1.0906 -2.4531,-2.4511 0,-1.3606 1.0925,-2.4532 2.4531,-2.4532 z"
         id="path20"
         style="color:#000000;-inkscape-shape-rendering:crispEdges" />
    </g>
    <path
       stroke="none"
       fill="#000000"
       stroke-opacity="1"
       gorn="0.1.0.0.0.0.0.0.2.0.0.0.0.0.0.6"
       fill-opacity="1"
       d="m 4037.4023,3068.899 a 0.5,0.23044517 0 0 0 -0.5,0.2305 v 3.4819 a 0.5,0.23044517 0 0 0 0.5,0.2304 0.5,0.23044517 0 0 0 0.5,-0.2304 v -3.4819 a 0.5,0.23044517 0 0 0 -0.5,-0.2305 z"
       id="gge58"
       style="color:#000000;stroke-width:0.678889;stroke-linecap:round;stroke-linejoin:round;-inkscape-shape-rendering:crispEdges" />
    <path
       stroke="none"
       fill="#000000"
       stroke-opacity="1"
       gorn="0.1.0.0.0.0.0.0.2.0.0.0.0.0.0.7"
       fill-opacity="1"
       d="m 4040,3014.4414 a 0.5,0.5 0 0 0 -0.5,0.5 0.5,0.5 0 0 0 0.5,0.5 h 20 a 0.5,0.5 0 0 0 0.5,-0.5 0.5,0.5 0 0 0 -0.5,-0.5 z"
       id="gge70"
       style="color:#000000;stroke-linecap:round;stroke-linejoin:round;-inkscape-shape-rendering:crispEdges" />
    <path
       stroke="none"
       fill="#000000"
       stroke-opacity="1"
       gorn="0.1.0.0.0.0.0.0.2.0.0.0.0.0.0.8"
       fill-opacity="1"
       d="m 4037.4023,3024.5977 a 0.5,0.5 0 0 0 -0.5,0.5 0.5,0.5 0 0 0 0.5,0.5 h 25.1954 a 0.5,0.5 0 0 0 0.5,-0.5 0.5,0.5 0 0 0 -0.5,-0.5 z"
       id="gge73"
       style="color:#000000;stroke-linecap:round;stroke-linejoin:round;-inkscape-shape-rendering:crispEdges" />
    <path
       stroke="none"
       fill="#000000"
       stroke-opacity="1"
       gorn="0.1.0.0.0.0.0.0.2.0.0.0.0.0.0.9"
       fill-opacity="1"
       d="m 4060,3016.5977 a 0.5,0.5 0 0 0 -0.5,0.5 v 8 a 0.5,0.5 0 0 0 0.5,0.5 0.5,0.5 0 0 0 0.5,-0.5 v -8 a 0.5,0.5 0 0 0 -0.5,-0.5 z"
       id="gge76"
       style="color:#000000;stroke-linecap:round;stroke-linejoin:round;-inkscape-shape-rendering:crispEdges" />
    <path
       stroke="none"
       fill="#000000"
       stroke-opacity="1"
       gorn="0.1.0.0.0.0.0.0.2.0.0.0.0.0.0.10"
       fill-opacity="1"
       d="m 4037.4023,3071.8418 a 0.5,0.5 0 0 0 -0.5,0.5 0.5,0.5 0 0 0 0.5,0.5 h 25.1954 a 0.5,0.5 0 0 0 0.5,-0.5 0.5,0.5 0 0 0 -0.5,-0.5 z"
       id="gge79"
       style="color:#000000;stroke-linecap:round;stroke-linejoin:round;-inkscape-shape-rendering:crispEdges" />
    <path
       stroke="none"
       fill="#000000"
       stroke-opacity="1"
       gorn="0.1.0.0.0.0.0.0.2.0.0.0.0.0.0.11"
       fill-opacity="1"
       d="m 4040,3016.5977 a 0.5,0.5 0 0 0 -0.5,0.5 v 8 a 0.5,0.5 0 0 0 0.5,0.5 0.5,0.5 0 0 0 0.5,-0.5 v -8 a 0.5,0.5 0 0 0 -0.5,-0.5 z"
       id="gge82"
       style="color:#000000;stroke-linecap:round;stroke-linejoin:round;-inkscape-shape-rendering:crispEdges" />
    <path
       stroke="none"
       fill="#000000"
       stroke-opacity="1"
       gorn="0.1.0.0.0.0.0.0.2.0.0.0.0.0.0.12"
       fill-opacity="1"
       d="m 4062.5977,3024.5977 a 0.5,0.5 0 0 0 -0.5,0.5 v 14.4453 a 0.5,0.5 0 0 0 0.5,0.5 0.5,0.5 0 0 0 0.5,-0.5 v -14.4453 a 0.5,0.5 0 0 0 -0.5,-0.5 z"
       id="gge85"
       style="color:#000000;stroke-linecap:round;stroke-linejoin:round;-inkscape-shape-rendering:crispEdges" />
    <path
       stroke="none"
       fill="#000000"
       stroke-opacity="1"
       gorn="0.1.0.0.0.0.0.0.2.0.0.0.0.0.0.13"
       fill-opacity="1"
       d="m 4062.5977,3047.9512 a 0.5,0.5 0 0 0 -0.5,0.5 v 13.9258 a 0.5,0.5 0 0 0 0.5,0.5 0.5,0.5 0 0 0 0.5,-0.5 v -13.9258 a 0.5,0.5 0 0 0 -0.5,-0.5 z"
       id="gge88"
       style="color:#000000;stroke-linecap:round;stroke-linejoin:round;-inkscape-shape-rendering:crispEdges" />
    <path
       stroke="none"
       fill="#000000"
       stroke-opacity="1"
       gorn="0.1.0.0.0.0.0.0.2.0.0.0.0.0.0.14"
       fill-opacity="1"
       d="m 4037.4023,3036.9258 a 0.5,0.5 0 0 0 -0.5,0.5 v 17.8652 a 0.5,0.5 0 0 0 0.5,0.5 0.5,0.5 0 0 0 0.5,-0.5 v -17.8652 a 0.5,0.5 0 0 0 -0.5,-0.5 z"
       id="gge94"
       style="color:#000000;stroke-linecap:round;stroke-linejoin:round;-inkscape-shape-rendering:crispEdges" />
    <path
       stroke="none"
       fill="#000000"
       stroke-opacity="1"
       gorn="0.1.0.0.0.0.0.0.2.0.0.0.0.0.0.15"
       fill-opacity="1"
       d="m 4037.4023,3024.5977 a 0.5,0.5 0 0 0 -0.5,0.5 v 3.4218 a 0.5,0.5 0 0 0 0.5,0.5 0.5,0.5 0 0 0 0.5,-0.5 v -3.4218 a 0.5,0.5 0 0 0 -0.5,-0.5 z"
       id="gge97"
       style="color:#000000;stroke-linecap:round;stroke-linejoin:round;-inkscape-shape-rendering:crispEdges" />
    <path
       stroke="none"
       fill="#000000"
       stroke-opacity="1"
       aria-label="Comm"
       stroke-width="0.40946"
       gorn="0.1.0.0.0.0.0.0.2.0.0.0.0.0.0.16"
       font-size="3.44643px"
       fill-opacity="1"
       d="m 4040.0239,3028.9472 q 0,0.024 0,0.042 0,0.018 -0.01,0.032 0,0.014 -0.01,0.024 -0.01,0.011 -0.021,0.026 -0.015,0.015 -0.064,0.047 -0.048,0.03 -0.1211,0.061 -0.071,0.029 -0.1651,0.049 -0.092,0.021 -0.203,0.021 -0.1908,0 -0.3453,-0.064 -0.1529,-0.064 -0.262,-0.1878 -0.1075,-0.1242 -0.1666,-0.306 -0.058,-0.1832 -0.058,-0.421 0,-0.2439 0.062,-0.4347 0.064,-0.1908 0.1772,-0.3226 0.1136,-0.1333 0.2712,-0.2029 0.159,-0.07 0.3513,-0.07 0.085,0 0.1651,0.017 0.08,0.015 0.1484,0.039 0.068,0.024 0.1212,0.056 0.053,0.032 0.073,0.053 0.021,0.02 0.027,0.03 0.01,0.011 0.01,0.026 0,0.014 0.01,0.033 0,0.02 0,0.047 0,0.03 0,0.051 0,0.021 -0.01,0.036 -0.01,0.014 -0.015,0.021 -0.01,0.01 -0.02,0.01 -0.021,0 -0.059,-0.029 -0.038,-0.03 -0.098,-0.065 -0.059,-0.036 -0.1454,-0.065 -0.085,-0.03 -0.2045,-0.03 -0.1302,0 -0.2378,0.053 -0.106,0.052 -0.1817,0.153 -0.076,0.1014 -0.1182,0.2483 -0.041,0.1454 -0.041,0.3332 0,0.1863 0.039,0.3302 0.041,0.1424 0.1151,0.2393 0.076,0.095 0.1848,0.1454 0.1091,0.048 0.2469,0.048 0.1166,0 0.2029,-0.029 0.088,-0.029 0.1485,-0.064 0.062,-0.036 0.1014,-0.065 0.039,-0.029 0.062,-0.029 0.011,0 0.018,0 0.01,0 0.012,0.018 0,0.012 0.01,0.035 0,0.023 0,0.058 z m 1.5843,-0.4574 q 0,0.1666 -0.044,0.3075 -0.044,0.1393 -0.1317,0.2408 -0.086,0.1014 -0.2181,0.159 -0.1303,0.056 -0.3029,0.056 -0.1682,0 -0.2939,-0.05 -0.1242,-0.05 -0.2075,-0.1454 -0.083,-0.095 -0.1242,-0.2318 -0.041,-0.1363 -0.041,-0.3089 0,-0.1666 0.042,-0.306 0.044,-0.1408 0.1302,-0.2423 0.088,-0.1015 0.2181,-0.1575 0.1303,-0.056 0.3044,-0.056 0.1682,0 0.2923,0.05 0.1258,0.05 0.2091,0.1454 0.083,0.095 0.1242,0.2317 0.042,0.1364 0.042,0.3075 z m -0.2636,0.017 q 0,-0.1106 -0.021,-0.209 -0.02,-0.099 -0.067,-0.1727 -0.047,-0.074 -0.1272,-0.1166 -0.08,-0.044 -0.2,-0.044 -0.1105,0 -0.1908,0.039 -0.079,0.039 -0.1303,0.1121 -0.051,0.071 -0.077,0.1696 -0.024,0.099 -0.024,0.2151 0,0.1121 0.02,0.2105 0.021,0.099 0.068,0.1727 0.048,0.073 0.1288,0.1166 0.08,0.042 0.1999,0.042 0.109,0 0.1893,-0.039 0.08,-0.039 0.1318,-0.1105 0.052,-0.071 0.076,-0.1697 0.024,-0.098 0.024,-0.2165 z m 2.6535,0.68 q 0,0.012 -0.01,0.021 -0.01,0.01 -0.02,0.014 -0.014,0.01 -0.038,0.01 -0.024,0 -0.061,0 -0.038,0 -0.062,0 -0.024,0 -0.039,-0.01 -0.014,-0.01 -0.02,-0.014 -0.01,-0.01 -0.01,-0.021 v -0.8285 q 0,-0.086 -0.015,-0.1575 -0.015,-0.071 -0.048,-0.1227 -0.033,-0.052 -0.085,-0.079 -0.052,-0.027 -0.1212,-0.027 -0.086,0 -0.1741,0.067 -0.086,0.067 -0.1909,0.1953 v 0.9527 q 0,0.012 -0.01,0.021 -0.01,0.01 -0.021,0.014 -0.014,0.01 -0.038,0.01 -0.024,0 -0.061,0 -0.035,0 -0.061,0 -0.024,0 -0.039,-0.01 -0.014,-0.01 -0.02,-0.014 0,-0.01 0,-0.021 v -0.8285 q 0,-0.086 -0.017,-0.1575 -0.017,-0.071 -0.05,-0.1227 -0.033,-0.052 -0.085,-0.079 -0.05,-0.027 -0.1197,-0.027 -0.086,0 -0.1742,0.067 -0.088,0.067 -0.1908,0.1953 v 0.9527 q 0,0.012 -0.01,0.021 -0.01,0.01 -0.02,0.014 -0.014,0.01 -0.038,0.01 -0.024,0 -0.062,0 -0.036,0 -0.061,0 -0.024,0 -0.039,-0.01 -0.014,-0.01 -0.02,-0.014 0,-0.01 0,-0.021 v -1.3631 q 0,-0.012 0,-0.02 0,-0.01 0.018,-0.015 0.014,-0.01 0.035,-0.01 0.021,0 0.056,0 0.033,0 0.054,0 0.023,0 0.035,0.01 0.012,0.01 0.017,0.015 0.01,0.01 0.01,0.02 v 0.1802 q 0.1151,-0.1287 0.2226,-0.1878 0.1091,-0.061 0.2196,-0.061 0.085,0 0.1515,0.02 0.068,0.02 0.1196,0.056 0.052,0.035 0.088,0.085 0.036,0.048 0.061,0.109 0.068,-0.074 0.1287,-0.1257 0.062,-0.052 0.1181,-0.083 0.058,-0.032 0.1106,-0.045 0.055,-0.015 0.109,-0.015 0.1318,0 0.2212,0.047 0.089,0.045 0.1439,0.1227 0.056,0.077 0.079,0.1817 0.024,0.103 0.024,0.2181 z m 2.4779,0 q 0,0.012 -0.01,0.021 -0.01,0.01 -0.02,0.014 -0.014,0.01 -0.038,0.01 -0.024,0 -0.061,0 -0.038,0 -0.062,0 -0.024,0 -0.039,-0.01 -0.014,-0.01 -0.02,-0.014 -0.01,-0.01 -0.01,-0.021 v -0.8285 q 0,-0.086 -0.015,-0.1575 -0.015,-0.071 -0.049,-0.1227 -0.033,-0.052 -0.085,-0.079 -0.052,-0.027 -0.1211,-0.027 -0.086,0 -0.1742,0.067 -0.086,0.067 -0.1908,0.1953 v 0.9527 q 0,0.012 -0.01,0.021 -0.01,0.01 -0.021,0.014 -0.014,0.01 -0.038,0.01 -0.024,0 -0.061,0 -0.035,0 -0.061,0 -0.024,0 -0.039,-0.01 -0.014,-0.01 -0.02,-0.014 0,-0.01 0,-0.021 v -0.8285 q 0,-0.086 -0.017,-0.1575 -0.017,-0.071 -0.05,-0.1227 -0.033,-0.052 -0.085,-0.079 -0.05,-0.027 -0.1197,-0.027 -0.086,0 -0.1741,0.067 -0.088,0.067 -0.1909,0.1953 v 0.9527 q 0,0.012 -0.01,0.021 -0.01,0.01 -0.02,0.014 -0.014,0.01 -0.038,0.01 -0.024,0 -0.062,0 -0.036,0 -0.061,0 -0.024,0 -0.039,-0.01 -0.014,-0.01 -0.02,-0.014 0,-0.01 0,-0.021 v -1.3631 q 0,-0.012 0,-0.02 0,-0.01 0.018,-0.015 0.014,-0.01 0.035,-0.01 0.021,0 0.056,0 0.033,0 0.055,0 0.023,0 0.035,0.01 0.012,0.01 0.017,0.015 0.01,0.01 0.01,0.02 v 0.1802 q 0.1151,-0.1287 0.2226,-0.1878 0.1091,-0.061 0.2197,-0.061 0.085,0 0.1514,0.02 0.068,0.02 0.1197,0.056 0.052,0.035 0.088,0.085 0.036,0.048 0.061,0.109 0.068,-0.074 0.1287,-0.1257 0.062,-0.052 0.1182,-0.083 0.057,-0.032 0.1105,-0.045 0.054,-0.015 0.1091,-0.015 0.1317,0 0.2211,0.047 0.089,0.045 0.1439,0.1227 0.056,0.077 0.079,0.1817 0.024,0.103 0.024,0.2181 z"
       id="text16"
       style="line-height:3.93934px;font-family:'Droid Sans';-inkscape-font-specification:'Droid Sans';letter-spacing:0px;word-spacing:0px;stroke-dasharray:none" />
    <path
       stroke="none"
       fill="#000000"
       stroke-opacity="1"
       aria-label="Right"
       stroke-width="0.526501"
       gorn="0.1.0.0.0.0.0.0.2.0.0.0.0.0.0.17"
       font-size="4.42202px"
       fill-opacity="1"
       d="m 4055.6829,3039.5742 q 0,0.016 -0.01,0.027 -0.01,0.012 -0.025,0.019 -0.019,0.01 -0.054,0.012 -0.035,0 -0.093,0 -0.051,0 -0.084,0 -0.031,0 -0.05,-0.012 -0.019,-0.01 -0.031,-0.025 -0.01,-0.015 -0.017,-0.039 l -0.2313,-0.5927 q -0.041,-0.101 -0.086,-0.1846 -0.043,-0.085 -0.103,-0.1457 -0.06,-0.062 -0.1418,-0.095 -0.082,-0.035 -0.1963,-0.035 h -0.2235 v 1.0707 q 0,0.016 -0.01,0.027 -0.01,0.012 -0.027,0.019 -0.017,0.01 -0.05,0.01 -0.031,0.01 -0.08,0.01 -0.049,0 -0.082,-0.01 -0.031,0 -0.05,-0.01 -0.019,-0.01 -0.027,-0.019 -0.01,-0.012 -0.01,-0.027 v -2.328 q 0,-0.076 0.039,-0.105 0.041,-0.031 0.086,-0.031 h 0.5345 q 0.095,0 0.1574,0.01 0.064,0 0.1146,0.01 0.1458,0.025 0.2565,0.08 0.1127,0.054 0.1885,0.1379 0.076,0.084 0.1127,0.1924 0.039,0.1069 0.039,0.2371 0,0.1263 -0.035,0.2274 -0.033,0.099 -0.097,0.1768 -0.064,0.076 -0.1536,0.1321 -0.089,0.056 -0.2001,0.095 0.062,0.027 0.1127,0.07 0.051,0.041 0.093,0.099 0.045,0.058 0.084,0.1341 0.039,0.076 0.078,0.171 l 0.2254,0.5539 q 0.027,0.07 0.035,0.099 0.01,0.027 0.01,0.043 z m -0.5033,-1.7664 q 0,-0.1477 -0.066,-0.2488 -0.066,-0.103 -0.2216,-0.1477 -0.049,-0.014 -0.1107,-0.019 -0.06,-0.01 -0.1594,-0.01 h -0.2818 v 0.8473 h 0.3265 q 0.1321,0 0.2274,-0.031 0.097,-0.033 0.1613,-0.089 0.064,-0.058 0.093,-0.1361 0.031,-0.078 0.031,-0.169 z m 1.2709,1.7684 q 0,0.015 -0.01,0.027 -0.01,0.01 -0.025,0.017 -0.017,0.01 -0.049,0.012 -0.031,0 -0.08,0 -0.047,0 -0.078,0 -0.031,0 -0.05,-0.012 -0.017,-0.01 -0.025,-0.017 -0.01,-0.012 -0.01,-0.027 v -1.749 q 0,-0.014 0.01,-0.025 0.01,-0.012 0.025,-0.019 0.019,-0.01 0.05,-0.012 0.031,0 0.078,0 0.048,0 0.08,0 0.031,0 0.049,0.012 0.017,0.01 0.025,0.019 0.01,0.012 0.01,0.025 z m 0.037,-2.3398 q 0,0.1128 -0.043,0.1536 -0.043,0.041 -0.1574,0.041 -0.1127,0 -0.1555,-0.039 -0.041,-0.041 -0.041,-0.1516 0,-0.1127 0.043,-0.1535 0.043,-0.041 0.1574,-0.041 0.1127,0 0.1535,0.041 0.043,0.039 0.043,0.1496 z m 2.0171,0.6705 q 0,0.068 -0.019,0.099 -0.017,0.029 -0.047,0.029 h -0.2506 q 0.068,0.07 0.095,0.1555 0.027,0.084 0.027,0.1749 0,0.1516 -0.049,0.2682 -0.049,0.1166 -0.1399,0.1982 -0.089,0.08 -0.2138,0.1224 -0.1244,0.043 -0.2759,0.043 -0.1069,0 -0.2041,-0.027 -0.095,-0.029 -0.1477,-0.072 -0.035,0.035 -0.058,0.08 -0.021,0.045 -0.021,0.103 0,0.068 0.062,0.1127 0.064,0.045 0.1691,0.049 l 0.4567,0.019 q 0.1302,0 0.239,0.037 0.1088,0.031 0.1885,0.091 0.08,0.058 0.1244,0.1458 0.045,0.085 0.045,0.2001 0,0.1205 -0.051,0.2293 -0.05,0.1089 -0.1554,0.1905 -0.103,0.084 -0.2643,0.1302 -0.1613,0.049 -0.3809,0.049 -0.2118,0 -0.3614,-0.037 -0.1477,-0.035 -0.243,-0.097 -0.095,-0.062 -0.1379,-0.1497 -0.043,-0.085 -0.043,-0.1865 0,-0.064 0.016,-0.1244 0.015,-0.06 0.047,-0.1146 0.033,-0.055 0.08,-0.103 0.049,-0.051 0.1107,-0.099 -0.095,-0.049 -0.1418,-0.1225 -0.045,-0.074 -0.045,-0.1593 0,-0.1186 0.049,-0.2118 0.049,-0.093 0.1205,-0.1672 -0.06,-0.072 -0.095,-0.1613 -0.035,-0.091 -0.035,-0.2196 0,-0.1496 0.05,-0.2681 0.051,-0.1186 0.1399,-0.2002 0.089,-0.082 0.2138,-0.1244 0.1263,-0.045 0.274,-0.045 0.08,0 0.1477,0.01 0.07,0.01 0.1302,0.023 h 0.5285 q 0.033,0 0.049,0.033 0.018,0.031 0.018,0.097 z m -0.5014,0.4605 q 0,-0.1787 -0.099,-0.2778 -0.097,-0.1011 -0.2779,-0.1011 -0.093,0 -0.1632,0.031 -0.068,0.031 -0.1147,0.086 -0.045,0.054 -0.068,0.1263 -0.021,0.07 -0.021,0.1477 0,0.173 0.097,0.2721 0.099,0.099 0.276,0.099 0.095,0 0.1651,-0.029 0.07,-0.031 0.1147,-0.084 0.047,-0.055 0.068,-0.1244 0.023,-0.07 0.023,-0.1458 z m 0.1613,1.3856 q 0,-0.1127 -0.093,-0.1729 -0.091,-0.062 -0.2488,-0.066 l -0.4528,-0.016 q -0.062,0.049 -0.103,0.093 -0.039,0.043 -0.062,0.082 -0.023,0.041 -0.033,0.08 -0.01,0.039 -0.01,0.08 0,0.1263 0.1283,0.1904 0.1282,0.066 0.3576,0.066 0.1457,0 0.2429,-0.029 0.099,-0.027 0.1593,-0.074 0.06,-0.047 0.085,-0.1069 0.027,-0.06 0.027,-0.1263 z m 2.2581,-0.1768 q 0,0.015 -0.01,0.027 -0.01,0.01 -0.025,0.017 -0.017,0.01 -0.049,0.012 -0.031,0 -0.078,0 -0.049,0 -0.08,0 -0.031,0 -0.049,-0.012 -0.018,-0.01 -0.025,-0.017 -0.01,-0.012 -0.01,-0.027 v -1.0241 q 0,-0.1497 -0.023,-0.241 -0.023,-0.091 -0.068,-0.1574 -0.045,-0.066 -0.1166,-0.1011 -0.07,-0.035 -0.1633,-0.035 -0.1205,0 -0.2409,0.086 -0.1205,0.086 -0.2527,0.2506 v 1.2224 q 0,0.015 -0.01,0.027 -0.01,0.01 -0.025,0.017 -0.017,0.01 -0.049,0.012 -0.031,0 -0.08,0 -0.047,0 -0.078,0 -0.031,0 -0.05,-0.012 -0.018,-0.01 -0.025,-0.017 -0.01,-0.012 -0.01,-0.027 v -2.5963 q 0,-0.015 0.01,-0.027 0.01,-0.012 0.025,-0.019 0.019,-0.01 0.05,-0.012 0.031,0 0.078,0 0.049,0 0.08,0 0.031,0 0.049,0.012 0.017,0.01 0.025,0.019 0.01,0.012 0.01,0.027 v 1.0475 q 0.138,-0.1458 0.2779,-0.2157 0.1399,-0.072 0.2818,-0.072 0.1749,0 0.2934,0.06 0.1205,0.058 0.1944,0.1574 0.074,0.099 0.1049,0.2332 0.033,0.1321 0.033,0.3206 z m 1.4575,-0.1283 q 0,0.056 -0.01,0.089 -0.01,0.033 -0.023,0.049 -0.015,0.015 -0.047,0.029 -0.031,0.014 -0.072,0.021 -0.039,0.01 -0.084,0.016 -0.045,0.01 -0.089,0.01 -0.136,0 -0.2332,-0.035 -0.097,-0.037 -0.1593,-0.1088 -0.062,-0.074 -0.091,-0.1846 -0.027,-0.1127 -0.027,-0.2643 v -1.0222 h -0.2448 q -0.029,0 -0.047,-0.031 -0.017,-0.031 -0.017,-0.101 0,-0.037 0,-0.062 0.01,-0.025 0.014,-0.041 0.01,-0.017 0.019,-0.023 0.014,-0.01 0.029,-0.01 h 0.2429 v -0.4159 q 0,-0.014 0.01,-0.025 0.01,-0.012 0.025,-0.019 0.02,-0.01 0.051,-0.014 0.031,0 0.078,0 0.049,0 0.08,0 0.031,0 0.048,0.014 0.018,0.01 0.025,0.019 0.01,0.012 0.01,0.025 v 0.4159 h 0.4489 q 0.015,0 0.027,0.01 0.012,0.01 0.019,0.023 0.01,0.015 0.014,0.041 0,0.025 0,0.062 0,0.07 -0.017,0.101 -0.017,0.031 -0.047,0.031 h -0.4489 v 0.9755 q 0,0.1808 0.053,0.2741 0.054,0.091 0.1923,0.091 0.045,0 0.08,-0.01 0.035,-0.01 0.062,-0.019 0.027,-0.01 0.047,-0.017 0.019,-0.01 0.035,-0.01 0.01,0 0.017,0.01 0.01,0 0.014,0.017 0.01,0.014 0.01,0.037 0,0.023 0,0.058 z"
       id="text17"
       style="line-height:5.05444px;font-family:'Droid Sans';-inkscape-font-specification:'Droid Sans';letter-spacing:0px;word-spacing:0px" />
    <path
       stroke="none"
       fill="#000000"
       stroke-opacity="1"
       aria-label="Left"
       stroke-width="0.526501"
       gorn="0.1.0.0.0.0.0.0.2.0.0.0.0.0.0.18"
       font-size="4.42202px"
       fill-opacity="1"
       d="m 4048.6965,3070.1355 q 0,0.039 0,0.066 0,0.025 -0.014,0.045 -0.01,0.018 -0.021,0.027 -0.012,0.01 -0.029,0.01 h -1.1115 q -0.045,0 -0.085,-0.029 -0.039,-0.031 -0.039,-0.1069 v -2.328 q 0,-0.016 0.01,-0.027 0.01,-0.012 0.027,-0.017 0.019,-0.01 0.052,-0.012 0.033,-0.01 0.08,-0.01 0.049,0 0.08,0.01 0.033,0 0.052,0.012 0.019,0.01 0.027,0.017 0.01,0.012 0.01,0.027 v 2.1745 h 0.9017 q 0.018,0 0.029,0.01 0.014,0.01 0.021,0.025 0.01,0.015 0.014,0.043 0,0.027 0,0.066 z m 1.8248,-0.8531 q 0,0.076 -0.039,0.1088 -0.037,0.031 -0.085,0.031 h -1.1465 q 0,0.1458 0.029,0.2624 0.029,0.1166 0.097,0.2001 0.068,0.084 0.1768,0.1283 0.1089,0.045 0.2663,0.045 0.1243,0 0.2215,-0.019 0.097,-0.021 0.1671,-0.047 0.072,-0.025 0.1166,-0.045 0.047,-0.021 0.07,-0.021 0.014,0 0.023,0.01 0.012,0.01 0.018,0.019 0.01,0.014 0.01,0.039 0,0.023 0,0.058 0,0.025 0,0.045 0,0.017 -0.01,0.033 0,0.014 -0.01,0.025 -0.01,0.012 -0.017,0.023 -0.01,0.01 -0.062,0.035 -0.053,0.023 -0.136,0.047 -0.084,0.023 -0.1944,0.041 -0.1088,0.02 -0.2332,0.02 -0.2157,0 -0.3789,-0.06 -0.1613,-0.06 -0.2721,-0.1788 -0.1107,-0.1185 -0.1671,-0.2973 -0.056,-0.1788 -0.056,-0.4158 0,-0.2255 0.058,-0.4042 0.058,-0.1808 0.1671,-0.3051 0.1107,-0.1264 0.2662,-0.1924 0.1555,-0.068 0.3479,-0.068 0.2059,0 0.3498,0.066 0.1457,0.066 0.239,0.1788 0.093,0.1108 0.136,0.2624 0.045,0.1496 0.045,0.3206 z m -0.3226,-0.095 q 0.01,-0.2527 -0.1127,-0.3965 -0.1166,-0.1438 -0.3478,-0.1438 -0.1186,0 -0.208,0.045 -0.089,0.045 -0.1496,0.1186 -0.06,0.074 -0.093,0.1729 -0.033,0.097 -0.037,0.2041 z m 1.1815,-0.4878 v 1.5333 q 0,0.015 -0.01,0.027 -0.01,0.01 -0.027,0.017 -0.017,0.01 -0.049,0.012 -0.031,0 -0.078,0 -0.047,0 -0.078,0 -0.031,0 -0.05,-0.012 -0.018,-0.01 -0.025,-0.017 -0.01,-0.012 -0.01,-0.027 v -1.5333 h -0.2468 q -0.031,0 -0.047,-0.031 -0.015,-0.031 -0.015,-0.101 0,-0.037 0,-0.062 0,-0.025 0.012,-0.041 0.01,-0.017 0.019,-0.023 0.012,-0.01 0.027,-0.01 h 0.2468 v -0.1808 q 0,-0.1826 0.033,-0.3128 0.035,-0.1322 0.103,-0.2157 0.07,-0.084 0.1749,-0.1225 0.1069,-0.041 0.2507,-0.041 0.072,0 0.1399,0.016 0.068,0.014 0.097,0.027 0.029,0.012 0.041,0.023 0.012,0.012 0.017,0.031 0.01,0.017 0.01,0.045 0,0.025 0,0.062 0,0.037 0,0.06 0,0.021 -0.01,0.035 -0.01,0.014 -0.014,0.019 -0.01,0 -0.017,0 -0.015,0 -0.035,-0.01 -0.019,-0.01 -0.049,-0.019 -0.029,-0.012 -0.07,-0.019 -0.039,-0.01 -0.091,-0.01 -0.072,0 -0.1224,0.023 -0.049,0.023 -0.08,0.074 -0.031,0.049 -0.047,0.1283 -0.014,0.078 -0.014,0.1904 v 0.1905 h 0.789 v -0.4159 q 0,-0.014 0.01,-0.025 0.01,-0.012 0.025,-0.019 0.017,-0.01 0.049,-0.014 0.031,0 0.08,0 0.047,0 0.078,0 0.031,0 0.049,0.014 0.017,0.01 0.025,0.019 0.01,0.012 0.01,0.025 v 0.4159 h 0.447 q 0.015,0 0.027,0.01 0.014,0.01 0.021,0.023 0.01,0.015 0.012,0.041 0.01,0.025 0.01,0.062 0,0.07 -0.017,0.101 -0.017,0.031 -0.047,0.031 h -0.4489 v 0.9755 q 0,0.1808 0.052,0.274 0.053,0.091 0.1924,0.091 0.043,0 0.078,-0.01 0.037,-0.01 0.064,-0.019 0.027,-0.01 0.047,-0.017 0.021,-0.01 0.035,-0.01 0.012,0 0.019,0.01 0.01,0 0.012,0.017 0.01,0.014 0.01,0.037 0,0.023 0,0.058 0,0.056 -0.01,0.089 -0.01,0.033 -0.023,0.049 -0.015,0.015 -0.045,0.029 -0.029,0.014 -0.07,0.021 -0.039,0.01 -0.086,0.016 -0.045,0.01 -0.088,0.01 -0.138,0 -0.2351,-0.035 -0.097,-0.037 -0.1594,-0.1088 -0.062,-0.074 -0.091,-0.1846 -0.027,-0.1127 -0.027,-0.2643 v -1.0222 z"
       id="text17-6"
       style="line-height:5.05444px;font-family:'Droid Sans';-inkscape-font-specification:'Droid Sans';letter-spacing:0px;word-spacing:0px" />
  </g>
  <g
     gorn="0.1.0.0.0.0.0.0.1.0.0.0.0.0.0"
     id="copper1"
     style="display:inline"
     transform="matrix(0.99996373,0,0,0.99996373,-4030.9556,-3014.3315)">
    <path
       stroke="none"
       fill="#ffc000"
       gorn="0.1.0.0.0.0.0.0.1.0.0.0.0.0.0.0"
       d="m 4042.1257,3029.6261 v 7.086 h -11.024 v -7.086 z"
       id="connector5pad" />
    <path
       stroke="none"
       fill="#ffc000"
       gorn="0.1.0.0.0.0.0.0.1.0.0.0.0.0.0.1"
       d="m 4042.1257,3056.7532 v 11.8112 h -11.024 v -11.8112 z"
       id="connector3pad" />
    <path
       stroke="none"
       fill="#ffc000"
       gorn="0.1.0.0.0.0.0.0.1.0.0.0.0.0.0.2"
       d="m 4068.3067,3040.4533 v 7.087 h -9.843 v -7.087 z"
       id="connector1pad" />
    <path
       stroke="none"
       fill="#ffc000"
       gorn="0.1.0.0.0.0.0.0.1.0.0.0.0.0.0.3"
       d="m 4069.2917,3063.2873 v 7.086 h -11.811 v -7.086 z"
       id="connector4pad" />
    <circle
       stroke="none"
       fill="#000000"
       r="4"
       cx="4050"
       cy="3034.9404"
       gorn="0.1.0.0.0.0.0.0.1.0.0.0.0.0.0.4"
       id="connector2pad" />
    <circle
       stroke="none"
       fill="#000000"
       r="4"
       cx="4050"
       cy="3058.5635"
       gorn="0.1.0.0.0.0.0.0.1.0.0.0.0.0.0.5"
       id="connector0pad" />
    <path
       stroke="none"
       fill="#ffc000"
       gorn="0.1.0.0.0.0.0.0.1.0.0.0.0.0.0.6"
       d="m 4038.6343,3059.9844 -1.0542,0.7011 10.1899,6.5508 13.8096,0.086 0.015,-0.9844 -13.2034,-0.082 z"
       id="nonconn2" />
  </g>
</svg>
