<?xml version='1.0' encoding='UTF-8' standalone='no'?>
<svg xmlns="http://www.w3.org/2000/svg" viewBox="0 0 25.196412 11.831003" id="svg2" height="3.0050001mm"  gorn="0" version="1.1" width="6.4000001mm">
    <desc >
        <referenceFile >DO-214AC.svg</referenceFile>
    </desc>
    <g  transform="translate(-3977.4,-2984.1)">
        <g >
            <g >
                <defs id="defs2" />
                <style id="style1"  type="text/css">
*[layerid="1"] {stroke:#000000;fill:#000000;}
*[layerid="2"] {stroke:#000000;fill:#000000;}
*[layerid="3"] {stroke:#000000;fill:#000000;}
*[layerid="4"] {stroke:#000000;fill:#000000;}
*[layerid="5"] {stroke:#000000;fill:#000000;}
*[layerid="6"] {stroke:#000000;fill:#000000;}
*[layerid="7"] {stroke:#000000;fill:#000000;}
*[layerid="8"] {stroke:#000000;fill:#000000;}
*[layerid="9"] {stroke:#000000;fill:#000000;}
*[layerid="10"] {stroke:#000000;fill:#000000;}
*[layerid="11"] {stroke:#000000;fill:#000000;}
*[layerid="12"] {stroke:#000000;fill:#000000;}
*[layerid="13"] {stroke:#000000;fill:#000000;}
*[layerid="14"] {stroke:#000000;fill:#000000;}
*[layerid="15"] {stroke:#000000;fill:#000000;}
*[layerid="19"] {stroke:#000000;fill:#000000;}
*[layerid="21"] {stroke:#000000;fill:#000000;}
*[layerid="22"] {stroke:#000000;fill:#000000;}
*[layerid="23"] {stroke:#000000;fill:#000000;}
*[layerid="24"] {stroke:#000000;fill:#000000;}
*[layerid="25"] {stroke:#000000;fill:#000000;}
*[layerid="26"] {stroke:#000000;fill:#000000;}
*[layerid="27"] {stroke:#000000;fill:#000000;}
*[layerid="28"] {stroke:#000000;fill:#000000;}
*[layerid="29"] {stroke:#000000;fill:#000000;}
*[layerid="30"] {stroke:#000000;fill:#000000;}
*[layerid="31"] {stroke:#000000;fill:#000000;}
*[layerid="32"] {stroke:#000000;fill:#000000;}
*[layerid="33"] {stroke:#000000;fill:#000000;}
*[layerid="34"] {stroke:#000000;fill:#000000;}
*[layerid="35"] {stroke:#000000;fill:#000000;}
*[layerid="36"] {stroke:#000000;fill:#000000;}
*[layerid="37"] {stroke:#000000;fill:#000000;}
*[layerid="38"] {stroke:#000000;fill:#000000;}
*[layerid="39"] {stroke:#000000;fill:#000000;}
*[layerid="40"] {stroke:#000000;fill:#000000;}
*[layerid="41"] {stroke:#000000;fill:#000000;}
*[layerid="42"] {stroke:#000000;fill:#000000;}
*[layerid="43"] {stroke:#000000;fill:#000000;}
*[layerid="44"] {stroke:#000000;fill:#000000;}
*[layerid="45"] {stroke:#000000;fill:#000000;}
*[layerid="46"] {stroke:#000000;fill:#000000;}
*[layerid="47"] {stroke:#000000;fill:#000000;}
*[layerid="48"] {stroke:#000000;fill:#000000;}
*[layerid="49"] {stroke:#000000;fill:#000000;}
*[layerid="50"] {stroke:#000000;fill:#000000;}
*[layerid="51"] {stroke:#000000;fill:#000000;}
*[layerid="52"] {stroke:#000000;fill:#000000;}
*[layerid="99"] {stroke:#000000;fill:#000000;}
*[layerid="100"] {stroke:#000000;fill:#000000;}
*[layerid="101"] {stroke:#000000;fill:#000000;}
*[layerid="Hole"] {stroke:#000000;fill:#000000;}
*[layerid="DRCError"] {stroke:#000000;fill:#000000;}
*[fill="none"] {fill: none;}
*[stroke="none"] {stroke: none;}
path, polyline, polygon, line {stroke-linecap:round;}
g[c_partid="part_pad"][layerid="1"] ellipse:not([c_etype="pad_outer"]) {fill:#000000;}
g[c_partid="part_pad"][layerid="1"] polygon:not([c_etype="pad_outer"]) {fill:#000000;}
g[c_partid="part_pad"][layerid="1"] polyline:not([c_etype="pad_outer"]) {stroke:#000000;}
g[c_partid="part_pad"][layerid="2"] ellipse:not([c_etype="pad_outer"]) {fill:#000000;}
g[c_partid="part_pad"][layerid="2"] polygon:not([c_etype="pad_outer"]) {fill:#000000;}
g[c_partid="part_pad"][layerid="2"] polyline:not([c_etype="pad_outer"]) {stroke:#000000;}
g[c_partid="part_pad"][layerid="11"] ellipse:not([c_etype="pad_outer"]) {fill:#000000;}
g[c_partid="part_pad"][layerid="11"] polygon:not([c_etype="pad_outer"]) {fill:#000000;}
g[c_partid="part_pad"][layerid="11"] polyline:not([c_etype="pad_outer"]) {stroke:#000000;}
g[c_partid="part_pad"][layerid="11"] circle {fill:#FFFFFF;}
g[c_partid="part_pad"][layerid="11"] > polyline:nth-of-type(2) {stroke:#FFFFFF;}
g[c_partid="part_pad"][layerid="11"][c_shape="ELLIPSE"]  polyline:nth-last-of-type(1) {stroke:#FFFFFF;}
g[c_partid="part_pad"][layerid="11"][c_shape="RECT"]  polyline:nth-last-of-type(1) {stroke:#FFFFFF;}
g[c_partid="part_pad"][layerid="11"][c_shape="POLYGON"]  polyline:nth-last-of-type(1) {stroke:#FFFFFF;}
g[c_partid="part_via"] > * + circle, #gCurParts g[c_partid="part_via"] > * + circle {fill:#FFFFFF;}
g[c_partid="part_pad"] > polygon[c_etype="pad_outer"], #gCurParts g[c_partid="part_pad"] > polygon[c_etype="pad_outer"] {stroke-linejoin: round;stroke-miterlimit: 100;}
g[c_partid="part_hole"] > circle {fill: #FFFFFF;}path, polyline, polygon {stroke-linejoin:round;}
rect, circle, ellipse, polyline, line, polygon, path {shape-rendering:crispEdges;}
</style>
                <g id="copper1"  gorn="0.1.0.0.2">
                    <path id="connector1pin" stroke="none" d="m 3994.7217,2986.0776 v 7.8737 h 7.8737 v -7.8737 z" fill="#ffc000"  gorn="0.1.0.0.2.0"/>
                    <path id="connector0pin" stroke="none" d="m 3977.3995,2986.0776 v 7.8737 h 7.8737 v -7.8737 z" fill="#ffc000"  gorn="0.1.0.0.2.1"/>
                </g>
                <g id="silkscreen"  gorn="0.1.0.0.3">
                    <path id="path16" stroke="none" d="m 3992.0117,2987.6574 v 2.0203 h -2.0305 v 0.6735 h 2.0305 v 2.0427 h 0.6734 v -2.0427 h 2.0366 v -0.6735 h -2.0366 v -2.0203 z" fill="#000000"  gorn="0.1.0.0.3.0"/>
                    <path id="path7" stroke="none" d="m 3978.3028,2994.3297 -0.014,1.5829 1.8107,0.018 0.01,-1.6012 z m 1.8006,0.999 v 0.6002 h 20.1197 c 0.165,-5e-4 0.2986,-0.1341 0.2991,-0.2991 6e-4,-0.1657 -0.1333,-0.3006 -0.2991,-0.3011 z m -0.3418,0.5982 c 0,2e-4 0.01,0 0.014,0 h 0.1221 z m -1.4913,-11.8269 -0.014,1.5829 1.8108,0.018 0.01,-1.6012 z m 21.9406,0 c -0.1642,0.01 -0.2938,0.141 -0.2909,0.3052 l 0.024,0.9441 c 0,0.1657 0.1434,0.2961 0.3092,0.2909 0.1658,0 0.2962,-0.1435 0.291,-0.3093 l -0.027,-0.9399 c 0,-0.165 -0.1422,-0.295 -0.3072,-0.291 z m -20.134,0 v 0.5982 h 19.8552 l -0.01,-0.293 c 0,-0.1642 0.1267,-0.3002 0.2909,-0.3052 z m 20.134,0 c 0.038,-9e-4 0.072,0.01 0.1058,0.018 -0.031,-0.011 -0.063,-0.018 -0.098,-0.018 z m 0.1241,0.024 c 0.029,0.012 0.054,0.031 0.077,0.051 -0.024,-0.02 -0.048,-0.038 -0.077,-0.051 z m 0.096,0.065 c 0.022,0.022 0.041,0.049 0.055,0.077 -0.014,-0.029 -0.033,-0.055 -0.055,-0.077 z m 0.063,0.091 c 0.014,0.032 0.021,0.068 0.022,0.1058 0,-0.037 -0.01,-0.073 -0.022,-0.1058 z m -0.2953,10.062 c -0.165,0 -0.295,0.1422 -0.2909,0.3072 l 0.018,0.6775 h 0.2929 c 0.1658,5e-4 0.2997,0.1354 0.2991,0.3011 -1e-4,0.032 -0.01,0.061 -0.018,0.09 0.022,-0.043 0.034,-0.091 0.033,-0.1424 l -0.024,-0.9399 c 0,-0.1666 -0.1427,-0.2982 -0.3093,-0.293 z m -13.9815,-9.6438 v 10.6285 h 0.6002 v -10.6285 z" fill="black"  gorn="0.1.0.0.3.1"/>
                </g>
            </g>
        </g>
    </g>
</svg>
