<?xml version="1.0" encoding="UTF-8" standalone="no"?>
<svg
   viewBox="0 0 11.023904 6.1417321"
   gorn="0"
   id="svg11"
   version="1.1"
   width="2.8mm"
   height="1.5599999mm"
   xmlns="http://www.w3.org/2000/svg"
   xmlns:svg="http://www.w3.org/2000/svg">
  <defs
     id="defs10">
    <defs
       id="defs11" />
  </defs>
  <desc
     id="desc1">
    <referenceFile>UFDFN-10.svg</referenceFile>
  </desc>
  <g
     gorn="0.1.0.0.0.1.0.0.0"
     id="silkscreen"
     transform="translate(-4044.4881,-3046.9291)">
    <path
       fill="#000000"
       gorn="0.1.0.0.0.1.0.0.0.0"
       id="path36"
       style="stroke-linecap:round;stroke-linejoin:round;shape-rendering:crispEdges"
       stroke-opacity="1"
       stroke-width="0.877147"
       fill-opacity="1"
       stroke="none"
       d="m 4055.1187,3048.0318 c -0.217,-5e-4 -0.3935,0.1342 -0.3947,0.3011 v 3.3326 c -2e-4,0.1677 0.1767,0.3036 0.3947,0.3031 0.2171,-4e-4 0.3928,-0.136 0.3926,-0.3031 v -3.3326 c 0,-0.1663 -0.1765,-0.3007 -0.3926,-0.3011 z" />
    <path
       fill="#000000"
       gorn="0.1.0.0.0.1.0.0.0.1"
       id="path35"
       style="stroke-linecap:round;stroke-linejoin:round;shape-rendering:crispEdges"
       stroke-opacity="1"
       stroke-width="0.877147"
       fill-opacity="1"
       stroke="none"
       d="m 4044.8808,3048.0318 c -0.2162,4e-4 -0.3914,0.1348 -0.3927,0.3011 v 3.3326 c -2e-4,0.1671 0.1755,0.3027 0.3927,0.3031 0.2179,5e-4 0.3948,-0.1354 0.3947,-0.3031 v -3.3326 c 0,-0.1669 -0.1778,-0.3016 -0.3947,-0.3011 z" />
    <path
       fill="#000000"
       gorn="0.1.0.0.0.1.0.0.0.2"
       id="path34"
       style="shape-rendering:crispEdges"
       stroke-opacity="1"
       stroke-width="0.708559"
       fill-opacity="1"
       stroke="none"
       d="m 4044.8625,3052.284 c -0.2053,0.011 -0.3744,0.1873 -0.3744,0.3947 0,0.2142 0.1806,0.3927 0.3947,0.3927 0.2142,0 0.3927,-0.1785 0.3927,-0.3927 0,-0.2141 -0.1785,-0.3947 -0.3927,-0.3947 -0.01,0 -0.014,-3e-4 -0.02,0 z m 0,0.2299 c 0.01,-6e-4 0.011,0 0.016,0 0.087,0 0.1628,0.077 0.1628,0.1648 0,0.087 -0.075,0.1648 -0.1628,0.1648 -0.087,0 -0.1648,-0.077 -0.1648,-0.1648 0,-0.082 0.068,-0.1559 0.1485,-0.1648 z" />
  </g>
  <g
     gorn="0.1.0.0.0.2.0.0.0"
     id="copper1"
     transform="translate(-4044.4881,-3046.9291)">
    <path
       fill="#ffc000"
       gorn="0.1.0.0.0.2.0.0.0.0"
       id="connector10pin"
       style="stroke-linecap:round;stroke-linejoin:round;shape-rendering:crispEdges"
       stroke-width="0"
       fill-opacity="1"
       stroke="none"
       d="m 4045.5705,3046.9168 v 2.6999 h 0.9847 v -2.6999 z" />
    <path
       fill="#ffc000"
       gorn="0.1.0.0.0.2.0.0.0.1"
       id="connector9pin"
       style="stroke-linecap:round;stroke-linejoin:round;shape-rendering:crispEdges"
       stroke-width="0"
       fill-opacity="1"
       stroke="none"
       d="m 4047.5379,3046.9168 v 2.6999 h 0.9847 v -2.6999 z" />
    <path
       fill="#ffc000"
       gorn="0.1.0.0.0.2.0.0.0.2"
       id="connector8pin"
       style="stroke-linecap:round;stroke-linejoin:round;shape-rendering:crispEdges"
       stroke-width="0"
       fill-opacity="1"
       stroke="none"
       d="m 4049.2144,3046.929 v 2.6775 h 1.5747 v -2.6775 z" />
    <path
       fill="#ffc000"
       gorn="0.1.0.0.0.2.0.0.0.2"
       id="nonconn0"
       style="stroke-linecap:round;stroke-linejoin:round;shape-rendering:crispEdges"
       stroke-width="0"
       fill-opacity="1"
       stroke="none"
       d="m 4049.2144,3046.929 v 6.1424 h 1.5747 v -6.1424 z" />
    <path
       fill="#ffc000"
       gorn="0.1.0.0.0.2.0.0.0.3"
       id="connector7pin"
       style="stroke-linecap:round;stroke-linejoin:round;shape-rendering:crispEdges"
       stroke-width="0"
       fill-opacity="1"
       stroke="none"
       d="m 4051.4788,3046.9168 v 2.6999 h 0.9827 v -2.6999 z" />
    <path
       fill="#ffc000"
       gorn="0.1.0.0.0.2.0.0.0.4"
       id="connector6pin"
       style="stroke-linecap:round;stroke-linejoin:round;shape-rendering:crispEdges"
       stroke-width="0"
       fill-opacity="1"
       stroke="none"
       d="m 4053.4442,3046.9168 v 2.6999 h 0.9847 v -2.6999 z" />
    <path
       fill="#ffc000"
       gorn="0.1.0.0.0.2.0.0.0.5"
       id="connector5pin"
       style="stroke-linecap:round;stroke-linejoin:round;shape-rendering:crispEdges"
       stroke-width="0"
       fill-opacity="1"
       stroke="none"
       d="m 4053.4463,3050.3817 v 2.6998 h 0.9826 v -2.6998 z" />
    <path
       fill="#ffc000"
       gorn="0.1.0.0.0.2.0.0.0.6"
       id="connector4pin"
       style="stroke-linecap:round;stroke-linejoin:round;shape-rendering:crispEdges"
       stroke-width="0"
       fill-opacity="1"
       stroke="none"
       d="m 4051.4788,3050.3817 v 2.7019 h 0.9827 v -2.7019 z" />
    <path
       fill="#ffc000"
       gorn="0.1.0.0.0.2.0.0.0.7"
       id="connector3pin"
       style="stroke-linecap:round;stroke-linejoin:round;shape-rendering:crispEdges"
       stroke-width="0"
       fill-opacity="1"
       stroke="none"
       d="m 4049.2144,3050.3939 v 2.6775 h 1.5747 v -2.6775 z" />
    <path
       fill="#ffc000"
       gorn="0.1.0.0.0.2.0.0.0.8"
       id="connector2pin"
       style="stroke-linecap:round;stroke-linejoin:round;shape-rendering:crispEdges"
       stroke-width="0"
       fill-opacity="1"
       stroke="none"
       d="m 4047.5379,3050.3817 v 2.7019 h 0.9847 v -2.7019 z" />
    <path
       fill="#ffc000"
       gorn="0.1.0.0.0.2.0.0.0.9"
       id="connector1pin"
       style="stroke-linecap:round;stroke-linejoin:round;shape-rendering:crispEdges"
       stroke-width="0"
       fill-opacity="1"
       stroke="none"
       d="m 4045.5705,3050.3817 v 2.7019 h 0.9847 v -2.7019 z" />
  </g>
</svg>
